<?xml version="1.0" encoding="UTF-8"?>
<svg id="Layer_1" data-name="Layer 1" xmlns="http://www.w3.org/2000/svg" viewBox="0 0 372.39 293.72">
  <defs>
    <style>
      .cls-1 {
        fill: #8f6c53;
      }

      .cls-2 {
        fill: #e2c6a5;
      }

      .cls-3 {
        fill: #d1aa7e;
      }

      .cls-4 {
        fill: #aa744e;
      }

      .cls-5 {
        fill: #3d1a17;
      }
    </style>
  </defs>
  <g id="Capa_de_vector11" data-name="Capa de vector11">
    <g>
      <path class="cls-4" d="m132.96,194.99c0,.5-.4,1-1,1-1,.1-2,.1-2.9.2-1,.8-3.4.9-4.2,1.4-5.2,1.9-10.8,2.4-16,3.9-8.1,2.2-16.5,3.1-24.6,5.4-8.3,1.9-16.4,4.6-24.8,6.1-5.2.9-10.5,1.1-15.8,1.1-.4,0-1,0-1.6-.1-.2.2-.4.3-.8.2-.4,0-.7-.4-.8-.8-.2-.2-.4-.5-.3-1,.1-.3.2-.5.5-.6.3-2,.7-4,1.1-6,.2-.9.3-1.7.5-2.6.1-.4.2-.9.6-1.1h.8c.2.1.3.2.5.4h.1c4.4.3,8.8-.3,13.2-.3,4,.1,8.1.2,12.1-.2,4.5,0,8.9-1,13.4-1.8,5.9-.5,11.6-1.9,17.4-2.9,10-1.5,20.1-2.6,30.2-3.4.7.2,2.3-.3,2.4,1.1h0Z"/>
      <path class="cls-4" d="m348.66,125.09c.4.2.6.7.4,1.2.1.4,0,.7-.4,1-1,2.8-2.8,5.1-4.3,7.6-.1.1-.2.3-.3.4.1,1.1-1.4,2.8-1.7,3.6-2.4,4.3-4.9,8.6-6.7,13.2.1.2.1.5-.1.8s-.4.7-.6,1h0s0,.1-.1.1c-1.9,3.4-3.7,6.9-5.6,10.4-3.2,5.1-6.1,10.4-8.2,16.1-2,3.8-4.2,7.5-6,11.5-.9,1.5-3.2,7.7-5.2,8.4-.5,1.2-1.1,2.4-1.7,3.6-3.5,5.9-6.7,11.9-9.8,18-1.3,2.8-2.3,5.7-3.9,8.3-1,1.6-2.2,3.1-3,4.8-2.1,6-5.3,11.5-8.2,17.1-1.8,3.8-3.5,7.6-5.9,11.1-.2.4-.5.6-.9.6-1,2-2,4.7-4.3,3.9-1.1-.5-.8-1.8-.6-2.8.5-3.2,1.4-6.5,2.4-9.6.1-.3.2-.5.2-.8,1.1-.3.9-2.3,1.4-3.2.3-1,.7-2.1.9-3.2,1.4-3.5,2.8-6.9,3.8-10.5.1-.3.2-.5.4-.6-.1-.2-.1-.5,0-.7.4-1.1.8-2.2,1.1-3.3.3-1,.6-2,1-3,.3-1,.6-2,1-3.1.3-1,.6-1.9.9-2.9s.8-1.9,1.1-2.9c.4-1,.7-2,1.1-3,.3-.9.5-1.8.8-2.7,1.3-3.5,2.5-7,3.8-10.5.1-.1.1-.2.2-.4.4-.8.7-1.6,1.1-2.4.6-1.3,1.2-2.6,1.8-3.9.6-1.3,1.3-2.5,1.9-3.7,0,0,.1-.1.1-.2,0,0,0-.1.1-.2.1-.1.1-.2.1-.2l.1-.2c.6-1.3,1-2.7,1.6-4,.3-.7.6-1.4.9-2.2.2-.5.5-1.1.7-1.6v-.1c.1-.2.1-.3.2-.4.2-.4.6-.7,1.1-.6h0c.2-.3.3-.7.5-1,2.7-5.8,4.8-11.9,8.3-17.3,2.6-4.5,4.5-9.4,7.2-13.8,4.7-7.9,9.5-15.8,14.9-23.2.2-.3.5-.4.7-.4,1.8-2.7,3.7-5.2,5.4-7.9.8-1.4,1.5-2.9,2.4-4.3.3-.5.7-1.3,1.3-1.5,0,0,0-.1.1-.1.1-.1.2-.2.3-.3h0c.2-.1.5-.2.9,0,1.3.7,1.6,2.4,2.3,3.7,1.2,1.8,1.9,3.4,2.3,5.5.5.4.6.6.7.8h0Z"/>
      <path class="cls-3" d="m269.96,128.39c.2-.3.4-.7.7-1-1.9.2-3.8.3-5.8.1-1.4-.5-3-1.4-3.7-2.7h0c-.1-.2-.2-.3-.2-.5-.1-.4-.2-.8-.2-1.2-.2-3,.3-5.9,1.4-8.6.5-.3.9-.8.8-1.4.4-.3.6-.7.5-1.1.2-.3.4-.7.6-1-7.1.6-14,2.6-20.8,4.6-4.5,2.2-9.4,3.6-13.9,5.7-5.1,2.1-9.9,4.8-15.2,6.4-2.9,1.5-5.9,2.8-8.9,4.1-1.9.9-3.7,2.1-5.7,2.7-1,.3-2.2.5-3.2.8-1,.2-1.9.7-2.8,1h-.1c-.1,0-.2,0-.3.1-.2,0-.4.1-.6.1s-.4,0-.6-.1h0c-.8.4-1.8.4-2.8.4,0,.1-.1.2-.1.3-.6.7-1.9.4-2.6.5-1.2,0-2.4,0-3.6-.1-.9,0-1.8,0-2.6-.1h-.2c-3.6-.5-7.1-1.1-10.7-1.9-2.5-.5-4.9-1.3-7.3-2.3-.5-.4-1.2-.1-1.4.4-.7-.3-1.4-.6-2-1-7.7-4.9-14.8-10.5-21.2-17-6.9-6.5-13.9-12.8-20.5-19.5-1.5-1.3-2.7-2.6-3.9-4.1-2.3-2-4.5-4.3-6.8-6.3h0c-2.6-2-4.9-4.3-7.6-6.3-.3-.3-.6-.5-.8-.6-.9-.7-1.6-1.5-2.5-2.2h0c-.1,0-.1.1-.2.1-.1,1.7.4,3.3.3,4.8-.3,1.1-.9,2.3-1.4,3.3-.6,1.8-1.3,3.3-2.3,4.5-1.6,1.2-3.5,2-5.5,2.3h-.2c-3.8,0-4.7-4.7-6-7.8-.5,0-1-.4-1-.9-.1,0-.1.1-.2.1l-.1.1c-.2.2-.5.5-.6.8-.7,2-1.5,3.9-2.3,5.8-.5,1-1,2-1.5,3.1.1.4,0,.9-.2,1.2-.6,1.8-1.1,3.6-1.8,5.4-3.2,9.2-7.7,18-11.2,27-1.6,3.9-2.8,8-4.1,12-2.1,4.8-4.1,9.6-6.1,14.4-.8,2.1-2.1,4-3,6-.1.2-.3.5-.4.8.6.1,1.1.5,1.6.8.1.2.2.4.5.5h.2c5,4.6,5.9,12.2,4.9,18.6-.1.6-.2,1.1-.3,1.7.8,0,1.5,0,2.2-.1,4.1.5,8.3.6,12.5.6,5.1.3,10-.3,15-.8,6.1.2,12.2.5,18.2-.5,8.5-1.2,17.2-1.6,25.7-2,6.8-1.1,13.6.4,20.1,2,6.1,1.6,12,3.5,17.6,6.3,4.7,2.8,9.6,5.4,14,8.7.4-.1.8,0,1,.5,2.9,2.4,6,4.7,9.1,6.9h0c1,.8,2,1.6,3,2.4,1,.8,2.1,1.6,3.2,2.3,1,.8,2,1.5,2.9,2.3,6.5,5.7,13,11.3,19.9,16.4,3.7,2.8,7.4,5.8,11,8.6.8.6,1.5,1.1,2.4,1.6h.1c.2-.2.3-.5.3-.8.3-3.7-.9-7.5.3-11.1.1-.2.2-.3.4-.4.1-.6.2-1.2.5-1.7.6-1.5,1.6-2.7,2.5-4,.9-1.2,2-2.4,3.5-2.7,1.2,0,2.4.4,3.5.9.5.2,1,.3,1.5.5.4-.2.8-.3.9-.9.1-.4.2-.7.4-1.1.1-3,1-5.9,1.7-8.8.1-.7.2-1.4.3-2-.3.1-.7.1-.9-.1.4-2.3.8-4.6.9-6.9.4-2.5.8-4.9,1-7.4.3-1.6.6-3.2,1-4.7.9-3.6,1.7-7.3,2.5-10.9,1.1-4.1,2.8-8,4.1-12,.5-2.1,1.2-4.2,2-6.3-.4-.3-.5-.8-.3-1.2,0,.1-.1.1-.1.2.1-.6.2-1.2.4-1.8.8-2.1,1.5-4.2,2.1-6.3.1-.4.3-.9.2-1.4.3-.8.6-1.6.9-2.3.4-.7.8-1.5,1.2-2.2,1.4-2.8,3-5.9,4.8-8.5.9-.5.9-1.3.5-1.8,0-.1.1-.2.1-.2.5-.3.9-.6,1.3-1,.4-.4.3-.8.1-1.1h0Zm73.1-14c.2.4.1.7-.1.9h0c-.1.1-.2.2-.3.3-.2.1-.4.2-.7.1-.5,1-1.2,1.9-2,2.6-1.5,1.5-2.5,2.9-3.8,4.5-2.5,3.2-4.4,6.8-6.4,10.2-3.7,4.7-6.9,9.7-10,14.8-1.1,1.8-2.1,3.4-3.2,5.1-.9,1.5-1.6,3.2-2.6,4.8-.1.1-.1.2-.2.3,0,.1-.1.1-.1.2-.9,1.9-1.8,3.9-3,5.6-1.4,2.5-2.8,5.2-4.2,7.7,0,.2-.1.4-.3.6-2.6,5.4-4.8,10.9-7.7,16.1-1.6,3.3-2.2,7-4.1,10.2-.5.9-.9,1.8-1.4,2.7.2.3.3.6.1,1-.4,1-.8,2-1.1,3-1.3,3.5-2.5,7-3.8,10.5-.5,1.3-1,2.6-1.5,4-.7,1.8-1.4,3.5-2.1,5.2,0,0,0,.1-.1.2-.4,1.1-.9,2.2-1.4,3.3h0c0,.1-.1.1-.1.2-1.4,4.6-2.5,9.2-4.3,13.7-.7,2-1.2,4-1.8,6.1-.3,1.1-.6,2.1-1,3.2-.4.9-.3,2.9-1.4,3.2-.1,0-.3.1-.5,0-.2,0-.5-.2-.6-.4-1,3.3-1.8,6.7-2.4,10.1-.1.4-.1.8-.3,1.2-.1.7-.9,1.3-1.6.8-.4-.3-.8-.6-1.2-.8-1.2-.3-2.6-.4-3.5-1.2-.5-.2-.9-.3-1.3-.6-.8-.2-1.5-.5-2.3-.6-.3.1-.7,0-1-.2-.1-.1-.2-.2-.2-.3h0c-4.7-.3-9.4-1.5-13.8-3.3-2.3-.6-4.3-1.6-6.3-2.8-.2.5-.9.8-1.4.4-4.5-2.9-9-5.4-13.4-8.4-4.1-3.2-8.2-6.2-12.3-9.4-3.2-2.7-5.9-6-8.9-8.9-1-.9-2-1.8-3-2.8-.4.2-.8.1-1.1-.2-1.4-1.4-3.1-2.5-4.6-3.9-1.7-1.5-3-3.6-4.7-5-4.8-4-9.9-7.5-15.1-10.8-5.6-4.2-11.6-7.7-18-10.5-3.1-1.3-6.3-2.6-9.6-3.4-2.1-.4-4.2-.5-6.2-.8-.3.2-.7.2-1-.1-3.1.4-6.3.8-9.4,1.3-2.2.2-4.6-.2-6.8-.1-.5,0-.9.1-1.4.1v.1c-.2.4-.6.7-1.1.6-3.6.4-7.1,1.5-10.7,1.4-3.6.5-7.1,1-10.6,1.5h0c-1.1.3-2.2.5-3.4.6-3.5.1-6.8,1.1-10.3,1-5.8.7-11.5,1.2-17.3,2-.8,0-2,.5-2.6,0-1.2.1-2.4.1-3.7.2-.7.1-1.5.2-2.2.2-.1.1-.2.1-.4.1h0c-.6,0-1.3,0-1.9.1-1.4.1-2.8.4-4.3.6-.7.1-1.3.2-2,.2h-.3c-.8,0-1.5-.2-2.2-.2h-1.6c-1.5,0-3,.1-4.4.1h-5.2c-.5,0-.8-.1-1-.4-1-.1-2.1-.1-3.2-.2h-.7c-.2.1-.4.1-.7,0h0c-.8,0-1.4-.3-1.2-1.2.1-.4.3-.6.6-.6.1-2.2,1.3-4.3,1.3-6.5-.1-.4.1-.7.3-.9-1.6-1.7-7.6-1.1-9.7-1.8-.8-.2-1.6-.4-2.4-.6h-.2c-.2.2-.5.3-.8.2-.6-.1-.9-.8-.7-1.3,1.1-2.6,1.9-5.3,3-8,.6-1,.7-3.6,2.1-3.4,1.8-5.2,3.8-10.4,5.9-15.5,6.5-16.7,12.9-33.5,18.8-50.5h0c1.9-6.4,4.5-12.6,6.7-18.9.5-1.5,1-3.1,1.5-4.6.1-.3.2-.5.4-.7,0-.2.1-.3.2-.5.3-.5,1-.5,1.4-.2,2.1.7,4.3,1.1,6.6,1.2.7,0,1.3-.4,1.6-.9-.7-1.3-2.3-2-3.3-3-1.1-.9-2.3-1.5-3.4-2.3-.2-.3-.3-.6-.3-.8-1-.7.2-1.8.7-3.1,4.4-9.7,8.4-19.5,11.7-29.6.2-.8.7-1.6.9-2.3.3-.5.7-.6,1.1-.5.1-.1.2-.1.4-.1.7,0,1.2.5,1.8.7,2.9,1.5,5.8,2.9,8.6,4.5,6,3.3,11.2,7.8,16.8,11.8,5.1,3.6,10.2,7.2,14.6,11.7,2.1,2.5,4.3,4.8,6.5,7.1,3.5,3.9,6.6,8.2,10.1,12.1,3,3.4,5.5,7.2,8.5,10.7h0c3.9,4.3,8,8.5,12.4,12.2,3.1,3.4,6.5,7,10.9,8.4,3.1,1.2,6.2,2.3,9.5,2.7,4-.3,8.3.6,12.2-.8,6.4-2.8,12.9-5.4,19.2-8.4,8.1-4.2,16.4-7.7,24.9-10.9,10.1-2.8,20-6.4,30.2-9,7-1.7,14.1-2.9,21.3-3.8,8.3-1.3,16.5-2.9,24.8-3.5,1.6.1,6.1-1.4,5.9.7,0,.4-.4.8-.8.8-.1.1-.2.2-.3.3l-1.2,2.1c.2.4.3.9-.1,1.2-1.1.8-2.2,4.4-3.5,6.3,1.9.1,3.8.7,5.7.5,3.2-.4,6.4-.8,9.7-.4.5,0,1.1,0,1.6.2h7.9c3.5.5-2.2,4.7-2.9,5.8,2.3.4,4.6.3,6.9.6.5-.3,1.4-.3,2-.1,1.3.3,2.5,1.1,3,2.3.4.8.4,1.9.9,3h0Z"/>
      <path class="cls-2" d="m98.76,155.99c5.5-1.8,15.9-18.4,15.6-24.2-4-.9-17.4,20.5-15.9,24.2h.3Zm15.1-26.1c3.2-.1,2.6,3.1,2.1,5.2-1.4,5.7-11.2,22.6-17.4,22.9,0,.2,0,.4-.2.6-.2,0-.4.1-.5.1-.5,0-.9-.1-1.2-.5h0c-1.5-4.8,1.6-9.4,3.9-13.4,1.5-2.8,2.9-5.7,5-8.1.4-.4.7-1,1.2-1.2.1,0,.2,0,.2-.1.6-.7,1.3-1.5,1.9-2.2,1.4-1.5,2.9-3,5-3.3h0Z"/>
      <path class="cls-2" d="m98.26,157.09c-2-.7-1.5-2.7-.8-4.2.7-1.2.9-3.3,2.5-3.7.5-1.1.9-2.1,1.4-3.2-.4-.3-.4-1-.2-1.4,1.7-4.7,4.7-8.9,8.5-12.2,1.1-.7,3-3.1,4.3-2,1.8,2.2,1.1,4-.2,6.2.2.3.2.8-.1,1.1-.7,1.3-1.3,2.6-2,3.8.2.3.2.7,0,1-.5.9-1.2,1.7-1.8,2.5-1.3,1.8-2.6,3.6-4,5.4-.3.4-.6,1-1.2,1.1-1.7,1.6-3.9,6-6.4,5.6h0Z"/>
      <path class="cls-2" d="m137.86,138.69c2.6-.4,1.7,2.8,1,4.2-.3,2.5-1.7,4.6-3.1,6.7-1.3,1.9-4.8,9.7-7.3,9.2-.9,1-1.7,2.2-2.9,2.9,0,.2-.1.4-.2.5-.3.1-.6.2-.9.3-.3,0-.5-.2-.7-.5h0c-.8-1.6.6-3.3,1.1-4.9,1.6-3.8,3.9-7.2,6.3-10.6,1.4-1.9,2.8-3.9,4.3-5.7.6-1,1.4-1.8,2.4-2.1h0Z"/>
      <path class="cls-2" d="m148.06,166.59c-3.4-2.6,4.1-12.5,6.1-15,2.7-3.4,6.4-4.7,5.4,1.2-1.1,3.2-3.1,5.9-5,8.6-1.4,1.9-2.8,4.2-5.1,4.9-.4.5-1.1.6-1.4.3h0Zm1-2.2c2.2-1.1,3.3-3.7,4.9-5.5,1.5-2.6,3.8-5,3.8-8-1.4,1-2.5,2.3-3.5,3.7-2.1,3.1-4.4,6.2-5.2,9.8Z"/>
      <path class="cls-2" d="m149.06,165.49c-2.2-.5.8-4.3,1.3-5.5,1.9-3.2,3.3-6.8,5.9-9.5.7-.8,1.9-1.4,2.4,0,.2,1.3-.5,2.5-.9,3.7-1.3,3.2-3.3,6.2-5.6,8.8-.6.5-1,1.5-1.8,1.4,0,.7-.7,1.2-1.3,1.1h0Z"/>
      <path class="cls-2" d="m104.96,110.49c-.9.5-1.8.9-2.7,1.3h0c-.4.2-.7.3-1.1.5-5.2,2.4-10.5,4.5-15.5,7.2-.6.2-1.6,1-2.5,1.3.7,1.9,1.1,3.9,2.2,5.6,1.5-.7,3.1-1.3,4.4-2.4.6-.4,1.2-1,1.9-.8,1.4.7-.1,2.3-.4,3.3-1.7,3.4-3.4,6.8-5.2,10.1-2.5,5.3-5.7,10.2-8.4,15.3-.2.5-.4.8-.5,1.3,0,.7-.7,1-1.2.9-.8,1.7-1.6,3.3-2.3,5.1-.1.2-.1.3-.2.5.6.2,1.2.5,1.7.8.3.2.7.3,1,.5.1,0,.2.1.2.1h.1c.1,0,.1.1.2.1.4.2.9.5,1.3.7.8-3,2.8-5.6,4.1-8.3,2.1-4.1,4.1-8.1,6.3-12.2,1.4-2.8,2.8-5.6,4.1-8.4s2.7-5.6,4.2-8.3l1.2-2.1c2.6-3.9,5-8,7.1-12.1h0Zm16.6,24.7c.1-.8.2-1.6.1-2.5,0-2.4-.6-4.6-1.9-6.3-.5-1-1.1-2.1-2.4-2.1h-.1c-.5-.3-1.1-.5-1.7-.7-9.1.2-17.6,11.4-22.5,18.3.3.3.3.8,0,1.2-1.4,2.4-2.5,4.9-3.2,7.6-1.2,3.4-1.6,7.2-.2,10.6.6,1.5,2,2.2,3.5,2.5.8.5,1.7.8,2.5.8,4,.4,7.1-1.8,9.9-4.5h0c3.9-2.8,7.1-6.7,9.9-10.4,2.7-3.2,5.5-9.1,6.1-14.5h0Zm23,8c.5-2.7,1.4-6.3-1.3-8.2-.5-.2-1-.3-1.6-.4-.5-.2-.9-.4-1.5-.4-.5.1-1.1.2-1.6.4-1.8.2-3.6.8-5.2,1.4-2,1.2-3.6,2.9-5,4.8-.3.5-.6,1-1,1.5-1,1.2-2,2.4-2.8,3.7-1.2,1.5-2.1,3.1-2.8,4.8-3.2,5.5-5.2,11.6-1.5,16.5.6.1.9.1,1.4.1.5-.1,1-.1,1.5-.2h.1c1.7.2,3.3-.3,4.8-1.2,1.9-.7,3.7-1.5,5.2-2.8,4.2-3.8,7.1-8.9,9.7-13.9.7-2.1,1.5-4,1.6-6.1Zm13.4,21.3c2.2-4.9,6.2-9.7,5.5-15.4-.1-1.1-.2-2.3-1.1-3-5.9-4-12.3,3.1-15.4,7.7-3.4,4.8-7.4,13.1-2.7,18.2.5-.6,1.3-.2,2,0,.2.1.5.2.8.3,4.6-1.1,8.7-3.7,10.9-7.8Zm112-36.1c.2.3.2.6,0,1-.4.4-.8.7-1.3,1-.1,0-.2.1-.2.1l.1.1c.4.5.4,1.3-.5,1.8-1.9,2.6-3.5,5.7-4.8,8.5-.4.7-.8,1.5-1.2,2.2-.3.7-.7,1.3-1,2,.1.1.1.2.1.4.1.5-.1,1-.2,1.4-.6,2.2-1.3,4.2-2.1,6.3-2.1,5.6-4.5,11-5.4,16.9-1.1,6.1-3.2,12-4.1,18.1,0,.5-.1,1.1-.2,1.6-.3,2.5-.6,5-1,7.4-.1,2.3-.5,4.6-.9,6.9-.5,2.8-1.1,5.6-1.4,8.5-.3,1.1.2,3.6-1.5,3.5-.1,0-.3-.1-.4-.1h0c-.6.1-1.2-.3-1.2-1-2.9-.8-5.8.9-7.8,2.9-1.4,1.6-2,3.6-2.5,5.6-.7,3.1-.4,6.3-.8,9.4-.1.4.1.8-.1,1.2-.2.5-.7.8-1.2.6-.4-.2-.5-.4-.6-.7h0c-5.6-3.8-11-8.3-16.6-12.3-2.3-2-4.4-4.2-6.5-6.4-2.5-1.4-4.6-3.5-6.9-5.2-1.1-1-2.4-1.9-3.6-2.7-1.1-.7-2.2-1.5-3.2-2.3s-2-1.6-3-2.4h-.1c-2.4-1.9-4.7-3.8-7.1-5.7-3.8-2.6-7.5-5.2-11.2-8-2.8-2.2-5.8-3.8-9.2-4.7-4.1-1.7-8.2-3.8-12.6-4.5-.4-.1-.6-.4-.7-.7-.7-.2-1.4-.4-2.1-.6-8.3-1.8-16.8-1.7-25.2-1.3-6.4.6-12.8,1.6-19.3,2.1-.5.1-1,.1-1.4.2-3.8.7-7.6.7-11.4.8-1.9.1-3.8.3-5.7.5-5,.5-10,1.2-15,.8-4.2,0-8.3-.2-12.5-.6h-.2c-.9.1-1.5-1-.8-1.7.2-.2.4-.2.6-.3v-.1c.1-.2.2-.5.2-.8-.6-.3-.8-1.1-.4-1.7.9-2.8-.5-6.3-1.1-9.1-.1-.7-.8-1.6-1.1-2.3-1-1.6-2.2-3.1-3.6-4.3h-.7c-.3-.1-.5-.3-.5-.5-.2-.5.2-1.3.4-1.8,1.4-4.5,3.7-8.4,5.2-12.9,1.8-5.4,4.2-10.5,5.8-15.9,3.1-6.8,5.6-13.9,8.6-20.8,1.2-4.3,3.2-8.1,4.8-12.1,1-3.5,2.3-7,4-10.1,0-.2.1-.4.3-.6,0,0,.1,0,.1-.1s.1-.1.1-.2c.5-.9,2.1-.2,1.8.8-.1.1-.1.2-.2.4.1.4.1.7.3,1.1,1.3,2.3,3,4.2,5.9,3.4h.2c1.9-.3,3.9-1,5.5-2.3.8-.6,1.5-1.4,2-2.3.7-1.6,1.1-3.5,1.8-5.1.3-1.1-.7-3.4,1.2-3.3.1,0,.2,0,.3.1.3-.1.6,0,1,.2.3.1.6.4.8.6,1.2,1.1,2.5,3,3.2,3.5,2.7,2.3,5,4.9,7.5,7.4,1.7,1.6,3.1,3.4,4.8,5,2.9,2.2,5.5,4.6,8,7.2,2.2,1.8,4.2,3.6,6.2,5.6,2.5,2,5,4,7.1,6.5,4.3,4.5,7.3,7.4,11.8,11.6,3.8,3.5,8.4,6.1,13.3,7.9,0-.2,0-.3.1-.5.2-.5.9-.8,1.4-.4,2.3,1,4.8,1.8,7.3,2.3,3.5.8,7.1,1.5,10.7,1.9h.2c2.2.4,4.5.9,6.8,1.1.2-.4.6-.7,1-.6h.2c.2-.2.4-.3.7-.4,1.4-.4,2.8-.8,4.2-1.1.1,0,.2,0,.3-.1h.1c1.5-.4,2.9-.7,4.4-1.2,4.5-1.5,7.7-2.6,12.1-4.4,4-1.4,7.8-3.6,11.8-4.8h.4c3.1-1.4,6.1-2.8,9-4.6,2.2-1.1,4.7-1.7,6.9-2.8,1.3-.4,2.7-1.1,4.1-1.1.2,0,.3.1.4.2,1-.4,2-.8,3-1.2,4-1.1,7.8-2.6,11.9-3.2,1.4-.4,2.8-1,4.2-1.5.4-.3,1-.3,1.3,0,.1.1.2.3.2.4.2.5-.1.8-.5,1.1.2.5-.3,1-.8,1.4-.2.1-.4.3-.7.4h0c.1.6-.4,1.2-1,1.2-1,2.6-.6,5.5.4,8.1.1.2.2.3.2.5h0c.3.7.7,1.4,1.1,2,.6.2.7.8.6,1.2,1.2.6,2.5.8,3.8.9.6.1,1.2-.2,1.7-.7.7-.3,1.5-.2,1.8.3h0Z"/>
      <path class="cls-1" d="m85.86,125.69c-.6-1.3-.9-2.8-1.4-4.1-.4-.4-.2-1.2.4-1.3,1.5-.2,1.8,3.7,2.4,4.8.4.8-1,1.5-1.4.6h0Z"/>
      <path class="cls-1" d="m75.96,161.09c-2.2-1,.4-3.7.9-5.1,1.9-3.3,3.7-6.6,5.1-10.1,2.5-4.9,5-9.7,7.5-14.6.5-1.1,6.1-9.9,3.5-9.6-2.2,1.2-4.5,2.2-6.7,3.3-.7.2-1.2-.6-.8-1.2.3-.4.9-.6,1.4-.8,1.8-.8,3.7-1.7,5.4-2.7.5-.2,1.1-.3,1.6-.1,1.7.7,1.5,2.8.8,4.2-2.9,6.2-6.4,12.2-9.4,18.4,1.4.5-.2,2.2-.4,3.2-1.7,3.9-4.1,7.5-5.9,11.3-.5.9-.9,1.8-1.3,2.7-.1.8-.8,1.5-1.7,1.1h0Z"/>
      <path class="cls-1" d="m76.46,161.19c-.5-.3-.5-1,0-1.3.9-1,1.5-2,2.2-3.1,4.8-9.9,9.8-19.8,15.4-29.3,2.4-4.2,4-8.8,6.5-13-3.4,1.6-6.5,3.8-10,5.4-1.3.8-2.6,1.8-4.2,2.1-.3.1-.6,0-.8-.2-.6-.8.2-1.4,1-1.4,2-.8,3.6-2.3,5.7-3,3.2-1.8,6.4-3.6,9.6-5.3,1.3-.8,1.9.6,1.1,1.6-1.9,3-3.4,6.1-4.8,9.3-4.2,8.4-9,16.4-13.2,24.8-1.5,2-6.1,14.5-8.5,13.4h0Z"/>
      <path class="cls-1" d="m85.76,121.49c-.9-.2-.9-1.3,0-1.6,3.1-1.5,6.3-2.9,9.5-4.2.4-.2.8.1,1,.5.2.7-.5,1-1,1.2-1.3.6-2.6,1.2-4,1.7-1.5.7-3.1,1.4-4.6,2.2-.2.2-.6.3-.9.2h0Z"/>
      <path class="cls-1" d="m83.66,146.49c-.4-.2-.5-.6-.4-1,.1-.3.3-.6.4-.9-.2-.2-.3-.5-.2-.7.4-1,.9-2,1.4-2.9.5-.8.8-1.7,1.5-2.3,1.7-2.9,2.6-6.2,4.4-9.1.2-.4.5-.7,1-.6.9-1.3,1.4-2.8,2.1-4.1.4-1.2.2-2.5.3-3.8-.7-.1-1.7.4-2-.5-.2.1-.5.3-.7.4-.3.8-1.3,1-2,1.5-.9.4-1.7,1.1-2.6,1.5-1.1.1-1.7-1.3-1.8-2.2.1-1,1.3-.9,1.7-.2.1-.1.2-.2.4-.3.2-.2.5-.3.8-.2,4-1.9,7.3-4.5,10.9-7,.4-.3,1-.7,1.5-.4,1.8,1.1-2.2,6-2.9,7.5.2.2.2.5.1.8-1,2-2.2,4-3.3,5.9-2,3.2-3.8,6.5-5.5,9.7-1,1.7-1.9,3.5-2.7,5.3-.5,1.1-1,2.1-1.4,3.2-.2.4-.7.6-1,.4h0Z"/>
      <path class="cls-1" d="m111.16,147.29c2.3-3.7,8-14,4.6-18.2-.3,0-.5-.2-.7-.4-4.9-.5-12.8,8.8-14.7,12.9-2.2,4.5-5,9.2-4.8,14.4,0,.7.4,1.6,1,2.2h0c.3.3.8.5,1.2.5.2,0,.4-.1.5-.1,3.2-.7,7.2-3.9,10.5-7.3h0c-.5-1,2.1-3.1,2.4-4h0Zm10.6-14.6c0,.8,0,1.6-.1,2.5h0c-.1.6-.2,1.2-.4,1.7,0,.2-.2.3-.3.4-.1.4-.2.7-.3,1.1-.2.5-.2,1.2-.9,1.2-.1.1-.2.2-.3.4-1.7,5.9-5.1,11.2-9.3,15.7-1.4,1.4-2.9,3-4.4,4.5h0c-2.8,2.7-5.9,4.9-9.9,4.5-.9,0-1.8-.3-2.5-.8-1-.7-1.8-1.6-2.2-2.7-.4-1.9-.3-3.9-.6-5.8-.7-7.5,4.7-17,9.8-22.3,2.9-3,6.4-5.5,10.3-7,2.1-1,4.4-1.9,6.8-1.6h.1c1.3,0,1.9,1.1,2.4,2.1.1.3.3.5.4.8,0,.2.1.3.1.4.1,0,.2.1.2.2.6,1.4,1,3.1,1.1,4.7h0Z"/>
      <path class="cls-1" d="m139.66,142.59c.3-1.4,1-3.1-.2-4.3-2.2-.5-4.1,1.2-5.6,2.4-2.5,2-3.8,5-5.5,7.6-1.2,2.2-2.9,4.2-3.8,6.6-.2,1.5-3.2,7.6-.4,7.5h.2c.3-.1.6-.2.9-.3,2.1-.8,3.8-2.6,5.4-4,2.4-2.1,4.3-4.7,5.9-7.5,1.6-2.4,2.7-5.1,3.1-8h0Zm4.5-5.3c.5.9.3,1.9.3,2.9s0,2.1-.3,3c-1.2,2.9-1.8,5.8-3.2,8.6-1.9,3.7-4.5,6.9-7.6,9.7-1.6,1.4-3.2,3.2-5.2,4.4-1.4.9-3,1.5-4.8,1.2h-.1c-.9-.3-1.8-.3-2.6-.8-1.4-1.2-2.1-3.3-1.6-5.1.6-3.6,1.3-7.2,2.8-10.5.7-1.7,1.6-3.3,2.8-4.8.9-1.3,1.8-2.5,2.8-3.7,1.7-2,3.7-3.7,6.1-5,1.7-.8,3.3-2,5-2.6.5-.2,1.1-.3,1.6-.4.5,0,1,.2,1.5.4,1.1.6,2,1.6,2.5,2.7h0Z"/>
      <path class="cls-1" d="m144.96,171.59c-4.6-2-2-7.5-1.2-11,1.1-3.5,3.4-6.5,5.5-9.5,2.7-3,6.3-5.4,10.2-6.4.4-.5.9-.1,1.4-.1s1,.3,1.1.8c2.1,3.3,1.8,7.5.5,11s-4,6.5-6.4,9.3c-2,1.9-8.4,7.3-11.1,5.9h0Zm1.1-1.2c6.2-2,10.9-7.4,14.2-12.8,1.4-2.9,2.2-6.2,1.2-9.4-.3-.8-.4-1.8-1.3-2.1-4,.8-7.8,3.6-10.4,6.8-2.2,3.2-4.5,6.4-5.2,10.3-.4,1.7-.8,3.3-.8,5,.3,1,1.4,1.9,2.3,2.2h0Z"/>
      <path class="cls-1" d="m144.56,170.89c-1-.6-1.7-1.7-1.7-2.8.1-.9.6-1.7.6-2.6.2-1.4.5-2.8.8-4.2.3-.9.3-2.3,1.3-2.8.7-1.8,1.7-3.6,2.7-5.2.3-.4.9-.5,1.2-.1,2-2.8,4.7-5.2,7.9-6.3.3-1.3,2.2-2.2,3.3-1.3,1,.7,2.3,3.5,1.5,4.5.3,1,.3,2.1-.1,3,.3.2.4.6.2,1-.9,2-2,3.9-3.2,5.8-2.7,4.8-6.8,8.8-11.9,10.9-.5.3-1,.2-1.5,0h-.4c.1.2-.4.3-.7.1h0Zm3.5-4.1c4.3-1.6,7.6-5.4,9.7-9.3,1.4-2.7,3.2-6.4,1.3-9.2-.3.2-.7.2-.9,0-4.8,1.4-8.2,6-9.8,10.5-.6,1.7-1.5,3.4-1.6,5.2-.1,1.1-.1,2.6,1.3,2.8h0Z"/>
      <path class="cls-5" d="m19.06,190.69c-.5-.2-.7-.8-.5-1.2,1.3-3.3,2.5-6.7,3.8-10l6.2-16.3c2.2-5.7,4.3-11.3,6.5-17s4.4-11.5,6.5-17.2c2.2-5.9,4.5-11.8,6.7-17.7,2.2-5.8,4.4-11.6,6.6-17.4,1.1-2.9,2.2-5.8,3.3-8.6.2,0,.4-.1.7-.1h1.5c-1.4,3.8-2.9,7.5-4.3,11.3-2.2,5.8-4.4,11.6-6.6,17.5-2.2,5.8-4.4,11.5-6.6,17.3s-4.4,11.5-6.6,17.3c-2.2,5.7-4.3,11.4-6.5,17-2,5.3-4,10.6-6.1,16-1.1,2.9-2.2,5.8-3.3,8.7-.1.4-.5.6-.9.6-.2-.1-.3-.1-.4-.2h0Z"/>
      <path class="cls-5" d="m60.26,82.19h.1c-.2-.1-.3-.2-.5-.2-.2-.1-.3-.1-.5-.2.6-1.7,1.3-3.4,1.9-5.1,2.2-5.9,4.5-11.7,6.7-17.6,1.9-5.1,3.9-10.2,5.8-15.2.2-.5.8-.7,1.2-.5s.7.8.5,1.2c-2.2,5.7-4.3,11.3-6.4,17-2.2,5.8-4.4,11.7-6.6,17.5-.5,1.2-.9,2.4-1.4,3.6-.2-.2-.5-.4-.8-.5h0Z"/>
      <path class="cls-5" d="m178.86,127.39c-5.2-.3-10.4-1.8-15.3-3.5-1.3-.6-2.5-1.4-3.7-2.2-.4-.3-.6-.9-.3-1.3.9-1.2,2.1.3,3,.7,2.2,1.5,4.7,2,7.2,2.7,5,1.6,10.6,2.4,15.7,1.1,7.3-2.2,14.6-5,21.5-8.2,7.3-3.9,14.7-7.5,22.6-10,10.9-4.3,22.2-7.6,33.7-10,4.2-.8,8.2-2.1,12.3-2.9,5.5-.7,10.8-1.9,16.3-2.5,3.7-.3,7.2-1.1,10.8-1.5,3.7-.3,7.4-.3,11.1-.6.6,0,1.4-.1,1.7.5.3.4.2,1-.2,1.3-3.6.5-7.3.4-10.9.6-3.1.1-6.2.9-9.3,1.3-8.7,1.1-17.8,2.3-26.3,4.5-4.9,1.2-9.9,2.1-14.7,3.5-6.3,1.6-12.6,3.2-18.5,5.7-6.3,2.3-12.7,4.4-18.8,7.3-7.3,3.8-14.6,7.4-22.4,10.1-4.6,1.7-9.3,3.6-14.2,3.6-.3-.1-.8-.1-1.3-.2h0Z"/>
      <path class="cls-5" d="m160.36,122.19c-8.8-7-16-15.6-23.1-24.2-5.7-7.2-10.9-15-17.3-21.5-6.7-7.4-15-13.3-23.2-18.8-6.7-4.2-13.5-8.6-20.7-11.8-.9-.6-3.2-.7-2.5-2.3.8-1.2,2.3.3,3.4.5,5.1,2.2,9.7,5,14.4,7.9,9.2,5.6,18.2,11.7,26.1,19.1,8.8,8.3,15.5,18.3,23.1,27.7,4.6,5.3,8.8,10.8,14.1,15.5,2.2,2.1,4.4,4.4,6.8,6.2.9.5.4,1.8-.5,1.8-.2.1-.4,0-.6-.1h0Z"/>
      <path class="cls-5" d="m259.36,263.19c-1.7-.2-.6-2.7-.7-3.9.7-7,2.1-13.9,3.4-20.8,1.4-7.2,1.9-14.5,3.4-21.6,1.9-8.1,3.6-16.1,5.2-24.3,1.8-7.3,4.9-14.2,6.9-21.4,2.4-6.5,5-12.7,6.7-19.5,1.2-3.9,3.1-7.5,4.6-11.3,1.3-3.4,2.4-7,4.1-10.3,2.7-4.8,4.4-10,7-14.8,2.8-4.7,5-9.7,8.1-14.2,2.3-3.4,4.1-7.1,5.6-10.9.1-.4.4-.7.8-.7,1.9.1.6,2.2.2,3.2-1.7,3.7-3.5,7.3-5.9,10.6-4,6.9-8,13.9-11.1,21.3-2.7,5.4-5.3,10.8-7.2,16.5-1.1,2.7-2.4,5.3-3.4,8-1.6,4.1-2.5,8.4-4,12.6-2.2,5.6-4.3,11.2-6,17-2.2,6.1-4.6,12.2-5.6,18.6-1.2,7.2-3.2,14.3-4.6,21.5-1.6,10.8-3.2,21.5-5.3,32.2-.5,3.7-1.1,7.4-1.3,11.2.1.6-.3,1-.9,1h0Z"/>
      <path class="cls-5" d="m258.76,263.49c-5.5-.6-10.8-2-16-3.9-5.7-2.2-10.5-5.7-15.5-9-5.3-3-10-6.8-14.7-10.7-3.4-2.5-6.5-5.3-9.5-8.3-2.5-2.2-5.1-4.2-7.2-6.8-4-4.2-8.7-7.6-12.9-11.5-5.2-3.9-10.8-7.1-16.3-10.4-10.9-6-23.2-9.5-35.5-11.1-8.9-.4-17.9-.2-26.7.8-5.1.5-10.1.2-15.1,1.2-4.6.9-9.2.8-13.8,1.4-2.4.3-4.9.7-7.3.7-.5,0-1-.5-1-1,.1-1,1.1-1,1.8-1,5.5-.5,11-1.3,16.5-1.5,4.9-.8,10-1.5,15-1.5,10.2-.9,20.6-1.7,30.8-1,14.6,1.8,29.1,6.4,41.5,14.4,5.1,3.2,10.5,6.2,14.8,10.5,3.5,3.2,7.5,6,10.5,9.6,3.2,3.4,7,6.2,10.2,9.6,3.6,3.2,7.6,5.9,11.2,9.1,3.2,2.7,7,4.6,10.5,7,5.8,4.2,12.1,7.9,19.1,9.5,3.5,1,6.9,1.7,10.5,2,.6.2.9.9.6,1.5-.2.3-.6.5-1,.5-.2,0-.4,0-.5-.1h0Z"/>
      <path class="cls-5" d="m22.06,191.39c-1-.2-1.9-.3-2.9-.5-.5-.2-.8-.7-.7-1.2.4-1.2,1.8-.5,2.7-.4,10.9,1.8,21.9,3.8,33,4.5,2.2,0,4.5.1,6.7.2,3,.2,6,.3,9,.1.5,0,1,.3,1.1.8.1,1.3-1.7,1.2-3.1,1.2h-1.2c-15.2-.1-29.9-2.1-44.6-4.7h0Z"/>
      <path class="cls-5" d="m30.76,202.49c-.5-.1-.9-.6-.8-1.1.7-2.8,1.5-5.5,2.2-8.3.1-.2.1-.4.1-.5.1-.5.6-.9,1.1-.8.5.1.9.6.8,1.1-.7,2.8-1.5,5.6-2.2,8.4,0,.2-.1.3-.1.4-.1.5-.5.8-.9.8-.1,0-.2,0-.2,0h0Z"/>
      <path class="cls-5" d="m30.66,202.69c-1.3-.7-.1-2.7,1.1-1.7,16.5,1,33.2.1,49.7-1.7,9.6-1.1,19-3.3,28.6-4.3,10.4-1,20.8-2.6,31.3-2.5h.8c.9,0,1.8-.1,1.9,1,0,.5-.4,1-1,1-8.1-.1-16.2.7-24.2,1.6-11.8.9-23.4,3.3-35.1,5-14.2,2-28.6,2.3-42.9,2.4-3.4-.3-6.9-.1-10.2-.8h0Z"/>
      <path class="cls-5" d="m39.66,214.99c-.5-.1-.9-.6-.8-1.1.6-3.3,1.2-6.5,1.8-9.8.1-.4.2-.8.2-1.2.1-.5.6-.9,1.1-.8.5.1.9.6.8,1.1,0,.3-.1.5-.2.8-.1.5-.2,1-.3,1.5-.2.9-.3,1.9-.5,2.8-.3,1.7-.6,3.4-.9,5.1l-.1.5c0,.1,0,.2-.1.3-.1.5-.5.8-1,.8q.1,0,0,0h0Z"/>
      <path class="cls-5" d="m39.76,214.99c-.7-.1-1-1.1-.5-1.6.2-.2.6-.3.9-.3,1.6.1,3.3.3,4.9.3,9.6-1,19-2.5,28.4-4.5,14-3.3,28-6.1,42-9.4,10.2-2.8,20.2-7,30.9-6.5.9.1,2.6-.1,2.5,1.2,0,.5-.5.9-1.1.9-.8-.1-1.5-.2-2.2-.2-11.1-.2-21.2,4.5-31.7,7-8,2-16.2,3.6-24.3,5.3-15,3.7-30.3,7.1-45.7,8.2-1.3-.2-2.7-.1-4.1-.4h0Z"/>
      <path class="cls-5" d="m334.76,103.29c-4.2-.2-8.4-.8-12.6-1-4.2,0-8.4.4-12.5.9-1.2.4-1.9-1.3-.7-1.8,7.4-1.3,15-1.3,22.4-.3.4.1.9.1,1.5.1,1.4,0,3.1,0,3,1.3-.1.5-.5.8-.9.8h-.2Z"/>
      <path class="cls-5" d="m274.76,270.19c-3.4-1.5-6.8-3.1-10.2-4.5,0,0-.1-.1-.2-.1h-.1c-.1,0-.2-.1-.2-.1h0c-.1,0-.2,0-.2-.1h-.1c-.2-.1-.4-.2-.6-.2h0c-1.7-.6-3.4-1.2-5.1-1.7-1.2-.7-.2-2.4,1-1.7,5.5,1.3,10.4,4.2,15.7,6.3.7.3,1.9.8,1.4,1.8-.2.3-.5.6-.9.6-.2-.2-.4-.3-.5-.3h0Z"/>
      <path class="cls-5" d="m264.06,265.39h0c-.1,0-.2,0-.2-.1h-.1c-.2-.1-.3-.1-.4-.2-.2-.2-.2-.6-.1-.9,0-.1.1-.2.2-.3,1-9.9,3.5-19.7,6.5-29.2,2.8-9.3,5.6-18.7,8.5-28,6.2-19.3,13.1-38.5,22.4-56.6,6.7-13.5,15.4-25.8,24.3-37.9,2.7-3.4,5.8-6.5,8.7-9.7.3-.6,1.2-1,1.8-.3.9,1.2-1.5,2.7-2.2,3.6-2.4,2.5-4.7,5-6.9,7.7-9.6,12.9-18.8,26.3-25.7,40.9-14.1,28.8-22.7,60-31.9,90.6-1,4.8-2.2,9.6-2.9,14.4-.2,1.3-.3,2.6-.5,3.9.1.8-.2,1.9-1,2q-.4.1-.5.1h0Z"/>
      <path class="cls-5" d="m341.26,109.29c-2.5-.3-4.9-.5-7.3-.8-1.1-.1-2.2-.2-3.2-.3-.5,0-.9-.5-.9-1s.5-1,1-.9c3,.3,5.9.6,8.9,1,.6.1,1.1.1,1.7.2.5.1.9.5.9,1-.1.4-.5.8-1.1.8.1,0,0,0,0,0h0Z"/>
      <path class="cls-5" d="m270.56,267.39c-.5,0-1-.4-1-.9.6-4.4,1.8-8.7,2.8-13.1,1.4-7.6,3.4-15,5.1-22.4,2.4-9.7,5.8-19.2,9-28.7,6.5-17.2,13.8-34.3,23.1-50.2,6.8-12.3,15.3-23.6,23.7-34.9,2.1-2.9,4.3-5.8,6.7-8.5.3-.5.8-.7,1.3-.4,1.2.8,0,2-.7,2.7-3,3.3-5.4,6.9-8,10.4-10.8,14.1-20.6,28.9-28.4,44.8-8.6,17.4-15.8,35.5-21.6,54.1-4.7,15-7.5,30.5-11,45.8,0,.6-.2,1.2-1,1.3h0Z"/>
      <path class="cls-5" d="m348.76,126.39c-1.2-2.5-2.4-4.9-3.6-7.4-1.6-3.2-3.1-6.3-4.7-9.5-.1-.1-.1-.3-.2-.4-.2-.5,0-1.1.5-1.3s1,0,1.2.4h0v.1c1.4,2.9,2.9,5.8,4.3,8.8,1.4,2.8,2.7,5.5,4.1,8.3,0,.1.1.1.1.2.2.5,0,1.1-.5,1.3-.1,0-.2.1-.4.1-.3,0-.6-.2-.8-.6h0Z"/>
      <path class="cls-5" d="m274.76,269.79c-.5-.3-.6-.8-.3-1.3.4-.8.8-1.6,1.2-2.4l3-5.7c2.5-4.9,5.1-9.7,7.6-14.6,2.7-5.1,5.3-10.2,8-15.3,2.7-5.2,5.4-10.4,8.1-15.6l8.1-15.6,8.1-15.5c2.7-5.1,5.3-10.2,8-15.4,2.7-5.1,5.3-10.2,8-15.4,2.5-4.8,5-9.6,7.5-14.4,2.2-4.2,4.4-8.4,6.6-12.6h0c.2-.5.9-.6,1.3-.3.5.3.6.8.3,1.3-.3.6-.6,1.2-.9,1.8-.6,1.1-1.2,2.3-1.8,3.4-1.2,2.3-2.4,4.7-3.7,7-2.5,4.8-5,9.5-7.5,14.3-2.7,5.2-5.4,10.3-8.1,15.5-2.6,5.1-5.3,10.1-7.9,15.2-2.7,5.2-5.4,10.5-8.2,15.7-2.7,5.2-5.4,10.3-8.1,15.5s-5.4,10.5-8.2,15.7c-2.6,5.1-5.3,10.2-7.9,15.2-2.5,4.9-5.1,9.8-7.6,14.7-1.5,2.9-3,5.7-4.5,8.6h0c-.2.3-.5.5-.8.5,0-.2-.1-.2-.3-.3h0Z"/>
      <path class="cls-5" d="m271.26,267.79c-.5-.1-.8-.6-.7-1.2.3-1.3.6-2.7.9-4,.4-1.5.7-3.1,1.1-4.6.4-1.6.9-3.1,1.3-4.7.4-1.6.9-3.2,1.3-4.8.3-1,.6-2,.9-3,.2-.7.5-1.5.8-2.2.3-.8.6-1.6.9-2.4.6-1.5,1.1-3,1.7-4.5.6-1.6,1.3-3.1,1.9-4.6s1.2-2.9,1.7-4.4c.6-1.6,1.1-3.2,1.7-4.8.5-1.5,1.1-3.1,1.6-4.7.5-1.5,1-3,1.6-4.5.6-1.6,1.2-3.2,1.8-4.8.6-1.5,1.2-2.9,1.7-4.4.6-1.5,1.2-3,1.9-4.5,1.3-3,2.5-6.1,3.8-9.1.9-2.1,1.9-4.1,2.9-6.1.9-1.9,1.8-3.8,2.8-5.8.4-.9.8-1.8,1.2-2.7.4-.8.7-1.6,1-2.3.1-.2.1-.3.2-.5v-.1s0-.1.1-.1c.1-.1.1-.3.2-.5.1-.1.1-.3.2-.4h0c.3-.7.7-1.4,1-2,.4-.8.8-1.6,1.3-2.4.8-1.4,1.6-2.9,2.4-4.3.8-1.4,1.5-2.9,2.3-4.3s1.6-2.8,2.5-4.2c.8-1.4,1.7-2.8,2.5-4.2.7-1.3,1.4-2.6,2.2-3.9.8-1.4,1.7-2.7,2.6-4,.5-.7.9-1.3,1.4-2,.4-.7.9-1.3,1.2-1.9,1-1.7,2.1-3.3,3.2-5,.6-.8,1.2-1.6,1.8-2.4.6-.8,1.1-1.6,1.6-2.4.8-1.4,1.7-2.8,2.6-4.1,1-1.3,1.9-2.7,2.9-4,.9-1.3,1.7-2.6,2.7-3.9.8-1.1,1.8-2.2,2.7-3.2q.1-.1.2-.2c0-.5.3-.9.8-1,.4-.1.8,0,1.1.3.3.3.4.7.2,1.1-.1.2-.2.4-.4.5-.8.8-1.6,1.7-2.3,2.5h0c-.7.8-1.3,1.7-1.9,2.5-.7,1-1.3,1.9-2,2.9-1.3,1.8-2.7,3.7-3.9,5.6-1.1,1.7-2.1,3.5-3.3,5.1-.7.9-1.3,1.8-1.9,2.7-.6.8-1.1,1.7-1.7,2.5-.8,1.3-1.7,2.7-2.6,4-.5.7-1,1.4-1.5,2.1-.4.7-.9,1.3-1.3,2h0c-.4.7-.8,1.4-1.2,2.1-.4.8-.8,1.5-1.2,2.3-.8,1.5-1.7,2.8-2.5,4.2-.8,1.3-1.7,2.6-2.4,4-.8,1.5-1.7,3.1-2.5,4.6-.8,1.4-1.6,2.8-2.3,4.2-.5.8-.9,1.7-1.4,2.5-.4.7-.8,1.5-1.1,2.2-.1.1-.1.3-.2.4v.1s0,.1-.1.1c-.1.2-.1.3-.2.5s-.2.3-.2.4v.1c-.6,1.2-1.1,2.5-1.6,3.7-.6,1.4-1.3,2.8-1.9,4.2-1.2,2.6-2.5,5.1-3.7,7.7-1.3,3-2.5,6.1-3.8,9.1-.6,1.5-1.3,3-1.9,4.6-.6,1.5-1.2,3-1.8,4.4-.6,1.6-1.2,3.1-1.8,4.7-.6,1.5-1.1,3-1.6,4.5-1.1,3.2-2.2,6.3-3.3,9.5-1.1,3.1-2.4,6.1-3.6,9.1-.6,1.5-1.2,2.9-1.7,4.4-.6,1.6-1.2,3.1-1.8,4.7-.1.3-.2.7-.3.9-.1.3-.2.7-.3.9-.5,1.5-.9,3.1-1.3,4.7-.4,1.5-.8,3.1-1.3,4.6-.5,1.6-.9,3.1-1.3,4.7-.4,1.5-.7,3-1.1,4.6-.1.5-.2,1-.3,1.5h0c-.1.4-.5.8-.9.8-.1.3-.2.3-.3.3h0Z"/>
      <path class="cls-5" d="m272.46,267.89c.3-2.9,1.5-5.7,2.4-8.5.9-3.8,2.5-7.3,3.7-11,5-15.8,12.9-30.5,19.9-45.5,6.5-15,13.2-29.9,21-44.3,7.2-13.3,15.5-25.9,24-38.4.4-.5.8-1,1.2-1.5.2-.5.8-.7,1.3-.5,1.6,1-.6,2.5-1.1,3.4-11.8,17.3-23.2,35.1-31.9,54.2-4.6,9.7-9.2,19.3-13.3,29.2-5.4,10.8-10.5,21.7-15.3,32.8-2.7,7.3-5.5,14.6-7.7,22.2-.8,2.6-1.9,5.2-2.3,7.9-.1.5-.5.9-1,.9-.4,0-.9-.4-.9-.9h0Z"/>
      <path class="cls-5" d="m273.66,267.89c2.3-9,6.4-17,10.3-25.4,4.1-10.1,8.8-19.8,13.5-29.6,3.6-8,7.2-16,11.2-23.8,3.6-6.9,7.9-13.5,11.3-20.5,8.5-15.1,16.4-30.6,26-45,.5-.7.7-2,1.8-1.5,1.5,1-.4,2.7-1,3.7-9.2,14.7-17.5,30-25.8,45.2-3.4,6.8-7.6,13.1-11,19.9-4.2,7.9-7.6,16.1-11.4,24.1-2.1,4.9-4.6,9.7-7,14.5-2.1,5-4.2,10.1-6.5,15.1-2.8,6.4-6.4,12.5-8.2,19.3-.4,1.3-.8,2.8-1.4,4-.1.4-.4.8-.8.8h-.1c-.4.1-.9-.3-.9-.8h0Z"/>
      <path class="cls-5" d="m81.56,90.29c-1.3-1.3-2.1-3-2.7-4.8-.2-.6-.4-1.3-.5-1.8,0-.1-.1-.3-.1-.4-.1-.5.3-1,.8-1.1s1,.3,1.1.8v.2h0c.2.7.4,1.4.7,2.1.2.5.5,1.1.7,1.6.2.4.5.8.8,1.2.2.3.5.6.7.9.2.2.5.5.7.7.2.1.3.2.5.4.2.1.4.2.7.3.2.1.3.1.5.2.2,0,.3.1.5.1h1.1c.2,0,.4-.1.5-.1.2,0,.3-.1.5-.2.2-.1.5-.2.7-.3s.4-.2.6-.4c.3-.2.5-.4.8-.6.3-.3.6-.6.9-1s.6-.8.8-1.1c0-.1.1-.1.1-.2.3-.6.6-1.2.9-1.8.3-.8.6-1.5.8-2.3.2-.9.4-1.9.6-2.7.1-1,.2-2,.2-3v-.7c0-.5.4-1,.9-1s1,.4,1,.9c0,1.7-.1,3.4-.5,5.1-.4,1.9-1,3.8-1.9,5.6-.1.2-.2.4-.3.6-.1.1-.1.2-.2.4h0c-.1.2-.2.3-.3.5-.3.4-.6.8-.9,1.2-1.3,1.6-3.2,2.9-5.3,3.1h-.4c-1.9,0-3.7-1-5-2.4h0Z"/>
      <path class="cls-5" d="m265.96,128.79c-8.3-1.2-7.9-10-3.9-15.5.7-1.1,3-5.2,4.6-4.1,1,1.2-.9,2-1.5,2.8-1.2,1.6-2.3,3.4-3.1,5.2-3.2,8.1,2.5,11.2,9.9,9,.5-.1,1,.3,1.1.8s-.3,1-.8,1.1c-1.7.3-3.4.8-5.1.8-.4,0-.8,0-1.2-.1h0Z"/>
      <path class="cls-5" d="m231.86,236.29c-.8-3-.8-6.3-.5-9.4.4-2.4.7-5,2.1-7.1,2.8-4.5,8-7.6,12.2-2.8.7,1-.7,2.1-1.5,1.2-3.2-3.6-6.9-.7-9,2.5-2,3.2-2.1,7.2-2.1,10.9h0c.1,1.3.3,2.6.5,3.9.2.5,0,1-.4,1.2-.1.1-.3.1-.5.1-.3,0-.7-.2-.8-.5h0Z"/>
      <path class="cls-5" d="m244.36,217.79c-.4-.9.2-1.8.2-2.7.7-4.8,1.5-9.5,2-14.3,2.1-14.7,4.8-29.3,9.9-43.2,3.6-10,7-20.5,13.2-29.2.3-.5.7-1.1,1.1-1.5.9-.8,2.3.5,1.4,1.4-.6.7-1,1.5-1.6,2.2-5.5,8.2-8.8,17.8-12,27-3.5,9.7-6.1,19.7-7.9,29.8-1.3,7.4-2.3,14.8-3.3,22.3-.4,2.6-.8,5.2-1.3,7.8.1.6-.5,1-1,1-.2-.1-.5-.2-.7-.6h0Z"/>
      <path class="cls-5" d="m54.46,181.89c-.6-.2-.7-.9-.4-1.4,1.6-6.7,1.3-16.4-6.3-19.2-1,0-1.2-1.7-.1-1.9,1.3,0,2.4.8,3.5,1.5,5.5,3.8,6.1,11.3,5.3,17.4-.4,1-.1,3.7-1.6,3.7-.1-.1-.2-.1-.4-.1h0Z"/>
      <path class="cls-5" d="m47.46,160.79c-.5-.2-.7-.8-.5-1.3,1.3-3.3,2.7-6.7,4.1-10,1.6-3.9,3.1-7.7,4.7-11.6,1.5-3.8,3.1-7.6,4.6-11.4,1.6-3.8,3.1-7.6,4.7-11.5,1.6-3.8,3.1-7.7,4.7-11.5,1.5-3.7,3-7.5,4.6-11.2,1.3-3.1,2.5-6.2,3.8-9.3,0,0,0-.1.1-.1.2-.5.8-.7,1.3-.5s.7.8.5,1.3c-1.2,3-2.4,6-3.6,8.9-1.5,3.7-3,7.5-4.5,11.2-1.6,3.8-3.1,7.7-4.7,11.5s-3.1,7.7-4.7,11.5c-1.5,3.8-3.1,7.5-4.6,11.3-1.6,3.9-3.2,7.8-4.7,11.7-1.4,3.5-2.8,7-4.2,10.4,0,0-.1.1-.1.2-.1.4-.5.6-.9.6-.4-.2-.5-.2-.6-.2h0Z"/>
      <path class="cls-5" d="m183.26,138.29c-9.8-.4-19.7-2.3-28.4-7-10-6.2-18.2-14.7-26.5-22.9-7.8-7.6-15.7-15.1-23.8-22.5-2.7-2.5-5.4-5.1-8.2-7.7-.6-.5-1.5-1-1.5-1.8,0-.5.5-.9,1-.9.7.1.9.7,1.4,1,3.2,2.8,6.3,5.8,9.4,8.8,8.8,7.9,17.3,16,25.6,24.4,7.9,7.4,15.5,15.6,25.1,20.8,3.7,1.6,7.6,3,11.5,4.1,5.1,1.2,10.6,1.5,15.8,1.8,6.6.2,13.1-1.9,19.1-4.4,6.5-3.2,13.2-6.1,19.8-8.9,9.6-4.3,19.4-7.8,29.6-10.5,2.5-.7,5.2-1.3,7.7-1.9,1.3-.3,2.6-.8,3.9-1.2.5-.2,1,.1,1.2.6,1,1.8-7.6,3-8.8,3.5-6.6,1.5-13.1,3.7-19.6,5.8-9.8,3.7-19.2,8.2-28.8,12.3-7.2,3.8-15.2,6.7-23.5,6.7-.6,0-1.3,0-2-.1h0Z"/>
      <path class="cls-5" d="m232.06,236.49c-4.2-1.6-7.5-4.8-11-7.5-6.1-4.5-11.7-9.7-17.6-14.5-4.2-3.7-8.8-6.7-12.8-10.6-4.7-3.5-9.4-7-14-10.5-10.2-6.5-21.5-11.4-33.4-13.7-18.2-3.2-36.2,1.4-54.3,2.5-10.2.2-20.4,1.2-30.6.1-.9,0-1.8-.1-2.7-.2-.5,0-1-.4-1-.9s.4-1,.9-1c1.7.1,3.4.2,5.1.3,7.4.7,14.8.2,22.2-.1,31.1-.7,50.4-10.3,81.6,4.1,4.8,2.5,9.7,4.9,14.2,8,4.3,3.5,8.9,6.6,13.3,10,7.1,6.4,15.1,12.2,22.3,18.5,4.8,4.3,9.8,8.1,15,11.9,1.1.7,2.2,1.2,3.3,1.7.5.2.7.7.6,1.1-.1.4-.5.7-.9.7,0,.1-.1.1-.2.1h0Z"/>
      <path class="cls-5" d="m234.16,203.39c-6-4.4-11.9-8.9-18.5-12.5-1.1-.5-.4-2.3.8-1.8,6.7,3.6,12.8,8.3,18.9,12.8.8.6.1,1.7-.7,1.7-.1,0-.3,0-.5-.2h0Z"/>
      <path class="cls-5" d="m226.36,208.59c-7.8-5.4-15.5-11.1-24.1-15.2-1.1-.5-.4-2.3.8-1.8,7.8,3.6,14.8,8.7,21.9,13.6.9.8,3.8,1.7,2.8,3.2-.2.2-.5.3-.7.3-.3.1-.5.1-.7-.1h0Z"/>
      <path class="cls-5" d="m220.76,213.59c-3-2.4-6.2-4.3-9.4-6.2-.5-.3-.6-.9-.3-1.3.3-.5.9-.6,1.3-.3,2.4,1.4,4.8,2.9,7.2,4.5.8.8,3.5,1.8,2.6,3.2-.2.2-.5.3-.8.3-.2,0-.4-.1-.6-.2h0Z"/>
      <path class="cls-5" d="m296.06,151.19c-.5-.1-.8-.7-.7-1.2,1-3.2,1.9-6.5,3-9.7.7-2.1,1.5-4.3,2.6-6.2.3-.5.8-.6,1.3-.4.5.2.6.9.4,1.3-1.6,3-2.5,6.4-3.6,9.6-.6,1.9-1.2,3.9-1.8,5.8-.1.4-.5.7-.9.7-.2.1-.3.1-.3.1h0Z"/>
      <path class="cls-5" d="m303.36,139.19c-.5-.2-.8-.8-.5-1.2.7-1.6,1.5-3.1,2.4-4.6.6-1.1,2.3-.2,1.7.9-.8,1.4-1.6,2.8-2.3,4.3-.2.4-.5.6-.9.6-.1.1-.3.1-.4,0h0Z"/>
      <path class="cls-5" d="m308.66,126.39c-.4-.3-.5-.9-.2-1.3,1.4-2.2,2.9-4.3,4.3-6.4.8-.8,1.5-3,2.9-2.3.4.3.5.9.2,1.3-2.1,2.7-4,5.6-5.9,8.5-.2.2-.5.4-.8.4-.1-.1-.3-.1-.5-.2h0Z"/>
      <path class="cls-5" d="m259.16,258.29c-2.8-.1-25.9-7.5-24.2-10.4.3-.5.9-.6,1.3-.3,5.2,3.5,11,5.3,16.8,7.3,2.1.7,4.3,1.2,6.4,1.6.4.1.8.4.8.8.1.6-.4,1.1-1,1.1.1,0,0-.1-.1-.1h0Z"/>
      <path class="cls-5" d="m259.36,254.79c-3.1-1.2-6.4-2.2-9.4-3.4-1.3-.5-2.5-1-3.8-1.5-.5-.2-.7-.8-.5-1.3s.8-.7,1.3-.5c2.2.8,4.3,1.7,6.4,2.5h-.1c2,.7,4,1.3,6,2.1.7.2,1.8.6,1.4,1.6-.1.4-.5.6-.9.6-.1-.1-.3-.1-.4-.1h0Z"/>
      <path class="cls-5" d="m255.36,249.29c-3.2-1.2-6.3-2.5-9.3-4.2-1.1-.6-.1-2.3,1-1.7,2,1,3.9,2,6,2.8,1,.7,4.2.8,3.7,2.5-.2.4-.5.6-.9.6-.3,0-.4,0-.5,0h0Z"/>
      <path class="cls-5" d="m69.86,192.09c-3.8,0-7.4-.1-11.2,0-.3-.1-.8,0-1.2,0-1.1.1-2.2.1-2.4-.9,0-1.2,1.2-1.1,2.1-1h7.7c4.8,0,9.7.1,14.5-.5,2-.2,3.8-.4,5.7-.7,1.2-.2,1.6,1.7.3,1.9-.8.1-1.7.2-2.5.3-4.3.5-8.5.9-12.8.9h-.2Z"/>
      <path class="cls-5" d="m67.26,188.09c0-.5.5-.9,1-.9,1.8-.1,3.6-.1,5.5-.2,2.1-.1,4.2-.2,6.4-.2.5,0,1,.4,1,.9,0,1.2-1.4,1.1-2.7,1-.6,0-1.1-.1-1.5,0-2.9.1-5.9.3-8.8.3-.5.1-.9-.4-.9-.9h0Z"/>
      <path class="cls-5" d="m90.36,187.59c-.8-.3-1.7.1-2.4-.4-.4-.3-.4-1-.1-1.4.6-.6,1.5-.3,2.3-.2.8,0,1.8.5,1.4,1.4-.1.4-.5.7-.9.7-.1-.1-.2-.1-.3-.1h0Z"/>
      <path class="cls-5" d="m101.96,187.59c-.8-.8,0-1.8,1-1.8.8-.2,1.9-.2,2,.8,0,.8-.8,1.1-1.5,1.1-.3,0-.6.2-.9.2-.2-.1-.4-.1-.6-.3Z"/>
      <path class="cls-5" d="m75.86,59.69c-1.9-1,2.8-5.7,4.2-4.9,1,.4.6,2-.4,1.9-1,.5-1.6,1.4-2.2,2.2-.2.5-.6.9-1.1.9-.2.1-.3,0-.5-.1h0Z"/>
      <path class="cls-5" d="m77.26,65.79c-1.2-.8.2-2,.5-2.9.4-.7.8-2,1.9-1.8.8.2,1,1.2.3,1.7-.7.8-1,3-2.2,3-.2.1-.4.1-.5,0h0Z"/>
      <path class="cls-5" d="m70.86,74.59c-.5-.1-.9-.5-.8-1.1.3-1.8.6-3.5,1-5.3.4-1.2,0-4.8,1.8-4.5.5.1.8.7.7,1.2-.3,1.4-.5,2.7-.7,4.1-.2,1.3-.5,2.6-.7,3.8-.1.7-.2,1.8-1.1,1.8h-.2Z"/>
      <path class="cls-5" d="m295.96,101.39c-.3-.5-.1-1,.3-1.3,1.4-1,2.9-1.8,4.4-2.7.5-.3,1.1-.1,1.3.3s.1,1-.3,1.3c-1.5.9-3,1.7-4.4,2.7-.1.1-.3.1-.5.1-.2.1-.6-.1-.8-.4h0Z"/>
      <path class="cls-5" d="m294.36,107.09c-.1-1.5,1.9-1.1,2.8-1.6.7-.2,1.5-.7,2,.1.6,1.2-1,1.6-1.9,1.9-.5.1-1.2.4-1.9.4-.5,0-.9-.2-1-.8h0Z"/>
      <path class="cls-5" d="m58.86,87.19c-.5,0-1-.4-1-.9-.1-.7.7-1,1.9-1.1h.2-.1,1.6c1.5.1,3.2.4,3.7.4-1.1-.9-2.2-1.7-3.4-2.5-.1,0-.1-.1-.2-.1-.2-.1-.4-.2-.6-.4-.2-.1-.3-.2-.5-.3-.3-.1-.5-.3-.6-.6-.2-.5.1-1,.6-1.2.3-.1.6,0,.9.1,1.3.8,2.5,1.7,3.7,2.6,1,.9,5.9,4.3,2.6,4.9-2.9-.7-5.8-1.1-8.8-.9h0Z"/>
      <path class="cls-5" d="m268.76,149.99c-.8-.2-1.4-.6-2.2-.7-.3-.1-.5-.3-.5-.7.3-1.2,2.2.1,3,.2.7.2.5,1.1-.1,1.1-.1.1-.2.1-.2.1h0Z"/>
      <path class="cls-5" d="m268.46,193.39c-1.1-.2.5-3.2.6-4,2.1-7.8,4.2-15.5,7-23,.3-.7.5-1.4.7-2.1.2-.7,1.3-.4,1.1.3-.1.4-.2.7-.3,1-2.6,7.1-4.8,14.3-6.7,21.6-.5,1.9-1.1,3.8-1.7,5.8-.1.2-.3.4-.6.4h-.1Z"/>
      <path class="cls-5" d="m266.66,191.79c-.3,0-.5-.3-.5-.7.2-1.6.6-3.1.9-4.7.3-1.5.7-2.8.9-4.3,0-.3.3-.5.7-.5.3,0,.5.3.5.7-.3,2.1-.9,4-1.3,6.1h0c-.2,1-.4,1.9-.5,2.9-.1.3-.3.5-.7.5.1,0,0,0,0,0h0Z"/>
      <path class="cls-5" d="m269.46,178.99c-.9-.4,0-1.5.1-2.1.2-.4.2-1,.6-1.3.5-.3,1.1.4.8.8-.2.7-.5,1.5-.7,2.2-.1.2-.3.4-.6.4-.1,0-.2,0-.2,0h0Z"/>
      <path class="cls-5" d="m172.26,129.19c.2-1.2.4-2.3.5-3.4,0-.2.1-.5.3-.5,1.4-.4.7,1.6.6,2.3-.3.7.1,2.4-.9,2.4-.3-.2-.6-.5-.5-.8h0Z"/>
      <path class="cls-5" d="m174.76,129.79c-.3-.1-.5-.4-.4-.7.2-.9.4-1.8.7-2.7.2-.7,1.3-.5,1.1.2-.2.9-.5,1.9-.7,2.8-.1.3-.3.4-.6.4,0,.1-.1.1-.1,0h0Z"/>
      <path class="cls-5" d="m176.16,132.19c-.3-.1-.4-.5-.3-.8.6-1.5,1.2-3,1.8-4.5.2-.5.2-1.3.9-1.2,1.2.3-.3,2.6-.5,3.4-.4.9-.7,1.9-1.1,2.8-.1.2-.3.3-.5.3-.1.1-.2.1-.3,0h0Z"/>
      <path class="cls-5" d="m178.06,136.69c-.3-.1-.5-.4-.4-.7.4-1.5.8-3.1,1.2-4.7.4-1.5.6-2.9,1-4.4.1-.3.4-.5.7-.5s.5.3.5.7c-.4,1.5-.6,3-1,4.5s-.8,3.1-1.2,4.7c-.1.2-.3.4-.6.4h-.2Z"/>
      <path class="cls-5" d="m180.86,131.79c-.3-.1-.5-.4-.4-.7.2-1,.5-2,.7-3.1.2-.6,0-1.7.8-1.7,1.2.2.1,2,.1,2.8-.3.7-.2,2.7-1.1,2.7h-.1Z"/>
      <path class="cls-5" d="m166.86,135.79c-.3-.1-.4-.5-.3-.8.4-1,.8-2,1.2-2.9.3-.9.6-1.8.7-2.7,0-1.1,1.5-.7,1.1.3-.3,2-1.2,3.9-2,5.7-.1.2-.3.3-.5.3,0,.2-.1.1-.2.1h0Z"/>
      <path class="cls-5" d="m161.06,198.69c-1.6-.5,3.1-8.8,3.2-10.6.3-.8.3-1.7.8-2.4.5-.5,1.3.2.9.8-1,4.1-3.1,7.8-4.2,11.9-.1.2-.3.4-.6.4,0-.1-.1-.1-.1-.1h0Z"/>
      <path class="cls-5" d="m165.86,193.59c-.3-.1-.4-.5-.3-.8.4-.9.9-1.8,1.3-2.8.5-.7,1-3.3,2.1-2.2.2.3-.1.6-.2.9-.7,1.5-1.5,3-2.2,4.5-.1.2-.3.3-.5.3,0,.1-.1.1-.2.1h0Z"/>
      <path class="cls-5" d="m165.46,197.79c-.3-.2-.3-.5-.2-.8.5-.9.9-1.9,1.6-2.7.6-.7,1.4.2.8.8-.5.8-1,1.7-1.4,2.5-.1.2-.3.3-.5.3-.1-.1-.2-.1-.3-.1h0Z"/>
      <path class="cls-5" d="m163.46,197.89c-.8-.5.1-1.4.2-2,.2-.5.4-1.3,1.1-1.2.8.3.2,1.2,0,1.7-.3.5-.4,1.5-1.1,1.5h-.2Z"/>
      <path class="cls-5" d="m168.46,199.39c-.3-.2-.4-.5-.2-.8.8-1.5,1.7-2.9,2.6-4.3,1-1.4,1.8-2.9,2.7-4.3,2.5-.5-1.4,4.1-1.7,4.8-.9,1.4-1.8,2.9-2.6,4.3-.1.2-.3.3-.5.3h-.3Z"/>
      <path class="cls-5" d="m172.16,198.19c-.7-.7.6-1.6,1-2.2.5-.5,1.3.3.8.8h0c-.5.4-.8,1.5-1.5,1.5-.1,0-.2,0-.3-.1h0Z"/>
      <path class="cls-5" d="m275.06,217.19c-1.6-.8-3.3-1.3-5-1.7-.3-.1-.5-.4-.4-.7.4-.9,1.6,0,2.3,0,1.3.3,2.6.9,3.8,1.4.2,0,.3.2.4.4.1.5-.2.7-.6.7-.2,0-.4,0-.5-.1h0Z"/>
      <path class="cls-5" d="m276.16,215.69c-1-.6-2.1-.9-3.2-1.4-.3-.1-.4-.5-.3-.8s.5-.4.8-.3c1.1.4,2.2.8,3.2,1.4.8.3.5,1.3,0,1.3-.1.1-.3,0-.5-.2h0Z"/>
      <path class="cls-5" d="m273.06,206.19c-.4-.2-.8-.5-1.1-.8-.3-.4.1-.9.5-.9.5.1.8.5,1.2.7.6.3.2,1.1-.3,1.1-.1-.1-.2-.1-.3-.1h0Z"/>
      <path class="cls-5" d="m326.56,147.29c-.4-.9-.8-1.7-1.2-2.6-.1-.2-.1-.5.1-.7s.6-.2.8,0c.4,1,.9,1.9,1.3,2.9.1.3,0,.6-.3.8h-.2c-.1,0-.4-.1-.5-.4h0Z"/>
      <path class="cls-5" d="m143.06,113.09c-.5-.4-1-.9-1.5-1.4-.3-.2-.3-.6-.1-.8.8-.8,1.7,1,2.4,1.4.4.4,0,1-.4,1-.2,0-.3,0-.4-.2h0Z"/>
      <path class="cls-5" d="m213.06,145.99c-.6-.5-2.4-1-1.5-2,.7-.3,1.4.7,2,.9.5.3.2,1.1-.3,1.1,0,.1-.1,0-.2,0h0Z"/>
      <path class="cls-5" d="m229.66,204.69c-.5-.6-2.7-1.5-1.5-2.3.2-.1.5,0,.6.1.5.4,1.1.8,1.6,1.3.5.4.1,1-.3,1-.2.1-.3,0-.4-.1h0Z"/>
      <path class="cls-5" d="m226.36,201.39c-1.1-.7-2.2-1.5-3.3-2.2-.3-.2-.3-.6-.1-.8.3-.5.8-.1,1.2.1.5-.1.9.4,1.3.7.3.2.7.4.9.8.2.2.4.3.6.5.4.4.1,1-.4,1,0-.1-.1-.1-.2-.1h0Z"/>
      <path class="cls-5" d="m223.76,211.39c-.8-.8-1.9-1.4-2.7-2.2-.2-2.3,2.9.9,3.5,1.3.4.4,0,1-.4,1-.1,0-.2,0-.4-.1h0Z"/>
      <path class="cls-5" d="m29.66,184.59c-1-.3.2-2.5.3-3.3.2-.8.4-1.6.6-2.4,0-.3.3-.5.6-.5,1.1.3,0,2.3,0,3.1-.2.9-.5,1.8-.7,2.7-.1.3-.3.4-.6.4-.1.1-.2.1-.2,0h0Z"/>
      <path class="cls-5" d="m32.26,185.19c-.3-.1-.5-.4-.4-.7.2-.7.2-1.3.3-2,0-.4,0-.8.4-1,.8-.2.8.8.7,1.3-.1.7.1,2.4-1,2.4q.1,0,0,0h0Z"/>
      <path class="cls-5" d="m77.36,162.59c-.5-.3-.6-.9-.3-1.3,1.8-3.3,3.5-6.6,5.3-9.9,2-3.7,3.9-7.4,5.9-11.1,2-3.8,4-7.6,6.1-11.4l6-11.3c1.2-2.3,2.4-4.6,3.6-6.8.2-.5.9-.6,1.3-.3.5.3.6.9.3,1.3-1.9,3.6-3.8,7.2-5.8,10.8-2,3.8-4.1,7.6-6.1,11.5-2,3.7-4,7.5-6,11.2s-4,7.5-6,11.2c-1,1.9-2.1,3.9-3.1,5.8-.2.3-.5.5-.8.5-.1-.1-.3-.1-.4-.2h0Z"/>
      <path class="cls-5" d="m82.66,120.89c-.2-.5,0-1,.5-1.3,3.1-1.4,6.3-2.8,9.4-4.2,3.7-1.7,7.4-3.3,11.1-5,.3-.1.6-.2.8-.4.5-.2,1.1,0,1.3.5.2.5,0,1-.5,1.3-1.6.8-3.3,1.5-5,2.2-1.9.8-3.8,1.7-5.7,2.5-3.4,1.5-6.8,3.1-10.2,4.6-.2.1-.3.1-.4.2-.1,0-.2.1-.4.1-.4.1-.8-.2-.9-.5h0Z"/>
      <path class="cls-5" d="m84.86,126.39c-.8-1.8-1.6-3.6-2.4-5.3-.2-.5.1-1.1.5-1.3.5-.2,1,0,1.3.5.8,1.8,1.6,3.6,2.4,5.3.2.5-.1,1.1-.5,1.3-.1,0-.2.1-.4.1-.3,0-.7-.3-.9-.6Z"/>
      <path class="cls-5" d="m85.06,126.49c-.2-.5-.1-1.1.4-1.3l4.2-2.1c1.1-.5,2.2-1.1,3.2-1.6.5-.2,1.1-.1,1.3.4.2.5.1,1.1-.4,1.3-1.1.5-2.2,1.1-3.2,1.6l-4.2,2.1c-.1.1-.3.1-.5.1-.3.1-.7-.1-.8-.5h0Z"/>
      <path class="cls-5" d="m73.56,160.69c-.5-.3-.6-.8-.4-1.3,1.5-2.9,3.1-5.8,4.6-8.8,1.8-3.5,3.7-7.1,5.5-10.6,1.9-3.7,3.8-7.3,5.8-11,1.2-2.3,2.5-4.7,3.7-7,.2-.5.9-.6,1.3-.4.5.3.6.8.4,1.3-1.8,3.3-3.5,6.6-5.2,10-1.9,3.7-3.9,7.4-5.8,11.1-1.8,3.4-3.6,6.9-5.4,10.3-1,2-2.1,4-3.2,6-.2.3-.5.5-.8.5-.2,0-.4,0-.5-.1h0Z"/>
      <path class="cls-5" d="m77.46,162.89c-1.3-.6-2.7-1.2-4-1.8-.5-.2-.7-.8-.5-1.3s.8-.8,1.3-.5c1.3.6,2.7,1.2,4,1.8.5.2.7.8.5,1.3-.2.4-.5.6-.9.6-.2,0-.3-.1-.4-.1h0Z"/>
      <path class="cls-5" d="m93.96,165.29c-1.4-.4-2.7-1.3-3.5-2.5,0,0,0-.1-.1-.1s-.1-.1-.1-.1c-1.2-1.8-1.6-4-1.6-6.1s.4-4.2.9-6.3c1.1-4,2.9-7.9,5.1-11.4,1.2-2,2.6-3.8,4.1-5.6.1-.1.2-.2.2-.3,1.4-1.6,2.8-3.1,4.4-4.5,1.6-1.3,3.2-2.6,5-3.6,1.5-.8,3.1-1.5,4.7-1.9,1.2-.3,2.5-.3,3.7-.1h.1c1.4.3,2.6.9,3.6,2,1.4,1.5,2,3.6,2.2,5.7.2,2-.1,4-.5,6s-1,3.9-1.8,5.7c-1.6,3.9-3.7,7.6-6.3,10.9-2.5,3.3-5.4,6.2-8.7,8.7-1.7,1.2-3.5,2.2-5.4,2.9-1.3.5-2.7.8-4,.8-.6,0-1.3-.1-2-.2h0Zm-1.9-3.6c.1.1.1.2.2.3.2.2.3.3.5.5.2.1.3.2.4.3.2.1.5.3.7.4.2.1.4.2.5.2.2.1.4.1.7.2.2,0,.5,0,.7.1h1.1c.4,0,.8-.1,1.2-.2.5-.1,1-.3,1.4-.4h.1c.7-.3,1.3-.5,1.9-.8.9-.5,1.8-1,2.6-1.6,1.2-.8,2.2-1.7,3.2-2.6,0,0,.1,0,.1-.1h0c1.3-1.2,2.5-2.5,3.7-3.8,1.3-1.6,2.6-3.3,3.7-5v-.1h0c1.1-1.8,2.2-3.6,3-5.5.7-1.5,1.3-3.2,1.9-4.8.3-1.2.7-2.3.9-3.5.2-1,.3-1.9.3-2.9v-1.8c-.1-.5-.1-1-.2-1.4s-.2-.7-.3-1c-.1-.3-.2-.5-.3-.8-.1-.2-.2-.4-.3-.6-.1-.2-.2-.3-.4-.5-.2-.2-.3-.3-.5-.5-.1-.1-.3-.2-.4-.3l-.6-.3c-.2-.1-.4-.2-.5-.2h-.1c-.2-.1-.4-.1-.6-.2h-1.7c-.4,0-.9.1-1.3.2h0c-.5.1-1,.3-1.5.5h0c-.6.2-1.2.5-1.8.8-.9.5-1.7,1-2.6,1.5-1.2.8-2.3,1.7-3.2,2.6-1.3,1.2-2.6,2.5-3.7,3.8q-.1.1-.2.2l-.1.1c-1.3,1.6-2.5,3.3-3.6,4.9-1.2,1.8-2.2,3.7-3.1,5.6h0c-.7,1.5-1.3,3-1.8,4.5-.4,1.2-.7,2.3-.9,3.5-.2.9-.3,1.8-.3,2.7,0,.7,0,1.4.1,2,0,.5.1.9.2,1.3.1.4.2.7.3,1.1.1.2.2.4.3.6.1.2.2.4.3.6h0c-.1.3,0,.4,0,.4h0Z"/>
      <path class="cls-5" d="m95.56,158.49c-.6-.9-.7-1.9-.7-2.9s.2-2.1.4-3.1c.4-1.9,1.2-3.8,1.9-5.5.1-.1.1-.3.1-.3.9-1.9,1.8-3.7,2.9-5.5s2.3-3.6,3.6-5.2c1.3-1.6,2.6-3.1,4.1-4.5.8-.7,1.5-1.3,2.3-1.9.8-.6,1.8-1.1,2.8-1.4.7-.2,1.4-.3,2-.2h.1c.6.2,1.1.5,1.5,1,.6.8.8,1.9.9,2.9,0,1-.1,2-.3,3-.2,1-.5,1.9-.8,2.9-.6,1.9-1.5,3.7-2.4,5.4-.9,1.8-2,3.6-3.2,5.3s-2.4,3.4-3.8,4.9-2.8,3-4.5,4.3c-.8.6-1.8,1.2-2.8,1.6-.5.2-1.1.3-1.6.4h-.2c-.8.1-1.7-.4-2.3-1.2h0Zm18.8-28.5c-.1,0-.3,0-.4.1h0c-.2,0-.3.1-.5.2-.3.1-.6.2-.9.4-.4.2-.8.5-1.2.8-.7.5-1.4,1.1-2,1.6-1.1,1-2.1,2.1-3.1,3.3-1.5,1.8-2.8,3.6-4,5.6-1.1,1.8-2.1,3.6-3,5.5v.1h0c0,.1-.1.1-.1.2h0v.2c-.6,1.3-1.1,2.5-1.5,3.9-.2.8-.5,1.7-.6,2.6,0,.4-.1.8-.1,1.2v.8c0,.2.1.4.1.5s0,.2.1.2c0,.1.1.2.1.2,0,.1.1.1.1.2l.1.1.1.1s.1,0,.1.1.1,0,.1,0h.7c.1,0,.3,0,.4-.1.2,0,.4-.1.5-.1.3-.1.5-.2.8-.3.4-.2.9-.5,1.2-.8.7-.5,1.4-1.1,2.1-1.7,1.2-1.1,2.3-2.3,3.2-3.5,1.4-1.8,2.8-3.6,3.9-5.4,1.1-1.8,2.2-3.7,3.1-5.7v-.1h0c.6-1.3,1.1-2.7,1.5-4h0c.2-.8.4-1.6.6-2.4.1-.5.1-.9.1-1.4v-.8c0-.2-.1-.4-.1-.6,0-.1,0-.2-.1-.3,0-.1-.1-.1-.1-.2s-.1-.1-.1-.2c0,0,0-.1-.1-.1l-.1-.1-.1-.1h-.1q-.1,0-.2-.1h-.2c-.1.1-.2.1-.3.1h0Z"/>
      <path class="cls-5" d="m121.96,168.49c-.6-.1-1.1-.3-1.6-.7-.9-.5-1.6-1.4-2.1-2.4-.4-.9-.7-2-.8-3,0-.6-.1-1.1,0-1.7,0-.5.1-1.1.1-1.6.1-1,.4-2.1.7-3.1.6-2,1.4-4,2.3-5.9s2.1-3.7,3.3-5.5c1.2-1.8,2.7-3.5,4.2-5,1.4-1.5,3.1-2.9,4.8-4,1.2-.8,2.6-1.5,4-2,.9-.3,1.9-.5,2.9-.5h.7c1.3.1,2.5.7,3.4,1.6,1.4,1.5,1.8,3.6,1.8,5.5,0,1.3-.2,2.6-.4,3.8-.9,4-2.7,7.8-4.8,11.2-2.3,3.5-5,6.8-8.3,9.5-1.6,1.3-3.4,2.4-5.3,3.1-1.1.4-2.1.7-3.2.7h-.2c-.6.1-1.1.1-1.5,0h0Zm17.6-33.4c-.3,0-.6,0-.9.1-.4.1-.8.2-1.2.3-.5.2-.9.3-1.3.5-.6.3-1.2.6-1.8,1h-.1c-.8.5-1.6,1.1-2.4,1.7h0c-1.2,1-2.3,2-3.3,3.2-1.1,1.2-2.1,2.5-3.1,3.8-.5.8-1,1.5-1.5,2.3s-.9,1.5-1.3,2.3c-.8,1.5-1.4,3-2,4.5-.3,1-.6,2-.9,3-.2.8-.3,1.6-.4,2.5v1.6c0,.4.1.8.1,1.1.1.3.1.6.2.9.1.2.2.5.3.7.1.2.2.3.2.4.1.1.2.2.2.3.1.1.2.2.3.3.1.1.2.2.3.3.1.1.2.2.4.2.2.1.3.1.5.2.2,0,.3.1.5.1s.3,0,.5.1h.7c.3,0,.6,0,.8-.1.4-.1.8-.2,1-.3.5-.2,1-.3,1.4-.5.7-.3,1.4-.7,2-1.1.8-.5,1.7-1.2,2.3-1.7,1.1-.9,2.1-1.9,3-2.8,0,0,0-.1.1-.1h0c1.2-1.3,2.4-2.8,3.4-4.2s1.9-2.9,2.7-4.4c.7-1.4,1.4-2.9,1.9-4.3.4-1.1.7-2.2,1-3.2v-.2h0c.2-.8.3-1.5.3-2.2v-.1h0v-1.4c0-.4-.1-.8-.1-1.2-.1-.3-.1-.6-.2-.9-.1-.2-.2-.5-.3-.7-.1-.1-.2-.3-.2-.4-.1-.2-.2-.3-.3-.4-.1-.1-.2-.2-.3-.3-.1-.1-.2-.2-.3-.3-.1-.1-.3-.2-.4-.2-.1-.1-.3-.1-.4-.2-.2,0-.3-.1-.5-.1s-.4-.1-.6-.1h-.4q.2,0,.1,0h0Z"/>
      <path class="cls-5" d="m123.46,162.79c-1.2-.6-1.2-2.1-1-3.3.2-1,.5-2,.8-3,.3-.9.8-1.8,1.2-2.7,1.1-2.3,2.4-4.5,3.8-6.5,1.2-1.7,2.4-3.3,3.7-4.8.7-.8,1.3-1.5,2.1-2.2.8-.7,1.6-1.4,2.4-2,.8-.5,1.7-1,2.7-.8.6.1,1.2.5,1.5,1h0c.4.8.3,1.7.2,2.6-.2.9-.4,1.7-.7,2.6-.3.9-.7,1.8-1.1,2.7-1.1,2.4-2.5,4.7-4,6.9l-.1.1c-1.1,1.6-2.3,3.2-3.6,4.6-.7.7-1.3,1.4-2,2.1-.8.7-1.6,1.4-2.5,2-.7.4-1.5.8-2.3.8-.4.2-.8.1-1.1-.1h0Zm3.1-8.8c-.6,1.2-1.2,2.4-1.6,3.7-.2.6-.4,1.2-.5,1.6-.1.3-.1.7-.1.9v.8h.5c.1,0,.2-.1.2-.1.2-.1.5-.2.7-.4.5-.3.9-.7,1.3-.9.8-.7,1.6-1.5,2.3-2.2,1.4-1.5,2.7-3.2,3.9-4.9l.1-.1.1-.1h0v-.1c1.3-1.8,2.4-3.8,3.4-5.7.6-1.2,1.2-2.4,1.6-3.6v-.1h0c.2-.5.3-1.1.5-1.6,0-.3.1-.5.1-.8v-.8h-.4c-.1,0-.3.1-.4.2-.2.1-.5.2-.6.3h-.1c-.4.3-.8.6-1.1.8-.9.7-1.7,1.5-2.4,2.4-1.4,1.5-2.7,3.2-3.9,4.9,0,.1-.1.1-.2.2h0c-1.3,1.9-2.4,3.8-3.4,5.6h0Z"/>
      <path class="cls-5" d="m146.76,172.89c-.6,0-1.1-.1-1.6-.2-.9-.3-1.7-.8-2.3-1.6-.8-.9-1.2-2.2-1.3-3.4-.1-1.1-.1-2.1,0-3.2.3-2.1.9-4.1,1.8-6.1.7-1.5,1.4-3,2.3-4.3h0v-.1h0c.1-.1.1-.2.2-.3.1-.2.2-.3.3-.5.1-.2.3-.4.4-.6.3-.4.6-.8.9-1.3.7-.8,1.4-1.6,2.1-2.4,1-1.1,2.2-2.1,3.5-3,1.1-.7,2.2-1.4,3.4-1.8h.2c.1,0,.2-.1.3-.1h.1c.4-.1.7-.2,1.1-.2,1-.2,2-.1,3,.2s1.8,1.1,2.4,2c.6.8.9,1.9,1,2.9.2,1.7,0,3.4-.4,5.1-.4,1.7-1,3.4-1.8,5,0,.1-.1.1-.1.2-.9,1.9-2,3.7-3.2,5.4-1.2,1.6-2.6,3.2-4.1,4.5-1.6,1.4-3.3,2.6-5.2,3.4-.9.1-1.9.4-3,.4h0Zm.5-2c.2,0,.4,0,.5-.1.4-.1.8-.2,1.2-.3.4-.2.8-.3,1.2-.5.6-.3,1.1-.7,1.7-1,.7-.5,1.4-1.1,2-1.6.8-.8,1.6-1.5,2.3-2.4.9-1,1.7-2.1,2.5-3.3.7-1.1,1.4-2.3,2-3.5.1-.1.1-.2.2-.3.5-1,.9-2.1,1.2-3.1.2-.8.5-1.6.6-2.4.1-.6.2-1.2.2-1.9v-1.2c0-.3-.1-.7-.2-1h0c-.1-.2-.1-.4-.2-.6-.1-.2-.2-.4-.2-.5-.1-.1-.2-.3-.2-.4-.1-.1-.2-.2-.2-.3-.1-.1-.2-.2-.3-.3-.1-.1-.2-.1-.2-.2-.1-.1-.2-.1-.3-.2-.1-.1-.3-.1-.4-.2-.1,0-.2-.1-.4-.1s-.4,0-.6-.1h-.6c-.3,0-.5.1-.8.1-.2,0-.4.1-.6.2-.1,0-.2,0-.2.1-.5.2-.9.4-1.4.6-.6.3-1.1.7-1.7,1-.7.5-1.4,1-1.9,1.5-.8.8-1.6,1.5-2.3,2.4-.9,1-1.7,2.1-2.4,3.2,0,.1-.1.1-.1.2h0c0,.1-.1.1-.1.2-.7,1.1-1.3,2.2-1.8,3.2v.1h0c-.5,1-.9,2.1-1.2,3.1-.3.9-.5,1.7-.7,2.5-.1.6-.2,1.3-.2,1.9v1.2c0,.3.1.6.1,1,.1.2.1.5.2.7s.1.3.2.5.2.3.3.5c.1.1.2.2.3.3.1.1.2.2.2.2.1.1.2.1.3.2.1.1.2.1.3.2.2.1.3.1.5.2.1,0,.3.1.4.1h.4c0,.1.2.1.4.1h0Z"/>
      <path class="cls-5" d="m147.46,167.59c-.6-.2-1-.8-1.2-1.4-.3-.8-.2-1.8-.1-2.6v-.2c.3-1.9,1.2-3.7,2-5.4.9-1.8,2.1-3.5,3.4-5.2,1.1-1.4,2.2-2.7,3.6-3.7.6-.5,1.3-1,2.1-1.3.6-.2,1.3-.4,1.9-.2h.1c.5.2.9.5,1.2.9.3.5.4,1.2.4,1.8,0,.9-.2,1.8-.5,2.7s-.6,1.8-1,2.7c-.8,1.8-1.8,3.5-2.9,5.1s-2.4,3.2-3.8,4.5c-.6.5-1.2,1.1-1.9,1.5-.7.4-1.4.8-2.2.9h-.3c-.3.1-.6,0-.8-.1h0Zm.9-1.8h.2c.1,0,.2,0,.3-.1.2-.1.3-.1.4-.2.2-.1.5-.3.7-.4.4-.3.8-.6,1.1-.9.7-.6,1.3-1.2,1.8-1.8.9-1,1.7-2.1,2.5-3.3s1.5-2.4,2-3.5c.4-.9.8-1.8,1.1-2.5.2-.5.3-1.1.4-1.6.1-.3.1-.5.1-.8v-1h-.4c-.1,0-.2,0-.2.1-.1,0-.3.1-.4.2-.3.2-.6.3-.8.5-.4.3-.8.6-1.1.9-.7.6-1.3,1.2-1.8,1.9-.9,1-1.7,2-2.4,3.1-.8,1.2-1.5,2.4-2.1,3.6-.4.9-.8,1.8-1.1,2.5-.2.5-.3,1-.4,1.4v.3c0,.2-.1.5-.1.8v.9h0q.1-.1.2-.1h0Z"/>
      <path class="cls-5" d="m174.86,168.39c-.4-.1-.6-.6-.5-1,.5-2.1,1.2-4.1,2-6.1.7-1.8,1.3-3.5,2-5.3.2-.6.7-1.3,1.4-.9.3.2.4.7.2,1-.8,2-1.5,4-2.3,6-.7,1.9-1.3,3.8-1.8,5.7-.1.5-.6.7-1,.6h0Z"/>
      <path class="cls-5" d="m177.76,160.79c-1-.2-.7-1.7.3-1.5,1.1.1,2.5-.2,2.8-1.4.2-.6-.4-1.1-.8-1.4-.4-.1-.8-.3-.8-.7s.3-.8.7-.8c2.2.3,3.3,2.8,1.8,4.6-.9,1.1-2.6,1.3-4,1.2h0Z"/>
      <path class="cls-5" d="m183.96,170.49c-1.1-.3-2.2-.8-2.9-1.7-.3-.6.2-1.3.3-1.9.9-3,1.7-6,2.7-8.9.2-.7.6-1.8,1.5-1.3.3.2.4.7.2,1-1.2,3.4-2,7-3.1,10.4.5.4,1.2.7,1.9.8.9.5.4,1.9-.6,1.6h0Z"/>
      <path class="cls-5" d="m187.86,158.69c-1-.2-2.1-.5-3.1-.8-.6-.4-.4-1.3.3-1.4,1,0,2,.6,3.1.7.9.1.6,1.6-.3,1.5h0Z"/>
      <path class="cls-5" d="m187.36,161.19c-1-.3-4.2-.1-3.7-1.8.2-.4.6-.5,1-.4,1,.3,2,.4,3,.6,1,.3.7,1.8-.3,1.6Z"/>
      <path class="cls-5" d="m194.76,172.19c-.4-.1-.7-.5-.6-.9.5-2.3,1-4.7,1.4-7,.3-1.4.7-2.8,1-4.3.2-.8,1.4-.7,1.5.2-.4,2.5-1.2,4.9-1.5,7.4-.2,1.3-.6,2.7-.9,4-.1.4-.5.7-.9.6h0Z"/>
      <path class="cls-5" d="m205.06,161.89c-1.5-.5-3.1-.5-4.6-.7-.3.1-.6,0-.8-.2-.3-.3-.2-.9.2-1.2.5-.3,1.2,0,1.8,0,1.1.2,2.1.2,3.1.4.6.1,1.5.3,1.3,1.2-.1.4-.6.6-1,.5h0Z"/>
      <path class="cls-5" d="m200.46,172.79c-.4-.1-.7-.5-.6-.9.3-1.9.7-3.8,1.1-5.7.5-1.9.8-4,1.3-5.8.5-.8,1.8-.1,1.3.8-.2,1.9-.8,3.7-1.2,5.6-.4,1.8-.7,3.6-1,5.4-.1.4-.5.7-.9.6h0Z"/>
      <path class="cls-5" d="m208.16,173.69c-3.7-1.8-1.4-12.6,2.4-13.1,1.9-.1,2.7,2.5,2.5,4.1.1,2.4-1.9,9.2-4.9,9h0Zm.4-1.6h0c2.1-1.7,4.4-8,2-10.1-2.4,1.9-3.7,7.6-2,10.1h0Z"/>
      <path class="cls-5" d="m214.56,175.69c-.7-.5-1-1.4-1.2-2.3-.2-1,1.3-1.3,1.5-.3.1.5.2,1.1.6,1.4h.4c.1,0,.2-.1.2-.1,2.2-3.3-1.5-7.5.4-10.8.7-1.2,2.2-2,3.4-1,.8.5,0,1.8-.8,1.3-.7-.5-1.3.5-1.5,1.1-.5,3.1,1.5,6.2.4,9.3-.3,1.3-2.1,2.4-3.4,1.4h0Z"/>
      <path class="cls-5" d="m189.06,171.79c-.9.1-2.3-.8-1.3-1.7,1-.6,1.6,1.2,2-.9.8-3.4-1.3-7.6,1.6-10.3.5-.5,1.3-.5,1.9-.2.9.3,1.6,2,.3,2.2-.4,0-.8-.3-.9-.7,0-.1-.2-.2-.3-.2-2.9,2.3,1.5,11.3-3.3,11.8h0Z"/>
    </g>
  </g>
</svg>