<?xml version="1.0" encoding="UTF-8"?>
<svg id="Layer_1" data-name="Layer 1" xmlns="http://www.w3.org/2000/svg" viewBox="0 0 389.76 268.75">
  <defs>
    <style>
      .cls-1 {
        fill: #937cc9;
      }

      .cls-2 {
        fill: #745983;
      }

      .cls-3 {
        fill: #a47eb9;
      }

      .cls-4 {
        fill: #c8abd9;
      }

      .cls-5 {
        fill: #c9abd9;
      }

      .cls-6 {
        fill: #8b6a9c;
      }

      .cls-7 {
        fill: #a37eb8;
      }

      .cls-8 {
        fill: #3d1a17;
      }
    </style>
  </defs>
  <g id="Capa_de_vector7" data-name="Capa de vector7">
    <g>
      <path class="cls-7" d="m271.24,247.75h0c-.3.1-.7.1-1.1.1-2.6-.5-5.2-1.3-7.7-2.3-9.1-2.3-17.2-7.3-24.6-13-.1-.1-.2-.2-.3-.3-2.3-1.6-4.6-3.4-6.8-5.2-.2,0-.5,0-.7-.1-3.7-2.2-6.8-5.2-10.1-8-2.1-1.9-4.2-3.8-6.2-5.7-.3-.2-.3-.6-.2-1-2-1.7-3.9-3.4-5.9-5.2-5.2-4.7-10.3-9.5-16-13.7-.2.1-.3.1-.5.1-3.3-1-5.9-3.4-8.8-5-5.2-2.9-10.7-5.1-16.3-7-7.1-3-14.7-5-22.4-5.5-.6-.1-1.2-.2-1.8-.3-1,.5-3.4.5-4.9.4h-5.6c-1.5,0-3.1-.1-4.6,0-1.4.2-2.8.3-4.2.2-2.6-.2-5,.5-7.5.8-2.2.1-4.5.3-6.7.6-2.4.1-4.8.2-7.1,1.1-8.2,1.1-16.6,1.4-24.9,1.5-3.3-.2-6.7-.5-10-.8-.4.5-1.3.5-1.9.5-3.7-.3-7.3-1.4-11-2-3.4-.4-6.9-.8-10.3-1.2-2.8-.1-5.4-1.2-8.1-1.2-.1,0-.2.1-.3.1h-.3c-.1,0-.2-.1-.2-.1-.6-.2-1-.6-.8-1.2.1-.4.4-.6.8-.7,1-2.7,2.1-5.4,3.1-8.1,1.9-4.9,3.8-9.9,5.7-14.8,1.6-4.2,3.2-8.5,4.9-12.7,1.8-4.8,3.7-9.6,5.5-14.4,1.9-5,3.8-10.1,5.8-15.1,1.9-5,3.8-10,5.7-15,1.8-4.8,3.7-9.6,5.5-14.4.9-2.4,1.8-4.8,2.8-7.2h1.9-.2.9-.1c.6,0,1.2.1,1.8.2.3.1.7.1,1,.1h.6c.2,0,.3-.1.5-.2s.3-.4.3-.7c0-.4-.1-.7-.4-.9-.2-.1-.4-.2-.5-.3-.2-.1-.4-.2-.5-.2-.1-.3-.4-.5-.7-.6-.3-.1-.6-.1-.8-.2-.4-.3-.8-.6-1.2-.8-.3-.2-.6-.3-1-.4.3-.9.7-1.7,1-2.6,1.7-4.4,3.4-8.8,5.1-13.2,1.8-4.6,3.5-9.3,5.3-13.9.9-2.4,1.8-4.7,2.7-7.1.2-.5.7-.8,1.2-.6.4.1.7.6.6,1.1.2.1.5.2.7.3,2.1.9,4.1,1.8,6.1,3,7.1,4,14,8.4,20.4,13.4,7,5.5,13.9,11.2,20.3,17.4,6,6.5,11.3,13.8,16.3,21,1.7,2.3,3.5,4.6,5.3,6.9.2,0,.3.1.5.3,1.6,1.6,3.2,3,4.7,4.6,2.2,2.2,4.8,4.1,7.2,6.2,3,3.1,6.7,5.3,10.8,6.5,4.6,1.8,9.6,2.7,14.4,1.9,1.3-.3,2.5-.6,3.8-.9.9-.9,3.3-1.2,4.2-1.7,5.8-2.1,11.4-4.8,16.9-7.5,5.8-2.7,11.3-5.7,17.2-8.1,10.3-4,21.1-6.7,31.9-9h0c-.2-.5,0-1,.4-1.3,2.4-1.5,5.1-1.8,7.9-1.9,2.7-.1,5.2-.8,7.9-1,6.2-1,12.3-2.6,18.6-3.3,3.7-.4,7.3-.4,10.9-1.1,3.2-.4,6.5-.7,9.7-1,.6-.2,1.4-.1,1.6.7.1.3,0,.5-.1.7.1.4,0,.8-.2,1-1.1,3.6-2.9,6.8-4.9,9.9-1.4.4-2.1.9-1.8,1.6-2.1,2.7-3.5,5.8-4.9,8.8-3.6,7.8-7.5,15.4-10.9,23.2-.1.1-.1.3-.2.4-1.9,3.7-3.5,7.5-4.9,11.5-2.5,7.6-5,15.2-7.8,22.7-2.3,6-4.8,11.9-6.7,18,.1.1.2.2.2.3-1.4,4.5-2.5,9.1-3.1,13.8-.5,2.6-.9,5.2-1.3,7.9h-.4c-.1,0-.1-.1-.2-.1-.2,1.7-.3,3.5-.4,5.2-1,4.2-1.7,8.4-2.2,12.6-1.7,10.5-4.6,21-5.6,31.6-.1.8.5,1.6-.3,2.1-.2.1-.3.2-.5.2-.6-.5-.8-.6-1-.7h0Zm-120.5-84.1c1.8.1,3.6.2,5.3.5,10.5,1.7,20.4,5.7,29.8,10.7.2.1.5.2.7.4.9.6,1.8,1.1,2.6,1.7,1.9,1.3,3.8,2.5,5.7,3.8,2.4,2,4.9,4.1,7.4,6,.4.5,1.4,1.3,2.1,2h0c.2.2.5.5.6.8.6.5,1.2,1,1.7,1.5h.1l.4.4h0c1.5,1.3,3,2.7,4.6,3.9.1.1.3.2.4.3.8.7,1.6,1.3,2.4,2,7,5.9,14.3,11.4,21.5,17.1.6.5,1.3.9,1.9,1.3,1.8,1.2,3.8,2.4,5.6,3.5.5.3.9.6,1.3.9h.1c.6.4,1.2.8,1.7,1.1-1.3-4-1.3-8.3-.4-12.4.5-2.1,1.7-4.5,3.3-6.1,1-1,2.2-1.7,3.5-1.9.7-.1,1.5,0,2.4.2,1,.4,1.9.8,2.9,1.1h0c0-.4.1-.7.1-1.1,0-.3.1-.6.1-.9.4-2.5,1.2-5,1.6-7.5.8-5.7,1.7-11.4,2.2-17.1.7-3.1,1.6-6.2,2.2-9.3.7-2.6,1.4-5.4,1.8-8.1.7-3.6,1.8-7.1,2.8-10.6.7-1.8,1.2-3.7,1.8-5.6v-.1c.1-.3.2-.5.2-.8v-.1c.4-1.1.8-2.2,1.2-3.3,1.6-3.4,2.5-7,3.8-10.5.1-.3.2-.6.4-.9,1.6-4.1,4.3-7.6,6.5-11.4.1-.1.2-.3.2-.4s.1-.2.1-.2h0c.2-.4.5-.8.7-1.2-.5,0-.9-.1-1.2,0-2.6,0-5-.9-7.3-2.1-2.5-1.6-2.1-5.1-1.4-7.6.9-2.4,1.8-5.1,4-6.6-.1-.2-.2-.6-.2-.9-6.6,1.2-13,3.6-19.5,5.3-3.4.7-6.7,2-10,3.2-4.2,1.2-8.2,2.7-12,4.7-3.1,1.5-6.2,3-9.3,4.6-1.6.8-3.2,1.4-4.9,1.9-2.5.8-5,1.5-7.5,2.6-1.9.8-3.8,1.7-5.7,2.5-1.6.7-3.2,1.3-4.9,1.7-2.8.8-5.7,1.2-8.8.9-4.4-.4-8.8-.8-13-2.1-1.5-.4-3-1-4.4-1.7-7-2.5-13.2-6.6-19.2-10.9-11.6-9.8-21.8-21.1-32.7-31.6-4-4.2-8.5-7.7-12.9-11.4-.9-.8-1.8-1.6-2.7-2.4h0c-.2-.2-.5-.4-.7-.6-.1-.4-.4-.6-.7-.6-.3-.3-.6-.5-.8-.8v1c-.2.1-.3.3-.3.5-.1.4,0,.7.2,1-.2,1.1-.4,2.2-.8,3.3-.6,1.2-.2,2.9-.9,3.9-.2.2-.4.2-.6.2-.4,1.2-1.1,2.4-2.1,3.2-1.1,1.1-2.4,2.3-4,2.4-2.5,0-4.4-2-5.7-3.9-.2-.4-.6-.8-.8-1.2,0-.2-.1-.5-.2-.7-.1-.1-.2-.2-.4-.3-.1-.2-.2-.3-.3-.5-.1-.3-.3-.6-.3-.9-.1.3-.3.7-.4,1-.2.5-.4.9-.6,1.4h0c-.9,2.1-1.7,4.2-2.6,6.4-1.5,3.7-3,7.4-4.5,11.1l-4.5,10.9c-1.5,3.7-3,7.4-4.5,11.1-.7,1.8-1.5,3.6-2.2,5.4-.8,1.9-1.6,3.9-2.4,5.9-1.1,2.7-2.2,5.5-3.4,8.2-.4,1-.8,2-1.2,3-1.5,3.6-3,7.3-4.5,10.9l-.2.6c2.7.9,5.1,3.7,6.5,6,1.8,3,1.5,6.7,1.4,10.1-.2,1.4-.5,2.8-.9,4.1.1.1.2.3.2.6.4.1.7.1,1.1.2.3.1.7.1,1,.1,1.2.2,2.5.2,3.7.3h0c.8,0,1.7,0,2.5.1h0c1.7,0,3.3,0,5,.1,7.2.2,14.5.1,21.7-.1,6.3-.2,12.1-1.6,18.2-2.3,7.1-.7,14.3-1.4,21.4-1.4h4.1c1.6.4,2.6.4,3.8.5q.7,0,0,0c-1.2-.1-.1,0,0,0h0Z"/>
      <path class="cls-7" d="m74.34,67.95h0l.1.1h0s0,0-.1-.1Z"/>
      <path class="cls-4" d="m93.34,71.35v.1c-.1-.1-.2-.2-.4-.3h-.1c-.5-.1-1.1.2-1.2.7-.1.9.4,1.9.9,2.7-.3.7-.7,1.4-.9,2.1-1.8,4.4-3.2,8.8-4.9,13.2-2.1,5.1-4.3,10.1-6.1,15.3-1.6,4-3.8,7.7-5.5,11.8-1.9,4.3-4,8.6-5.6,13-1.1,3-1.8,6.1-2.9,9-.9,1.9-1.8,3.9-2.5,5.9,0,.1-.1.3-.2.4v-.1c-.1.5-.6.8-1.1.8-.7-.1-.8-.6-.8-1.1,0-.4.2-.8.4-1.1.8-2.2,1.9-4.4,2.8-6.6.5-2,1.2-4,1.9-6,1.7-4.8,3.6-9.5,5.8-14.1,1.2-2.7,2.5-5.4,3.9-8.1,2.1-3.9,3.3-8.1,4.9-12.1,1.7-4,3.4-8,4.9-12.1,1-2.5,1.8-5.1,2.7-7.6.6-1.7,1.6-3.3,2-5h0c0-.1,0-.2.1-.4,0-.5.2-.8.5-1,.2-.1.5-.2.8-.1.2,0,.4.2.6.7h0Z"/>
      <path class="cls-4" d="m69.44,166.45c-.2-.3-.1-.7.1-1,.2-1.4.6-2.7.6-4,.2-4.2-1.1-8.6-3.5-12-1-1-2-2.1-3.2-2.9-.9-.2-1.8-1.3-.8-2,.4-.2.8-.2,1.2.1,1,.5,1.9,1.2,2.7,2,2.5,2,3.9,5,4.7,8,.9,2.3,1,4.7.9,7.1-.1,1.6-.3,3.1-.8,4.6-.4.7-1.6.8-1.9.1h0Z"/>
      <path class="cls-4" d="m85.24,166.75c-3.8,0-7.4-.5-11.1-.3-1.4,0-2.8.4-4.1.2-.8-.3-.8-1.4-.1-1.8.3-.2.7-.3,1-.1,1.8-.1,3.5-.3,5.4-.3,4.1.1,8,.5,12,.3,5-.3,9.8-1,14.8-1,4.2-.3,8.4-.2,12.7-.3,3.6-.2,7.2-1,10.8-1.2,1.2.1,4-1.1,4.3.5.1.5-.3,1-.8,1.1-2.1.3-4.3.5-6.4.6-6.5,1.2-13,.9-19.5,1.2-6.4,0-12.6,1.1-19,1.1h0Z"/>
      <path class="cls-4" d="m75.14,167.25c-1.9-.2-3.7-.3-5.6-.7-.9-.3-.7-1.7.2-1.9,2.5.2,5,.8,7.5.7,8.1-.3,16.2,0,24.3-1,5.3-.5,10.6-.8,15.7-2.1.5-.1,1,.1,1.2.7.1.5-.2,1.1-.7,1.2-1.7.4-3.4.8-5.2,1.1-12.5,1.8-25.1,2.1-37.7,2.1l.3-.1h0Z"/>
      <path class="cls-4" d="m125.04,164.25c-.5-.2-.7-.8-.5-1.3.5-1.1,2-.4,2.9-.7,4.5-.4,9.1-.9,13.6-.8,3.6.1,7.2,0,10.8.1.5,0,1,.4,1,1s-.4,1-1,1c-2.2-.1-4.5,0-6.7,0-4.4-.1-8.8-.1-13.3.4-2.3-.1-4.6.6-6.8.3h0Z"/>
      <path class="cls-4" d="m188.84,176.75c-7.1-4.2-14.5-7.7-22.4-10-2.1-.6-4.2-.8-6.3-1.2-3.8-.9-7.6-1.9-11.5-2.2-1.6,0-1.5-2.3.1-1.9,3.5.3,7.1,1,10.5,2,4.3.7,8.6,1.5,12.6,3.1,5.2,1.7,10.2,4,14.9,6.9.9.8,4.2,1.5,3.5,3-.4.4-1,.6-1.4.3h0Z"/>
      <path class="cls-4" d="m214.34,197.55c-2.4-2.2-5-4.2-7.5-6.4-1.8-1.7-3.5-3.5-5.5-4.9-4.2-3.2-8.4-6.5-13.1-8.9-.8-.5-1.8-.8-2.4-1.5-.7-.9.5-2,1.4-1.4,7,3.7,13.6,8.2,19.4,13.7,2.8,2.8,6,5.1,8.9,7.8,1,.8-.2,2.3-1.2,1.6h0Z"/>
      <path class="cls-4" d="m244.24,220.55c-5.5-3.5-10.4-8.1-15.4-12.3-5.1-4.1-10.2-8.1-15.5-12-1-.8.2-2.3,1.2-1.5,8.8,6.3,17.1,13.2,25.3,20.3,1.7,1.4,3.5,2.5,5.2,3.8.4.2.7.8.5,1.2-.2.5-.8.7-1.3.5h0Z"/>
      <path class="cls-4" d="m244.04,220.45c-.3-.2-.4-.6-.3-.9-3.8-8.4.8-18.9,9.7-21.6,2.7-.7,5.9.4,5.2,3.7-.1.5-.6.9-1.1.8-1.1-.2-.6-1.4-.8-2.1-1.6-1.2-3.7-.2-5.2.6-3.6,1.9-6,5.7-7.1,9.6-.4,2.5,0,5.2.7,7.6.3.7.8,1.6.2,2.4-.3.2-.9.2-1.3-.1h0Z"/>
      <path class="cls-4" d="m244.54,217.55c-.5,0-.9-.5-.9-1-.2-.7-.2-1.4-.2-2.1-.3-3.1.3-6.2,1.8-8.9,1.7-2.9,4.4-4.9,7.5-6,1.7-.9,4-1,5.2.8.8,1-.7,2.2-1.5,1.2-1-1.5-2.7-.3-3.9.2-4,1.4-6.6,5.2-7.2,9.3-.2,1.5.1,3-.1,4.4.4.8.6,2.2-.7,2.1h0Z"/>
      <path class="cls-4" d="m257.64,200.65c-.8,0-1.3-1-.8-1.6.8-7.8,2.3-15.5,3.6-23.1.3-3.5.7-6.9,1.4-10.3,1.1-7.7,4.6-14.8,6.6-22.2h0c1.6-6.1,2.9-12.5,6.1-18,1.7-3.4,3.1-6.9,5.6-9.8,1-.6,2.2-2.6,3.4-1.6.6.7,0,1.4-.7,1.8-1.8,1.3-2.9,3.2-4,5-1.5,3.3-3.3,6.6-4.7,9.9-1.6,4.3-2.7,8.7-3.8,13.1-1.4,5.6-3.9,10.9-5.3,16.6-1.3,5-2,10.3-2.5,15.4-.7,4.4-1.6,8.9-2.2,13.3-.4,2.9-1,5.8-1.3,8.7-.3,1,0,2.8-1.4,2.8h0Z"/>
      <path class="cls-4" d="m258.74,185.45c-.5-.1-.9-.6-.8-1.1.5-2.2,1-4.5,1.5-6.7,1.7-8.4,3.7-16.6,6.2-24.8,2.6-6.9,4.3-14.2,7-21.1,1.3-2.8,2.4-5.7,3.8-8.4,1.6-2.7,3.5-5.4,5.3-8,.2-1.2,2.1-.9,1.9.4-.1.8-.7,1.3-1.1,1.9-1.4,1.9-2.6,4.1-4,6-2.4,5-4.7,9.8-6.2,15-2.7,9.2-6.2,18.2-8.4,27.6-1.5,6.2-2.6,12.4-4.2,18.6,0,.3-.5.7-1,.6h0Z"/>
      <path class="cls-4" d="m277.84,115.85c-5.2-.3-6.2-5.9-6.5-10.1.1-3,1.9-5.5,3.2-8.1.6-1.1,2.3-.2,1.7.9-1.1,2.6-3.2,5.1-2.9,8,.5,2.3.6,5.1,2.5,6.7,1.7.7,3.7,1.2,5.5.7.8-.9,2.2.2,1.6,1.2-1.1,1.3-3.6,1-5.1.7h0Z"/>
      <path class="cls-4" d="m234.94,112.45c-.2-.8.5-1.2,1.1-1.4.8-.3,1.5-.6,2.1-.9,4.7-1.9,9.4-3.6,14.2-5.2,7.4-2.7,14.9-5.5,22.6-7.1,1.1-.1,1.4,1.6.3,1.9-10.5,2.2-20.5,6.5-30.6,9.9-2.2.8-4.2,1.6-6.3,2.4-1.1.5-2.8,1.9-3.4.4h0Z"/>
      <path class="cls-4" d="m198.64,126.05c-.7.1-1.7-.1-1.6-1.1,0-.6.5-.9,1-.9,3.6.2,7.3-.6,10.8-1.4,3.8-1,7.3-2.9,10.9-4.4,4.1-1.8,8.1-3.7,12.2-5.6,9.3-4,18.7-8.4,28.5-11,1.3,0,1.3,1.9,0,2-11.8,3.5-23.1,8.7-34.3,13.9-8.8,3.9-17.6,8.8-27.5,8.5h0Z"/>
      <path class="cls-4" d="m207.54,122.95c.2.3.3.7,0,1.1s-.7.4-1.1.3c-3.1.5-6.2.6-9.3.6h-3.7c-14.3-.6-28.1-6.5-38.7-16-.8-.9-3.3-2-2.5-3.4.7.7,1.5,1.4,2.3,1.9.5.3.9.1,1.2-.2.7.6,1.4,1.2,2.1,1.8,7.3,6.1,15.9,10.3,25,12.4,5.9,1.4,12.1,1.9,18.2,1.4,1.2,0,2.4-.1,3.5-.2.6-.1,1.1-.1,1.7-.2.5,0,1,.2,1.3.5h0Z"/>
      <path class="cls-3" d="m202.94,120.95c-.1-.5.3-1,.8-1.1,5.9-.4,11.5-2.5,16.9-4.8.5-1.3,2.7-.4,1.9.9-1,1.7-19.6,8-19.6,5h0Z"/>
      <path class="cls-5" d="m126.84,111.85c-.1-.2-.1-.4,0-.6-7.6-5.9-15.4-11.7-23.1-17.4-1.8,2.7-3.2,5.6-5,8.3-4.1,6-7.5,12.3-10.7,18.7,1.9,2.4,6.7,1.7,9.5,2.2,4.2.5,8.6,1,12.3,2.9,2.7,1.8,4.1,6.4,1.4,8.7-2.1,2.4-4.6,4.6-7.7,5.4-1.8.6-3.7,1.3-5.6,1.1h.1c-3-.1-6.2-1.2-8.4-3.3-2.3-2.9-2.9-7-1.8-10.5-1.4-.4-2.9-.8-4.3-1.1,0,1.3-.9,2.4-1,3.6,0,1.4.2,2.6.2,3.9-.1,1.1-.1,2.2.3,3.3,1.5,2.3,3.4,4.5,5.7,5.9,1.4.6,2.6,1.3,4,1.9,1.3.4,2.8.5,4.1,1,3.1.3,6.4-.3,9.4-1,.3-.7,1.5-1,2.1-1.4,1.2-.8,2.4-1.6,3.6-2.4,1.2-.9,2-2.2,2.7-3.5.5-1.1.8-2.1,1.5-3,.3-.8.9-1.4,1-2.3.1-1.1-.2-2.3-.3-3.4-.1-1.8-1.1-3.3-2.2-4.7-.3-.4-.7-.8-1.1-1.2-4.2-3.4-9.8-4.9-15.1-4.1-.2.1-.5.2-.7.1-1.2.3-1.7-1.5-.5-1.9.1,0,.2,0,.3-.1.3-.4.7-.8.8-1.2,1.5-2.6,2-5.6,3.7-8,.9-1.8,2.6-3.1,3.2-5,0-.1.1-.2.1-.2.2-.6.9-1.1,1.5-.5,6.2,4.1,12.5,8.2,19.1,11.7.3-.7.7-1.3.9-1.9h0Zm14.5,32.1c4.4-7.5,9.2-17.4,3.9-25.6-.4.2-1,.1-1.2-.2-3.5-2-7.8-.6-10.6,1.9-1.6,1.3-3.3,2.6-4.4,4.4-1.5,2.6-3.3,4.9-4.3,7.8-.3,1.6-.8,3.1-1.3,4.7-2.2,5.7.1,15.1,7.4,14.8,2.4-.2,4.2-1.8,5.9-3.3,1.7-1.5,3.4-2.8,4.6-4.5h0Zm138.4-27.9c-.1.1-.2.3-.3.4-.3.4-.6.8-.9,1.2-.1.1-.2.3-.3.4l-.1.1c-.1.1-.1.2-.2.4-.2.3-.3.6-.5.9-.1.1-.2.3-.2.4-1,1.8-1.8,3.6-2.7,5.5-3.1,5.3-4.4,11.5-5.9,17.4,0,.2-.1.4-.1.5h0c-.1.2-.1.4-.2.7-.1.5-.3.9-.4,1.4-.1.2-.1.5-.2.7-.7,2.1-1.4,4.2-2.1,6.4-.2.6-.4,1.1-.6,1.7-.2.5-.4,1-.5,1.6-.1.2-.1.3-.2.5-.3.8-.5,1.6-.8,2.4-.1.4-.2.7-.3,1.1-.3,1.1-.6,2.2-.8,3.3-.1.3-.1.7-.2,1-.1.5-.2,1-.3,1.6-.1.4-.1.7-.2,1,0,.2-.1.5-.1.7s-.1.3-.1.5-.1.5-.1.7c0,.1,0,.2-.1.3,0,.3-.1.5-.1.8h0c-.2.6-.3,1.3-.4,2-.2.7-.3,1.3-.4,2-.1.4-.2.8-.2,1.2-.2.9-.4,1.9-.6,2.8-.5,2.2-1,4.5-1.5,6.7-.1.5.3,1,.8,1.1h.2c-.1.5-.2,1-.3,1.6-.6,3.7-1.2,7.4-1.6,11-1-.4-2.3-.5-3.5-.2-8.1,2.5-12.7,11.5-10.5,19.5-1.1-.7-2.2-1.5-3.2-2.3-8.2-7.1-16.5-14-25.3-20.3-.2-.2-.4-.2-.6-.2-2.4-2.1-5-4-7.3-6.3-5-4.6-10.5-8.6-16.4-12,.4-1.4-2.6-2-3.5-2.8-4.7-2.8-9.6-5.2-14.9-6.9-4.1-1.6-8.3-2.5-12.6-3.1-2.2-.6-4.4-1.1-6.6-1.5-.2-.2-.5-.4-.8-.4h-2.3c-.3,0-.6-.1-.9-.1-.4-.1-.7,0-.9.1-2.2,0-4.5,0-6.7-.1-3.5,0-7,.2-10.5.5-.9-.6-3,.2-4,.1-2.7.1-5.4.6-8.1,1v-.2c-.1-.5-.7-.8-1.2-.7-2.1.6-4.2,1-6.2,1.2-2.7,0-5.3,0-8,.2-5,0-9.8.8-14.8,1-4.1.2-7.9-.2-12-.3-1.6,0-3.1.1-4.7.2.2-1,.3-2,.4-3,.1-2.4,0-4.8-.9-7.1-.8-3-2.2-6-4.7-8-.7-.7-1.3-1.3-2.2-1.8.8-2,1.6-4,2.5-5.9,1.2-2.9,1.8-6.1,2.9-9,1.5-4.4,3.7-8.7,5.6-13,1.7-4,3.9-7.7,5.5-11.8,1.8-5.2,4-10.2,6.1-15.3,1.7-4.4,3.1-8.9,4.9-13.2.2-.7.6-1.4.9-2.1-.6-.8-1.1-1.8-.9-2.7.1-.5.7-.8,1.2-.7h.1c.2.1.3.2.4.3.1.2.2.4.2.7,0,.2.1.5.2.7,3,4.8,6.5,8.2,10.8,2.4,3.2-2.6,3.5-6.8,4.2-10.6-.1-.1-.3-.3-.4-.5-.2-.3-.2-.6-.2-1,0-.2.2-.4.3-.5.2-.2.6-.2.8-.2.3.1.6.3.7.6v.1c.2.2.4.4.7.5h0c.9.8,1.8,1.6,2.7,2.4,4.4,4.1,8.3,8.7,12.9,12.6,2.5,2.6,5.4,4.9,8.2,7.3,3.9,4.1,7.7,8.2,11.9,12,1.9,1.6,3.5,3.5,5.5,4.9,1.2,1,2,2.2,3.4,3,.6.4.6,1,.2,1.4-.3.3-.7.5-1.2.2-.8-.5-1.6-1.2-2.3-1.9-.9,1.4,1.7,2.4,2.5,3.4,10.6,9.5,24.4,15.4,38.7,16h3.7c0,.9.9,1.1,1.6,1,9.9.3,18.7-4.6,27.5-8.5,3.2-1.5,6.3-2.9,9.5-4.4h.2c.8,0,1.8-.7,2.5-.9,2-.8,4.1-1.6,6.3-2.4,2.7-.9,5.3-1.9,7.9-2.8.3-.1.6-.2.9-.3.6-.2,1.3-.5,1.9-.7.5-.2,1-.4,1.5-.6,1.2-.4,2.4-.9,3.6-1.3.3-.1.6-.2.9-.3s.6-.2.9-.3c3-1,6-1.9,9-2.7.6-.2,1.2-.3,1.8-.4-.4.9-.9,1.7-1.2,2.6,0,.1-.1.2-.1.3v.1c0,.1-.1.2-.1.3-.1.2-.1.4-.2.6v.5c-.1.2-.1.4-.1.6v.7c.3,4.3,1.3,9.8,6.5,10.1.6.1,1.2.2,1.9.2h0Z"/>
      <path class="cls-5" d="m141.84,123.15c.9,1,.9,2.4.8,3.7-.1.6-.1,1.3-.7,1.5-.7,4.6-2.8,8.9-5.8,12.4-1.8,1.9-3,5.8-6.3,5.1-1.3-.4-1.8-1.6-1.9-2.8-.4-1.7-.3-3.3.1-5,.4-1.4.4-3,1.2-4.3,1.3-2.6,2.6-5.3,4.6-7.5,1.9-1.8,5.6-6.1,8-3.1h0Z"/>
      <path class="cls-1" d="m142.64,126.85c.1-1.3.1-2.7-.8-3.7-2.5-3-6.2,1.3-8,3.1-2,2.2-3.2,4.9-4.6,7.5-.8,1.3-.8,2.8-1.2,4.3-.4,1.7-.5,3.3-.1,5,.1,1.2.6,2.5,1.9,2.8,3.3.7,4.5-3.2,6.3-5.1,3-3.5,5.1-7.8,5.8-12.4.7-.2.7-1,.7-1.5h0Zm2.6-8.5c5.2,8.2.5,18.1-3.9,25.6-1.2,1.7-3,3-4.6,4.4-1.8,1.5-3.5,3.1-5.9,3.3-7.3.3-9.7-9.1-7.4-14.8.5-1.6,1-3,1.3-4.7.9-2.9,2.8-5.2,4.3-7.8,1-1.7,2.8-3.1,4.4-4.4,2.9-2.5,7.1-3.9,10.6-1.9.3.5.8.6,1.2.3h0Z"/>
      <path class="cls-1" d="m126.84,111.15c-.1.2-.1.4,0,.6-.2.7-.6,1.2-.9,1.8-6.6-3.5-12.9-7.6-19.1-11.7-.7-.5-1.4-.1-1.5.5q-.1.1-.1.2c-.6,1.9-2.3,3.2-3.2,5-1.7,2.4-2.2,5.4-3.7,8-.1.4-.5.8-.8,1.2-.1,0-.2,0-.3.1-1.2.3-.7,2.1.5,1.9.2.1.5,0,.7-.1,5.4-.8,10.9.8,15.1,4.1.4.4.8.8,1.1,1.2,1.1,1.3,2.1,2.9,2.2,4.7.1,1.1.4,2.3.3,3.4-.1.9-.7,1.5-1,2.3-.8.9-1.1,1.9-1.5,3-.7,1.3-1.5,2.5-2.7,3.5-1.2.8-2.4,1.7-3.6,2.4-.6.4-1.8.7-2.1,1.4-3,.7-6.3,1.4-9.4,1-1.3-.5-2.7-.6-4.1-1-1.4-.6-2.6-1.2-4-1.9-2.3-1.4-4.2-3.6-5.7-5.9-.5-1.1-.4-2.1-.3-3.3,0-1.3-.2-2.5-.2-3.9.1-1.3,1-2.3,1-3.6,1.5.3,2.9.7,4.3,1.1-1.1,3.5-.5,7.6,1.8,10.5,2.2,2,5.4,3.2,8.4,3.3h-.1c2,.2,3.8-.6,5.6-1.1,3.1-.9,5.6-3,7.7-5.4,2.7-2.3,1.3-6.9-1.4-8.7-3.8-1.9-8.2-2.4-12.3-2.9-2.8-.5-7.6.2-9.5-2.2,3.2-6.5,6.6-12.8,10.7-18.7,1.8-2.7,3.2-5.6,5-8.3,7.8,5.9,15.5,11.6,23.1,17.5h0Z"/>
      <path class="cls-3" d="m346.84,88.15c1.2.1,1.2,2-.1,1.9h-.5l-.1.1c-2.6,2.6-5.2,5.3-7.6,8.1-2.7,3.1-5.2,6.3-7.4,9.8-.9,1.5-1.9,3-2.8,4.4-2.7,4-5.5,8-8,12.1-2.5,5.1-5,10.2-7.5,15.3-.3.8-.6,1.5-.9,2.2-.7,1.4-1.3,2.9-2,4.3q-.1.1-.2.1c-3.1,6.2-5.9,12.6-8.1,19.2-2,4.7-3,9.7-4.9,14.5-6,14.5-9.4,29.9-14.7,44.6-1.5,5.8-2.4,11.7-3.4,17.6-.2,1.8-.7,3.5-.9,5.2h0c-.1.1-.1.3-.1.5-.2.8-1,1.4-2,1.1-.1,0-.2,0-.3-.1q-.1,0-.2-.1c-.1,0-.2-.1-.3-.1-.4-.2-.9-.4-1.3-.6-.7-.5-1-1.1-.3-1.7,0-.2,0-.4.1-.5.2-1.1.4-2.2.6-3.3.5-2.8.2-5.7.9-8.5.4-1.5.7-2.9.9-4.4.3-1.8.5-3.5.7-5.3.6-2.9,1.2-5.7,1.7-8.6,1.2-6.5,2.2-13,3.3-19.4.4-2.6.9-5.2,1.3-7.9.7-4.7,1.8-9.3,3.1-13.8,2.8-9.4,6.8-18.4,10.3-27.5.3-.8.6-1.6.9-2.4,0-.2.1-.5.1-.8h0c.1-.6.4-1.2.6-1.8q.2-.4,0,0c.4-1,.8-1.9.9-2.5.4-1.3.8-2.7,1.3-4,1.4-4.6,3-9.2,5-13.6.1-.1.1-.3.2-.4,1.4-3.2,2.9-6.5,4.4-9.7,2.2-4.5,4.4-9,6.5-13.6.3-.6.6-1.3,1-1.9.9-1.9,1.8-3.8,3-5.5.3-.5.6-.9,1-1.4v-.1c-.2-.5.2-.9.9-1.2.2-.1.5-.2.8-.3s.7-.2,1.1-.2c.5-.1,1.2-.2,1.8-.2,1-.1,2.1-.2,3.3-.2h1.9c5.6-.1,11.9.3,14.5.5.3-.2.8-.1,1.1.1h.4Z"/>
      <path class="cls-3" d="m327.84,112.35c-1.4-1,1.1-2.9,1.5-4,2-2.7,3.6-5.7,5.6-8.3.7-.8,1.3-1.8,2.3-2.2,1.1-.4,1.8,1.2.8,1.8h0c-3,2.8-4.7,6.8-7.2,10-.8.8-1.5,3.4-3,2.7h0Z"/>
      <path class="cls-3" d="m45.64,187.65c-1.3-.1-.9-1.7-.5-2.5.6-1.7.9-3.4,1.2-5.2.2-.8.2-1.7.8-2.4.6-.5,1.4-.3,1.6.4.1.3.1.6-.1.9-.6,2.1-.7,4.3-1.5,6.4-.5.8-.2,2.4-1.5,2.4h0Z"/>
      <path class="cls-3" d="m44.84,186.95c-.3-.4-.3-.9,0-1.3.7-.7,1.9-.2,2.8-.3,6.1-.5,12.2.3,18.3-.2,7.9-.2,15.4-.4,23.2-1.6,7.8-1,15.7-1.8,23.3-3.5,1.2,0,3-1.4,3.7,0,.5,1.8-3.6,1.8-4.8,2.2-5.2,1.2-10.3,1.9-15.6,2.5-6.1.6-12.1,1.6-18.2,2.1-6.2.1-12.4.5-18.6.5-3.2-.1-6.4-.4-9.5,0-1.2.1-2.4,0-3.6,0-.4,0-.7-.1-1-.4h0Z"/>
      <path class="cls-3" d="m105.24,182.05c.3.5.2,1.2-.4,1.4-.1,0-.2.1-.3.1-.6.1-1.2.2-1.7.3-4.1.9-8.2,1.9-12.4,2.3-.5,0-1,.2-1.5.3h-.3c-.8,0-1.6.1-2.4.2-.2,0-.3-.1-.5-.1-.2-.1-.4-.3-.4-.6-.1-.3,0-.5.1-.8.1-.2.3-.4.6-.5,1.5.1,2.8-.3,4.2-.5,4.8-.5,9.4-1.9,14.1-2.7.4.1.7.3.9.6h0Z"/>
      <path class="cls-3" d="m150.74,177.45c.4.2.6.5.6,1-.2,1-1.3,1.1-2.6,1-1-.1-1.9-.4-2.5-.4h-.8c-3.9,0-7.8.5-11.6,1.2-1.4.1-2.8.2-4.2.4-.6.1-1.1.2-1.7.3-2.7.2-5.4.6-8,1.2-6.5,1.1-13.1,1.3-19.5,2.7-1.9.3-3.8.6-5.7,1-.6.1-1.3.2-2,.3-.8.1-1.6.3-2.4.4-.5,0-1,.1-1.5.1h-.1c-.2-.1-.3-.3-.4-.5v-.4c0-.2.1-.4.2-.5.6-.7,2.4-.5,3.2-.7,2.2-.3,4.4-.9,6.7-1.1,2.2-.5,4.5-.8,6.8-1.1,1.2-.2,2.4-.3,3.6-.5,1.1-.1,2.2-.2,3.2-.4,1.3-.1,2.7-.3,4-.5l2.4-.3c3.9-1,7.9-1.1,11.8-1.6h0c.9-.1,1.8-.2,2.7-.4-4.8,0-9.6.4-14.3,1-.9.1-1.8.2-2.7.4-2,.3-3.9.5-5.9.8-1,.1-2,.3-3,.4-1.9.2-3.8.4-5.8.5-2.8.2-5.6.4-8.4.6-4,.2-8,.5-12,.7-.7,0-1.1-.5-1-1.1,0-.3.2-.7.6-.8h1c3.6-.2,7.3-.4,10.9-.6,3-.2,6-.4,9-.6,1.6-.1,3.3-.3,4.9-.5l.9-.1c.8-.1,1.6-.2,2.4-.4,2.8-.4,5.6-.8,8.4-1.1,7.1-.9,14.2-1.4,21.4-1,3.9-.1,7.7-.2,11.4.6h0Z"/>
      <path class="cls-3" d="m47.14,186.25c-1-.5-.4-1.6-.1-2.4.2-1.4,0-2.6.2-3.9-.4-1,.5-1.7,1.5-1.4,1.8.1,3.7.2,5.6.5,8.5.8,16.9,2.1,25.4,1.8,13-1.9,26.2-2.1,39.3-2.8,4.8-.2,9.7-.6,14.5-.8,1.6-.1,3.2-.2,4.9-.3.3,0,.6.2.8.4.5.7-.1,1.6-.9,1.6-4.8.4-9.8.4-14.7,1-4.9,1.1-9.9.9-14.9,1.3.7.5.4,1.6-.4,1.7-2.6.5-5.3.7-7.9,1-7.2.7-14.4,1.2-21.6,1.2-6.4,1.7-13.2.8-19.8,1h-7.2c-.5,0-.9-.5-.9-1-.8.4-1.6,1.3-2.5.7-.5.5-.9.6-1.3.4h0Z"/>
      <path class="cls-5" d="m70.94,129.15c-2-.4,1.6-7.3,2-8.7,1.2-3,1.9-6.2,3.2-9.2,3.4-9,7.4-17.7,11.3-26.5,1.3-3.1,3-6,3.8-9.3-.2-1-.4-2.1.2-3,.7-.9,2.1.1,1.6,1-.1.4-.1.8,0,1.2.4,1.3-.4,2.7-.8,3.9-1.7,4-3.6,7.8-5.2,11.8-4.1,9.2-8.3,18.3-11.2,27.9-.8,2.6-2,5.1-2.9,7.6-.6,1.2-.3,3.6-2,3.3h0Z"/>
      <path class="cls-5" d="m75.64,120.25c-.5-.2-.8-.7-.6-1.2.6-2.2,1.2-4.4,1.8-6.6,1.3-4.5,3.6-8.7,5.2-13,.5-1.4,1-2.8,1.4-4.2.2-.5.7-.8,1.2-.6s.8.7.6,1.2c-.7,2.1-1.4,4.2-2.2,6.2-1.6,4.1-3.6,8-4.7,12.2-.5,1.8-1,3.6-1.5,5.4-.1.5-.7.8-1.2.6h0Z"/>
      <path class="cls-5" d="m64.34,146.35c-1.3-.3-.6-1.9-.5-2.8.2-.7.2-1.7.8-2.2.8-2.2.9-4.9,2.2-6.8.8-1.6,4.3-13.6,6.3-12,3.3-8.6,7.5-16.9,11.1-25.3.7-1.1,2.3,0,1.6,1-3.7,9.1-8.5,17.8-11.6,27.2-1.1,4.4-3.4,8.6-5,12.8-.1.9-1.2,1.5-1.8.6-.6,1.8-1.1,3.7-1.8,5.6-.2.8-.2,2.1-1.3,1.9Z"/>
      <path class="cls-5" d="m71.24,165.85c-1.5-.4-.4-2.2-.2-3.1,0-6-1.2-12.8-6.3-16.5-1.4.1-1.2-2.3.2-2.1,1.8.8,3.2,2.5,4.4,4,2.8,4.2,3.5,9.5,3.7,14.4,0,.8-.4,1.5-.6,2.3-.1.6-.6,1.1-1.2,1h0Z"/>
      <path class="cls-5" d="m68.64,163.55c0-1,.4-1.9.5-2.9,0-.7.1-1.7,1-1.7,1.3.1.9,1.8.8,2.7-.2.8-.2,1.6-.6,2.4-.5.7-1.7.3-1.7-.5Z"/>
      <path class="cls-5" d="m70.64,166.55c-.5,0-.9-.5-.9-1,.2-1.4,2.2-1.2,3.3-1.4,4.6.3,9.2-1,13.8-.7,12.8.6,25.4-3.2,38.2-2.1.7-.1,1.6.5,1.3,1.3-.2.5-.7.8-1.2.6-1.2,0-2.5-.1-3.7-.1-5.7-.4-11.1.8-16.7,1-4.5.8-9.1,1.2-13.8,1.3-4.6,0-9.2-.4-13.8.6-2.1.3-4.4-.4-6.5.5h0Z"/>
      <path class="cls-5" d="m122.24,162.65c0-1.6,2.6-1.1,3.7-1.4,2.5-.1,4.9-.2,7.3-.3,1.3.1,7.2-.7,7,1.1,0,.5-.5,1-1,.9-3.9-.4-7.7,0-11.6.1-1.5.1-3,.2-4.5.4-.5.1-.9-.3-.9-.8h0Z"/>
      <path class="cls-5" d="m183.44,170.75c1.8.9,12.1,5.8,11.2,8.2,0,.1-.1.2-.2.3-.4.4-1,.3-1.4-.1-.8-.8-1.4-1.5-2.2-2-4.7-3-9.8-5.7-15-7.7-4.1-1.8-8.2-3.6-12.5-4.7-3.4-.8-7-1.8-10.4-2.1-4.2-.3-8.6-.2-12.8-.3-.9,0-1.8,0-2.7.1-.5.2-1-.1-1.2-.6,0-.1-.1-.1-.1-.2,0-.4.2-.9.6-1,3.3-.5,6.6-.1,10-.1,4.3-.1,8.7.2,12.9,1.4,5.6,1.1,10.9,3,16,5.4,2.7,1.1,5.5,1.8,7.8,3.4h0Z"/>
      <path class="cls-5" d="m228.14,205.05c-2.5-1.8-4.7-4-7.2-5.9s-5.4-3.4-7.7-5.5c-6.6-5.1-13-10.8-20.7-14.2-1.3-.1-1.3-2,0-1.9,9,3.4,16.2,10.4,23.7,16.2,4.7,2.7,8.7,6.4,12.9,9.7,1.1.7.1,2.3-1,1.6Z"/>
      <path class="cls-5" d="m231.04,207.85c-6.5-3.8-12.4-8.3-17.9-13.4-.4-.2-.6-.8-.4-1.2.4-.8,1.3-.7,1.8-.1,4,3.5,7.8,7.1,12.4,9.8,1.7,1.1,3.4,2.2,5.2,3.3.4.3.6.9.3,1.3-.4.5-1,.6-1.4.3h0Z"/>
      <path class="cls-5" d="m243.14,218.55c-2-.9-3.5-3-5.1-4.4-1.5-1.2-3-2.1-4.4-3.4-1.3-1-2.6-2-3.9-2.8-.5-.1-.8-.7-.7-1.2.3-1.1,1.7-.7,2.3-.1,1.5,1.1,3,2.1,4.3,3.3,2.2,1.7,4.4,3.2,6.3,5.2-.4-1.7-.1-3.5.1-5.2,0-2.9,1.4-5.8,3.3-7.8,2.9-4.5,6.4-6.1,11.7-5.5,1.2.2,1,2-.2,1.9-5.6-.5-7.3,1.1-10.5,5.3-2.2,2.2-2.4,5.2-2.7,8-.2,1.3,0,2.5.3,3.8.3,1,.9,2.9-.8,2.9h0Z"/>
      <path class="cls-5" d="m256.14,200.65c-1.2-.5-.3-1.9-.2-2.9,0-2.2.1-4.3.6-6.4,0-2.7,1-5.3,1.4-8,1.8-8.4,1.5-17.5,5.1-25.5,2.8-9.2,3.8-19,7.6-27.9,2.1-4.9,3.8-10.6,8.1-14.1.7-.9,2.2,0,1.6,1-.2.3-.5.6-.8.8-2.8,2.6-4.5,6.3-5.9,9.9-2.9,6.7-4.9,13.7-6.3,20.9-.7,3.1-1.3,6.4-2.3,9.4-1.5,3.2-2.3,6.6-2.9,10-1,5-1.1,10-2.2,15-.3,2.1-.9,4.1-1.3,6.2-.1,1.6-.3,3.4-.7,4.9-.2,1.6.6,7.2-1.8,6.7h0Z"/>
      <path class="cls-5" d="m280.04,117.15c-1.2-.9-2.9-.3-4.3-.9-1.3-.4-2.5-1.2-3.3-2.2-1-1.2-1.4-2.8-1.9-4.3-.3-.8-1.1-2,0-2.5,1.4-.5,1.6,1.5,2,2.4.9,3.9,3.2,5.1,7,5.2.8.2,2.1.6,1.9,1.7-.2.6-.9.9-1.4.6h0Z"/>
      <path class="cls-5" d="m271.04,110.35c-1.4-.3-.5-2-.7-3-.2-2-.7-4.4.7-6.1.4-.8,1-1.4,1.5-2.1.3-.4.9-.6,1.3-.3,1.2.8-.2,1.9-.7,2.7-1.5,1.5-1.1,3.6-.9,5.5,0,1,.5,3.3-1.2,3.3Z"/>
      <path class="cls-5" d="m196.34,127.55c-2.7-.3-5.4-.4-8.1-.6-.5-.1-1-.5-.9-1,0-.5.5-1,1-.9,1.5.2,2.9.2,4.4.3,2.9.1,5.5.8,8.2.4,2.1-.4,3.9-1.2,5.9-1.7,3.8-1.5,7.7-2.3,11.5-3.7,4.8-1.9,9.2-4.5,13.8-6.9,4.4-2.1,9.1-3.6,13.6-5.2,6.1-2.7,12.3-5.3,18.8-7,2.6-.9,5.4-1.1,8.1-1.1.5.1.9.6.8,1.1-.2,1.1-1.4.7-2.2.9-2.9,0-5.6.8-8.3,1.6-3.7.8-7.1,2.5-10.6,3.8-6.3,2.6-12.8,4.8-19.1,7.5-4.7,2.5-9.3,5.2-14.2,7.1-2.6,1.1-5.3,1.6-8,2.5-4.9,1.4-9.7,3.9-14.7,2.9h0Z"/>
      <path class="cls-5" d="m194.04,126.65c-3.5,0-7-.5-10.5-.8-1.3-.1-2.6-.3-3.9-.4-.5-.1-.9-.6-.8-1.1.2-1.2,1.6-.7,2.4-.6,2.2.2,4.4.4,6.5.6,3.4.4,6.8.6,10.2.2,1.2-.1,2.3-.4,3.5-.2,1.2.2.9,2.1-.3,1.9-2.3,0-4.7.5-7.1.4h0Z"/>
      <path class="cls-5" d="m196.64,126.65c-2.9-.2-5.8.1-8.7-.2-4-.3-7.9-1.4-11.9-1.9-1.1-.2-1-1.8.1-1.9.6,0,1.4-.2,1.8.2,5.1.8,10.2,2.1,15.4,1.8,1.2.1,4.5-.7,4.4,1.2,0,.5-.6.9-1.1.8h0Z"/>
      <path class="cls-5" d="m188.74,125.75c-6.5-1-13.2-1.6-19.3-4.4-1.5-1.2,1.3-2.8,2-1.3,4.4,1.6,8.9,2.6,13.5,3.2,1.2.3,5.2,0,5,1.7-.2.5-.7.9-1.2.8h0Z"/>
      <path class="cls-5" d="m182.94,124.05c-3.6-.8-7.3-1.4-10.9-2.4-3.2-1.3-6.3-2.7-9.5-3.9-.5-.2-.7-.8-.5-1.3.3-.6.9-.6,1.5-.4,4.9,1.8,9.6,4.3,14.8,5,1.6.4,3.3.7,4.9,1,.5.1.9.6.8,1.1,0,.6-.6,1-1.1.9h0Z"/>
      <path class="cls-5" d="m168.74,119.45s-.1,0,0,0c-.8-.5-1.8-.5-2.3-1.2-7.2-3-13.1-8.1-18.4-13.7-1.1-1-2.3-1.9-3.5-2.8-.3-.2-.5-.7-.3-1.1-3.4-3.1-6.6-6.5-10.3-9.4-1.2-1-2.4-2.1-3.7-3.1-.5-.3-1-.9-.7-1.5-2.3-2-4.9-3.5-7.4-5.2-2.2-1.7-4.2-3.6-6.7-4.9-.5-.3-.6-.8-.4-1.3.2-.4.9-.6,1.3-.4,2.8,1.4,5.1,3.7,7.5,5.5,5.3,3.1,9.8,7.3,14.5,11.1,1.4,1.2,2.9,2.4,4.3,3.6.6.4,1.4,1.2.9,2,1.4,1.2,2.8,2.2,4,3.5.2.2.2.5.2.8.7.6,1.4,1.2,2.2,1.6,3.5,1.4,6.2,4.4,9.2,6.6.8.7-.2,2.1-1.1,1.5s-1.7-1.2-2.6-1.7c2.9,2.5,6.1,4.5,9.5,6.2,1.6.8,3.1,1.5,4.7,2.3.5.2.6.9.4,1.3-.3.4-.9.5-1.3.3h0Z"/>
      <path class="cls-6" d="m274.54,248.25c.1-2.3.7-4.6,1-7,.4-5.6,1.5-11.2,2.3-16.8,1.8-8.3,2.9-16.6,4.6-24.8,4.8-16.3,9.2-32.8,15.2-48.7,2.4-7.4,5.6-14.4,8.6-21.6,2.7-6.4,5.2-12.9,8.3-19.2,3.2-6.1,6.8-12,10.7-17.7,1.3-1.8,2.7-3.4,4.1-5.1.3-.4.9-.6,1.3-.3,1.5,1-1.3,3.1-1.9,4.1-1.8,2.2-3.4,4.6-5,7.1-2.6,4.2-5.2,8.4-7.5,12.8-3.8,7.7-6.7,15.8-10.1,23.6-6.6,15.1-11.7,30.9-16.4,46.7-1.8,7.7-5,15-6.2,22.8-2,12.1-4.8,24-6,36.1-.3,2.7-.9,5.3-1.2,7.9-.2,1.1-1.6,1.1-1.8.1h0Z"/>
      <path class="cls-6" d="m274.34,249.05c-1.4-.4-.4-3.4-.5-4.5,1-4.7,1.4-9.6,1.9-14.4.1-2.3-.2-4.7.6-6.9,1-3.8,1.7-7.5,2.8-11.3.8-8.1,2.9-16,4.8-24,1.4-4.9,1.5-9.3,3-14.3.2-1.2,2.1-1,1.9.3-1,3.7-1.7,7.4-2.2,11.1-1.2,4.8-2.2,9.7-3.5,14.4-.8,4.3-1.5,8.7-2.1,13-1,3.7-1.8,7.5-2.8,11.3-.9,2.6-.2,5.4-.7,8.1-.2,5.1-1.4,10.2-1.9,15.3.4.9-.4,2.2-1.3,1.9h0Z"/>
      <path class="cls-6" d="m287.14,175.75c-.3-.4-.2-.9-.2-1.4.4-2.6,1.4-5,2.4-7.4,1.6-4.1,3.4-8.2,4.7-12.5,1.7-6.8,4.3-13.5,6.4-20,1.4-4.3,3.6-8.2,5.2-12.4,3.1-7.6,6.1-15.4,10.1-22.6,2.1-3.9,3.8-8,6.7-11.4,1.6-.9,3.5-.1,5.2-.7.9-.2,2.1.2,1.7,1.3-.3.8-1.2.4-1.9.7-1.3.3-2.7,0-3.9.3-2.3,3.1-4,6.6-5.7,10-3.8,7-6.8,14.2-9.7,21.6-1.7,4.6-4.1,8.9-5.7,13.5-1.9,6-4.2,11.9-5.8,17.9-1.7,7.5-5.8,14.3-7.6,21.7-.2.5.1,1.2-.4,1.5-.6.4-1.2.3-1.5-.1h0Z"/>
      <path class="cls-6" d="m328.84,88.15c.2.2.3.5.2.8,0,.1,0,.2-.1.3-1.1,1-2.2,2.1-3.1,3.3-4.1,5.8-7.4,12.2-11.2,18.2,1.4,1-.6,2.6-1,3.8-1.7,3.2-3.6,6.5-4.9,9.8,2.6.2-.5,3.6-.9,4.8-1.7,3.1-3.1,6.2-4.7,9.3-.1.3-.4.5-.7.6-.2.5-.4.9-.7,1.4.2.9-.5,1.8-.8,2.7-.9,2.1-1.8,4.2-2.7,6.3.1.2.1.4,0,.6-.9,2.7-2,5.4-3,8.1-1.5,3.8-2.6,7.7-3.8,11.5-1.1,4-2.5,7.9-3.5,11.9-.4,1.8-.8,3.6-1.2,5.3-.1.5-.4,1-.9,1.1-.8,2.9-1.5,5.8-2.2,8.7-.3.7-.4,1.9-.8,2.6-.2.2-.4.4-.7.5h-.4c-.5-.2-.7-.6-.7-1,0-.2.1-.5.2-.8.2-.5.3-.9.4-1.3.8-3,1.5-6,2.3-8.9,1-4,1.7-8,2.8-11.9.3-.9.6-1.9.9-2.8h0c.2-.4.3-.9.5-1.3.9-2,1.2-4.1,1.9-6.2,1-2.8,2.1-5.6,3.4-8.3-.1-1.9,1-3.7,1.7-5.5-.3-.9.2-2,.4-2.9.6-1.7,1.3-3.3,2.2-4.9,1.2-2.5,2.2-5.1,3.6-7.6-.5-.7-.1-1.6.1-2.3.9-2.9,2.1-5.8,3.6-8.4-.2-.5-.1-1,.2-1.4,1.9-4.7,4.1-9.2,6.2-13.8-.1-1,1.1-2.4,1.4-3.3,1.7-3.4,3.3-7,5.3-10.2.5-2,2.1-3.7,3-5.6.6-.8.9-2,1.8-2.4.2-.3.5-.7.7-1,0-.1.1-.2.2-.2.4-.4.9-.3,1.3,0,.2.2.4.5.3.9.3,0,.6.1.8.3h0c.3-.3.6-.6,1-.8.8-.5,1.3-.4,1.6,0h0Z"/>
      <path class="cls-6" d="m290.84,250.05c-.3.6-.7,1.2-1.1,1.9-.3.7-1.1,1-1.8,1,.1-.2.2-.4.2-.7.2-.1.5-.3.7-.4.8-.5,1.4-1.1,2-1.8Z"/>
      <path class="cls-6" d="m331.74,171.85c-2.1,4.3-4.3,8.5-6.5,12.8-1.2,2.8-2.7,5.3-4.2,7.8,3.5-6.8,7-13.7,10.7-20.6h0Z"/>
      <path class="cls-6" d="m356.94,99.95c.1.2.2.4.2.6-.8.1-1.6.9-2,1.5-2.1,2.3-3.7,4.8-5.5,7.4-1.9,2.4-3.6,5-5,7.8-1.3,2.2-3,4.2-4.4,6.4-4.4,8.4-9.6,16.5-14.3,24.8-5.1,8.2-9.3,16.8-12.9,25.8-1.7,3.1-2.8,6.4-4.1,9.6-1.2,2.1-1.8,4.8-2.7,7.1-1.2,2.3-2,4.8-2.8,7.3-1.3,3.1-2.1,6.1-3.3,9.3-1.2,2.3-1.9,4.8-2.8,7.2-2.1,4.6-3.8,9.4-5.5,14.2-.1,0-.2.1-.3.1-.9.6-1,1.7-1.4,2.7-1.7,3.7-2.7,7.7-3.7,11.6-.3,1.4-.4,2.8-.9,4.1s-1.1,2.9-.6,4.2c.1.3.3.5.5.7,0,.2.1.4.2.5-1.5-.2-2.9-.7-4.2-1.3-1.3-.6-3-1.1-3.8-2.5-.1-.3-.1-.5,0-.8v-.2c0-.2,0-.3.1-.5.1-.3.4-.6.8-.7h0c.5-3.8.7-7.7,1.6-11.4.8-6.1,3-12,5-17.8,1.5-4.5,2.5-9.1,3.9-13.6,2-5.5,3.7-11,5.6-16.5,1.9-6.3,4.4-12.5,6.7-18.6,2.3-7.7,5.4-15.1,8.7-22.4.6-1.4,1.3-2.9,2-4.3.6-1.3,1.2-2.7,1.9-4,4.7-8.5,10.1-16.6,15.7-24.5,4.2-6.3,8.4-12.7,13.3-18.5-.6-.6-.1-1.9.9-1.6h.3c.4-.3.9-.4,1.3-.1,2.8-.1,5.6.2,8.2,1,.5.1.9.4,1.1.8.9,1.3,1.5,2.9,2.2,4.6h0Z"/>
      <path class="cls-6" d="m360.44,107.35c-.2-.2-.4-.3-.6-.4-.3-1.1-.7-2.2-1.1-3.2.5,1.2,1.1,2.5,1.7,3.6Z"/>
      <path class="cls-6" d="m361.84,113.15h0c-.1.2-.2.4-.3.6-1.6,3.2-3.3,6.2-5,9.3.3-.6.5-1.2.8-1.8,1.5-2.7,3-5.4,4.5-8.1h0Z"/>
      <path class="cls-6" d="m362.14,110.15c.4.4.6,1,.2,1.4h0c0,.1,0,.2-.1.3h0c0,.1,0,.2-.1.3v-.2c0-1.1-.4-2-.9-3-.1-.1-.1-.3-.2-.4.5.6.9,1.1,1.1,1.6h0Z"/>
      <path class="cls-6" d="m149.44,177.45c1.2,0,1.4,1.9.1,1.9h-.7c-1.1,0-2.2-.2-3.3-.4-.9-.1-1.7-.2-2.6-.2-1.3,0-2.7,0-4-.1-.4,0-.9-.1-1.3-.1-2.4-.1-4.8,0-7.2.1h0c-1.7.1-3.3.1-5,.1-2.2.3-4.4.4-6.7.4-.9,0-1.8.1-2.6.1h-.3c-.8.1-1.7.2-2.5.3-4,.5-8,1-12,1.6-.7.1-1.3.2-2,.3-9.4,1.1-18.8,2-28.2,2-6.7-.2-13.5.1-20-1.1-.8-.2-2.8-.2-4-.6-1-.3-1.6-.8-.9-1.9.2-.1.4-.2.7-.2h.2c.1,0,.2.1.2.1,1.3.4,2.7.4,4,.6,3.9.8,8,.7,11.9,1,5.5-.2,11.1.1,16.5-.2.9,0,1.8-.1,2.6-.2,2.7-.4,5.6-.3,8.2-.6,2.7-.4,5.7-.8,8.3-1,.8-.1,1.6-.2,2.4-.4,1.6-.2,3.2-.5,4.8-.7h.3c3.8-.5,7.6-1,11.5-1.3,1.8-.1,3.5-.2,5.3-.3,2.8-.5,5.7-.2,8.6-.4,3.3-.4,6.6.1,9.8.1,2.8.3,5.4,1.1,7.9,1.1h0Z"/>
      <path class="cls-6" d="m106.34,179.05c0,.4-.2.7-.7.9-3.2.9-6.5,1.2-9.7,1.6-1,.2-2,.4-3,.5-2.2.3-4.3.4-6.5.4-5.3.1-10.6.7-15.8.4-1.7-.3-3.3-.4-5-.5-1.8-.2-3.5-.6-5.3-.6-4.1.1-8.1-.9-12.1-1.3-.4.2-.8.1-1-.1-.1-.1-.2-.2-.2-.3-.2-.3-.2-.6,0-.9.5-.8,1.5-.6,2.4-.4h0c.3.1.7.1.9.1,3.4.5,6.7,1.1,10.1,1.1h1.2c.2,0,.4,0,.7.1,1,.1,1.9.3,2.8.4,1.7.2,3.6.2,5.2.5,1.9.3,3.7.2,5.5.1h0c1-.1,1.9-.1,2.9-.1.8,0,1.6-.1,2.5-.1h.5c3.6-.1,7.3-.1,10.9-.6.6-.1,1.2-.2,1.8-.3,2-.3,4-.5,6-.8,1.6-.2,3.2-.5,4.8-1,.6-.2,1.1.2,1.2.7h0c-.2,0-.1.1-.1.2h0Z"/>
      <path class="cls-6" d="m146.34,179.55c1.2-.4,1.8,1.5.6,1.8-.9.2-1.7.5-2.6.7-.1.1-.3.1-.4.1h-.2c-4.5,1.1-9.1,2-13.5,3.6-3.4,1-6.9,1.3-10.4,2-4.9,1.4-10,2-14.9,3.5-8.5,2.4-17,4.5-25.6,6-1.3.1-4.4,2-4.9.2v-.5c-1.1.2-2.1.5-3.2.7-4.7,1.4-9.3,3.1-14.3,2.6-1.7.1-3.7.1-3.7-2.2-.2-1.8,1-3.6,1.2-5.3.3-1.7.3-3.3.9-4.8.3-.4.9-.4,1.3-.1.4-.2.9-.1,1.2.2,1.2.1,2.4.2,3.4.2h1.8c.7,0,1.3-.1,2-.1h5.1c.4,0,.7,0,1.1-.1,1.5-.2,3-.4,4.6-.5.8,0,1.7-.1,2.5-.1s1.5-.1,2.2-.1c1.7-.2,3.3-.5,4.9-.6.3,0,.5,0,.8-.1.8-.1,1.6-.1,2.4-.2h.3c.5,0,1-.1,1.5-.1.8-.1,1.6-.2,2.4-.4.7-.1,1.3-.2,2-.3h.5c1.8-.2,3.6-.3,5.4-.5.5-.1.9-.1,1.4-.2.5-.1.9-.2,1.4-.2.5-.1,1-.1,1.5-.2.5,0,1-.1,1.6-.1.9,0,1.7-.1,2.6-.1,1,0,1.9,0,2.9-.1.4,0,.7-.1,1.1-.1,2.1-.6,4.2-1.3,6.4-1.7,2.9-.4,5.8-1,8.7-1.5.5-.1,1.1-.2,1.7-.3,1.4-.1,2.8-.3,4.2-.4,2.6-.2,5.2-.3,7.9-.4h0c.5-.1.9.1,1.1.5.3,0,.6,0,.9-.1.5-.2,1.4-.4,2.2-.7h0Z"/>
      <path class="cls-3" d="m321.74,120.55c.7-.5,1.7.2,1.5,1-.1.6-.7,1-1,1.6-.9,1.1-3,6.2-4.6,5.2-1.2-1.1.9-2.8,1.3-3.9.9-1.3,1.8-2.7,2.8-3.9h0Z"/>
      <path class="cls-2" d="m56.54,200.15c-5.1,0-2.2-3.9-1.5-6.7-.3-1.1.5-2.4.5-3.5.8-2.7,7.6-1.8,10-2.1,4.4,0,8.7-.5,13-.9,6.4-.5,12.9-.5,19.3-.8,15.6-2.3,31.2-4.9,46.8-7,1.8-.6,3.1,1.5,1.4,2.5-10.4,3.5-21,6.3-31.7,8.3-7.8,2.1-15.8,3.1-23.7,4.2-4.3.8-8.5,2.1-12.8,3-7.1.5-14.1,2.4-21.3,3h0Z"/>
      <path class="cls-2" d="m361.44,109.05c.4.9.9,1.9.9,3v.2h0c-.1.3-.2.6-.4.9v.1c-1.5,2.7-3,5.4-4.5,8.1-.2.6-.5,1.2-.8,1.8-3.3,7.9-7.2,15.6-11.2,23.3-1.7,3.3-3.2,6.7-5.3,9.8-1.6,2.8-2.7,5.8-4.4,8.5-1.4,2.4-2.7,4.8-4,7.2-3.7,6.8-7.1,13.7-10.7,20.6-2,3.9-4,7.8-6.1,11.7-.9,2.2-2.3,4.1-3.3,6.2-.3.8-.7,1.7-1,2.5h0c-.3.6-.5,1.2-.8,1.8-.6,1.2-1.2,2.4-1.9,3.5-3.2,6.2-6,12.6-9.8,18.4-1.5,2.5-2.4,5.3-4,7.8-1,1.9-1.8,3.9-3.2,5.6-.6.7-1.2,1.3-2,1.8-.2.2-.4.3-.7.4,0,.3-.1.5-.2.7-.5.7-1.8.8-2.3-.1-.1-.1-.1-.3-.2-.5-.2-.2-.4-.4-.5-.7-.5-1.4.2-2.9.6-4.2.5-1.3.6-2.8.9-4.1,1-3.9,2.1-7.9,3.7-11.6.3-1,.4-2.1,1.4-2.7.1-.1.2-.1.3-.1,1.7-4.8,3.4-9.6,5.5-14.2,1-2.4,1.7-4.9,2.8-7.2,1.2-3.2,1.9-6.2,3.3-9.3.8-2.5,1.6-5,2.8-7.3.9-2.3,1.6-5,2.7-7.1,1.3-3.2,2.4-6.5,4.1-9.6,3.6-9,7.8-17.6,12.9-25.8,4.7-8.3,9.8-16.3,14.3-24.8,1.4-2.2,3.1-4.2,4.4-6.4,1.4-2.8,3.1-5.4,5-7.8,1.7-2.5,3.4-5.1,5.5-7.4.5-.6,1.3-1.4,2-1.5.5-.1.9.1,1.2.8.2.5.1.9-.2,1.3v.1c.1.4.3.7.4,1.1h0c.4,1.1.8,2.1,1.1,3.2.2.1.5.2.6.4.3.3.6.8.8,1.2.1.1.2.2.3.4h0Z"/>
      <path class="cls-8" d="m32.54,176.35c-.5-.2-.7-.8-.6-1.2,1.3-3.3,2.5-6.7,3.8-10l6.2-16.3c2.2-5.7,4.3-11.3,6.5-17s4.4-11.5,6.5-17.2c2.2-5.9,4.5-11.8,6.7-17.7,2.2-5.8,4.4-11.6,6.6-17.4,1.1-2.9,2.2-5.8,3.3-8.6.2,0,.4-.1.7-.1h1.5c-1.4,3.8-2.9,7.5-4.3,11.3-2.2,5.8-4.4,11.6-6.6,17.4-2.2,5.8-4.4,11.5-6.6,17.3-2.2,5.8-4.4,11.5-6.6,17.3-2.2,5.7-4.3,11.4-6.5,17.1-2,5.3-4,10.6-6.1,16-1.1,2.9-2.2,5.8-3.3,8.7-.1.4-.5.6-.9.6,0-.1-.1-.1-.3-.2h0Z"/>
      <path class="cls-8" d="m73.84,67.85l.1.1c-.2-.1-.3-.2-.5-.2-.2-.1-.3-.1-.5-.2.7-1.7,1.3-3.4,1.9-5.1,2.2-5.9,4.5-11.7,6.7-17.6,1.9-5.1,3.9-10.2,5.8-15.2.2-.5.8-.7,1.2-.6.5.2.7.8.6,1.2-2.2,5.6-4.3,11.3-6.4,16.9-2.2,5.8-4.4,11.6-6.6,17.5-.5,1.2-.9,2.4-1.4,3.6-.3-.1-.6-.3-.9-.4h0Z"/>
      <path class="cls-8" d="m192.34,113.05c-5.2-.3-10.4-1.8-15.3-3.5-1.3-.6-2.5-1.4-3.7-2.2-.4-.3-.6-.9-.3-1.3.9-1.2,2.1.4,3,.7,2.2,1.5,4.7,2,7.2,2.6,5,1.6,10.6,2.4,15.7,1.1,7.3-2.2,14.5-5,21.5-8.2,7.3-3.9,14.7-7.5,22.6-10.1,10.9-4.3,22.2-7.6,33.7-10.1,4.2-.8,8.2-2.1,12.3-2.9,5.5-.7,10.8-1.9,16.3-2.5,3.7-.3,7.2-1.1,10.8-1.5,3.7-.3,7.4-.3,11.1-.6.6,0,1.4-.1,1.7.4.3.4.2,1.1-.2,1.3-3.6.4-7.3.4-10.9.6-3.1.1-6.2.9-9.3,1.3-8.7,1.1-17.8,2.3-26.3,4.5-4.9,1.2-9.9,2.1-14.7,3.5-6.3,1.6-12.5,3.2-18.5,5.7-6.3,2.3-12.7,4.4-18.8,7.3-7.3,3.8-14.6,7.4-22.4,10.1-4.8,2.1-10,4.3-15.5,3.8h0Z"/>
      <path class="cls-8" d="m173.94,107.85c-8.8-7-16.1-15.6-23.1-24.2-5.7-7.2-10.9-15-17.3-21.5-6.7-7.4-15-13.3-23.2-18.8-6.7-4.1-13.5-8.6-20.7-11.8-.9-.6-3.2-.7-2.5-2.3.8-1.2,2.3.3,3.4.5,5.1,2.2,9.7,5,14.4,7.9,9.2,5.6,18.2,11.7,26.1,19.1,8.8,8.3,15.5,18.4,23.1,27.7,4.6,5.3,8.8,10.8,14.1,15.4,2.2,2.1,4.4,4.4,6.8,6.2.9.7,0,2.5-1.1,1.8h0Z"/>
      <path class="cls-8" d="m272.94,248.85c-1.7-.2-.6-2.7-.7-3.9.7-7,2.1-13.9,3.4-20.9,1.3-7.2,1.9-14.5,3.4-21.6,1.9-8.1,3.6-16.1,5.2-24.3,1.8-7.3,4.9-14.2,6.9-21.4,2.4-6.5,5-12.7,6.7-19.4,1.2-3.9,3-7.6,4.5-11.3,1.3-3.4,2.4-7,4.1-10.3,2.7-4.8,4.4-10,7.1-14.8,2.8-4.7,4.9-9.7,8.1-14.2,2.3-3.4,4.1-7.1,5.6-10.9.1-.4.5-.7.8-.7,1.9.1.6,2.2.2,3.2-1.7,3.7-3.5,7.3-5.9,10.6-4,6.9-8,13.9-11.1,21.3-2.7,5.4-5.3,10.8-7.2,16.5-1.1,2.7-2.4,5.3-3.4,8-1.6,4.1-2.5,8.4-4,12.6-2.2,5.6-4.3,11.2-6,17-2.2,6.1-4.6,12.2-5.6,18.6-1.2,7.2-3.2,14.3-4.6,21.5-1.6,10.8-3.2,21.5-5.3,32.2-.5,3.7-1.1,7.4-1.3,11.2.1.6-.4,1-.9,1h0Z"/>
      <path class="cls-8" d="m272.24,249.15c-5.5-.6-10.8-2-16-3.9-5.6-2.2-10.5-5.7-15.5-9-5.3-3-10-6.8-14.7-10.7-3.4-2.5-6.5-5.3-9.5-8.3-2.4-2.2-5.1-4.2-7.2-6.8-4-4.2-8.7-7.6-12.9-11.5-5.2-3.9-10.8-7.1-16.3-10.4-10.9-6-23.2-9.5-35.5-11.1-8.9-.4-17.9-.2-26.7.8-5.1.5-10.1.2-15.1,1.2-4.6.9-9.2.8-13.8,1.4-2.4.3-4.8.6-7.3.7-.5,0-1-.5-.9-1,.1-1,1-1,1.8-1,5.5-.5,11-1.3,16.4-1.5,4.9-.8,10-1.5,15-1.5,10.2-.9,20.6-1.7,30.8-1,14.6,1.8,29.1,6.4,41.5,14.4,5.1,3.2,10.5,6.2,14.8,10.5,3.5,3.2,7.5,6,10.6,9.6,3.2,3.4,7,6.2,10.2,9.6,3.6,3.2,7.6,5.9,11.2,9.1,3.2,2.7,7,4.6,10.5,7,5.8,4.2,12.1,7.9,19.1,9.5,3.4,1,6.9,1.7,10.5,2,.6.2.9.9.6,1.5-.4.4-1.1.6-1.6.4h0Z"/>
      <path class="cls-8" d="m80.04,181.75c-15,0-29.7-2.1-44.5-4.7-1-.2-1.9-.3-2.9-.5-.5-.1-.8-.7-.7-1.2.4-1.2,1.8-.5,2.7-.4,10.9,1.8,21.9,3.7,33,4.5,5.2-.1,10.4.7,15.7.2.5,0,1,.3,1.1.9,0,1.7-3.3,1-4.4,1.2h0Z"/>
      <path class="cls-8" d="m44.24,188.15c-.5-.1-.9-.6-.8-1.1.7-2.8,1.5-5.5,2.2-8.3,0-.2.1-.4.1-.5.1-.5.6-.9,1.1-.8.5.1.9.6.8,1.1-.7,2.8-1.5,5.6-2.2,8.4,0,.1-.1.3-.1.4-.1.5-.5.8-1,.8.1,0,0,0-.1,0h0Z"/>
      <path class="cls-8" d="m54.34,189.05c-3.4-.2-6.8,0-10.1-.7-1.3-.7-.1-2.7,1.1-1.7,16.5,1,33.2.1,49.7-1.7,9.6-1.1,19-3.3,28.6-4.3,10.4-1,20.8-2.6,31.3-2.5,1,.1,2.6-.4,2.7.9,0,.5-.4,1-.9,1-8.1-.1-16.2.7-24.2,1.6-11.8.9-23.4,3.3-35.1,5-14.4,1.9-28.8,2.3-43.1,2.4h0Z"/>
      <path class="cls-8" d="m53.24,200.65c-.5-.1-.9-.6-.8-1.1.6-3.3,1.2-6.5,1.8-9.8.1-.4.2-.8.2-1.2.1-.5.6-.9,1.1-.8.5.1.9.6.8,1.1,0,.3-.1.5-.2.8-.1.5-.2,1-.3,1.5-.2.9-.3,1.9-.5,2.8-.3,1.7-.6,3.4-1,5.1,0,.1-.1.3-.1.5,0,.1,0,.2-.1.3-.1.5-.5.8-.9.8q.1,0,0,0h0Z"/>
      <path class="cls-8" d="m57.54,201.05c-1.4-.2-2.9-.1-4.2-.4-.7-.1-1-1.1-.5-1.6.2-.2.6-.3.9-.3,1.6.1,3.3.4,4.9.3,9.6-.9,19-2.5,28.4-4.5,14-3.3,28-6.1,42-9.4,10.2-2.8,20.2-7,31-6.5.9.1,2.6-.1,2.5,1.2-.1.5-.5.9-1.1.9-.8-.1-1.5-.2-2.2-.2-11-.2-21.2,4.5-31.7,7-8,2-16.2,3.6-24.3,5.3-15,3.7-30.3,7.1-45.7,8.2h0Z"/>
      <path class="cls-8" d="m348.34,88.95c-4.2-.2-8.4-.8-12.6-1-4.2,0-8.4.4-12.5.9-1.2.4-1.9-1.3-.7-1.8,7.4-1.3,15-1.3,22.4-.3,1.2.3,4.6-.5,4.6,1.3-.2.6-.7,1-1.2.9h0Z"/>
      <path class="cls-8" d="m288.34,255.85c-3.4-1.5-6.8-3.1-10.2-4.5,0,0-.1-.1-.2-.1h-.1c-.1,0-.2-.1-.2-.1h0c-.1,0-.2,0-.2-.1h-.1c-.2-.1-.4-.2-.6-.2h0c-1.7-.6-3.4-1.2-5.1-1.7-1.2-.7-.2-2.4,1-1.7,5.5,1.3,10.4,4.2,15.7,6.3.7.3,1.9.8,1.4,1.8-.2.3-.5.6-.9.6-.3-.2-.4-.2-.5-.3Z"/>
      <path class="cls-8" d="m277.64,251.05h0c-.1,0-.2,0-.2-.1h-.1c-.2-.1-.3-.1-.4-.2-.2-.2-.2-.6-.1-.9,0-.1.1-.2.2-.3,1-9.9,3.5-19.6,6.5-29.2,2.8-9.3,5.6-18.6,8.5-28,6.2-19.3,13.1-38.5,22.4-56.6,6.7-13.4,15.4-25.8,24.3-37.9,2.7-3.4,5.8-6.5,8.7-9.7.3-.6,1.2-1,1.8-.4.9,1.2-1.5,2.7-2.2,3.6-2.4,2.5-4.7,5.1-6.9,7.7-9.6,12.9-18.8,26.3-25.7,40.9-14.1,28.8-22.7,60-31.9,90.6-1,4.8-2.2,9.6-2.9,14.4-.2,1.3-.3,2.6-.5,3.9.1.8-.2,1.9-1,2-.4.2-.5.2-.5.2h0Z"/>
      <path class="cls-8" d="m354.84,94.95c-2.5-.3-4.9-.5-7.3-.8-1.1-.1-2.2-.2-3.2-.3-.5-.1-.9-.5-.9-1s.5-.9,1-.9c3,.3,5.9.6,8.9.9.6.1,1.1.1,1.7.2.5.1.9.5.9,1-.1.5-.6.9-1.1.9h0Z"/>
      <path class="cls-8" d="m283.14,252.15c.6-4.4,1.8-8.7,2.8-13.1,1.4-7.6,3.4-15,5.1-22.4,2.4-9.7,5.8-19.2,9-28.7,6.5-17.2,13.8-34.3,23.1-50.2,6.8-12.4,15.3-23.6,23.7-34.9,2.1-2.9,4.3-5.8,6.7-8.5.3-.5.8-.7,1.3-.4,1.2.8,0,2-.7,2.7-3,3.3-5.4,6.9-8.1,10.4-10.8,14.1-20.6,28.9-28.4,44.8-8.6,17.4-15.8,35.5-21.6,54.1-4.7,15-7.6,30.5-11,45.8,0,.7-.2,1.3-.9,1.4-.5-.1-1-.5-1-1h0Z"/>
      <path class="cls-8" d="m362.34,112.05c-1.2-2.4-2.4-4.9-3.6-7.4-1.6-3.2-3.1-6.3-4.7-9.5-.1-.1-.1-.3-.2-.4-.2-.5,0-1.1.5-1.3s1,0,1.2.4h0v.1c1.5,2.9,2.9,5.9,4.3,8.8,1.4,2.8,2.7,5.5,4.1,8.3,0,.1.1.1.1.2.2.5,0,1.1-.5,1.3-.1.1-.2.1-.4.1-.3,0-.6-.2-.8-.6h0Z"/>
      <path class="cls-8" d="m288.34,255.45c-.5-.3-.6-.9-.3-1.3.4-.8.8-1.6,1.2-2.4l3-5.7c2.5-4.9,5.1-9.7,7.6-14.6,2.7-5.1,5.3-10.2,8-15.3,2.7-5.2,5.4-10.4,8.1-15.6l8.1-15.6,8.1-15.5c2.7-5.1,5.3-10.2,8-15.4,2.7-5.1,5.3-10.2,8-15.4,2.5-4.8,5-9.6,7.5-14.4,2.2-4.2,4.4-8.4,6.6-12.6h0c.2-.5.9-.6,1.3-.4.5.3.6.9.3,1.3-.3.6-.6,1.2-.9,1.8-.6,1.1-1.2,2.3-1.8,3.4-1.2,2.3-2.4,4.7-3.7,7-2.5,4.8-5,9.6-7.5,14.3-2.7,5.2-5.4,10.3-8.1,15.5-2.6,5.1-5.3,10.1-7.9,15.2-2.7,5.2-5.4,10.5-8.2,15.7-2.7,5.2-5.4,10.3-8.1,15.5s-5.4,10.5-8.2,15.7c-2.6,5.1-5.3,10.1-7.9,15.2-2.5,4.9-5.1,9.8-7.6,14.7-1.5,2.9-3,5.7-4.5,8.6h0c-.2.3-.5.5-.8.5,0-.1-.2-.1-.3-.2h0Z"/>
      <path class="cls-8" d="m284.84,253.45c-.5-.1-.8-.6-.7-1.2.3-1.3.6-2.7.9-4,.4-1.5.7-3.1,1.1-4.6.5-1.6.9-3.1,1.3-4.7.4-1.6.9-3.2,1.3-4.8.3-1,.6-2,.9-3,.2-.7.5-1.5.8-2.2.3-.8.6-1.6.9-2.4.6-1.5,1.1-3,1.7-4.5.6-1.6,1.3-3.1,1.9-4.6s1.2-2.9,1.7-4.4c.6-1.6,1.1-3.2,1.7-4.8.5-1.5,1.1-3.1,1.6-4.6s1-3,1.6-4.5c.6-1.6,1.2-3.2,1.8-4.8.6-1.5,1.2-2.9,1.7-4.4.6-1.5,1.2-3,1.9-4.5,1.3-3,2.5-6.1,3.8-9.1.9-2.1,1.9-4.1,2.9-6.1.9-1.9,1.8-3.8,2.8-5.8.4-.9.8-1.8,1.2-2.7.4-.8.7-1.6,1-2.3.1-.2.1-.3.2-.5v-.1s0-.1.1-.1c.1-.1.1-.3.2-.5.1-.1.1-.3.2-.4h0c.3-.7.7-1.4,1-2,.4-.8.8-1.6,1.3-2.4.8-1.4,1.6-2.9,2.4-4.3s1.5-2.9,2.3-4.3,1.6-2.8,2.5-4.2c.8-1.4,1.7-2.8,2.5-4.2.7-1.3,1.4-2.6,2.2-3.9.8-1.4,1.7-2.7,2.6-4,.5-.7.9-1.3,1.4-2,.4-.6.9-1.3,1.2-1.9,1-1.7,2.1-3.4,3.2-4.9.6-.8,1.2-1.6,1.8-2.4.6-.8,1.1-1.6,1.6-2.4.8-1.4,1.7-2.8,2.6-4.1,1-1.3,1.9-2.7,2.9-4,.9-1.3,1.7-2.6,2.7-3.9.8-1.1,1.8-2.2,2.7-3.2q.1-.1.2-.2c0-.5.3-.9.8-1,.4-.1.8,0,1.1.3.3.3.4.7.2,1.1-.1.2-.2.4-.4.5-.8.8-1.6,1.7-2.3,2.5h0c-.7.8-1.3,1.7-1.9,2.5-.7,1-1.3,1.9-2,2.9-1.3,1.8-2.7,3.7-3.9,5.6-1.1,1.7-2.1,3.4-3.3,5.1-.7.9-1.3,1.8-1.9,2.7-.6.8-1.1,1.7-1.7,2.5-.8,1.4-1.7,2.7-2.6,4-.5.7-1,1.4-1.5,2.1-.4.6-.9,1.3-1.3,2h0c-.4.7-.8,1.4-1.2,2.1-.4.8-.8,1.5-1.2,2.3-.8,1.4-1.7,2.9-2.5,4.2-.8,1.3-1.7,2.6-2.4,4-.8,1.6-1.7,3.1-2.5,4.6-.8,1.4-1.6,2.8-2.3,4.2-.5.8-.9,1.7-1.4,2.5-.4.7-.8,1.5-1.1,2.2-.1.1-.1.3-.2.4v.1s0,.1-.1.1c-.1.1-.1.3-.2.5s-.2.3-.2.4v.1c-.6,1.2-1.1,2.5-1.6,3.7-.6,1.4-1.3,2.8-1.9,4.2-1.2,2.6-2.5,5.1-3.7,7.7-1.3,3-2.5,6.1-3.8,9.1-.6,1.5-1.3,3-1.9,4.6-.6,1.5-1.2,3-1.8,4.4-.6,1.6-1.2,3.1-1.8,4.7-.6,1.5-1.1,3-1.6,4.5-1.1,3.2-2.2,6.3-3.3,9.5-1.1,3.1-2.4,6.1-3.6,9.1-.6,1.5-1.2,2.9-1.7,4.4-.6,1.6-1.2,3.1-1.8,4.7-.1.3-.2.7-.3.9-.1.4-.2.7-.3.9-.5,1.5-.9,3.1-1.3,4.6s-.8,3.1-1.3,4.6c-.5,1.6-.9,3.1-1.3,4.7-.4,1.5-.7,3-1.1,4.6-.1.5-.2,1-.3,1.5h0c-.1.4-.5.7-.9.7q-.2.3-.3.3h0Z"/>
      <path class="cls-8" d="m286.04,253.55c.3-2.9,1.5-5.7,2.4-8.5.9-3.8,2.5-7.4,3.7-11,5-15.8,12.9-30.5,19.9-45.5,6.5-15,13.2-29.9,21-44.3,7.2-13.3,15.5-25.9,24-38.4.4-.5.8-1,1.2-1.5.2-.4.8-.7,1.3-.4,1.6,1-.6,2.5-1.1,3.4-11.8,17.3-23.2,35.1-31.9,54.2-4.6,9.7-9.2,19.3-13.3,29.2-5.4,10.8-10.5,21.7-15.3,32.8-2.7,7.4-5.5,14.6-7.7,22.1-.8,2.6-1.9,5.1-2.3,7.9-.1.5-.5.9-1,.9s-.9-.4-.9-.9h0Z"/>
      <path class="cls-8" d="m287.24,253.55c2.3-9,6.4-17,10.3-25.4,4.1-10.1,8.8-19.8,13.5-29.6,3.6-8,7.2-16,11.2-23.8,3.6-6.9,7.9-13.5,11.3-20.5,8.5-15.1,16.4-30.6,26-45,.5-.7.7-2,1.8-1.5,1.5,1-.4,2.7-1,3.7-9.2,14.7-17.5,30-25.8,45.2-3.4,6.8-7.6,13.1-11,19.9-4.2,7.9-7.6,16.1-11.4,24.1-2.1,4.9-4.6,9.7-7,14.5-2.1,5-4.2,10.1-6.5,15.1-2.8,6.4-6.4,12.5-8.2,19.3-.4,1.3-.8,2.8-1.4,4-.1.4-.4.8-.8.8-.5.1-1-.3-1-.8h0Z"/>
      <path class="cls-8" d="m95.14,75.95c-1.3-1.4-2.1-3-2.7-4.8-.2-.6-.4-1.3-.5-1.8,0-.1-.1-.3-.1-.4-.1-.5.3-1,.8-1.1s1,.3,1.1.8v.4-.1h0c.2.7.4,1.5.7,2.1.2.6.5,1.1.7,1.6.2.4.5.8.8,1.2.2.3.5.6.7.9.2.2.5.5.7.7.2.1.3.2.5.4.2.1.4.2.7.3.2.1.3.1.5.2.2,0,.3.1.5.1h1c.2,0,.4-.1.6-.1.2-.1.3-.1.5-.2.2-.1.4-.2.7-.3.2-.1.4-.2.6-.4.3-.2.5-.4.8-.6.3-.3.6-.6.9-1s.6-.8.8-1.1c0-.1.1-.1.1-.2.3-.6.6-1.2.9-1.8.3-.8.6-1.5.8-2.3.2-.9.5-1.9.6-2.7.1-1,.2-2,.2-2.9v-.7c0-.5.4-1,.9-1s1,.4,1,.9c0,1.7-.1,3.4-.4,5.1-.4,1.9-1,3.8-1.9,5.6-.1.2-.2.4-.3.6-.1.1-.1.2-.2.4h0c-.1.2-.2.3-.3.4-.3.4-.6.8-.9,1.2-1.3,1.6-3.2,2.9-5.3,3.1h-.5c-2-.1-3.7-1.1-5-2.5h0Z"/>
      <path class="cls-8" d="m279.44,114.45c-8.3-1.2-7.9-10-3.9-15.5.7-1.1,3-5.3,4.6-4.1,1,1.2-.9,1.9-1.5,2.8-1.2,1.6-2.3,3.4-3.1,5.2-3.2,8.1,2.5,11.2,9.9,9,.5-.1,1,.3,1.1.8s-.3,1-.8,1.1c-2.1.4-4.1,1.1-6.3.7h0Z"/>
      <path class="cls-8" d="m245.34,221.95c-.8-3.1-.8-6.3-.5-9.4.4-2.4.7-5,2.1-7.1,2.8-4.5,8-7.6,12.2-2.8.7,1-.7,2.1-1.5,1.2-3.2-3.6-6.9-.7-9,2.5-2,3.2-2.1,7.2-2.1,10.9h0c.1,1.4.3,2.6.5,3.9.2.5,0,1-.4,1.2-.4.2-1,.1-1.3-.4h0Z"/>
      <path class="cls-8" d="m257.94,203.45c-.4-.9.2-1.8.2-2.7.7-4.8,1.5-9.5,2-14.4,2.1-14.7,4.8-29.3,9.9-43.3,3.5-10,7-20.5,13.2-29.2.3-.5.7-1.1,1.1-1.5.9-.9,2.3.4,1.4,1.4-.6.7-1,1.5-1.6,2.2-5.5,8.2-8.8,17.8-12,27-3.4,9.7-6.1,19.7-7.9,29.8-1.3,7.4-2.3,14.8-3.3,22.3-.4,2.6-.8,5.2-1.3,7.8.2,1.1-1.3,1.5-1.7.6h0Z"/>
      <path class="cls-8" d="m68.04,167.55c-.6-.2-.7-.9-.4-1.4,1.6-6.7,1.3-16.4-6.3-19.2h.2c-1.1.1-1.4-1.7-.3-1.9,1.3,0,2.4.8,3.5,1.5,5.5,3.8,6.1,11.3,5.3,17.4-.5,1.1-.1,4.1-2,3.6h0Z"/>
      <path class="cls-8" d="m60.94,146.45c-.5-.2-.7-.8-.5-1.3,1.3-3.4,2.7-6.7,4.1-10,1.6-3.9,3.1-7.7,4.7-11.6,1.5-3.8,3.1-7.6,4.6-11.4,1.6-3.8,3.1-7.6,4.7-11.5,1.6-3.8,3.1-7.7,4.7-11.5,1.5-3.7,3-7.4,4.6-11.2,1.3-3.1,2.5-6.2,3.8-9.3q0-.1.1-.1c.2-.5.8-.7,1.3-.5s.7.8.5,1.3c-1.2,3-2.4,6-3.6,8.9-1.5,3.7-3,7.4-4.5,11.2-1.6,3.8-3.1,7.7-4.7,11.5s-3.1,7.7-4.7,11.5c-1.5,3.8-3.1,7.5-4.6,11.3-1.6,3.9-3.2,7.8-4.7,11.7-1.4,3.5-2.8,6.9-4.2,10.4,0,.1-.1.1-.1.2-.1.4-.5.6-.9.6-.3-.2-.4-.2-.6-.2h0Z"/>
      <path class="cls-8" d="m196.74,123.95c-9.8-.4-19.7-2.3-28.4-7-10-6.2-18.2-14.7-26.5-22.9-7.8-7.6-15.7-15.1-23.8-22.4-2.7-2.6-5.4-5.1-8.2-7.6-.6-.6-1.5-.9-1.5-1.8.1-.5.5-.9,1.1-.9.7.1.9.7,1.4,1,3.2,2.8,6.3,5.9,9.4,8.8,8.8,7.9,17.3,16,25.6,24.4,7.9,7.4,15.5,15.6,25.1,20.8,3.7,1.6,7.6,3.1,11.5,4.1,5.1,1.2,10.6,1.5,15.8,1.8,6.6.2,13.1-1.9,19.1-4.4,6.5-3.2,13.2-6.1,19.8-8.9,9.6-4.3,19.4-7.8,29.6-10.5,2.6-.7,5.2-1.3,7.7-1.9,1.3-.3,2.6-.8,3.9-1.2.5-.2,1.1.1,1.2.6,1,1.8-7.6,3-8.8,3.5-6.6,1.5-13.1,3.7-19.6,5.8-9.8,3.7-19.2,8.2-28.8,12.3-7.8,3.9-16.6,7-25.6,6.4h0Z"/>
      <path class="cls-8" d="m245.64,222.15c-4.2-1.6-7.5-4.8-11-7.5-6.1-4.5-11.7-9.7-17.6-14.5-4.2-3.7-8.8-6.7-12.8-10.6-4.7-3.5-9.4-7-14-10.5-10.2-6.5-21.5-11.4-33.4-13.7-18.2-3.2-36.2,1.4-54.3,2.5-10.2.2-20.4,1.2-30.6.1-.9-.1-1.8-.1-2.7-.2-.5,0-1-.4-1-.9s.4-1,.9-1c1.7.1,3.4.2,5.1.3,7.4.7,14.8.2,22.2-.1,31.1-.7,50.4-10.3,81.6,4.1,4.8,2.5,9.7,4.9,14.2,8,4.3,3.5,8.9,6.6,13.3,10,7.1,6.4,15.1,12.2,22.3,18.5,4.8,4.3,9.8,8.1,15,11.9,1.1.6,2.2,1.2,3.3,1.7.5.2.7.7.6,1.1-.1.6-.6,1-1.1.8h0Z"/>
      <path class="cls-8" d="m126.54,111.85c-7.6-5.8-15.5-11.2-23.2-16.9-.9-.8.4-2.3,1.3-1.4,5.4,3.9,10.8,7.8,16.2,11.8,2.3,1.6,4.6,3.2,6.8,5,.2.2.4.4.4.6.2.7-.9,1.3-1.5.9h0Z"/>
      <path class="cls-8" d="m125.34,114.55c-5.1-3-9.9-6.4-14.8-9.6-1.3-.8-2.6-1.6-3.8-2.6-.7-.5-1.9-1.2-1.1-2.2.4-.4,1-.4,1.4,0,4.8,3.4,9.7,6.7,14.7,9.9,1.5.9,3,2,4.6,2.9,1,.6,0,2.2-1,1.6h0Z"/>
      <path class="cls-8" d="m125.34,114.55c-.5-.3-.5-.9-.2-1.4.4-.8.8-1.6,1.3-2.4.8-.9,2.3.4,1.4,1.3q.1-.1.1-.2c-.6.8-1.1,3.5-2.6,2.7h0Z"/>
      <path class="cls-8" d="m95.04,119.95c-.5-.3-.6-.9-.4-1.3,2-3.8,4-7.6,6.2-11.2,1.4-2.4,2.8-4.8,4.2-7.2.2-.6,1-.8,1.5-.4,1.1,1.1-.7,2.5-1.1,3.6-1.6,2.8-3.3,5.6-5,8.4-1.4,2.6-2.8,5.2-4.2,7.8-.1.4-.8.6-1.2.3h0Z"/>
      <path class="cls-8" d="m88.24,121.25c-1.1-.7,0-1.8.4-2.7,3.4-7.9,8.2-15,12.4-22.3.8-.9,1.3-3.8,2.9-2.9.4.3.5.9.2,1.4-3.9,6.9-8.4,13.6-11.9,20.6-.8,1.1-2.3,6.9-4,5.9h0Z"/>
      <path class="cls-8" d="m98.34,146.75c-8.2-.4-17.7-6.3-17.4-15.3,0-1.2.4-2.5.8-3.6.4-.9.5-2.9,1.9-2.4.7.3.7,1.1.4,1.6-.4,1.3-.8,2.3-1.1,3.5-.6,4.8,2.6,9.4,6.8,11.5,9.1,6,23.1,1.2,26.4-9.2,2-7.8-8.3-12.6-14.7-13.1-1.8-.1-3.6,0-5.3.4-.9.6-2-.6-1.3-1.4.4-.5,1.2-.6,1.8-.7,6.3-1,12.9.9,17.7,4.9,6.5,5.5,4.3,12.7-1.1,18-4,3.8-9.5,5.6-14.9,5.8h0Z"/>
      <path class="cls-8" d="m87.34,128.05c-1.3-.4-2.6-.7-3.8-1-.9,0-1.5-1.2-.7-1.8.3-.2.8-.3,1.1-.1,1.4.4,2.8.7,4.1,1.1,1.2.5.5,2.3-.7,1.8h0Z"/>
      <path class="cls-8" d="m96.74,142.15c-7.8-.4-13-7.6-9.6-14.9.5-1.4,2.5-.4,1.7.8l.1-.1v-.1c-4.5,10.9,9,15.6,16.8,10.1,3.1-1.6,7.4-5.1,5.6-9-3.9-6.5-12.6-4.2-18.8-5.3-1.5-.3-3-.6-4.3-1.4-.5-.3-1.1-.6-1.2-1.2-.1-1,1.2-1.5,1.8-.7,2.5,1.5,5.7,1.7,8.6,1.7,4.1-.1,8.5.2,12.2,2.3,6.6,4.2,4.4,10.5-1.2,14.2-3.5,2.2-7.4,4.3-11.7,3.6h0Z"/>
      <path class="cls-8" d="m127.24,152.15c-2-.7-3.5-2.3-4.4-4.1-.9-1.9-1.2-4.1-1.2-6.2s.2-4.1.7-6c.8-3.1,1.9-6,3.5-8.8l.1-.1c1-1.8,2.2-3.5,3.6-5s2.9-2.9,4.7-4c1.4-.9,3.1-1.6,4.8-1.8h0c1.3-.2,2.7,0,4,.6,1.7.8,3,2.3,3.8,4,.8,1.9,1.1,3.9,1.2,6,0,1.9-.2,3.9-.7,5.8-.9,3.9-2.6,7.7-4.8,11.1-1.1,1.7-2.4,3.3-3.9,4.7-1.5,1.4-3.3,2.8-5.3,3.6-1.2.5-2.5.8-3.8.8-.8-.3-1.5-.4-2.3-.6h0Zm2.3-1.6c.4,0,.8,0,1-.1.3-.1.6-.1.8-.2.4-.1.8-.2,1.2-.4.5-.2.9-.4,1.4-.7.6-.4,1.2-.8,1.8-1.2h0c.7-.5,1.3-1.1,1.9-1.7.8-.8,1.5-1.7,2.1-2.4.8-1.1,1.5-2.2,2.2-3.2.7-1.3,1.4-2.6,1.9-3.9s1-2.6,1.3-3.9c.3-1.1.5-2.3.7-3.5.1-1,.2-1.9.2-2.8,0-.8-.1-1.5-.2-2.3-.1-.5-.2-1-.3-1.4-.1-.5-.3-.9-.4-1.3-.1-.3-.3-.6-.5-.9s-.3-.5-.5-.8c-.2-.2-.3-.4-.5-.6-.2-.1-.3-.3-.4-.4-.2-.2-.4-.3-.6-.4s-.4-.2-.6-.3c-.2-.1-.5-.2-.7-.2-.2-.1-.4-.1-.6-.1h-1.5c-.3.1-.7.1-1,.2-.4.1-.8.3-1.2.4-.5.2-1,.4-1.4.7-.6.3-1.1.7-1.6,1.1-.7.5-1.3,1.1-1.9,1.6-.8.8-1.5,1.7-2.2,2.6h0c-.8,1-1.4,2-2.1,3.1h0c-.1.1-.1.2-.1.2-.7,1.2-1.3,2.5-1.8,3.7-.5,1.3-1,2.7-1.3,4.1-.3,1.1-.5,2.2-.6,3.4-.1.9-.2,1.8-.2,2.7,0,.8.1,1.5.2,2.2.1.6.2,1.1.3,1.6.1.4.2.7.4,1.1.2.4.3.7.5,1.1.1.2.2.4.4.6.2.2.4.4.6.7.2.1.3.3.5.4s.4.3.6.4.4.2.5.3c.2.1.4.1.5.2.2.1.5.1.7.1,0,.2.3.2.5.2h0Z"/>
      <path class="cls-8" d="m129.24,147.05c-.7-.2-1.3-.7-1.8-1.3-1-1.5-1.1-3.5-1-5.2.1-.8.2-1.6.3-2.3.7-3.4,2-6.6,3.7-9.6.4-.6.8-1.3,1.1-1.8,1-1.5,2.2-2.9,3.5-4.1,1.2-1.1,2.8-2.1,4.5-2,.3,0,.5,0,.8.1h.2c.1,0,.2.1.3.1l.1.1c.2.1.5.3.7.4.8.7,1.2,1.7,1.5,2.8.3,1.6.2,3.3-.1,4.9-.3,1.9-.9,3.7-1.6,5.5-.7,1.7-1.5,3.4-2.5,5-.9,1.5-1.9,2.9-3.1,4.2-1.2,1.3-2.7,2.6-4.5,3.1-.4.1-.8.2-1.1.2-.3.1-.7,0-1-.1h0Zm1.1-1.8c.1,0,.2,0,.3-.1.1,0,.2-.1.4-.1.2-.1.4-.1.6-.2s.5-.2.7-.4c.4-.2.7-.5,1-.8.5-.4,1-.9,1.4-1.4.7-.7,1.2-1.5,1.8-2.2.8-1.1,1.4-2.3,2-3.5s1.2-2.5,1.6-3.8c.4-1.1.7-2.3.9-3.3.2-.8.3-1.6.3-2.3v-1.5c0-.3-.1-.6-.1-.9,0-.2-.1-.4-.2-.7-.1-.1-.1-.3-.2-.4v-.1h0q-.1-.1-.1-.2l-.2-.2-.2-.2-.1-.1-.1-.1h0s-.1,0-.1-.1h-.9c-.1,0-.3.1-.4.1-.2.1-.4.1-.5.2-.2.1-.5.3-.7.4-.3.2-.7.5-1,.8-.5.4-1,.9-1.4,1.4-.6.7-1.2,1.5-1.7,2.2,0,0,0,.1-.1.1h0c-.8,1.1-1.4,2.3-2,3.5-.6,1.3-1.2,2.6-1.6,3.8-.4,1.1-.7,2.2-.9,3.2v.1c-.2.8-.2,1.5-.3,2.3v.1h0v1.4h0c0,.3.1.7.1,1,0,.2.1.4.1.6v.1h0c0,.1.1.3.2.4s.1.2.2.3c0,.1.1.1.1.2s.1.1.2.2l.1.1c.1,0,.1.1.2.1s.1.1.2.1h.3q0-.1.1-.1h0Z"/>
      <path class="cls-8" d="m159.04,147.55c-1.1-.3-3.2-.5-3.1-1.9.8-4.5,2.9-8.6,4.5-12.9.5-1.1,2.3-.4,1.8.8-1.5,3.9-3.3,7.7-4.3,11.7h0c.8.4,2.3.3,2.2,1.5-.1.5-.6.9-1.1.8h0Z"/>
      <path class="cls-8" d="m166.94,149.75c-3.5-1.8.5-11.5,1.6-14.4.5-1.1,2.3-.4,1.8.8-1,2.2-1.7,4.5-2.2,6.8-.2,1.6-1,3.4-.4,5,.8-.2,1.4-1,1.9-1.6,1.9-3,3.3-6.3,4.8-9.6.2-.5.7-.9,1.2-.7,1.7.7-.4,3.1-.7,4.3-1.7,2.8-3.9,10.4-8,9.4h0Z"/>
      <path class="cls-8" d="m176.34,153.75c-.5-.1-.8-.7-.7-1.2.7-2.2,1.4-4.3,2-6.5.7-1.4,1.7-10.3,3.9-7.8.2.3.2.8,0,1.1-.9,2.3-1.3,4.7-2.1,7.1-.7,2.2-1.4,4.5-2.1,6.7.1.4-.4.7-1,.6h0Z"/>
      <path class="cls-8" d="m182.24,151.45c-.9-1.5-1.7-3.1-2.9-4.4-.4-.3-.6-.9-.3-1.4,1.4-1.1,3-2.2,4.3-3.4,1-.6,2.5-2.6,3.6-1.2.2.5,0,1.1-.5,1.3-1.9,1.2-3.4,2.7-5.2,4,.9,1.3,1.8,2.8,2.6,4.2.3.5.1,1.1-.4,1.3-.3.3-.9.1-1.2-.4h0Z"/>
      <path class="cls-8" d="m186.54,156.75c-.5-.1-.9-.6-.8-1.1.4-2.2,1-4.4,1.6-6.6.6-1.4,1.4-8.8,3.6-7.6.5.3.6.9.3,1.4-.9,2-1.3,4.1-1.8,6.2-.5,1.7-1,3.6-1.4,5.3-.3.9-.2,2.5-1.5,2.4h0Z"/>
      <path class="cls-8" d="m199.94,146.15c-1.8-.5-3.7-1-5.5-1.6-.5-.1-.8-.6-.8-1.1.1-.8,1-1,1.7-.6,1.7.6,3.4,1,5.1,1.5,1.2.3.7,2.2-.5,1.8h0Z"/>
      <path class="cls-8" d="m195.24,158.95c-.5-.1-.9-.6-.8-1.1.4-2.7,1.1-5.3,1.7-7.9h0c.3-1.4.6-2.8.8-4.2.2-.9.4-2.5,1.7-2,.5.2.7.8.5,1.2-.5,1.8-.7,3.6-1.2,5.4h0v-.1c-.1.6-.2,1.1-.4,1.6-.5,2.1-.9,4.1-1.3,6.2.1.6-.4,1-1,.9h0Z"/>
      <path class="cls-8" d="m199.84,159.55c-.5-.2-.7-.8-.5-1.3.9-1.9,1.9-3.8,2.8-5.6,1.1-2.3,2.1-4.6,3.2-6.8.2-.5.8-.7,1.3-.5s.7.8.5,1.3c-.9,1.9-1.7,3.8-2.6,5.6-.9,2-1.9,3.9-2.9,5.8-.4.7-.8,1.9-1.8,1.5h0Z"/>
      <path class="cls-8" d="m205.84,157.95c-.3-2.8,0-5.7,0-8.5,0-1.3-.2-2.6,0-3.8.2-.5.8-.7,1.3-.5.4.2.6.6.6.9.1,1.6.1,3.2.1,4.8-.1,2.3-.2,4.6,0,6.9,0,1.3-1.8,1.5-2,.2h0Z"/>
      <path class="cls-8" d="m206.04,157.05c-1.2-.2-4.9.1-4.7-1.6.1-.5.6-.9,1.1-.8,1.3.2,2.4.4,3.6.4,1.3.2,1.3,2.1,0,2h0Z"/>
      <path class="cls-8" d="m212.04,163.05c-1.6-.7-3-2.6-2.6-4.4.1-.5.6-.9,1.1-.8s.9.6.8,1.1c-.4,1.2,1.7,3.3,2.6,1.9h0v.1c.3-.4.3-1,.2-1.5-.4-2.2-2-3.9-2.4-6-.3-2.4,1.1-5,3.3-5.9,1.9-.7,4.1,1.2,3.2,3.1-.5,1.1-2.2.4-1.8-.7.2-.5-.5-.7-.9-.6-1.2.7-1.9,2.1-2,3.5.2,1.3,1,2.4,1.5,3.6,2,2.9,1.3,7.9-3,6.6h0Z"/>
      <path class="cls-8" d="m247.64,189.05c-6-4.4-11.9-8.9-18.5-12.5-1.1-.5-.4-2.3.8-1.8,6.7,3.6,12.8,8.3,18.9,12.8,1,.8-.2,2.3-1.2,1.5Z"/>
      <path class="cls-8" d="m239.94,194.25c-7.8-5.4-15.5-11.1-24.1-15.2-1.1-.5-.4-2.3.8-1.8,7.8,3.6,14.8,8.7,21.9,13.6.9.8,3.8,1.7,2.8,3.2-.4.5-1,.5-1.4.2h0Z"/>
      <path class="cls-8" d="m234.24,199.25c-3-2.4-6.2-4.3-9.4-6.2-.5-.3-.6-.9-.3-1.3.3-.5.9-.6,1.3-.3,2.4,1.4,4.8,2.9,7.2,4.5.8.8,3.5,1.8,2.6,3.2-.3.4-1,.4-1.4.1h0Z"/>
      <path class="cls-8" d="m315.74,119.35c.5.2.6.9.4,1.3-1.6,3-2.5,6.4-3.6,9.6-.6,1.9-1.2,3.9-1.8,5.8-.2.5-.7.8-1.2.7-.5-.1-.8-.7-.7-1.2,1-3.2,1.9-6.5,3-9.7.7-2.1,1.5-4.3,2.6-6.2.3-.4.9-.6,1.3-.3h0Z"/>
      <path class="cls-8" d="m318.74,119.05c.6-1.1,2.3-.2,1.7.9-.8,1.4-1.6,2.9-2.3,4.4-.2.5-.8.7-1.2.5-.5-.2-.8-.8-.5-1.2.7-1.6,1.5-3.1,2.3-4.6h0Z"/>
      <path class="cls-8" d="m329.34,101.95c.4.3.5.9.2,1.4-2.1,2.7-4,5.6-5.9,8.5-.3.4-.9.5-1.3.2s-.5-.9-.2-1.4c1.4-2.1,2.9-4.3,4.3-6.4.8-.8,1.4-3.1,2.9-2.3h0Z"/>
      <path class="cls-8" d="m272.74,243.95c-2.8-.1-25.9-7.5-24.2-10.4.3-.5.9-.6,1.3-.4,5.2,3.5,11,5.3,16.8,7.3,2.1.6,4.3,1.2,6.4,1.6.4.1.8.4.8.8.2.7-.5,1.3-1.1,1.1h0Z"/>
      <path class="cls-8" d="m272.94,240.45c-3.1-1.2-6.4-2.2-9.5-3.4-1.3-.5-2.5-1-3.8-1.5-.5-.2-.7-.8-.5-1.3s.8-.7,1.3-.5c2.2.8,4.3,1.7,6.4,2.5h-.1c2,.7,4,1.4,6,2.1.7.2,1.8.6,1.4,1.6-.2.4-.7.7-1.2.5h0Z"/>
      <path class="cls-8" d="m268.84,234.95c-3.2-1.2-6.3-2.5-9.3-4.1-1.1-.6-.1-2.3,1-1.7,2,1,3.9,2,6,2.8,1,.7,4.2.9,3.7,2.5-.3.4-.9.6-1.4.5h0Z"/>
      <path class="cls-8" d="m77.34,142.85c-.8-1.1-3.5-6.6-.5-6,.4.2.6.6.5.9,0,.7.2,1.5.5,2.1.3,1,2,2.3.8,3.2-.4.4-1.1.2-1.3-.2h0Z"/>
      <path class="cls-8" d="m83.44,177.75c-3.8,0-7.4-.1-11.2,0-1.1-.2-3.4.6-3.6-.9,0-1.4,1.8-1,2.8-1,7.2-.1,14.3.4,21.5-.5,2-.2,3.8-.4,5.7-.7,1.2-.2,1.6,1.7.3,1.9-.8.1-1.7.2-2.5.3-4.4.6-8.7.9-13,.9h0Z"/>
      <path class="cls-8" d="m81.64,174.75c-.5-.1-.9-.5-.9-1s.5-.9,1-.9c1.8-.1,3.6-.1,5.5-.2,2.1-.1,4.2-.2,6.4-.2.5,0,1,.4,1,.9,0,1.7-3,.8-4.2,1.1-2.9.1-5.8.2-8.8.3h0Z"/>
      <path class="cls-8" d="m103.84,173.25c-.8-.3-1.7.1-2.4-.4-.4-.4-.4-1-.1-1.4.6-.6,1.6-.3,2.3-.2.8,0,1.8.5,1.5,1.4-.2.5-.8.8-1.3.6h0Z"/>
      <path class="cls-8" d="m115.54,173.25c-.8-.8,0-1.9,1-1.8.8-.2,1.9-.2,2,.8.1.9-.8,1.1-1.5,1.1-.5.1-1.1.3-1.5-.1Z"/>
      <path class="cls-8" d="m89.44,45.35c-1.9-1,2.8-5.7,4.2-4.9,1,.4.6,2-.4,1.9-1,.4-1.6,1.4-2.2,2.2-.3.6-.9,1.2-1.6.8h0Z"/>
      <path class="cls-8" d="m90.74,51.45c-1.2-.8.2-2,.5-2.9.4-.7.8-2,1.9-1.8.8.2,1,1.2.3,1.7-.8,1-1,3.7-2.7,3Z"/>
      <path class="cls-8" d="m84.44,60.25c-.5-.1-.9-.6-.8-1.1.3-1.8.6-3.5,1-5.3.4-1.2,0-4.8,1.8-4.5.5.1.8.7.7,1.2-.3,1.4-.4,2.7-.7,4.1-.2,1.3-.5,2.6-.7,3.8-.2.8-.3,1.9-1.3,1.8h0Z"/>
      <path class="cls-8" d="m309.54,87.05c-.3-.4-.1-1.1.3-1.3,1.4-1,2.9-1.8,4.4-2.7.5-.3,1.1-.1,1.3.3s.1,1.1-.3,1.3c-1.5.9-3,1.7-4.4,2.7-.4.4-1,.2-1.3-.3Z"/>
      <path class="cls-8" d="m307.84,92.75c-.1-1.5,1.9-1.1,2.8-1.6.7-.2,1.5-.7,2,.1.6,1.2-1,1.6-1.9,1.9-.9.2-2.6.9-2.9-.4h0Z"/>
      <path class="cls-8" d="m72.44,72.85c-.5,0-1-.4-1-.9-.1-.7.7-1,1.9-1.1h.2-.1,1.6c1.6.1,3.2.4,3.7.4-1.1-.9-2.2-1.7-3.4-2.5q-.1-.1-.2-.1c-.2-.1-.4-.2-.6-.4-.2-.1-.3-.2-.5-.3-.3-.1-.5-.3-.6-.6-.2-.5.1-1.1.6-1.2.3-.1.6,0,.9.1,1.3.8,2.5,1.7,3.7,2.6,1,.9,5.9,4.3,2.6,4.9-2.9-.7-5.9-1.1-8.8-.9h0Z"/>
      <path class="cls-8" d="m96.94,149.25c-.7,0-.7-1.2,0-1.2,1.4,0,2.9,0,4.3-.1,3.2-.2,6.3-1.1,9.1-2.6.3-.1.6-.1.8.2.4,1-1.3,1.2-1.9,1.7-3.9,1.8-8.2,2.2-12.3,2h0Z"/>
      <path class="cls-8" d="m282.24,135.65c-.8-.2-1.4-.6-2.2-.7-.3-.1-.5-.3-.5-.7.3-1.2,2.2.1,3,.2.8.3.4,1.4-.3,1.2h0Z"/>
      <path class="cls-8" d="m282.04,179.05c-1.1-.2.5-3.2.6-4,2.1-7.8,4.2-15.5,7-23,.3-.7.5-1.4.7-2.1s1.3-.4,1.1.3c-.1.4-.2.7-.3,1.1-2.6,7.1-4.8,14.3-6.7,21.6-.5,1.9-1.1,3.9-1.7,5.8-.1.2-.5.4-.7.3h0Z"/>
      <path class="cls-8" d="m280.24,177.45c-.3,0-.5-.4-.5-.7.2-1.6.6-3.1.9-4.7.3-1.5.7-2.8.9-4.3,0-.3.3-.5.7-.5.3,0,.5.3.5.7-.3,2.1-.9,4.1-1.3,6.1h0c-.2,1-.4,1.9-.5,2.9-.1.3-.4.6-.7.5h0Z"/>
      <path class="cls-8" d="m282.94,164.65c-.9-.4,0-1.5.1-2.1.2-.4.2-1,.6-1.3.5-.3,1.1.4.8.9-.2.7-.4,1.5-.7,2.2-.2.2-.5.4-.8.3Z"/>
      <path class="cls-8" d="m186.24,115.55c-.3-.1-.5-.4-.5-.7.2-1.1.4-2.3.6-3.4,0-.2.1-.5.3-.6,1.4-.4.7,1.6.6,2.3-.3.7.1,2.4-1,2.4h0Z"/>
      <path class="cls-8" d="m188.24,115.45c-.3-.1-.5-.4-.4-.7.2-.9.4-1.8.7-2.7.2-.7,1.3-.5,1.1.2-.2.9-.5,1.9-.7,2.8,0,.4-.4.5-.7.4h0Z"/>
      <path class="cls-8" d="m189.74,117.85c-.3-.1-.4-.5-.3-.8.6-1.5,1.2-3,1.8-4.5.2-.5.2-1.3.9-1.2,1.2.3-.3,2.6-.5,3.4-.4.9-.7,1.9-1.1,2.8-.2.3-.5.5-.8.3h0Z"/>
      <path class="cls-8" d="m191.64,122.35c-.3-.1-.5-.4-.4-.7.4-1.6.8-3.1,1.2-4.6.4-1.5.6-2.9,1-4.4,0-.3.4-.5.7-.5.3.1.5.3.5.7-.4,1.5-.6,3-1,4.5-.4,1.6-.8,3.1-1.2,4.7-.2.2-.5.4-.8.3h0Z"/>
      <path class="cls-8" d="m194.44,117.45c-.3-.1-.5-.4-.4-.7.2-1,.5-2,.7-3.1.2-.6,0-1.7.8-1.7,1.2.2.1,2.1.1,2.8-.3.7-.2,2.9-1.2,2.7Z"/>
      <path class="cls-8" d="m180.44,121.45c-.3-.1-.4-.5-.3-.8.4-1,.8-2,1.2-2.9.3-.9.6-1.8.7-2.7,0-1.1,1.5-.7,1.1.3-.3,2-1.2,3.9-1.9,5.7-.2.4-.5.6-.8.4h0Z"/>
      <path class="cls-8" d="m174.54,184.35c-1.6-.5,3.1-8.8,3.2-10.6.3-.8.3-1.7.8-2.4.5-.5,1.3.2.9.8-1,4.1-3.1,7.8-4.2,11.9,0,.2-.4.4-.7.3h0Z"/>
      <path class="cls-8" d="m179.44,179.25c-.3-.1-.4-.5-.3-.8.4-.9.9-1.9,1.3-2.8.5-.7,1-3.4,2.1-2.2.2.3-.1.6-.2.9-.7,1.5-1.5,3-2.2,4.5-.1.4-.4.5-.7.4h0Z"/>
      <path class="cls-8" d="m178.94,183.45c-.3-.2-.3-.5-.2-.8.5-.9.9-1.9,1.6-2.7.6-.6,1.4.2.8.8-.5.8-1,1.6-1.4,2.5-.1.2-.5.3-.8.2h0Z"/>
      <path class="cls-8" d="m176.94,183.55c-.8-.5.1-1.4.2-2,.2-.5.3-1.3,1.1-1.2.8.3.2,1.2,0,1.7-.3.6-.4,1.8-1.3,1.5h0Z"/>
      <path class="cls-8" d="m181.94,185.05c-.3-.2-.4-.5-.2-.8.8-1.5,1.7-2.9,2.6-4.3,1-1.4,1.8-2.9,2.7-4.3,2.4-.5-1.4,4.1-1.7,4.9-.9,1.4-1.8,2.9-2.6,4.3-.1.2-.5.3-.8.2h0Z"/>
      <path class="cls-8" d="m185.74,183.85c-.7-.7.6-1.6,1-2.2.5-.5,1.3.3.8.8h0c-.6.5-.9,1.9-1.8,1.4Z"/>
      <path class="cls-8" d="m288.54,202.85c-1.6-.8-3.3-1.3-5-1.7-.3-.1-.5-.4-.4-.7.4-.9,1.6,0,2.3,0,1.3.3,2.6.9,3.8,1.4.2,0,.3.2.4.4.2.7-.6.9-1.1.6h0Z"/>
      <path class="cls-8" d="m289.74,201.35c-1-.6-2.1-.9-3.2-1.4-.3-.1-.4-.5-.3-.8s.5-.4.8-.3c1.1.4,2.2.8,3.2,1.4,1,.5.4,1.9-.5,1.1Z"/>
      <path class="cls-8" d="m286.54,191.85c-.4-.2-.8-.5-1.1-.9-.2-.4.1-.9.5-.9.5.1.8.5,1.2.7.7.4.1,1.4-.6,1.1Z"/>
      <path class="cls-8" d="m340.14,132.95c-.4-.9-.8-1.7-1.2-2.6-.1-.2-.1-.6.1-.7.2-.2.6-.2.8,0,.4.9.9,1.9,1.3,2.9.1.3,0,.6-.3.8-.2.1-.6-.1-.7-.4h0Z"/>
      <path class="cls-8" d="m156.64,98.75c-.5-.4-1-.9-1.5-1.4-.3-.2-.3-.6-.1-.8.8-.8,1.7,1,2.4,1.4.5.5-.3,1.4-.8.8h0Z"/>
      <path class="cls-8" d="m226.54,131.65c-.6-.4-2.4-1.1-1.5-1.9.7-.3,1.4.7,2,.9.8.3.2,1.3-.5,1Z"/>
      <path class="cls-8" d="m243.24,190.35c-.5-.6-2.7-1.5-1.5-2.3.2-.1.5,0,.6.1.5.4,1.1.8,1.6,1.3.6.4-.1,1.4-.7.9h0Z"/>
      <path class="cls-8" d="m239.94,187.05c-1.1-.7-2.2-1.5-3.3-2.2-.3-.2-.3-.6-.1-.8.3-.5.8-.1,1.2.1.5-.1.9.4,1.3.7.3.2.7.4.9.8.2.1.4.3.6.5.4.3-.1,1.1-.6.9Z"/>
      <path class="cls-8" d="m237.34,197.05c-.8-.8-1.9-1.4-2.7-2.1-.2-2.3,2.9.9,3.5,1.3.6.4-.3,1.3-.8.8h0Z"/>
      <path class="cls-8" d="m43.24,170.25c-1-.3.2-2.5.3-3.3.2-.8.4-1.6.6-2.4,0-.3.3-.5.6-.5,1.1.3,0,2.3,0,3.1-.2.9-.5,1.8-.7,2.7-.2.3-.5.5-.8.4h0Z"/>
      <path class="cls-8" d="m45.84,170.85c-.3-.1-.5-.4-.4-.7.2-.7.2-1.3.3-2,0-.4,0-.8.4-.9.8-.2.8.8.7,1.3-.2.6.1,2.3-1,2.3h0Z"/>
    </g>
  </g>
</svg>