<?xml version="1.0" encoding="UTF-8"?>
<svg id="Layer_1" data-name="Layer 1" xmlns="http://www.w3.org/2000/svg" viewBox="0 0 343.44 276.94">
  <defs>
    <style>
      .cls-1 {
        fill: #748839;
      }

      .cls-2 {
        fill: #70b684;
      }

      .cls-3 {
        fill: #c3d78a;
      }

      .cls-4 {
        fill: #74893a;
      }

      .cls-5 {
        fill: #3d1a17;
      }

      .cls-6 {
        fill: #94aa55;
      }
    </style>
  </defs>
  <g id="Capa_de_vector9" data-name="Capa de vector9">
    <g>
      <path class="cls-6" d="m244.34,245.85h0c-.2,0-.5,0-.8-.1-1.3-.3-1.2-1.7-.8-2.7,0,1,.6,2.1,1.4,2.7q.1.1.2.1h0Z"/>
      <path class="cls-6" d="m253.04,113.05c2.1-.7.9-3.6-1-2.5-.2.1-.4.2-.5.3-.3,0-.6.1-.8.1-2.4-.2-4.6-.8-6.2-2.8-.4-.5-.8-1.2-1-1.9h0c-.2-1.6.1-3.4.3-5,.6-1.5,1-3,1.9-4.3.2-.2.3-.4.5-.6l.1-.1h0c.4-.4.8-.8,1.2-1.2.3-.4.5-.9.7-1.3-1,.1-1.9.2-2.9.4-.3,0-.6,0-.8.2-2.1.4-4.2,1-6.3,1.4-7,2-14,3.9-20.6,6.9-4.3,2.1-8.8,4-13.3,5.8-2.1,1.2-4.4,2.1-6.7,2.9-1.7.8-3.3,1.7-5.1,2.2-1.6.4-3,1.4-4.5,2-2.5.8-4.8,1.7-7.2,2.8-.6.2-1.2.4-1.8.5-.1.1-.3.2-.5.2-.7.1-1.4.3-2.1.4h0c-3.4.7-6.8,1-10.4.7-1.7,0-3.4-.1-5.1-.1-.3,0-.7,0-.9-.2-5.8-.5-11.7-1.9-16.9-4.4-11.5-5.5-21.2-14.3-29.7-23.5-1.6-1.6-3.2-3.1-4.8-4.6,0-.2,0-.5-.1-.8-1-1.3-2.4-2.2-3.6-3.5-3.6-3.2-7.1-6.6-10.8-9.8-.6-.5-1.2-1-1.8-1.6-1.6-1.7-3.3-3.4-5.1-4.9-2.1-2-4.2-4-6.6-5.6-.2-.5-.5-.9-1-1.1-.4-.1-1,0-1.3.3-.2.1-.3.3-.3.5-.2.5-.1,1.1.3,1.5h0c0,.1.1.3.1.5s0,.5.1.7v.4c-1.2,5.2-3.9,10.5-9.6,10.1-1.4-.2-2.5-1.4-3.4-2.2-1.4-1.4-2-3.7-2.9-5.5-.3.1-.5.2-.8.3-1.4,3.4-2.8,6.8-4.2,10.3-2.1,5.1-4.1,10.2-6.2,15.3-2.1,5.3-4.3,10.5-6.4,15.8-2,4.8-3.9,9.6-5.9,14.5s-3.9,9.7-5.9,14.5c-.8,2-1.6,4-2.5,6.1,1.4.8,2.7,1.8,4,2.7,1.2,1.3,2.2,2.8,3,4.4.9,2.5,1,5.3,1.1,8v3.2c-.1.6-.2,1.3-.1,1.8h0c0,.4,0,.7-.1,1,1.8.1,4.1.7,5,.8,2.4.3,4.9.2,7.4.1,5.9-.4,11.5.3,17.3-.3l.7-.1c2.9,0,5.8,0,8.6-.1,2.2-.2,4.3-.7,6.5-1.1,1.8-.2,3.6-.5,5.3-.8.4-.1.7,0,1,.2,1.6-.2,3.2-.4,4.7-.6,5-.4,10.2-1.5,15.2-1.4,2.7,0,5.4.1,8.2.3,1.2.1,2.4.2,3.6.4,2.5.2,5,.4,7.5.8,0,0,.1.1.1.2,1,.2,2,.5,3,.8,1.5.4,2.9.8,4.4,1.3.2.1.4.1.6.2.1,0,.2.1.3.1,1.2.4,2.5.8,3.7,1.2,1.5.5,2.9,1.1,4.4,1.7q1,.4,0,0c-1.4-.6,0,0,0,0h.2c1.3.6,2.6,1.3,3.9,1.9,1.4.7,2.8,1.3,4.2,2,.4.2.8.4,1.1.6.1.1.3.1.4.2,5,3.4,9.7,7.2,14.6,10.6,4.8,3.1,9,7.1,13.5,10.6.6.5,1.2,1,1.8,1.5,3.5,3.9,7.8,7,11.9,10.4,3.9,3.2,7.9,6.3,12.1,9.2.7.5,1.3.9,2,1.3.5.3,1,.6,1.5.9.2.2.5.2.8.2.4.2.8.3,1.2.5.1,0,.2-.1.3-.1-.1-.5-.2-1-.2-1.5.1-.3.1-.7-.1-1-.4-5,.7-11,4-13.9,1.8-2.1,4.9-3.3,7.4-2.3.2.2.5.4.8.4.4.2.7.5,1,.8,0-.4.1-.8.1-1.2.4-.4.6-1,.2-1.7.1-1,.3-2,.6-3,1-4.8,2-9.6,2.7-14.5.9-6.2.6-12.7,2.7-18.7,3.1-9.2,4.6-19.1,9-27.9l.2-.2c.4-1.5.8-3,1.2-4.5,2.5-5.1,5-10.3,7.4-15.5.3.1.3,0,.4,0h0Zm43.4-28.3c.6,0,1.2,0,1.8-.1-1.9.4-3.9.8-5.7,1.3-.2.1-.3.3-.4.5-1.3,1.5-1.8,3.4-2.8,5-1.6,2.3-2.9,4.8-4.2,7.2-.5,1-1,2.1-1.5,3.1.3-.6.6-1.2.8-1.9-5.1,9.1-9.2,19.1-13.6,28.5-.5,1.1-.9,2.3-1.4,3.4,1.1-2.2,2.2-4.5,3.4-6.7-1.7,4.1-3.6,8.1-4.5,12.4,0,.6-.6,1.7-.7,2.5-.1.3-.3.6-.4,1-3.1,7.3-5.6,14.7-8.3,22.2-1.8,5.9-2.8,11.9-4.4,17.9-2.3,8.8-4.2,17.7-5.4,26.7-.9,6.5-2.4,12.9-3.7,19.3-.3,2.8-.7,5.5-1.3,8.2-.2,2.1-.8,4.1-1.1,6.1,0-.2,0-.4-.1-.6-.1.4-.1.8-.2,1.2-.1,1.2,0,3.3-1.8,3-.4-.1-.6-.3-.8-.6-.7,0-1.5-.2-2.1-.3-7.5-1.5-15-3.8-21.3-8.1-1.9-1.3-3.8-2.7-5.6-4.1-2.3-.6-4.1-2.3-6.1-3.4-5.4-3-9.9-7.2-14.3-11.5-6.6-6.5-13-12.9-20.1-19-7.7-6.7-16.5-11.7-25.3-16.6-.2.2-.5.3-.8.3-.7.1-1.4,0-2.1-.2-4.4-1.2-8.4-3.7-12.8-4.7-1.9-.4-3.8-.7-5.7-1.1-.4-.1-.8-.2-1.2-.2-.5-.1-1-.2-1.6-.3-2.7-.5-5.3-.9-8-1.2-1-.1-2.1-.2-3.1-.3h-.6c-3-.2-5.9-.2-8.8-.2h-.8c-4.5.1-8.9.5-13.4.8-1.1,0-2.2,0-3.3.1-3.6.2-7.1.7-10.7,1.2-.4,0-.9.1-1.3.1h0c-7.2.6-14.4,1-21.6,1.5q-4.8.3,0,0c-.6,0-1.1.1-1.7.1h-.7c-.4,0-.8.1-1.2.1h-.4c-.8,0-1.7.1-2.5,0-.8,0-1.5,0-2.3-.1h0c-1.5-.1-2.9-.3-4.4-.5h0c-.9-.1-1.9-.2-2.8-.3h0c-.3,0-.7-.1-1-.1-.5-.1-1.1-.1-1.6-.2l-1.2-.1h0c-1.8-.2-3.7-.4-5.5-.6-.2,0-.4,0-.6-.1h0c-.4,0-.8-.1-1.2-.2-.8-.1-1.6-.2-2.3-.3-.2,0-.4-.1-.5-.1h-.3c-.8-.1-1.6-.3-2.4-.4-4.1-.7-8.2-1.3-12.2-2.1-.7-.1-1.2-.8-1.2-1.5.1-.6.5-1,1-1.1.3-1,.9-2.2,1.1-2.9,1.8-5.5,3.5-11,6.2-16.2,5.4-13.3,10.7-26.6,15-40.4,4-10.8,8-21.6,11.6-32.6,3.3-11,2.1-7.5,12-8.9-1.4-1.4-2.7-2.8-4-4.2-.5-.2-.9-.6-1-1.1-1.2-.7-.4-2.3-.2-3.4.7-2.8,1.5-5.7,2.7-8.3,2-4.1,3.4-8.4,5.4-12.5.9-1.7,1.7-3.4,2.8-5,1-2.2,1.5-4.2,2.2-6.5.2-.7,1-1.1,1.7-.9.5.1.9.6.9,1.1.2,0,.3.1.5.2,6.2,2,11.3,6,16.4,10.1,2.5,1.5,5.2,2.7,7.6,4.4,1.7,1.1,3.1,2.6,4.8,3.7,6.7,4.6,12.7,10.4,17.8,16.7,2.2,2.9,4.2,6,6.8,8.6,2.4,3.2,5.5,5.8,7.9,9,4,5.3,8.3,10.5,13.1,15.1,3.4,3.4,6.9,7,11.2,9.4,2.7,1.3,5.4,2.5,8.2,3.6.3,0,.7.1,1,.1.2-.2.5-.4.8-.4,1.5-.1,2.9.5,4.3.7,1.8.2,3.6.4,5.3.3.5-1.9,6.6-2.5,8-2.9,2.2-.4,4.4-1.1,6.5-1.8.3-.5.9-.7,1.5-.9,2.2-.9,4.6-1.6,6.8-2.7,2.3-1.1,4.2-2.8,6.5-3.9,4-1.9,8-3.7,12-5.5,4.6-2.2,9.9-3.5,14.7-5.1,10.8-3.9,22.2-6,33.4-8.3,8.3-1.6,16.8-2.9,25.2-4,4.8-.7,9.5-1.6,14.4-1.5,1.1-.2,2.7,0,2.5,1.5,0,.2-.1.4-.2.6,0,.3-.1.6-.3.9-1.3,2.8-2.7,5.6-4.2,8.3,0,0,.1,0,.1.1.9.6,2.1.7,2.9.6h0Z"/>
      <path class="cls-6" d="m325.64,94.65c.9,1,.7,2.2.2,3.3-.3.1-.5.3-.7.5s-.4.4-.5.7c-.6.9-1.2,1.9-1.7,2.9-2,2.6-4.2,5.1-5.8,8-2.1,3.7-4.6,7.2-7.1,10.6-.2.2-.4.4-.7.5.3.5.2,1.2-.2,1.6-1.2,1.8-2.3,3.6-3.5,5.4-.1.5-.5,1-.8,1.5-.1.3-.4.6-.7.9-2.4,3.8-4.7,7.7-6.9,11.6-1.4,2-2.5,4.3-3.5,6.6-3,5.2-6,10.4-8.4,15.9-2.4,6.3-5.2,12.5-7.7,18.8-.4.9-.8,1.8-1.1,2.7-.1,0-.1.1-.1.1-.8,1.6-1.5,3.3-2.2,5q-.4,1.1,0,0c0,.1-.1.1-.2.2,0,.2-.1.3-.1.5-.8,2-1.4,4-2,6-.2.7-.4,1.5-.6,2.2-1.1,2.5-2.3,5-3.4,7.5-.2.9-.4,1.8-.7,2.6-.1.2-.2.5-.4.6-2.2,8-5.4,15.6-8.4,23.3-1.3,3.6-2.8,7.2-3.7,10.9-.5,1.8.1,6.5-3,5-1.1-.4-1.7-1.5-2.6-2-1.2-.4-2.3-1-3.5-1.5.4-.2.7-.7.6-1.2,2-13,5-25.8,8.1-38.6,5.2-21.7,11.1-43.2,19.1-64,6.8-18.4,15-36.3,26.2-52.5.9-1.4,1.8-2.8,2.8-4.1.2-.5.1-1-.3-1.3-.1,0-.1-.1-.2-.1h0c4.6-.1,9.1,0,13.6.4,1,0,1.8,1.1,1.4,2.1-.6,1.3-2.1,2-2.7,3.3,2.1,1.4,4.7.3,7,.8,1.1.2,2.7.4,3.2,1.6v.1c.5.3.8,1.1,1.2,1.6h0Z"/>
      <path class="cls-6" d="m18.44,173.55c.8.1,1.3.9,1.1,1.6h0v.1c0,.1-.1.1-.1.2,0,.2-.1.4-.1.6-.1.4-.2.8-.3,1.2,0,.1,0,.2-.1.2,0,.1,0,.2-.1.3v.1c-.1.6-.3,1.2-.4,1.7q0,.1-.1.2c0,.1-.1.2-.1.3-.2.7-.2,1.6-.4,2.3-.1.4-.2.8-.4,1.1-.3.4-.7.6-1.3.6-.9-.2-1.2-.9-1.1-1.8,0-1,.4-2.1.7-3v-.2c.1-.3.1-.6.1-.8.1-.2.1-.4.2-.7,0-.2.1-.4.1-.6v-.3c.1-.5.2-1,.3-1.5.1-.3.1-.5.2-.7.5-.5,1-1,1.8-.9h0Z"/>
      <path class="cls-6" d="m88.74,177.25v.3c0,.2,0,.3-.1.5-.2.4-.5.7-.9.8-1,.2-2,.4-3,.6h0c-1.5.3-3,.6-4.5.9-10.7,2.2-21.5,3.7-32.3,4.8-.6,0-1.2.1-1.8.1h0c-1.8.1-3.7,0-5.5,0h0c-1.1,0-2.2,0-3.3-.1-3.2.1-6.3.5-9.5.3h-.1c-.6,0-1.2,0-1.9-.1-3.7-.1-7.4-.1-11-.5-1.2-.7-.9-2,.1-2.5.3-.1.7-.2,1-.1h.3c.5.1,1,.1,1.5.2,2.4.2,4.9.1,7.4.2,3.5.2,7,.2,10.5-.2,3.7-.2,7.3.3,11,0,4-.3,7.9-.8,11.9-1.3h0c4.7-.6,9.3-1.3,14-2.2,2.5-.4,4.9-.9,7.4-1.4.3,0,.5-.1.8-.2h0c.6-.1,1.1-.2,1.7-.4,1.5-.3,3-.6,4.5-.9h.5c.2,0,.4.1.6.2s.4.3.5.5c.1.3.2.4.2.5Z"/>
      <path class="cls-6" d="m117.84,173.95c1.5.1,6.3-.7,6.2,1.5,0,.2,0,.4-.1.5-.2.5-.7.8-1.2.8h-4.7c-.5,0-1,0-1.5.1-.3,0-.6,0-1,.1-.3,0-.5,0-.8.1-3.6.3-7.2.8-10.7,1.2h-.1c-.6.1-1.2.1-1.8.2-.3,0-.6.1-.9.1-5.3.1-10.6.3-15.7,1.4-.2,0-.4-.1-.5-.2h0c-.4-.2-.6-.6-.6-1v-.3c.1-.4.3-.8.7-1,.1-.1.3-.1.4-.1h.1c.9-.2,1.8-.4,2.7-.6,1.2-.2,2.4-.3,3.7-.5,2.8-.2,5.6-.2,8.4-.4,1.7-.1,3.3-.2,5-.5,1.4-.2,2.7-.4,4.1-.5,1.3-.2,2.7-.3,4-.4,1-.1,1.9-.2,2.9-.2.2-.3.8-.3,1.4-.3-.1,0,0,0,0,0h0Z"/>
      <path class="cls-6" d="m121.44,174.15c1,0,1.4.8,1.3,1.6-.1.4-.3.8-.7,1-.2.1-.4.2-.7.1h-.3c-1.1-.1-2.2-.1-3.2-.2-.8,0-1.6,0-2.4-.1-9-.1-17.9.8-26.8,1.5-1.5.1-3,.3-4.5.4-1.3.1-2.6.2-3.9.3-.6,0-1.2.1-1.8.1-.5,0-.9,0-1.4.1-1.5,0-3,.1-4.4.2-5.8.4-11.6,1.4-17.5,1.2-4.4.1-8.7,0-13.1-.3-7.4-.4-14.8-1.2-22.2-1.8-.3,0-.7-.1-1.1-.2-.1,0-.2-.1-.4-.1-.1,0-.3-.1-.4-.2s-.3-.2-.4-.4c0,0-.1-.1-.1-.2h0c-.3-.8.2-1.8,1.1-1.9.3,0,.5.1.8.1s.7.1,1,.1h.3c.6.1,1.1.1,1.6.2.4,0,.8.1,1.2.1h0c.2,0,.4,0,.6.1,1.9.2,3.8.4,5.7.6h0c.3,0,.6.1.9.1,1,.1,2,.2,3.1.3.7.1,1.5.1,2.2.2,3.9.3,7.8.5,11.7.6h0c2.5.1,5,.1,7.6.1,4.9.2,9.9-.5,14.8-1h0c2-.2,3.9-.3,5.9-.3h0c.8,0,1.6-.1,2.4-.1,7.3-.4,14.6-1.2,21.9-1.8,3-.2,6-.4,9-.5h.5c1.7,0,3.4-.1,5.1,0,.9,0,1.8,0,2.7.1,1.4-.2,2.6-.2,3.9,0h0Z"/>
      <path class="cls-6" d="m109.44,173.95h0c0,.3-.1.5-.2.7-.2.4-.7.6-1.2.6-2.7.2-5.3.4-8,.5-2.8.1-5.5.1-8.3.3-1.4.1-2.8.2-4.2.3h-.5c-.9.1-1.9.2-2.8.3-1.5.2-3.1.5-4.6.7-1.7.3-3.4.6-5.2.8-1.4,0-3.9,1.4-4.4-.7h0v-.1c0-.2.1-.5.2-.7h0c.1-.2.4-.5.6-.6.1,0,.2-.1.3-.1h0c5.8-1,11.6-2,17.5-2.5,4-.3,8-.1,11.9-.4,2.5-.2,5-.5,7.5-.5.5,0,1,.3,1.2.8.1.1.2.3.2.6h0Z"/>
      <path class="cls-6" d="m80.04,177.75c.2.2.3.5.3.8v.2c-.1.6-.7,1.1-1.3,1.1-1.7-.1-3.5-.1-5.2,0-3,.1-6,.6-8.9,1-.3.3-.8.4-1.3.4-4.1.4-8.2.8-12.2,1.3-4.2,1.1-8.5,1.2-12.7,2-.7.2-1.5.4-2.1-.2-1.4-.1-2.8.8-4.2.5-.2-.1-.4-.2-.5-.3-2.4,0-5,0-7.4-.4-.3,0-.6,0-.9-.1-.2,0-.3-.1-.5-.2-.3.2-.6.3-.9.4-.8.3-1.7-.3-1.8-1.1-.2.2-.5.4-.8.4h-.4c-.5.3-1.1.4-1.7.2-.5-.2-1-.6-1.1-1.2v-.1c0-.8.3-1.6.6-2.4,0-.1.1-.2.1-.2,0-.1.1-.2.1-.3.2-.5.4-1,.7-1.5,0-.1.1-.2.1-.3s.1-.2.1-.3.1-.1.1-.2c.3-.4.6-.8,1-1.1h0c.2-.5.7-.7,1.2-.7h.3c.4.1.8.4,1,.8.2-.3.4-.5.7-.6h0c.6-.3,1.3-.2,1.8.2h0c.2.2.4.6.4,1,.2.1.4.2.6.5h0c.2-.1.4-.2.6-.2.5-.1,1.1.1,1.4.5.7-.3,1.7-1,2.5-1.2h.1c.3-.1.7,0,.9.1,0,0,.1,0,.1.1.2.1.4.4.5.8.5-.1,1.3-.3,2-.5h0c.1,0,.2,0,.3-.1h.3c.7-.1,1.3-.1,1.8.1,0,0,.1,0,.1.1l.2.2h0c.2.2.3.6.3,1,1.4-.2,2.8-.4,4.1-.5h0c.5,0,.9-.1,1.4-.1.3,0,.6.1.9.2.2.1.3.2.4.4.6,0,1.6-.3,2.5-.4h0c.4-.1.8-.1,1.2-.1.8,0,1.3.4,1.5,1.2,1.3,0,3.5-1,4.3.2.1.1.2.3.2.5,4.8-.7,9.7-1,14.5-1.8.8-.1,1.6-.2,2.3-.3,3-.3,6-.4,9-.3.2,0,.4.1.6.2.5-.1.6.1.8.3h0Z"/>
      <path class="cls-6" d="m23.64,180.65c-2.5-.3-5.2-.7-7.6-1.1-1.2-.1-1.5-1.9-.5-2.5.7-.4,1.4-.1,2.2,0,6.4,1,12.9,1.8,19.3,1.1,1.6.1,5-1.6,5.5.5.1.7-.3,1.5-1.1,1.6-5.9,1.2-11.9,1.2-17.8.4h0Z"/>
      <path class="cls-1" d="m25.24,197.45c-1.1-.1-1.4-1.2-1.1-2.2v.2-.1h0c.3-2.7.9-5.3,1.2-8,.1-.7.2-1.5.8-1.9,1.2-1,3,.6,2,1.8-.3,1.4-.4,2.9-.7,4.3-.2,1-.3,2-.5,3-.2,1.2-.1,2.9-1.7,2.9h0Z"/>
      <path class="cls-1" d="m28.04,197.05c-1.4-.1-4.2-.4-3.1-2.5.4-.5,1.2-.7,1.7-.4,3.8,1,7.6-.5,11.5-.7,6.1-.5,12.2-1.5,18.1-2.8,6.8-1.2,13.7-2.9,20.3-4.6,3-.7,5.7-2.2,8.8-2.6,6.3-1.5,12.7-2.7,19-4.1,3.2-.5,6.2-1.7,9.4-2.2,1-.4,2.4-.6,2.7.8.2,1.3-1.1,1.6-2.1,1.9-4.4.9-8.7,2.2-13.1,3-5.9.8-11.5,2.5-17.3,3.7-8.9,3.1-18.1,5.2-27.3,6.9-6.5,1.5-13.3,2.5-20,3-2.8.2-5.7,1-8.6.6h0Z"/>
      <path class="cls-1" d="m34.44,188.95c-2.4,0-4.9-.1-7.3-.4-1.3-.3-1.4-2.2-.1-2.6,2.9,0,6.2.4,9,.3,3.2.1,6.4-.6,9.6-.7,4.8-.3,9.6-.5,14.4-.5,1.2.1,3.1-.4,3.3,1.3,0,.7-.5,1.4-1.3,1.4h-4.5c-7.7,0-15.3,1.2-23.1,1.2h0Z"/>
      <path class="cls-1" d="m30.84,187.75c-.5-2.2,2.6-1.9,4-2.1,3.6-.3,7.1-.4,10.7-.3,5,0,10-.6,15-1.1,4.6-.9,9.2-1.1,13.9-1.3,4.6-.9,9.2-2.2,13.9-2.6,6.3-1,12.7-2.2,19.1-2.5,1,.1,2.3-.4,3.2.3.9.7.3,2.3-.8,2.3-6.8.1-13.4,1.2-20.1,2.4-5.6.4-10.8,2.3-16.3,2.9-9.7.2-19.2,2.6-28.9,2.4-3.7-.1-7.4.1-11.1.5-1,.1-2.2.3-2.6-.9h0Z"/>
      <path class="cls-1" d="m33.24,195.95c-.3-.2-.5-.5-.5-.8-.7.6-1.7,1.1-2.4.4,0,0,0,.1-.1.1-.4.5-1.1.6-1.7.3-.4.2-.8.2-1.2,0-.1-.1-.2-.2-.3-.2-2.5-.2-1-3.2-.6-4.6.4-1.1.9-2.3,1.4-3.4.4-.9,1.9-1,2.4,0,.4.1.7.5.8.9.8-1,2.4-3,3.5-1.3.9-.7,2.3.1,2.1,1.3,1.2-.8,3.3-2.5,4.3-.6,1.4-.8,4.2-2.7,4.8-.1,1.5-.5,6.7-3,7-.4,2.1-.5,4.3-.8,6.5-1,.3,0,.7.1.9.3,9-1,17.7-4,26.6-5,1.8.3,1.5,2.5,0,2.9-2.7.9-5.4,1.7-8.1,2.4-3.3.5-6.7.9-10,1.7-6.4,1.6-12.8,3-19.3,4.1-3.3.7-6.5,1.3-9.8,2.1-.3.1-.5.1-.8,0-.7.3-1.6,0-1.9-.8-1,.5-2.1,2.6-3.6,1.7h0Z"/>
      <path class="cls-1" d="m48.04,181.85c-6.1.1-12.2-.6-18.3-.7-3.3-.1-6.6-.3-9.9-.7-1.4-.3-4.2-.1-4.4-1.9,0-1.2,1.2-1.7,2.1-1.3,4.9,1.1,10.1,1,15,1.2s10,.7,14.9.7c3.5.2,7.1-.4,10.6-.6,3.3-.1,6.8-.5,10.1-1,8.8-1,17.4-2.6,26.2-3.2,5.9-.7,11.9-1.4,17.9-.9,2,.2,3.9.6,5.9.8,1.3.3,3.6.2,3.3,2.1-.2.7-.9,1.2-1.6,1-8.7-2.2-17.6-1.3-26.4-.2-15,1.3-30.3,4.6-45.4,4.7h0Z"/>
      <path class="cls-1" d="m47.14,180.15c-2.8.1-5.5-.4-8.3-.5-2,0-4-.1-5.9-.3-4.8-.4-9.4-1.6-14.2-1.4-1.1-.1-2.4.7-3-.5-.9-3.1,4.9-2.1,6.6-2,5.3.4,10.6,1.6,15.9,1.6,6.1.5,11.8.6,18,.3,6.3-.1,12.6-1.1,19-1.6,6-1.2,12-1.4,18.1-1.8,1.7-.1,7.2-1.5,7.3.8,0,.7-.5,1.4-1.3,1.4-2.3-.1-4.5.3-6.7.5-3.3.3-6.8.3-10,.7-11.9,1.7-23.7,2.8-35.5,2.8h0Z"/>
      <path class="cls-4" d="m332.54,109.75c.2,1-.7,1.6-1.5,1.6-3.3,6.4-6,13.1-9.4,19.5-2.3,4.7-4.1,9.5-6.6,14.1-2.6,5.1-5.6,10.1-8.1,15.2-1.4,4.2-3.5,8.1-6,11.7-1.8,2.8-2.4,6.3-4.9,8.6-.2.2-.4.3-.6.4-.4.8-.8,1.7-1.2,2.5-1.2,3-2.7,6.2-4.3,8.9-1.1,1.7-2.1,3.4-2.9,5.2-.7,1-1.3,3.2-2.6,3.7-1.7,3.1-3.4,6.2-4.8,9.4-4.2,8.8-9.5,17.2-13.4,26.2-2,4-3.2,8.7-6,12-.5.7-1.1,1.7-2.1,1.6-.4,1.2-2.3,1.2-2.6-.2-.1-.8.3-1.6.5-2.4.6-1.8,1-3.7,1.4-5.5.3-1.5.8-3.1,1.2-4.6.1-.1.1-.3.2-.4.7-3.2,1.6-6.3,2.6-9.4,3.5-9.3,7.5-18.4,10.1-28,.2-.7.4-1.4.6-2.2.6-2,1.3-4,2-6,.1-.2.2-.5.3-.7q.1-.1,0,0c.7-1.7,1.4-3.4,2.2-5l.1-.1c.4-.3.8-.4,1.1-.3.9-2.3,1.8-4.6,2.7-6.8,4.3-9,7.5-18.2,12.1-27,.4-1.1.8-2.2,1.3-3.3.9-2.3,2-4.5,3.5-6.6.3-.4.6-.8.9-1.1,1-1.2,1.6-2.9,3-3.7h.1c.5-.9.9-1.7,1.4-2.5,2.3-3.4,4.3-7,6.5-10.5,3.2-4.2,5.7-8.7,8.9-12.8,1.9-3,3.3-6.2,5-9.3.5-1,1.1-2,1.7-2.9.1-.3.3-.5.5-.7s.4-.4.7-.5c.1,0,.2-.1.4-.1,1.8,0,1.5,2.3,2.2,3.4.8,1.8,2.5,3.1,3,5.1.1.2.2.4.2.6.5.2.9.7.7,1.5,0,.1-.1.3-.1.4-.2.5-.2.8,0,1h0Z"/>
      <path class="cls-4" d="m313.04,119.55c-.6-.3-.9-1.2-.6-1.8,1.1-1.9,2.2-3.7,3.5-5.5,1.3-1.5,2-4.1,4.1-4.6,1.7-.1,2.2,2.4.5,2.7-1.6,2.3-3.2,4.6-4.7,6.9-.7,1.1-1.3,3.1-2.8,2.3h0Z"/>
      <path class="cls-4" d="m302.04,84.65c.5.3.6.9.3,1.3-1,1.4-1.9,2.7-2.8,4.1-11.2,16.1-19.4,34.1-26.2,52.5-8,20.8-13.9,42.3-19.1,64-3,12.8-6,25.6-8.1,38.6.1.5-.1,1-.6,1.2-.1,0-.2.1-.3.1-.4,0-.8-.2-.9-.5h0s0-.1-.1-.1-.1,0-.2-.1c-.8-.6-1.4-1.7-1.4-2.7v-.3c0-.2,0-.3.1-.5,0-.2.1-.5.1-.7v-.1h0c.3-2,.9-4,1.1-6.1.6-2.7,1-5.5,1.3-8.2,1.3-6.4,2.8-12.8,3.7-19.3,1.2-9,3.1-17.9,5.4-26.7,1.6-5.9,2.6-12,4.4-17.9,2.7-7.4,5.2-14.9,8.3-22.2.2-.3.3-.6.4-1,.1-.9.7-1.9.7-2.5,1-4.3,2.9-8.3,4.5-12.4h0c.3-.8.6-1.5.9-2.3,3-7.2,6.4-14.1,9.8-21,.5-1,1-2.1,1.5-3.1,1.4-2.5,2.6-5,4.2-7.2.9-1.7,1.5-3.6,2.8-5,.1-.2.2-.4.4-.5,1.8-.6,3.8-.9,5.7-1.3.3-.1.5-.1.8-.2.7-.1,1.5,0,2.2-.1.3,0,.5.1.6.2h0q.4,0,.5,0h0Z"/>
      <path class="cls-3" d="m97.94,111.95c3.3,0,1.6,3.8,2,5.8-.5,6.2-5.1,10.8-8.2,16-1.1,1.7-2.7,3.1-4.2,4.5-1.4,1.3-2.7,3-4.6,3.6-.4.1-.9.3-1.4.4-.6,0-1.2-.1-1.6-.5h0c-2-3-.3-6.5.7-9.6.8-2.1,1.6-4.2,2.6-6.2.5-1,1-2,1.6-3,.2-.1.4-.3.5-.5,2.4-3.2,5.3-6.3,8.9-8.2.5-.3.6-.7.4-1.1.6-.3,1.3-.6,2-.8.4,0,1,.1,1.3-.4h0Z"/>
      <path class="cls-3" d="m96.24,135.35c3.5-6.3,10.6-16.3,7.5-23.6-.2-1.7-1.1-3.3-2.8-4-.9-1.1-2.7-.8-4-.6-2.8.4-5.5,1.2-7.8,2.9-7.6,6.5-14.1,15-15.8,25.1-.7,2.5.1,4.9.6,7.3.1,2.5,2.6,4.1,4.9,4.4,1.9.3,3.7-.4,5.4-1.2,1.4-.7,3.3-1.1,4.5-2.3,3-2.3,5.8-4.7,7.5-8h0Zm155.8-24.9c1.9-1.1,3.1,1.8,1,2.5,0,.1-.1.1-.1.2-5.3,6.9-8,15.1-11,23.1-4.1,10.7-7.5,21.9-9.6,33.1-1.4,6.5-2.2,12.9-2.4,19.4-.2,2-.5,4-.6,5.8,0,.8,0,1.9-.5,2.5.1.1.1.2.2.2v.1c.4.6.2,1.3-.2,1.7-.3.3-.7.5-1.2.4-.3,0-.5-.1-.8-.4-.1-.1-.2-.2-.2-.3-2.1-2-5.7-.6-7.2,1.5-2.3,2.8-3.7,6.1-4,9.7-.3,1.6-.8,3.2-.5,4.8h.1c.2.1.4.3.5.5.2.3.2.6.1,1-.2.6-.7,1-1.3,1-.2,0-.5-.1-.8-.2-.5-.3-1-.6-1.5-.9-.7-.4-1.3-.9-2-1.3-4.2-2.9-8.2-6-12.1-9.2-4-3.3-8.4-6.5-11.9-10.4-.5-.6-1-1.1-1.5-1.7,0-.1,0-.2-.1-.3-2.1-1.6-4.1-3.2-6.2-4.8-7.4-6-15.2-11.5-23.2-16.6-4-1.8-7.8-4.3-11.9-5.8-.3-.1-.5-.3-.6-.5-4.2-1.5-8.5-2.5-12.9-3.2-2.5-.4-5-.6-7.5-.8-1.2-.2-2.4-.3-3.6-.4-7.4-.6-14.8-.5-22.2.1-.1.1-.3.2-.5.2-1.8.3-3.7.4-5.6.7-2.1.4-4.1.9-6.2,1.4s-4.3.9-6.4,1.1c-2.9.2-5.8.2-8.6.1h-6.4c-7.4-.3-14.7-.7-22.1-.7h.1-.1c-.1,0-.3.1-.5.1-.7-.1-1.1-.4-1.2-.9h0c-.2-.5-.1-1.2.1-1.8.1-.5.2-1,.3-1.4.5-1.9,0-3.8,0-5.7,0-2.9-1.7-5.3-3.1-7.7-.7-.9-1.3-1.9-2.4-2.3-.8-.2-1.6-.4-2-1.1-.3-.5-.2-1.2.2-1.6v-.1c1.2-2.5,2.2-5.1,3.1-7.6,3.9-10.1,7.7-20.1,12.1-30,.6-1,.8-3,1.7-3.7,0-.2,0-.5.1-.7.5-1,.9-2.1,1.4-3.2.1-.2.3-.4.5-.5,0-.2,0-.5.1-.7,1.3-3,2.6-5.9,3.7-8.9.4-1,.7-2.1,1.1-3.1.4-1.2.9-2.4,1.3-3.6.5-1.2.8-2.5,1.2-3.8.5-1.3,1-2.6,1.5-4,.3-.6.6-1.3.9-1.9.3-.5.7-1,1.2-1.2.7-.2,1.4,0,1.8.6.2.3.3.7.4,1.1,0,.2.1.5.1.7.1.2.1.4.2.5.6.6,1.2,1.2,1.7,1.7,0,0,.1,0,.1.1h0c.2.2.4.4.6.5.1.1.2.1.3.2.1,0,.2.1.3.2.6.2,1.1.4,1.7.5s1.1.2,1.7.3h.6c.1,0,.2-.1.3-.1.3-.1.6-.3.8-.4.7-.5,1.3-1,1.9-1.4.4-.3.7-.7,1.1-1,.3-.3.6-.6.8-.9.3-.5.6-.9.9-1.4.1-.2.2-.5.3-.7.1-.3.2-.6.3-1,.1-.5.2-1,.2-1.6.1-.6.2-1.2.3-1.9v-.9c0-.2,0-.5-.1-.7,0-.1-.1-.3-.1-.5h0c-.4-.4-.5-1-.3-1.5.1-.2.2-.4.3-.5.3-.3.9-.5,1.3-.3.5.2.8.6,1.1,1.1,0,.1.1.2.1.2,0,.1.1.2.1.4,3.7,3.4,7.6,6.6,11.4,9.9.6.5,1.2,1,1.8,1.6,3.8,3.1,7.2,6.6,10.8,9.8,1.2,1.2,2.6,2.1,3.6,3.5.1.2.2.5.1.8,0,.3-.1.5-.3.7,4.2,3.7,8.1,7.8,12.5,11.4,4.6,4.9,9.5,9.6,15.5,12.9,1.8.8,3.4,2.3,5.4,2.9.4,0,.9.1,1.2.5.3.3.4.7.3,1.1,5.1,1.9,10.5,2.9,16.2,4,1.9.2,4.1,0,6,.1.6-.1,1.4-.1,1.9.4,6.8.4,13.4-1.7,19.7-4.3,5.6-2.3,11-4.5,16.4-7,3.6-1.8,7.4-3.7,11.2-5,9.4-4.1,19.4-6.9,29.1-10.2.2-.1.4-.1.6,0,.1-.1.2-.2.3-.2.3-.2.5-.2.8-.2.9.1,1.6,1.2,1,2.1h0l-.1.1c-.2.2-.3.4-.5.6-1,1.2-1.3,2.8-1.9,4.3-.2,1.6-.5,3.4-.3,5h0c.2,1.2.6,2.3,1.7,3.1,1.2,1,2.5,2.1,4.1,1.8.5,0,1-.1,1.4-.3.3-.1.6-.1.8-.1.3-.5.4-.6.7-.8h0Z"/>
      <path class="cls-2" d="m84.94,95.75c.6-.1,1.2.3,1.2,1-.4,2-1.8,4-2.6,5.8-5,9.9-10.4,19.5-15.7,29.1-.8,1.5-1.8,3.2-2.5,4.6-.7,1.2-1.8,3.9-3,5.8,0,.1.1.1.1.2.1.7-.4,1.3-.7,1.9-.3.5-.9.7-1.4.5-.3-.1-.5-.4-.5-.6h-.1c-3.1,0,.3-4.3.8-5.6,3.5-7.5,7.5-15,11.8-22.1,1.1-2.3,2.3-4.5,3.5-6.8.9-1.8,3.3-5.8-.8-3.8-1.4.7-2.8,1.6-4.3,2.1-.3.2-.6.2-.9.1-.7-.2-.9-1-1.1-1.7s-.5-1.5-.5-2.2c0-.4.5-.8.9-.9,1.1-.3,2-.9,3-1.3,3.8-1.2,7.2-3,10.9-4.6.5-.5,1.1-1.1,1.9-1.5h0Z"/>
      <path class="cls-2" d="m99.94,117.75c-.4-2,1.3-5.9-2-5.8-.3.5-.9.5-1.4.4-.7.2-1.3.5-2,.8.1.4.1.9-.4,1.1-3.6,1.9-6.5,5-8.9,8.2-.1.2-.3.4-.5.5-.6,1-1.1,2-1.6,3-1,2-1.8,4.1-2.6,6.2-1,3.1-2.7,6.6-.7,9.6h0c.4.4,1,.5,1.6.5.5,0,1-.3,1.4-.4,2-.5,3.2-2.2,4.6-3.6,1.5-1.4,3-2.8,4.2-4.5,3.2-5.2,7.8-9.8,8.3-16h0Zm3.9-6c3.1,7.3-4,17.3-7.5,23.6-1.8,3.3-4.6,5.7-7.3,8.1-1.3,1.1-3.1,1.6-4.5,2.3-1.6.8-3.5,1.5-5.4,1.2-2.3-.3-4.8-1.9-4.9-4.4-.5-2.5-1.3-4.8-.6-7.3,1.6-10.1,8.1-18.6,15.8-25.1,2.2-1.7,5-2.5,7.8-2.9,1.3-.1,3.1-.5,4,.6,1.5.6,2.3,2.2,2.6,3.9h0Z"/>
      <path class="cls-2" d="m106.54,150.75c-6-1.4-5.2-9.5-3.1-13.8,2.7-6.4,6.6-12.2,11.9-16.7,2.8-2,6.8-3.9,10.2-2.4.3.2.7.5.7.9.4.6.5,1.1.9,1.7.2.3.4.6.5.9.1.8.2,1.5.2,2.3-.4,6.4-4.1,12-7.4,17.2-1.8,2.5-4.4,4.4-6.6,6.5-1,.9-1.8,1.9-3,2.5-1.4.5-2.8.9-4.3.9h0Zm.3-1.9c1.1-.2,2.3-.3,3.4-.8.8-.5,1.5-1.3,2.2-2,2.3-2.2,4.9-4.1,6.8-6.7,2.6-4.4,5.7-8.9,6.5-14,.2-1.1.3-2.3.1-3.5-.5-.7-.9-1.5-1.2-2.4-6.4-1.4-11.1,5-14.6,9.4-2.9,5.1-6.8,10.6-6,16.8.4,1.3,1.3,3.1,2.8,3.2h0Z"/>
      <path class="cls-2" d="m107.54,147.15c-5.5-.2-.6-11.7.9-14.3,3.2-5.3,6.9-11.7,13.3-13.3,1.9-1.8,3.7,3.2,3.8,4.6.1.9-.1,1.7-.4,2.5-1.4,3.8-3.5,7.4-5.7,10.8-2.8,4.3-6.4,9.2-11.9,9.7h0Zm.4-1.9c5.5-1.3,8.6-6.7,11.4-11.2,1.5-2.5,2.8-4.8,3.8-7.5.5-1.1.7-2.4.2-3.5-.2-.4-.3-.7-.5-1.1-.1-.2-.2-.3-.3-.5-6.8.3-17,17.3-15.4,23.7h0c.3.1.5.1.8.1h0Z"/>
      <path class="cls-2" d="m105.44,148.45c-1.2-.6-1.6-2-1.8-3.2-1.1-5,1.8-9.6,4-13.8,2.6-5.3,7.9-13.8,14.8-12.6,2.1-.7,3.3,1.2,4.1,2.9,3.2,6.8-13.3,30.7-21.1,26.7h0Zm2.2-1.4c2.1-.2,3.8-1.6,5.2-3,3.9-3.4,7.3-7.5,9.6-12.2,1.5-3.4,4.3-7.9,1.3-11.2h-.2c-.9.5-1.9-.3-2.9-.1-5,1.4-8,6-10.4,10.3-1.8,3.9-4.7,7.6-4.8,12.1.2,1.5,0,4.2,2.2,4.1h0Z"/>
      <path class="cls-5" d="m2.34,173.85c-.5-.2-.7-.8-.5-1.2,1.3-3.3,2.5-6.7,3.8-10,2.1-5.4,4.1-10.9,6.2-16.3,2.2-5.7,4.3-11.3,6.5-17s4.4-11.5,6.5-17.2c2.2-5.9,4.5-11.8,6.7-17.7,2.2-5.8,4.4-11.6,6.6-17.4,1.1-2.9,2.2-5.8,3.3-8.6.2,0,.4-.1.7-.1h1.5c-1.4,3.8-2.9,7.5-4.3,11.3-2.2,5.8-4.4,11.6-6.6,17.5-2.2,5.8-4.4,11.5-6.6,17.3s-4.4,11.5-6.6,17.3c-2.2,5.7-4.3,11.4-6.5,17-2,5.3-4,10.6-6.1,16-1.1,2.9-2.2,5.8-3.3,8.7-.1.4-.5.6-.9.6-.1-.1-.2-.2-.4-.2h0Z"/>
      <path class="cls-5" d="m43.64,65.25h.1c-.2-.1-.3-.2-.5-.2-.2-.1-.3-.1-.5-.2.6-1.7,1.3-3.4,1.9-5.1,2.2-5.9,4.5-11.7,6.7-17.6,1.9-5.1,3.9-10.2,5.8-15.2.2-.5.8-.7,1.2-.5s.7.8.5,1.2c-2.2,5.6-4.3,11.3-6.4,17-2.2,5.8-4.4,11.6-6.6,17.5-.5,1.2-.9,2.4-1.4,3.6-.2-.2-.5-.4-.8-.5h0Z"/>
      <path class="cls-5" d="m162.24,110.55c-5.2-.3-10.4-1.8-15.3-3.5-1.3-.6-2.5-1.4-3.7-2.2-.4-.3-.6-.9-.3-1.3.9-1.2,2.1.4,3,.7,2.2,1.5,4.7,2,7.2,2.6,5,1.6,10.6,2.4,15.7,1.1,7.3-2.2,14.6-5,21.5-8.2,7.3-3.9,14.7-7.5,22.6-10,10.9-4.3,22.2-7.6,33.7-10,4.2-.8,8.2-2.1,12.3-2.9,5.5-.7,10.8-1.9,16.3-2.5,3.7-.3,7.2-1.1,10.8-1.5,3.7-.3,7.4-.3,11.1-.6.6,0,1.4-.1,1.7.5.3.4.2,1-.2,1.3-3.6.5-7.3.4-10.9.6-3.1.1-6.2.9-9.3,1.3-8.7,1.1-17.8,2.3-26.3,4.5-4.9,1.2-9.9,2.1-14.7,3.5-6.3,1.6-12.6,3.2-18.5,5.7-6.3,2.3-12.7,4.4-18.8,7.3-7.3,3.8-14.6,7.4-22.4,10.1-4.6,1.7-9.3,3.6-14.2,3.6-.4-.1-.9-.1-1.3-.1h0Z"/>
      <path class="cls-5" d="m143.74,105.25c-8.8-7-16.1-15.6-23.1-24.2-5.7-7.2-10.9-15-17.3-21.5-6.7-7.4-15-13.3-23.2-18.8-6.7-4.1-13.5-8.6-20.7-11.8-.9-.6-3.2-.7-2.5-2.3.8-1.2,2.3.3,3.4.5,5.1,2.2,9.7,5,14.4,7.9,9.2,5.6,18.2,11.7,26.1,19.1,8.8,8.3,15.5,18.4,23.1,27.7,4.6,5.3,8.8,10.8,14.1,15.5,2.2,2.1,4.4,4.4,6.8,6.2.9.5.4,1.8-.5,1.8-.2.1-.4,0-.6-.1h0Z"/>
      <path class="cls-5" d="m242.74,246.25c-1.7-.2-.6-2.7-.7-3.9.7-7,2.1-13.9,3.4-20.8,1.4-7.2,1.9-14.5,3.4-21.6,1.9-8.1,3.6-16.1,5.2-24.3,1.8-7.3,4.9-14.2,6.9-21.4,2.4-6.5,5-12.7,6.7-19.5,1.2-3.9,3-7.5,4.5-11.3,1.3-3.4,2.4-7,4.1-10.3,2.7-4.8,4.5-10,7.1-14.8,2.8-4.7,4.9-9.7,8.1-14.2,2.3-3.4,4.1-7.1,5.6-10.9.1-.4.5-.7.8-.7,1.9.1.6,2.2.2,3.2-1.7,3.7-3.5,7.3-5.9,10.6-4,6.9-8,13.9-11.1,21.3-2.7,5.4-5.3,10.8-7.2,16.5-1.1,2.7-2.4,5.3-3.4,8-1.6,4.1-2.5,8.4-4,12.6-2.2,5.6-4.3,11.2-6,17-2.2,6.1-4.6,12.2-5.6,18.6-1.2,7.2-3.2,14.3-4.6,21.5-1.6,10.8-3.2,21.5-5.3,32.2-.5,3.7-1.1,7.4-1.3,11.2.1.6-.3,1-.9,1h0Z"/>
      <path class="cls-5" d="m242.04,246.55c-5.5-.6-10.8-2-16-3.9-5.7-2.2-10.5-5.7-15.5-9-5.3-3-10-6.8-14.7-10.7-3.4-2.5-6.5-5.3-9.5-8.3-2.5-2.2-5.1-4.2-7.2-6.8-4-4.2-8.7-7.6-12.9-11.5-5.2-3.9-10.8-7.1-16.3-10.4-10.9-6-23.2-9.5-35.5-11.1-8.9-.4-17.9-.2-26.7.8-5.1.5-10.1.2-15.1,1.2-4.6.9-9.2.8-13.8,1.4-2.4.3-4.9.7-7.3.7-.5,0-1-.5-1-1,.1-1,1.1-1,1.8-1,5.5-.5,11-1.3,16.5-1.5,4.9-.8,10-1.5,15-1.5,10.2-.9,20.6-1.7,30.8-1,14.6,1.8,29.1,6.4,41.5,14.4,5.1,3.2,10.5,6.2,14.8,10.5,3.5,3.2,7.5,6,10.5,9.6,3.2,3.4,7,6.2,10.2,9.6,3.6,3.2,7.6,5.9,11.2,9.1,3.2,2.7,7,4.6,10.5,7,5.8,4.2,12.1,7.9,19.1,9.5,3.5,1,6.9,1.7,10.5,2,.6.2.9.9.6,1.5-.2.3-.6.5-1,.5-.1,0-.3,0-.5-.1h0Z"/>
      <path class="cls-5" d="m5.34,174.45c-1-.2-1.9-.3-2.9-.5-.5-.2-.8-.7-.7-1.2.4-1.2,1.8-.5,2.7-.4,10.9,1.8,21.9,3.8,33,4.5,2.2,0,4.4.1,6.7.2,3,.2,6,.3,9,.1.5,0,1,.3,1.1.8.1,1.3-1.7,1.2-3.1,1.2h-1.2c-15.1,0-29.8-2.1-44.6-4.7h0Z"/>
      <path class="cls-5" d="m14.04,185.55c-.5-.1-.9-.6-.8-1.1.7-2.8,1.5-5.5,2.2-8.3.1-.2.1-.4.1-.5.1-.5.6-.9,1.1-.8s.9.6.8,1.1c-.7,2.8-1.5,5.6-2.2,8.4,0,.2-.1.3-.1.4-.1.5-.5.8-.9.8,0,0-.1,0-.2,0h0Z"/>
      <path class="cls-5" d="m14.04,185.75c-1.3-.7-.1-2.7,1.1-1.7,16.6,1,33.2.1,49.7-1.7,9.6-1.1,19-3.3,28.6-4.3,10.4-1,20.8-2.6,31.3-2.5h.8c.9,0,1.8-.1,1.9,1,0,.5-.4,1-.9,1-8.1-.1-16.2.7-24.2,1.6-11.8.9-23.4,3.3-35.1,5-14.2,2-28.6,2.3-42.9,2.4-3.6-.3-7.1-.1-10.3-.8h0Z"/>
      <path class="cls-5" d="m23.04,198.05c-.5-.1-.9-.6-.8-1.1.6-3.3,1.2-6.5,1.8-9.8.1-.4.2-.8.2-1.2.1-.5.6-.9,1.1-.8.5.1.9.6.8,1.1,0,.3-.1.5-.2.8-.1.5-.2,1-.3,1.5-.2.9-.3,1.9-.5,2.8-.3,1.7-.6,3.4-1,5.1l-.1.5c0,.1,0,.2-.1.3-.1.5-.5.8-.9.8q.1.1,0,0h0Z"/>
      <path class="cls-5" d="m23.14,198.15c-.7-.1-1-1.1-.5-1.6.2-.2.6-.3.9-.3,1.6.1,3.3.3,4.9.3,9.6-1,19-2.5,28.4-4.5,14-3.3,28-6.1,42-9.4,10.2-2.8,20.2-7,31-6.5.9.1,2.6-.1,2.5,1.2-.1.5-.5.9-1.1.9-.8-.1-1.5-.2-2.2-.2-11-.2-21.2,4.4-31.7,7-8,2-16.2,3.6-24.3,5.3-15,3.7-30.3,7.1-45.7,8.2-1.4-.2-2.8-.2-4.2-.4h0Z"/>
      <path class="cls-5" d="m318.14,86.35c-4.2-.2-8.4-.9-12.6-1-4.2,0-8.4.4-12.5.9-1.2.4-1.9-1.3-.7-1.8,7.4-1.3,15-1.3,22.4-.3.4.1.9.1,1.5.1,1.4,0,3.1,0,3.1,1.3-.1.5-.5.8-.9.8-.2.1-.3.1-.3,0h0Z"/>
      <path class="cls-5" d="m258.14,253.25c-3.4-1.5-6.8-3.1-10.2-4.5,0,0-.1-.1-.2-.1h-.1c-.1,0-.2-.1-.2-.1h0c-.1,0-.2,0-.2-.1h-.1c-.2-.1-.4-.2-.6-.2h0c-1.7-.6-3.4-1.2-5.1-1.7-1.2-.7-.2-2.4,1-1.7,5.5,1.3,10.4,4.2,15.7,6.3.7.3,1.9.8,1.4,1.8-.2.3-.5.6-.9.6-.3-.2-.4-.2-.5-.3h0Z"/>
      <path class="cls-5" d="m247.44,248.45h0c-.1,0-.2,0-.2-.1h-.1c-.2-.1-.3-.1-.4-.2-.2-.2-.2-.6-.1-.9,0-.1.1-.2.2-.3,1-9.9,3.5-19.7,6.5-29.2,2.8-9.3,5.6-18.7,8.5-28,6.2-19.3,13.1-38.5,22.4-56.6,6.7-13.5,15.4-25.8,24.3-37.9,2.7-3.4,5.8-6.5,8.7-9.7.3-.6,1.2-1,1.8-.4.9,1.2-1.5,2.7-2.2,3.6-2.4,2.5-4.7,5-6.9,7.7-9.6,12.9-18.8,26.3-25.7,40.9-14.1,28.8-22.7,59.9-31.9,90.6-1,4.8-2.2,9.6-2.9,14.4-.2,1.3-.3,2.6-.5,3.9.1.8-.2,1.9-1,2-.4.2-.5.2-.5.2h0Z"/>
      <path class="cls-5" d="m324.64,92.45c-2.5-.3-4.9-.5-7.3-.8-1.1-.1-2.2-.2-3.2-.3-.5,0-.9-.5-.9-1s.5-1,1-.9c3,.3,5.9.6,8.9,1,.6.1,1.1.1,1.7.2.5.1.9.5.9,1-.1.3-.6.8-1.1.8h0Z"/>
      <path class="cls-5" d="m252.94,249.55c.6-4.4,1.8-8.7,2.8-13.1,1.4-7.6,3.4-15,5.1-22.4,2.4-9.7,5.8-19.2,9-28.7,6.5-17.2,13.8-34.3,23.1-50.2,6.8-12.4,15.3-23.6,23.7-34.9,2.1-2.9,4.3-5.8,6.7-8.5.3-.5.8-.7,1.3-.4,1.2.8,0,2-.7,2.7-3,3.3-5.4,6.9-8,10.4-10.8,14.1-20.6,28.9-28.4,44.8-8.6,17.4-15.8,35.5-21.6,54.1-4.7,15-7.5,30.5-11,45.8,0,.7-.2,1.3-1,1.4h0c-.5-.1-1-.5-1-1h0Z"/>
      <path class="cls-5" d="m332.14,109.45c-1.2-2.5-2.4-4.9-3.6-7.4-1.6-3.2-3.1-6.3-4.7-9.5-.1-.1-.1-.3-.2-.4-.2-.5,0-1.1.5-1.3.5-.2,1,0,1.2.4h0v.1c1.5,2.9,2.9,5.9,4.3,8.8,1.4,2.8,2.7,5.5,4.1,8.3,0,.1.1.1.1.2.2.5,0,1.1-.5,1.3-.1,0-.2.1-.4.1-.3,0-.6-.2-.8-.6h0Z"/>
      <path class="cls-5" d="m258.14,252.85c-.5-.3-.6-.8-.3-1.3.4-.8.8-1.6,1.2-2.4l3-5.7c2.5-4.9,5.1-9.7,7.6-14.6,2.7-5.1,5.3-10.2,8-15.3,2.7-5.2,5.4-10.4,8.1-15.6l8.1-15.6,8.1-15.5c2.7-5.1,5.3-10.2,8-15.4,2.7-5.1,5.3-10.2,8-15.4,2.5-4.8,5-9.6,7.5-14.4,2.2-4.2,4.4-8.4,6.6-12.6h0c.2-.5.9-.6,1.3-.4.5.3.6.9.3,1.3-.3.6-.6,1.2-.9,1.8-.6,1.1-1.2,2.3-1.8,3.4-1.2,2.3-2.4,4.7-3.7,7l-7.5,14.3c-2.7,5.2-5.4,10.3-8.1,15.5-2.6,5.1-5.3,10.1-7.9,15.2-2.7,5.2-5.4,10.5-8.2,15.7-2.7,5.2-5.4,10.3-8.1,15.5s-5.4,10.5-8.2,15.7c-2.6,5.1-5.3,10.2-7.9,15.2-2.5,4.9-5.1,9.8-7.6,14.7-1.5,2.9-3,5.7-4.5,8.6h0c-.2.3-.5.5-.8.5,0-.1-.2-.1-.3-.2h0Z"/>
      <path class="cls-5" d="m254.64,250.85c-.5-.1-.8-.6-.7-1.2.3-1.3.6-2.7.9-4,.4-1.5.7-3.1,1.1-4.6.5-1.6.9-3.1,1.3-4.7.4-1.6.9-3.2,1.3-4.8.3-1,.6-2,.9-3,.2-.7.5-1.5.8-2.2.3-.8.6-1.6.9-2.4.6-1.5,1.1-3,1.7-4.5.6-1.6,1.3-3.1,1.9-4.6s1.2-2.9,1.7-4.4c.6-1.6,1.1-3.2,1.7-4.8.5-1.5,1.1-3.1,1.6-4.7.5-1.5,1-3,1.6-4.5.6-1.6,1.2-3.2,1.8-4.8.6-1.5,1.2-2.9,1.7-4.4.6-1.5,1.2-3,1.9-4.5,1.3-3,2.5-6.1,3.8-9.1.9-2.1,1.9-4.1,2.9-6.1.9-1.9,1.8-3.8,2.8-5.8.4-.9.8-1.8,1.2-2.7.4-.8.7-1.6,1-2.3.1-.2.1-.3.2-.5l.1-.1s0-.1.1-.1c.1-.1.1-.3.2-.5,0-.1.1-.3.2-.4h0c.3-.7.7-1.4,1-2,.4-.8.8-1.6,1.3-2.4.8-1.4,1.6-2.9,2.4-4.3s1.6-2.9,2.3-4.3,1.6-2.8,2.5-4.2c.8-1.4,1.7-2.8,2.5-4.2.7-1.3,1.4-2.6,2.2-3.9.8-1.4,1.7-2.7,2.6-4,.5-.7.9-1.3,1.4-2,.4-.6.9-1.3,1.2-1.9,1-1.7,2.1-3.4,3.2-5,.6-.8,1.2-1.6,1.8-2.4.5-.8,1.1-1.6,1.6-2.4.8-1.4,1.7-2.8,2.6-4.1.9-1.3,1.9-2.7,2.9-4,.9-1.3,1.7-2.6,2.7-3.9.8-1.1,1.8-2.2,2.7-3.2l.2-.2c0-.5.3-.9.8-1,.4-.1.8,0,1.1.3.3.3.4.7.2,1.1-.1.2-.2.4-.4.5-.8.8-1.6,1.7-2.3,2.5h0c-.7.8-1.3,1.7-1.9,2.5-.7,1-1.3,1.9-2,2.9-1.3,1.8-2.7,3.7-3.9,5.6-1,1.7-2.1,3.5-3.3,5.1-.7.9-1.3,1.8-1.9,2.7-.6.8-1.1,1.7-1.7,2.5-.8,1.4-1.7,2.7-2.6,4-.5.7-1,1.4-1.5,2.1s-.9,1.3-1.3,2h0c-.4.7-.8,1.4-1.2,2.1-.4.8-.8,1.5-1.2,2.3-.8,1.5-1.7,2.9-2.5,4.2-.8,1.3-1.7,2.6-2.4,4-.8,1.5-1.7,3.1-2.5,4.6-.8,1.4-1.6,2.8-2.3,4.2-.5.8-.9,1.7-1.4,2.5-.4.7-.8,1.5-1.1,2.2-.1.1-.1.3-.2.4,0,0,0,.1-.1.1,0,0,0,.1-.1.1-.1.1-.1.3-.2.5s-.2.3-.2.4v.1c-.6,1.2-1.1,2.5-1.6,3.7-.6,1.4-1.3,2.8-1.9,4.2-1.2,2.6-2.5,5.1-3.7,7.7-1.3,3-2.5,6.1-3.8,9.1-.6,1.5-1.3,3-1.9,4.6-.6,1.5-1.2,3-1.8,4.4-.6,1.6-1.2,3.1-1.8,4.7-.5,1.5-1,3-1.6,4.5-1.1,3.2-2.2,6.3-3.3,9.5-1.1,3.1-2.4,6.1-3.6,9.1-.6,1.5-1.2,2.9-1.7,4.4-.6,1.6-1.2,3.1-1.8,4.7-.1.3-.2.7-.3.9-.1.3-.2.7-.3.9-.5,1.5-.9,3.1-1.3,4.7-.4,1.5-.8,3.1-1.3,4.6-.5,1.6-.9,3.1-1.3,4.7-.4,1.5-.7,3-1.1,4.6-.1.5-.2,1-.3,1.5h0c-.1.4-.5.8-1,.8q-.1.4-.2.3h0Z"/>
      <path class="cls-5" d="m255.84,251.05c.3-2.9,1.5-5.7,2.4-8.5.9-3.8,2.5-7.3,3.7-11,5-15.8,12.9-30.5,19.9-45.5,6.5-15,13.2-29.9,21-44.3,7.2-13.3,15.5-25.9,24-38.4.4-.5.8-1,1.2-1.5.2-.5.8-.7,1.3-.5,1.6,1-.6,2.5-1.1,3.4-11.8,17.3-23.2,35.1-31.9,54.2-4.6,9.7-9.2,19.3-13.3,29.2-5.4,10.8-10.5,21.7-15.3,32.8-2.7,7.3-5.5,14.6-7.7,22.2-.8,2.6-1.9,5.2-2.3,7.9-.1.5-.5.9-1,.9-.5-.1-.9-.5-.9-.9h0Z"/>
      <path class="cls-5" d="m257.04,250.95c2.3-9,6.4-17,10.3-25.4,4.1-10.1,8.8-19.8,13.5-29.6,3.6-8,7.2-16,11.2-23.8,3.6-6.9,7.9-13.5,11.3-20.5,8.5-15.1,16.4-30.6,26-45,.5-.7.7-2,1.8-1.5,1.5,1-.4,2.7-1,3.7-9.2,14.7-17.5,30-25.8,45.2-3.4,6.8-7.6,13.1-11,19.9-4.2,7.9-7.6,16.1-11.4,24.1-2.1,4.9-4.6,9.7-7,14.5-2.1,5-4.2,10.1-6.5,15.1-2.8,6.4-6.4,12.5-8.2,19.3-.4,1.3-.8,2.8-1.4,4-.1.4-.4.8-.8.8h-.1c-.4.1-.9-.3-.9-.8h0Z"/>
      <path class="cls-5" d="m64.94,73.45c-1.3-1.4-2.1-3-2.7-4.8-.2-.6-.4-1.3-.5-1.8,0-.1-.1-.3-.1-.4-.1-.5.3-1,.8-1.1s1,.3,1.1.8v.2h0c.2.7.4,1.4.7,2.1.2.5.5,1.1.7,1.6.2.4.5.8.8,1.2.2.3.5.6.7.9.2.2.5.5.7.7.2.1.3.2.5.4.2.1.4.2.7.3.2.1.3.1.5.2.2,0,.3.1.5.1h1.1c.2,0,.4-.1.5-.1.2,0,.3-.1.5-.2s.5-.2.7-.3c.2-.1.4-.2.6-.4.3-.2.5-.4.8-.6.3-.3.6-.6.9-1s.6-.8.8-1.1c0-.1.1-.1.1-.2.3-.6.6-1.2.9-1.8.3-.8.6-1.5.8-2.3.2-.9.4-1.9.6-2.7.1-1,.2-2,.2-3v-.7c0-.5.4-1,.9-1s1,.4,1,.9c0,1.7-.1,3.4-.5,5.1-.4,1.9-1,3.8-1.9,5.6-.1.2-.2.4-.3.6-.1.1-.1.2-.2.4h0c-.1.2-.2.3-.3.5-.3.4-.6.8-.9,1.2-1.3,1.6-3.2,2.9-5.3,3.1h-.4c-1.9,0-3.7-1-5-2.4h0Z"/>
      <path class="cls-5" d="m249.34,111.95c-8.3-1.2-7.9-10-3.9-15.5.7-1.1,3-5.2,4.6-4.1,1,1.2-.9,2-1.5,2.8-1.2,1.6-2.3,3.4-3.1,5.2-3.2,8.1,2.5,11.2,9.9,9,.5-.1,1,.3,1.1.8s-.3,1-.8,1.1c-1.7.3-3.4.8-5.1.8-.4-.1-.8-.1-1.2-.1h0Z"/>
      <path class="cls-5" d="m215.14,219.35c-.8-3-.8-6.3-.5-9.4.4-2.4.7-5,2.1-7.1,2.8-4.5,8-7.6,12.2-2.8.7,1-.7,2.1-1.5,1.2-3.2-3.6-6.9-.7-9,2.5-2,3.2-2.1,7.2-2.1,10.9h0c.1,1.3.3,2.6.5,3.9.2.5,0,1-.4,1.2-.1.1-.3.1-.5.1-.3,0-.6-.2-.8-.5h0Z"/>
      <path class="cls-5" d="m227.74,200.95c-.4-.9.2-1.8.2-2.7.7-4.8,1.5-9.5,2-14.3,2.1-14.7,4.8-29.3,9.9-43.2,3.5-10,7-20.5,13.2-29.2.3-.5.7-1.1,1.1-1.5.9-.9,2.3.5,1.4,1.4-.6.7-1,1.5-1.6,2.2-5.5,8.2-8.8,17.8-12,27-3.4,9.7-6.1,19.7-7.9,29.8-1.3,7.4-2.3,14.8-3.3,22.3-.4,2.6-.8,5.2-1.3,7.8.1.6-.5,1-1,1-.2-.2-.5-.3-.7-.6h0Z"/>
      <path class="cls-5" d="m37.84,164.95c-.6-.2-.7-.9-.4-1.4,1.6-6.7,1.3-16.4-6.3-19.2-1,0-1.2-1.7-.1-1.9,1.3,0,2.4.8,3.5,1.5,5.5,3.8,6.1,11.3,5.3,17.4-.4,1-.1,3.7-1.6,3.7-.1,0-.2-.1-.4-.1h0Z"/>
      <path class="cls-5" d="m30.74,143.85c-.5-.2-.7-.8-.5-1.3,1.3-3.4,2.7-6.7,4.1-10,1.6-3.9,3.1-7.7,4.7-11.6,1.5-3.8,3.1-7.6,4.6-11.4,1.6-3.8,3.1-7.6,4.7-11.5,1.6-3.8,3.1-7.7,4.7-11.5,1.5-3.7,3-7.5,4.6-11.2,1.3-3.1,2.5-6.2,3.8-9.3,0,0,0-.1.1-.1.2-.5.8-.7,1.3-.5s.7.8.5,1.3c-1.2,3-2.4,6-3.6,8.9-1.5,3.7-3,7.5-4.5,11.2-1.6,3.8-3.1,7.7-4.7,11.5s-3.1,7.7-4.7,11.5c-1.5,3.8-3.1,7.5-4.6,11.3-1.6,3.9-3.2,7.8-4.7,11.7-1.4,3.5-2.8,7-4.2,10.4,0,0-.1.1-.1.2-.1.4-.5.6-.9.6-.3-.1-.4-.2-.6-.2h0Z"/>
      <path class="cls-5" d="m166.54,121.45c-9.8-.4-19.7-2.3-28.4-7-10-6.2-18.2-14.7-26.5-22.9-7.8-7.6-15.7-15.1-23.8-22.5-2.7-2.5-5.4-5.1-8.2-7.6-.6-.5-1.5-1-1.5-1.8,0-.5.5-.9,1-.9.7.1.9.7,1.4,1,3.2,2.8,6.3,5.9,9.4,8.8,8.8,7.9,17.3,16,25.6,24.4,7.9,7.4,15.5,15.6,25.1,20.8,3.7,1.6,7.6,3,11.5,4.1,5.1,1.2,10.6,1.5,15.8,1.8,6.6.2,13.1-1.9,19.1-4.4,6.5-3.2,13.2-6.1,19.8-8.9,9.6-4.3,19.4-7.8,29.6-10.5,2.5-.7,5.2-1.3,7.7-1.9,1.3-.3,2.6-.8,3.9-1.2.5-.2,1,.1,1.2.6,1,1.8-7.6,3-8.8,3.5-6.6,1.5-13.1,3.7-19.6,5.8-9.8,3.7-19.2,8.2-28.8,12.3-7.2,3.8-15.2,6.7-23.5,6.7-.5-.2-1.2-.2-2-.2h0Z"/>
      <path class="cls-5" d="m215.44,219.55c-4.2-1.6-7.5-4.8-11-7.5-6.1-4.5-11.7-9.7-17.6-14.5-4.2-3.7-8.8-6.7-12.8-10.6-4.7-3.5-9.4-7-14-10.5-10.2-6.5-21.5-11.4-33.4-13.7-18.2-3.2-36.2,1.4-54.3,2.5-10.2.2-20.4,1.2-30.6.1-.9,0-1.8-.1-2.7-.2-.5,0-1-.4-1-.9s.4-1,.9-1c1.7.1,3.4.2,5.1.3,7.4.7,14.8.2,22.2-.1,31.1-.7,50.4-10.3,81.6,4.1,4.8,2.5,9.7,4.9,14.2,8,4.3,3.5,8.9,6.6,13.3,10,7.1,6.4,15.1,12.2,22.3,18.5,4.8,4.3,9.8,8.1,15,11.9,1.1.7,2.2,1.2,3.3,1.7.5.2.7.7.6,1.1-.1.4-.5.7-.9.7q-.1.2-.2.1h0Z"/>
      <path class="cls-5" d="m217.54,186.45c-6-4.4-11.9-8.9-18.5-12.5-1.1-.5-.4-2.3.8-1.8,6.7,3.6,12.8,8.3,18.9,12.8.8.6.1,1.7-.7,1.7-.1.1-.4,0-.5-.2h0Z"/>
      <path class="cls-5" d="m209.74,191.65c-7.8-5.4-15.5-11.1-24.1-15.2-1.1-.5-.4-2.3.8-1.8,7.8,3.6,14.8,8.7,21.9,13.6.9.8,3.8,1.7,2.8,3.2-.2.2-.5.3-.7.3-.3.2-.6.1-.7-.1h0Z"/>
      <path class="cls-5" d="m204.14,196.65c-3-2.4-6.2-4.3-9.4-6.2-.5-.3-.6-.9-.3-1.3.3-.5.9-.6,1.3-.3,2.4,1.4,4.8,2.9,7.2,4.5.8.8,3.5,1.8,2.6,3.2-.2.2-.5.3-.8.3s-.5,0-.6-.2h0Z"/>
      <path class="cls-5" d="m279.34,134.25c-.5-.1-.8-.7-.7-1.2,1-3.2,1.9-6.5,3-9.7.7-2.1,1.5-4.3,2.6-6.2.3-.5.8-.6,1.3-.4s.6.9.4,1.3c-1.6,3-2.5,6.4-3.6,9.6-.6,1.9-1.2,3.9-1.8,5.8-.1.4-.5.7-.9.7-.1.1-.2.1-.3.1h0Z"/>
      <path class="cls-5" d="m286.74,122.35c-.5-.2-.8-.8-.5-1.2.7-1.6,1.5-3.1,2.4-4.6.6-1.1,2.3-.2,1.7.9-.8,1.4-1.6,2.9-2.3,4.4-.2.4-.5.6-.9.6-.2-.1-.3-.1-.4-.1h0Z"/>
      <path class="cls-5" d="m292.04,109.45c-.4-.3-.5-.9-.2-1.4,1.4-2.1,2.9-4.3,4.3-6.4.8-.8,1.5-3,2.9-2.3.4.3.5.9.2,1.4-2.1,2.7-4,5.6-5.9,8.5-.2.3-.5.4-.8.4-.1,0-.3-.1-.5-.2h0Z"/>
      <path class="cls-5" d="m242.54,241.35c-2.8-.1-25.9-7.5-24.2-10.4.3-.5.9-.6,1.3-.3,5.2,3.5,11,5.3,16.8,7.3,2.1.7,4.3,1.2,6.4,1.6.4.1.8.4.8.8.1.6-.4,1.1-1,1.1t-.1-.1h0Z"/>
      <path class="cls-5" d="m242.74,237.85c-3.1-1.2-6.4-2.2-9.5-3.4-1.3-.5-2.5-1-3.8-1.5-.5-.2-.7-.8-.5-1.3s.8-.7,1.3-.5c2.2.8,4.3,1.7,6.4,2.5h-.1c2,.7,4,1.3,6,2.1.7.2,1.8.6,1.4,1.6-.2.3-.5.6-.9.6-.1,0-.2-.1-.3-.1h0Z"/>
      <path class="cls-5" d="m238.64,232.35c-3.2-1.2-6.3-2.5-9.3-4.2-1.1-.6-.1-2.3,1-1.7,2,1,3.9,2,6,2.8,1,.7,4.2.8,3.7,2.5-.2.4-.5.6-.9.6-.2,0-.4,0-.5,0h0Z"/>
      <path class="cls-5" d="m53.24,175.25c-3.8,0-7.4-.1-11.2,0-.3-.1-.8,0-1.2,0-1.1.1-2.2.1-2.4-.9,0-1.2,1.2-1.1,2.1-1h7.7c4.8,0,9.7.1,14.5-.5,2-.2,3.8-.4,5.7-.7,1.2-.2,1.6,1.7.3,1.9-.8.1-1.7.2-2.5.3-4.3.5-8.5.9-12.8.9-.1,0-.2,0-.2,0h0Z"/>
      <path class="cls-5" d="m50.64,171.15c0-.5.5-.9,1-.9,1.8-.1,3.6-.1,5.5-.2,2.1-.1,4.2-.2,6.4-.2.5,0,1,.4,1,.9,0,1.2-1.4,1.1-2.7,1-.6,0-1.1-.1-1.5,0-2.9.1-5.9.3-8.8.3-.6.1-1-.4-.9-.9h0Z"/>
      <path class="cls-5" d="m73.64,170.65c-.8-.3-1.7.1-2.4-.4-.4-.3-.4-1-.1-1.4.6-.6,1.6-.3,2.3-.2.8,0,1.8.5,1.5,1.4-.1.4-.5.7-.9.7-.1,0-.3-.1-.4-.1h0Z"/>
      <path class="cls-5" d="m85.34,170.65c-.8-.8,0-1.8,1-1.8.8-.2,1.9-.2,2,.8,0,.8-.8,1.1-1.5,1.1-.3,0-.6.2-.9.2-.2,0-.4-.1-.6-.3Z"/>
      <path class="cls-5" d="m59.24,42.85c-1.9-1,2.8-5.7,4.2-4.9,1,.4.6,2-.4,1.9-1,.5-1.6,1.4-2.2,2.2-.2.5-.6.9-1.1.9-.2,0-.3-.1-.5-.1h0Z"/>
      <path class="cls-5" d="m60.54,48.95c-1.2-.8.2-2,.5-2.9.4-.7.8-2,1.9-1.8.8.2,1,1.2.3,1.7-.7.8-1,3.1-2.2,3.1-.1,0-.3-.1-.5-.1h0Z"/>
      <path class="cls-5" d="m54.24,57.65c-.5-.1-.9-.5-.8-1.1.3-1.8.6-3.5,1-5.3.4-1.2,0-4.8,1.8-4.5.5.1.8.7.7,1.2-.3,1.4-.4,2.7-.7,4.1-.2,1.3-.5,2.6-.7,3.8-.1.7-.2,1.8-1.1,1.8h-.2Z"/>
      <path class="cls-5" d="m279.34,84.55c-.3-.5-.1-1,.3-1.3,1.4-1,2.9-1.8,4.4-2.7.5-.3,1.1-.1,1.3.3.3.5.1,1-.3,1.3-1.5.9-3,1.7-4.4,2.7-.1.1-.3.1-.5.1-.3,0-.6-.2-.8-.4h0Z"/>
      <path class="cls-5" d="m277.64,90.15c-.1-1.5,1.9-1.1,2.8-1.6.7-.2,1.5-.7,2,.1.6,1.2-1,1.6-1.9,1.9-.5.1-1.2.4-1.9.4-.4,0-.8-.2-1-.8h0Z"/>
      <path class="cls-5" d="m42.24,70.25c-.5,0-1-.4-1-.9-.1-.7.7-1,1.9-1.1h.2-.1,1.6c1.5.1,3.2.4,3.7.4-1.1-.9-2.2-1.7-3.4-2.5-.1,0-.1-.1-.2-.1-.2-.1-.4-.2-.6-.4-.2-.1-.3-.2-.5-.3-.3-.1-.5-.3-.6-.6-.2-.5.1-1,.6-1.2.3-.1.6,0,.9.1,1.3.8,2.5,1.7,3.7,2.6,1,.9,5.9,4.3,2.6,4.9-2.9-.7-5.9-1.1-8.8-.9h0Z"/>
      <path class="cls-5" d="m252.04,133.05c-.8-.2-1.4-.6-2.2-.7-.3-.1-.5-.3-.5-.7.3-1.2,2.2.1,3,.2.7.2.5,1.1-.1,1.1,0,.2-.1.2-.2.1h0Z"/>
      <path class="cls-5" d="m251.84,176.45c-1.1-.2.5-3.2.6-4,2.1-7.8,4.2-15.5,7-23,.3-.7.5-1.4.7-2.1s1.3-.4,1.1.3c-.1.4-.2.7-.3,1-2.6,7.1-4.8,14.3-6.7,21.6-.5,1.9-1.1,3.8-1.7,5.8-.1.2-.3.4-.6.4,0,0-.1,0-.1,0h0Z"/>
      <path class="cls-5" d="m250.04,174.85c-.3,0-.5-.3-.5-.7.2-1.6.6-3.1.9-4.7.3-1.5.7-2.8.9-4.3,0-.3.3-.5.7-.5.3,0,.5.3.5.7-.3,2.1-.9,4-1.3,6.1h0c-.2,1-.4,1.9-.5,2.9-.1.3-.4.5-.7.5h0Z"/>
      <path class="cls-5" d="m252.74,162.05c-.9-.4,0-1.5.1-2.1.2-.4.2-1,.6-1.3.5-.3,1.1.4.8.9-.2.7-.5,1.5-.7,2.2-.1.2-.3.4-.6.4q-.1,0-.2-.1h0Z"/>
      <path class="cls-5" d="m155.64,112.25c.2-1.1.4-2.3.5-3.4,0-.2.1-.5.3-.5,1.4-.4.7,1.6.6,2.3-.3.7.1,2.4-.9,2.4-.4-.2-.6-.5-.5-.8h0Z"/>
      <path class="cls-5" d="m158.14,112.95c-.3-.1-.5-.4-.4-.7.2-.9.4-1.8.7-2.7.2-.7,1.3-.5,1.1.2-.2.9-.5,1.9-.7,2.8-.1.3-.3.4-.6.4,0,0-.1,0-.1,0h0Z"/>
      <path class="cls-5" d="m159.54,115.35c-.3-.1-.4-.5-.3-.8.6-1.5,1.2-3,1.8-4.5.2-.5.2-1.3.9-1.2,1.2.3-.3,2.6-.5,3.4-.4.9-.7,1.9-1.1,2.8-.1.2-.3.4-.5.4-.1-.1-.2-.1-.3-.1h0Z"/>
      <path class="cls-5" d="m161.44,119.75c-.3-.1-.5-.4-.4-.7.4-1.5.8-3.1,1.2-4.6.4-1.5.6-2.9,1-4.4,0-.3.4-.5.7-.5s.5.3.5.7c-.4,1.5-.6,3-1,4.5s-.8,3.1-1.2,4.7c-.1.2-.3.4-.6.4-.1,0-.2,0-.2-.1h0Z"/>
      <path class="cls-5" d="m164.24,114.85c-.3-.1-.5-.4-.4-.7.2-1,.5-2,.7-3.1.2-.6,0-1.7.8-1.7,1.2.2.1,2,.1,2.8-.3.7-.2,2.7-1.1,2.7,0,0-.1,0-.1,0h0Z"/>
      <path class="cls-5" d="m150.24,118.95c-.3-.1-.4-.5-.3-.8.4-1,.8-2,1.2-2.9.3-.9.6-1.8.7-2.7,0-1.1,1.5-.7,1.1.3-.3,2-1.2,3.9-1.9,5.7-.1.2-.3.4-.5.4h-.3Z"/>
      <path class="cls-5" d="m144.34,181.75c-1.6-.5,3.1-8.8,3.2-10.6.3-.8.3-1.7.8-2.4.5-.5,1.3.2.9.8-1,4.1-3.1,7.8-4.2,11.9-.1.2-.3.4-.6.4l-.1-.1h0Z"/>
      <path class="cls-5" d="m149.24,176.65c-.3-.1-.4-.5-.3-.8.4-.9.9-1.8,1.3-2.8.5-.7,1-3.3,2.1-2.2.2.3-.1.6-.2.9-.7,1.5-1.5,3-2.2,4.5-.1.2-.3.3-.5.3q-.1.2-.2.1h0Z"/>
      <path class="cls-5" d="m148.74,180.85c-.3-.2-.3-.5-.2-.8.5-.9.9-1.9,1.6-2.7.6-.7,1.4.2.8.8-.5.8-1,1.6-1.4,2.5-.1.2-.3.3-.5.3-.1,0-.2-.1-.3-.1h0Z"/>
      <path class="cls-5" d="m146.74,180.95c-.8-.5.1-1.4.2-2,.2-.5.4-1.3,1.1-1.2.8.3.2,1.2,0,1.7-.3.5-.4,1.5-1.1,1.5,0,.1-.1.1-.2,0h0Z"/>
      <path class="cls-5" d="m151.74,182.45c-.3-.2-.4-.5-.2-.8.8-1.5,1.7-2.9,2.6-4.3,1-1.4,1.8-2.9,2.7-4.3,2.5-.5-1.4,4.1-1.7,4.8-.9,1.4-1.8,2.9-2.6,4.3-.1.2-.3.3-.5.3-.1.1-.2,0-.3,0h0Z"/>
      <path class="cls-5" d="m155.54,181.25c-.7-.7.6-1.6,1-2.2.5-.5,1.3.3.8.8h0c-.5.4-.8,1.5-1.5,1.5-.1.1-.2,0-.3-.1h0Z"/>
      <path class="cls-5" d="m258.34,200.25c-1.6-.8-3.3-1.3-5-1.7-.3-.1-.5-.4-.4-.7.4-.9,1.6,0,2.3,0,1.3.3,2.6.9,3.8,1.4.2,0,.3.2.4.4.1.5-.2.7-.6.7-.2.1-.3,0-.5-.1h0Z"/>
      <path class="cls-5" d="m259.54,198.85c-1-.6-2.1-.9-3.2-1.4-.3-.1-.4-.5-.3-.8s.5-.4.8-.3c1.1.4,2.2.8,3.2,1.4.8.3.6,1.3,0,1.3-.1,0-.3-.1-.5-.2h0Z"/>
      <path class="cls-5" d="m256.44,189.25c-.4-.2-.8-.5-1.1-.8-.3-.4.1-.9.5-.9.5.1.8.5,1.2.7.6.3.2,1.1-.3,1.1-.2,0-.3-.1-.3-.1h0Z"/>
      <path class="cls-5" d="m309.94,130.35c-.4-.9-.8-1.7-1.2-2.6-.1-.2-.1-.5.1-.7s.6-.2.8,0c.4,1,.9,1.9,1.3,2.9.1.3,0,.6-.3.8h-.2c-.2,0-.4-.1-.5-.4h0Z"/>
      <path class="cls-5" d="m126.44,96.25c-.5-.4-1-.9-1.5-1.4-.3-.2-.3-.6-.1-.8.8-.8,1.7,1,2.4,1.4.4.4,0,1-.4,1-.2-.1-.3-.1-.4-.2h0Z"/>
      <path class="cls-5" d="m196.34,129.05c-.6-.5-2.4-1-1.5-2,.7-.3,1.4.7,2,.9.6.3.2,1.1-.3,1.1,0,.1-.1.1-.2,0h0Z"/>
      <path class="cls-5" d="m213.04,187.85c-.5-.6-2.7-1.5-1.5-2.3.2-.1.5,0,.6.1.5.4,1.1.8,1.6,1.3.5.4.1,1-.3,1-.2,0-.3-.1-.4-.1h0Z"/>
      <path class="cls-5" d="m209.74,184.45c-1.1-.7-2.2-1.5-3.3-2.2-.3-.2-.3-.6-.1-.8.3-.5.8-.1,1.2.1.5-.1.9.4,1.3.7.3.2.7.4.9.8.2.2.4.3.6.5.4.4.1,1-.4,1-.1-.1-.2-.1-.2-.1h0Z"/>
      <path class="cls-5" d="m207.14,194.45c-.8-.8-1.9-1.4-2.7-2.2-.2-2.3,2.9.9,3.5,1.3.4.4,0,1-.4,1-.1.1-.3,0-.4-.1h0Z"/>
      <path class="cls-5" d="m13.04,167.75c-1-.3.2-2.5.3-3.3.2-.8.4-1.6.6-2.4,0-.3.3-.5.6-.5,1.1.3,0,2.3,0,3.1-.2.9-.5,1.8-.7,2.7-.1.3-.3.4-.6.4h-.2Z"/>
      <path class="cls-5" d="m15.64,168.25c-.3-.1-.5-.4-.4-.7.2-.7.2-1.3.3-2,0-.4,0-.8.4-1,.8-.2.8.8.7,1.3-.2.7.1,2.4-1,2.4h0Z"/>
      <path class="cls-5" d="m60.74,145.65c-.5-.3-.6-.9-.3-1.3,1.8-3.3,3.5-6.6,5.3-9.9,2-3.7,3.9-7.4,5.9-11.1,2-3.8,4-7.6,6.1-11.4l6-11.3c1.2-2.3,2.4-4.6,3.6-6.8.2-.5.9-.6,1.3-.4.5.3.6.9.3,1.3-1.9,3.6-3.8,7.2-5.8,10.8-2,3.8-4.1,7.6-6.1,11.5-2,3.7-4,7.5-6,11.2s-4,7.5-6,11.2c-1,1.9-2.1,3.9-3.1,5.8-.2.3-.5.5-.8.5-.1,0-.3,0-.4-.1h0Z"/>
      <path class="cls-5" d="m66.04,103.95c-.2-.5,0-1,.5-1.3,3.1-1.4,6.3-2.8,9.4-4.2,3.7-1.7,7.4-3.3,11.1-5,.3-.1.6-.2.8-.4.5-.2,1.1,0,1.3.5.2.5,0,1-.5,1.3-1.6.8-3.3,1.5-5,2.2-1.9.9-3.8,1.7-5.7,2.5-3.4,1.5-6.8,3.1-10.2,4.6-.2.1-.3.1-.5.2-.1,0-.2.1-.4.1-.3.1-.7-.1-.8-.5h0Z"/>
      <path class="cls-5" d="m68.24,109.45c-.8-1.8-1.6-3.6-2.4-5.4-.2-.5.1-1.1.5-1.3.5-.2,1,0,1.3.5.8,1.8,1.6,3.6,2.4,5.4.2.5-.1,1.1-.5,1.3-.1,0-.2.1-.4.1-.4,0-.7-.3-.9-.6h0Z"/>
      <path class="cls-5" d="m68.34,109.65c-.2-.5-.1-1.1.4-1.3,1.4-.7,2.8-1.4,4.2-2.1,1.1-.5,2.2-1.1,3.2-1.6.5-.2,1.1-.1,1.3.4.2.5.1,1.1-.4,1.3-1.1.5-2.2,1.1-3.2,1.6-1.4.7-2.8,1.4-4.2,2.1-.1.1-.3.1-.5.1s-.6-.2-.8-.5h0Z"/>
      <path class="cls-5" d="m56.84,143.75c-.5-.3-.6-.9-.4-1.3,1.5-2.9,3.1-5.8,4.6-8.8,1.8-3.5,3.7-7.1,5.6-10.6,1.9-3.7,3.8-7.3,5.8-11,1.2-2.3,2.4-4.7,3.7-7,.2-.5.9-.6,1.3-.4.5.3.6.9.4,1.3-1.8,3.3-3.5,6.6-5.2,10-1.9,3.7-3.9,7.4-5.8,11.1-1.8,3.4-3.6,6.9-5.4,10.3-1.1,2-2.1,4-3.2,6-.2.3-.5.5-.8.5s-.4,0-.6-.1h0Z"/>
      <path class="cls-5" d="m60.74,145.95c-1.3-.6-2.7-1.2-4-1.8-.5-.2-.7-.8-.5-1.3s.8-.8,1.3-.5c1.3.6,2.7,1.2,4,1.8.5.2.7.8.5,1.3-.2.4-.5.6-.9.6-.2,0-.3,0-.4-.1h0Z"/>
      <path class="cls-5" d="m140.54,148.95c-1.1-.3-3.2-.5-3.1-2,.8-4.5,2.9-8.6,4.5-12.9.5-1.1,2.3-.4,1.8.8-1.5,3.9-3.3,7.7-4.3,11.7h0c.8.4,2.3.3,2.2,1.5-.1.5-.5.8-.9.8q-.1.1-.2.1Z"/>
      <path class="cls-5" d="m148.44,151.15c-3.5-1.8.5-11.5,1.6-14.4.5-1.1,2.3-.4,1.8.8-1,2.2-1.6,4.5-2.2,6.8-.2,1.6-1,3.4-.4,5,.8-.2,1.4-1,1.9-1.6,1.9-3,3.3-6.3,4.8-9.6.2-.5.7-.9,1.2-.7,1.7.7-.4,3.1-.7,4.3-1.5,2.6-3.6,9.5-7.3,9.5-.2,0-.5-.1-.7-.1h0Z"/>
      <path class="cls-5" d="m157.94,155.05c-.5-.1-.8-.7-.7-1.2.7-2.2,1.4-4.3,2-6.5.7-1.4,1.7-10.3,3.9-7.8.2.3.2.8,0,1.1-1,2.3-1.3,4.7-2.1,7.1-.7,2.2-1.4,4.5-2.1,6.7-.1.4-.5.7-.9.7.1,0,0,0-.1-.1h0Z"/>
      <path class="cls-5" d="m163.84,152.85c-.9-1.5-1.7-3.1-2.9-4.5-.4-.3-.6-.9-.3-1.4,1.4-1.1,3-2.2,4.3-3.4,1-.6,2.5-2.6,3.6-1.2.2.5,0,1.1-.5,1.3-1.9,1.2-3.4,2.7-5.2,4,.9,1.3,1.8,2.8,2.6,4.2.3.5.1,1.1-.4,1.3-.1.1-.3.1-.4.1-.3.1-.7-.1-.8-.4h0Z"/>
      <path class="cls-5" d="m168.04,158.15c-.5-.1-.9-.6-.8-1.1.4-2.2,1-4.4,1.6-6.6.6-1.4,1.4-8.8,3.6-7.5.5.3.6.9.3,1.4-.9,2-1.3,4.1-1.8,6.2-.5,1.7-1,3.6-1.4,5.3-.3.8-.1,2.4-1.3,2.4q-.1-.1-.2-.1Z"/>
      <path class="cls-5" d="m181.44,147.55c-1.8-.5-3.7-1-5.5-1.6-.5-.1-.8-.6-.8-1.1.1-.8,1-1,1.7-.6,1.7.6,3.4,1,5.1,1.5,1.1.3.7,1.9-.3,1.9,0-.1-.1-.1-.2-.1h0Z"/>
      <path class="cls-5" d="m176.84,160.35c-.5-.1-.9-.6-.8-1.1.4-2.7,1.1-5.3,1.7-7.9h0c.3-1.4.6-2.8.8-4.2.2-.9.4-2.5,1.7-2,.5.2.7.8.5,1.2-.5,1.8-.7,3.5-1.1,5.3h0c-.1.5-.2,1.1-.4,1.6-.5,2.1-.9,4.2-1.3,6.2-.1.5-.5.8-1,.8,0,.1-.1.1-.1.1h0Z"/>
      <path class="cls-5" d="m181.34,160.85c-.5-.2-.7-.8-.5-1.3.9-1.9,1.9-3.8,2.8-5.6,1.1-2.3,2.1-4.5,3.2-6.8.2-.5.8-.7,1.3-.5s.7.8.5,1.3c-.9,1.9-1.7,3.8-2.6,5.6-.9,2-1.9,3.9-2.9,5.8-.3.6-.6,1.6-1.4,1.6-.1,0-.2,0-.4-.1h0Z"/>
      <path class="cls-5" d="m187.44,159.35c-.3-2.9,0-5.7,0-8.5,0-1.3-.2-2.6,0-3.8.2-.5.8-.7,1.3-.5.4.2.6.5.6.9.1,1.6.1,3.2.1,4.8-.1,2.3-.2,4.6,0,6.9.1.7-.5,1-1,1s-1-.3-1-.8h0Z"/>
      <path class="cls-5" d="m187.64,158.45c-1.2-.2-4.9.1-4.7-1.6.1-.5.6-.9,1.1-.8,1.3.2,2.4.4,3.6.4s1.2,2,0,2h0Z"/>
      <path class="cls-5" d="m193.64,164.35c-1.6-.7-3-2.5-2.6-4.4.1-.5.6-.9,1.1-.8s.9.6.8,1.1c-.4,1.2,1.7,3.3,2.6,1.9h0v.1c.3-.4.3-1,.2-1.5-.4-2.2-2-3.9-2.4-6-.3-2.4,1.1-5,3.3-5.9,1.9-.7,4.1,1.2,3.2,3.1-.5,1.1-2.2.4-1.8-.7.2-.5-.5-.7-.9-.5-1.2.7-2,2.1-2,3.5.2,1.3,1,2.5,1.5,3.6,1.6,2.5,1.2,6.7-1.8,6.7-.3,0-.7,0-1.2-.2h0Z"/>
      <path class="cls-5" d="m77.34,148.35c-1.4-.4-2.7-1.3-3.5-2.5,0,0,0-.1-.1-.1s-.1-.1-.1-.1c-1.2-1.8-1.6-4-1.6-6.1s.4-4.2.9-6.3c1.1-4,2.9-7.9,5.1-11.4,1.2-2,2.6-3.8,4.1-5.6.1-.1.2-.2.2-.3,1.4-1.6,2.8-3.1,4.4-4.5s3.2-2.6,5-3.6c1.5-.8,3.1-1.5,4.7-1.9,1.2-.3,2.5-.3,3.7-.1h.1c1.4.3,2.6.9,3.6,2,1.4,1.5,2,3.6,2.2,5.7.2,2-.1,4-.5,6s-1,3.9-1.8,5.7c-1.6,3.9-3.7,7.6-6.3,10.9-2.5,3.3-5.4,6.2-8.7,8.7-1.7,1.2-3.5,2.2-5.4,2.9-1.3.5-2.7.8-4,.8-.6.1-1.3,0-2-.2h0Zm2.8-1.7c.4,0,.8-.1,1.2-.2.5-.1,1-.3,1.4-.4h.1c.7-.3,1.3-.5,1.9-.8.9-.5,1.8-1,2.6-1.6,1.2-.8,2.2-1.7,3.2-2.6l.1-.1h0c1.3-1.2,2.6-2.5,3.7-3.8,1.3-1.6,2.6-3.3,3.7-5l.1-.1h0c1.1-1.8,2.2-3.6,3-5.5.7-1.6,1.3-3.1,1.9-4.8.3-1.1.7-2.3.9-3.5.2-1,.3-1.9.3-2.9,0-.6,0-1.2-.1-1.8,0-.5-.1-1-.2-1.4s-.2-.7-.3-1c-.1-.3-.2-.5-.3-.8-.1-.2-.2-.4-.3-.6-.1-.2-.2-.3-.4-.5-.2-.2-.3-.3-.5-.5-.1-.1-.3-.2-.4-.3-.2-.1-.4-.2-.6-.3-.2-.1-.4-.1-.5-.2h-.1c-.2-.1-.4-.1-.6-.1h-1.7c-.4,0-.9.1-1.3.2h0c-.5.1-1,.3-1.5.5h0c-.6.2-1.2.5-1.8.8-.9.5-1.7,1-2.5,1.5-1.2.8-2.3,1.7-3.2,2.6-1.3,1.2-2.6,2.5-3.7,3.9l-.2.2-.1.1c-1.3,1.6-2.6,3.3-3.6,4.9-1.2,1.8-2.2,3.7-3.1,5.6h0c-.7,1.5-1.3,3-1.8,4.5-.4,1.2-.7,2.4-.9,3.5-.2.9-.3,1.8-.3,2.7v2c.1.5.1.9.2,1.3s.2.7.3,1.1c.1.2.2.4.3.6.1.2.2.4.3.6h0v.1h0c0,.1.1.1.1.2h0v-.1s0,.1.1.1c.1.1.1.2.2.3.2.2.3.3.5.5.2.1.3.2.4.3.2.1.5.3.7.4s.4.2.5.2c.2.1.4.1.7.2.2,0,.5,0,.7.1.2,0,.6,0,.9-.1h0Z"/>
      <path class="cls-5" d="m78.94,141.55c-.6-.9-.7-1.9-.7-2.9s.2-2.1.4-3.1c.4-1.9,1.2-3.8,1.9-5.5.1-.1.1-.3.1-.3.9-1.9,1.8-3.7,2.9-5.5s2.3-3.6,3.6-5.2c1.3-1.6,2.6-3.1,4.1-4.5.8-.7,1.5-1.3,2.3-1.9s1.8-1.1,2.8-1.4c.7-.2,1.4-.3,2-.1h.1c.6.2,1.1.5,1.5,1,.6.8.8,1.9.9,2.9,0,1-.1,2-.3,3-.2,1-.5,1.9-.8,2.9-.6,1.9-1.5,3.7-2.4,5.4-1,1.8-2,3.6-3.2,5.3-1.2,1.7-2.4,3.4-3.8,4.9-1.4,1.6-2.8,3-4.5,4.3-.8.6-1.8,1.2-2.8,1.6-.5.2-1,.3-1.6.4h-.2c-.8,0-1.8-.4-2.3-1.3h0Zm2.5-.6h.2c.1,0,.2,0,.4-.1.2,0,.4-.1.5-.1.3-.1.5-.2.8-.4.4-.2.9-.5,1.2-.8.7-.5,1.4-1.1,2.1-1.7,1.2-1.1,2.3-2.3,3.2-3.5,1.4-1.8,2.8-3.6,3.9-5.4s2.2-3.7,3.1-5.6v-.1h0c.6-1.3,1.1-2.6,1.5-4h0c.2-.8.4-1.6.6-2.4.1-.5.1-.9.1-1.4v-.8c0-.2-.1-.4-.1-.6,0-.1-.1-.2-.1-.3s-.1-.1-.1-.2-.1-.1-.1-.2c0,0,0-.1-.1-.1s-.1-.1-.1-.1c0,0-.1,0-.1-.1h-.1q-.1,0-.2-.1h-.5c-.1,0-.3,0-.4.1h0c-.2,0-.3.1-.5.1-.3.1-.6.2-.8.4-.4.2-.8.5-1.2.8-.7.5-1.4,1.1-2,1.6-1.1,1-2.1,2.1-3.1,3.3-1.5,1.8-2.8,3.6-4,5.6-1.1,1.8-2.1,3.6-3,5.5v.1h0c0,.1-.1.1-.1.2h0v.2c-.6,1.3-1.1,2.5-1.5,3.9-.2.9-.5,1.7-.6,2.6-.1.4-.1.8-.1,1.2v.8c0,.2.1.4.1.5s0,.2.1.3c0,.1.1.1.1.2s.1.1.1.2c0,0,0,.1.1.1l.1.1s.1,0,.1.1.1,0,.1,0h.3q0,.1.1.1h0Z"/>
      <path class="cls-5" d="m105.24,151.55c-.6-.1-1.1-.4-1.6-.6-.9-.5-1.6-1.4-2.1-2.4-.4-.9-.7-2-.8-3,0-.6-.1-1.1,0-1.7,0-.5.1-1.1.1-1.6.1-1,.4-2.1.7-3.1.6-2,1.4-4,2.3-5.9s2.1-3.7,3.3-5.5c1.2-1.8,2.7-3.5,4.2-5,1.4-1.5,3.1-2.9,4.8-4,1.2-.8,2.6-1.5,4-2,.9-.3,1.9-.5,2.9-.5h.7c1.3.1,2.5.7,3.4,1.6,1.4,1.5,1.8,3.6,1.8,5.5,0,1.3-.2,2.6-.4,3.8-.9,4-2.7,7.8-4.8,11.2-2.3,3.5-5,6.8-8.3,9.5-1.6,1.3-3.4,2.4-5.3,3.1-1.1.4-2.1.6-3.2.7h-.2c-.5,0-1,0-1.5-.1h0Zm1.7-1.8c.3,0,.6-.1.8-.1.4-.1.8-.2,1-.3.5-.2,1-.3,1.4-.5.7-.3,1.4-.7,2-1.1.8-.5,1.7-1.2,2.3-1.7,1.1-.9,2.1-1.9,3-2.8l.1-.1h0c1.2-1.3,2.4-2.8,3.4-4.2,1-1.4,1.9-2.9,2.7-4.4.7-1.4,1.4-2.9,1.9-4.3.4-1.1.7-2.2,1-3.2v-.2h0c.2-.8.3-1.5.3-2.2v-.1h0v-1.4c0-.4-.1-.8-.1-1.2-.1-.3-.1-.6-.2-.9-.1-.2-.2-.5-.3-.7-.1-.1-.2-.3-.2-.4-.1-.1-.2-.3-.3-.4-.1-.1-.2-.2-.3-.3-.1-.1-.2-.2-.3-.3-.1-.1-.3-.2-.4-.2-.1-.1-.3-.1-.4-.2-.2,0-.3-.1-.5-.1s-.4-.1-.6-.1h-.6c-.3,0-.6,0-.9.1l-1.2.3c-.5.2-.9.3-1.3.5-.6.3-1.2.6-1.8,1h-.1c-.8.5-1.6,1.1-2.4,1.7h0c-1.2,1-2.3,2-3.3,3.1-1.1,1.2-2.1,2.5-3.1,3.8-.5.8-1,1.5-1.5,2.3s-.9,1.5-1.3,2.3c-.8,1.5-1.4,2.9-2,4.5-.3,1-.6,2-.9,3-.2.8-.3,1.6-.4,2.5v1.6c0,.4.1.8.1,1.1.1.3.1.6.2.9.1.2.2.5.3.7.1.1.2.3.2.4.1.1.2.2.2.3.1.1.2.2.3.3.1.1.2.2.3.3.1.1.2.2.4.2.2.1.3.1.5.2.2,0,.3.1.5.1s.3,0,.5.1c.6.1.8.1,1,.1h0Z"/>
      <path class="cls-5" d="m106.84,145.95c-1.2-.6-1.2-2.1-1-3.3.2-1,.5-2,.8-3,.3-.9.8-1.8,1.2-2.7,1.1-2.3,2.4-4.5,3.8-6.5,1.2-1.7,2.4-3.3,3.7-4.8.7-.8,1.3-1.5,2.1-2.2.8-.7,1.6-1.4,2.4-2,.8-.5,1.7-1,2.7-.8.6.1,1.2.5,1.5,1h0c.4.8.3,1.7.2,2.6-.2.9-.4,1.7-.7,2.6-.3.9-.7,1.8-1.1,2.7-1.2,2.4-2.5,4.7-4,6.9l-.1.1c-1.1,1.6-2.3,3.2-3.6,4.6-.7.7-1.3,1.4-2,2.1-.8.7-1.6,1.4-2.5,2-.7.4-1.5.8-2.3.8-.5.1-.8,0-1.1-.1h0Zm1-1.7h.4c.1,0,.2-.1.2-.1.2-.1.5-.2.7-.4.5-.3.9-.6,1.3-.9.8-.7,1.6-1.5,2.3-2.2,1.4-1.5,2.7-3.2,3.9-4.9l.1-.1.1-.1h0v-.1c1.3-1.9,2.4-3.8,3.4-5.7.6-1.2,1.2-2.4,1.6-3.6v-.1h0c.2-.5.3-1.1.5-1.6,0-.3.1-.5.1-.8v-.8h-.4c-.1,0-.3.1-.4.2-.2.1-.5.2-.6.3h-.1c-.4.3-.8.6-1.1.8-.9.7-1.7,1.5-2.4,2.4-1.4,1.5-2.7,3.2-3.9,4.9,0,.1-.1.1-.2.2h0c-1.3,1.8-2.4,3.7-3.4,5.6-.6,1.2-1.2,2.4-1.6,3.7-.2.6-.4,1.2-.5,1.6-.1.3-.1.7-.1.9v.7c0-.1,0,0,.1.1q-.1-.1,0,0-.1,0,0,0h0Z"/>
    </g>
  </g>
</svg>