<?xml version="1.0" encoding="UTF-8"?>
<svg id="Layer_1" data-name="Layer 1" xmlns="http://www.w3.org/2000/svg" viewBox="0 0 293.26 376.82">
  <defs>
    <style>
      .cls-1 {
        fill: #60524b;
      }

      .cls-2 {
        fill: #786962;
      }

      .cls-3 {
        fill: #d09d7f;
      }

      .cls-4 {
        fill: #e4bea7;
      }

      .cls-5 {
        fill: #b38264;
      }

      .cls-6 {
        fill: #cba38d;
      }

      .cls-7 {
        fill: #cba48d;
      }

      .cls-8 {
        fill: #b48265;
      }

      .cls-9 {
        fill: #61524b;
      }

      .cls-10 {
        fill: #e5bea8;
      }

      .cls-11 {
        fill: #786861;
      }

      .cls-12 {
        fill: #3d1a17;
      }
    </style>
  </defs>
  <g id="Capa_de_vector14" data-name="Capa de vector14">
    <g>
      <path class="cls-6" d="m29.69,221.86c-.1,0-.3.1-.4.2-.8-1.7-2-3.2-2.9-4.8-1.8-2.3-3.9-4.5-5.8-6.7l1.2,1.2c1.2,1.5,2.5,2.8,3.8,4.3.9,1.4,1.8,2.8,3,4.1.5.4.9,1,1.1,1.7h0Z"/>
      <path class="cls-6" d="m51.99,197.66c.1.2.1.4.2.6-1-1.2-1.3-2.8-1.6-4.4-.1-.6-.2-1.2-.3-1.8.3.8.6,1.7.8,2.5.4,1,.6,2.1.9,3.1h0Z"/>
      <path class="cls-6" d="m56.59,209.06c-.6.2-1.2,0-1.7-.4-1.8-2.2-2.2-5-3-7.7,0-.2-.1-.4-.2-.5,1.5,1.1,2.5,1,3.6-.1.3,3,.6,5.9,1.3,8.7h0Z"/>
      <path class="cls-6" d="m57.19,196.46c.7.1,1.2.8.7,1.5v.2c-.2-.5-.4-.9-.7-1.2v-.5h0Z"/>
      <path class="cls-6" d="m71.69,140.46c-.3,2.7-.6,5.3-1.2,7.9-.4,2.7-.8,5.3-1.2,8,.1-1.7.2-3.3.5-5,.5-3.6,1.1-7.3,1.9-10.9h0Z"/>
      <path class="cls-6" d="m115.19,87.76c-.3-.2-.7-.4-1.1-.5.2-.9-1.1-1.8-1.8-2.3-1.7-1.4-3.3-3.2-5.5-3.8-4.1-1.7-8.5.3-11.9,2.6-.4.2-.7.4-1,.6l.2-.2c.5-.4.9-.8,1.3-1.2,1.1-.9,2.2-1.7,3.3-2.1.8-.3,1.5-.6,2.3-.8h0c4.5-1,8.6.9,11.8,4.5.8,1,1.6,2.1,2.4,3.2h0Z"/>
      <path class="cls-6" d="m115.99,204.76c-1.3.1-2.6.1-4,.2-.5,0-.9.4-.9.8-1.5-.1-3.1-.2-4.6-.6,1.9-.2,3.7-.6,5.6-.6,1.3.1,2.6.1,3.9.2h0Z"/>
      <path class="cls-6" d="m106.19,199.56c-.8.7-1.5,1.5-2.1,2.3l-.3-.3c.9-.8,1.8-1.6,2.4-2Z"/>
      <path class="cls-6" d="m123.79,193.66c-3.6.1-7.1.7-10.5,2,3.3-1.7,6.9-2,10.5-2Z"/>
      <path class="cls-6" d="m149.09,198.56c.4.5.8,1,1.1,1.6-.6-.6-1.3-1.1-2-1.6.1,0,.2.1.3.1.2-.1.4-.1.6-.1h0Z"/>
      <path class="cls-6" d="m151.69,205.06c-.3-.1-.6-.2-.9,0-1.6-1.6-3.5-3-5.1-4.5-2.7-2.3-5.9-3.8-9.1-5.3-3.8-1-7.8-1.6-11.8-1.7h3.5c.3.1.6.1.9.2,2.4.4,4.8.7,7.2,1.2,1.6.4,3.2,1.1,4.5,2,.6.3,1.1,1,1.8.9,2,1.3,3.9,2.9,5.6,4.6.7.5,1.3,1.8,2.3,1.5.5.4.8.8,1.1,1.1h0Z"/>
      <path class="cls-6" d="m85.89,176.46c.1.5,0,1-.4,1.3h0c-.1.1-.2.2-.4.2h-.2c.1-.8.3-1.5.4-2.3h.1c.2.1.3.3.4.5s.1.2.1.3h0Z"/>
      <path class="cls-6" d="m179.09,326.46c1,.5.9,1.8-.1,2.2-3,.9-6.2,1.1-9.3.8-7.5-.6-15.1,0-22.5-1.3-1,.2-1.6-1.1-.8-1.7.3-.2.7-.3,1-.2,2.3.6,4.8.5,7.1.8-.5-2.2,7.4-1.3,8.9-1.4,3.2.1,6.4-.2,9.5-.3,2.1.1,4.4-.1,6.2,1.1Z"/>
      <path class="cls-6" d="m196.39,289.36c.9-.4,1.8.9,1,1.6-1.2,1-2.5,1.8-3.8,2.7-.1,0-.1.1-.2.1h0c-2.6,1.7-5.3,3.2-8,4.8-2.4,1.4-5.2,1.4-7.8,1.9-3,.6-6,.8-9.1.7-5.3-.5-10.5-1.6-15.4-3.6-1.7-.7-3.3-1.3-4.9-2h0c-3.3-1.4-6.5-3-9.5-4.9-.8-.5-2.4-1.3-1.5-2.4.4-.4,1.1-.4,1.5.1,3.2,2.1,6.6,3.9,10.1,5.4,4,1,8,2.5,12,3.6,2.2.2,4.5.4,6.8.6,4.8.3,9.7.4,14.3-1.1,2.1-.8,3.9-2.1,5.9-3,1.6-.8,3.2-1.4,4.8-1.9.7-.4,1.4-.9,2-1.4.6-.4,1.1-.9,1.8-1.2h0Z"/>
      <path class="cls-6" d="m201.59,290.16c.3.4.1,1.1-.4,1.3-3.8,1.9-6.4,5.3-9.8,7.8-2.5,1.9-5,4-7.9,5.4-4.5,1.8-9.3,3.2-14.2,3-5.7.2-11.2-1.9-16.3-4.2-3.4-1.4-6.5-3.3-9.4-5.6-5.7-3.1-10.6-8.8-17.4-9.3-1.1.1-1.3-1.8-.2-1.9.6,0,1.2,0,1.8.1,0-.1.1-.3.2-.4,1.5-.8,4-.1,5.5.5,2.6,2,5.2,4.1,7.8,6.1,4.5,3.2,9.5,5.6,14.5,8,5.6,2.5,11.7,3.8,17.8,3.1,2.2-.3,4.2-1.4,6.3-1.9,1.8-.6,3.7-.9,5.4-1.8,4.6-3,8.4-7.2,13.2-9.9.2-.1.5-.2.7-.1.9-.6,1.9-.9,2.4-.2h0Z"/>
      <path class="cls-6" d="m201.69,195.16c.7,0,1.2.6,1.2,1.3s-.6,1.2-1.3,1.2-1.2-.6-1.2-1.3c0-.7.6-1.2,1.3-1.2Z"/>
      <path class="cls-6" d="m249.39,209.86c0,.5-.4,1-.9,1h0c-.1,1.1-.3,2.2-.7,3.2-.1.2-.2.3-.3.5s-.2.3-.3.5c-.2.6-.4,1.3-.6,2q-.1.4,0,0c-.2,1-.4,1.9-.6,2.9-.2,1.1-.5,2.1-.9,3.1-.2.5-.4,1-.7,1.5h0v.2c-.8,2.1-2.9,3.1-4.9,3.7v.7c0,.2,0,.3-.1.5h-.1c-.1,0-.1-.1-.2-.1l-.1-.1s0-.1-.1-.1c-.1-.1-.1-.3-.2-.4v-.2h0v-1.2c.3-4.5.4-8.9.9-13.3.1-2,.3-4,.3-5.9.2-1.2-.7-5.1,1.1-5,.1,0,.2,0,.3.1h.1s.1,0,.1.1c0,0,.1,0,.1.1l.2.2c0,.1.1.1.1.2v.5l.1.1c.2.3.4.6.6.9.6.7,1.5,1,2.4,1,0-.1,0-.2.1-.2v-.1s0-.1.1-.1.1-.1.1-.1c.1,0,.2,0,.3.1h.2c.2,0,.3,0,.5.1h.7c.1,0,.3-.1.4-.1l.2-.2c.2-.2.4-.5.5-.7,0-.1.1-.2.1-.3.3.1.5.3.6.7h0c.3,1.1.5,2.6.6,4.2h0Z"/>
      <path class="cls-1" d="m259.69,146.96c.5,3.9.3,7.9.2,11.8,0,2.5.2,7.6-3.6,6.5-.7-.3-1.2-.8-1.6-1.4,1.1,6.3,2,12.6,2.4,18.9.7,4.7.9,9.5.9,14.2,0,2.2-1.2,6.8-4.1,4.3-1.7-2.5-3.2-5.1-4.3-7.8,0,.8-.1,1.6-.2,2.5,0,.4-.1.8-.1,1.2-.6.7-.4,1.9-.4,2.9-.4,1.8-1,3.5-2.1,4.3-.3.7-.7,1.2-1.2,1.4-.4-.1-.8-.2-1.1-.4-.9-.5-1.8-1.7-2.8-2.3-3-3.6-2.7-9.3-3.1-13.8l-.2-2.7c.2-1.2-.1-3.2-.3-4.7-.2-2.7-.3-5.5-.5-8.2-1-9.6-.5-19.4-1.5-29-.1-.8-.5-2.1.3-2.5-.1-1.4-.3-2.8-.5-4.2-.5-2.8-.8-5.5-1.1-8.3-1.1-5-2.2-9.9-3.5-14.8-1.1-3.2-2.1-6.5-3.4-9.7,0-.4.1-.7.4-.8-1.8-4-4.1-7.8-6.6-11.4-2.8-3-5.9-6.5-10-7.7-.2-.1-.4-.1-.6-.1-.1.1-.2.1-.4.1-.9,0-1.8.2-2.6.8-2.8,2-5.1,4.8-5.9,8.3-.4,1.6-.7,3.3-1.1,5-1,2.9-2,5.9-3,8.8-.1.2-.2.5-.4.7-2.9,5.3-6.8,10.2-12.5,12.6-.2.1-.4.1-.6.2-.1.1-.3.2-.5.3-3.1.5-6.2.6-9.3,1.1-1.6.3-3.1.7-4.7.9-2.6,0-5.2-.2-7.8-.3-1.8-.3-3.5-.7-5.3-1.1h0c-1-.3-2-.6-3-.9-1.3-.5-2.6-.8-3.9-1.2-2-.8-4-1.7-5.9-2.9l-.1-.1c-1.2-1-2.3-2.2-3.7-3-1.9-1.3-3.9-2.2-5.3-4.1-3.1-2.6-5.7-5.8-8.4-8.9-2.6-2.6-5.1-5.5-7.1-8.6-.1-.2-.3-.5-.6-.9v-.1c0-.4-.2-.7-.5-.8-.5-.6-1.1-1.2-1.7-1.8-.3-.4-.7-.9-.9-1.3-.3,0-.6-.2-.7-.6-.5-1.7-2-2.8-3.1-4-1.8-1.9-4.1-4-6.8-4.1-1.5.1-2.9.5-4.3,1.1h0c-.8.2-1.5.4-2.3.8-1,.5-2.1,1.2-3.3,2.1-.5.4-.9.7-1.4,1.1v.1l-.2.2c-1.8,1.1-3.4,2.5-4.5,4.4-.1.2-.3.4-.4.6h0c-2,2.3-3.7,4.9-4.8,7.8-.8,1.8-1.4,3.6-2.1,5.5-1.1,2.5-2.2,5.1-2.9,7.8-1.5,3.4-2.5,6.8-3.4,10.4-.8,2.7-1.5,5.5-2.1,8.3-.8,2.7-1.8,5.4-2.2,8.3-1.5,7.9-2.2,16.1-3,24.2-.6,6-1.1,11.9-1.4,17.9,0,.7,0,2.5-.1,4.7-.1.8-.2,1.6-.4,2.4-.4,4.1-.8,8.3-1.2,12.5v.1c-1,3.9-2.6,6.2-5.1,3.8-.9-1.2-1.6-2.5-2.2-4-.1-.3-.1-.5-.2-.8v-.2c.5-.7-.1-1.5-.7-1.5,0-.3-.2-.5-.4-.7-.2-.4-.3-.7-.5-1.1-.1.3-.1.6-.2.9-.5,0-.9.5-.9,1v1c-.5.6-1,1.3-1.5,1.8-.3-.1-.6-.2-.9-.5-.4-.3-.6-.8-.8-1.2-.3-1-.5-2-.9-3-.3-.8-.5-1.7-.8-2.5-.1-.7-.3-1.4-.4-2,0-.3-.2-.6-.4-.8,0-.2-.1-.4-.1-.5-.1-.3-.1-.7-.2-1-.2-1.1-.4-2.2-.8-3.3,0-.3-.2-.5-.5-.7-1.6-4.4-3.8-8.7-7.2-11.9-1.3-2-3.5-2.8-5.5-3.7-.9-.3-1.7-.8-2.6-1-.9,0-1.8.1-2.7.3h-.6c-.8-.2-.9-1.3-.2-1.8-1-4.6-1.7-9.3-1.5-14.1-.1-4.8-.1-9.5.3-14.3.6-6.2,2.5-12.2,3.4-18.4-2.3,2.9-6.2,7.6-8.2,5.7-1.4-2.7-.6-6.4-.5-9.3,1.2-4.1,2.1-8.3,3.9-12.2,3.5-9,8-17.4,14.4-24.6,9-12,18.9-24.4,33.6-29.3,3.5-1.3,7.2-2.3,10.8-3.5,1.2-.2,2.4-.9,3.6-1.2-.6-1-.9-2.1-1.4-3.2-.7-2-1-4.3.3-6.2,1.6-2.5,4.1-4.2,6.6-5.8,2.4-1.8,5-3.3,7.9-4.1h0c.1,0,.2-.1.3-.1.5-.2,1-.3,1.3-.5,10.2-3.3,21-2.6,31.5-3h0c.1,0,.3-.1.5,0,.5,0,1.1,0,1.6-.1.4,0,.9,0,1.2.2.1,0,.1.1.2.2,13.6,1.5,27.1,5.1,39.8,10.2,7.2,3.4,14.8,6.5,21,11.5,1.2,1,2.3,2,3.4,3h1c4.9-.8,10.1-.2,14.4,2.4.9.6,1.5,1.4,2.2,2.1.2.1.3.3.4.5,1,.7,1.9,1.6,2.1,2.8.1,1.2-2.2,2.7-3,1.6-.9.2-1.9.3-2.8.4-.8.2-1.5.4-2.3.5,4,1.9,7.6,4.7,10.9,7.5,1.6,1,3.2,2.2,4.6,3.4,1.2.9,2.9,1.8,3.1,3.5.4,2-2,2.7-3.6,2.3-1.6-.1-3-.5-4.4-1.1,1.5,1.4,2.9,2.9,4,4.6,1.4,1.8,3.2,3.2,4.6,5,1.8,2.3,3.4,4.8,5.3,7,3.2,4.5,5,9.8,7.9,14.5.2.4.1.8-.1,1.1.3.5.5,1.1.8,1.6,2.8,4.8,5.2,9.9,6.6,15.2,1.5,6.2,3.3,12.4,4.5,18.8.1.4-.1.8-.4,1,.5,1.5.8,3.3.9,5.2h0Z"/>
      <path class="cls-1" d="m155.09,179.46c1.5,3-.1,6.9-2.8,8.8-1.2,0-2.5.2-3.7-.1-.3-.1-.6-.3-.9-.5-.4-.3-.9-.3-1.2,0-.9-1-2-1.9-3.1-2.7-.7-.5-1.7.3-1.4,1.1.1.1.1.2.2.3-4.6-1.6-9-3.7-13.4-5.8-3.6-1.5-7.6-1.9-11.4-2.5-4.9-.9-9.7.9-14.6.2.4-.7,1.3-1.3,2-1.7.8-.2,1.8-.8,1.2-1.8.1-.6.8-.7,1-1.2,5.3-1.5,10.7-2.3,16.3-1.4,6.7,1.1,13.4,2.8,19.6,5.5,3,1,5.3,4.6,8.7,3.9,1.4-.4,1.9-2.9,3.5-2.1h0Z"/>
      <path class="cls-1" d="m232.69,186.26c.2.2.5.8.4,1.2-1.1,1.1-2.7.7-4.1.7h-.1c-.1-.3-.5-.6-.8-.6-1.5.1-8.4-.8-9,1-6.5.9-12.8,3-19,4.8-.5,0-1-.2-1.5-.3-.4-2.3.1-7.4,2.7-8.2.1.2.3.3.4.5-.4.3-.5.9-.2,1.3.3.4.8.5,1.2.3.7,1.5,2.3,1.1,2.2,0,.5-.2,1.1-.6,1.5-.7,2.9-1.3,5.7-2.8,8.8-3.4.6-.1,1.1-.2,1.7-.3.4-.1.6-.3.7-.6,4.7-.9,9.8-1.6,14.1.6.2.4,1.3,1.3.7,1.6-1.1.6-.7,1.7.3,2.1h0Z"/>
      <path class="cls-5" d="m51.89,225.06c.8,4.9-1.1,9.7-1.6,14.6,0-.5,0-1-.1-1.4-.3-3.9-.4-8,.8-11.8,0-.1.1-.2.1-.3-.1-1.7-.1-3.3,0-5,.9.7.6,2.9.8,3.9h0Z"/>
      <path class="cls-5" d="m247.59,204.46c.3.2.5.5.5.9-.1,2.1-.3,4.2-.4,6.4,0,1.2-.1,2.4-.4,3.5q-.2.8,0,0c-.1.3-.2.7-.2,1-.3,1-.6,2.1-.9,3.1-.3,1.2-.5,2.5-.9,3.6h-.4c-.2,0-.5-.2-.6-.4-.2-.2-.2-.5-.2-.7.5-1.3.5-2.7.6-4.1.9-2.8,1.3-5.7,1.3-8.6.1-1.2.2-2.4.2-3.7v-.5c.1-.5.5-.8,1-.8.2.2.3.2.4.3h0Z"/>
      <path class="cls-5" d="m246.19,205.56c.3.1.6.4.7.8-.1,2.8-.6,5.8-.8,8.6-.4,2.6-.7,5.3-1.7,7.6-.2-.2-.2-.5-.2-.7.5-1.3.5-2.7.6-4.1,0-.8,0-1.5.1-2.3.3-2.6,1.1-5.1,1.2-7.7,0-.2,0-.5.1-.7h0c-.2-.4-.3-.8-.4-1.2h0v-.1q0-.1.1-.2s.1,0,.3,0h0Z"/>
      <path class="cls-8" d="m148.29,295.56h0s-.1,0,0,0q-.1,0,0,0c-.5-.2-.9-.4-1.3-.6-.2-.1-.4-.2-.6-.3-.2-.1-.4-.2-.6-.3-.3-.1-.6-.3-.8-.4-.5-.2-1-.5-1.6-.8-.2-.1-.4-.2-.6-.3-1.4-.7-2.7-1.5-4.1-2.3-.5-.3-1.2-.7-1.6-1.2.2.1.4.1.6,0,3.5,1.8,6.6,4.2,10.1,5.8.2.2.3.3.5.4h0Z"/>
      <path class="cls-8" d="m196.39,289.36c.9-.4,1.8.9,1,1.6-.2.2-.4.3-.6.5-.5.4-1,.8-1.5,1.1-.1.1-.2.1-.2.2.6-.7.3-1.8-.9-1.7-.2.1-.4.2-.6.3.3-.2.7-.5,1-.7.6-.5,1.1-1,1.8-1.3h0Z"/>
      <path class="cls-8" d="m167.59,298.06c.4,0,.8.1,1.2.1-.7.2-1.6.1-2.2.7-1.6-.7-3.2-.8-4.9-1.1-4.1-.8-8.1-2.2-12-3.7,1.8.5,3.5,1,5.2,1.6.4.1.9.3,1.3.4,1.5.5,3.1,1,4.7,1.5,2.2.1,4.4.2,6.7.5h0Z"/>
      <path class="cls-8" d="m187.79,293.86c.6-.3,1.1-.5,1.7-.8-1.2.8-2.4,1.5-3.6,2.2-.2-.1-.3-.2-.4-.2.7-.3,1.5-.8,2.3-1.2h0Z"/>
      <path class="cls-7" d="m51.89,250.76c.5,2.5,1,4.9,1.7,7.3-.9-2.5-1.8-5.1-2.8-7.6-.1-.3-.2-.7-.4-1h0c.3-.5.5-1.1.5-1.8-.2-1.7-.8-3.3-.8-5v-3.1c.4,3.8.8,7.6,1.8,11.2h0Z"/>
      <path class="cls-7" d="m204.29,192.06c-.1.2-.2.3-.3.5-.6-.4-1.4.1-1.8.8h-.2c-.3-.2-.7-.4-1-.2h0v-.1c1-.3,2.2-.6,3.3-1h0Z"/>
      <path class="cls-7" d="m205.19,201.76h.1c-1.3.5-2.5,1-3.7,1.6,1-.7,2.1-1.3,3.2-1.8.1,0,.2.1.4.2Z"/>
      <path class="cls-7" d="m210.79,199.56c3.3-.7,6.5.3,9.2,2-3.5-1.1-7.3-1.4-11-1-.9.2-1.8.4-2.7.7.1-.2.2-.4.2-.7,1.4-.3,2.8-.7,4.3-1h0Z"/>
      <path class="cls-4" d="m148.29,295.56h0s0-.1,0,0c-.1-.2-.3-.2-.4-.3-3.5-1.6-6.6-4-10.1-5.8-.2.1-.4,0-.6,0,.3.5,1.1.9,1.6,1.2,1.3.8,2.7,1.6,4.1,2.3.2.1.4.2.6.3.5.3,1,.5,1.6.8.3.1.6.3.8.4s.4.2.6.3c.2.1.4.2.6.3.3.1.7.3,1.2.5q-.1,0,0,0c-.1,0,0,0,0,0h0Zm15.6-69.7c.2-.7-.5-1.3-1.2-1.2,0-3.1.5-6.2.2-9.3-.4-3.1-.8-6.1-1.2-9.3-1-4-2.1-8-3.5-12-.7-2.4-1-5-1.7-7.4-1.1-2-2.7,1-3.8,1.5h-.3c2.7-1.9,4.2-5.8,2.8-8.8-1.5-.7-2,1.8-3.3,2.1-3.4.8-5.8-2.8-8.7-3.9-6.3-2.7-13-4.4-19.6-5.5-5.6-.9-11-.1-16.3,1.4-.2.5-.8.6-1,1.2.6,1-.4,1.5-1.2,1.8-.8.4-1.6.9-2,1.7,4.9.7,9.7-1.1,14.6-.2,3.8.6,7.8,1,11.4,2.5,3.8,1.8,7.6,3.6,11.5,5.1l.1.1c4.2,2.3,6.7,6.7,7.4,11.3,0,.1,0,.3-.1.4-.1.3,0,.7.2.9h0c-1.6-1.2-3.3-2.3-5-3.4-3.1-1.7-6-3.6-9.4-4.7-.2-1.3-2.9-.9-3.9-1.3-.2,0-.4,0-.5-.1-.5-.1-1-.3-1.5-.4-.1-.2-.3-.3-.6-.4-.8-.1-1.6-.2-2.5-.2-5.2-.7-10.6.1-15.5,2.3-1,.5-4.9,2-5.7,3.5-.5.4-1.2.8-1.9,1.3-.2-.3-.6-.4-1-.4-1.2.4-1.6,2-2.3,2.9-1.1,2-2.8,6,.4,7,.5.2,1.9,0,3.2-.4-.2.2-.2.5-.2.7.7,1.3,2.4,2.4,3.6,3.4,1.8,1.4,3.7,2.7,5.5,4.1-.3,1.4,2.9,3.3,3.7,4.3,4.1,3.3,8.7,6.7,14.2,6.7,3.2.3,6.3-.5,9.2-1.9,3-1.2,5.8-3,7.7-5.6,2.1-3,4-6.3,6.2-9.2.4.7.8,1.5,1,2.3.6,2.5.5,5,.7,7.5.3,4.9.7,9.9-.5,14.7-.8,2.8-1,6.1-3.4,8-.5.3-1,1.1-.5,1.7.7.8,1.5,0,2.1-.6.1-.1.2-.1.2-.2.5.2,1.1-.1,1.3-.6.2,0,.3-.1.4-.2,2.5-.5,2.2,2.9,3.5,4.1,1.5.7,1.7-1.3,2.4-2.2.8-1.5,1.5-3.1,2-4.8,1.1-.4,1.2-3.5,1.6-4.5.8-1.8,1.1-3.8,1.2-5.8h0Zm4.8,72.2c-.4,0-.8,0-1.2-.1-2.2-.3-4.5-.4-6.8-.6-1.6-.4-3.1-.9-4.7-1.4-.4-.1-.9-.3-1.3-.4-1.7-.6-3.5-1.1-5.2-1.6,3.9,1.5,7.9,2.9,12,3.7,1.7.3,3.3.4,4.9,1.1.7-.5,1.7-.5,2.3-.7h0Zm10.3,30.6c1-.4,1.2-1.7.1-2.2-1.9-1.2-4.1-1-6.2-1.1-3.2,0-6.4.4-9.5.3-1.5.2-9.4-.8-8.9,1.4-2.4-.2-4.8-.2-7.1-.8-.3-.1-.8,0-1,.2-.8.6-.1,1.9.8,1.7,7.4,1.3,15,.7,22.5,1.3,3.1.3,6.3.1,9.3-.8Zm10.5-35.5c-.6.2-1.2.5-1.7.8-.8.4-1.6.8-2.4,1.2.1,0,.3.1.4.2,1.3-.7,2.5-1.5,3.7-2.2h0Zm7.9-2.3c.8-.7-.1-2-1-1.6-.7.4-1.2.9-1.8,1.3-.3.2-.7.5-1,.7.2-.1.4-.2.6-.3,1.2-.2,1.5.9.9,1.7.1-.1.2-.1.2-.2.5-.4,1-.7,1.5-1.1.2-.1.4-.3.6-.5h0Zm3.8.7c.5-.3.6-.9.4-1.3-.2-.3-.5-.5-.8-.5h-.4c-.4.1-.8.3-1.1.6-.2-.1-.4,0-.7.1-4.8,2.7-8.6,6.9-13.2,9.9-1.7.9-3.6,1.2-5.4,1.8-2.1.6-4.1,1.6-6.3,1.9-6.1.7-12.2-.6-17.8-3.1-5-2.4-10-4.8-14.5-8-2.6-2-5.2-4.1-7.8-6.1-1.5-.6-4-1.3-5.5-.5l-.1.1s0,.1-.1.1,0,.1,0,.1v.1c-.1,0-.2,0-.3-.1h-.3c-.4,0-.7-.1-1.1,0-1,.1-.9,2,.2,1.9,6.8.5,11.6,6.2,17.4,9.3,2.9,2.3,6,4.2,9.4,5.6,5.1,2.3,10.6,4.4,16.3,4.2,4.9.2,9.7-1.2,14.2-3,2.9-1.4,5.4-3.4,7.9-5.4,3.2-2.4,5.9-5.8,9.6-7.7h0Zm31.9-104.1c.1-.4-.1-1-.4-1.2-1.1-.3-1.5-1.5-.4-2.1.6-.3-.5-1.2-.7-1.6-4.3-2.2-9.3-1.5-14.1-.6-.1.3-.3.5-.7.6-.6.1-1.1.2-1.7.3-3.1.6-6,2.1-8.8,3.4-.4.1-1,.5-1.5.7.1,1-1.5,1.5-2.2,0-.4.2-1,.1-1.2-.3-.3-.4-.2-1,.2-1.3-.1-.2-.3-.3-.4-.5-2.6.8-3,5.9-2.7,8.2h0c-5.6,3-9.7,8.5-12.6,14.1-2.5,5.8-3.7,12.2-4.1,18.5,0,1-.1,2-.2,3h0c-.5,0-1,.4-1,.9-.4,4-.8,7.9-.5,11.9.1.6.6.9,1.1.8,0,.6.2,1.2.4,1.8,1.5,1.8,2.9-1,3.8-2,.1-.2.3-.3.5-.5.3,1,2,.7,1.9-.4-.1-1.1-.3-1.9-.4-3.1-.4-9.3.2-19.7,5.7-27.3,0,.3.1.8.3,1.1,2.6,9.3,10.6,17.7,20.4,19.1,3.9.7,7.4-2,9.6-4.8,1.3-1.6,3.1-2.9,4.2-4.6,1.5-2.4,2.2-5.2,2.8-7.9.1-.6.4-1.4.3-2,.1,0,.3-.1.4-.2,1.1-2.2-.6-5-1.7-6.9-5.6-7.4-16.2-9.9-24.9-7.2h0v-.5c0-.3.1-.6.1-.9.2-.9.7-1.7,1.2-2.4h0c.2-.2.4-.5.6-.7.5-.2.8-.8.7-1.3,3.9-1.1,7.9-2.1,11.9-2.7.6-1.8,7.6-.9,9-1,.4,0,.7.3.8.6h.1c1.4-.3,3.1.1,4.2-1h0Zm12.1,18.3c-.2.1-.3.3-.3.5-.9-.1-1.8-.3-2.4-1-.2-.3-.4-.7-.7-1,0-.6-.3-1-.9-1.1-1.8-.1-.9,3.8-1.1,5,0,2-.2,4-.3,5.9-.4,4.4-.6,8.9-.9,13.3-.1.7-.2,1.7.5,2.1-.2.5-.8.6-1.2.5-.1,3.4-.3,6.8-.7,10.1.1.2.2.4.1.6-.8,4-1.1,8.3-1.5,12.3,0,6-.8,11.8-1.5,17.7-.1,1.1-.2,2.2-.4,3.3-.1,2.2-.2,4.3-.7,6.5-.7,2.8-1.7,5.5-2.3,8.3-1.5,6.1-3,12.5-6.4,17.9-3.5,5.3-7.7,10.2-11.6,15.2-1,1.2-2,2.5-2.9,3.7-.2.4-.7.6-1.1.5,0,0-.1,0-.1-.1-4.7,5.4-7.9,12-11.8,18-3.2,4.2-7.1,7.8-11.8,10.2-3,1.7-6,3.4-9.3,4.2-.7.3-1.7.6-2.2.1-1.4.4-2.7.7-4.1,1-7.4,1.6-14.9,2.4-22.5,2.2-2-.2-12.4-.1-13.9-2-9.8-3-19-8.5-25.4-16.5-1.4-2.1-2.7-4.4-3.9-6.6-1-2.3-2-4.9-3.8-6.9-.1.1-.3.1-.5.1s-.4-.1-.6-.2c-.6-.4-1.2-.9-1.8-1.4-.6-.7-1.3-1.4-1.9-2.1-.6-.6-1.2-1.3-1.8-1.9-.2-.2-.4-.4-.6-.7,0-.1-.1-.1-.1-.2-.1-.2-.3-.3-.5-.5-.1-.2-.3-.3-.4-.4-.1-.1-.2-.2-.3-.3q-.1-.1-.2-.2c-.2-.3-.5-.6-.7-.8-.5-.6-1-1.2-1.5-1.7h0c-.1-.1-.1-.2-.2-.2-.5-.7-1-1.3-1.5-2-.3-.3-.8-.4-1.2-.2-.1-.1-.3-.3-.4-.4-.1-.1-.2-.2-.4-.2-4.4-5.2-8.4-10.8-11.9-16.6,2.1,3,4.3,5.8,6.6,8.7,3.6,3.9,7.2,7.8,10.8,11.9,2,2.4,4.6,4.3,6.1,7.1.1.1.2.1.3.2v.1c.2.5.8.7,1.3.5,1-.5.5-1.6,0-2.3-.7-1.4-1.4-2.8-2.1-4.1-3.4-9.5-7.1-18.9-11.4-28.2-2.1-5.6-4.4-11-6.2-16.7-2.1-8.6-3.9-17.4-4.6-26.3,0-7.4.1-14.8.2-22.3.4-6.2,1.5-12.4,2.2-18.6.1-.5.3-.9.4-1.4,1.6-5.1,2.5-10.4,3.7-15.6.6-2.3,1.1-4.8,1.7-7.2h0c.3-1.1.6-2.2.9-3.3,0-.1,0-.2.1-.3v-.3c.1-.5.2-1,.2-1.5v-.2c.1-.5.2-1,.3-1.5,0-.3.1-.7.1-1,.1-.5.2-1.1.3-1.6.1-.6.2-1.2.3-1.8v-.7c0-.3.1-.7.1-1,1-6.8,1.9-13.6,2.7-20.5h0c1-5.7,1.6-11.4,2.8-17.1,1.3-7,2.8-13.9,4.4-20.8,1.6-7.7,3.6-16,9.5-21.5,1.9-1.5,4.2-3.2,6.8-2.8,1.9.7,3.9,1.2,5.5,2.5.4.5.8.6,1.2.6l.2.2s.1-.1.2-.1c.5.6,1,1.1,1.5,1.7,4,4.3,7.6,9,11.5,13.4.1,0,.2.1.4.2,1.6,1.6,3,3.3,4.7,4.8,2.3,2,4.9,3.1,7.5,4.7,0,0,.1.1.2.1,1.9,1.2,3.8,2.1,5.9,2.9,2.2.9,4.5,1.5,6.9,2.1h0c1.8.4,3.5.8,5.3,1.1,2.6.1,5.2.2,7.8.3,4.5.1,9,0,13.4-.8,2.8-.6,5.1-2.4,7.3-4.1,1.7-1.3,3.3-2.6,4.5-4.4.3-.4.2-1,.8-1.2.7-1.7,1.4-3.5,2-5.2,1-2.9,2-5.9,3-8.8.2-.8.5-1.5.8-2.2.6-1.8.8-3.8,1.6-5.6,1.5-3.2,4.5-6.2,8.2-6.1,13.8,7.1,17.5,23.9,21,37.8,1.1,4.7,2.2,9.4,2.6,14.2.1.7.1,1.8-.7,2,.7,7.2.7,14.5,1.5,21.7.1,6.2,1.3,12.3,1.8,18.5,0,.4.1,1.3.3,2.3.2,1.5.5,3.5.3,4.7-.1.5-.2.9-.5,1.1.5,4.8,1,9.6,1.5,14.4,0,.3,0,.7.1,1,.8-.6,1.5-.5,2.2,0,1,.6,1.9,1.8,2.8,2.3.3-.2.6-.1.8,0h0Z"/>
      <path class="cls-4" d="m51.29,213.46c.1,2.6,0,5.1-.1,7.7-.2-.2-.5-.3-.8-.2-.2,0-.4.2-.5.3-.7-1.2-1.5-2.3-1.7-3-2.2-5.5-5.6-10.5-7.8-16-3-5-8.1-8.2-12.8-11.5.1-.1.2-.3.2-.5,0-1.3-1.8-1.4-2.8-1.1-7,1.4-8.2,11.2-7.2,17.1.1.6.4,1.2.7,1.8-.6-.7-1.1-1.5-1.6-2.2-3.3-5.3-5.3-11.7-4.6-18,.8-4.3,2.3-8.6,5-12,1.1-1.8,2.5-3.5,4.3-4.7,2.3-1.7,4.8-3.3,7.7-3.4h.6c3-.4,6,1,8.5,2.4,1.5,1.3,2.7,3,4,4.5,1.1,1.5,1.7,3.5,2.4,5.1-.1.2-.1.4,0,.5.3,1,.3,2,.5,3,.8,3.5,1.3,7.1,2,10.6,1.1,4.8,1.5,9.8,3.2,14.5.2.6.3,1.3.6,1.9.1,1.1.2,2.1.2,3.2h0Z"/>
      <path class="cls-4" d="m252.09,199.06c4,5.2-1.2,10.6-4.3,15.1-.1.4-.3.8-.5,1.1h0c0,.1-.1.2-.1.3,0,.2-.1.5-.1.7-.1.9.1,1.8.2,2.7.1.5-.3.9-.8,1-.1,1.6-.5,3.2-1.6,3-.5-.1-.9-.6-.8-1.1.7-2.1.5-4.2.6-6.3.3-2.6,1.1-5.1,1.2-7.7,0-.2,0-.5.1-.7h0c-.2-.4-.3-.8-.4-1.2h0v-.1q0-.1.1-.2c.1-.2.3-.4.5-.5.1,0,.2-.1.2-.1h.4c.2-.5.8-.7,1.3-.5.5-1.1.6-2.5.7-3.6v-.8c0-1-.2-2.3.4-2.9.2-.2.4-.3.7-.4,1.3-.2,1.8,1.4,2.2,2.2h0Z"/>
      <path class="cls-3" d="m202.49,197.86v-.9c0,.2-.1.3-.2.5,0,.1,0,.2-.1.3,0,.1,0,.2-.1.3.2-.1.3-.1.4-.2h0Zm26.1,12.4l-.1-.1c-.6-.6-1.1-1.4-1.7-2-1.5-1.6-2.9-3.2-4.4-4.7l-.1-.1h0c-.7-.5-1.4-1-2.1-1.5h0l-.2-.1c-2.8-1.7-6-2.8-9.2-2-1.5.2-2.9.6-4.3,1.1,0,.2,0,.5-.2.7h0c-.2.3-.6.5-1,.4h-.1c-.1-.1-.3-.1-.4-.2-1.1.5-2.2,1.2-3.2,1.8-2,1.2-3.8,2.7-5.7,4.1-.8.8-1.6,1.7-2.3,2.6.1,0,.2,0,.2-.1.6-.1.9.3,1.1.7v.1c.1,0,.2,0,.3-.1h0c1.8-.4,4.9,0,5.7-.2,6.5-.1,13-.3,19.5-.5,2.7,0,5.2,0,7.8.2.2-.1.3-.1.4-.1h0Zm.8-5.9c1.1,2,2.8,4.7,1.7,6.9,0,0-.1.1-.2.1h-.2c.2.6-.1,1.5-.3,2-.7,2.7-1.3,5.5-2.8,7.9-1.1,1.8-2.9,3-4.2,4.6-2.3,2.9-5.8,5.5-9.6,4.8-9.8-1.4-17.9-9.8-20.4-19.1,0,0,0-.1-.1-.1-.1-.1-.1-.2-.2-.4h0c0-.1,0-.2-.1-.2h0v-.3h0c-.1.2-.2.3-.4.5,0,.1-.1.1-.1.2-.1.2-.2.4-.3.5-.3.4-.5.8-.8,1.3-.1.2-.2.5-.4.7-.1.2-.2.4-.3.6-.1.2-.2.4-.2.5s-.1.2-.1.3c-.1.3-.3.7-.4,1,0,.1-.1.2-.1.3l-.1.2c-.1.2-.1.3-.2.5-.1.2-.2.5-.3.8-.1.2-.1.5-.2.7-.2.8-.5,1.6-.6,2.4,0,.2-.1.4-.1.6s-.1.5-.1.7c-.2.8-.3,1.6-.4,2.4l-.1.6c0,.3-.1.5-.1.8,0,.2,0,.5-.1.7-.2,1.8-.3,3.6-.3,5.4v.8c0,1.7,0,3.4.1,5,0,1.1.3,2,.4,3.1,0,.4-.2.7-.5.9,0,0-.1,0-.2.1-.2.1-.3.1-.5,0h-.2s-.1,0-.1-.1c0,0-.1,0-.1-.1h0l-.1-.1-.1-.1h0s0-.1-.1-.2l-.5.5c-.9,1-2.3,3.8-3.8,2,0-.1-.1-.2-.1-.3s-.1-.2-.1-.3h0c0-.1,0-.2-.1-.3v-.3c0-.2,0-.4-.1-.5h-.4c-.2,0-.3-.1-.4-.2s-.2-.3-.3-.6c-.3-4,.1-7.9.5-11.9,0-.5.5-.9,1-.9h0c0-.5.1-1,.1-1.5s0-1,.1-1.5c.4-6.3,1.6-12.7,4.1-18.5.1-.2.2-.3.3-.5.1-.1.1-.2.2-.4,1.4-2.7,3.1-5.3,5.2-7.6l.3-.3c.6-.7,1.3-1.3,2-2,.1-.1.3-.3.5-.4.2-.2.4-.3.5-.5.1-.1.3-.2.4-.3.1-.1.2-.2.4-.3.5-.3,1-.7,1.5-1,.1-.1.2-.2.3-.2.3-.2.7-.4,1-.6.4-.2.8-.4,1.1-.6.5-.2,1,0,1.2.6v.2h0c.3-.1.8,0,1,.2h.2c.3-.6,1.2-1.2,1.8-.8.1-.2.2-.3.3-.5.6-.9,1.5-2,2.5-1.2.1.1.2.2.2.4v.1h0c0,.5-.3.9-.7,1.2-.1.1-.2.2-.3.4h0c-.1.1-.2.2-.3.4h0c-.1.1-.1.2-.2.3v.1c0,.1-.1.1-.1.2-.1.1-.2.3-.2.4s-.1.3-.2.4-.1.3-.2.5c0,.1-.1.2-.1.3s-.1.2-.1.3v1.5h0c8.8-3.1,19.4-.6,25,6.8h0Z"/>
      <path class="cls-3" d="m150.19,200.06c-.1-.2-.3-.4-.4-.6l-.1.1c.1.2.3.4.5.5Zm1,4.9c-.2-.3-.3-.6-.5-.9-1,.2-1.6-1-2.3-1.5-1.7-1.7-3.6-3.3-5.6-4.6-.7.1-1.3-.6-1.8-.9-1.4-1-2.9-1.6-4.5-2-2.4-.5-4.8-.8-7.2-1.2-.3,0-.6,0-.9-.2h-4.6c-3.6,0-7.3.3-10.5,2-.2.1-.4.2-.6.3-1.6.8-3.1,1.5-4.4,2.6-.6.4-1.3,1.2-2.1,1-.6.4-1.5,1.2-2.5,2l.3.3s0,.1.1.1c.3.5,0,.9-.6,1.3-.2.1-.4.3-.7.4.2,0,.3.1.5.2l.1.1c.2.2.4.4.6.5.3-.1.6-.1.9.2.5.2,1,.3,1.5.5,1.5.4,3,.5,4.6.6.1-.4.4-.8.9-.8,1.3-.1,2.6-.1,4-.2,10.7-.5,21.4-.7,32,.6.1,0,.3.1.4.1.5,0,1.1-.1,1.6-.1h.5l.3-.3c.3,0,.4,0,.5-.1h0Zm11.5,19.8c.6-.2,1.4.4,1.2,1.2-.2,2-.5,3.9-.9,5.9q0,.1-.1.2v.1c0,.1-.1.3-.1.5v.2c0,.1,0,.2-.1.4v.8c0,.1,0,.2-.1.3,0,.1,0,.2-.1.4v.8s0,.1-.1.2c0,0,0,.1-.1.1-.1.1-.1.3-.2.4,0,.1-.1.1-.2.2s-.2.1-.3.2c-.1.4-.2.7-.4,1.1q0,.1-.1.2c-.1.2-.1.4-.2.6-.1.2-.2.4-.2.6h0c-.1.2-.2.5-.3.7h0c-.1.2-.2.5-.4.8v.1c-.1.2-.3.5-.4.8-.7.9-.9,2.9-2.4,2.2-1.3-1.2-1-4.6-3.5-4.1-.1.1-.3.2-.4.2-.1.1-.2.3-.3.4-.1.1-.2.1-.3.2-.2.1-.5.1-.8,0l-.2.2c-.6.6-1.4,1.3-2.1.6-.5-.6-.1-1.4.5-1.7,2.4-1.9,2.7-5.2,3.4-8,1.2-4.8.8-9.8.5-14.7-.2-2.5-.1-5-.7-7.5,0-.1-.1-.2-.1-.4h0c0-.1-.1-.2-.1-.3-.1-.2-.2-.5-.3-.7-.1-.1-.1-.2-.2-.3-.1-.2-.2-.3-.3-.5,0,0,0,.1-.1.1-.1.2-.2.3-.4.5-.5.6-.9,1.2-1.3,1.8-.1.2-.2.3-.3.5-1.4,2.1-2.7,4.3-4.2,6.4-2,2.6-4.7,4.4-7.7,5.6-2.9,1.4-6,2.2-9.2,1.9-5.5,0-10.1-3.4-14.2-6.7-.8-1-4-2.9-3.7-4.3-1.9-1.3-3.7-2.7-5.5-4.1-1.2-1-2.9-2.1-3.6-3.4,0-.3,0-.5.2-.7-1.3.4-2.7.6-3.2.4-3.2-1-1.5-5-.4-7,.7-1,1.1-2.5,2.3-2.9.4,0,.7.1,1,.4.7-.5,1.3-.9,1.9-1.3.8-1.5,4.7-3,5.7-3.5,4.8-2.2,10.2-2.9,15.5-2.3.8,0,1.6,0,2.5.2.3.1.5.2.6.4.5.1,1,.2,1.5.4.2,0,.4,0,.5.1,1,.4,3.7,0,3.9,1.3,3.3,1.1,6.3,3,9.4,4.7.7.4,1.3.8,2,1.2.4.2.8.5,1.1.8.1,0,.1.1.2.1.4.3.8.5,1.2.8h0c.2.1.4.3.6.4h0l-.1-.1v-.1c-.1-.2-.2-.5-.1-.7,0-.1,0-.2.1-.3v-.1h0c0-.1,0-.3-.1-.4-.2-1.1-.5-2.1-.9-3.1,0-.1-.1-.3-.2-.4,0-.1-.1-.3-.2-.4-.2-.4-.3-.7-.5-1.1-.1-.1-.1-.3-.2-.4s-.1-.2-.2-.4c-.1-.2-.2-.4-.4-.6,0-.1-.1-.1-.1-.2-.1-.2-.2-.3-.3-.4-.1-.1-.2-.2-.2-.3,0,0,0-.1-.1-.1-.1-.1-.1-.2-.2-.3,0-.1-.1-.1-.2-.2l-.3-.3c-.4-.4-.8-.8-1.3-1.2l-.2-.2c-.2-.1-.3-.2-.5-.4-.1-.1-.2-.1-.3-.2-.4-.3-.8-.5-1.2-.7l-.1-.1c-1-1,.4-2.5,1.4-1.4.4.2.7.4,1,.6.2-.1.5-.1.8.1,1.1.8,2.1,1.7,3.1,2.7.3-.3.9-.3,1.2,0,.3.2.6.3.9.5,1.2.3,2.4.1,3.7.1h.3c1.1-.5,2.7-3.4,3.8-1.5.7,2.4,1,5,1.7,7.4,1.4,3.9,2.5,8,3.5,12,.5,3.2.9,6.2,1.2,9.3,0,.3.1.7.1,1-.3,2.1-.8,4.9-.8,7.7h0Z"/>
      <path class="cls-3" d="m118.99,91.66v.1c0,.3-.2.5-.4.7,0,0-.1.1-.2.1-.1-.1-.1-.2-.2-.2-.4.1-.8,0-1.2-.6-1.6-1.2-3.7-1.8-5.5-2.5-2.6-.4-4.8,1.3-6.8,2.8-5.9,5.5-7.9,13.9-9.5,21.5-1.6,7-3.1,13.8-4.4,20.8-1.2,5.6-1.8,11.4-2.8,17.1h0c-.8,6.8-1.7,13.7-2.7,20.5,0,.3-.1.7-.1,1v.7c-.1.6-.2,1.2-.3,1.8-.1.5-.2,1.1-.3,1.6,0,.3,0,.6-.1,1-.1.5-.2,1-.3,1.5v.2c-.1.5-.1,1-.2,1.5v.3c0,.1,0,.2-.1.3-.2,1.1-.5,2.2-.9,3.3h0c-.6,2.4-1.1,4.9-1.7,7.2-1.2,5.3-2.1,10.5-3.7,15.6-.1.5-.3.9-.4,1.4-.7,6.2-1.8,12.4-2.2,18.6-.1,7.4-.2,14.8-.2,22.3.7,8.9,2.5,17.7,4.6,26.3,1.8,5.7,4.1,11.2,6.2,16.7,4.2,9.2,7.9,18.6,11.4,28.2.7,1.4,1.4,2.7,2.1,4.1.4.7,1,1.8,0,2.3-.5.2-1.1,0-1.3-.5h0c-.1,0-.2-.1-.3-.2-1.5-2.8-4-4.7-6.1-7.1-3.5-4-7.1-8-10.8-11.9-2.2-2.9-4.5-5.8-6.6-8.7-1.1-1.6-2.2-3.2-3.1-5-2.8-3.5-4.5-7.6-6.8-11.4-1-2.5-2.6-4.7-3.6-7.1-.8-2-1.5-4-2.4-6-1-2-1.8-4.1-2.4-6.3v-.1c-.1-.3-.2-.6-.3-.9-.2-.4-.4-.8-.5-1.2-.5-1.1-.9-2.3-1.2-3.5-.7-2.4-1.2-4.8-1.7-7.3-1.1-3.6-1.5-7.4-1.7-11.2v3.1c-.1,1.7.5,3.3.8,5,0,.7-.1,1.3-.5,1.8-.8,1.2-2.5,1.8-4.1,2.2-.7.2-1.3.2-1.8.3-.5,0-.9,0-1.3-.1-2.9-.5-5.4-2.6-7.4-4.6-2.9-3.7-4.2-8.5-5.6-12.9-.8-2.9-.9-5.9-1.1-8.9.1-1-.5-2.8.2-3.5.1-.1.2-.2.4-.2-.2-.6-.6-1.2-1.1-1.8-1.1-1.2-2-2.7-3-4.1-1.3-1.4-2.6-2.8-3.8-4.3l-1.2-1.2h0c-.8-.8-1.6-1.6-2.1-2.6-.3-.5-.5-1.1-.7-1.8-1-5.9.2-15.7,7.2-17.1,1-.3,2.7-.1,2.8,1.1,0,.2-.1.3-.2.5,4.7,3.3,9.7,6.6,12.8,11.5,2.2,5.6,5.5,10.5,7.8,16,.2.6,1,1.8,1.7,3,.1-.1.3-.2.5-.3h.6c.1,0,.1.1.2.1.1-2.6.2-5.2.1-7.7,0-1-.1-2.1-.2-3.2-.2-.6-.4-1.3-.6-1.9-1.6-4.7-2.1-9.7-3.2-14.5-.7-3.6-1.2-7.1-2-10.6-.2-1-.2-2-.5-3v-.5c.1-.3.4-.5.7-.6,1-.2,1.3.9,1.4,1.7.2,1,.3,1.9.5,2.9.2,0,.3.1.5.1.2.2.4.4.5.7.4,1,.6,2.2.8,3.3.1.3.1.7.2,1,0,.2.1.3.1.5h0c.2.2.4.5.4.8.1.7.3,1.4.4,2,.1.6.2,1.2.3,1.8.3,1.5.6,3.2,1.6,4.4.4.5.9.8,1.5,1.1h0c.6-.5,1-1.2,1.5-1.8v-1c0-.5.4-.9.9-1h.1c.2,0,.4.1.6.2.2.2.3.4.4.7v.5c.3.3.5.7.7,1.2.1.2.2.5.2.8.2.5.3,1.1.5,1.4.3.8.8,1.8,1.4,2.6.5.7,1.1,1.2,1.8,1.5.1,0,.2.1.2.1q.1,0,.2.1c.2-.1.3-.2.4-.3,1.7-1.3,2.6-3.1,2.7-5.2v-.1c.4-4.2.8-8.3,1.2-12.5.2-.8.3-1.6.4-2.4.4-2.8.4-5.6.6-8.4.3-2.7.5-5.3.5-8,.2-3.8.7-7.6,1.2-11.3.4-2.7.8-5.3,1.2-8,.5-2.6.8-5.3,1.2-7.9.2-1.2.3-2.4.5-3.5.7-3.8,1.8-7.6,2.7-11.4.3-1.6.6-3.2,1-4.8.8-3.5,1.9-7,3.4-10.4.7-2.7,1.7-5.2,2.9-7.8.4-.9.9-1.9,1.3-2.8.2-.5.4-.9.7-1.4.2-.6.5-1.2.7-1.8,1.1-2.6,2.6-5.1,4.1-7.4h0c.1-.2.3-.4.4-.6,1.1-1.9,2.7-3.3,4.5-4.4.3-.2.7-.4,1-.6,1.9-1.3,4.2-2.5,6.5-3,.1-.1.2-.2.4-.2.5-.2,1.1-.4,1.6-.5.2-.1.3-.1.5-.2,2.7-.9,5.1-.1,6.4,2.5.1.2.2.4.3.6.3.4.8.7,1.2,1.1.3.2.4.5.4.8.1.1.2.2.3.2.7.5,2,1.4,1.8,2.3.4.2.7.3,1.1.5h0c.5.3.9.6,1.3,1l.3.3c.2.2.4.4.5.6.4.2.7.5,1,.8.5.3.6.8.6,1.1-.2.4-.2.5-.2.5h0Z"/>
      <path class="cls-3" d="m179.09,326.46c1,.5.9,1.8-.1,2.2-3,.9-6.2,1.1-9.3.8-7.5-.6-15.1,0-22.5-1.3-1,.2-1.6-1.1-.8-1.7.3-.2.7-.3,1-.2,2.3.6,4.8.5,7.1.8-.5-2.2,7.4-1.3,8.9-1.4,3.2.1,6.4-.2,9.5-.3,2.1.1,4.4-.1,6.2,1.1Z"/>
      <path class="cls-3" d="m201.59,290.16c.3.4.1,1.1-.4,1.3-3.8,1.9-6.4,5.3-9.8,7.8-2.5,1.9-5,4-7.9,5.4-4.5,1.8-9.3,3.2-14.2,3-5.7.2-11.2-1.9-16.3-4.2-3.4-1.4-6.5-3.3-9.4-5.6-5.7-3.1-10.6-8.8-17.4-9.3-1.1.1-1.3-1.8-.2-1.9h1.7v-.2s0-.1.1-.1c0,0,0-.1.1-.1,1.5-.8,4-.1,5.5.5,2.6,2,5.2,4.1,7.8,6.1,4.5,3.2,9.5,5.6,14.5,8,5.6,2.5,11.7,3.8,17.8,3.1,2.2-.3,4.2-1.4,6.3-1.9,1.8-.6,3.7-.9,5.4-1.8,4.6-3,8.4-7.2,13.2-9.9.2-.1.5-.2.7-.1.4-.2.8-.5,1.1-.6h.4c.5.1.8.2,1,.5h0Z"/>
      <path class="cls-3" d="m245.99,207.16h0c0,.2,0,.5-.1.7-.1,2.6-1,5.1-1.2,7.7,0,.8,0,1.5-.1,2.3,0,1.4-.1,2.7-.6,4.1-.1.3,0,.5.2.7.1.2.3.3.6.4h.4c-.1.3-.2.7-.4,1-.7,2.1-2.4,3.6-4.1,5-.4.4-.9.7-1.4.5h-.2c-.1,0-.1-.1-.2-.1l-.1-.1s0-.1-.1-.1c-.1-.1-.1-.3-.2-.4v-.2h0v-1.2c.3-4.5.4-8.9.9-13.3.1-2,.3-4,.3-5.9.2-1.2-.7-5.1,1.1-5,.1,0,.2,0,.3.1h.1s.1,0,.1.1c0,0,.1,0,.1.1l.2.2c0,.1.1.1.1.2v.5l.1.1c.2.3.4.6.6.9.6.7,1.5,1,2.4,1,0-.1,0-.2.1-.2v-.1s0-.1.1-.1.1-.1.1-.1c.1-.1.3-.2.5-.2q0,.1-.1.2v.1h0c.2.3.4.7.5,1.1h0Z"/>
      <path class="cls-3" d="m153.29,259.56c-8.8-.6-10.1-8.2-7.1-15.2.5-1.1,1.4-4.7,3.2-3.2.3.4.2,1-.2,1.3-2,3.8-4.3,9.7-.8,13.2,2.4,2,5.9,2.3,8.8,1.4,1.2-.2,2.6-2.2,3.6-.9.6,1.1-.9,1.6-1.6,2.1-1.7,1-3.8,1.3-5.9,1.3h0Z"/>
      <path class="cls-3" d="m150.79,262.56c-1.8-.4-3.7-1-5.2-2-2.2-2.7-2.7-6.6-2-9.9.5-1.6,1-6.1,3-6.1.9.1,1.1,1.3.4,1.8-1.8,3.9-2.6,8.8-.2,12.6,4.7,2.6,6.6,2.2,10.3-1.6.4-.3,1-.2,1.4.2.7,1-.6,1.6-1.2,2.3-1.8,1.6-4,3.2-6.5,2.7h0Z"/>
      <path class="cls-3" d="m149.39,263.46c-.6-.1-1.1-.3-1.4-.8,0-.1-.1-.1-.1-.2-.8-.4-.6-1.7.3-1.9-1.7-.9-3.6-1.8-4.4-3.8-.3-.7-.5-1.7.2-2.2-.3-.9.7-1.8,1.5-1.2,1.2,1.2,1.5,3,2.8,4,1.9.2,3.8.7,5.8.5.6-.5,1.4,0,2-.3.9-.2,1.5,1,.9,1.6-.1.3-.4.5-.7.5-.9.3-1.8.9-2.7,1.2.5-.2,1.2-.1,1.4.5.6,2.1-4.4,2.3-5.6,2.1h0Z"/>
      <path class="cls-3" d="m169.39,262.36c-3-.2-6.5-1.5-7.2-4.7-.2-.8-.2-2.2,1-2,.5.1.9.5.8,1,0,2.6,3,3.6,5.2,3.8,3.1.2,6.4-1.9,8.1-4.4.6-1.1,2.3-.2,1.7.9h0v-.1c-1.6,3-5.9,5.7-9.6,5.5h0Z"/>
      <path class="cls-3" d="m168.99,267.46c-1.7-.4-2.8-1.7-3.8-3.1-1.2-1.6-2.5-3.2-3.1-5.2-.5-1.1,1.1-2,1.7-.9.3.6.5,1.2.8,1.8.4-.1.9.2,1.1.5.3.3.7.6,1.1.9.3-.3.8-.4,1.2-.3s.7.5.8.9c.8-.4,1.8-.9,2.7-.5,1.1-1.2,3.1-3.3,4.8-1.8.9-.8,1-3.5,2.7-2.3.4.6,1.2.8,1.4,1.5-.8,6.8-4.6,9.8-11.4,8.5Z"/>
      <path class="cls-3" d="m181.99,258.66c-1-.3-3-.2-2.8-1.7.1-.5.7-.8,1.2-.7,4.2,1.6,9.1-.8,11.8-4,1.2-1.9,1-4.4.4-6.5-.2-.8-1.3-1.3-.6-2.2.3-.4.9-.5,1.4-.2,2.1,2.2,1.8,5.9,1.1,8.6-1.7,4.1-8.2,7.4-12.5,6.7h0Z"/>
      <path class="cls-3" d="m184.29,257.66c-1.5,0-3-.4-4.5-.8-.5-.1-.9-.6-.8-1.1s.6-.9,1.1-.8c4.8,1.7,10.6.1,13.5-4.2.3-.4.4-1,1-1.1.5-.1,1,.2,1.2.7-.8,4.2-7.5,7.3-11.5,7.3h0Z"/>
      <path class="cls-3" d="m187.39,262.86c-.4-.2-.5-.6-.5-1-.2-.1-.3-.2-.3-.4v-.1c-.2,0-.4.1-.6.1-.5,0-.8-.3-.9-.7-.8.5-1.9-.2-1.5-1.2-.8-1.6,1.9-2.5,2.9-3.1,1-.5,2.1-.8,3.2-1.1.4-.1.8,0,1,.3.9-1,1.9-2.1,2.4-3.4.1-.5.5-1,1-.9.3-.7,1.5-.7,1.8,0,.2.3.1.8-.1,1.1,0,1.1,0,2.1-.3,3.2-.8,2.6-2.5,4.8-4.6,6.4-.6.4-1.4,1.1-2.1.5-.4.4-.9.6-1.4.3h0Z"/>
      <path class="cls-3" d="m156.69,258.16c-8.5-1.1-11.6-7.3-7.7-14.8.8-1.5,1.5-3.2,2.8-4.3,1-.8,2.2.8,1.2,1.5-.9.9-1.4,2.1-2,3.2-2.3,4.1-2.7,9.9,2.7,11.6,2.2.8,4.4,1.2,6.7.7.5-.2,1.1,0,1.3.5.5,2.1-3.8,1.5-5,1.6h0Z"/>
      <path class="cls-3" d="m154.09,259.06c-1.3-.4-2.7-.2-3.9-.8-1.4-.5-2.5-1.6-3.3-2.8-1.4-.3-1-2.7-1.1-3.8-.2-2.4-.5-5,.5-7.3.6-1.3,1.5-3,2.9-3.4.6,0,1.1.5,1,1.1-.5,1.3-1.1,2.4-1.4,3.7.2.2.2.5.2.7-.2,2.2-.3,4.4-.2,6.6.3,0,.6.2.7.4,1,1.2,2,2.1,3,3.2,1.3.5,2.7.1,4,.1s1.3,1.9,0,1.9c-.5,0-1,.1-1.5.1-.1.3-.5.4-.9.3h0Z"/>
      <path class="cls-10" d="m169.59,262.46c-1.9-.5-3.8-1.7-5.1-3.1-.6-1-1.4-2.5-1.3-3.7.2-1.1,2-.9,1.9.2.2.7.5,1.5.8,2.2.8.9,1.9,1.5,3,2.1,4,1.9,7.8-.8,9.4-4.5.7-1.1,2.3-.1,1.7,1-1.9,3.9-5.9,6.9-10.4,5.8h0Z"/>
      <path class="cls-10" d="m170.79,261.76c-.5-.1-1.1-.2-1.6-.3-1.3-.4-.7-2.1.6-1.9.2-.4.6-.6,1-.6,2.9.5,4.5-2.2,6.6-3.6.6-.9,2.1,0,1.6,1-1.4,3.1-4.4,6.6-8.2,5.4h0Z"/>
      <path class="cls-10" d="m183.29,257.96c-1.2-.2-2.2-.9-3.3-1.6-.5-.3-1-.8-1.1-1.4-.3-1.5,1.8-2,1.9-.4,2.1,1.8,4.2,1.9,6.6.5h0c2.7-1.3,4.8-3.9,5.4-6.8.2-1.2-1.2-3.3.4-3.8,1.1-.1,1.1,1,1.3,1.8,1.4,5.9-5.6,12.2-11.2,11.7h0Z"/>
      <path class="cls-10" d="m182.99,256.86c0-.1-.1-.2-.1-.3-1.2.2-3.1-.9-1.9-2.2.5-.3,1.2-.3,1.5.2,2.4.1,4.4-1,6.5-1.6.5-.4,1-.9,1.7-.5.5.3.7,1.1.2,1.5-1,1.2-6.8,4.8-7.9,2.9h0Z"/>
      <path class="cls-10" d="m228.29,295.36c-.5-.1-.9-.6-.8-1.1.2-2.2.5-4.4.8-6.5.9-6.3,1.4-12.7,3.1-18.9,1.4-5.5,3.1-10.9,3.9-16.5.2-1.5.6-2.8.8-4.2.1-.5.6-.9,1.1-.8,1.3.2.7,1.8.5,2.7-1.2,7.9-3.6,15.5-5.5,23.2-1.2,7.1-2.1,14.2-2.9,21.3,0,.5-.5.9-1,.8h0Z"/>
      <path class="cls-3" d="m226.39,302.96c-.5-.1-.9-.6-.8-1.1.4-2,.5-4.1.7-6.2,1.3-10.8,4.4-21.2,6.8-31.7.7-3.1,1.5-6.2,2.4-9.3.2-1.2,2.1-1,1.9.3-2.9,11-5.5,22.2-8,33.3-.6,3.2-1.1,6.4-1.4,9.7-.3,1.3.2,5.2-1.6,5h0Z"/>
      <path class="cls-3" d="m227.39,299.26c-1.6-.6,0-3,.1-4.2.7-3.1,1.5-6.2,2.3-9.3,2.2-7.5,2.9-15.3,4.2-22.9,0-.5.6-.9,1.1-.8,1.2.2.8,1.5.7,2.3-1,4.8-1.1,9.7-2.2,14.4-1.2,5.8-2.9,11.4-4.2,17.2-.7,1-.4,3.6-2,3.3h0Z"/>
      <path class="cls-11" d="m55.39,178.66c-.5-1.7-.6-3.6-.6-5.4-.1-3.1-.9-6.2-1-9.4-.8-6.2-1.5-12.7-.1-18.9,3.8-12.5,12.1-23.1,20.4-33,1.7-1.9,3.5-3.8,5.2-5.7.3-.4.8-.5,1.2-.3,1.7,1.1-1.2,3-1.9,3.9-2.2,2.4-4.4,4.9-6.5,7.4-5.3,6.6-10.3,13.4-13.9,21.1-1.6,3.3-3,6.7-3.4,10.3-.8,8.8,1.5,17.5,1.8,26.3,0,1.1.2,2.2.5,3.3.1.5-.2,1-.7,1.2-.4.1-.9-.3-1-.8h0Z"/>
      <path class="cls-11" d="m62.49,204.56c-.5,0-1-.2-1.4-.6-1-1.3-1.7-2.8-2.3-4.3-.7-2.6-1.8-5-2.1-7.7-.7-4.4-1.6-8.8-1.8-13.2.4-3.4-.5-6.7-.7-10,.1-1.2,2-1.2,1.9.1,0,2.2.8,4.3.7,6.5,0,2.2-.2,4.5.2,6.8,1.2,6.9,1.6,14.3,5.4,20.4.9-1.8.7-3.8.9-5.7.2-3.1.8-6.1,1.2-9.1,1.1-15.4,1.1-31,4.1-46.2.2-1.2,2.1-.9,1.9.3-.7,4-1.4,8.3-1.9,12.3-1.4,11.9-1.2,23.8-2.5,35.7-.4,2.7-.8,5.4-1,8.2-.2,2,.1,6.1-2.6,6.5h0Z"/>
      <path class="cls-11" d="m68.59,150.66c-2.9-.5,1.4-13.3,1.8-15.5,2-6.4,3.2-13,5.3-19.5.6-2.4.8-5.1,2-7.3.8-.9,2.2.2,1.6,1.2-1.4,4.8-2.3,9.6-3.9,14.3-1.2,6.3-3.4,12.4-4.8,18.6v-.1c-.4,1.9-.8,3.7-.9,5.6-.2,1,.4,2.7-1.1,2.7h0Z"/>
      <path class="cls-11" d="m55.89,165.06c-1.2-3.6-1.8-7.4-2-11.2.1-1.6-.2-3.6.8-5,.2-10.4,6.5-16.1,11.7-24.3,2.4-3.5,4.8-7.1,7.5-10.5.8-1,1.5-2.3,2.5-3,.7-.4,1.6.2,1.6,1,0,.5-.4,1.1-1,1.1-.1.1-.1.2-.2.2.5.5.1,1.3-.1,1.9-.8,1.9-1.6,3.8-2.2,5.8-1.8,6.2-2.6,12.7-4.1,18.9-.6,3.2-1.1,6.4-1.5,9.7-.1.8-.1,2.1-1.3,2-.4,2.3-.7,4.7-.6,7.1v4.4c0,.5-.5,1-1.1.9,0,1-1.6,1.3-1.9.3-.4,0-.7-.3-.8-.6h0c-.2,0-.4,0-.6-.1-.1.2-.3.3-.6.4-.5.1-1-.2-1.1-.6-.1.1-.3.1-.4.1h-.2c-.1.2-.3.4-.5.5s-.4.1-.5,0c-.1.1-.2.2-.4.3-.4.1-.8,0-1.1-.3.4,1.3-1.1,2.4-1.9,1h0Zm1.9-19.6c.2-.2.5-.3.7-.3.1-.9.8-2.1,1.8-1.3.3-.4.9-.5,1.3-.3.2-.3.6-.5,1-.5.1,0,.2,0,.3.1-.1-6.5,2.8-12.4,5.5-18.2-4,6.6-10.3,12.3-11.3,20.3.1,0,.1.1.2.1.1,0,.4,0,.5.1h0Z"/>
      <path class="cls-11" d="m61.69,153.36c-.5,0-.9-.5-.9-1v-.3c-1.5-.3-.8-2.4-1-3.6-.3,1.4-2.2,1.2-2-.3-3.7,1.5,0-8.7.7-10,1.4-3.4,3.8-6.3,6-9.2,1-1,4.5-6.3,6-4.5.3.4.2,1-.2,1.3-1.3.9-2.3,2.1-3.3,3.3.3.8-.5,1.6-.8,2.4-.4,1.3-1.1,2.6-1.4,3.9.3,1-.2,2-.3,3-.5,3.1-.8,6.2-.9,9.3-.1,1.7,0,3.4.1,5.2,0,1.1-1.7,1.5-2,.5h0Z"/>
      <path class="cls-11" d="m62.09,203.06c-.2-.3-.4-.7-.5-1,0-.1-.1-.2-.1-.4-.3.1-.6,0-.8-.2-.1-.1-.2-.2-.2-.3h0c-1.2-2.5-1.9-5.2-2.5-8-1.9-5.4-2.4-11.1-1.8-16.7-.2-.1-.3-.3-.4-.6-.5-3.1-.5-6.2-.7-9.3,0-1.3-.8-6.2,1.8-4.4.2-.2.6-.3.9-.2.1,0,.2.1.3.1h.1c.1-.8,1.1-1.2,1.7-.6.2-.8.1-2.2,1-2.5.5-.4,1.3-.1,1.5.5.2-.1.3-.1.5,0,.3.1.6.3.7.5h.1c.4-.3.9-.3,1.2,0,.1-.1.3-.2.5-.2h0c.2-1.2,2.1-.9,1.9.3-.3,1.9-.7,4-.9,5.9-.3,3.4-.4,6.9-.5,10.3-.2,1.3.4,3-.4,4.2-.4,5.5-.4,11.1-.9,16.7,0,1.7.4,8.3-2.5,5.9h0Z"/>
      <path class="cls-11" d="m53.29,198.66c.2-1.9-.7-3.6-1.3-5.4-1.7-4.5-3.6-8.7-5.1-13.2-2.2-6.5-2.8-13.6-2.5-20.4.1-4.2.3-8.5,1.6-12.5.2-.5.8-.7,1.3-.5,1.3.6-.1,2.6-.1,3.6-1.1,6.9-1.3,14.1-.4,21,.8,6,2.9,11.8,5.3,17.3.9,2,1.5,4,2.3,6,.5,1.3.8,2.8.7,4.1.1,1.3-1.8,1.3-1.8,0h0Z"/>
      <path class="cls-11" d="m42.29,173.46c-1.2-1.3-2-3-3.6-3.9-2-2.3-1.9-5.7-2.4-8.6-.2-3.1-1.1-6.1-1-9.2.8-7.5,5-14.4,10.1-19.8,1-1.4,2.9.2,1.5,1.2-4.8,4.9-8.5,11.2-9.6,18-.2,2.8.6,5.6.8,8.3.5,2.8.2,6.2,2,8.6,1.2.8,2.2,1.9,3,3.2.5.6,1.3,1.3.6,2-.4.5-1,.5-1.4.2h0Z"/>
      <path class="cls-11" d="m45.89,179.16c-.5-.5-.7-1.2-1-1.8-.5-.9-1.1-1.8-1.5-2.7-.5-1-2.2-2-1.6-3.3-1.4-1.5-2.7-3.2-3.3-5.3-.1-.3-.1-.7.1-1-2.2-8.6-3.4-17,1.7-24.8v.1h0c.7-1.6,1.7-3,2.8-4.4.5-.8,1.6-2,2.4-.6.2.4,0,.8-.1,1.1-.4,1.5-.9,3-1.2,4.6s-.3,3.3-.2,5c0,.9.2,1.9.8,2.5,2.3-.3.6,3.9.8,5.2-.2,4.6-.4,9.2-.2,13.8.1,3.4,1,6.7,2,9.9.1.4.4.9.2,1.3-.4.5-1.3.8-1.7.4h0Z"/>
      <path class="cls-11" d="m56.19,191.66c-5.8-7.8-10.1-16.8-11.8-26.3-.7-3.2-.9-6.4-.9-9.7.1-.6-.1-1.4.3-1.9.6-.6,1.7-.2,1.7.7-.4,10.1,2.6,20.3,7.6,29,1.3,2.6,3,5,4.7,7.3.7,1-.9,2-1.6.9h0Z"/>
      <path class="cls-11" d="m53.29,198.76c-.7-.4-1-1.5-1.4-2.2-1.6-2.8-2.2-5.9-3-9-.2-1.1-1.9-4,.4-3.8-.1-.2-.1-.5-.3-.7-.9-.2-.9-1.4-1.2-2.1-.1-.4,0-.9.3-1.2-.4-1.2-2.3-3.5-.8-4.3.4-.2,1,0,1.2.4,1.1,2.2,2.1,4.6,3.3,6.7,1.4,2.3,2.8,4.6,4.4,6.8.6,1,3,3.1,1,3.8.4.8,1.5,1.9.5,2.7-.6.5-1.3,0-1.7-.5.1.3-.1.7-.3.9,0,.4-.2.8-.5,1,.5,1.2-.8,2.2-1.9,1.5h0Zm-1.1-6.3c0-.1.1-.2.1-.2-.1-.1-.1-.3-.2-.4s-.1-.2-.2-.3c.1.3.2.6.3.9h0Z"/>
      <path class="cls-11" d="m55.59,189.36c-6.3-12-8.7-25.8-7.5-39.2.1-1.6.2-3.3.4-4.9,0-.4.1-.8.5-1.1s1-.2,1.4.2c.5,1.1-.3,2.8-.2,4.1-1.1,10.7,0,21.6,3.6,31.8,1.1,2.8,2.2,5.6,3.6,8.2.5,1-1.2,2-1.8.9h0Z"/>
      <path class="cls-11" d="m53.29,187.06c-5.7-8-8.9-18-8.2-28,.1-1.9.2-3.8.5-5.7.1-.5.5-.9,1-.8.3-1.4.2-7.4,2.3-6.6.5.2.7.8.5,1.3-1.5,6.3-1.4,12.8-.5,19.2.7,5.4,2.2,10.8,4.3,15.8.5,1.3,1.2,2.5,1.8,3.8.2.5,0,1-.4,1.2-.5.2-1.1.1-1.3-.2h0Z"/>
      <path class="cls-11" d="m35.29,167.26c-2.1-.8-6.1,1.5-6.5-1.8-1-5-2.1-10-1.8-15.2,1.6-6.2,5-11.8,8.8-16.8.6-1.1,2.3-.1,1.7,1-.5.7-1,1.3-1.5,2,.1.2.2.4.1.6-.3,1.5-.6,3.1-.7,4.7-.4,2.9-.6,5.7-.8,8.6-.2,3.2.5,6.4.9,9.6.2,2,.7,3.9,1.3,5.8.4,1-.3,2.1-1.5,1.5h0Zm-3.9-1.9c1.1-.2,2.2-.3,3.3-.2-1.4-4.7-1.9-9.7-2-14.5.2-3.7.6-7.2,1-10.9-1.8,3.3-3.8,6.8-4.8,10.5-.4,5.1.8,10.2,1.8,15.1.3.1.5.1.7,0h0Z"/>
      <path class="cls-11" d="m30.89,166.36c-1.1-.5-.9-2.3-1.2-3.3-1.1-5.2-1.7-10.8,0-15.9,1.5-3,2.4-6.2,4-9.1.6-1.1,2.3-.1,1.7,1-.5.8-.8,1.6-1.2,2.4.2.2.4.4.4.6-.1,1.2-.4,2.4-.4,3.6-.1,2.8-.2,5.5-.2,8.3,0,1,.6,2.2.1,3.2.2,1.9,0,3.9.6,5.7v-.2c.2.7.6,1.5.5,2.3-.1,1-1.2,1.1-2,1.2-.8.1-1.6.4-2.3.2h0Z"/>
      <path class="cls-11" d="m243.09,163.86c-1.9-6.8-4.4-13.5-7.8-19.7-.5-1.2,1.3-1.9,1.8-.8,2.7,5.2,5.2,10.5,6.7,16.2.3,1.2.7,2.3,1.1,3.5.2.5,0,1-.5,1.3-.5.2-1.1,0-1.3-.5h0Z"/>
      <path class="cls-11" d="m244.69,205.46c-2.7-1.6-4.2-4.9-4.8-7.8-.1-1-1-3,.5-3.4.5-.1,1,.3,1.1.8.3,3.2,1.4,6.5,3.9,8.6,2-4.6.8-10,.6-14.9-.9-9.1-2-18.2-3.4-27.3,0-1.2,1.9-1.3,1.9,0,0,.5.1,1,.2,1.5,1.3,7.8,2.1,15.6,3,23.4.2,3.3,2.7,20.5-3,19.1h0Z"/>
      <path class="cls-11" d="m243.59,203.86c-4.1-4.3-3.9-11-4.7-16.5-1-9.9-1.8-19.9-2-29.8-.2-3.9-1.3-7.8-1.2-11.8.2-1.2,2.1-1,1.9.3-.1.8.1,1.6.2,2.5.3.1.5.3.6.7.3,1,.6,2,.9,2.9,2.9,6,5.5,12.2,5.6,19,.2,8.2,2,16.1,2.2,24.3-.2,2.3,1.1,11-3.5,8.4h0Z"/>
      <path class="cls-11" d="m253.39,201.56c-.8-.8-1.4-2-2.2-2.7-.5-.4-.5-.9-.5-1.5.1-1.8.2-3.5.3-5.3.1-7-1.3-14-3.4-20.5-1-3.1-2-5.9-3.9-8.5-.8-.5-.8-1.9.4-2,.7,0,1.1.8,1.5,1.2,1.9,2.8,3,5.9,4,9,2.9,8.4,4,17.4,3.1,26.3.8.8,1.4,1.8,2.1,2.6.9.9-.5,2.3-1.4,1.4h0Z"/>
      <path class="cls-11" d="m254.89,201.76c-.2-.3-.2-.8.1-1.1.6-2.7.5-5.8.8-8.5.3-6.6-.5-13.3-2.1-19.7-.3-1.2,1.5-1.7,1.9-.5,1.6,6.5,2.6,13.6,2.2,20.3-.2,2.7-.4,5.4-.7,8.1-.2,1.2-1.2,2.6-2.2,1.4h0Z"/>
      <path class="cls-11" d="m254.59,173.26c-2.3-4.3-6-7.4-9.8-10.3-.6-.5-1.6-.6-1.7-1.4-.1-.8.9-1.4,1.6-.9,3.8,2.2,7.3,5.5,10,9,.5,1.1,3,3.2,1.3,4.2-.6.1-1.2-.1-1.4-.6h0Z"/>
      <path class="cls-11" d="m253.79,200.56c-2.2-2.8-1.7-6.5-1.6-9.7.1-3.6,0-7.2-.8-10.8-.3-1.8-1-3.5-1.5-5.2-.6-2.6-.9-5.3-2.5-7.5-.6-1-1.6-2-1.8-3.1,0-.5.5-1,1-1,.4,0,.8.3.9.7.4.6.8,1.2,1.2,1.8.6-.3,1.1.1,1.5.5.7.7,1.2,1.5,1.9,2.3,1.3,1.7,3.3,3.6,2.6,6,.5,1.9.9,3.8,1,5.7.2.2.4.4.4.7.2,3,1.2,5.8,1.3,8.8.3,2.5-.8,5.2-.3,7.7.1.6-.5,1-1,1.2.2,1.5-.7,3.5-2.3,1.9h0Z"/>
      <path class="cls-9" d="m250.09,197.36c-.5-.2-.7-.8-.5-1.3v.2c1-6,.1-12.1,0-18.1-.6-6.9-2.3-13.6-3.2-20.4-.3-1.2,1.5-1.7,1.9-.5,1,7.3,2.9,14.4,3.3,21.7.1,5.7,1,11.3,0,16.9,0,1-.5,1.9-1.5,1.5h0Z"/>
      <path class="cls-9" d="m248.59,180.56c-.4-2.7-1.1-5.4-1.4-8.1-.7,0-1-.8-1.1-1.4-.3-1-.4-2.1-.6-3.1-.4-2.5-1.4-5.4-1-7.9,0-.4-.1-.8-.1-1.2,0-1.1,1.6-1.3,1.9-.3.2.8.4,1.5.6,2.3.4-.9,1.8-.6,1.8.4.1,2.4.2,4.8.4,7.2.2,4,1.2,7.9,1.5,11.9.1,1.1-1.8,1.4-2,.2h0Z"/>
      <path class="cls-2" d="m256.79,165.86c-1.8-.7-2.6-2.6-3.2-4.3-.7-1.7-1.4-3.3-1.9-5-1.3-5.2-2.7-10.5-3.5-15.8h0c-1.6-6.7-2.9-13.5-3.9-20.2,0-1.2,1.9-1.3,1.9,0,1.3,8.7,3.4,17.3,5,26,1.2,4.5,1.9,9,3.7,13.2.7,1.4.9,3.1,2.2,4.1,1.8-2.7,1-6.1,1.1-9.2.2-5.7.3-11.6-.5-17.3-.2-1.2,1.7-1.5,1.9-.3,1,6.2.6,12.5.5,18.7,0,3,.4,6.2-1.3,8.8-.3.8-1.1,1.6-2,1.3h0Z"/>
      <path class="cls-2" d="m256.99,134.86c-4.1-5.2-9-9.7-12.9-15-.5-1.2,1.3-1.9,1.8-.8,4,5,8.6,9.5,12.7,14.5.7,1.1-.9,2.3-1.6,1.3Z"/>
      <path class="cls-2" d="m256.89,164.86c-.8-.7-1-1.9-1.5-2.8-1.5-1.3-1.7-3.4-2.3-5.2-2.6-7.2-3.2-15-4.7-22.5-.5-2.3-.8-4.6-1.6-6.8-.3-1.3-2.4-5.7-.2-5.9.9,0,1,.9,1,1.6,3.8,2.8,5.9,7.7,9.6,10.5,1.3,1.6,1,4,1.2,5.8.2,2,.4,4.1.8,6.1.7,2,1.6,21.7-2.3,19.2h0Zm-1.8-19.2c.1.2.2.3.3.5,0-.6-.2-1.1-.1-1.7.1-.8,1.2-1.1,1.7-.5-.5-2.7-.3-5.5-.9-8.2-.1-.4-.3-.7-.8-.9-.6-.4-1-1-1.5-1.5-1.8-1.8-3.1-4.1-4.8-5.9.9,3.6,1.8,7.3,2.4,10.9,1.3-.3,1.4,1.3,1.6,2.2.6,1.7,1.2,3.2,1.7,4.9.2-.1.3,0,.4.2h0Z"/>
      <path class="cls-2" d="m256.89,149.16c-1.4-1-2.4-2.4-3.5-3.8-.2-.2-.2-.5-.2-.8-.5-.8-1.9-1.4-1.5-2.5-.7-.5-1.5-1.6-.5-2.2-.7-.5-.8-1.6.1-1.9-.6-.6-1.8-1.4-1-2.4-.6-.6-1.6-1.5-.7-2.2-.2-.2-.4-.4-.5-.6-.2-.4-.1-.9.2-1.2-.6-.6-1.4-1.7-.3-2.3h0c-.7-.6-1.7-1.2-1.8-2.2,0-1,1.5-1.3,1.9-.3,2.8,2.5,5.7,4.8,8.3,7.5.6.5.2,1.6-.6,1.6.6.7,1.5,1.9.3,2.5.6.8,2.1,2,1.1,3,.1.3,0,.6-.2.9l-.1.1c.4.5.9,1.4.2,1.9.1.1.2.3.3.4.3.5.1,1.1-.4,1.3.2.3.2.8,0,1.1,1,1,.4,2.8-1.1,2.1h0Z"/>
      <path class="cls-2" d="m251.79,162.96c-4.6-4.6-9.2-9.2-13.1-14.5-1.4-1.8-2.7-3.9-3.8-5.9-.2-.3-.3-.6-.2-1,.2-1,1.7-1,1.9,0,2.5,4.8,6,8.9,9.6,12.8,2.3,2.4,4.5,4.8,6.9,7.1.9,1-.4,2.4-1.3,1.5h0Z"/>
      <path class="cls-2" d="m251.69,198.26c-1-1.4-2-3-2.5-4.6-.9-2-.8-4.3-2.3-6-.5-.8-1.9-2.1-.7-3-.1-.2-.2-.4-.3-.6-.1-.3-.1-.7.1-.9-.4-.7-.7-1.4-1.1-2.1-.2-.4,0-.9.3-1.2-.1-.4,0-.9.4-1.1.1-.1.2-.1.3-.1-.4-1.2-3.6-5.2-1.2-5.6-.3-.8-1.3-2-.2-2.6-.1-.3-.2-.7-.1-1,.1-.2.2-.4.3-.5-.4-.5-.5-1.4.1-1.8-.2-.4-.3-.8-.5-1.3-.1-.3,0-.6.1-.8-.2-.4,0-.9.4-1.2h0l-1.5-3c-.1-.2-.1-.4,0-.6,0-.1-.1-.2-.1-.3v-.5c-.1-.2-.2-.3-.3-.5-.1-.1-.1-.2-.1-.3-.7-.8-1.4-1.6-2.1-2.5-.5-.6,0-1.6.8-1.6.1-.1.2-.3.3-.3h0c-.9-1-2.5-2.2-2.7-3.6.1-.9,1.4-1.2,1.8-.3,2.5,3.1,5.4,5.9,8.1,8.7,1.7,1.5,3.4,3.3,4.7,5.1.4.3.5,1,.2,1.3.7.7,1.6,2,.5,2.6.7,1.5,1.1,3.1,1.4,4.7,0,.2,0,.5-.2.7.1.9.8,2.5-.5,2.8-1.4.1-1.2-1.6-1.4-2.5h0c0,.3-.2.7-.4.8.2.4.5.9.7,1.3.2.4.1.8-.2,1.1,0,.1.1.2.1.3v.5c.3.7.9,1.8.1,2.3.3.9,1.6,2.1.6,3,.6.8.2,2.1-.9,1.9.2.4.5.9.3,1.3.4.6.8,1.6,0,2.1.2.8-.6,1.7-1.4,1.4.1,1.1,1.7,2.4.4,3.3.1.3.1.7-.1.9.4.7.7,1.5,1.1,2.2.2.3.1.7-.1,1,0,.4-.2.7-.5.9h-.1c-.3.7-1.2.8-1.6.2h0Z"/>
      <path class="cls-9" d="m259.39,145.46c-7-4.7-12.5-11.4-16.6-18.7-1.2-2.2-2.2-4.5-3.3-6.8-.2-.3-.2-.8,0-1.1.6-.7,1.6-.3,1.8.5,3.8,8.6,9.2,16.7,16.6,22.5.8.6,1.7,1.2,2.5,1.8.4.3.6.8.3,1.3-.2.5-.9.8-1.3.5h0Z"/>
      <path class="cls-9" d="m258.79,144.26c-1.6-1.3-2.7-3.3-4.1-4.8-3.4-2.9-6.6-6.1-9.2-9.8-2.2-.7-1.9-6.1-2.3-8.1,0-1.1-.9-3,.6-3.4.1-.1.1-.2.2-.3l.3-.3c-.1-1.1,1.5-1.7,2-.6.3.7.7,1.3,1,1.9.5-.1.9.3,1.2.7,1.8-1.3,3.8,4.7,4.6,5.8,1.8,0,4.2,8,5,9.7.3,1.5,3.8,10.1.7,9.2h0Z"/>
      <path class="cls-2" d="m248.29,140.16c-4.3-3-7.5-7.2-10.6-11.4-2.8-4.1-5.5-8.4-7.4-13-.2-1.2,1.6-1.5,1.9-.4,2.8,6.4,6.7,12.2,11.1,17.6,1.8,2.2,3.8,4.1,6.1,5.7,1.1.7,0,2.3-1.1,1.5h0Z"/>
      <path class="cls-2" d="m237.59,146.76c-.3-.1-.5-.4-.6-.7-.5-2.4-.9-4.8-1.3-7.2-.5-2.4-.3-4.9-.4-7.4-.3-2.3-1.1-4.6-1.5-6.9-.2-.9-.5-2.5.9-2.4.7.1.9.7.9,1.2.1,1,.3,2,.6,3,.3-.1.8,0,1,.3.7.9,1.2,2,1.8,2.9,2.3,3.4,4.6,6.9,6.6,10.5.3.5.1,1-.3,1.3-1.4.9-2.5-2.7-3.3-3.6.7,1.2-.9,2.3-1.7,1.1.5,1.6,1.1,3.3,1.8,4.8.3.8,1.1,2,0,2.5-1.4.5-1.5-1.4-2-2.3-.7-1.7-1.3-3.4-1.9-5.2.1,2,.2,3.9.5,5.9.4,1.1.3,2.6-1.1,2.2h0Z"/>
      <path class="cls-2" d="m251.89,164.46c-.8-.2-1.1-.9-1.3-1.7-.5-1-.6-2.2-1-3.3-1.7,2-2.3-1.7-2.6-2.8-1.6.4-1.4-1.9-1.8-2.9.3,1.2.6,2.4.8,3.6.1.5-.1,1-.7,1.2-1.6.4-1.7-2.9-2.2-4-.8-.8-.9-2.2-1.3-3.2-.8,1.9-2.7,1.7-2.8-.4-.3-.1-.6-.3-.6-.6-.5-2.1-.8-4.2-1.2-6.4-.3-1.9-.5-3.7-.6-5.6,0-.8-.5-2.2.6-2.5.5-.6,1.6-.2,1.7.6.1-.3.4-.5.7-.5.2,0,.5,0,.7.1,0-.5,0-1,.3-1.3.1-.5.4-1,.9-1,1,0,1.8,1,2.2,1.9,1.1-.9,1.8.3,1.8,1.4.9,0,1.1,1.1,1.6,1.7,1.7-.3,1.3,2,1.6,3,.2.1.4.4.4.7.3,1.4.5,2.7.7,4.1.6,3.3,1.2,6.6,1.9,9.8.4,2.4,1.2,4.8,1.5,7.2,0,.5-.6,1-1.3.9h0Zm-9.1-24.8c-.1-.5-.1-1-.2-1.5,0,.3.1.7.1,1,0,.2,0,.3.1.5h0Z"/>
      <path class="cls-4" d="m224.19,304.96c-.8-.5-.5-1.5-.4-2.3.3-2.1.7-4.3,1.4-6.3.5-5.7,1.5-11.5,2.5-17.1.7-4.4,1.1-8.8,2.1-13.1v.1c.3-1.5.5-2.8.7-4.3.1-.8,1.2-1.1,1.7-.5.1-1,0-3,1.6-2.3.1-2.4.4-4.7.5-7.1-.2-1.2,1.6-1.5,1.9-.4-.5,6.3-.4,12.5-1.2,18.8-1,4.4-1.5,8.9-2.5,13.3-1.6,4.3-2.3,8.8-4.2,12.9-.7,1.8-1.5,9.1-4.1,8.3h0Zm6.1-29.5c.6-2.9,1.1-5.8,1.3-8.7-.5,2.9-1.1,5.8-1.3,8.7Z"/>
      <path class="cls-12" d="m40.69,252.36c-8.4-4.6-14.1-20.4-12.3-29.6-.2-1.5-1.6-2.5-2.3-3.8-1.4-2.2-3.2-4-5.1-5.7-3.1-3.2-5.5-7-7.9-10.8-2.3-4.4-2.8-9.6-2.5-14.6.3-5.7,3.4-10.6,7.1-14.7,2.7-3.3,6.4-5.6,10.6-6.5h-.1c1.1-.6,2.1,1,1,1.7-.4.2-.9.3-1.4.4-3.3.8-6.2,2.7-8.3,5.2-2.3,2.6-4.7,5.6-5.9,8.9-2.1,6.5-1.6,14.1,2,20,1.7,2.5,3.4,5,5.3,7.4,3.5,3.5,7.2,7,9.4,11.5.3,1.2-.2,2.6-.2,3.8-.1,2.9.4,5.8,1,8.6,2.3,7.6,9.6,23.2,19,14.6.4-.4,1-.4,1.4,0,.8.8-.2,1.6-.8,2.2-2.8,2.3-6.8,3.1-10,1.4h0Z"/>
      <path class="cls-12" d="m99.19,330.66c-4.1-4.1-7.6-8.5-11.7-12.5-2.9-3.2-6.3-6-8.7-9.6-4.5-5.9-8.8-12-12.3-18.5-2.9-4.7-5.6-9.4-7.4-14.6-3.9-8-7-16.3-9-24.9-1-5.7-.2-11.6.5-17.3.2-1.1.4-2.2.6-3.3.1-.5.5-.8,1-.8s1,.4,1,1c-.4,1.8-.7,3.7-.9,5.5-.6,4.8-1,9.6-.3,14.4,1.7,6.7,3.7,13.4,6.6,19.7,2.4,4.5,3.8,9.4,6.2,13.7,4.6,7.5,8.6,15.4,14.3,22.1,2.2,3.3,4.9,6.3,7.8,9,3.6,3.7,7.1,7.5,10.5,11.3,1,1.2,2.1,2.3,3.2,3.4.4.4.4,1,0,1.4s-1,.4-1.4,0h0Z"/>
      <path class="cls-12" d="m50.79,223.16c-.3-.6-.6-1.2-.9-1.8,0,0,0,.1.1.1-4-6.9-7.6-14-12.7-20.1-2.9-4.2-6.4-8.1-10.9-10.6-1.5-.5-.4-2.6.9-1.7,6.3,3.4,10.4,9.5,14.5,15,3.8,5.9,7.6,12,10.7,18.3.5,1.1-1.2,1.9-1.7.8h0Z"/>
      <path class="cls-12" d="m37.39,218.16c-.5-.1-.9-.6-.8-1.1.2-2.3.6-4.5.9-6.7.3-2.1.5-4.2.9-6.3.1-.7.3-1.6,1.2-1.6.5,0,1,.4,1,1-.9,4.5-1.4,9.1-2,13.7,0,.4-.5,1-1.2,1h0Z"/>
      <path class="cls-12" d="m145.19,362.86c-9.9-.2-19.5-3.8-27.5-9.6-3.1-1.6-5.5-4-7.8-6.6-2-1.9-3.8-4.1-5.1-6.6-2-3.6-4.1-7.2-5.5-11.2-1.6-5.5-3.7-10.7-6.4-15.6-.3-1.2,1.5-1.7,1.9-.5,2.7,4.7,4.7,9.7,6.2,14.9,2.7,6.7,5.8,13.4,11,18.4,2,2.3,4.3,4.3,7,5.7,3.8,2.8,8,4.9,12.4,6.5,10,3.8,21,2.9,31.4,1.7,7.5-.9,15-2.2,21.7-5.5,3.8-1.9,6.7-5,9.5-8.1,3.9-5.1,7.1-10.5,10.8-15.7,3.5-4.3,7-8.5,10.8-12.5,7.5-9.6,13.1-20.8,15.9-32.7,1.1-4.8,2.2-9.7,2.8-14.6.9-8.3,1-16.5,2.2-24.8,1.2-13.6,2.1-27,2.1-40.6-.2-13.3-1.7-26.5-2.7-39.7-1.3-15.6-.8-31.6-4.7-46.9-2.6-7.4-4-15.3-8.2-22-1.6-2.1-3-4.4-4.8-6.3-2-1.6-4.2-3.4-6.7-4.2-2.3-.6-4.4.7-5.3,2.8-2.2,4.5-3.6,9-5.1,13.8-1.9,7.2-5.8,13.8-12,18.2-.4.3-1,.3-1.4-.2-.3-.4-.3-1,.2-1.4,1.1-.7,2-1.6,3-2.5,2.8-2.7,5.2-5.9,6.6-9.6,1.7-4.6,2.9-9.2,4.6-13.8,1.3-2.9,2.1-6.3,4.7-8.4,3.3-2.3,7.2-.3,10,1.8,2.5,1.5,4.3,3.8,6,6.2,5.4,6.6,6.9,15.1,9.7,23,4.1,14.2,4.1,29.3,4.9,44,.8,11.2,2.1,22.4,2.6,33.6,1,10.5.5,21.1-.1,31.7-.6,9-1,17.8-2.2,26.7-.7,4.9-.7,9.9-1.1,14.8-.5,5.8-1.6,11.5-2.9,17.2-3.2,14.2-9.8,28.1-20,38.6-2.2,2.6-4.3,5.2-6.5,7.8-1.7,2.2-3,4.6-4.7,6.8-3.5,5-6.4,10.4-11.1,14.4-9.3,9.5-33.3,11.2-46.2,11h0Z"/>
      <path class="cls-12" d="m161.79,124.36c-8.7-.5-16.5-5.4-23.7-9.9-2.8-1.9-5.1-4.4-7.2-7.1-2.8-2.8-5.7-5.7-8.5-8.6-2.5-2.9-4.4-6.2-6.8-9.1-2.8-3.6-5.7-8.7-10.8-8.9-9.1-.3-14.4,8.6-19.1,15-.7,1-2.3-.2-1.5-1.2,5-7,11.1-16.4,20.9-15.8,5.1.2,8.4,4.7,11.2,8.5,2.5,3.2,4.8,6.6,7.3,9.8,2.8,3,5.8,5.9,8.7,8.8,2.4,3,5,5.7,8.2,7.8,11.7,7.1,16.7,9.6,30.7,8.8,4.6-.1,9.5.4,13.8-1.3,1.5-.6,3.3-1,4.2-2.4.6-.6,1.7-.2,1.7.7-.7,2.6-6.1,3.8-8.5,4.5-6.9.7-13.8.3-20.6.4h0Z"/>
      <path class="cls-12" d="m61.89,205.36c-4.7-2.2-6.4-12-6.7-16.7-.6-6.2-1.2-12.4-1.7-18.6-.1-1.2,1.7-1.5,1.9-.3.4,5,.9,10,1.4,15,.7,6.3.8,14,5.6,18.7h0c4.3-1.8,3.5-22,4.2-27,.3-4.8.8-9.6,1.2-14.3.6-12.2,3.2-24,6.3-35.8,2.7-10.7,5.5-21.3,10-31.3.3-1,1.1-2.8,2.3-1.8.4.4.4,1,0,1.3-.5.8-.7,1.6-1,2.5-4.1,8.7-6.4,18-8.8,27.2-1.4,5.8-3,11.6-4.2,17.4-1.5,7.1-2.1,14.3-2.7,21.6-.8,8.3-1.4,16.7-1.6,25-.5,3.8-.8,18-6.2,17.1h0Z"/>
      <path class="cls-12" d="m53.59,200.86c-2.4-1.5-2.9-4.6-3.8-7-.5-1.5-1-2.9-1.5-4.3-1.1-3.3-2-6.5-3.6-9.6-1.5-3.4-3.1-7-6.4-9.1-1.3-.8-2.6-1.7-4.2-2-2.2-.3-4.5.2-6.7.2-1.2,0-1.3-1.9,0-1.9,5.1-.4,8.2-.8,12.5,2.6,2.6,2,4.5,4.8,5.7,7.8,1.9,3.7,3.3,7.5,4.5,11.5v-.1c.5,1.3.9,2.6,1.4,3.8.8,2.1,1.1,4.5,2.6,6.2.7-1.3,1-2.8,1.4-4.3.1-.5.7-.8,1.2-.7,1.5.5.1,3-.1,4.2-.5,1-1.3,3.4-3,2.7h0Z"/>
      <path class="cls-12" d="m28.59,168.36c-1.5-4-1.7-8.3-1.8-12.5-.2-4.3-.1-8.6.2-12.9.6-11.5,1.3-23.3,7-33.6.5-1.1,2.3-.4,1.8.8-4.4,8-6,17-6.4,26.1-.7,9.3-1.4,18.7,0,27.9.2,1.3.6,2.5.9,3.7.1.8-1.2,1.3-1.7.5h0Z"/>
      <path class="cls-12" d="m51.79,153.36c.1-4.7.8-9.4,2.2-13.9-2.2,3-5.5,9.8-9.6,9.9-4-.9-.1-11.7.5-14.5,4.7-14.7,13.9-27.6,23.7-39.4.5-.5,1-1,1.5-1.6.9-.9,2.2.4,1.4,1.4-3.7,3.8-6.8,8.1-9.9,12.3-7.6,10.3-17.2,26.8-16.8,39.8,2.6-1.1,4-3.9,5.7-6.1,1.9-2.7,3.5-5.5,4.9-8.5.6-.9.9-2.1,1.9-2.7.7-.3,1.5.3,1.3,1-.1.7-.4,1.3-.6,1.9-1.3,3.8-2.5,8-3.3,11.9-.6,2.7-.7,5.5-.8,8.3-.2,1.4-2.1,1.5-2.1.2h0Z"/>
      <path class="cls-12" d="m24.29,126.46c-3.8-.5-2.3-9.2-2-11.9.5-3.2,1.7-6.4,2.7-9.4,5.2-15.4,14-29.6,26-40.6,6.4-5.8,12.9-11.9,20.8-15.8,5-2.5,10.3-4.2,15.8-5,.8-.1,2-.5,2.2.7.1.5-.3,1-.8,1.1-1.2.2-2.4.4-3.5.5-5.5,1.1-10.7,3.1-15.6,5.9-10.6,6.7-19.8,15.5-27.8,25.1-5.6,7-9.6,15.1-13.2,23.2-2.2,6.2-4.8,12.4-5.1,19,0,1.8-.3,3.8.6,5.4h0c2.9-1.3,4.6-4.4,6.2-7.1.3-.5.4-1.2,1-1.5s1.4.2,1.4.9c-.4,1.2-1.1,2.2-1.7,3.3-1.8,2.4-3.7,5.8-7,6.2h0Z"/>
      <path class="cls-12" d="m202.39,46.76c-24.1-20.4-65-29-95.6-21.9-7,2.3-15.3,5-18.5,12.1-.7,2.3-.7,5.7,1.7,7,.9.8-.4,2.1-1.2,1.5-2.5-1.3-2.9-4.7-2.7-7.3,1.8-8.5,11.2-12.1,18.6-14.6,15.2-4.5,31.6-3.4,47.1-1.1,18.9,3.5,37.6,10.6,52.4,23.1-.3.6-.6,1.2-.9,1.8-.4-.3-.7-.5-.9-.6h0Z"/>
      <path class="cls-12" d="m217.19,57.46c-1.2-.2-6.1-.3-5.6-2.1.6-1.5,2.3-.2,3.4-.1,1.2.4,10.1.7,7.3-1.8-5.1-4.6-12.3-6.1-19-6.5-.5,0-1-.3-1.1-.8-.1-.6.4-1.2,1-1.1,2.1.1,4.2.2,6.3.7,5.2,1.1,10.9,2.8,14.6,6.9,3,4.3-4,5-6.9,4.8Z"/>
      <path class="cls-12" d="m229.69,74.66c-2.8-.5-5.2-2.1-7.6-3.6-.5-.3-.6-.8-.4-1.3.8-1.2,2.1.2,3,.7,1.6,1.1,3.5,2,5.4,2.3,1.6.3,4,.7,2.3-1.7-5.1-6.3-12.3-10.6-19.4-14.3-1-.3-.8-1.9.3-1.9,1,.2,1.9.9,2.8,1.3,6.7,3.9,13.8,8,18.3,14.5,2,3.6-1.8,4.9-4.7,4h0Z"/>
      <path class="cls-12" d="m256.59,166.86c-5-3-6.3-10.3-7.7-15.6-.3-1.4-.6-2.8-.9-4.2-.1-.5.2-1,.7-1.1s1,.2,1.2.7c1.1,5,2.9,16,7.7,18.5h0c4.4-6.5,1.7-20.1.4-27.7-3.2-15.6-8.8-30.8-17.2-44.3-4-5.6-7.5-11.6-12.3-16.5-1.7-1.8-3.5-3.6-5.5-5.2-.4-.3-.5-1-.1-1.4,1.1-1.1,2.1.7,3,1.3,2.4,2.2,4.7,4.5,6.8,7,13.7,16.8,23,37,27.2,58.2,1.5,8,2.9,16.3,1.5,24.5-.7,2.3-1.6,6.8-4.8,5.8h0Z"/>
      <path class="cls-12" d="m243.59,206.76c-1.7-.7-2.7-2.4-3.6-3.9-.4-.9-1.8-2.4-.5-3.2.5-.2,1.1,0,1.3.4,1,1.9,2,4.7,4.4,5,3.4-2.5,2.4-10.5,2.3-14.4,0-1-.8-2.8.7-3.1.5,0,1,.4,1,.9,1,4.3,2.1,11,6.3,13.2h-.1c2.5-1.9,2-10.8,2-14-.4-6.6-1.3-13.2-3.1-19.6-.7-2.3-1.5-4.6-2.1-6.9-.3-.4-.3-.8,0-1.2.8-.8,1.8-.1,1.9.9,1.3,4.6,2.9,9.1,3.7,13.9,1.2,7,1.9,14.2,1.3,21.3-.7,10.2-5.9,9.6-9.6,1.1.1,3.4-.8,11.6-5.9,9.6h0Z"/>
      <path class="cls-12" d="m238.69,229.26c-.2-.5,0-1.1.5-1.3,5.2-1.6,5.8-7.5,7-12,.2-2.8,2.4-4.4,3.8-6.6,1.4-2.2,2.2-4.6,2.8-7,0-1.1,1.6-1.3,1.9-.2.1.5-.1,1.1-.2,1.6-.5,1.5-1,3.1-1.7,4.5-1,2.4-3,4.2-4.3,6.3-1.5,5.4-2,12.3-7.8,14.9-.7.4-1.6.7-2-.2h0Z"/>
      <path class="cls-12" d="m184.89,106.86c-2.5-7.1-5-14.4-10-20.2-1.8-2.1-3.8-4.6-6.6-5.3.7,4.1,3.2,7.6,5.4,11.1.5.8-.6,1.8-1.4,1.3-2.3-2.2-4.4-4.7-6.9-6.8-4.8-4.1-10.1-7.5-16-9.7-2-.9-4-1.6-6.1-1.8-.8-.2-1.8.1-2.2-.7-.2-.5,0-1,.4-1.3,3.6-.3,7.2,1.3,10.5,2.7,6,2.4,11.3,6.2,16,10.5-1.7-3.2-3.6-9.3,2.5-6.5,3.7,2,6.2,5.7,8.5,9,3.5,5.2,5.5,11.2,7.6,17.1.5,1.2-1.3,1.8-1.7.6h0Z"/>
      <path class="cls-12" d="m52.69,163.96c-.1-1.7-.2-3.3-.2-5,0-.9-.1-2.4,1.2-2.3.5.1.9.6.8,1.1-.1,1.3,0,2.7.1,4-.1,1,.7,2.8-.7,3.1-.7,0-1.2-.3-1.2-.9h0Z"/>
      <path class="cls-12" d="m150.19,189.16c-9.9-3.1-19.4-7.9-29.6-10.3-5.6-1-11.3.9-16.9.2-.8-.2-1.8-.7-1.5-1.7.6-1.4,2.5-1.8,3.8-2.4-2.5-3,7.6-3.9,9.2-3.9,2.6-.4,5.2-.4,7.8-.5.9.2,2.1-.1,2.9.6,9.1,1.4,17.4,5.6,25.6,9.8,5.5-9.4,6.5,10.8-1.3,8.2h0Zm1.4-1.8c2.4-.7,2.3-4.4,2.2-6.5-.7.9-1.5,3.1-3,2.1-2.8-1.6-5.8-2.8-8.6-4.4-4.8-2-9.7-4.2-14.9-5.1-.9-.3-1.9-.1-2.5-.7-5.1-.4-10.6.1-15.6,1.2,1.1-.1,1.8,1.4.7,1.9-1.5.3-3,.8-4.4,1.5,5.2,0,10.4-1.3,15.6-.4,7.2,1.7,14,4.6,21,7.1,3.1,1.2,6.1,3,9.5,3.3h0Z"/>
      <path class="cls-12" d="m198.19,194.16c-1.7-2.7,1.6-13.8,5.2-7.6,4.9-2.4,9.8-5.1,15.2-5.8,4,0,11-1.4,14.1,1.5.7.7,1.2,2.2,0,2.6,1.4,1,2.3,3.8-.2,3.9-3.5,0-6.9-1.2-10.5-.6-5.3.6-10.5,2.2-15.5,3.9-2.3.9-4.7,1.9-7.1,2.1-.4.1-.8.3-1.2,0h0Zm1.5-1.8c6.3-1.5,12.2-4.6,18.7-5.4,4.6-1.3,9-.5,13.6,0-1-1.4-2.8-1.9-4.4-2.2-1-.3-.9-1.8.2-1.9,1,0,2.1.5,3,.3h.1c-2.9-1.2-6.4-.8-9.4-.6-4.3-.1-8.3,1.5-12.2,3.2-1.6,1-3.3,1.7-5,2.5-1.7,1.2-2.2-.4-3.1-1.5-1.3,1.5-1.4,3.7-1.5,5.6h0Z"/>
      <path class="cls-12" d="m162.79,229.26c-.5,0-1-.5-.9-1,.5-6,.4-12.1-.4-18.1-.9-9.2-4.6-17.7-7.3-26.4-.4-1.1,1.2-1.9,1.8-.8,1.4,5.4,3.9,10.6,5.3,16,1.7,6.2,2.6,12.5,2.9,18.9.2,3.5,0,7-.2,10.6-.2.4-.6.8-1.2.8h0Z"/>
      <path class="cls-12" d="m154.99,185.16c0-3.5-.4-7-.6-10.5,0-.5.4-1,.9-1s1,.4,1,.9c.2,3.4.6,7,.6,10.4.1,1.1-1.7,1.4-1.9.2h0Z"/>
      <path class="cls-12" d="m154.59,171.86c-.5-.2-.7-.6-.8-1-.4-2-.7-3.9-1.3-5.8-.1-1.2-1.8-3.4-.3-4.1.5-.2,1.1.1,1.2.6,1.1,3,1.7,6,2.3,9.1.4.6-.4,1.5-1.1,1.2h0Z"/>
      <path class="cls-12" d="m180.99,234.06c-.5-.1-.9-.5-.8-1.1.3-2.3.6-4.5.9-6.8.5-3.5.8-7.3,1.5-10.8.8-4.5,1.7-9,3.4-13.2,2.1-5,5.7-9.3,7.2-14.5.3-1.2,2.2-.8,1.9.5-1.4,4.4-3.9,8.4-6.2,12.4-2.2,4.5-3.3,9.5-4.2,14.4-1,6.1-1.6,12.2-2.5,18.3-.2.5-.7.9-1.2.8h0Z"/>
      <path class="cls-12" d="m195.39,184.76c-.8-.1-1-1-.8-1.6.4-1.8.7-3.5,1-5.3.2-1.2,2-1,1.9.2-.3,2.1-.7,3.9-1.1,5.9,0,.5-.5.9-1,.8h0Z"/>
      <path class="cls-12" d="m190.79,212.66c-1.1-.5-.5-1.7.2-2.2l3-3c2.7-2.6,5.8-4.6,9.2-6.1,6.8-3.6,15.3-3.6,20.8,2.4,1.8,2.2,4.2,4,5.7,6.4.3.6.7,1.5,0,1.9-.5.3-1,.1-1.3-.3-.2-.4-.3-.8-.5-1.1-2.2-2.2-4.2-4.5-6.4-6.7-6.5-5.6-15-2.7-21.5,1.3-3,1.8-5.4,4.4-7.8,6.9-.4.5-1,.7-1.4.5h0Z"/>
      <path class="cls-12" d="m227.89,211.46h-35.4c-.5,0-1-.4-1-1,0-.5.4-1,.9-1h35.3c.5,0,1,.4,1,.9.2.6-.2,1.1-.8,1.1h0Z"/>
      <path class="cls-12" d="m193.19,203.96c-1.7-1.9,10.1-7.8,11.9-8,1.1,0,3.1-1.1,3.5.4.1.5-.3,1-.8,1.1-4.1.4-7.8,2.6-11.1,4.8-1,.6-2.2,2.8-3.5,1.7h0Z"/>
      <path class="cls-12" d="m213.49,232.56c-5.9-.7-11.2-4.2-14.8-8.9-1.3-1.7-2.5-3.6-3.6-5.4-.5-.9-1.9-2.3-.7-3.2.5-.3,1.3,0,1.4.6,6.3,12.8,21.9,23.1,30,5.8.6-.9.7-3,2.2-2.5.5.2.7.8.5,1.3-2.3,6.3-7.6,13.1-15,12.3h0Z"/>
      <path class="cls-12" d="m209.99,224.06c-5.2-.4-10.5-2-14.3-5.6-.6-1-2.9-2.4-1.4-3.5.5-.3,1.1-.1,1.3.4,2.6,3.7,7,5.5,11.3,6.3,3,.5,6.2.8,9-.4,1.1-.3,2.5-2,3.4-.7.6,1.2-1.1,1.6-1.9,2.1-2.1,1.3-4.8,1.7-7.4,1.4h0Z"/>
      <path class="cls-12" d="m98.19,208.46c-1.4-1.2,3.1-4.5,3.9-5.5,10.7-12.8,30.7-12.8,43.6-3.4,2.4,1.3,4.2,3.4,6,5.3.3.4.3,1-.1,1.4-1.3.8-2.1-1.2-3-1.9-2.9-3-6.6-5-10.3-6.8-9.7-4.1-21.8-3.9-30.3,2.7-2.8,2.3-5.3,5-7.8,7.6-.5.6-1.3,1.3-2,.6h0Z"/>
      <path class="cls-12" d="m149.89,206.26c-3,0-6-.1-9-.1-4,0-8-.1-12-.2-4,0-8-.1-12-.2-3.9,0-7.8-.1-11.8-.2h-3.5c-.5,0-1-.4-1-.9s.4-1,.9-1c3.7,0,7.3.1,11,.1,4,0,8,.1,12.1.2,4,0,8,.1,12,.2,3.8,0,7.6.1,11.3.1h2c.5,0,1,.4,1,.9,0,.6-.4,1.1-1,1.1h0Z"/>
      <path class="cls-12" d="m151.69,207.66c-.5-.7-1-1.4-1.7-2,.1.1.3.2.5.2-1.6-.4-.5-2.7.8-1.7.8.8,3.1,2.6,1.8,3.7-.5.4-1.1.3-1.4-.2h0Z"/>
      <path class="cls-12" d="m97.49,198.06c-.4-.3-.5-1-.2-1.3,2.2-2.4,4.7-4.6,7.6-6,9-5.1,20.3-6.4,29.8-1.7,1.2.8-.1,2.5-1.2,1.5-11.5-5.3-26.1-1.8-34.6,7.3-.4.4-1,.5-1.4.2h0Z"/>
      <path class="cls-12" d="m150.79,200.96c-4-3.7-8.5-6.9-13.8-8.4-1.2-.3-.8-2.2.5-1.9,4.8,1.3,9,4.2,12.9,7.3.7.8,2.8,1.7,1.8,3-.4.3-1,.4-1.4,0h0Z"/>
      <path class="cls-12" d="m129.59,224.86c-4.4-.1-8.4-2.2-12.1-4.5-3.4-2-6.2-4.9-8.4-8.2-.6-1.1,1-2.1,1.6-1,1,1.5,2.4,2.9,3.5,4.2,5.4,4.8,13.3,9.4,20.7,6.7,5.7-2.5,10.5-7,13.7-12.3.4-1.2,2.2-.7,1.9.5-.3.8-.9,1.6-1.4,2.3-4.4,6.1-11.7,12.8-19.5,12.3h0Z"/>
      <path class="cls-12" d="m130.39,217.66c-1.1-.2-3.6.6-3.6-1.2,0-.5.5-.9,1-.9,1.6.1,3.2.1,4.8,0,5.6-1,11.6-2.4,16-6.3-.2.1-.2.3-.3.5.3-1.2,2.2-.8,1.9.5-3.5,4.2-9.5,5.5-14.6,6.8h.2c-1.8.4-3.6.6-5.4.6h0Z"/>
      <path class="cls-12" d="m131.99,262.26c-.5-.2-.8-.8-.5-1.2.9-2.1,1.7-4.3,2.8-6.3,3.3-5.6,7.2-11.3,13.1-14.3,2.3-1.4,5.1-2.6,7.8-1.3,2.2,1,3.4,3.6,3.6,5.9-.3,1.2-2.2.8-1.9-.5v.3c-.7-4.7-4.3-5.5-8-3.1-2.8,1.3-5.3,3.2-7.2,5.6-2.5,3.1-5,6.3-6.6,9.9-.6,1.4-1.2,2.9-1.8,4.3-.3.6-.9.8-1.3.7h0Z"/>
      <path class="cls-12" d="m168.99,299.06c-4.5-.1-9-1.1-13.1-2.9-3.2-.9-6.3-1.9-9.3-3.4-4.7-2-9.1-5.2-14.4-5.6-3-.2-6.1.6-8.6,2.1-1.3.9-2.5,1.9-3.6,3-.4.4-1,.4-1.4,0-.8-.8.2-1.7.9-2.2,4.2-4.1,10.5-5.8,16.2-4.3,5.4,1.5,10.1,4.9,15.4,6.8,4.4,1.4,8.7,3.1,13.2,4.1,5.2.5,10.7.7,15.8-.6,6.2-2.5,12-6.8,18.8-7.3,1.9-.1,3.9.5,5.4,1.7.7.5,1.9,1.2,1.2,2.1-1.8,1.8-2.5-4.2-11.4-1-4.8,1.8-9.2,4.6-14,6.4-3.7,1-7.4,1.3-11.1,1.1h0Z"/>
      <path class="cls-12" d="m169.39,295.06q-.1-.1-.2-.2h0l.1.1c-9-7.4-21.5-6.3-32.4-7.4h-1.3c-1.2.2-1.6-1.7-.3-1.9,1.4-.1,2.7,0,4,.3,1.9,0,3.8.2,5.6.3,6.4.3,13.1.8,19,3.4,1.5.9,8.3,3.4,6.8,5.4-.3.3-1,.4-1.3,0h0Z"/>
      <path class="cls-12" d="m169.49,295.06c-.9-1.4,1.5-2.1,2.3-2.9,3.8-2.4,8.5-2.4,12.9-2.5,3.7-.1,7.5-.3,11.2-.6,1.6,0,1.3,2.2-.3,2-3.3.2-6.5.5-9.8.5-4.1.2-8.5-.1-12.2,1.8-1.2.3-2.9,2.8-4.1,1.7h0Z"/>
      <path class="cls-12" d="m170.99,305.76c-12.7,0-23.5-7.9-33.5-14.8-1.6-1.1-3.1-2.4-4.9-3.2-.9-.4-2.3-1.1-1.5-2.2.4-.4,1.1-.4,1.5,0,2.9,1.3,5.2,3.3,7.8,4.9,6.5,4.8,13.6,9.3,21.3,11.8,9.1,3.4,18.4.8,25.8-5.1,3.9-2.5,7.1-6.8,11.8-7.8,1.3-.5,1.9,1.5.6,1.8-1.3.3-2.6.8-3.7,1.5-7.3,6.1-15.2,13.2-25.2,13.1h0Z"/>
      <path class="cls-12" d="m137.69,180.56c-3.9-2.3-7.8-4.6-11.9-6.3-1-.4-1.9-.9-2.9-1.3-.5-.2-.7-.8-.5-1.3s.8-.7,1.3-.5c5.2,2.2,10.2,4.7,15,7.7,1.1.6.1,2.3-1,1.7h0Z"/>
      <path class="cls-12" d="m208.89,187.76c-1.6-2.1,13-7.3,14.9-7.3h-.2c1.1-.3,1.8,1.4.6,1.8-2.2.3-4.3,1.1-6.4,2-2,.8-3.9,1.6-5.7,2.7-1,.4-2.3,2.1-3.2.8h0Z"/>
      <path class="cls-12" d="m221.29,184.66c-.5-1.8,2.2-1.5,3.3-1.4.5,0,.9.6.8,1.1-.1.8-1,.9-1.6.8-.8-.2-2,.6-2.5-.5h0Z"/>
      <path class="cls-12" d="m121.79,175.96c-2.1-.3-4.2-.5-6.3-.6-.5,0-1-.3-1-.8-.1-.8.8-1.2,1.5-1.1,2,.2,4,.3,6.1.6,1.2.1,1,2-.3,1.9h0Z"/>
      <path class="cls-12" d="m37.39,170.06c-1.5-3.3-1.8-7.2-2.3-10.8-.8-5.4-.5-10.9-.3-16.3,1.4-14.8,5-29.6,11.7-43,.7-1,1.3-4.1,2.8-3.4.5.2.6.8.4,1.3-8.8,16.7-13.4,35.6-13.2,54.5.1,4.1.7,8.2,1.3,12.2.3,1.5.7,3,1.1,4.4.6.9-.7,1.9-1.5,1.1h0Z"/>
      <path class="cls-12" d="m50.99,93.16c-1.3-.9.3-2.3.9-3.2.8-.8,1.6-3.1,3-2.1.5.5.3,1.2-.1,1.6-.7.8-1.4,1.7-2,2.6-.4.6-.9,1.5-1.8,1.1h0Z"/>
      <path class="cls-12" d="m57.69,84.46c-1.7-1.3,1.4-3,2.2-4,1-.8,2.2.7,1.2,1.5-.7.7-1.6,1.3-2.1,2.1-.2.5-.8.7-1.3.4h0Z"/>
      <path class="cls-12" d="m157.69,99.16c-1-1.4-2-2.7-3.5-3.7-.6-.3-1.4-.8-1-1.7,1.4-2,5.3,3.1,6.1,4.3.7,1.1-.9,2.2-1.6,1.1h0Z"/>
      <path class="cls-12" d="m162.89,105.86c-.3-.7-1.4-1.3-1-2.2.2-.5.8-.6,1.3-.4.6.4.9,1.1,1.3,1.6.7,1-1,2-1.6,1h0Z"/>
      <path class="cls-12" d="m244.19,170.86c-.5-3.2-.7-6.4-1.2-9.6-.2-.6-.2-1.5.6-1.6,1.9-.5,1.5,4.5,1.8,5.8.2,1.8.4,3.5.7,5.2.1.5-.4,1-.9,1-.5.1-.9-.3-1-.8h0Z"/>
      <path class="cls-12" d="m245.29,178.56c0-1-.1-1.9-.2-2.9,0-.3-.1-.5-.1-.8,0-1.2,1.8-1.2,1.9,0,0,1.2,1.1,4.3-.5,4.6-.5,0-1-.4-1.1-.9Z"/>
      <path class="cls-12" d="m247.09,137.46c-.5-2.7-1.2-5.3-1.7-8-.1-.5.2-1,.7-1.2.5-.1,1,.2,1.2.7.5,2.7,1.2,5.3,1.6,7.9.5,1.3-1.4,1.9-1.8.6h0Z"/>
      <path class="cls-12" d="m244.29,122.16c-.3-1.2-.6-2.4-1-3.5-.5-.9.8-1.8,1.5-1.2.8,1.2.9,2.9,1.4,4.3.3,1.3-1.6,1.7-1.9.4h0Z"/>
      <path class="cls-12" d="m142.09,255.66c-.5-4.9,1.7-10.2,5.1-13.7,1.1-1.1,2.2-1.9,3.5-2.7.6-.4,1.4-.8,2.2-.6,1.1.3.7,2.1-.5,1.9-5.2,2.4-8.4,8.2-8.6,13.7.2,4.1,3.4,8.8,7.8,8.8,1.9-.1,3.9-.2,5.7-1,1.5-.8,2.9-1.8,4.2-2.8.1.1.2.2.3.2h0l.1.6c0,.1,0,.2.1.4,0,0,0,.1-.1.1-.4.5-.8,1-1.2,1.6-.5.3-.9.6-1.4.9-2.6,1.6-5.7,1.8-8.7,1.8-4.4-.4-7.7-4.9-8.5-9.2h0Z"/>
      <path class="cls-12" d="m184.49,264.76c-.7-.2-2.3-1.1-3.5-2.2-.1-.1-.2-.3-.4-.4-.3-.3-.5-.6-.8-.9-.5-.7-.6-1.4,0-1.9.4-.3,1.1-.2,1.3.2,1,1.7,2.8,3.2,4.8,3.5,2.1,0,4.5-.4,6-2,3.1-3.4,4.2-10.1,1.8-14.1-2.1-3.4-6.7-6.5-10-2.8-.3.4-.7.8-.9,1.2,0,.5-.5.9-1,.9s-1-.5-.9-1v.1c.4-2.3,2.8-4.1,5-4.8,3.7-.7,6.9,1.7,9,4.5,3.1,4.1,2.3,10,.4,14.5-1.4,3.3-4.9,5.4-8.5,5.4-.8,0-1.5,0-2.3-.2h0Z"/>
      <path class="cls-12" d="m180.69,262.16h0c-.4-.4-.7-.8-1.1-1.2.1-.2.2-.3.3-.5.2-.5.8-.7,1.3-.4,1,.6.4,1.7-.2,2.5-.1-.2-.2-.3-.3-.4h0Z"/>
      <path class="cls-12" d="m160.89,259.86c.2-1.1,1.6-.9,1.9-.1-.2.3-.5.6-.7.9-.3.4-.6.8-.9,1.2-.2-.7-.3-1.3-.3-2h0Z"/>
      <path class="cls-12" d="m149.99,264.66c-1.2-.3-.9-2.1.4-1.9,2-.5,3.3-2.2,4.8-3.5,1.7-1.4,3.2-3.1,5-4.4,3.8-2.9,5.5-1.4,3.6,2.9-.2.3-.4.8-.6,1.3-.4.5-.7,1-1.1,1.5-.3.3-.5.7-.8,1.1-.2.1-.5.1-.8-.1-.4-.3-.6-.9-.3-1.3,1-1.4,1.8-2.9,2.2-4.6-3,1.9-5.5,4.7-8.2,7-1.1.9-2.5,2-4,2h-.2Z"/>
      <path class="cls-12" d="m189.59,263.56c-3.9-1.4-6.8-4.2-10-6.7.5,1.4,1.3,2.7,2.5,3.7,1,.7-.1,2.2-1,1.6-.2-.1-.4-.3-.7-.5-.2-.2-.4-.4-.6-.7-1.8-2.2-3.8-6.5-1-6.6,3.2.9,5.2,3.9,8.1,5.5,1.2.8,2.5,1.3,3.8,1.9.5.2.6.9.4,1.3-.2.3-.5.5-.8.5-.4.1-.5.1-.7,0Z"/>
      <path class="cls-12" d="m187.49,264.06c-.4,0-.8-.2-1.1-.4-.1,0-.1-.1-.2-.1-.6.4-1.3-.2-1.7-.5-1.6-1-2.9-2.2-4.2-3.5-.2-.2-.2-.4-.2-.7-.6-.7-1.5-1.2-1.8-2-.2-.9,1-1.5,1.6-.8.8.9,1.8,1.7,2.7,2.5,1.7,1.3,3.4,2.6,5.3,3.6,1.1.5.8,2-.4,1.9h0Z"/>
      <path class="cls-12" d="m153.39,263.76c-.7-.8,0-1.7,1-1.7,0-.1.3-.4.3-.4,1.2-.9,1.9-2.4,3.1-3.3,1.5-1.2,2.7-3.4,4.8-3.4,1.2.4.7,1.7.2,2.4-.2.5-.3,1.1-.7,1.5-1.9,2.3-4.2,4.3-7.1,5.1-.5.1-1.1.2-1.6-.2h0Z"/>
      <path class="cls-12" d="m199.49,271.56c0-3.2-.7-6.4-1.3-9.6-1-4.8-1.9-9.7-4-14.1-.2-1.1,1.5-1.6,1.9-.5,1.3,2.4,1.9,5.2,2.6,7.7,1.2,5.4,2.7,10.9,2.8,16.4,0,1.3-1.9,1.4-2,.1h0Z"/>
      <path class="cls-12" d="m146.09,327.76c-.5-.1-.8-.7-.7-1.2s.6-.8,1.1-.7c1.7-.2,3.4-.3,5.1-.5,7-1,14.1-1.1,21.2-.8,2.1.1,4.2.4,6.3.8.5.1.8.7.7,1.2-.3,1.1-1.5.6-2.3.5-1.6-.3-3.4-.5-5-.6-8.9-.5-17.7.6-26.4,1.3h0Z"/>
      <path class="cls-12" d="m95.69,205.96c-3.9-.4-7.6-1.8-11.2-3.2-.5-.2-.8-.7-.6-1.2.7-1.6,3,.3,4.1.5,3.5,1.2,7.1,2.3,10.8,1.9,1-.1,2-.6,2.9-1,.5-.2,1.1,0,1.3.5.9,2.3-5.8,2.8-7.3,2.5h0Z"/>
      <path class="cls-12" d="m93.89,216.96c-.5-.2-.7-.8-.4-1.3.8-1.5,1.5-2.9,2.3-4.3,1.3-2.1,2.5-4.2,3.8-6.2.7-1,2.3.1,1.6,1.1-.6.8-1,1.6-1.5,2.5-1.6,2.6-3.1,5.1-4.5,7.8-.3.4-.8.6-1.3.4h0Z"/>
      <path class="cls-12" d="m85.89,207.86c0-.5.4-1,.9-1,1.4-.1,2.7-.1,4.1-.2,2.2-.2,4.5-.2,6.6-1,1-.4,2-.9,3-1.4.4-.3,1-.2,1.3.2.6.7-.1,1.5-.8,1.7-4,2.4-8.7,2.3-13.2,2.5-.7.2-1.8.2-1.9-.8h0Z"/>
      <path class="cls-12" d="m231.69,214.86c-1.5-1.1-2.8-2.3-4.2-3.5-.9-.5-.2-2.1.8-1.7.4.2.7.5,1,.8,1,.8,2.1,1.9,3.1,2.6.5.3.9.9.5,1.5-.2.4-.8.6-1.2.3h0Z"/>
      <path class="cls-12" d="m230.99,212.26c-.7-.1-1.5-.2-2.2-.3h.1c-1.7.1-1.3-2.3.3-1.9,1.7.3,3.2.5,4.8.2.5-.1,1,.4,1.1.9,0,1.6-3,1.1-4.1,1.1h0Z"/>
      <path class="cls-12" d="m123.89,204.46c-.8-.6-1.3-1.5-1.7-2.3-.6-1.4-.8-2.9-.9-4.5-.1-1.2,0-2.3.1-3.5,0-.5.5-.9,1.1-.8.5.1.9.5.8,1.1,0,.4-.1.8-.1,1v2.5c.1.6.2,1.3.3,1.8v.1h0c.1.4.2.8.3,1.2.1.2.2.5.3.7h0c.1.2.2.3.3.5l.3.3.2.2c.1,0,.1.1.2.2l.1.1h.6q.1,0,.2-.1c.1,0,.2-.1.2-.2.1-.1.2-.1.2-.2.2-.1.3-.3.4-.4.2-.2.3-.4.4-.5.2-.3.4-.6.5-1h0s0-.1.1-.1h0v-.1c.1-.2.1-.3.2-.5.1-.3.2-.7.4-1h0c.2-.8.4-1.5.6-2.3.1-.5.2-1.1.2-1.6h0c0-.5.5-.9,1.1-.8.5.1.9.5.9,1.1h0v.1c-.1,1-.3,1.9-.5,2.9-.2.9-.5,1.8-.8,2.6-.1.2-.1.3-.2.5h0c-.1.2-.2.4-.3.6-.2.5-.5.9-.9,1.3-.6.8-1.5,1.4-2.5,1.6h-.5c-.5.1-1.1-.1-1.6-.5h0Z"/>
      <path class="cls-12" d="m206.99,209.26c-.6-.1-1.2-.5-1.5-1-.6-.8-1-1.8-1.2-2.7-.2-1-.4-2-.4-3v-.4c0-.5.4-1,.9-1s1,.4,1,.9v.3h0c0,.3,0,.7.1,1,.1.5.2,1.1.2,1.5.1.4.2.7.3,1,.1.2.2.5.3.7.1.1.2.2.2.4,0,.1.1.1.1.2l.1.1s.1,0,.1.1h.2s.1,0,.1-.1c0,0,.1-.1.2-.1l.2-.2c.1-.2.2-.3.3-.5.2-.3.3-.6.4-.8.2-.5.4-1,.5-1.5.2-.8.4-1.5.5-2.1s.1-1.2.2-1.8c0-.5.5-.9,1-.9s.9.5.9,1v.1c0,.1,0,0,0,0-.1.8-.2,1.6-.3,2.4-.2,1.4-.7,2.9-1.4,4.2-.6,1.1-1.5,2.2-2.8,2.2,0,0-.1,0-.2,0h0Z"/>
      <path class="cls-12" d="m206.99,207.46c-1.3-1-1.9-2.8-1.9-4.4-.1-1.2.7-2.8,1.9-1.6,5.8-4.2,3.4,7.4,0,6Z"/>
      <path class="cls-12" d="m125.89,203.46c-1.4-.1-2-1.4-2.3-2.5-.5-1.4-1-2.8-.9-4.3.1-.7,0-1.3.2-2,.2-.9,1.5-.9,1.8-.1.2-.1.4-.2.7-.3.2,0,.3-.1.5-.1.2-.3.5-.4.8-.4.2,0,.4.1.6.2,1.2-.2,2.6.3,2.6,1.7.3,2.3-1.2,7.9-4,7.8h0Z"/>
      <path class="cls-12" d="m124.09,203.36c-1.4-.6-1.8-4.4.2-4.1,1.1.4.4,1.5.7,2.3,1.1-.1,1.3,1.7.2,1.9-.4,0-.7,0-1.1-.1h0Z"/>
      <path class="cls-12" d="m228.49,204.96c-3.9-5.3-10.4-8.5-17-7.7-1.3.2-1.7-1.7-.4-1.9,3.8-.3,7.9.1,11.3,1.9,1.5.9,9.4,5.9,7.5,7.8-.4.4-1.1.3-1.4-.1h0Z"/>
      <path class="cls-12" d="m111.39,290.46c-.1-1.8-1.1-13.7,2-12.7.8.5.5,1.2.2,1.9-.4,1.7-.5,3.2-.5,4.9,0,1.9.1,3.8.3,5.7,0,.5-.4,1-.9,1-.6.1-1.1-.3-1.1-.8h0Z"/>
      <path class="cls-12" d="m107.69,289.26c-.2-1.2-.4-2.4-.5-3.7,0-.6-.1-1.2,0-1.8.2-1.2,2.1-.9,1.9.4,0,1.6.3,3.1.5,4.7.1.5-.2,1-.8,1.1-.5.2-1-.2-1.1-.7h0Z"/>
      <path class="cls-12" d="m156.39,189.06c-.8-1.8,2.4-1.9,3.5-2.3,3.9-.9,7.8-1.4,11.8-1.2,2,0,3.9.4,5.8.8.5.1.9.6.8,1.1-.1.5-.6.9-1.1.8-6.4-1.5-13.2-.8-19.4,1.2-.6.2-1.1.1-1.4-.4h0Z"/>
      <path class="cls-12" d="m162.49,191.26c-1.1-.1-1.2-1.7-.1-1.9,3.2-.5,6.4-.8,9.7-1,1.2.2,3.9-.8,4,1,0,.5-.5.9-1,.9-4.3-.1-8.5.4-12.6,1Z"/>
      <path class="cls-12" d="m69.49,249.16c-.3-1.7-2.4-11.4.5-11,.5.1.8.7.7,1.2-.4,1.6-.1,3.3,0,4.9.2,1.5.4,3,.7,4.4.1.5-.1,1-.6,1.2-.6,0-1.2-.2-1.3-.7h0Z"/>
      <path class="cls-12" d="m73.99,252.96c-1.1-3-1.7-6.2-2.2-9.3-.1-.5.3-1,.8-1.1s1,.3,1.1.8c.3,1.8.5,3.5.9,5.3.4,1.3.7,2.6,1.2,3.8.2.5-.2,1-.6,1.2-.4.1-1-.2-1.2-.7h0Z"/>
      <path class="cls-12" d="m199.49,155.06c-10-2-20.2-3.4-30.3-3.7-1.2-.1-1.1-1.9.1-1.9,10.3.3,20.6,1.7,30.7,3.7,1.1.4.7,2.2-.5,1.9h0Z"/>
      <path class="cls-12" d="m217.19,154.56c-13.4-3.8-27.3-5-41.1-7.4-1.2-.3-.8-2.2.5-1.9,13,2.2,26.1,3.4,38.9,6.8,1,.4,3.1.2,2.9,1.7-.2.6-.7.9-1.2.8h0Z"/>
      <path class="cls-12" d="m137.59,146.36c0-.5.4-1,.9-1,1.4-.1,2.7-.3,4.1-.4,5.4-.3,10.8-.4,16.2-.3,3.9,0,7.8.4,11.7.6,1.2.1,1.1,2-.2,1.9-8.7-.6-17.4-.8-26-.4-1.9.1-3.8.3-5.7.5-.6.1-1-.3-1-.9h0Z"/>
      <path class="cls-12" d="m171.29,269.36c-4.9-.3-8-4.7-9.6-8.9-.3-.6-.9-1.4-.4-2.1.5-.6,1.5-.5,1.7.3,1.1,2.5,2.3,5.3,4.4,7.2,4.1,3.3,9.4,1.4,11.7-3,.8-.9,1-3.3,2.6-2.7.5.2.6.8.4,1.3-2,4.3-5.6,8.7-10.8,7.9h0Z"/>
      <path class="cls-12" d="m157.39,246.06c-1.2-.4-.5-1.7-.1-2.5,1-2.3,2-4.8,2.8-7.1.5-1.5.8-3,1.2-4.5.1-.5.7-.8,1.2-.7s.8.7.7,1.2c-.9,4-2.2,7.7-3.9,11.4-.5.8-.6,2.4-1.9,2.2h0Z"/>
      <path class="cls-12" d="m181.19,246.96c-.8-1.4-2.8-12.2,0-11.6.7.2.8.9.6,1.5-.2,3.2.1,6.5,1.2,9.6.4,1.1-1.4,1.7-1.8.5h0Z"/>
      <path class="cls-12" d="m66.09,115.66c-.3-.1-.4-.5-.3-.8,1-2.3,2.2-4.6,3.7-6.7.4-.6,1.4,0,1,.7-1.1,1.5-1.9,2.9-2.7,4.5-.5.7-.7,2.7-1.7,2.3Z"/>
      <path class="cls-12" d="m72.39,105.46c-.9-.6.3-1.3.8-1.6.3-.2.5-.6.7-.9,1-2.3,2.2-4.4,2.8-6.8.5-1.8,1.5-3.4,2.3-5,.2-.3.5-.4.8-.3.3.1.4.5.3.8-.6,1.1-1.2,2.3-1.8,3.4-.7,1.8-1,3.7-2,5.4-.8,1.8-1.3,3.9-3.2,4.9-.1.2-.4.2-.7.1h0Z"/>
      <path class="cls-12" d="m82.59,88.06c-.8-.5.1-1.3.5-1.8.5-.4,1.1-1.8,1.9-1.2.7.8-1.1,1.8-1.4,2.5-.3.3-.5.7-1,.5h0Z"/>
      <path class="cls-12" d="m253.79,163.36c-1.5-6-1.8-12.2-2.6-18.3-.2-1.9-.4-3.9-.6-5.8,0-.3.2-.6.5-.6s.6.2.6.5c.9,7.9,1.4,15.8,3.1,23.6.5.9-.7,1.6-1,.6h0Z"/>
      <path class="cls-12" d="m250.09,135.46c-.3-2-.7-4.1-.9-6.1-.1-.7,1.1-.9,1.2-.1.3,2,.6,4.1.9,6.1,0,.7-1.2.8-1.2.1Z"/>
      <path class="cls-12" d="m202.49,50.66c-4.5-2.9-8.5-6.2-13.1-8.9-2.7-1.5-5.6-2.2-8.5-3.1-.7-.1-.6-1.3.2-1.1,4.1,1.2,8.2,2.5,11.7,5,2.9,1.7,5.4,4,8.3,5.7.7.5,1.4,1,2.1,1.4.3.2.4.5.2.8-.3.3-.6.4-.9.2h0Z"/>
      <path class="cls-12" d="m198.49,51.76c-2-1.3-3.9-3-6.1-3.9-.6-.1-.5-1.1.1-1.1,1.2.2,2.2,1.1,3.3,1.7,1.1.8,2.3,1.6,3.4,2.4.3.2.4.5.2.8-.2.2-.6.3-.9.1h0Z"/>
      <path class="cls-12" d="m188.39,46.16c-.5-.3-1-.6-1.5-.7-.7,0-.7-1.1,0-1.2.6.1,2.9.8,2.4,1.7-.2.2-.6.3-.9.2Z"/>
      <path class="cls-12" d="m81.59,304.16c-2.1-2.4-4.4-4.6-6.2-7.2-1.5-2.4-2.8-4.9-4.3-7.3-.6-1-1.3-2.1-1.9-3.1-.2-.3-.1-.6.2-.8.3-.2.6-.1.8.2,3.4,5.1,5.8,11,10.2,15.2.6.7,1.3,1.4,1.9,2.1.2.2.2.6,0,.8-.1.3-.5.4-.7.1h0Z"/>
      <path class="cls-12" d="m66.19,280.26c-.2-.7-1.1-1.8-.2-2.2.9-.1.8,1.1,1.2,1.6.5.7-.6,1.4-1,.6h0Z"/>
      <path class="cls-12" d="m72.79,287.06c-.3-.9-3.9-5.7-2.1-5.8.3,0,.5.2.6.5.7,1.7,1.7,3.2,2.5,4.8.4.5-.6,1.1-1,.5h0Z"/>
      <path class="cls-12" d="m103.59,245.86c-.1-.9-1.5-5.2-.1-5.3.3,0,.6.3.6.6,0,.7.1,1.3.2,1.9.1.8.3,1.7.5,2.5,0,.3-.1.6-.5.7-.3.1-.6-.1-.7-.4h0Z"/>
      <path class="cls-12" d="m229.99,200.66c-3.6-3.3-7.8-6.3-12.6-7.4-.7-.2-.4-1.3.3-1.1,2.9.7,5.5,1.9,8,3.6,1.7,1.3,3.6,2.5,5.1,4.1.5.5-.3,1.4-.8.8Z"/>
      <path class="cls-12" d="m98.89,191.36c-.7-1,2-1.9,2.6-2.4,4.9-2.8,10.1-5.3,15.8-5.6.7,0,.8,1.1,0,1.2-5.2.2-10,2.4-14.5,4.9-1.1.6-2.2,1.3-3.2,2-.2.1-.5.1-.7-.1h0Z"/>
      <path class="cls-12" d="m121.39,184.26c-.4-.1-1,.1-1.4-.3-.4-.4.1-1.1.6-.9.4.1.8,0,1.2.2.7.2.2,1.3-.4,1h0Z"/>
      <path class="cls-12" d="m212.39,193.26c-.1-.8.8-.7,1.3-.8.6-.1,1.6-.3,1.4.7-.2.5-.9.4-1.3.5-.4.1-1.3.3-1.4-.4h0Z"/>
      <path class="cls-12" d="m192.09,192.06c-3.4-2-7.5-2.7-11.3-3.4-.5-.3-.3-1.2.4-1.1,3.9.7,8,1.5,11.5,3.5.6.4,0,1.4-.6,1h0Z"/>
      <path class="cls-12" d="m126.59,227.66c-1.4,0-2.7-.7-4-1.3-1.8-.7-3.5-1.6-5.2-2.7-.4-.5.2-1.2.7-.9,2.3,1.4,4.7,2.5,7.2,3.5.6.2,1.9-.1,1.9.8,0,.4-.3.6-.6.6h0Z"/>
      <path class="cls-12" d="m129.79,226.96c-.2-.7,1.3-1,1.6-.6.8,1-1.4,1.6-1.6.6Z"/>
      <path class="cls-12" d="m214.69,234.56c0-.3.2-.6.5-.6,3.1-.2,6.4-1.1,8.4-3.7.2-.2.6-.3.8-.1.9.8-1.8,2.5-2.4,3-1.4,1-3,1.3-4.7,1.6-.8.1-2.4.8-2.6-.2h0Z"/>
      <path class="cls-12" d="m212.19,234.36c-.8,0-.7-1.2,0-1.2.5.1,1.5-.2,1.5.6-.1.9-1,.6-1.5.6h0Z"/>
    </g>
  </g>
</svg>