<?xml version="1.0" encoding="UTF-8"?>
<svg id="Layer_1" data-name="Layer 1" xmlns="http://www.w3.org/2000/svg" viewBox="0 0 355.76 424.99">
  <defs>
    <style>
      .cls-1 {
        fill: #7e746c;
      }

      .cls-2 {
        fill: #faf8f4;
      }

      .cls-3 {
        fill: #7e736c;
      }

      .cls-4 {
        fill: #f5dcd3;
      }

      .cls-5 {
        fill: #969696;
      }

      .cls-6 {
        fill: #a97b5e;
      }

      .cls-7 {
        fill: #554e49;
      }

      .cls-8 {
        fill: #e1bea6;
      }

      .cls-9 {
        fill: #3c3733;
      }

      .cls-10 {
        fill: #554d49;
      }

      .cls-11 {
        fill: #7e7e7e;
      }

      .cls-12 {
        fill: #3c3734;
      }

      .cls-13 {
        fill: #efeae1;
      }

      .cls-14 {
        fill: #3d1a17;
      }

      .cls-15 {
        fill: #ededed;
      }
    </style>
  </defs>
  <g id="Capa_de_vector12" data-name="Capa de vector12">
    <g>
      <path class="cls-8" d="m107.72,118.56c-.1.2-.2.3-.4.3h0c.1.2.1.4,0,.6-.4-1-.9-1.8-1.9-1.4.3-.4.7-.8,1.2-1h.5c.3.5.5,1,.6,1.5h0Z"/>
      <path class="cls-8" d="m112.32,128.06c1.8,1.5,3.8,2.8,6,3.7-2.9-.9-5.5-2.6-7.4-5.1.4.5.9.9,1.4,1.4Z"/>
      <path class="cls-8" d="m86.82,183.76c-.4,3.6-.6,7.2-.9,10.9-.1,1.1,0,2.2.1,3.3-.2-1.3-.3-2.6-.2-3.9.1-3.4.5-6.9,1-10.3h0Z"/>
      <path class="cls-8" d="m92.52,150.86c.1-.4.4-.9.8-1.1-2.7,9.8-4.5,19.8-6,29.9.6-5.5,1.5-11,2.8-16.4.4-4.2.7-8.5,2.4-12.4Z"/>
      <path class="cls-8" d="m97.62,133.36c.5-1.1.9-2.2,1.4-3.4-2.2,6-3.8,12.4-5.5,18.6,1.3-5.1,2.5-10.2,4.1-15.2Z"/>
      <path class="cls-8" d="m105.32,217.56c1.9-.3,3.7-.6,5.6-.6-.3.2-.8.2-1.1.1h-.5c-1.4.3-2.7.4-4,.5h0Z"/>
      <path class="cls-8" d="m154.62,211.16c-3.2-.4-6.4-.3-9.6.3,1.9-.5,3.8-.8,5.8-.7,1.1-.1,2.4.1,3.8.4h0Z"/>
      <path class="cls-8" d="m138.82,195.16c-.3.1-.5.2-.8.3-1.8.8-3.7,1.5-5.4,2.5-.4.2-.8.5-.9.9-.8.4-3.6,1.4-5.3,2.5,0,0-.1,0-.1-.1,1.9-1.1,3.8-2.4,5.3-3.1,2.3-1,4.7-2.2,7.2-3h0Z"/>
      <path class="cls-8" d="m81.22,305.06c-1.4-3.1-2.7-6.1-3.6-9.3-1-3.2-2.5-6.3-2.1-9.7v-.1c.1-.4.1-.7.2-1.1.1-.6.2-1.2.3-1.8,0-.2.1-.3.1-.5v.5c-.2,2.4-.1,4.8-.1,7.1.1.4.5.6.8.6.7,5,2.8,9.6,4.4,14.3h0Z"/>
      <path class="cls-8" d="m87.32,227.36s.1.1.2.1c-.1.3-.2.5-.4.7-.4.5-.7.8-1.3.9-.8.1-1.4.6-1.6,1.4-.1.4-.2.8-.2,1.2v-1.5c0-.3,0-.7.2-1,.3-.5,1.1-.6,1.5-.2.6-.4,1.2-.9,1.6-1.6h0Z"/>
      <path class="cls-8" d="m89.92,223.96h-.2c-.7-.3-1.4-.2-1.7.3v-.1c0-1.3,1.7-1.2,1.9-.2h0Z"/>
      <path class="cls-8" d="m94.02,327.06c-1.2-1.3-2-2.9-3-4.3-1.8-2.2-3.6-4.4-5-6.8-1.7-2.6-2.8-5.4-3.8-8.3,1.4,3.3,3.2,6.4,5.2,9.4,2.2,3.4,4.3,6.8,6.6,10h0Z"/>
      <path class="cls-8" d="m107.92,343.36c-2.2-2-4.1-4.2-6.3-6.3-1.3-1.7-2.4-3.6-4-5.1-.4-.5-.8-1.1-1.1-1.6,3.6,4.5,7.4,8.8,11.4,13h0Z"/>
      <path class="cls-8" d="m110.12,229.16c.6-.2,1.3-.1,1.5.4-.8-.5-1.9-.2-2.9-.1h-1.5c1-.1,2-.2,2.9-.3Z"/>
      <path class="cls-8" d="m139.92,370.06c-.3.1-.6,0-.8-.1-.5-.5-1.1-.9-1.7-1.3l-.6-.4-.2-.2c-.6-.4-1.2-.8-1.8-1.2-2-1.8-4.3-3.4-6.2-5.3-2.9-1.9-5.5-4.2-8.2-6.3-1.8-1.8-4.2-2.9-5.8-4.9-1.7-1.9-3.6-3.6-5.2-5.6,3.4,3.4,7,6.6,10.8,9.5,3.5,3.3,7.6,6.3,11.6,9.1,2.6,2.3,5.3,4.7,8.1,6.7h0Z"/>
      <path class="cls-8" d="m228.12,319.16c-1.6,2.2-3.2,4.3-4.9,6.4-.3-.2-.6-.1-.9.1,2.1-2,4-4.2,5.8-6.5h0Z"/>
      <path class="cls-8" d="m231.62,259.76c-1.4-.5-2.7-1.2-4.1-1.8-2.3-1.4-4.2-3.1-5.8-5.2,2.9,2.8,6.3,5.1,9.9,7h0Z"/>
      <path class="cls-8" d="m279.82,237.36c.2-.7.6-1.2,1-1.8-.7,2.3-1.8,4.5-2.8,6.8-1.1,2.2-2.2,4.4-3.6,6.5h-.4c.5-.8,1-1.5,1.6-2.3,1.4-3,2.8-6.2,4.2-9.2Z"/>
      <path class="cls-8" d="m283.72,221.86c.1,3.8-1.5,7.4-2.6,11-1,4.2-3.5,7.8-5.7,11.4-2.4,3.7-4.8,7.3-8.2,10h-.1c-3.9,2.2-8.1,3.8-12.6,4.7-3,.7-6.1,1.3-9.2,1.7h0c-1.3,0-2.7-.1-4-.3-2.3.3-4.6.4-6.8-.4-1.2-.5-6.4-1.9-7.7-3.6-4.5-2.7-7.7-7.2-9.9-12,.2-.2.3-.6.2-.9-.4-1.3-.7-2.6-.8-4-.5-7.2,2.6-14.1,6.6-19.9.4-.3.9-.6,1.3-.9v1.3c.3.7.6,1.4,1.4,1.9,0,0,.1,0,.1.1,0,0,.1,0,.1.1.3.3.6.5,1,.8.1.1.3.2.4.3.5.3.9.6,1.4.9,1.4,1.3,2.8,2.7,4.4,3.6,1.8,1.1,4,1.4,6,1.8,3.4.8,7.1.9,10.4-.5,2.8-1,5.6-2.3,7.9-4.3,1.4-1.2,3-2.1,4-3.6.4-.3.9-1.2,1.3-1.9,0-.1,0-.2.1-.2-4.1-4.1-9.4-6.5-15.1-7.5-3.5,0-7,.4-10.5.9-.4,0-.9,0-1.3.1,8-3.1,13.7-2.7,22.8,2.1-.1.3.1.7.4.9,1.3.8,2.4,1.8,3.7,2.6-.3.8.4,1.4,1.2,1.5,1.5.3,2.9-.5,2.6-2.1-1-3-3.9-4.9-6.4-6.7.4.1.8.2,1.2.2,5.4.8,10.9,1.9,15.9,4.3,2,1,4,2,5.6,3.6,1.1,0,.8,2,.9,3h0Z"/>
      <path class="cls-8" d="m275.52,201.76c.4-1.3-1-2.7-1.2-4-.4-1-.7-2.2-1.3-3.2-1.3-2-2.8-4.2-4.5-5.9-1.8-1.7-3.4-3.6-5.2-5.2-2.2-1.7-4.7-3-7.3-3.9-5.1-.9-10.3-1-15.3.4-6.7,1.7-13.1,4.8-18.5,9.3-.7.7-1.4,2-.5,2.8.5.1.9.6.8,1.1,0,.7-.8.9-.9,1.6-.5,3.4,2.9,3.6,5.3,3.4,0-.5.4-1,.9-1,.8-.2,1.6-.5,2.4-.7,2.1-.5,4.2-1.5,6.2-1.9,3.4-1,6.7-1.9,10.1-2.4,3.1-.9,6.8-.9,9.8.5,1.9.9,3.9,1.9,5.5,3.3,1.5,1.1,2.4,2.8,3.7,4,1.6,2,3.5,4.2,6.2,4.3.3,0,.6,0,.8-.2-.2-1,.7-1.3,1.5-1.4.7-.3,1.2-.5,1.5-.9h0Zm9.5-31.2c1,8.1.9,16.3.8,24.4-.2,6.9-.4,13.9-1.5,20.7,0,.7-.2,1.7-1.1,1.6-.1,0-.2,0-.3-.1-.3.2-.8.3-1.2,0-2.3-2-5.4-2.4-8.1-3.7-4.9-1.7-9.7-3.5-14.8-4.2-.4,0-.8-.1-1.1-.1h0c-.4-.2-.8-.5-1.2-.7-4.7-2.3-9.9-3.5-15.1-4-3.2-.1-6.3.9-9.1,2.4-.8-1-1.8.2-2.5.7-1.4,1.1-2.7,2.3-4,3.5h0c-3.6.5-7.1,1.4-10.6,2.2.1.1.3.2.4.3,3.2-.9,6.5-1.5,9.8-2h0c-.1.1-.2.1-.2.2-.7,0-1.6.4-2.2.5-3,.3-5.8,1.3-8.7,1.9h-.3c-.1,0-.3,0-.4.1q.1,0,.2-.1c.1-.2.3-.5.5-.7-.3,0-.6.1-.9.2-.2.1-.3.1-.5,0-.1.2-.1.3-.2.5h0c-.4-.2-.9-.2-1.3.3-.2.5-.3,1.1-.4,1.7-.3,0-.6.2-.8.5h0c-6.1-1.9-12.5-1-18.7-.3-.9.2-1.7.4-2.5.6-.3.6-.9,1-1.5.6-.1-.1-.2-.1-.2-.2-.2.8-1.6,1.1-1.9,0-.1-1.2-1.4-3.8.7-3.6.8.2.8,1.4,1,2.3,0-.3.2-.5.4-.6.2-.4.3-.7.4-1q0-.1-.1-.2c-1.1-.4-2.2-.8-3.4-1.2v-.1c-.5-2.2-1.1-4.3-1.5-6.5.1-.3.1-.6-.1-.9h0v-.4c.2.1.5.2.7.3.2-.4.6-.7,1.1-.5.9-.4,2.2-.6,2.5-1.7-.9-1.9-2.5-3.5-3.8-5.2-.5-.5-.9-1.1-1-1.8-.6.3-1.4.4-1.7-.3-.4-1,.7-1.5,1.5-1.7.4-.1,1-.2.9-.7-1.1-4-5.4-5.8-8.7-7.5-5.5-2.8-11.5-4.2-17.6-4.5-3.2-.1-6.3-.4-9.4-.5h-.8c-.2.1-.5.1-.7.1s-.4,0-.6-.1h-.1c-4.3-.1-8.1,2.1-12,3.7-2.9,1.2-5.7,2.3-8.4,3.9-1.9,1.5-3.5,3.2-5.1,4.9-.8,1.1-1.4,2.2-2.3,3.3-.1.2-.2.4-.2.6-1.4-.3-2.9.2-4.2.5-3.6,1-6.9,2.7-9.9,4.8v-.9c2-19,4.8-38.8,12.8-56.4,2.8.9,5.8,1.4,8.8,1.7h.8c10.7,0,17.8-10.1,22.5-18.6,1.6-2.2,3.1-4.5,4.7-6.7l.5-.5c7.1-5.7,15.3-9.6,23.1-14.1,4.8-1.3,9.7-2.7,14.2-4.8,5-1.9,10.1-3.8,15-6.2.4-.2.5-.5.5-.8.2,0,.3-.1.5-.2.5,0,.9-.1,1.4-.1h5.4c1.6.1,3.3,0,4.9,0h1.1c4.2.3,8.4.7,12.5,1.2,3.3.8,6.8,1,9.9,2.5,8,2.8,14.5,8.2,21.2,13.2,1,.9,6.5,4.1,7.8,6.3.1.1.3.3.3.5.1.3.2.7.3.8,6.3,16.4,11.4,33.4,13.8,50.9h0Z"/>
      <path class="cls-8" d="m185.32,224.76c-.2.5-.4,1-.6,1.6-.1.2-.2.5-.3.7-.2.4-.3.8-.5,1.3-.2.7-.5,1.4-.8,2.1l-.6,1.2c-.4.8-.8,1.5-1.2,2.2-2.5,4.2-5.9,7.8-8.5,11.9-.3.3-.6.6-.8.9-.7.8-1.5,1.6-2.3,2.3,2.4-1.8,4.6-3.7,6.5-5.9.2-.3.5-.6.7-.9,1.7-2.3,3.2-4.8,4.5-7.3.3-.5.5-1,.8-1.5.1-.3.3-.6.4-.9.2-.4.4-.8.5-1.1.5-1,1-1.9,1.4-2.9.1-.2.2-.4.3-.7h0c.4-1.1.5-2,.5-3h0Zm52.1,84.1l.1-.1c-1.1-.3-2.2-.5-3.2-.8-.7-.3-1.4-.7-2.1-1.1-3.7-1.5-7.2-3-10.2-5.7-.8-.6-1.6-1.2-2.4-1.9h0c-1.7-1.6-3.3-3.3-5.3-4.4-1.9-.8-4.3-1.3-6.4-1.3-1.9.5-3.3,1.9-4.4,3.5-1.2,1.3-2.6,2.6-4.1,3.7v.1c-.3.2-.7.5-1,.7h-.1c-.3-.2-.7-.5-1-.7-.4-.9-.6-1.9-1.3-2.7-1.9-2.6-4.5-6-8.1-4.2-3.6,2-7.6,3.3-11.4,4.9-2.7.6-5.2,1.8-8,2.2h-.6c-.2,0-.4.1-.6.1-4.4.5-8.9.9-12.9,2.9-.1,0-.2,0-.3.1-.5-.2-1,.1-1.2.5h-.5c-.8.3-.9.8-.7,1.4l-.1.1c.2.5.5.9.7,1.1.1.2.3.3.4.5.3.4.6.8.7,1,.7,1,1.4,2,2.2,2.9.8,1.1,1.5,2.3,2.4,3.4-2.9-3.1-5.5-6.5-7.4-10.3.3-.9-.9-1.7-1.6-1.1-.7.7-.3,1.7.1,2.4,4.7,9.2,12.9,15.7,20.9,21.9,3.4,2.5,7.2,4.2,10.9,6.2,5.4,2.6,11.1,4.6,17.1,4.6,10.6.7,20.1-3.6,26.8-11.9,4.1-4.6,7.2-10.2,11.5-14.7.6-.7,2-1.6,1-2.5-.2-.1-.3-.2-.4-.2-.1-.1.2-.3.5-.6h0Zm60.3-57.9c1.2,1.9.8,4.4.6,6.5-.8,6-1.9,12.6-6.2,17.2-.7,2.5-1.8,5.1-3.1,7.4-.4.8-.9,1.5-1.4,2.2-1.1,1.6-2.4,3-3.9,4.2-.2.2-.4.3-.7.5-.5.3-1,.6-1.4.9-.2.1-.5.3-.7.4-.1.1-.2.1-.3.2-.6.3-1.2.5-1.8.6-.1.1-.3.1-.5,0-1,6.9-1.9,13.7-3.1,20.6-1,5-2.4,9.7-3.6,14.6-1.2,3.4-2.4,6.8-4.3,9.9-.8,1.8-1.6,3.6-2.6,5.4.2.3.2.7,0,1-5.3,7.3-12.2,13.3-19.3,18.8-2.1,1.6-4.1,3.1-6.2,4.7-1.9.8-4,1.1-6,1-.4.7-.8,1.4-.9,1.9-1.8,5-4.8,9.6-8.7,13.2-1.8,1.7-3.2,3.6-5.2,5-1.6,1.2-3.1,2.7-4.8,3.8-3.8,1.9-7.5,4.4-11.6,5.8-3.6,1.5-7.4,1.7-11.2,1.8-5-.6-10.2-.9-15.1-2.4-3-1.1-5.8-2.4-8.7-3.8-1-.6-3.6-1.3-3.8-2.6-1.8-1.2-3.4-2.7-4.9-4.2-2.7-2.1-4.7-4.9-7-7.2-2.5-2.1-5.2-3.9-7.7-6.1-.7-.5-1.5-1-2.2-1.4.3,0,.6-.2.8-.5.2,0,.3-.1.5-.2,1.1-1.1-.5-2.1-1.2-2.9-1.5-1.3-2.7-2.8-3.9-4.4-1.7-1.7-3.2-3.5-4.5-5.6-1.9-2.5-3.9-4.9-5.2-7.8-2-3.1-3.3-6.5-4.6-9.9-2.4-5.2-3.9-10.7-5.3-16.2-2-6.6-3.2-13.5-3.8-20.4-.4-4.6-1-9.2-.9-13.9.1-6.5,1-12.9,1.5-19.4.3-3.9.5-7.8.7-11.7,2.1-2.1,4.2-4.1,6.3-6.2.4-.4.7-.7,1.1-1.1.8.9,1.7,1.7,2.7,2.5.9.3,1.9,1.3,2.6,1.5,1.2.6,2.4,1.1,3.7,1.5.2.1.4.1.6.2h0c2.4.7,4.8,1.1,7.2,1.5.9.1,1.8.3,2.7.4,1.7.2,3.4.3,5.1.1,1.9-.2,3.7-.6,5.4-1.3.8-.2,1.7-1,2.4-.5.2-.1.4-.1.6-.2,2.9-.9,5.7-1.9,8.2-3.4-.4.2-.9.4-1.3.6-1.1.4-2.1.8-3.2,1.2h0c-3,1-6.1,1.7-9.2,2.2-1.8.3-3.6.5-5.4.6h0c-3.4-.2-6.9.1-10.2-1-.5-.1-1-.3-1.5-.5-3.7-1.2-6.9-3.5-9.8-6.1,3-3,6.1-5.9,9.1-8.9l.5-.4c.3-.3.6-.5.9-.8.2-.2.4-.4.6-.6.3-.3.6-.5.8-.8,1.4-1.4,2.8-2.8,4.5-4,.2-.1.4-.3.4-.5.1-.2.1-.5,0-.7.2.1.3.2.5.3,3.3,1.8,7.1,2.9,10.8,2.8,2.6-.2,5.2-.9,7.6-2,.1-.1.1-.2.2-.2,1.5-1.1,2.9-2.3,4.4-3.4,3.5-2.9,6.1-6.8,8.2-10.7.1-.4.4-.8.7-1.1.8.5,1.5,1,2.2,1.5.1.1.3.2.4.3,0,.7.9,1.1,1.6,1.2.4.3.8.5,1.1.7h.1c.8.3,1.7.4,2.5.2h.1c.4-.1.8-.2,1.1-.5.2-.1.4-.2.6-.4.5-.3.9-.7,1.2-1.2,0,0,.1-.1.1-.2.1-.2.2-.3.3-.5.4-.8.7-1.6.8-2.4.1-.5.1-1,.1-1.5.6,1.7,1,3.5,1.2,5.3,0-.1.1-.2.1-.3.1-.3.1-.5.1-.8-.6-1.1,1.1-1.7,1.9-2,1.5-.5,2.8-1.4,4.4-1.5,4.1-.9,8.3-.9,12.5-.9,1.7.1,3.3.7,5,1-.1.8-.2,1.6-.3,2.4-.1,1.1-.2,2.2-.2,3.3v5.2c-.5,4.9-.7,9.9.8,14.6.9,2.5,2.6,4.6,4.4,6.5.8.8,1.5,2.8,2.9,2.2.5.7.9,1.4,1.6,1.9.1,0,.2.1.2.1,3,4,7.2,7,12,8.5,4.2,1.9,8.8,2.4,13.4,2.6,6.4-.4,12.9-1.7,18.9-4.1,9.5-3.6,14.4-13.1,18.1-22,.5-1.5,1-3.1,1.4-4.7,0,.3-.1.6-.1.9h0v.5c-.2,3-.4,6-.2,8.9.1,2.1.2,4.2.4,6.3,0,0,.1,0,.2.1.1,1.2.3,2.5.5,3.7,0,.9,0,1.7.1,2.6.1,1,.3,2,.7,2.9.1.3.2.6.4.8v.2h0v.2h0c0,.2.1.4.2.6h0v.1c.2.5.5.8.9,1.1.1.1.2.1.3.1,0,.1.1.1.1.2,0,0,.1,0,.1.1h.2c.5.2.9-.1,1.1-.4h.1c.4-.3.7-.7,1-1.1h0c.2-.2.3-.4.5-.6,1.1-1.8,2.2-3.6,3-5.6h0c.3-.7.5-1.4.7-2.2.2-.6.3-1.2.4-1.8h0c.1-.5.2-1,.2-1.5,0-.2.1-.4.1-.5,0-.2.1-.4.1-.6.3-.4,1-.5,1.4-.2h0c.2.5.4.9.7,1.3,0,.1.1.1.1.2,0,0,0,.1.1.1.2.3.5.5.8.8.1.2.2.3.3.3h0Z"/>
      <path class="cls-6" d="m164.02,206.26c.5,0,1,.5,1,1,0,.1,0,.2-.1.3.1.2,0,.4,0,.6-.1.1-.1.2-.2.3,1.3,1.1,2.3,2.3,2.3,3.7-.7,2-3.2,2.1-4.9,1.3-1.4-.5-2.8-1-4.2-1.5h-.2c-1.1-.3-2.1-.6-3.1-.8-1.4-.3-2.7-.5-3.8-.4-2-.1-3.9.2-5.8.7-1.4.4-2.8.8-4.2,1.2h-1.3c-6.4-1.7,1.9-6.1,4.5-6.9.8-.5,1.7-.6,2.5-1,.8-.2,1.6-.7,2.4-.3,1.8-.1,3.7,0,5.6.3,1.4-.2,2.8.6,4.1.8.4.1.9.3,1.5.5h.5c.9.1,1.7.1,2.6.3.3,0,.5-.1.8-.1h0Z"/>
      <path class="cls-8" d="m139.52,212.66c-6.4-1.7,1.9-6.1,4.5-6.9.8-.5,1.7-.6,2.5-1,.8-.2,1.6-.7,2.4-.3,3.8-.3,7.9.3,11.1,2.6,1.6.8,2.9,3,1.4,4.5-.9,1.2-2.6.6-3.8.5-2.1-.4-4.3-.8-6.4-.8-1.4.1-2.6.1-3.9.3-2.6.2-5.1,1.4-7.8,1.1h0Zm1-1.9c2.2-.1,4.3-1,6.5-1.2,1.5-.2,2.9-.2,4.4-.3,2.9-.2,5.7.9,8.6,1,.1-.1.2-.2.2-.3-.2-1.2-1.9-1.7-2.8-2.3-5.9-2.7-13.2-1.1-18.1,3,.4.1.8.1,1.2.1h0Z"/>
      <path class="cls-8" d="m139.32,211.46c-2.8-2.1,3.4-4.7,5-5.3,1.9-.5,3.9-.8,5.9-.9.6,0,1.3-.1,1.7.3,2,.1,8.4,1.3,9,3.3.1,1-1,1.7-2,1.5-3.5-.7-7.2-.9-10.8-.3-2.1.3-4.3.8-6.4,1.3-.7.2-1.6.5-2.4.1h0Zm6.7-3c2.6-.5,5.2-.8,7.9-.7-2.6-.6-5.3-.1-7.9.7Z"/>
      <path class="cls-8" d="m162.12,213.46c-2.2-.7-4.3-1.6-6.5-2.2-.9-.3-2.5-.1-2.4-1.4.4-2.1,5.9.8,7.3,1,1.1.4,2.1.8,3.1,1.1.5.1,1,.2,1.3-.2-2.3-3.3-6.5-4.6-10.3-5.1-.4.2-.9,0-1.2-.3-.3-.4-.2-1,.2-1.3,1.6-.8,3.4.3,5,.5,2.7.7,8.2,3.5,8.3,6.7-.7,1.8-3.1,2-4.8,1.2h0Z"/>
      <path class="cls-8" d="m164.42,213.16c-.9-1.6-8.1-1.5-5.9-4.1h0c-.1-.1-.2-.2-.2-.3-.3-.1-.6-.2-.9-.3s-.5-.3-.5-.6c-1-.3-.9-1.8.2-1.9,1.9.2,4.5.4,5.6,2.2.9.4,2.4,1.2,2,2.4.2.2.4.5.5.7.3.2.7.5.8,1,.2.7-.9,1.4-1.6.9h0Z"/>
      <path class="cls-8" d="m163.62,208.66c-1.4-.6-3-.6-4.5-.8-1.2-.2-1-2.1.3-1.9,1.3.3,6,.1,5.4,2.2-.2.5-.8.7-1.2.5h0Z"/>
      <path class="cls-8" d="m163.42,208.46c-1.7-.7-3.5-.5-5.3-.7-.5,0-1-.5-.9-1,.2-1.6,2.4-.7,3.5-.8,1.2.1,2.5.2,3.6.7,1,.7.1,2.3-.9,1.8h0Z"/>
      <path class="cls-8" d="m160.32,207.36c0-.5.5-.9,1-1,.9,0,1.8-.1,2.7-.1.5,0,1,.5,1,1s-.5.9-1,1c-.9,0-1.8.1-2.7.1h0c-.6,0-1-.5-1-1Z"/>
      <path class="cls-8" d="m163.22,208.46c-1-.3-3,.4-3.1-1.1,0-.5.5-1,1-1,1,0,2,.1,3,.2.3,0,.6.3.8.6.2,1.1-.8,1.6-1.7,1.3h0Z"/>
      <path class="cls-6" d="m129.92,208.96c-.1-.2-.1-.3-.2-.5-2.5.4-4.9,1-7.4,1.5-3.6,1.1-7.6,1.9-10.9,3.6v1.5c.4,0,.8.1,1.1.2.1-1.7.4-3.4,2-2.2,2.7-.7,5.4-1.6,8.1-2.4,2.4-.7,4.9-1.1,7.3-1.7h0Zm52.4,3.7c0-.1-.1-.3-.1-.4-2.2-.7-4.4-1.4-6.6-1.9.5.2,1.1.4,1.6.6,1.5.5,3.5.9,5.1,1.7h0Zm23.5-117.3v.1c0,.3-.1.6-.5.8-4.9,2.4-9.9,4.2-15,6.2-4.6,2.1-9.4,3.5-14.2,4.8-7.8,4.5-16,8.4-23.1,14.1-.2.1-.3.3-.5.5-1.5,2.3-3,4.6-4.7,6.7-4.8,8.5-11.9,18.6-22.6,18.6h-.8c-2.9-.3-5.9-.8-8.8-1.7-7.9,17.6-10.8,37.4-12.8,56.4v.9c3-2.2,6.4-3.8,9.9-4.8,1.4-.4,2.8-.8,4.2-.5h0c.6.2.7.8.5,1.2,0,.1.1.3.1.5,1.7.7.4,2.5.4,3.4,0,.4.3.7,1.3.6.3,0,.6-.1,1-.2,1.2-.2,2.3-.8,3.5-1.3v-.1c.5-1.1,1.6-.7,2.5-.1,0,0,.1,0,.1.1,1.7-1.1,4.5-2.1,5.3-2.5.1-.4.5-.7.9-.9,1.7-1,3.6-1.7,5.4-2.5.3-.1.5-.2.8-.3,2.6-1,5.3-1.7,8.1-1.9.3,0,.5.1.8.3h1.1c1.1,0,2.3.1,3.5.1,5,.3,9.9,1.1,14.5,3,3.1.9,5.7,2.5,8.5,4,1.8.8,3.6,1.5,5.2,2.6.3.2.7.4,1,.6h.8c.4.2.6.6.6,1v.4h0c.2.3.2.7.1.9.4,2.2.9,4.4,1.5,6.5v.1c.3,1.1.4,2.2.4,3.3,0,.5,0,1-.1,1.5-.1.8-.4,1.7-.8,2.4-.1.2-.2.4-.3.5,0,.1-.1.1-.1.2-.3.4-.8.8-1.2,1.2-.2.1-.4.3-.6.4-.4.2-.8.3-1.1.5h0c-.8.2-1.7.2-2.5-.2h-.1c-.3-.2-.7-.4-1.1-.7-.7-.2-1.6-.6-1.6-1.2-.1-.1-.3-.2-.4-.3-.6-.5-1.4-1-2.2-1.5-4.1-2.6-9.9-5.4-14.9-7h.2c.9.3,1.7.6,2.6.9.3.1.5.2.8.3s.5.2.8.3c.5.2,1.2.4,1.8.4,1.3,0,2.5-.5,3-1.8v-.3h0v-.2c0-.2-.1-.3-.1-.5q0-.1-.1-.2c-.2-.4-.4-.8-.8-1.2-.1-.1-.1-.2-.2-.2-.1-.2-.3-.3-.4-.4-.1,0-.1-.1-.1-.1-.1-.1-.2-.2-.3-.2l-.1-.1-.1-.1.1-.1.1-.1h0v-.1s0-.1.1-.1c.1-.2.1-.4,0-.6h0v-.1h0v-.1c0-.5-.4-1-1-1h-.8c-.2,0-.4-.1-.5-.1h-.7c-.4,0-.9-.1-1.3-.1h-.5c-.1,0-.2-.1-.2-.1-.1,0-.2-.1-.2-.1q-.1,0-.2-.1c-.1,0-.2-.1-.3-.1-.2-.1-.4-.1-.5-.2-.1,0-.3,0-.5-.1-.1,0-.3-.1-.5-.1-.2-.1-.5-.1-.7-.2-.2,0-.3-.1-.5-.1-.6-.2-1.1-.3-1.6-.3h-.4c-.1,0-.3,0-.4-.1h-.1c-.1,0-.3,0-.4-.1-.3,0-.6-.1-1-.1h-3.6c-.8-.3-1.6.2-2.4.3-.9.3-1.8.5-2.5,1-1,.3-3,1.2-4.6,2.3-2.3,1.6-3.8,3.6.1,4.6h1.2q.1,0,0,0c-3.1.9-5.9,2.2-8.4,4.1-.1.1-.2.1-.3.2-.1,0-.1.1-.2.1h0c.1,0,0,0,0,0h0c-.2.1-.4.3-.5.4-.9.6-1.7,1.2-2.5,1.9-.1,0-.1.1-.2.2-.3.4-.6.8-1,1.2h0c.2.2.4.5.6.8h0c.1.1.1.2.2.3s.1.2.2.3c.1.2.2.4.4.5q.1.1,0,0c.3.5.7,1.1,1,1.6.3.3.6.6.8.8.6.5,1.2,1.1,1.8,1.6.6.6,1.1,1.1,1.6,1.8,0,0,.1.1.1.2.6.6,1.2,1.2,1.8,1.7h0c.9.8,1.9,1.5,2.9,2.2.1,0,.1.1.2.1.2,0,.5,0,.6.1s.3.2.4.4h0c.1.2.1.5,0,.7s-.2.4-.4.5c-1.7,1.1-3.1,2.5-4.5,4l-.8.8c-.2.2-.4.4-.6.6-.3.3-.6.5-.9.8l-.5.4c-3,3-6,6-9.1,8.9l-.4.4c-.1.1-.2.2-.3.3-.4.4-.7.7-1.1,1.1-2.1,2.1-4.2,4.1-6.3,6.2-.1,3.9-.4,7.8-.7,11.7-.4,6.5-1.4,12.9-1.5,19.4-.1,4.6.5,9.2.9,13.9.6,6.9,1.8,13.8,3.8,20.4,1.4,5.5,2.9,11,5.3,16.2,1.3,3.4,2.6,6.8,4.6,9.9,1.4,2.8,3.4,5.2,5.2,7.8,1.3,2.1,2.8,3.9,4.5,5.6,1.2,1.5,2.5,3,3.9,4.4.7.8,2.3,1.8,1.2,2.9-.1.1-.3.2-.5.2-.1.3-.4.5-.8.5-.1,0-.2,0-.4-.1-.3-.2-.6-.4-.9-.6-2.9-2-5.5-4.4-8.2-6.6-4-2.8-8-5.8-11.6-9.1-3.8-3-7.4-6.2-10.8-9.5-.5-.5-1-1-1.4-1.5-4.1-4.1-7.8-8.5-11.4-13-.1-.1-.2-.3-.3-.4-.7-.9-1.5-1.8-2.1-2.8-2.4-3.2-4.5-6.6-6.7-10-1.9-3-3.8-6.1-5.2-9.4-.3-.6-.5-1.2-.7-1.9-.1-.3-.2-.5-.3-.8h0c-1.6-4.7-3.7-9.3-4.4-14.2-.4,0-.7-.2-.8-.6,0-2.3-.1-4.8.1-7.1v-.5c0-.4.1-.9.1-1.3,0-.2.1-.4.1-.6.1-1.9.3-3.6.9-4.2,0,0,0-.1.1-.1,1.2-4.9,2.6-9.8,3.5-14.8.8-4.6,1.3-9.2,1.8-13.9.3-.5.4-1.2.2-1.6.1-.5.1-1.1.2-1.6.1-1,.2-1.9.3-2.8.1-1,.2-2,.3-3,.1-2.1.1-4.2.3-6.2,0-.3.1-.6.1-.9.1-.4.1-.8.2-1.2.2-.8.8-1.3,1.6-1.4.6-.1,1-.4,1.3-.9.2-.2.3-.5.4-.7l-.1-.1c-.1,0-.1-.1-.1-.1v-.1c-.2-.4-.1-1,.3-1.2,0,0,.1,0,.1-.1.1-.1.2-.1.3-.1h.2c0-.1.1-.2.1-.3-.1-.1-.2-.2-.2-.3-.2-.3-.1-.7,0-.9.3-.4,1-.6,1.7-.3h.2c4.4,1.3,8.7,2.9,13,4.6,1.4.5,3,.8,4.5.9h1.5c.9-.1,2-.4,2.9.1.2.1.3.2.5.4.6.5.4,1.3.6,2,.1.2.1.5.1.6.5.4.4,1.2-.1,1.6.9,2.8,2.1,5.6,3.6,8.2,1.3,2.6,2.9,5.1,5,7.1h0c.2-.2.4-.4.6-.6l-.8-.8c-3.6-3-5.8-7.4-7-11.9-.4-2.5-.3-5.1-.7-7.5-.3-1.9-.6-3.9-.7-5.8-.4-.2-.6-.5-.5-1.1.1-.2.2-.3.3-.4-.1-1-.4-1.8-.5-2.6-.2-.2-.4-.5-.4-.8s.1-.5.2-.6v-.2h-.9c-1.9,0-3.7.3-5.6.6-.6.1-1.3.2-1.9.2h-.8c0,.2,0,.4-.1.5-.4.7-1.7.6-1.8-.4v-.2c-.4,0-.8,0-1.2-.1-1.5-.1-2.9-.2-4.3-.7-.4,0-.7-.1-.9-.4l-.1-.1s-.1,0-.1-.1c-.8-.2-1.7-.3-2.5-.3h-.8c-.5.1-1.2,0-1.7-.2-1.2-.2-1.8-.5-1.8-1.9-.1-2.3-.2-4.5-.4-6.8-.1-1.9-.3-3.8-.5-5.8-.1-.6-.2-1.2-.3-1.8h0c-.1-.5-.1-1-.2-1.4v-.1c-.1-1.1-.2-2.2-.1-3.3.3-3.7.5-7.3.9-10.9.1-1.3.3-2.6.4-4v-.3c1.4-10,3.3-20.1,6-29.9.1-.3.2-.7.3-1v-.1c1.7-6.2,3.3-12.5,5.5-18.6.2-.6.4-1.2.7-1.8-.4-1-.6-1.9-.3-2.5,0-.1.1-.1.1-.2.2-.2.4-.4.8-.5h.2c1.2-2.5,2.5-5.1,4.6-6.8.1,0,.2-.1.3-.1,1-.4,1.5.5,1.9,1.4.3.7.4,1.5.6,2,.6,1.7,1.8,3,2.6,4.6.1.2.2.3.4.5,1.9,2.6,4.5,4.2,7.4,5.1.7.2,1.4.4,2.1.5h.2c.2,0,.5.1.7.1,3.4.4,7-.1,10.1-1.4,1.2-.5,2-1.5,2.8-2.4h0c1.9-1,3.6-2.2,4.9-3.9.8-1,1.5-2,2.2-3.1h.6c1.6-2.5,3-5,4.6-7.5.5-.8,1.1-1.5,1.6-2.2h0c.9-1.1,1.9-2.1,3-3,.1-.1.2-.2.3-.2s.1-.1.1-.1c2.6-1.5,5-3.4,7.7-4.5,3-1.2,7.2-1.4,9.4,1.1,0,.5.3.9.9,1,11.5-1.8,22.3-6.2,33.2-10.1.8-.2,1.7-.3,2.6-.5h.2c-.5-.2-.3-.2-.2-.3h0Z"/>
      <path class="cls-6" d="m167.32,214.96c-2.7-.3-4.9-1.9-7.2-3-4.9-.8-10-1.3-14.9-.9-2.5.3-4.7,1.4-7,2.3-1.1.3-3.4,1.4-3.8-.4-.7-.3-.7-1.3-.1-1.7,0,0,0-.1-.1-.1-.2-.4,0-.9.3-1.1.1-.2.3-.5.6-.5,1.6-.5,3.3-1,4.9-1.6,1.5-.6,2.9-1.3,4.4-1.9.4-.1.8,0,1,.2.2,0,.3-.1.5-.2.2-.1.4-.1.6,0,1.4-.3,2.8-.7,4.2-1-.2-2.1,3.3-.8,4.5-.9,2.8.3,5.6.9,8.3,1.6.7.2,1.6.3,1.8,1.1.4.2.6.7.5,1.1,0,.1-.1.3-.2.4.8.3,1.9.1,2.2,1,.6.2,1.3.5,1.9.8.9.4.7,1.7-.2,1.9-.6.1-1.3,0-1.9,0,.1.1.2.2.3.4.7.3,1.8.7,1.4,1.7-.2.5-.8.7-1.3.5-.1.2-.4.3-.7.3h0Z"/>
      <path class="cls-6" d="m188.82,263.46c-.9-.1-1.2-1-1.6-1.7-.6-1,1-2,1.6-1,1.2-6.6-1.4-13.1-2.1-19.6-1.6-8-2.2-16.2-4.2-24.1-.5-1.2,1.4-1.9,1.8-.7,2.1,8.1,2.7,16.6,4.4,24.8.6,4.6,1.7,9,2.3,13.5.2,2.5,0,5-.5,7.4,0,1-.6,1.8-1.7,1.4h0Z"/>
      <path class="cls-6" d="m187.22,261.66c-.1-1.2-.7-2.2-1.2-3.3-.3-.8-.6-1.7-1.3-2.2-1.5-1.3-2.9-3-4.7-3.9-.4-.1-.6-.2-.9-.3-1.2,0-1.3-1.8-.1-1.9,1.2.1,2.5.6,3.4,1.4,1.5,1.4,3.3,2.7,4.5,4.3.8,1.7,1.9,3.5,2.1,5.4.2,1.1-1.5,1.6-1.8.5h0Z"/>
      <path class="cls-6" d="m179.92,251.96c-1.2-.3-.9-1.4-.2-2.1,1.7-2.3,2.3-5,3.8-7.5.7-1.2,1.3-2.4,1.8-3.7.2-.5.8-.7,1.3-.5s.7.8.5,1.3c-.6,1.7-1.6,3.2-2.5,4.9-1.2,2.4-2,5-3.7,7.1-.2.3-.6.5-1,.5h0Z"/>
      <path class="cls-6" d="m180.82,251.76c-1.1-.4-.5-1.6-.4-2.4.3-1.9.6-3.9.8-5.8.9-8.2-.2-16.4-1.4-24.4.1-.5.6-.9,1.1-.8,1.1.2.8,1.7,1.1,2.5.6,4.8,1.5,9.6,1.4,14.4,0,4.9-.3,9.9-1.2,14.7-.1.8-.3,2.1-1.4,1.8h0Z"/>
      <path class="cls-6" d="m187.92,259.76c-.1-.4-.2-.8-.2-1.3-.4.6-1.4.4-1.6-.3-.5-1.5-.9-3-1.5-4.4-.3-.2-.6-.5-1-.7-.9.2-1.3-.9-1.8-1.4-.7-.5-.6-1.5.2-1.8.1-.3.1-.5.3-.8,0-.1.1-.2.2-.2,0-4.5.2-9,.8-13.5-.3-3.2-.8-6.3-1-9.4-.1-1.7-.4-3.2-.8-4.8-.4-.6.1-1.6.8-1.5.5-.7,1.7-.4,1.8.5.2,1.2.4,2.5.5,3.7.7,4.5,1.4,8.9,1.8,13.4.3.1.5.4.6.7.9,3.5,1.4,7.2,1.6,10.8.9,1.2.6,2.9.9,4.3.5.7.3,1.6.4,2.4,0,1.4.1,2.8.1,4.2-.3,1.2-2,1.3-2.1.1h0Z"/>
      <path class="cls-6" d="m182.02,226.86c-1.8-2.2-4.5-3.5-6.6-5.3-1.2-.3-.8-2.1.4-1.9.5.1.9.5,1.3.8,2.1,1.5,4.5,2.8,6.1,4.9,1,.9-.3,2.3-1.2,1.5h0Z"/>
      <path class="cls-6" d="m201.02,277.46c-3.3-.2-6.6-1.3-9.8-2.2-2.6-1-5.3-1.7-7.3-3.6-.6-.5-1.1-1-1.7-1.5-.5-.7.1-1.7.9-1.5,1.1.5,1.8,1.7,2.8,2.3,3.6,2.2,7.8,3.2,11.9,4.2,5.2,1.5,10.1-.5,14.5-3.2.8-.5,1.5-.8,2.2-1.3,1-.7,2.1.8,1.1,1.6-4.3,2.6-9.1,5.6-14.6,5.2h0Z"/>
      <path class="cls-6" d="m198.42,281.86c-2.6-.5-5-1.2-7.5-2.1-1.1-.8-2.4-1.2-3.6-1.8-1.2-.8-3.9-2.3-2.5-4-.9-.5-1.7-2-.3-2.4.3-.1.6,0,.9.2.7,1.1,2.2,1.3,3.3,1.8,4.5,1.7,9.4,2.4,14.2,2.8,2,.1,3.9-1.3,5.9-1.1.8-.2,1.5-.8,2.3-.6.5.2.6.7.5,1.2-.4,1-1.6,1.4-2.4,1.9-3.1,2.3-6.8,4.3-10.8,4.1h0Zm1.3-1.9c.4,0,.7-.1,1-.2-.9,0-1.8,0-2.7-.1-.3,0-.6,0-.9-.1.3.1.7.2,1,.3h.4-.1c.5.1.9.1,1.3.1h0Z"/>
      <path class="cls-6" d="m198.62,280.96c-.5,0-1-.1-1.4-.3-.7-.4-.5-1.6.3-1.8.4-.9,2.3-1.1,2.7,0,1.4-.1,2.7-.5,4-.8,1.2-.3,1.7,1.6.4,1.9-.7.2-1.4.3-2.1.5-.3.4-.8.4-1.3.4-.9,0-1.8.1-2.6.1h0Z"/>
      <path class="cls-6" d="m175.72,271.56c-3.3-1-6.6-3-8.1-6.3-.7-2.7-1.9-5.7-1-8.4.4-1.1,2.1-.6,1.9.5-.7,2.3.4,4.7.8,6.9.8,2.1,2.8,3.5,4.7,4.6.7.4,1.5.6,2.3.8,1.1.5.6,2.3-.6,1.9h0Z"/>
      <path class="cls-6" d="m173.22,275.56c-.6,0-1-.5-1.3-1s-.5-1-.7-1.6c-2.4-2.7-4.7-6.3-5-9.9.1-.8,1.1-1.1,1.7-.5.1.1.2.3.2.4,0,1.2.6,2.3,1,3.4.8.6,1.5,1.2,2.1,1.9.8.2,1.1,1,1.6,1.5.4.4.7.8,1,1.2.4.5.1,1.4-.5,1.7.1.1.2.3.2.4.1.2.1.5.1.7,1,.5.5,1.9-.4,1.8h0Z"/>
      <path class="cls-6" d="m216.82,272.46c-.8-1.3,1.6-2.3,2.3-3.2,1.1-1.2,2-2.5,2.7-3.9.5-1.4.9-2.8.8-4.3-.1-1.2,1.7-1.5,1.9-.3q0-.1-.1-.2c.5,4.3-2.1,8.6-5.3,11.3-.7.6-1.6,1.6-2.3.6h0Z"/>
      <path class="cls-6" d="m218.22,274.26c-1-.5-.5-1.6.2-2.1-1-.8.1-1.7.7-2.4,1.2-1.4,2.2-3,3.2-4.6.3-.5.4-1.1.7-1.6.7-.9,2.1.1,1.6,1.1h0s0-.1.1-.1c-.1.2-.1.3-.2.5.5,1-.3,2.2-.5,3.2,0,1.9-3.7,6.8-5.8,6h0Z"/>
      <path class="cls-6" d="m197.22,294.46c-1.1-.7-1.4-2.2-2.1-3.2-.8-1.3-1.8-2.6-2.3-4-1.1-2.6-3-4.4-4.8-6.5-.8-.7.1-2,1.1-1.6,1,1,2,2.2,3,3.2,1.1,1.5,2,3.2,2.8,4.9,1,1.8,2.2,3.5,3.1,5.4,1.7-1,2.9-2.4,4.5-3.4,1.7-1.9,2.6-4.4,4.6-6.1,4.3-4.3,10.7-6.3,14.3-11.3.7-1,2.3,0,1.6,1-3.8,5.4-10.6,7.5-15.1,12.2-2.1,2.2-3,5.4-5.9,6.8-1.3,1.1-2.8,3.2-4.8,2.6h0Z"/>
      <path class="cls-6" d="m194.92,287.26c-6.1-3.8-13.6-4-19.9-7.5-5.9-3-9.8-9.9-8.8-16.5.3-1.3,2.3-.8,1.9.5-.6,4.1,1.3,8.2,3.8,11.3,2.3,2.2,5.2,3.8,8.2,4.8,4.6,1.8,9.7,2.4,14.1,4.8.8.5,2.4.9,1.9,2.1-.2.6-.8.8-1.2.5h0Z"/>
      <path class="cls-6" d="m197.92,292.46c-.9-1-1.6-2.3-2.4-3.5-.5-1-1.4-2.2-1.2-3.3-.2-.1-.3-.2-.5-.3h.1c-.8-.6-2.8-1.3-1.9-2.6-.1,0-.2-.1-.3-.1-.3.3-.8.3-1.1.2-.9-.1-1.8-.2-2.7-.4-3.5-.7-7.1-1.5-10.3-3.2-.9-.8.3-2.2,1.2-1.5,2.1.9,4.4,1.7,6.6,2.2.2-.5.7-.7,1.1-.6,2.4.5,5.3.7,7.2,2.4h0c2.1.7,4.3.9,6.5.9,1.4-.4,2.9-1.5,4.3-1q.1-.1.2-.2c.3-.3.7-.4,1-.3.5-.4,1.1-1.2,1.8-.8,1-.7,2-1.5,3-2.2.3-.2.6-.5,1-.7.6-.3,1.4,0,1.5.7.1.8-.8,1.2-1.3,1.6-2.9,2.3-5.8,4.7-7.9,7.8,0,.5-.4.9-.7,1.3-.8,1-1.8,1.8-2.8,2.6-.6.7-1.5,1.6-2.4,1h0Z"/>
      <path class="cls-6" d="m196.92,342.66c-1.7-.2-9.7-.1-9.4-2.3.5-1.6,2.4-.6,3.5-.3,2.6.5,5.3.8,7.9.7.6,0,1.3-.2,1.9.1.7.3.7,1.4,0,1.7-1.2.2-2.6.1-3.9.1h0Z"/>
      <path class="cls-8" d="m75.72,280.96v.2c-.1.6-.2,1.3-.3,1.9,0,.2-.1.4-.1.5,0,.2-.1.4-.1.7v.3c-.8.9-1.7,1.6-2.8,2.1h-.1c-10.2-1.8-14-16.4-13-25.9,0,.1.1.1.1.2.1.1.2.2.2.4.6,1.5,1,3.2,1.5,4.8.3,1.2.7,2.4,1.1,3.5.2.5.4.9.6,1.3.3.8.7,1.5,1.2,2.2.2.3.4.5.6.8.4.6.9,1.1,1.4,1.6,2,2.2,4.5,3.9,7.2,5.3h.1c.4.2.7.3,1.1.5.2.1.5.2.7.1q.1,0,.2-.1c.1-.1.3-.2.4-.3q.1-.1,0,0c-.2,0-.1,0,0-.1h0Z"/>
      <path class="cls-8" d="m82.92,244.56c0,.5-.1,1.1-.2,1.6.3.4.1,1-.2,1.6-.5,4.6-1,9.3-1.8,13.9-1,5-2.3,9.8-3.5,14.8,0,0-.1,0-.1.1.7-3.6,1.4-7.2,2-10.9,1-3.8,1.6-7.7,2-11.6h0c.4-1.9.8-3.9,1.1-5.8-.2.2-.4.5-.6.6,0-.3.1-.7.1-1-.2-.7-.5-1-1-1,.2-.5.4-1.1,1.1-1.1.3,0,.6.2.7.3.3-.5.3-1,.4-1.5h0Z"/>
      <path class="cls-6" d="m81.92,247.76c0,.3-.1.7-.1,1-.2,1.7-.4,3.5-.6,5.2h0c-.5,3.9-1,7.8-2,11.6v.1c-1.1,4-2.1,8.1-2.9,12.2-.1.8-.3,1.6-.4,2.4,0,.2-.1.4-.2.6-.1.1-.1.2-.2.2s-.1,0,0,0c-.1.1-.2.2-.4.3q-.1,0-.2.1c-.2,0-.4,0-.7-.1-.4-.2-.7-.3-1.1-.5h-.1c-2.7-1.3-5.1-3.1-7.2-5.3-.5-.5-1-1.1-1.4-1.6-.2-.3-.4-.5-.6-.8-.4-.7-.8-1.5-1.2-2.2-.2-.4-.4-.9-.6-1.3-.4-1.2-.8-2.3-1.1-3.5-.5-1.6-.9-3.2-1.5-4.8-.1-.1-.2-.2-.2-.4,0-.1-.1-.1-.1-.2-4.8-7.2-9.5-14.7-10-23.5v-.8c.3-.4.6-.7.9-1,.7-.4,1.8-.8,2.5-.3,1.2.9,2.3,1.9,3.2,3.2.8.9,1.7,1.5,2.5,2.5,1,1,1.8,2.2,3.2,2.8,2.7.3,3.9-3.2,5.3-5,2-3.4,3-7.2,2.8-11.1.1.3.2.6.3.8,1.3,3.4,2.1,6.9,3.5,10.2,1,3.2,1.9,6.9,4.7,9.1h0c.9,0,2-.7,2.9-.7.4-.1.8.1,1,.8h0Z"/>
      <path class="cls-6" d="m62.02,259.16c.5,0,1,.5.9,1,0,.5-.5.9-1,.9-.3,0-.5-.2-.7-.4,0,0,0-.1-.1-.1-.1-.2-.1-.3-.1-.5s.1-.4.2-.6c0,0,0-.1.1-.1.2,0,.4-.1.7-.2h0Z"/>
      <path class="cls-6" d="m76.22,281.26c.7.4.7,1.6-.2,1.8h-.7c-1.9-.1-3.9-.3-5.7-1.1-2.1-1.1-4-2.7-5.6-4.4h0c-.2-.2-.4-.5-.6-.7-3.1-4.7-4-10.4-4.1-15.9h0v-1.1h0c0-1.1,0-2.2.1-3.2.1-1.2,2-1.2,1.9.1,0,.6-.1,1.2-.1,1.8v1.6h0v.7c0,3.4.4,6.9,1.5,10.2h0c.5,1.7,1.3,3.3,2.3,4.8,1.5,1.6,3.2,3,5,4.2,1,.5,2,.8,3.1,1h0c.8.1,1.6.2,2.4.2h.4c0-.1.2,0,.3,0h0Z"/>
      <path class="cls-6" d="m73.52,281.86c-1-.8-2.4-1-3.5-1.8-2.7-1.6-5-3.9-6.6-6.6-.5-1.1-2.4-3.9-.4-4.4.6-.1,1.1.5,1.1,1.1,1.4,4.5,5.3,8,9.6,9.6.8.4,1.8,1,1.2,1.9-.4.4-1,.5-1.4.2h0Z"/>
      <path class="cls-6" d="m75.72,284.96c.1.4,0,.8-.2,1-.7.7-2.4.9-3.2.7h-.1c-10.2-1.8-14-16.4-13-25.9,0-.3.1-.6.1-.9h0c.1-.4.1-.7.2-1.1.2-.9,1.4-1,1.8-.3.1.2.1.4.1.6,0,.1-.1.3-.1.4,0,.2-.1.4-.1.6h0c0,.2,0,.4-.1.6,0,.2,0,.5-.1.7-.2,1.4-.2,3-.1,4.7.2,3,.9,6.4,2.1,9.4.3.7.6,1.4.9,2h0c2,3.9,4.9,6.9,9,7.3.6,0,1.4-.6,2-.5h0c.4.2.6.3.8.7h0Z"/>
      <path class="cls-6" d="m72.32,285.56c-1.1-.6-2.2-1.2-3.1-2-.7.1-1.2-.5-1.7-.9-1.3.3-1.7-1.5-2.4-2.3-.5-.9-1.6-1.7-1.6-2.8-.6-.8-1.2-2.2.3-2.4-.3-1.6,1.9-1.9,2-.3-.1,2.6,1.7,4.5,3.4,6.1.9-.4,1.4.5,2,1,.1-.1.2-.1.3-.2.2-.1.3-.1.5-.1,0-.6.7-1.1,1.2-.9.3-1,1.9-.8,1.9.3-.2,1.1.8,3.5-.9,3.7-.1.1-.2.2-.3.2-.1.1-.3.1-.4.1-.2.5-.7.7-1.2.5h0Z"/>
      <path class="cls-6" d="m284.82,259.56c.3.2.5.5.4,1h0v.1c0,.2,0,.4-.1.6,0,.4-.1.8-.1,1.2,0,.5-.1.9-.2,1.4-.1,1.1-.3,2.2-.5,3.3-.1.7-.2,1.4-.3,2.1-.1.4-.1.8-.2,1.3-.4,2.9-.8,5.8-.9,8.7-.1,2.5-.5,4.8-.9,7.2l-.1.9c0,.2,0,.3-.1.5-.1.6,0,1.5-.4,2-.1.2-.4.4-.7.4h-.1c-.1,0-.3-.1-.4-.1-1-.5-.2-2.2-.2-3.1.6-3,1-6,1.1-9.1.1-2,.3-4,.5-5.9.1-.7.2-1.4.3-2.1h0v-.1c.2-1.1.3-2.3.5-3.4s.3-2.2.5-3.3c0-.4.1-.7.1-1.1.1-.6.1-1.1.2-1.7.3-1,1.1-1.2,1.6-.8h0Z"/>
      <path class="cls-6" d="m297.52,250.86v.2c0,2.9-.5,5.7-1.3,8.5,0,.1,0,.2-.1.3-.2.6-.4,1.2-.5,1.8v.1c-.9,2.8-2,5.5-3,8.1-.7,1.4-1.5,2.8-2.7,3.8-.3.6-.4,1.3-.6,2-.2.7-.4,1.4-.7,2.2-.9,2.2-2.1,4.2-3.1,6.3-.8,1.6-1.5,3.2-2.4,4.7-.2.3-.3.5-.5.8-.3.5-.8,1-1.4,1-.2,0-.4-.1-.6-.3-.1-.1-.1-.2-.2-.3-.2-.5,0-1.3.6-1.5.3-.4.5-.8.8-1.3.2-.3.3-.6.5-.9.5-1.1,1-2.2,1.5-3.2,1.7-3.2,3.4-6.3,4.1-9.8.1-.6.4-1.1.9-1.4.9-.8,1.5-1.9,2-2.9.9-2.2,1.7-4.4,2.5-6.7.2-.5.4-1.1.5-1.6.1-.3.2-.6.3-1,.1-.2.1-.5.2-.8.1-.3.2-.6.2-.9.5-1.8.8-3.5,1-5.3,0-.3,0-.7.1-1h0v-1c0-.5.3-.8.6-1,.1,0,.3-.1.4,0h.1c.2.2.4.3.6.5q.1.4.2.6h0Z"/>
      <path class="cls-6" d="m296.62,250.06c.3.4.6.9.6,1.4,0,.3-.2.5-.4.7-.2.1-.4.2-.6.2h-.2c-.1,0-.2-.1-.3-.1s-.1-.1-.2-.1h0q-.1-.1-.2-.2c-.8,3-1.9,6-3.4,8.7,0,.1-.1.1-.1.2-.1.2-.2.4-.3.5h0c-.4.8-.8,1.7-1.3,2.5-.6,1.1-1.4,1.9-2.6,2h-.5c-.4,0-.8-.1-1.1-.3-.5-.4-.8-1.1-1.2-1.7-.2-.3-.3-.6-.5-.8-.1-.1-.2-.2-.3-.3-.7-.9.4-1.9,1.2-1.5.1.1.2.1.3.2h0c.4.3.6.7.9,1.1,0,.1.1.2.2.3.1.2.2.3.3.5s.2.4.4.6c.1,0,.2-.1.3-.1.6-.2,1-.8,1.4-1.5.2-.3.3-.6.5-.9h0v-.1c.4-.5.7-1.2,1-1.8q.2-.4,0,0c.8-1.3,1.4-2.7,1.8-4.1.9-1.8,1.5-3.7,2-5.7,0-.2.1-.4.1-.5l.1-.2c.6-.6,1.4-.1,1.8.5.1.1.2.2.4.4h0c-.2,0-.1,0-.1.1h0Z"/>
      <path class="cls-6" d="m280.92,286.76c-.3-1.3.4-2.7.6-3.9.9-4.1,1.3-8.2,1.9-12.3.5-2.5.3-5.2.9-7.6.4-.7,1.4-.6,1.7,0,1.3-.5,1.6.9,1.3,1.8.1.2.1.3.1.5s-.1.5-.1.7h.1c.2-.3.3-.7.6-1,.2-.2.4-.3.6-.4.5-1,.6-2.5,1.8-3,1.3-2,2.2-4.3,2.9-6.5.4-1.3.3-2.8,1.1-3.8.5-.5,1.5-.3,1.6.4.1,1.1-.5,2.2-.7,3.3-.9,3.7-1.5,7.4-2.7,11-.7,1.9-1.9,3.4-3,5-.8,2.1-1.7,4.2-2.7,6.3-.8,1.5-3.8,12.8-6,9.5h0Z"/>
      <path class="cls-6" d="m147.62,245.86c-6.7,0-13.2-2.7-17.6-7.7-.9-1-4.3-4-3-5.3.6-.5,1.4-.1,1.6.6.5.9,1.3,1.8,2,2.6,3.8,4.3,8.9,7.7,14.8,7.8,4.5.8,8.9-1,12.4-3.7.4-.3,1-.3,1.4.1.9,1.2-.9,1.7-1.6,2.3-2.8,2.1-6.5,3.1-10,3.3h0Z"/>
      <path class="cls-6" d="m148.22,244.66c-4.6-.5-9-1.7-13.1-3.9-.8-.4-1.4-.9-2.2-1.2-.2-.2-.4-.4-.4-.6-.1-.5.3-1,.8-1.1.8-.1,1.6.7,2.3,1,4.9,2.6,10.8,4.8,16.4,3.4.5-.1,1,.3,1.1.8s-.3,1-.8,1.1c-1.4.3-2.7.6-4.1.5h0Z"/>
      <path class="cls-6" d="m165.62,236.56c-.9-1.2,1-1.9,1.7-2.8,1.7-1.6,2.9-3.7,3.7-5.8.2-.3.2-.8.4-1.1.6-.9,2.1-.1,1.7.9-.9,2.8-2.3,5.4-4.5,7.4-.8.7-1.9,2.4-3,1.4h0Z"/>
      <path class="cls-6" d="m239.42,249.16c-6.8-1-10-8.2-12.9-13.6-.9-1.5-1.6-3.1-2-4.8-.3-.7-.6-1.9.5-2.1.5-.1,1,.3,1.1.8.8,3.3,2.6,6.2,4.1,9.2,2.5,4.3,6,9.6,11.7,8.7,9.7-1.1,14.2-7.2,16.3-16.2.1-.5.6-.8,1.2-.7.5.1.9.7.7,1.2-.5,1.9-1.1,3.8-1.8,5.7-1.4,3.4-3.6,6.5-6.6,8.7-3.7,2-8,3.4-12.3,3.1h0Z"/>
      <path class="cls-6" d="m242.52,248.06c-4.8.3-7.9-2.4-10.6-6-.8-1-1.5-2.1-2.4-3.1-.6-.6-1.3-1.2-1.5-2-.2-.5.1-1,.6-1.2.9-.3,1.1.5,1.5,1.1,3.1,3,5.1,7.8,9.5,9,4.5,1,9.3-.7,12.9-3.5,2.3-2.2,3.4-5.2,4.8-7.9.5-1.1,2.2-.5,1.8.7-.6,1.1-1.1,2.2-1.5,3.4-1,1.5-1.8,3-2.9,4.3-3.1,3.3-7.8,5.1-12.2,5.2h0Z"/>
      <path class="cls-6" d="m238.52,246.66c-1.4-.5-2.7-1.3-4.1-1.8-.4-.1-.7-.4-.8-.8-.1-1,1-1.4,1.8-.9,5.4,3.1,9,1.7,14.4-.2,1.7-.6,3.1-1.9,4.2-3.3.4-.9,1-1.7,1.6-2.5.5-.7.9-2.1,1.9-1.5,1.4,1-.7,2.8-1.3,3.9-1.3,2.7-3.8,4.7-6.6,5.6-3.5,1.1-7.4,2.6-11.1,1.5h0Z"/>
      <path class="cls-6" d="m145.82,261.66c-8.5-.5-18-3.8-24.2-9.7-.4-.5-.8-.5-1.3-.8-.9-.8.2-2.2,1.2-1.5,1.5.7,2.5,2.1,3.8,3,13.4,9,30.1,10.2,42.8-.7,4.2-3.1,7.8-7.1,10.7-11.3,1.2-1.8,2.4-3.6,3.3-5.5.5-1.1,2.3-.4,1.8.8-7.3,13.8-21.5,26.7-38.1,25.7h0Z"/>
      <path class="cls-6" d="m142.92,259.26c-3.7-.2-7.4-.6-11-1.3-1.2-.4-.7-2.2.5-1.8,4.3.8,8.7,1.4,13.2,1.2,4.4-.2,8.9-.6,13.1-2.2,7.8-3.5,14.7-8.9,20.4-15.3,1-1.3,2-2.7,3-4,.3-.4,1-.5,1.4-.1.4.3.5,1,.1,1.4-1.1,1.3-2,2.6-3,3.9-6,6.8-13.4,12.5-21.8,16.1-5.1,1.7-10.5,2-15.9,2.1h0Z"/>
      <path class="cls-6" d="m147.72,260.46c-1.5-.2-9.8.5-8.8-2,.5-1.2,2.1-.1,3.3-.1,5,.5,10,.1,14.7-1.6,4.1-1.3,8.3-3,11.8-5.7,1.9-1.7,3.9-3.4,6-5,.4-.3,1-.3,1.4.1.3.4.4,1-.1,1.4-3.4,2.7-6.4,6-10.4,7.8-5.6,2.7-11.8,4.8-17.9,5.1h0Z"/>
      <path class="cls-8" d="m78.02,247.56s-.1,0,0,0c-2.8-2.2-3.7-5.8-4.7-9.1-1.4-3.3-2.2-6.8-3.5-10.2-.1-.3-.2-.5-.3-.8.2,3.8-.8,7.7-2.8,11.1-1.3,1.8-2.6,5.3-5.3,5-1.4-.5-2.2-1.7-3.2-2.8-.7-.9-1.7-1.6-2.5-2.5-.9-1.3-2-2.3-3.2-3.2-.7-.5-1.8-.2-2.5.3-.4.3-.7.6-.9,1v.8c.6,8.8,5.3,16.3,10,23.5-1,9.5,2.8,24.2,13,25.9h.1c-1.6.8-3.5,1.2-5.2,1.2-5.7-1.4-7.3-7.8-9.2-12.6-1.5-3.8-1.5-7.9-2.1-11.8-1.2-4-4-7.2-5.8-11-2-3.6-4.6-6.8-5.5-10.9-1-5-.7-10.5.5-15.5,1.7-5,5.7-9.2,11.1-9.8,3.1-.2,6.2.9,9.1,2,.2.1.3.2.5.3.3.1.7.3.9.5.6.5,1.1,1.1,1.4,1.8.2.4.4.9.6,1.4.2.6.4,1.2.5,1.8.3,1,.4,2.1.5,3.2,1.3,3.5,2.8,6.9,3.8,10.5.6,1.9,1.8,3.4,2.6,5.2.7,1.7,1,3.4,2.1,4.7h0Z"/>
      <path class="cls-8" d="m72.62,253.36c-1.2-.1-.8-1.5-.8-2.2,0-4.2-.6-8.4-1-12.6-.4-2.9-.6-6-1.8-8.7-1.1-.6-.2-2.4.9-1.8.7.4,1,1.3,1.3,2,1.7,5,1.6,10.3,2.3,15.5.1,1.8.3,3.6.2,5.4,0,.9.2,2.4-1.1,2.4h0Z"/>
      <path class="cls-8" d="m70.62,252.06c-1.8-1.5-3-3.6-4.9-5-1.8-1.5-3.4-3.3-5-4.9-.5-.3-.6-1-.3-1.4,1.3-1.5,3.1,1.9,4.1,2.7,2.8,2.3,5.4,4.9,7.7,7.7.3.8-.9,1.5-1.6.9Z"/>
      <path class="cls-8" d="m70.92,251.56c-.7-.4-.6-1.3-.8-2-.3-.1-.5-.4-.6-.7h0c-.1,0-.2-.1-.3-.2-.2-.2-.3-.5-.4-.8-.9-.3-1.4-1.3-2.2-1.9-.8.6-1.5-.3-1.8-.8-.8-1.2-1.9-2.4-2.2-3.9-.1-1.1,1.3-1.3,1.9-.5-.1-1-.7-2.1-.3-3.1.4-.5,1.2-.5,1.6-.1-.3-1.2.4-3.2,1.7-2v-.6c0-.4.3-.7.6-.8v-.2c0-.2.1-.5.3-.6-.1-.9-.5-2.4.6-2.9.5-.2,1,.1,1.2.6.5,2.4,1.3,4.8,1.6,7.3.2.6.1,1.4-.7,1.6.3,2.8.3,5.6,1,8.4.1.8.7,1.9.1,2.6,0,.5-.7.9-1.3.6Z"/>
      <path class="cls-8" d="m79.32,259.56c-.8-.1-1.3-.9-1.9-1.4-1.2-1.4-2.7-2.7-3.9-4.1-.6-.8-2.1-1.3-1.8-2.5.2-.5.8-.8,1.3-.6-.5-.8-1.6-1.9-.5-2.7-.5-1-1.1-2.8.2-3.5-.2-.8-1-2.3-.2-3-.6-1.2-.8-2.6-1.4-3.8-.4-.7.3-1.6,1.1-1.4.9.3,1,1.5,1.3,2.2.8,2.7,2.4,5.1,3.7,7.5,1-.4,1.5.6,1.4,1.4h0c.8-.6,2-2.1,3.1-1.3.5.4.3,1.1.2,1.6-.1,1-.2,2.1-.3,3.1-.2,1.6-.5,3.3-.8,4.8-.3,1.5.1,3.7-1.5,3.7h0Z"/>
      <path class="cls-8" d="m281.52,271.56c-.4-1.4,1.2-2.4,2-3.4,2.2-2.7,4.9-4.9,7.7-6.7,1.2-.6,2.2-1.5,3.5-1.7.6-.1,1.1,0,1.6.2,1.2.3.8,2.1-.4,1.9-1.1-.5-2.2.4-3.2.9-2.8,1.7-5.4,3.8-7.5,6.3-.6.8-1.5,1.5-2,2.4-.2.8-1.4.9-1.7.1h0Z"/>
      <path class="cls-8" d="m295.52,261.66c-2-.5.4-5.1.4-6.6.1-.8.6-1.7.3-2.5-.4-.6-.7-.8-1.1-1.4-1.2-.4-.6-2.2.6-1.8.9.3,1.4,1.2,1.9,1.9.9.9.6,2.2.3,3.2-.2,1.3-.5,2.6-.8,3.9-.2.7-.4,1.4-.5,2.1.3.7-.4,1.3-1.1,1.2h0Z"/>
      <path class="cls-8" d="m282.22,270.06c-.3-.3-.3-.8-.2-1.2.3-1.3.7-2.6.8-4,.4-1.2-.1-4.7,1.7-4.7.8.1,1,.9,1,1.5.3.6.8,1.1,1.3,1.6.8.3,1.6-.6,2.2-1.1,3.4-3.1,4-8.1,5.4-12.2.1-.4.6-.7,1-.7.5,0,.9.5.9,1-.6,2.1-1.2,4.2-2,6.3-1.1,3.5-3,7.4-6.8,8.6.3.8-.6,1.5-1.3,1.2-.1.6-.8,1.1-1.4.8-.6,1.2-.8,4.3-2.6,2.9h0Z"/>
      <path class="cls-8" d="m293.02,260.76c-.5.2-1.1-.1-1.2-.6-.2-1.1.8-1.9,1.2-2.8.8-1.5,1.6-3.2,1.9-4.9,0-.3.1-.7.4-.9.5-.4,1.3-.2,1.5.4.1.9-.2,1.8-.2,2.8-.2,1.9-.3,4.3-2,5.5-.4.5-1,1-1.6.5h0Z"/>
      <path class="cls-8" d="m287.12,284.16c-.5-.2-.7-.8-.5-1.3.6-1.8,1.4-3.6,2-5.4.7-1.5.4-3.2,1.2-4.3,2.7-4.3,5-9.2,4.4-14.4.2-.8,1.5-.9,1.8-.1,1.1,5.6-1.9,11.3-4.8,15.9-.2,2.4-1.1,4.6-2,6.9-.5.9-.5,3.2-2.1,2.7h0Z"/>
      <path class="cls-8" d="m56.32,261.16c-3.1-5.7-5.7-11.9-6.2-18.4-1-5.1-.8-10.6,1.3-15.4.6-1,2.2-.1,1.7,1-3.4,8.6-.7,21.2,3.5,29.1.3,1.2,2.4,3.2,1,4.1-.4.2-1,0-1.3-.4Z"/>
      <path class="cls-8" d="m50.02,247.76c-1.1-4.5-1.3-9.1-1.1-13.7.2-1.1-.4-3.7,1.4-3.4,1.4.5.7,2.2.7,3.2-.6,4.1.4,8.1.8,12.2.1.5.1,1,.1,1.5-.2,1-1.6,1.1-1.9.2h0Z"/>
      <path class="cls-4" d="m201.12,265.26c-5.7-4.1-4.8-26.2-4.1-33,.5-2.6.2-11.9,3.3-12.2,2.7-.4,2.9,8.2,3.4,10.2,1,6.5.9,13.1.8,19.6-.4,2.6.5,16.3-3.4,15.4h0Zm.3-2.3c1.3-5.2.9-10.6,1.1-16,.1-8.2-.1-16.7-2.3-24.6-2.1,10.9-3.4,30.6,1.2,40.6h0Z"/>
      <path class="cls-4" d="m200.52,262.66c-2.1-1-1.1-4-1.3-5.9-.3-.3-.4-.7-.4-1.1-.2-1.8-.4-3.7-.5-5.6-.3-4.4-.7-8.8-.3-13.2.3-3.5.4-6.9.9-10.4.1-.6.2-1.3.7-1.8.1-1.1-.6-3.2,1-3.3.5,0,.9.5.9,1-.2,1.8.1,3.4,1.1,4.9.7,1.8.6,3.8.7,5.6-.1,6.5,0,13-.4,19.5-.1,2.7-.2,5.3-.4,8-.1,1.3-.6,2.7-2,2.3h0Z"/>
      <path class="cls-6" d="m193.12,332.36c0-.2,0-.4.1-.6-1.5,0-3-.1-4.6-.2-2-.2-4-.7-6-1.3-.8-.2-1.5-.3-2.3-.5,2,.6,4.1,1.2,6.1,1.7,2.2.4,4.4.7,6.7.9h0Zm35-13.2c1.7-2.3,3.4-4.6,5.3-6.8-2.2,1.8-4.3,3.8-5.8,6.1-2.6,3.6-4.8,8-9.2,9.7-.1.1-.2.1-.4.2-1,.6-2,1.2-3.1,1.7,0,.4-.4.8-.8.8-.6.1-1.2.2-1.9.4-.4.2-.9.4-1.3.5-.1.1-.2.1-.3.2.4-.1.8-.2,1.1-.3,1.5-.5,3.1-.9,4.7-1.4.5-.2.9-.4,1.4-.6,1.2-.9,2.4-1.8,3.5-2.8.1-.1.2-.3.4-.4h0c.2-.3.5-.6.8-.8.3-.2.6-.2.9-.1,1.5-2.1,3.1-4.2,4.7-6.4h0Zm8.8-9.3c.9,1-.4,1.8-1,2.5-4.3,4.5-7.3,10-11.5,14.7-6.6,8.2-16.2,12.6-26.8,11.9-6,0-11.8-1.9-17.1-4.6-3.7-2-7.5-3.7-10.9-6.2-8-6.2-16.2-12.7-20.9-21.9-.4-.7-.8-1.7-.1-2.4.7-.7,1.9.1,1.6,1.1,1.9,3.8,4.5,7.2,7.4,10.3,2.2,2.4,4.7,4.6,7.2,6.6,3.1,2.8,6.5,5.2,10.1,7.3h0c.1-.3.4-.6.7-.7-.2-.1-.4-.2-.6-.3-6.5-2.2-10.9-7.7-15.9-12.1-1.4-1.3-2.7-2.8-3.8-4.3-.8-.9-1.5-1.9-2.2-2.9-.2-.3-.4-.6-.7-1-.4-.6-.8-1.2-1-1.7-.2-.6-.1-1.1.7-1.4.2-.1.3-.1.5,0,.3-.4.7-.7,1.2-.5.1,0,.2,0,.3-.1,2.4-.6,4.7-1.5,7-2.1,2-.1,3.9-.5,5.9-.8.2,0,.4-.1.6-.1h.6c1.5-.1,2.9-.1,4.3-.3,2.5-.7,5-1.6,7.4-2.5,2.5-1.2,5.2-3.4,8-3.7.2-.5.8-.7,1.3-.8,1.2-.3,4,1.3,3.3,2.6,1.4,1.6,2.8,3.1,4.5,4.4.3.2.6.5,1,.7h.1c.4-.2.7-.4,1-.7.5-.3.9-.7,1.4-1.1,1.7-1.7,3.5-3.3,5.6-4.5,1.4-1,2.9-1.8,4.6-1.3,3.3.9,5.9,3.1,8.6,5.2h0c.8.7,1.6,1.3,2.4,1.9,3,2.7,6.6,4.2,10.2,5.7.7.4,1.4.7,2.1,1.1.4.2.9.4,1.4.6.6.2.7.7.6,1.1h.2c.5.1.6.2.7.3h0Z"/>
      <path class="cls-6" d="m229.62,215.46c.2-.1.4-.2.5-.3-.1,0-.1.1-.2.1-1.9,1-3.7,2-5.5,3.2h0l.1-.1h0c.1-.1.1-.2.2-.3l.1-.1c.2-.2.4-.3.6-.5.1,0,.1-.1.2-.1,0,0,.1,0,.1-.1.1,0,.1-.1.2-.1.1-.1.2-.1.4-.2,0,0,.1,0,.1-.1h0c.1,0,.2-.1.3-.1.3-.1.6-.3.9-.4.1,0,.3-.1.4-.2.2-.1.4-.2.5-.3s.4-.2.5-.3.4,0,.6-.1h0Z"/>
      <path class="cls-2" d="m172.52,218.86c-.4.2-.6.6-.7,1.1-2.1,4-4.8,7.8-8.2,10.7-1.5,1.1-2.9,2.3-4.4,3.4q-.1.1-.2.2c-2.4,1.1-5,1.8-7.6,2-3.9.1-7.9-1-11.3-3h0c-.2-.4-.6-.6-1-.6-1.8-1.2-3.5-2.5-4.9-4-1.2-1.7-2.9-2.9-4.3-4.4-.8-1.2-1.4-2.4-2.4-3.5h0c.3-.4.7-.8,1-1.2.9-.7,1.8-1.4,2.8-2.1,2.9-2.2,6-3.9,9.5-4.9h0c2.2-.1,4.3-1,6.6-1.2,1.3-.2,2.5-.2,3.9-.3,2.1-.1,4.3.4,6.4.8h.1c4.9,1.6,10.7,4.4,14.7,7h0Z"/>
      <path class="cls-10" d="m77.82,220.86c1.2.1,1.1,2-.2,1.9h0c-.2,0-.4-.1-.5-.1-2.4-.5-4.8-1.4-7-2.1h0c-.8-.3-1.8-.3-2.6-.8h0c-.1-.1-.3-.2-.4-.3-.8-1.1,1.2-2.2,1.9-1.1,2.8.6,5.7,1.9,8.8,2.5h0q-.1,0,0,0h0Z"/>
      <path class="cls-10" d="m86.82,223.36c.8.3.9,1.4.7,2.5-.1.5-.2.9-.4,1.3s-.5.8-.7,1c-.3.3-.8.6-1.4.7-.2,0-.4.1-.6.1s-.3,0-.5-.1c-.3-.1-.6-.4-.6-.8.1-1,.7-1,1.3-1.1.6-.2,1.1-.5,1-1.9-2.7-.8-5.4-1.4-8.1-2.2h0c-.2,0-.4,0-.5-.1-.4-.2-.6-.7-.5-1.2.2-.6.7-.7,1.2-.6.3,0,.6.1.8.2,2.8.7,5.6,1.3,8.3,2.2h0Z"/>
      <path class="cls-10" d="m84.62,226.86c.6.5.7,1.4-.5,1.7-.1.1-.1.2-.2.3-.5.9-.1,2.4-.1,3.3v.5c0,1.5-.2,3.1-.1,4.6,0,.5-.1,1.1-.2,1.6-.3,2-.9,3.9-1.5,5.7-.1.5-.3,1-.6,1.4h0c-.1.2-.2.3-.3.4h0c-.1.2-.3.3-.5.4-.4.3-.8.5-1.3.4h-.1c-.1,0-.3,0-.4-.1-.1,0-.3-.1-.4-.2-.4-.2-.8-.4-1.1-.6h0c-.2-.1-.3-.3-.4-.4-.4-.4-.6-.9-.8-1.4-.2-.6-.3-1.3-.5-2-.1-.4-.1-.8-.2-1.2-.9-2.1-2-4.2-2.8-6.4-.3-1.2-.5-2.3-1-3.4-.1-.2-.2-.5-.4-.8-.1-.5-.3-1.1-.5-1.7-.6-1.8-1.2-3.6-1.9-5.4-.4-1-.5-2.1-1-2.9-.2-.3-.4-.7-.6-1h0c-.2-.5-.2-.9.3-1.2.4-.3,1-.2,1.3.3.4.6.7,1.2.9,1.8.7,1.7,1,3.5,1.8,5.2.8,2.9,2.1,5.6,2.7,8.6.8,2.6,2.5,4.8,3,7.5.2,1.5.3,3.1,2,3.5,1.1-1.4,1.2-3.5,1.8-5.2.7-2.4.4-4.7.6-7.2.1-2-.8-4.6,1.1-6,.8-.5,1.5-.4,1.9-.1h0Z"/>
      <path class="cls-7" d="m201.82,94.56h0c-1.3-2.3-3.5-3.9-5.6-5.4-4.6-3-9.5-5.5-14.9-6.5-13.6-2.5-22.1,4.3-26.7,16.8-.9,1.9-1.8,3.9-2.5,5.9.5-.3.9-.5,1.1-.7,5.3-3.8,12.5-5.2,17.5-.1.3,0,.7-.1.9-.2,6.4-1.5,12.5-3.6,18.7-5.9,3.8-1.3,7.8-2.3,11.5-3.9h0Zm106.1,87.9c.1,1.9-2.1,2.6-3.6,1.9-.8-.5-1.6-.8-2.4-.6v.1c.1,1.8.2,3.5,0,5.3-.5,4.8-.6,9.6-.6,14.4.6-.1,1.3.2,1.2,1,.1,7.2-.5,14.5-1.2,21.7-.4,6.4-.6,12.8-1.7,19.1,0,.6,0,1.2-.4,1.5v.2c0,1.3.1,4.1-1.9,3.5h0c-.2-.1-.4-.3-.6-.5-.1-.1-.2-.2-.3-.3-.3-.4-.5-.9-.7-1.3h0c-.1-.3-.3-.6-.5-.9-.2-.3-.2-.6-.3-.9-.2.6-.5,1.2-.5,1.6,0,.2-.1.3-.1.5s-.1.4-.1.6-.1.4-.1.5c-.5,2-1.1,3.9-2,5.7-.1.3-.3.5-.4.8-.3.6-.7,2-1.3,3,0,.1,0,.2-.1.2q0,.1,0,0c-.2.7-.6,1.3-1,1.8-.3.3-.6.6-1,.7,0,.2,0,.4-.1.6-.2.5-.8.7-1.4.3,0-.1-.1-.1-.1-.2-.4-.4-.5-1.2-.3-1.7-1.4-1.6-1.6-4.3-2.2-6.2-.1-.3-.1-.5-.2-.8-.3-1.2-.4-2.5-.5-3.7-.3-3.3,0-6.6,0-9.9.1-2.5.3-5.1.3-7.5.1-.8-.1-1.7.1-2.4-.2-.5.2-1.2.8-1.3.6-.7,2.1-.2,3-.4.6-.2,1.2.1,1.4.5.1-.2.2-.4.3-.6.3-2.5,1.4-5,1.3-7.5-1.6-.7-3.3-1-5-1.6-.5,0-.9-.3-1-.8,0-.3,0-.5.2-.7.1-7,.8-13.9,1.2-20.9.2-2.3.5-4.7.5-7-.3-.1-.5-.4-.5-.8,0-5.4.8-10.7.2-16.1-.5-4.5-1.2-9.1-2.2-13.5-.3-.1-.5-.3-.6-.8-.7-8.2-3.6-16-6.1-23.8-1.2-3.7-2.3-7.5-3.8-11-.5-1.5-1.7-3.8-2.1-5.3h0c-6.8-8.2-19.6-15.9-28.8-19.9-.3,0-.6-.1-.7-.3-3.9-1.2-8-2.2-12-2.9-3.7-.4-7.4-.5-11.1-.6h-11.5c-.5,0-.9.1-1.4.1h-.5c-.2,0-.5.1-.7.1-.5.1-.9.1-1.4.2-.4.1-.8.2-1.2.2-10.4,3.8-20.8,8-31.6,9.9-.5.1-1,.2-1.4.2h-.1c-.5,0-.8-.5-.9-.9h0c0-.2.1-.5.2-.7-1.9-1.7-4.5-1.8-7.1-1.3-3.1.7-6.2,2.3-8.3,3.6-.8.6-1.5,1.3-2.3,2q-.1.1-.2.2c-1,1-2,2-2.9,3h0c-.4.5-.9,1-1.3,1.5-.6.7-1.1,1.5-1.6,2.3h0c-.2.4-.6.5-1,.5-.9,1.8-1.8,3.6-2.9,5.3-.7,1.1-1.4,2.1-2.2,3.1-1.3,1.7-3,2.9-4.9,3.9h0l-.3.1c-3.8,2.3-8.2,4.1-12.6,3.7-.2,0-.5,0-.7-.1h-.2c-2.5-.6-4.5-2.4-6.4-3.9-2.1-1.5-4-3.8-5.2-6.2-.5-1.2-.7-2.4-1-3.6-.1-.5-.3-1-.6-1.5-.2-.3-.4-.7-.6-1l-.1.1c-.1.2-.1.3-.3.4-.2.2-.5.5-.6.6-2.5,2.4-4.5,5.3-6.1,8.3,0,.1-.1.1-.1.2-1.2,2.4-2.2,5-2.9,7.5-2,8.3-4.3,16.6-7,24.7-.1.5-.3,1-.4,1.5h0v.2c-.1.3-.1.5-.2.8,0,.2,0,.3-.1.5-1.2,5.6-1.7,11.3-2,17-.4,6.7-2.5,13.2-1.7,20,.3,4.4,1,8.7,1.5,13,.1.8.2,1.5.4,2.3.1.2.2.4.2.7.4.6,0,1.6-.9,1.5-9.2-.4-18.5-.7-27.6.3-2.4.3-4.8,1-7.1,1.6-.2.1-.5.1-.7.1-.1.1-.3.1-.5.1-1.4-.2-.6-1.7-.8-2.5-.6-2.7-1.2-5.3-1.9-8-.3-4.7-.4-9.3.1-14-.1-3.5.5-7.1,1-10.6.5-3.1.6-6.2,1.3-9.3,2.2-10.6,5.8-21,10.8-30.6,1-2.1,2.5-3.9,3.6-6h0c-.1.1-.2.3-.4.4-1.1,1.7-8.8,12.6-10.7,9.8-.4-.6-.2-1.5-.1-2.2.4-2.1,1.3-4,2.3-5.8.8-2.4,2.4-4.4,3.8-6.6,3.8-7.2,9-13.5,14.7-19.2,1.2-1.4,2.8-2.5,4-4,1.2-1.7,2.7-3.1,4.3-4.5,3.9-4.1,7.3-8.7,11.9-11.9,4.1-2.6,7.9-5.8,12.3-8,3.6-1.6,7.1-3.2,10.5-5.1.7-.2,1.7-.9,2.6-1,.4-.2.8-.3,1-.5,3-1.2,5.6-3.1,8.5-4.4,1.1-.5,2.2-1,3.2-1.6,2-1.1,4.2-1.5,6.2-2.4-2.4-1-5.1-1.2-7.5-2.1-3.2-1.5-2-3.1.4-4.6,1.2-.8,2.7-1,4-1.6,1-.5,2-.8,3.1-.9,2.5-.1,4.9-.5,7.3-.6,1.7,0,3.3.4,5,.5.1,0,.2,0,.3.1.6,0,1.2.2,1.8.5h0c1,.4,2,.9,2.6,1.7.1-.1.3-.3.4-.5,0-1.2,2.1-2.7,2.6-3.5,1.3-1.5,6.4-7.4,9.2-8.4,2.4-2.6,4.8-5,7.8-6.8,2.7-1.8,6-2.3,9.2-2.9.8-.1,1.9-.4,2.5.2,2.2-.5,4.4-1,6.6-.2,3.6,1.4,6.8,3.7,9.8,6,3.3,2.7,5.4,6.3,7.4,10,2,3.8,3.8,7.8,4.4,12.1.2,1.2.1,2.7.2,3.9.1,1.6-.5,3.3.4,4.8.3-.1.5,0,.7,0v-.1c-.2-.9,1.1-2.1,1.3-3,1.5-2.7,3.1-5.5,5.8-7.2,3.4-3.5,7.9-5.8,12.3-8,2.2-.9,4.7-1.9,7-.8,2.3.6,3.6,3.3,3.4,5.5-.7,2.2-1.6,4.4-2.7,6.5-.8,1.2-1.1,2.5-1.8,3.8l.1.1c.2,0,.5,0,.7.2,4.8,1.8,10.5,1.5,15.1,4.2,1.1.8,2.6,1.1,3.2,2.3.4.8.1,1.7-.8,1.9-1.3.5-2.7.3-4,.1-.9.4-1.9.3-2.9.2,2.2,1.8,4.2,3.8,6.5,5.4,3.4,3.4,6.9,6.3,10.1,9.8,2.8,2.5,5.1,5.2,7.2,8.3.2.2.4.4.6.7.1.1.2.3.2.4,1.5,2,2.9,4.2,4.1,6.5,1,2.1,1.7,4.3,2.6,6.4,1.1.9,2.4,2.7,3,3.2,2.4,2.4,4.3,5.2,5.4,8.3.7,1.7,1,3.5,1.6,5.2.3.9,1.4,3.7.9,4.8,1.8,5.5,3.1,11.1,3.7,16.8.7,2.8,1,5.7,1.3,8.6v.4c.7,1.6,1.4,3.1,2.5,4.5,1.5,1.9,2.2,4.3,3,6.5,1.3,1.3,2.1,2.5,2.2,3.9h0Z"/>
      <path class="cls-7" d="m126.62,132.16c-.5-1.5,2.5-1.7,3.4-2.3,3.1-.9,4.8-3.6,7.2-5.5,1.9-1.8,3.7-3.8,5.1-5.9,1.1-1.6,1.4-3.4,2.3-5.1.3-.7.5-2.1,1.5-2,.4,0,.8.3.9.6.1,1.2-1.1,2.9-1.4,4.1-1.5,4.8-5.6,8.3-9.2,11.6-1.4,1.8-3.4,3.2-5.5,3.9-1.2.3-3.7,2.1-4.3.6h0Z"/>
      <path class="cls-7" d="m85.62,224.96c0,1.4-.5,1.7-1.1,1.9-.4-.3-1-.4-1.6.1-1.9,1.4-1,4-1.1,6-.2,2.5.1,4.8-.6,7.2-.6,1.7-.7,3.8-1.8,5.2-1.7-.5-1.8-2-2-3.5-.5-2.7-2.3-4.9-3-7.5-.6-3-1.9-5.7-2.7-8.6-.7-1.7-1.1-3.5-1.8-5.2h0c2.2.7,4.6,1.6,7,2.1.2.1.3.1.5.1h0c2.8.8,5.6,1.4,8.2,2.2h0Z"/>
      <path class="cls-7" d="m78.52,246.16c-.5-.4-.7-1-.9-1.5-.5-1.5-1.1-3-1.8-4.5-1-2.4-1.8-4.7-2.6-7.2-.3-2.1-1.3-4-2.1-5.9-.9-1.6-1.2-3.3-1.5-5.1-.2-.8-.8-1.5-.6-2.4.3-1,1.8-.8,1.9.2,2.7.7,5.4,1.8,8.2,2.3,2.1.8,8,1.2,7.7,4.2-.2.8-.5,1.9-1.5,2.1-.8.2-1.8-.1-2.3.8-.3,2.4-.1,19.7-4.5,17h0Zm.9-2.3c1.2-4,1.3-8.3,1.5-12.5.2-1.1.1-1.9.3-2.9.6-1.5,2.1-2.1,3.6-2.1h0c.1-.1.1-.3.2-.4-4.1-2.1-9-2.4-13.3-4.1.2,3,2,5.5,2.9,8.2.9,4.9,3.2,9.3,4.8,13.8h0Z"/>
      <path class="cls-7" d="m63.62,136.06c-1-.5-.3-1.6.1-2.3.2-.5.8-.6,1.3-.4,1,.5.3,1.6-.1,2.3-.3.5-.9.7-1.3.4Z"/>
      <path class="cls-7" d="m59.92,140.66c-2.7-.9.8-4,1.8-5,1.2-1.3,2.3-2.7,3.6-3.8.3-.2.5-.2.8-.2,1-1,1.7-2.5,3.1-2.9,1.6-.1,1.3,2.9-.2,2.6-.3.4-.7.7-1,1.1,0,.4-.2.8-.5,1.1-1.1,1.5-2.5,2.8-3.8,4.1-.9.8-1.6,2.1-2.9,2,.3.5-.2,1.1-.9,1h0Z"/>
      <path class="cls-9" d="m203.92,94.56c.2.5,0,1.1-.4,1.3-4.3,2.2-9.1,3.1-13.7,4.7-4.8,1.8-9.6,3.5-14.6,4.7-2,.6-4,1.2-6,1.2-.5-.1-.9-.6-.7-1.2,0-.1.1-.1.1-.2-.1-.1-.2-.2-.3-.2-5.6-4.3-12.2-.2-17,3.3-.1.2-.3.5-.5.6h0c-.2.3-.6.5-1,.4-2-.5.9-4.7,1.1-6,3.5-8.4,7.4-18,16.6-21.4,3.6-1.5,7.5-1.9,11.4-1.3,3,.1,5.9.9,8.6,2,2.6.9,5.2,2,7.3,3.6,2.5,1.5,5,3.1,7,5.2.8.9,1.8,1.9,2.1,3.3h0Z"/>
      <path class="cls-7" d="m187.02,203.06c-.2,1.1-1.6,1.3-2.5,1.7-.5-.2-.9.1-1.1.5-.2-.1-.5-.2-.7-.3.1-.4-.2-.8-.5-1-.3-.1-.6-.1-.8,0-.3-.2-.7-.4-1-.6-1.6-1.1-3.4-1.9-5.2-2.6-2.7-1.5-5.4-3.1-8.5-4-4.6-1.9-9.5-2.7-14.5-3-1.1-.1-2.3-.1-3.5-.1h-1.1c-.2-.2-.5-.3-.8-.3-2.8.2-5.5.8-8.1,1.9-2.4.8-4.8,2-7.2,3-1.6.7-3.4,2-5.3,3.1-.9-.5-2-1-2.5.1v.1c-1.1.5-2.2,1.1-3.5,1.3-.4.1-.7.1-1,.2-.9.1-1.2-.2-1.3-.6-.1-.9,1.2-2.7-.4-3.4,0-.2,0-.3-.1-.5.2-.5.1-1-.5-1.2h0c.1-.2.2-.5.2-.6.9-1,1.5-2.2,2.3-3.3,1.6-1.7,3.3-3.4,5.1-4.9,2.7-1.6,5.5-2.7,8.4-3.9,3.9-1.6,7.7-3.8,12-3.7h.1c.2.1.4.1.6.1s.5,0,.7-.1c.3,0,.6-.1.8,0,3.1.1,6.3.4,9.4.5,6.1.3,12.2,1.7,17.6,4.5,3.4,1.8,7.6,3.5,8.7,7.5.1.5-.5.6-.9.7-.8.2-1.9.7-1.5,1.7.3.7,1.1.6,1.7.3.1.7.5,1.3,1,1.8,1.4,1.5,2.9,3.2,3.9,5.1h0Z"/>
      <path class="cls-7" d="m274.32,197.66c.2,1.3,1.6,2.7,1.2,4-.3.4-.8.7-1.3.9-.8.1-1.7.4-1.5,1.4-.2.2-.5.2-.8.2-2.8-.1-4.6-2.3-6.2-4.3-1.4-1.2-2.3-2.9-3.7-4-1.6-1.5-3.6-2.4-5.5-3.3-3-1.4-6.7-1.4-9.8-.5-3.5.5-6.8,1.3-10.1,2.4-2,.5-4.2,1.4-6.2,1.9-.8.2-1.6.5-2.4.7-.5,0-.9.5-.9,1-2.5.3-5.9,0-5.3-3.4.1-.6.8-.9.9-1.6.1-.5-.3-1-.8-1.1-.9-.8-.2-2.1.5-2.8,5.3-4.5,11.8-7.6,18.5-9.3,5-1.4,10.2-1.3,15.3-.4,2.6,1,5.1,2.2,7.3,3.9,1.9,1.6,3.4,3.5,5.2,5.2,1.7,1.7,3.2,3.8,4.5,5.9.4,1,.6,2.2,1.1,3.2h0Z"/>
      <path class="cls-12" d="m84.62,228.86c-2.5-1.1-4.2-3.6-5-6.1-.5-1,.7-2.2,1.5-1.3,2.1.2,5,.8,6.4,2.5,1,1.9-.4,5.8-2.9,4.9h0Zm.7-1.8c.5-.5.6-1.4.6-2.1-1.1-.8-2.6-1.3-4-1.5.8,1.5,1.8,3,3.4,3.6h0Z"/>
      <path class="cls-12" d="m83.82,227.46c-1.2-.8-3.3-3.4-2.1-4.8.5-.5,1.5-.2,1.6.6,1.6-1.2,3.3,1.1,3,2.7,0,1.2-1.3,2.5-2.5,1.5Z"/>
      <path class="cls-12" d="m77.72,222.46c-1.5-.4-2.9-1-4.4-1.3-1.7-.2-3.5-.2-5.1-.8-.8-.2-1.4-1.1-.8-1.8.4-.4,1-.4,1.4,0,1,.4,2.1.4,3.1.5,1.9,0,3.8.7,5.5,1.3.9.1,2.2.8,1.5,1.8-.3.4-.8.5-1.2.3h0Z"/>
      <path class="cls-12" d="m78.32,246.56c3.4-8.7-1.6-19.5-9-24.5-.6-.5-1.4-.9-1.6-1.6-.3-1.1,1.3-1.7,1.8-.7,8,5.3,13.2,15.3,11.4,25-.2,1-.5,2.6-1.7,2.8-.5,0-.9-.5-.9-1h0Z"/>
      <path class="cls-12" d="m78.62,246.56c0-.4.3-.8.7-.9,2.6-2.3,2.9-6.2,3.4-9.5.7-5-3.3-8.3-5.4-12.3-.4-.7-1.3-1.7-.4-2.4.4-.3,1-.3,1.4.2,4.5,8.1,8.2,9.2,5.6,19.4-.6,2.1-1.3,4.4-3.1,5.9-.7.7-2.1.8-2.2-.4h0Z"/>
      <path class="cls-12" d="m80.42,243.06c-.6-1.8.1-3.8-.4-5.6-1.3-4.6-2.8-9.5-5.8-13.3-.9-1.3-2.4-1.8-3.5-2.8-.7-.8.3-2.1,1.2-1.5.6.6,1.3.9,2,1.4,2.4-1.4,4.9,4.2,6,5.9,1,2.3,3,4.1,3.5,6.5.2,2.8-.1,5.6-.9,8.2-.1.5-.1.9-.4,1.3-.4.6-1.3.5-1.7-.1h0Z"/>
      <path class="cls-12" d="m78.82,213.66c-2.6-9.1-1.1-18.6-.1-27.8-1.7-4.1-3.6-8-3.1-12.6-.4-9,2.2-17.7,5.5-26,3.5-9.3,8.6-17.8,14.6-25.6,2.8-3.2,5.9-5.8,8.7-8.9.7-.5,1.5-1.5,2.4-1.5.5.1.8.6.7,1.2-.2.8-1.2,1.1-1.8,1.7-2.8,3.1-6,5.8-8.8,9-5.5,7.3-10.4,15.1-13.6,23.7-2.8,7.3-5.6,14.9-5.7,22.8h0v-.1c0,3-.3,6,.3,8.9.6,2.4,2,4.5,2.7,6.9,0,5.1-1.4,10.3-1.4,15.5,0,3.9.3,7.8,1.3,11.5.1.7.5,1.7-.5,2-.5.1-1-.2-1.2-.7Z"/>
      <path class="cls-12" d="m75.42,213.26c-4-9.5-4.1-20.3-1.1-30.2.5-1.5,1-3,1.6-4.5.2-.5.7-.7,1.1-.6.7.2.9,1,.6,1.6-3.5,8.4-4.5,18.1-2.4,26.9.5,2,1.3,4,1.9,6,.2.5,0,1.1-.5,1.3-.4.2-.9,0-1.2-.5h0Z"/>
      <path class="cls-12" d="m84.12,215.26c-2-.2-4-.6-6-.8-.8,0-1.7,0-2.3-.6-.9-1.1.8-2.7,1.7-1.3,2.5.1,5.1.7,7.6.9-1-3.7-1.3-7.8-1.5-11.6-.3-2.1-.5-4.2-.3-6.3.4-5.2,1.2-10.5,1.6-15.7.7-14.4,2.5-29.1,7.5-42.7.3-.4.9-.5,1.3-.2,1,.8-.2,2-.3,2.9-4.3,13.5-6.1,27.6-6.7,41.7-.4,6.2-1.9,12.4-1.3,18.6.6,3.5.3,7.2,1.2,10.7.5,2.4,1.4,5.1-2.5,4.4h0Z"/>
      <path class="cls-12" d="m87.02,168.56c-.5-.4-.3-1.1-.3-1.6.3-2.4,1-4.8,1.3-7.2.9-8.4,3.2-16.7,6.4-24.5,3-7,4.9-14.6,10.2-20.3-.1-1.4,2-1.5,1.9-.1,0,.9-.6,1.5-1.2,2.2-4.7,5.4-6.3,12.5-9.1,18.9-3.2,7.7-5.4,15.8-6.3,24-.4,2.6-1.1,5.1-1.3,7.8.2.8-1,1.5-1.6.8h0Z"/>
      <path class="cls-12" d="m83.82,213.86c-.4,0-.7-.1-1-.2-.2-.1-.4-.1-.5-.2-.4.1-.8-.1-1-.4-.4,0-.8-.2-.9-.5h-.2c-.2-.1-.4-.2-.5-.4-.1.1-.2.2-.3.2-.2.1-.3.1-.5.1-.2.6-.8,1-1.4.9-.9.1-1.1-.8-1.2-1.5-1.1-1.9-1.1-4.4-1.5-6.6-.7-3-.9-6.1-1-9.2-.3-.2-.4-.5-.4-.9.1-1.8.3-3.6.4-5.4.7-3.6,1.6-7.3,3.2-10.7-.7-8.9.8-17.9,3.6-26.4,2-7.5,5.2-14.8,9.7-21.2,1.2-2.2,2.8-4.2,4.1-6.3.6-.9,1.3-1.8,1.9-2.6.2-.3.7-.4,1-.3,1.8-1.6,2.9-3.7,4.3-5.6.4-.4.9-1,1.5-.9,1,.1,1.2,1.6.2,1.9-1.4,1.7-2.7,3.6-3.9,5.5,1.4.5.3,1.9-.2,2.7-.7,1.2-1.4,2.7-1.9,4-1.7,4-3.2,8.1-4.8,12.2-.4.8-.5,2.2-1.7,2-2.5,6.3-3.1,13.1-4.4,19.7.2.2.4.6.3.9-.2,1.1-.5,2.2-.7,3.3-.6,2-.4,4-.7,6-.1,2.2-.2,4.3-.1,6.4.1.7,0,1.5-.7,1.8-.1,1.6.1,3.1-.1,4.7,0,.2-.2.4-.4.6-.1,1,.4,2.5-.4,3.3-.7,5.5-.2,11.1.7,16.6,0,1.7,1.2,3.3.8,4.9.3.7-.4,1.7-1.3,1.6h0Z"/>
      <path class="cls-12" d="m144.32,70.66c-2.5-1.2-.5-4.4.6-6,1.4-2.1,3.5-3.8,5.8-4.8,1.1-.5,2,1.2.8,1.8-2.9,1.4-5.8,4-6.5,7.3.7.2,1.4,0,2.1-.2,1.2-.4,1.8,1.5.6,1.8-1.1.3-2.3.5-3.4.1h0Z"/>
      <path class="cls-12" d="m116.42,107.26c-.2-1.3,1.6-1.2,2.4-1.7,1.9-.8,3.2-2.5,4.6-3.9,7.4-10.6,15.5-20.9,21.7-32.3.2-1.1,1.9-.9,1.9.2,0,.4-.2.8-.4,1.2-5.1,9.1-11.2,17.5-17.3,26-3.1,3.9-5.5,9.3-10.6,11-.8.2-2,.7-2.3-.5h0Z"/>
      <path class="cls-12" d="m118.42,109.76c-.6-.7-1.2-2.1-.5-2.9.4-.5,1.2-.4,1.5.1.2.3.1.7.2,1,5-3.2,7.7-8.5,10.9-13.3,3-4.8,5.8-9.7,8.8-14.5,1.9-3.6,4.1-7,6.5-10.2-3.4-.9.8-6.1,2.1-7.5.9-.9,2-1.6,3.3-1.9,1.1-.2,3.9,0,3.3,1.7-.8,1.5-2.3,2.5-3.3,3.8-2.6,3.5-5.4,6.9-7.8,10.6-3,5.3-6.1,10.5-9.4,15.6-1.4,2.6-3.2,5.1-4.8,7.5-1.1,1.9-2.2,3.8-3.8,5.3-1.3,1.5-2.8,2.9-4.5,4-.5.9-1.6,1.5-2.5.7h0Z"/>
      <path class="cls-12" d="m118.92,108.96c-1.9-1.5,1.6-3.4,2.6-4.4,1.5-1.2,2.5-2.8,4-4,2.1-2.1,3.7-4.7,5.6-7,.4-.6,1.4-.5,1.7.2,3.4-4.4,5.7-9.5,8.4-14.3,2.3-3.3,4.2-6.8,5.9-10.4.6-1.1,2.3-.2,1.7.9-1.7,3.6-3.5,7.1-5.8,10.3-2.4,4.4-4.6,8.8-7.3,13-2.8,3.6-5.7,7.1-8.5,10.7-2.1,1.6-5.6,6.1-8.3,5h0Z"/>
      <path class="cls-12" d="m68.42,204.26c-4.3-1.4-3-21-.8-24.3.7-1.6,3.4-4.2,4-1.1.1.7.3,1.7-.4,2.1-1,4.2-1.2,8.8-1.2,13.1-.1,2.1,1.9,10.8-1.6,10.2Zm.1-2.8c-.2-6.8-.8-13.7.8-20.3-1.4,2.7-1.2,5.7-1.5,8.6-.2,3.9-.4,8,.7,11.7h0Z"/>
      <path class="cls-12" d="m67.32,202.06c-.3-4-.9-8-.5-12,.3-3,1.1-6,1.7-9,.1-.6.3-1.4.9-1.7.9-.4,1.7.7,1.1,1.4-.9,4-2,8.2-2,12.3.1,2.9.4,5.8.6,8.7.3,1.1-1.5,1.5-1.8.3h0Z"/>
      <path class="cls-7" d="m70.82,183.36c.3-2.3.9-4.7.6-7-.9-1.1.8-2.3,1.6-1.1.6,1.1.5,2.6.3,3.8-.1,1.5-.2,2.9-.6,4.3,0,1.1-1.8,1.2-1.9,0h0Z"/>
      <path class="cls-7" d="m72.32,181.56c-1.1-.2-.6-1.5-.8-2.3-.1-.8-.4-1.6-.6-2.3-.4-.6,0-1.5.7-1.5,1.1-.1,1.2,1.5,1.5,2.2.3,1,1.1,3.9-.8,3.9h0Z"/>
      <path class="cls-7" d="m270.82,116.76c-3.7-2.3-7.3-4.9-10.9-7.3-1.9-1.2-3.3-2.6-5-3.9-.4-.3-.9-.7-.9-1.3-.1-1.1,1.4-1.5,1.9-.5,3.8,3.4,8.3,5.9,12.4,9,1.2.8,2.4,1.5,3.6,2.3.4.3.6.9.3,1.3-.4.6-1,.7-1.4.4h0Z"/>
      <path class="cls-3" d="m119.22,131.96c-.1-.5.3-1,.8-1.1,1.2-.1,2.4-.4,3.6-.7,2.2-.5,4.4-1.5,6.3-2.7,5.7-4.3,8.5-11.2,12-17.3,3.6-7.5,7.4-15.1,12.7-21.6,2.9-2.6,5.9-6.1,10-6.8,1.1.2.9,2-.3,1.9h.2c-2.1.6-3.9,1.9-5.4,3.4-2.1,1.8-4.1,3.7-5.5,6-3,4.6-6,9.4-8.3,14.5-1.8,3.9-3.8,7.7-6,11.4-2.6,4.6-5.7,9.3-10.7,11.6-2.6,1.2-5.4,1.9-8.2,2.3-.6,0-1.1-.3-1.2-.9h0Z"/>
      <path class="cls-3" d="m161.32,84.26c-.6-.8.3-1.6,1.1-1.9,1.5-.6,2.9-1.3,4.5-1.5.5-.1,1,.3,1.1.8.1,1-.9,1.2-1.7,1.3-1.2.5-2.5.8-3.6,1.5-.4.3-1,.3-1.4-.2h0Z"/>
      <path class="cls-3" d="m124.32,131.36c0-.5.4-1,.9-1,2.1-.2,4.1-.8,6.2-1.3,3-1.2,5-3.7,7.3-5.8,3.5-3.2,5.2-7.6,7.1-11.8,3.7-7.6,5.2-16.3,10.4-23.1,1.3-1.9,3.1-3.5,5-4.7.4-.3,1-.3,1.4.2.9,1.5-1.9,2.2-2.6,3.2-5.4,5.3-7.4,12.9-10.1,19.8-3,6.9-5.5,14.5-11.5,19.5-2.3,2.7-5.4,4.8-8.9,5.3-1.3,0-5.1,1.6-5.2-.3h0Z"/>
      <path class="cls-3" d="m131.72,130.16c-2.1-1,1-3.1,1.9-4,1.4-1.2,2.5-2.6,3.6-4.1,1.7-3.8,4.4-7.2,6.1-11.1,2.5-5.4,5.1-10.7,7.9-16,.5-1.1,2.2-.7,1.9.5-2.7,6.5-5.1,13.1-8.2,19.4-1.1,2.5-2.2,5.2-4.1,7.2-.4.4-.8.7-1.4.7-.5.8-1,1.5-1.5,2.4-.2.4-.7.6-1.2.4-1.2,1.4-2.8,2.6-4,4-.2.4-.6.7-1,.6h0Z"/>
      <path class="cls-3" d="m125.32,124.26c-.3-.5-.1-1,.3-1.3,1.5-.9,3.1-1.8,4.3-3,4.1-3.8,6.9-8.7,9-13.9.1-.5.7-.8,1.2-.7.9.2.8,1.2.4,1.9-1.4,3.3-3.1,6.5-5.2,9.4-2.3,3.2-5.3,6-8.8,7.9-.3.3-.9.2-1.2-.3h0Z"/>
      <path class="cls-12" d="m287.32,219.96c-1.5-.3-.5-2.1-.5-3.1.9-8.6.6-17.4,1.4-26,0-7.1-.3-14.2-.6-21.3-.5-4.2-1.4-8.4-1.8-12.6-.9-4.2-1.9-8.4-3-12.5-1.1-2.8-2-5.6-3-8.4-2.1-5.1-4.6-10-6.9-15-.3-.6-.9-1.1-.7-1.8.1-.5.7-.8,1.2-.7.4.1.6.4.7.7.5.7.8,1.4,1.1,2.1,1,2.6,2.6,4.7,3.6,7.3,1.7,4.2,3.5,8.3,4.9,12.6,1,2.4,1.8,4.9,2.1,7.4,1.1,4.2,2.1,8.3,2.5,12.6,1.4,6.3,1.6,12.7,1.6,19.2.2,5.2.5,10.3-.1,15.5-.4,4.7-.3,9.3-.5,13.9-.1,3.1-.2,6.3-.9,9.4-.1.4-.6.8-1.1.7h0Z"/>
      <path class="cls-12" d="m284.92,218.66c.8-4.5.5-9,1-13.5.9-6.8,1.9-13.5,1.4-20.3-.4-6.1-.1-12.2-1.2-18.2-.5-4.3-.5-8.7-1.8-12.8-1-4-2-8-3.6-11.8-1.4-5.3-4-10.2-6.2-15.2-.4-1.2-1.2-2.5-1.2-3.8.1-.5.7-.8,1.2-.7.8.2.8,1.2,1.1,1.9,2.4,5.9,5.6,11.5,7.2,17.7,2.3,5.6,3.8,11.5,4.7,17.5.4,6,1.6,12,1.5,18.1.4,8.5.7,17-.8,25.4-.8,5-.5,10-1.1,15-.2.6-.1,1.4-.9,1.6-.6,0-1.2-.3-1.3-.9h0Z"/>
      <path class="cls-12" d="m285.52,206.26c0-4.3,1-8.6,1.1-12.9.3-4.2-.1-8.5.4-12.7.3-1.2,2.2-.8,1.9.5-.4,3.9-.1,7.8-.3,11.7-.1,3.9-.9,7.7-1.1,11.6-.1,1,.4,2.7-1,2.8-.5-.1-1-.5-1-1h0Z"/>
      <path class="cls-12" d="m286.72,175.86c-1.3-8.6-2.1-17.4-4.6-25.8-.9-3.8-2.5-7.5-3.9-11.2-.8-3.6-2.2-7.1-3.1-10.6,0-1.2,1.8-1.3,1.9-.1,1.2,3.6,2.2,7.3,3.2,10.9,2,4.9,3.7,9.9,4.9,15.1,1.1,5.7,2,11.6,2.9,17.3.1,1.3.4,2.7.5,4,.1.5-.3,1-.8,1.1-.4.1-1-.2-1-.7h0Z"/>
      <path class="cls-12" d="m286.52,233.36c-1-.1-3.2.3-3-1.3.1-.5.7-.8,1.2-.7,1.3.1,2.6.1,4,0,.1-.9.2-1.8.2-2.7-.1-.5.3-1,.8-1.1s1,.3,1.1.8c.1,1.2-.1,2.5-.2,3.6-.1.4-.3.8-.7,1-1.1.5-2.3.4-3.4.4h0Z"/>
      <path class="cls-12" d="m284.52,232.36c-.6-.7-.9-1.8-.6-2.7.2-.6,1.1-.9,1.6-.4,1.3-.3,2.9-1,4-.1.7.7.6,1.9-.2,2.4-1,.7-2.4.8-3.6,1.1-.4.1-.9,0-1.2-.3Z"/>
      <path class="cls-12" d="m287.12,261.76c-1.7-2.1-2.2-5.2-2.4-7.8-.4-4.4-.5-8.8-.1-13.3.1-3.5-.1-7,.4-10.5.3-1.2,2.1-.8,1.9.5-.5,5.5-.3,11-.6,16.5.3,4.3-.1,9,1.9,13,1,.8-.1,2.3-1.1,1.6h0Z"/>
      <path class="cls-12" d="m284.42,244.76c-.3-3.9-.7-7.8-.6-11.7.1-1-.3-3.1,1.2-3.1.5,0,.9.6.9,1.1-.3,2.3-.1,4.7,0,7,.2,2.2.3,4.4.5,6.6,0,.5-.4,1-.9,1-.6.1-1-.3-1.1-.9h0Z"/>
      <path class="cls-12" d="m297.82,249.66c-1.6-2-1.4-4.6-1.9-7-.5-4.2-.4-8.6-.7-12.8.3-1.2,2-.8,1.9.3.4,5.5.2,11,1.4,16.4.2.7.4,1.3.8,1.9.8,1-.8,2.2-1.5,1.2h0Z"/>
      <path class="cls-12" d="m296.22,248.86c-.3-.9-.6-1.9-.8-2.8-.2-.6-.3-1.3.2-1.7-.1-1.1-.7-3.3,1.1-3.2.9.3.7,1,.7,1.8.1,1.6.5,3.1.8,4.6,0,.2-.1.4-.2.6.4,1.2-1.3,1.8-1.8.7h0Z"/>
      <path class="cls-12" d="m295.82,248.16c-.5-1-1.3-2.2-.8-3.3.3-.5.9-.6,1.3-.4.4.2.5.6.5,1,.1.6.4,1.1.7,1.6.6,1.2-1,2.2-1.7,1.1h0Z"/>
      <path class="cls-12" d="m292.52,217.06c-1.3-1.4-1.5-3.4-2-5.1-.1-.5.1-1,.6-1.2.5-.1,1.1.1,1.2.7.4,1.4.5,3,1.4,4.2h0c.2.2.5.3.7.2.2-.2.4-.4.4-.6.8-3.1.2-6.3-.2-9.4-.2-4.5-1.2-9-1.3-13.5.1-.5.7-.8,1.2-.7.4.1.7.5.7.9.1,1.3.2,2.6.3,3.8.6,5,1.2,9.9,1.6,14.9,0,1.7,0,3.6-.8,5.2-.5,1.5-2.6,1.8-3.8.6h0Z"/>
      <path class="cls-12" d="m293.52,216.56c-.6-.2-1-.8-1.3-1.3-.5-1.1,1.1-1.9,1.7-.9.5-1.3,2.4-.5,1.8.7-.5.9-1.2,1.8-2.2,1.5h0Z"/>
      <path class="cls-12" d="m294.62,194.46c-1.4-.7,0-2.1.4-3,1.4-3.5,2.8-7,4-10.6.2-.5.8-.7,1.2-.5,1.4.7-.3,3.1-.5,4.3-.7,1.6-3.2,10.8-5.1,9.8h0Z"/>
      <path class="cls-12" d="m298.92,218.66c-.5,0-.9-.5-.9-1.1.3-3.2.8-6.4.9-9.6.3-6.1,0-12.2.4-18.2.2-2.5-.4-4.8-.2-7.2.3-1.2,2-.8,1.9.3.1,3.2.4,6.6.1,9.8,0,8.4-.1,16.8-1.2,25.1,0,.6-.5.9-1,.9h0Z"/>
      <path class="cls-12" d="m295.92,237.96c-.2-6.2.6-12.5-1-18.5-.2-1-1.1-1.8-1.1-2.8.3-1.1,1.7-.8,2,.2,2.7,5.6,1.9,12.1,1.9,18.1-.2,1.2.8,3.8-.9,4-.5-.1-.9-.5-.9-1h0Z"/>
      <path class="cls-12" d="m297.52,249.26c-.5-.3-.6-1-.4-1.4,1-7.2,1-14.3,2.1-21.5.9-9,.6-18.1.2-27.1,0-1.2,1.9-1.3,1.9,0,.2,5.2.4,10.5.4,15.7.1,8.2-1.2,16.3-1.9,24.3-.1,3-.2,6-.8,8.9,0,.8-.7,1.5-1.5,1.1h0Z"/>
      <path class="cls-12" d="m297.52,245.16c-.6-.1-.8-.8-.7-1.3-.7-2.8-.2-5.9.2-8.8-.1-3.7.2-7.3.6-10.8-.1-.8-.2-1.5-.4-2.3-.3-.1-.6-.3-.7-.7-.4-1.1-.6-2.3-.9-3.4-.3-.8-1-2.2.2-2.7,0,0,.1-.1.1-.2,0-.3,0-.7.1-1s.4-.6.7-.7c-.2-5-1.2-9.9-1-14.8-.6-.3-.6-1.1-.7-1.7-.1-.7-.2-1.4-.2-2.1s-.1-1.8.9-2c1.4-2.8,1.8-6.1,3.2-8.9.5-.6,1.7-.2,1.6.6,1.1.7.1,2.2.1,3.3-.4,2.6-.6,5.4-.5,8.1-.2,4.5-.1,8.9-.1,13.3,0,1,0,2.1-.1,3.1,0,.3-.2.6-.5.7.1.1.2.3.2.5.2,1.2.3,2.4.4,3.6,1.4.4.4,3,.6,4-.2,3,.1,6.1-.3,9-.2,1.9-.2,3.9-.1,5.8,0,.7.2,1.8-.8,2-.1.9.5,2.4-.6,2.9-.3,1.4.7,4.9-1.3,4.5h0Z"/>
      <path class="cls-12" d="m300.22,184.26c-1.7-2.2-2.5-4.9-3-7.5,0-1.2,1.7-1.3,1.9-.2.5,2.4,1.2,4.8,2.8,6.7.6,1.1-1,2.1-1.7,1h0Z"/>
      <path class="cls-12" d="m295.62,203.56c-.4-4.5-1-8.9-.8-13.5.5-4.5,1.5-8.9,2.3-13.3.3-1.2,2.2-.8,1.9.5-.8,5.2-2.4,10.4-2.3,15.8.2,3.4.5,6.8.8,10.2.2,1.3-1.7,1.6-1.9.3h0Z"/>
      <path class="cls-12" d="m297.42,192.26c-.5,0-.9-.5-.9-1.1.2-3,.5-6,1-9l.3-1.2c.4-1.1,2.2-.5,1.8.6-.8,3.2-.9,6.5-1.2,9.8,0,.5-.5.9-1,.9h0Z"/>
      <path class="cls-13" d="m132.22,223.56c-.1-.1-.1-.2-.2-.3h-.1c.2.1.2.2.3.3h0Zm17.5-11.4c0,.2,0,.4-.1.5.6.5.1,1.5-.1,2.1-.4,1.8-1.1,3.5-1.9,5-1.6,4.2-3.4,8.3-5.9,12-.4.4-.8,1.3-1.2,1.9-.1.2-.3.3-.5.4-.3.1-.6.2-1,0-.5-.3-.5-.9-.3-1.3-1.1-.5-2-1.4-2.8-2.2h0l-1-1c-.3-.3-.6-.6-.9-.9-.5-.4-1-.8-1.3-1.3-.1-.1-.2-.3-.3-.4-.3-.5-.6-1.1-1.1-1.5-.2,0-.4-.1-.6-.1-.9-.4-1.4-1.5-1.9-2.5q-.3-.6,0,0c-.1-.2-.2-.3-.2-.5l-.1-.1c-.1-.1-.2-.2-.2-.3-1.5-.5-.6-2,.3-2.6,2.3-1.9,4.6-3.7,7.4-4.9,3.4-1.7,7.1-2.8,10.9-3.1.9,0,2.6-.6,2.8.8h0Z"/>
      <path class="cls-13" d="m167.92,222.76c-4-3.2-8.8-5.3-13.8-6.2-.7-.4-.6-1.4,0-1.7.4-.2,1-.1,1.4,0,4.8,1,9.3,3.1,13.2,6.1,1.6.8.6,2.9-.8,1.8h0Z"/>
      <path class="cls-13" d="m167.92,223.06c-.5-.6-.1-1.2.3-1.7-2.1-1.5-4.4-2.9-6.7-3.9-1.8-.7-3.7-1.1-5.3-2.1-.6-.4-1.2-1.4-.5-2,.6-.5,1.6-.3,2.3-.3,3.1.4,6,1.9,8.8,3.2,1.4.9,3.6,1.3,4.2,3,.3,1.1-1.6,5.2-3.1,3.8h0Z"/>
      <path class="cls-13" d="m226.22,223.46c-2.6-1.9,5.2-5.4,6.7-5.8,8.5-2.7,19.5-3.4,26.3,3.4.9.9-.5,2.2-1.4,1.3-.3-.3-.6-.6-.9-.9-7.9-5.9-19.6-4.5-27.7.1-1.2.4-1.8,2.3-3,1.9h0Z"/>
      <path class="cls-13" d="m259.12,216.36c2.8,1.7,2.6,2.3.7,4.7-.1.2-.2.3-.3.4-.7.5-1.9,0-1.7-1.1-.2-.4-.7-.7-1.1-.9-2.3-1.2-4.7-2.2-7.2-2.9-1.5-.3-3-.5-4.4-.9h-.1c-.5-.3-.5-1.2,0-1.5-.2,0-.4,0-.6-.1-1-.1-2-.1-3,0h-.2c-5.2.4-10.2,2.9-14.8,5.3.3.5.6.9.9,1.2.1.2.3.3.4.5.1.1.1.2.2.3.5.7-.1,1.6-.9,1.5-.1,0-.2,0-.3-.1-.3-.3-.6-.5-.8-.8l-.1-.1c-.8-.8-1.2-1.5-1.4-2-.1-.4-.1-.7,0-1,0-.1.1-.1.1-.2h0l.1-.1h0c.1-.1.1-.2.2-.3l.1-.1c.2-.2.4-.3.6-.5.1,0,.1-.1.2-.1,0,0,.1,0,.1-.1.1,0,.1-.1.2-.1.1-.1.2-.1.4-.2,0,0,.1,0,.1-.1h0c.1,0,.2-.1.3-.1.3-.1.6-.3.9-.4.1,0,.3-.1.4-.2.2-.1.4-.2.5-.3s.4-.2.5-.3.4-.2.5-.3.4-.2.5-.3h0c4.9-2.4,10.4-3.8,15.9-2.9,4.5.8,9.4,1.1,13.1,4.1h0Z"/>
      <path class="cls-13" d="m226.02,221.36c-4.2-2.7,13.8-9.8,15.2-7.2,1.1-.2,2.4.2,1.7,1.5-1.2,1-3,.9-4.5,1.3-2,.5-3.8,1-5.7,1.6-.5,0-.9-.3-1-.7-1.7.6-2.9,2.1-4.2,3.1-.5.5-1,.6-1.5.4h0Z"/>
      <path class="cls-13" d="m227.82,219.76c-.4-1.2,1.2-1.6,2-2,1.9-.8,3.9-1.5,5.8-2.1,2.5-.8,5-1.5,7.5-2.1.5-.1,1,.2,1.2.7.3,1.7-2.6,1.4-3.7,1.9-1.6.4-3.2.9-4.7,1.4h.1c-.9.3-1.8.6-2.7,1-.6.2-1.2.5-1.9.7-.1.8-1,.8-1.6,1-.7.1-1.7.4-2-.5h0Z"/>
      <path class="cls-13" d="m228.32,220.66c-3.2-2.4,8.3-5.2,9.8-5.7,1.2-.3,1.7,1.5.5,1.9-3.1.9-6.4,1.7-9.1,3.5-.3.3-.8.5-1.2.3Z"/>
      <path class="cls-7" d="m122.72,126.66c-.2-.4,0-.9.3-1.2.3-.7.9-1.2,1.4-1.6.7-1.5,2-3.6,3.9-3.6,4.8-4.5,6.8-11.3,11.5-15.8,3-.7,1.1,3.7.5,5.1-1.8,3.8-4.6,7.2-7.2,10.5-1.4,1.6-2.7,3.2-4.1,4.7-.4.4-1.1.4-1.5-.1-.7.7-1.2,2-2.3,1.5-.6.7-1.9,1.7-2.5.5h0Z"/>
      <path class="cls-1" d="m123.02,132.36c-1.8-.5-4.2-.7-5.1-2.5-.4-.9.3-2,1.2-2.3,2.2-.4,4.5-.1,6.6-.6,2.5-.5,5-1.4,7.2-2.7,1.7-1.1,3.2-2.3,4.4-3.9.5-.5.9-1.3,1.7-1.3.5,0,.9.5.9,1-4,6.8-12.4,9.3-19.9,9.3,2,.9,4.2,1.3,6.4,1.3.5,0,1,.5.9,1-.2,1.7-3.2.7-4.3.7h0Z"/>
      <path class="cls-1" d="m119.62,130.66c-1.1-.1-1-1.8.1-1.9h2.2c1.8-.8,4.1-.7,6-1.4,1.4-.4,2.6-1.2,4-1.7.5-.1,1,.2,1.1.6.4,1.5-2,1.8-2.9,2.4-1.1.6-2.1,1-3.2,1.3-2.4.6-4.9.8-7.3.7h0Z"/>
      <path class="cls-7" d="m297.42,193.26c-3.3-1.8-3.1-10.8-3.5-14.4,0-1.2,1.9-1.3,1.9,0,0,2.6.4,5.2.7,7.9.4,1.6.4,3.8,1.7,4.8h0c1.6-3,1.3-6.7,1.7-10,0-.6.3-1.3,1-1.3.5,0,1,.4,1,1-.1,1.3-.2,2.5-.3,3.8-.3,2.3-.3,9.7-4.2,8.2h0Z"/>
      <path class="cls-7" d="m297.72,191.66c-.5-.1-.9-.4-1-.9v-.7c-.7-3.4-.7-6.8-.7-10.3.2-1.5-.4-3.9,1-4.8.1-.9-.2-2.7,1.2-2.6.8.1.9,1,.8,1.6,2.1.3,1.1,11.9.9,13.9-.4,1.3-.2,4.1-2.2,3.8h0Z"/>
      <path class="cls-6" d="m212.82,221.06c-.1-.1-.2-.2-.2-.2v1.5c.1-.5.2-1,.2-1.3Zm0,3.9c.1-.1.2-.1.3-.2-.1,0-.2-.1-.3-.1v.3Zm.3-8.8h0q-.1-.1-.2-.1h0c-.2.7-.2,1.5-.3,2.2.1-.5.3-1,.4-1.5,0-.2.1-.4.1-.6h0Zm21.3-5.3s-.1-.1,0,0c-.5.1-.9.3-1.2.6h.1c.3-.3.7-.5,1.1-.6h0Zm17-1.6l.4.1c-.2,0-.3,0-.4-.1h0Zm31.1,22.3c.5,0,1,.5.9,1,0,.3-.1.7-.2,1h0c-.3,1.6-.8,3.2-1.4,4.7-3.8,8.8-8.6,18.3-18.1,22-6,2.4-12.4,3.7-18.9,4.1-4.6-.2-9.2-.7-13.4-2.6-4.8-1.5-9-4.5-12-8.5-.1,0-.2-.1-.2-.1-.6-.5-1.1-1.3-1.6-1.9-1.4.6-2.1-1.4-2.9-2.2-1.8-1.9-3.5-4-4.4-6.5-1.6-4.7-1.4-9.7-.8-14.6v-5.2c0-1.1.1-2.2.2-3.3.1-.8.2-1.6.3-2.4h0c0-.1.1-.2.1-.3.2-.3.5-.5.8-.5.1-.6.2-1.1.4-1.7.3-.5.9-.5,1.3-.3.1.1.2.2.3.2.2-.1.4-.2.6-.2h0c.1,0,.3,0,.4-.1h.3c3-.6,5.7-1.5,8.7-1.9.6,0,1.5-.4,2.2-.5.1-.1.2-.2.2-.2.2-.2.3-.3.5-.5h0c1.3-1.2,2.7-2.3,4-3.5.7-.5,1.7-1.6,2.5-.7,2.8-1.5,5.9-2.5,9.1-2.4,5.2.5,10.4,1.7,15.1,4,.4.2.8.4,1.2.7h0c.3.2.7.4,1,.6.4.1.7.3,1,.5.1.1.2.1.3.2h0c2.5,1.8,5.4,3.7,6.4,6.7.3,1.7-1.1,2.5-2.6,2.1-.7-.1-1.5-.8-1.2-1.5-1.3-.8-2.4-1.8-3.7-2.6-.3-.2-.4-.6-.4-.9-9.1-4.8-14.8-5.2-22.8-2.1h0c-1.7.7-3.5,1.5-5.5,2.5,0,.2-.1.3-.3.5h0c-.2.1-.4.2-.5.3s-.4.2-.5.3-.4.2-.5.3c-.2.1-.4.2-.5.3-.1,0-.3.1-.4.2-.3.1-.6.3-.9.4-.1,0-.2.1-.3.1h0s-.1,0-.1.1c-.1.1-.2.1-.4.2-.1,0-.1.1-.2.1,0,0-.1,0-.1.1-.1,0-.1.1-.2.1-.2.2-.4.3-.6.5,0,0-.1,0-.1.1-.1.1-.1.2-.2.3h0v.2h-.1c-.4.3-.9.6-1.3.9-3.9,5.9-7.1,12.7-6.6,19.9.1,1.4.4,2.7.8,4,.1.3,0,.7-.2.9h0q-.1.1-.2.2c1.3,2.9,2.8,5.8,4.8,8.3q1.3,1.7,0,0c1.6,2,3.5,3.8,5.8,5.2,1.3.7,2.7,1.3,4.1,1.8h0c1.1.4,2.2.8,3.3,1.1h0c.6.2,1.1.3,1.7.5h0q.1,0,.2.1h0c.4.1.9.2,1.3.3q0-.1.1-.2c.2-.5.7-.8,1.5-.6,1.9,0,3.8-.1,5.7-.3h0c3.1-.4,6.2-1,9.2-1.7,4.4-.8,8.6-2.5,12.6-4.7h.1c2.1-1,4.2-2.1,5.4-4.1.4-.5.8-1.2,1.3-1.3h.4c1.4-2.1,2.5-4.3,3.6-6.5s2.1-4.4,2.8-6.8h0c.1-.5.3-1,.4-1.5.1-.1.1-.3.2-.5h0c.1-.4.1-.9.2-1.3h0c.2-.6.4-1,1-.9h0Z"/>
      <path class="cls-5" d="m101.62,227.46c-.1-1.9-.4-3.8-.4-5.7-.1-1.6-.8-1.8-2.2-1.9-9.9-2.5-20.2-4.7-30.4-3.4-1.6.2-3.3.2-4.9.4-.3,0-.7-.2-.8-.5-.7-1.9,2-1.5,3.1-1.6,4.7-.4,9.4-1,14.1-.5,5.8.8,11.7,1.6,17.3,3.2,1.2.3,2.4.5,3.5.8,3.2,1.2,1.9,5.4,2.6,8,.1.8.3,1.9-.8,2-.5.1-1-.2-1.1-.8h0Z"/>
      <path class="cls-5" d="m101.42,227.76c-7.5-3-15.2-5.2-22.9-7.3-4.4-1.2-8.8-2.8-13.5-3.1-1-.4-.6-2,.5-1.9,3.6.2,7.1,1.3,10.5,2.3,5,1.4,10.1,2.7,15.1,4.3,3.7,1.2,7.4,2.3,11,3.8,1.2.6.5,2.3-.7,1.9h0Z"/>
      <path class="cls-5" d="m99.92,226.46c-2.6-1.9-5.9-2.3-8.9-3.2-.8-.3-2.1-.3-2.3-1.3-3.1-.8-6.1-1.5-9.3-2-.7-.1-1.3-.2-1.9-.5-.9-.2-2.6-.2-2.6-1.4-.8-.1-1.9.2-2.6-.5-1-.3-2.4.5-2.9-.6-.4-2.4,3.6-1.1,4.9-1.2,5.2.5,10.4.6,15.5,1.8.2-.3.5-.5.9-.4,3,.5,6,1,8.9,2.1.5.2,1,.1,1.5.4.4.3.5,1,.2,1.4-.1,1.6.6,3.2.1,4.7.1.7-.8,1.2-1.5.7h0Z"/>
      <path class="cls-5" d="m104.82,229.06c-.9-.6-1.6-1.7-1.2-2.8.3-2.4-1.5-6.1.8-7.9,2.1-.5,4.2-.9,6.3-1.2.8-.1,1.8.8,1.2,1.6.2,1.7-.1,3.5-.1,5.2,0,1.2.7,2.5.2,3.6-.7,1.1-2.2.8-3.3,1.1-1.3.1-2.6.9-3.9.4h0Z"/>
      <path class="cls-5" d="m287.22,229.06c-5.6-.4-2.9-4.4-2.1-7.9-.5-1.3,1-1.6,1.9-1.3.9.2,2,.2,2.7,1,1,2.2.1,4.7-.3,7-.1,1-1.3,1.3-2.2,1.2Z"/>
      <path class="cls-11" d="m101.92,225.16c-6.8-2.5-13.8-4.1-20.9-5.4-5.8-1.3-11.8-2.4-17.7-2.6-1.2-.1-1.1-2,.2-1.9,10.9.6,21.5,3.2,32.1,5.8,2.4.6,4.7,1.5,7,2.3.5.2.8.8.6,1.2-.3.5-.8.8-1.3.6h0Z"/>
      <path class="cls-11" d="m101.92,227.36c-8.5-3-17-5.8-25.7-7.7-3.1-.8-6.3-1.2-9.4-2-.5-.1-1.1-.2-1.5-.7-.3-.4-.1-1.1.3-1.3.4-.3.8-.1,1.2.1,8.8,1.8,17.7,3.8,26.2,6.7.1-.5.6-.8,1.1-.7,2.6.6,5.3,1.2,7.7,2.2,1.9.2,2.4,3.8.1,3.4h0Z"/>
      <path class="cls-11" d="m108.22,225.06c-1.6,0-3.3,0-4.9-.1-.4,0-.7-.2-.9-.5-.2-.5,0-1.1.5-1.3,2.8-.2,5.7.2,8.5-.2.5,0,1,.4,1,.9,0,1.5-3.1,1.1-4.2,1.2h0Z"/>
      <path class="cls-11" d="m104.22,228.86c-1.3-1-1.3-3.4-.2-4.6.3-.3.8-.3,1.2-.3,1.7.2,3.5,0,5.1.5-.1-1.3,1.9-1.4,1.9-.1v-.2c.3,1.2.7,4.5-.9,4.7-1.9.4-3.8.2-5.7.3-.5,0-1.1,0-1.4-.3h0Z"/>
      <path class="cls-11" d="m286.42,228.46c-2.4.1-3.1-1.4-2-3.4-.5-.4-.5-1.2,0-1.6,1.3-.5,3-.2,4.4,0,1,.2,1.2,1.2,1.4,2,1.1,3.2-1.5,3.2-3.8,3h0Z"/>
      <path class="cls-15" d="m161.52,208.06c.4.6.1,1.5.2,2.2-.1,3.8-.5,7.6-.6,11.5-.2,8.6-.6,17.1-.6,25.7,0,1.8,0,3.7.2,5.5.1.6-.2.9-.7,1.1-.2.4-.8.7-1.3.8-1.3.3-2.2.8-3.4,1.1-1.9.3-3.9,1.1-5.8,1.3-.6.2-1.4.4-2,0-.3-.2-.4-.5-.4-.8-.1-.1-.2-.2-.2-.4-3-8.1-5.8-16.2-7.9-24.6-1.8-7.5-2.9-15.2-5.2-22.6.1-.9,1.3-1.1,1.7-.5,1.7-.5,3.7-.3,5.4-.5,6.2-.5,12.5-.6,18.7-.4.4,0,.6.2.7.4.3-.3.9-.3,1.2.2h0Z"/>
      <path class="cls-15" d="m142.12,255.76c.2.5-.1,1-.6,1.2h-.3c-.1,0-.3,0-.4-.1-.1,0-.3.1-.4.1-.6-.1-1.7,0-2.5-.2h-.1c-.1,0-.2.1-.3.1-.4,0-.8-.2-.9-.6-.7-2.1-1.5-4.2-2.2-6.3-1.3-3.9-2.7-7.8-4.1-11.7-1.4-4-2.8-8-4.2-12-1.4-4-2.8-7.9-4.1-11.9-.3-.8-.6-1.6-.9-2.5-.4-.3-.4-.9-.2-1.3.1-.3.3-.5.6-.6s.6-.1.9.1c.5-.1,1.4-.2,2.3-.3.3-.6.8-.7,1.4-.5.1-.3.3-.5.6-.6.5-.2,1.1.1,1.2.6h0v.1c1.2,3.8,2.4,7.6,3.6,11.5,1.2,4,2.5,8,3.7,12,1.2,3.9,2.4,7.8,3.6,11.6,1.1,3.4,2.1,6.8,3.2,10.2,0,.5.1.8.1,1.1h0Z"/>
      <path class="cls-15" d="m260.22,209.66c.5,0,.9.5.9,1h0c-.3,4.1-.6,8.2-.9,12.3-.3,4.1-.6,8.3-.9,12.4-.3,4.1-.6,8.2-.9,12.3-.2,3.1-.5,6.2-.7,9.2v.6c0,.5-.4.9-1,.9h-.1c-.2,0-.5-.1-.6-.3-.9.3-1.8.6-2.7.8-3,.6-6.2.9-9.2,1.4-.2.1-.5.1-.7,0-.1.1-.3.2-.4.2h-.2c-.5,0-.8-.3-.9-.8-.2-.8-.4-1.6-.6-2.3-.1-.2-.1-.4-.2-.6h0c-.9-3.3-1.8-6.7-2.6-9.9-.1-.2-.1-.4-.1-.5-.1-.2-.1-.4-.1-.5-.1-.2-.1-.4-.1-.5-.1-.5-.3-1.1-.4-1.6-.1-.2-.1-.4-.1-.5-.4-1.3-.7-2.7-1-3.9-.1-.2-.1-.4-.1-.5-.1-.2-.1-.4-.1-.6h0v-.1c-.1-.4-.2-.8-.3-1.1-.1-.2-.1-.5-.2-.6-.3-1-.6-2-.8-3-.1-.2-.1-.5-.1-.5-.1-.2-.1-.5-.2-.7-.1-.2-.1-.4-.2-.6v-.1h0c-.3-1.3-.7-2.5-1-3.8-.1-.2-.1-.4-.1-.5-.1-.2-.1-.5-.1-.6-.2-.9-.5-1.8-.7-2.5-.1-.2-.1-.5-.2-.7-.2-.7-.4-1.3-.5-1.8-.1-.2-.1-.5-.2-.6-.1-.2-.1-.5-.2-.6-.2-.7-.4-1.3-.5-2-.1-.2-.1-.4-.1-.5-.1-.3-.2-.7-.2-.9-.1-.5-.3-1.1-.4-1.5-.1-.3-.2-.7-.3-1,0-.1-.1-.3-.1-.3-.3-1-.5-1.9-.8-2.8h0c-.1-.5.3-1,.8-1.1.3-.1.6,0,.8.2.2,0,.4-.1.6-.1,3.4-.3,6.7-.3,10-.9,5.3-1,10.8-1.4,16.1-.4.8.1,1.6.3,2.3.5.2.1.3.1.4.2-.5-.1-.3-.2-.1-.2h0Z"/>
      <path class="cls-15" d="m272.02,212.46c.4.2.6.6.6,1h0c-.7,3.8-1.4,7.5-2.1,11.3-.8,4.1-1.5,8.2-2.3,12.3-.7,3.9-1.4,7.9-2.2,11.8-.4,2.3-.8,4.5-1.3,6.8-.1.5-.5.8-.9.8h0c-.6.3-1.3.5-1.8.7-.2.1-.5.2-.8.2-.1.4-.5.6-.9.6h-.1c-.5-.1-.9-.6-.8-1.1.3-3,.7-6,1-9,.4-4.1.9-8.2,1.4-12.3.5-4.2.9-8.3,1.4-12.5.4-4,.9-7.9,1.3-11.8h0c.1-.5.6-.9,1.1-.8.4,0,.6.3.8.6,1.8,0,3.6.7,5.3,1,.1.1.2.3.3.4h0Z"/>
      <path class="cls-14" d="m84.62,230.06c-3-.6-5.9-5.6-8.1-11,.1,0,.2.1.3.1s.2.1.3.1h.1-.1c.4.1.8.2,1.2.2.1,0,.2,0,.4.1h.2c1.1,2.5,2.3,4.9,3.9,7,1.3,1.4,3.1,2.6,3.4-.2.2-1.5.2-3,.3-4.6.1,0,.2.1.4.1h0c.3.1.7.2,1,.3h-.1c.2.1.4.2.6.2h.1c-.2,4.5-1,7.6-3.3,7.6,0,.2-.3.2-.6.1h0Z"/>
      <path class="cls-14" d="m87.82,216.56h-.5c-.2,0-.4-.1-.5-.1h-.3c-.4-7.3-1.8-14.6-2.8-21.9-.9-7.9-2-15.8-3-23.7.1-1.4,2.1-1.2,2,.3.8,6.5,1.8,12.9,2.4,19.4.1,2.8,2.7,15.8,3.4,26.1-.2-.1-.5-.1-.7-.1h0Z"/>
      <path class="cls-14" d="m76.52,215.56c-.4,0-.9-.1-1.3,0-1.2-3.6-2.1-7-2.4-9,0-1.2-1.3-3.6.3-4,.5-.1,1,.3,1.1.8.6,3.6,1.3,7.4,2.5,10.8.2.5.4.9.6,1.4h-.8Z"/>
      <path class="cls-14" d="m76.22,246.86c-2-2.7-2.6-6.2-3.7-9.3-2.3-6.2-3.9-12.7-6.7-18.7-.5-.8-.9-1.7-1.3-2.6.1,0,.3.1.4.1.6.2,1.2.3,1.8.4.1,0,.2.1.4.1,1.5,3.3,2.8,6.7,3.9,10.1,2,5.7,3.7,11.7,5.9,17.4,4.7,8.1,5.7-7.6,6.1-10.5.1-1.5,0-2.8-.1-4.2,0-.5.3-1,.8-1.1s1,.3,1.1.8c.5,4.4-.3,8.8-1,13.2-.3,2.8-2.2,6-4.5,6-1,0-2-.5-3.1-1.7h0Z"/>
      <path class="cls-14" d="m60.62,208.96c-.8-1,.8-2.2,1.5-1.2,1.6,2.5,3,5.1,4.3,7.7-.7,0-1.4.2-2.1.3-1.1-2.3-2.1-4.7-3.7-6.8h0Z"/>
      <path class="cls-14" d="m85.42,196.96c-.4-.2-.5-.6-.5-1-.1-1.6-.1-3.2,0-4.8.4-6.6,1-13.2,2-19.8,1.6-10.8,4.2-21.5,7.3-32,2.2-7.5,4.6-15.3,9.9-21.3.8-1,2.3.2,1.5,1.2-6.4,7.4-8.5,17.2-11.1,26.3-2.8,10.1-5,20.4-6.3,30.8-.5,4.7-1,9.3-1.3,14-.1,1.8-.2,3.7,0,5.5.3.7-.7,1.6-1.5,1.1h0Z"/>
      <path class="cls-14" d="m166.92,165.46c-.3-1.8,2.9-1.5,4-1.8,5.4-.9,10.9-1.7,16.3-2.4,17.2-2.3,34.5-3.5,51.8-2.3,1.2,0,1.3,1.9,0,1.9-17.5-1.2-35,0-52.3,2.4-5.9.8-11.8,1.7-17.7,2.7-.7.2-1.8.6-2.1-.5h0Z"/>
      <path class="cls-14" d="m250.22,162.06c-1.6-.3-3.2-.4-4.8-.7-.5-.1-.9-.5-.8-1.1.1-.5.6-.9,1.1-.8,1.6.2,3.2.4,4.8.7,1.2.1.9,2-.3,1.9h0Z"/>
      <path class="cls-14" d="m254.92,163.96c-.8-.2-2-.4-1.6-1.5.4-.9,1.4-.5,2.1-.3,1.2.3.7,2.1-.5,1.8h0Z"/>
      <path class="cls-14" d="m185.42,155.16c-5.7-3.5,23.7-5.5,25.5-5.5,6.8-.2,13.5.4,20.2,1.4,1.2.2,1,2.1-.2,1.9-9.9-1.5-20-1.9-30-.6-5.3.6-10.5,1.4-15.5,2.8h0Z"/>
      <path class="cls-14" d="m188.02,190.46c0-1.6-.4-3.1-.9-4.6-.2-.9-1.5-2.4-.2-3,.5-.2,1.1,0,1.3.5.9,2.3,1.8,4.6,1.8,7.1,0,1.3-1.9,1.3-2,0h0Z"/>
      <path class="cls-14" d="m213.32,190.66c.1-3.3,1.6-6.4,2.8-9.5.2-.5.8-.7,1.3-.5s.7.8.5,1.3c-.6,1.5-1.2,3.1-1.8,4.7-.4,1.3-.9,2.6-.9,4,.1,1.3-1.9,1.3-1.9,0h0Z"/>
      <path class="cls-14" d="m274.02,203.36c-2.9-.6-4.3-3.8-5.9-6-.3-.5-.1-1,.3-1.3.4-.3,1.1-.1,1.3.3.7,1.1,1.4,2.2,2.2,3.3,5.5,6.2,1.5-4.6-.3-6.4-4.8-6.1-10.9-11.9-19-12.7-6.8-.7-13.8.7-20.1,3.1-2.9,1-5.4,2.8-7.5,4.9-.8.9-1.9,1.6-2.3,2.7,1.2.1,2.3-.8,3.4-1.3,2.5-1.4,5.1-2.4,7.6-3.9,1-.7,2,.8,1.1,1.5-2.8,1.7-5.9,2.9-8.8,4.5-1.4.7-3.4,1.8-4.8.5-.9-.9-.5-2.4.3-3.3,2.6-3,5.8-5.8,9.6-7.2,4.1-1.5,8.2-3,12.6-3.3,9.8-1.7,19.8,1.6,26.1,9.4,2.2,2.4,4.4,4.8,5.6,7.8,1,2.4,2.9,7.4-1.4,7.4h0Z"/>
      <path class="cls-14" d="m272.02,204.96c-5.6-1-8.5-6.4-12.5-9.8-8.5-6.9-20.9-.8-29.9,2.5-2.5.9-5.8,2.4-8.1.5-2.1-2-.4-5.2,1.4-6.8,1-1.1,2.7.1,1.6,1.2-1.1.8-2.8,3-1.6,4.2.5.4,1.2.3,1.7.3,3-.4,5.5-1.9,8.3-2.8,7.9-2.8,16.9-6.2,25-2.5,5.4,2.6,7.8,9.2,13.6,11.1-.3-.7-.5-1.6.4-1.9.5-.2,1,.1,1.2.6.6,1.2.7,3.5-1.1,3.4h0Z"/>
      <path class="cls-14" d="m238.72,189.26c-.2-1.6,2.9-1.4,3.9-1.8,2.7-.5,5.4-.8,8.1-.6,1.6.1,3.1.3,4.7.6.5.1.9.7.7,1.1-.1.5-.6.8-1.1.7-4.1-.7-8.1-.8-12.1,0-1.1.1-3.8,1.7-4.2,0h0Z"/>
      <path class="cls-14" d="m259.72,188.66c-1-.7-2.1-1.3-3.1-1.7-.5-.2-.8-.7-.6-1.2.8-1.7,3.7.8,4.8,1.3,1,.7-.1,2.3-1.1,1.6Z"/>
      <path class="cls-14" d="m116.12,198.26c-.4-1.9,1.5-3.3,2.7-4.6,5.3-6.2,12.9-10.5,20.9-12.2,11.8-1.9,24.5-1.3,35.4,4,2.4,1.3,4.8,2.7,6.9,4.4.9.8,2,1.7,2.2,3,.2.9-.5,1.7-1.3,2-4,1.4-8-1.5-11.3-3.6-1-.8.1-2.3,1.2-1.5,2.7,1.7,6.2,4.5,9.5,3.3h0c-7.2-8.2-22-11.2-32.6-10.6-12.2-.5-24.6,5-31.7,15.1,2.3,1,6.5-3.3,8.3-4.7.7-.6,1.8-2,2.7-1,.3.4.3,1-.2,1.4-2.7,2.1-9.7,9.8-12.7,5h0Z"/>
      <path class="cls-14" d="m183.62,205.26c-5.8-1.6-10.8-5.2-16.4-7.3-12.9-5.3-22.1-6.5-34.6.8-3.4,1.4-11.1,6.1-14.4,4.7-1.6-1.1-1.2-3.7.3-4.7,1.1-.8,2.2.9,1.1,1.6-3.7,5.3,16.2-5.5,17.4-5.9,4.1-1.8,8.5-2.9,13-2.8,8.9.5,17.3,3.9,25.2,7.9,3,1.2,5.8,3.3,9.1,3.9.6,0,.9,0,1.4-.2.1-.1.2-.1.3-.2l-.1.1c.1-.1.1-.2.1-.3-1.3-3.1-4.3-5.2-6.8-7.4-.5,0-.9-.5-.9-1,0-1.1,1.4-1.2,2-.6,2.2,2,9,6.9,7.1,10.2-.8,1.2-2.4,1.5-3.8,1.2h0Z"/>
      <path class="cls-14" d="m178.52,279.06c-7.2-1.2-13.6-9.4-13.4-16.6.1-6.9,5.2-13.4,12.6-12.1,4.4.7,7.5,4.6,9.5,8.3.5,1,.9,1.9,1.5,2.8.2.5,0,1.1-.5,1.3-.5.2-1,0-1.2-.4-.5-.8-1-1.9-1.4-2.7-1.8-3.3-4.5-6.9-8.5-7.4-7-1-10.9,6.6-9.8,12.7.5,3.1,2.6,5.8,4.5,8.1,1.9,2.2,4.5,3.6,7.4,4.2,1.1.3.6,2.2-.7,1.8h0Z"/>
      <path class="cls-14" d="m212.72,257.66c-1.1-4.4-2.6-8.6-3.5-13-1.3-7.6-1.5-15.3-.7-23,.5-5.6,2.7-10.9,4.4-16.1.3-1.2,2.2-.7,1.9.5-.1.5-.3,1-.4,1.4-1.5,4.2-3.1,8.3-3.7,12.8-1.1,8.5-.8,17.1.8,25.5,1,3.8,2.2,7.6,3.2,11.4.2,1.2-1.6,1.7-2,.5h0Z"/>
      <path class="cls-14" d="m196.32,283.16c-3.5-1-6.6-3.3-9.6-5.3-2-2-5.2-2.2-6.8.3-.1,1.2-1.9,1.2-1.9-.1.1-1.1,1-1.9,1.8-2.5,1.3-1.2,3.1-1.4,4.8-1,1.1.2,2,.8,2.9,1.5.1.1.1.2.2.2h-.1.1c.2.2.5.5.8.7s.6.4.9.6l-.1-.1c.2.2.5.3.7.5.2.1.5.2.7.3h-.1q.1,0,.1.1c2.1,1.3,4.1,2.7,6.5,3.2,2.2.4,4.4-.4,6.4-1.1,1.8-.6,3.5-1.1,5.2-1.8,5.2-1.3,10.4-3.7,13.9-7.9,1.8-2.7,1.4-6.2.5-9.2-2.6-6.3-8.5-10.4-12.3-16-.4-.7-.7-1.4-1.1-2-.3-.4-.1-1.1.4-1.3,1-.5,1.5.6,1.9,1.3,4.2,7.6,14.1,12.9,13.8,22.6.4,4-2.2,7.1-5.3,9.3-3.4,2.8-7.8,4-11.9,5.4-3.4.9-6.6,2.8-10.1,2.8-.9-.2-1.6-.2-2.3-.5h0Z"/>
      <path class="cls-14" d="m189.02,279.36c-1.6-2.2-3-4.5-4-7-1.2-2.7-2.4-5.7-4.8-7.5-1.1-.8-2.6-.4-3.7,0-3.3,1.5-2.5,5.9-1.8,8.7.6,1.5,1.7,2.8,3.1,3.5,1.4.2,1.7,1.8.2,2.1-5.2-1.2-6.7-7.8-5.6-12.4.6-2.2,2.5-3.6,4.7-4.1h1.4c.2,0,.4.1.6.2h0c.2.1.4.2.6.2.2.1.3.2.5.3h0c.1.1.3.2.4.3h0c.2.2.3.3.5.5.3.3.5.7.7,1,.1.1.1.2.2.3.4.8.8,1.7,1.2,2.6.2.5.4,1.1.6,1.6.2.4.4.9.5,1.3.4,1,.8,2.1,1.4,3,.3.4.5.8.9,1.2.2.3.5.6.7.9h0c.2.2.5.5.8.7s.6.4.9.6l-.1-.1c.2.2.5.3.7.5.2.1.4.2.6.3.4.7-.2,1.5-.9,1.5.1.1-.1,0-.3-.2h0Z"/>
      <path class="cls-14" d="m206.52,281.06c-.9-.1-1.2-1.4-.3-1.8,1.1-.8,2.2-1.8,2.9-2.9,2.4-4.1,3.8-8.9,7.6-12.1,5.3-3.8,5.2,4.2,4,7.4-.6,1.9-1.8,3.6-2.9,5.2-.3.4-.9.5-1.4.2-.4-.3-.5-.9-.2-1.4,1.7-2.5,3.2-5.2,3.1-8.3,0-.6.2-2.6-.9-2-5.6,3.7-5.4,13-11.9,15.7h0Z"/>
      <path class="cls-14" d="m209.92,278.66c-1.1-.6-.3-1.9.3-2.6,1.1-1.9,1.9-3.9,3.2-5.6.9-1.4,1.5-3.1,2.8-4.2.8-.8,1.7-1.7,2.9-1.8,1-.1,1.7,1.3.8,1.9,1.5.9-.9,6.3-1.7,7.6-.9,1.6-2.4,2.5-3.9,3.4-1.3.6-2.8,1.9-4.4,1.3h0Z"/>
      <path class="cls-14" d="m191.02,280.66c-3.3-.4-6.7-.5-9.9-1-1.6-.4-3.4-.4-4.8-1.3-.4-.3-.5-.9-.2-1.4.6-.8,1.4-.1,2.1.2,1.4.3,2.8.5,4.1.8,2.9.4,5.8.5,8.7.9,1.2-.1,1.2,1.8,0,1.8h0Z"/>
      <path class="cls-14" d="m187.52,279.06c-3.2-.8-6.8-.6-9.8-1.9-3.1-1.8-5-7.1-3.9-10.4.8-2.5,4.1-4,6.5-2.7.4.3.8.5,1.1.8.4.6.7,1.5,1,2,.4.6,1.1,1.4,1.4,2.1.1.2.2.5.3.7.2.4.4.9.5,1.3.4,1.1.8,2.1,1.4,3.1.3.4.5.8.9,1.2.2.3.5.6.7.9h.1c0,.3,0,.5-.2.8.5.2,1,.1,1.4.5.6.7-.1,1.6-.9,1.6-.2.1-.4.1-.5,0h0Z"/>
      <path class="cls-14" d="m191.52,367.76c-.9-.1-.9-1.1-.9-1.8.1-1.2-.6-2.2-1.6-2.8-.5-.2-.8-.8-.6-1.2.4-1,1.6-.6,2.2,0,1.3.9,2.1,2.5,2,4,0,.8-.2,1.9-1.1,1.8h0Z"/>
      <path class="cls-14" d="m246.52,312.26c-.4-.3-.6-.9-.2-1.3.8-1.1,1.6-1.9,2-3.2.1-.7.4-1.7,1.3-1.5.5.1.9.6.7,1.2,0,1.1-2.3,5.9-3.8,4.8h0Z"/>
      <path class="cls-14" d="m206.82,311.86c-.1-.3-.1-.6-.1-.9.1-.1.2-.1.2-.2.3-.2.6-.4.8-.6h.1c.2-.1.4-.2.6-.3-.3,1-.8,1.9-1.3,2.8-.2-.3-.2-.5-.3-.8h0Z"/>
      <path class="cls-14" d="m186.92,311.36c-.1,0-.3-.1-.4-.1h0c-.2-.7-.3-1.4-.3-2.1.2.2.4.3.5.4,0,0,.1,0,.1.1.1,0,.1.1.1.2s0,.1.1.1v1.4s0,0-.1,0h0Z"/>
      <path class="cls-14" d="m206.82,311.86c-.1-.3-.1-.6-.1-.9.1-.1.2-.1.2-.2.3-.2.6-.4.8-.6h.1s.1,0,.1-.1c4.1-1.8,8.4-1,12.7-.2,3.4.6,6.8,1.3,10.2.6,2-.4,4.1-.8,6-1.7,1.2-.5,4.9-3.3,5.7-1.7.6,1.6-2.4,1.9-3.4,2.7-6.7,4.1-14.8,3.2-22,1.5-2.7-.5-5.5-.6-8.1.5-.6.2-1.3.8-1.9,1-.1-.3-.2-.6-.3-.9h0Z"/>
      <path class="cls-14" d="m186.92,311.36c-.1,0-.2-.1-.3-.1-2.6-1.1-5.5-1-8.3-1h-9.7c-5.6-.1-11.4-1.2-16.4-4.1-2.6-1.4-5.6-2-8.3-3.4-.5-.2-.7-.8-.4-1.3.7-1.2,1.9,0,2.8.3,3.4,1.1,6.6,2.5,9.7,4.2,3.7,1.4,7.8,2.3,11.7,2.4,2.2.1,4.4.1,6.6,0,3.5-.1,7-.1,10.4.4.4.1.9.2,1.4.4l.1.1c.2.2.4.3.6.4h0c0,.1.1.1.1.2l.1.1v1.4q.1,0-.1,0,.1,0,0,0h0Z"/>
      <path class="cls-14" d="m149.32,304.96c-.4-1.8,3.3-1.4,4.4-1.8,2.5-.8,4.9-1.9,7.5-2.4,2.6-.6,5.2-.5,7.9-.8,7.2-.7,13.1-5.1,19.7-7.4,3.4-.3,5.1,3.2,6.8,5.5.7,1.3,2.1,2.1,2.8,3.4.7.8-.4,2.1-1.3,1.4-1-1.3-2.3-2.3-3.1-3.7h0c-1.3-1.7-2.4-4.4-4.8-4.7-4.6,1.5-8.7,4.4-13.3,5.9-2.6.8-5.4,1.6-8,1.7-2.5.2-5,.2-7.4,1-3,.7-5.8,2.4-8.9,2.4-.8.1-2,.5-2.3-.5h0Z"/>
      <path class="cls-14" d="m237.42,309.66c-2.3-.2-4.3-1.7-6.4-2.5-3.7-1.7-7.4-3.4-10.6-5.9-3.4-2.4-6.4-6.5-10.9-6.8-2.1.1-3.7,1.9-5.3,3-1.9,1.5-3.3,3.5-5.2,5-.3.3-.7.4-1.1.3-.8-.3-.8-1.3-.1-1.8,1.8-1.4,3.2-3.3,4.9-4.8,9-9.1,14.3,1.3,22.1,5.7,2.5,1.5,5.2,2.7,7.8,3.8,1.8.8,3.3,1.8,5.3,2,1.2.5.7,2.3-.5,2h0Z"/>
      <path class="cls-14" d="m200.02,333.46c-11.7-.3-24.1-1.7-33.7-8.9-4.4-3.9-8.5-8.1-12.3-12.6-1.8-2.2-3.2-4.8-5-6.9-.3-.2-.6-.5-.6-.9.1-1,1.3-1.3,1.9-.5,2,2.3,3.6,5.2,5.5,7.5,1.8,1.8,3.2,4,5.2,5.6,2.6,2.5,4.9,5.3,7.9,7.4,3.4,2.5,7.4,3.8,11.4,5,2.8,1,5.8,1.5,8.7,1.8,11.9,1.2,24.7,2.2,33.7-7.1,1.7-2.3,3.8-4.5,5.7-6.7.9-1.6,2.4-2.8,3.7-4.2,1.1-1,2-2.2,3.2-3.2.9-.5,1.7-2.2,2.8-1.2,1,1.3-1.1,2.2-1.9,3-2.7,2.5-5.2,5.3-7.5,8.2-2.4,2.3-3.9,5.1-6.5,7.1-6.1,5.2-14.3,6.9-22.2,6.6h0Z"/>
      <path class="cls-14" d="m138.42,70.06c-3.1-.4-6.8-.1-9.3-2.3-1.5-1.3-1.3-3.6.2-4.8,3.5-3.2,8.5-3.8,13-4.2,1.9-.1,14.8-.3,13,3.1-.4.4-1,.5-1.4.1-2.2-1.1-4.8-1.2-7.2-1.2-3-.3-6.2.1-9.1.6-1.8.1-10.1,3-6.9,5.4,2.3,1.3,5.2,1.2,7.7,1.5,1.3-.1,1.2,1.9,0,1.8h0Z"/>
      <path class="cls-14" d="m53.52,148.56c-6.6-1.7,10.2-24.7,12.6-28,6.3-8.2,12.9-16.3,20.6-23.2,11.3-9.3,24-16.9,37.3-22.9,4.6-1.9,9-4.2,13.7-5.8.9-.6,2,.6,1.2,1.5-5.4,2.2-10.8,4.5-16.2,7-6.5,3.2-13.1,6.5-19.2,10.3-5.1,3.5-10.3,7-15.1,10.9-6.8,5.9-12.5,12.9-18.1,19.9-4,5-7.6,10.4-11,15.8-2.3,4-5,8-5.5,12.7,3.5-1.5,5.1-5.5,7.4-8.3.7-1,2.3.1,1.6,1.1-2.4,2.9-4.9,8.8-9.3,9h0Z"/>
      <path class="cls-14" d="m48.62,214.96c-1.5-5.4-1.9-10.9-1.9-16.4-.7-9.8.7-19.7,3.3-29,2.4-11.8,6.6-23.3,13.2-33.5.6-1,1.3-1.9,2-2.9.3-.4.9-.5,1.3-.2,1.2,1.1-.8,2.4-1.2,3.4-6.5,9.7-10.6,20.8-13.1,32.1-2.3,9-4.1,18.1-3.7,27.4.3,5.1.1,10.2,1.1,15.2.3,1.1.5,2.1.8,3.2.2.5,0,1.2-.6,1.4-.5.1-1.1-.1-1.2-.7h0Z"/>
      <path class="cls-14" d="m80.92,165.56c.3-7.8,2.6-15.3,5.1-22.6.2-.5.8-.8,1.2-.6.5.2.7.8.6,1.2-1.8,5.1-3.5,10.4-4.4,15.8-.2,2-.7,4.1-.7,6,.2,1.4-1.7,1.5-1.8.2h0Z"/>
      <path class="cls-14" d="m88.12,140.66c-.4-.3-.6-.9-.3-1.3.6-1.2,1.2-2.3,1.8-3.5.7-1.4,1.4-2.9,2.2-4.3.2-.5.8-.7,1.3-.4.5.2.6.8.4,1.3-1.3,2.5-2.5,5.1-3.8,7.6-.3.6-1,1-1.6.6h0Z"/>
      <path class="cls-14" d="m75.62,172.06v-3.3c.2-1.2-.3-4.3,1.5-4.1.5.1.8.6.7,1.2-.4,2.1-.3,4.1-.3,6.2.1,1.2-1.8,1.3-1.9,0h0Z"/>
      <path class="cls-14" d="m123.22,133.66c-9.8-.7-18.8-10.4-17.3-20.3.7-3.6,2.2-8.4,6.2-9.4,4.8-.2,6.6,5.6,8.5,9.2.5,1.2-1.2,1.9-1.8.8-2.9-6.7-6.8-12.9-10.5-2.4-2.3,6.9,1.9,14,7.7,17.8,6.9,4.6,16.6,2.3,21.5-4h0c2.5-3,5-6,6.8-9.5,2.6-4.7,4.2-9.8,6.2-14.8,8-20.9,23.5-27.5,43.3-16.1,2.2,1.5,4.6,2.8,6.7,4.4,1.9,1.8,3.6,3.9,4.7,6.2.1.6-.4,1.1-.9,1.1s-.9-.3-1-.7c-.9-1.5-2-2.9-3.2-4.3-2.1-2.1-4.9-3.3-7.4-5.1h0c-16.4-9.8-31.6-6.1-39.1,12-3.8,8.1-5.9,17.2-11.8,24.2-1.8,2.1-3.3,4.2-5.3,6-3.6,3.2-8.4,5.2-13.3,4.9h0Z"/>
      <path class="cls-14" d="m104.02,119.06c-.4-.4-.4-1,0-1.4.7-.7,1.3-1.7,2.2-2.2,1-.4,1.7,1.2.8,1.7-1,.7-1.7,2.9-3,1.9h0Z"/>
      <path class="cls-14" d="m118.42,111.56c-1.7-1.8,2.4-2.7,3.5-3.5,1.7-.8,2.9-2.4,4.1-3.8,3.6-4,6.3-8.7,9.3-13.2,3.7-6.5,8-12.7,11.7-19.2,4.1-6.4,9.3-12,14.3-17.7,5.1-5.1,10.7-10,17.2-13,7.6-3.3,16.9-2.5,23.7,2.2,7.2,4.9,10.9,13.1,13.6,21.1,1.3,3.6,1.9,7.5,1.4,11.2-.2.9,0,2.6-1.3,2.5-.5,0-.9-.5-.9-1,.3-1.5.5-3.1.4-4.7-.1-3.6-1.2-7-2.6-10.3-2.4-6.9-6.4-13.8-12.7-17.7-9.6-6-21.1-3.4-29.3,3.7-8.6,6.5-15.3,15.1-21.7,23.7-3.9,6.9-8.4,13.4-12.3,20.3-2.9,4.5-5.7,9.2-9.3,13.3-1.8,2.5-4.1,4.4-7,5.5-.7.1-1.3,1.2-2.1.6h0Z"/>
      <path class="cls-14" d="m215.92,78.36c-1.9-.9,1.5-4.6,2-5.9,2.8-4.7,7-8.5,11.5-11.6,3.1-1.7,6.3-3.3,9.8-3.7,4.1-.6,9.8.7,8.5,6-1,4.3-3,8.5-5.7,12-.8.8-2.1,3.3-3.4,2.1-.6-.7.1-1.5.6-1.9,3.2-3.3,5.2-7.7,6.5-12,1.5-4.5-3.4-4.7-6.5-4.3-3.1.5-6.1,2-8.8,3.4-5.4,3.6-9.7,8.5-12.8,14.2-.4.7-.4,2.1-1.7,1.7h0Z"/>
      <path class="cls-14" d="m258.02,83.66c-3.4-.2-6.8-.9-10-1.8-.9-.4-3-.3-2.7-1.8.2-.5.7-.8,1.2-.6,4.7,1.3,9.6,2.9,14.5,2.2-1.7-2-4.3-2.8-6.6-3.7h0c-3.2-1.2-6.5-2.1-9.9-2.8-1.1-.4-3.9-.2-2.9-2,.4-.6,1.3-.3,1.9-.2,3.9.8,7.9,1.7,11.7,3.2,2.3.9,4.8,1.8,6.7,3.5,3.2,3.3-1,4.3-3.9,4h0Z"/>
      <path class="cls-14" d="m272.22,119.86c-10.2-7.8-20.6-15.6-32.4-20.8-10.3-3.8-21.6-3.1-32.4-2.7-1.2-.2-3.5,1-4-.6-.1-1.1,1-1.2,1.8-1.2,11-.7,22.3-1.4,33,1.8,6.4,2.1,12.2,5.8,17.8,9.4,5.9,4,11.7,8,17.2,12.4,1.1.9,0,2.5-1,1.7h0Z"/>
      <path class="cls-14" d="m284.72,120.46c-1.1-2.5-1.8-5.2-3.2-7.5-1.9-3-4.3-5.7-6.2-8.7-3.2-4.4-7.1-8.2-11.2-11.8-3.4-3.2-7-6.3-10.7-9.1-.8-.2-.8-1.6.1-1.8.6-.2,1.2.3,1.6.7,5.5,4.1,10.5,9,15.6,13.5,4.1,4.2,7.3,9,10.8,13.6,2.5,3,3.6,6.7,5,10.2.5,1.2-1.2,2.1-1.8.9h0Z"/>
      <path class="cls-14" d="m195.72,96.26c-8-7.5-19.1-12.7-30.2-12-1.2.1-1.4-1.8-.1-1.9,6.6-.6,13.3,1.3,19.3,4.1,3.3,1.6,6.4,3.4,9.3,5.7.9.9,4.5,2.9,3.2,4.2-.5.4-1.2.3-1.5-.1Z"/>
      <path class="cls-14" d="m190.32,97.96c-1.2-1.1-2.5-2-3.9-2.7-8.2-4.2-17.9-7.6-27.1-5.6-1.3.6-2.3-1.2-.9-1.8,6.2-1.7,13-.5,19,1.4,4.4,1.5,8.7,3.3,12.6,5.8.7.7,2.5,1.4,1.6,2.6-.2.5-.9.6-1.3.3h0Z"/>
      <path class="cls-14" d="m184.42,99.96c-1.9-1-4-1.7-6-2.4-1.1-.4-2.3-.7-3.4-1-.5-.1-.8-.7-.6-1.2.7-1.5,2.8,0,3.9.1,2.5.8,5.1,1.6,7.4,3,.9.8-.3,2.3-1.3,1.5h0Z"/>
      <path class="cls-14" d="m154.32,95.76c-.6-2.6,9.1-2.3,10.8-2.6,2.4,0,4.8.4,7.1.7,1,.2.9,1.8-.2,1.9-1-.2-1.9-.2-2.9-.3-2.3-.5-4.4-.3-6.7-.2-2.3,0-4.7.3-6.9,1.1-.4.2-1-.1-1.2-.6h0Z"/>
      <path class="cls-14" d="m173.92,101.46c-2.2-1.3-5-1.5-7.6-1.8-.5,0-.9-.6-.8-1.1.3-1.4,2.1-.6,3.1-.7,2.2.4,4.6.6,6.4,1.9,1,.9-.1,2.4-1.1,1.7h0Z"/>
      <path class="cls-14" d="m147.72,111.16c-1.1-1.4,3.3-3.6,4.2-4.5,4.7-3.7,13.7-7.9,17.8-1.5.8,1-.7,2.2-1.5,1.2-3.5-5.4-11.5-.9-15.3,2-1,.8-2,1.4-3,2.2-.6.6-1.5,1.4-2.2.6h0Z"/>
      <path class="cls-14" d="m130.42,195.36c-.9-1.7,1.9-2.2,2.9-2.8,3-1.4,6.1-2.5,9.4-3.2h.1v.3c-.1.2,0,.4,0,.6v.2c.1.4.3.7.7.8h.1c-3.6.7-7.2,2-10.5,3.6-.6.2-1.3.9-1.9.9-.4,0-.6-.1-.8-.4h0Z"/>
      <path class="cls-14" d="m168.62,189.16c-4.3-1.9-8.9-3.2-13.6-3.5-1.2-.2-1-2.1.2-1.9.3,0,.6.1.8.1,4.4.3,8.6,1.6,12.6,3.3.7.2,1.5.7,1.2,1.5-.1.4-.7.7-1.2.5h0Z"/>
      <path class="cls-14" d="m121.52,225.56c-1.3-1.3,1.2-2.5,2-3.4,3.3-2.8,6.7-5.5,10.5-7.6,5.2-3.4,11.6-4.6,17.7-4.4,8.1.4,15.5,4.3,22.3,8.5.9.8,3.4,1.5,2.6,3-.3.4-.9.5-1.4.2-1.3-1-2.6-1.8-4-2.6-6.4-3.6-13.5-7.3-21-7.1-3.6-.1-7.2.8-10.6,1.8-2.6,1-4.9,2.6-7.3,4-3.3,2.3-6.6,4.8-9.5,7.6-.2.3-.9.3-1.3,0h0Z"/>
      <path class="cls-14" d="m148.62,236.96c-9.7,0-18.3-7.5-22.1-16-.7-.9.7-2.1,1.5-1.2.6,1,.9,2.1,1.6,3,4.5,7.5,13,13.4,22.1,12.2,4.2-.9,8.3-2.8,11.5-5.8,2.3-2.2,4.3-4.9,6-7.5.7-1,1.7-4.1,3.1-3.3.4.3.6.9.3,1.3-2.6,4.3-5.3,8.4-9.1,11.8-4.2,3.1-9.5,5.8-14.9,5.5h0Z"/>
      <path class="cls-14" d="m151.02,226.76c-4.4-2.1-4.5-8.2-4.6-12.5.2-1.1-.6-3.7,1.1-3.8.5,0,1,.5.9,1-.1,1.5-.1,3,0,4.5.1,2.2.4,4.4,1.2,6.5.5,1.2,2.1,3.8,3.2,1.9,2.1-3.2,3-7.1,3.4-10.8.1-.8.1-2.2,1.3-2,.5.1.9.6.8,1.1-.3,3.3-2.4,15.8-7.3,14.1h0Z"/>
      <path class="cls-14" d="m122.82,219.06c-3.2-1,2.8-4.7,3.9-5.5,8.2-6.3,18.4-10.9,28.9-10,4.8.7,10.2,1.3,13.9,4.6.9.8-.2,2.3-1.2,1.5-.7-.6-1.2-1.1-2-1.5-16.7-7-30.7.2-43.5,10.9Z"/>
      <path class="cls-14" d="m146.42,243.76c-6.7-.7-12.9-4.2-17.4-9.1-1.1-1.1-6.3-6.6-3.1-7.3.6,0,.9.5.9.9.5,2.1,2.2,3.6,3.6,5.1,2.2,2.5,4.9,4.4,7.8,6,6.2,3.4,13.9,3.5,19.8-.5,1.1-.6,2,1.1.9,1.7-3.7,2.2-8.1,3.6-12.5,3.2h0Z"/>
      <path class="cls-14" d="m164.32,235.96c-.9-1.1.8-1.9,1.4-2.6,1.9-2,3.8-4.1,4.9-6.6.5-1.1,2.3-.3,1.8.8-1.1,2.5-2.8,4.6-4.7,6.5-1,.7-2.1,2.9-3.4,1.9h0Z"/>
      <path class="cls-14" d="m178.22,158.16c-.5-1.1.9-1.6,1.6-2s1.8-1.1,2.4-.2c.5,1-.6,1.5-1.4,1.8-.8.4-2,1.5-2.6.4h0Z"/>
      <path class="cls-14" d="m221.22,221.96c-2.3-1.3,3.1-4.5,4.1-5.5,11.9-8.7,27.3-8.4,38.3,1.5.4.3.5,1,.1,1.4-1.1,1.2-3-1.4-4.1-1.9-11.2-8.7-28-5.8-37.3,4.3,0-.1.1-.1.1-.2-.2.4-.7.6-1.2.4h0Z"/>
      <path class="cls-14" d="m240.52,231.16c-5.9-.9-14.4-5.1-16.8-10.8h0c-1-.6-.2-2.2.9-1.7.7.3.9,1.1,1.2,1.7,2.4,4.2,7.2,6.3,11.5,8.1,7.6,2.5,16.3-.7,21.2-6.8,1-1.1,2.1-2.1,2.9-3.3.3-.4.8-.6,1.2-.4.5.2.7.8.5,1.3-5,7.3-13.4,13.1-22.6,11.9h0Z"/>
      <path class="cls-14" d="m241.02,223.36c-.5-.3-.9-.8-1.2-1.3-.8-1.2-1.2-2.5-1.4-3.8-.5-2.1-.6-4.2-.7-6.3,0-.5.4-1,.9-1s1,.4,1,1c0,.9.1,1.7.1,2.6.1,1.1.3,2.2.5,3.2v.1c.1.7.3,1.3.5,1.8.1.4.3.7.5,1.1.1.2.2.3.3.5.1.1.2.2.2.3l.1.1h0q.1.1.2.2l.1.1s.1,0,.1.1h.6q.1,0,.1-.1c.1,0,.1-.1.2-.1s.1-.1.2-.2c.1-.1.2-.2.3-.3.2-.2.3-.4.4-.6h0c.2-.3.4-.7.5-1,.3-.7.6-1.3.8-1.9.4-1.1.6-2.2.8-3.3v-.1c.2-.9.3-1.8.4-2.8v-.1c.1-.5.6-.9,1.1-.8.5.1.9.5.9,1.1v.1h0c-.1,1-.2,1.9-.4,2.8-.3,1.5-.6,2.9-1.1,4.3-.5,1.4-1.2,2.9-2.3,4-.5.5-1.1.8-1.8.9h-.2c-.7-.1-1.3-.3-1.7-.6h0Z"/>
      <path class="cls-14" d="m223.12,214.56c-2.5-1.6,5.2-6.7,6.5-7.6,9.7-6.7,22.2-2.9,31.2,3.2.4.3.6.9.3,1.3-1,1.4-3.2-1.2-4.4-1.6-11.5-6.5-23-6.7-32.1,3.8-.3.7-.8,1.2-1.5.9h0Z"/>
      <path class="cls-14" d="m264.92,215.26c-.8-.8-3.2-1.1-2.7-2.6.9-1.5,2.7.5,3.8,1,1,.6,0,2.2-1.1,1.6h0Z"/>
      <path class="cls-14" d="m265.62,221.86c-.5-.5-1.5-.9-1.1-1.8.6-1.1,1.7-.3,2.3.3,1,.9-.2,2.4-1.2,1.5h0Z"/>
      <path class="cls-14" d="m187.42,239.86c-.9-4.5-1.1-9-1.9-13.5-1-7.2-2.7-14.3-3.5-21.6,0-1.2,1.8-1.4,1.9-.1,1.2,9.8,3.6,19.4,4.5,29.2.2,1.9.6,3.8.9,5.7.1.5-.2,1-.8,1.1-.5.1-1-.3-1.1-.8h0Z"/>
      <path class="cls-14" d="m178.52,251.56c-.9-.7-.1-1.7.4-2.3,1.2-1.8,2.5-3.6,3.7-5.5,2.3-3.8,3-8.1,3.8-12.3.2-.5.7-.8,1.2-.6,1.2.5.4,2,.3,2.9-.5,2.6-1.1,5.2-2.1,7.7-1.2,3.1-3.2,5.7-5,8.4-.7.7-1.1,2.4-2.3,1.7h0Z"/>
      <path class="cls-14" d="m286.82,263.86c-4.8-2.9-3.7-15.9-4.1-21.1-.5-14.8,1.3-29.5,2.1-44.2.7-12,1.1-24.3-1.3-36.1-1.9-8.4-3.8-17.3-6.5-25.4-2.6-6-4.3-12.4-7-18.4-.2-.5-.7-.8-.8-1.4-.1-.5.3-1,.8-1.1,1.2,0,1.6,1.7,2.1,2.5,1.9,4,2.9,8.4,4.7,12.5,2.5,5.7,4.1,11.6,5.4,17.7,2,7.5,3.9,15,4.6,22.7.5,6.3.5,12.6.3,18.9-.6,16.9-3,33.6-2.5,50.5.1,4.2.1,8.6.4,12.7.3,2.8.5,6,2.3,8.3,7.6-8.5,7.6-25.2,7.8-36.2,0-1.2,1.9-1.3,1.9,0,0,6.5-.2,12.9-1.2,19.3-.8,5.4-2,10.8-5,15.5-.9,1.4-2,3.7-4,3.3h0Z"/>
      <path class="cls-14" d="m298.12,252.16c-2.1-.4-2.7-3-3.8-4.6-.4-.6-.8-1.5,0-2,.5-.3,1.1-.1,1.3.3.8,1.4,1.4,3,2.5,4.1,1-3.4,1.1-7.1,1.4-10.5.3-4.5.5-9,.9-13.5h0c.8-12,.5-24.1.6-36.2,0-3.2,0-6.4-.1-9.6.2.3.3.5.5.8s.4.5.6.8.4.5.7.8c0,0,.1.1.1.2.3,9.2.1,18.5.1,27.7s-.8,19.1-1.4,28.5c-.2,3.2-.4,6.3-.9,9.4-.4,1.5-.5,3.8-2.5,3.8.1,0,0,0,0,0h0Z"/>
      <path class="cls-14" d="m302.12,171.46s0,.1.1.1c-.2-.4-.4-.7-.6-1.1-.1-.2-.2-.5-.4-.7-.2-.5-.5-.9-.8-1.3-.1-.2-.2-.3-.3-.5-.2-2.5-.5-5-.9-7.4-1.2-8-2.3-16.2-5-23.8-1.5-4.2-3-8.6-5.8-12.2-.9-1.1-1.6-2.5-2.9-3.3-.4-.1-.8-.5-.8-.9.5-2.3,2.9,0,3.6,1,6.8,8.3,9.4,19.2,11.3,29.5,1.3,7,2.1,13.9,2.6,21,0-.2-.1-.3-.1-.4h0Z"/>
      <path class="cls-14" d="m189.72,400.16c-8.5-.2-16.9-2.6-24.2-6.7-4.7-3.2-9.2-6.8-13.1-10.9-4.6-5.6-9.9-10.5-12.9-17.2-2.5-4.3-5.2-8.6-7.4-13.1-.4-1-1.7-2.8-.2-3.5.6-.2,1.1.2,1.2.7,2.2,5.4,5.5,10.3,8.4,15.3,2.2,4.7,5.5,8.6,9,12.3,4.5,5.8,10.1,10.5,16.1,14.6,8,4.5,17.3,6.8,26.4,6.4,12.8-1.3,23.9-9.4,32.2-18.9,8.5-12,13.2-26,20.8-38.5.6-1.1,2.3-.2,1.7,1-2.6,4.3-4.9,8.8-7.1,13.3-4.4,8.9-8.4,18-14.3,26-9.4,10.3-22.2,19.6-36.6,19.2h0Z"/>
      <path class="cls-14" d="m232.22,368.36c0-.6.5-.9.9-1.1,1.8-.5,3.5-1.5,5.2-2.3,4.7-2.4,8.9-5.7,13.1-9h0c2.6-2.7,5.4-5,7.9-7.8,3.3-4.5,6.3-9.3,9-14.2,5.6-14.2,8.2-29.5,10.1-44.6,1.1-8.8,2.3-17.5,3.6-26.3.3-2.1.9-4.1,1.2-6.2.1-.5.6-.9,1.1-.8,1.7.3.2,3.5.1,4.6-.9,4.6-1.4,9.2-2.1,13.8-2.3,16.6-3.7,33.4-8.6,49.5-1,3.5-1.9,7-3.4,10.3-1.5,3.2-3.5,6.2-5.5,9.2-2.4,4.3-5.7,7.9-9.3,11.1-2,2.1-4,4-6.4,5.6-2.9,2-5.6,4.3-8.8,5.9-2.1,1-4.1,2.1-6.3,2.8-.8.8-1.8.4-1.8-.5h0Z"/>
      <path class="cls-14" d="m279.72,292.06c-1.2,0-1.3-1.8-.1-1.9.5,0,.9-.1,1.3-.3,5.3-3.1,8.7-9.2,9.8-15.2.3-1.2,2.1-.8,1.9.4-.8,5.8-6.7,16.3-12.9,17h0Z"/>
      <path class="cls-14" d="m290.92,274.66c0-.5.4-.9.8-1,5.7-5.7,5.8-14.9,5.8-22.5-.5-1.4,1.5-2.2,1.9-.7.3,6.7.1,13.6-3,19.7-1,2-2.1,4.8-4.5,5.4-.5.1-1-.4-1-.9h0Z"/>
      <path class="cls-14" d="m280.72,273.66c.1-1.1,1.2-1.8,1.9-2.5,2.5-2.8,5-5.5,7.8-8,.8-.7,1.6-1.3,2.4-1.9.3-.4.9-.4,1.3-.1.4.3.5.9.2,1.4-3.6,2.9-7,6.2-10,9.7-.5.6-1.1,1.1-1.6,1.7-.1.4-.5.8-.9.8-.7-.1-1.1-.5-1.1-1.1h0Z"/>
      <path class="cls-14" d="m287.72,271.06c-.2-1.2-2-3.7-.4-4.3.5-.1,1,.2,1.2.7.3,1,.6,1.9,1,2.9.4,1.1-1.3,1.9-1.8.7h0Z"/>
      <path class="cls-14" d="m67.32,289.36c-3.5-.3-6.1-3.1-7.6-6.1-1.6-2.8-3.2-5.7-3.9-8.8-.7-3-1.1-6-1.1-9-.1-1.1.5-2.4-.4-3.2-2.4-2.8-4.6-5.9-6.3-9.3-3.1-5.2-5.5-10.9-5.9-17-1.1-10.2,6.2-22.5,17.6-21.2,3,.2,6,1.7,8,4,.8.8,1.7,2.6,0,2.8-.5,0-.9-.4-1-.9-2.7-4-8.3-5-12.6-3.4-8.5,3.2-11.5,13.7-9.7,22,.9,4.7,2.9,8.9,5.4,13,1.6,3.3,3.8,6.1,6.1,8.9,1.2,1.2.6,2.8.7,4.3,0,5.6,1.3,11.1,4.2,15.9,2.8,6.2,7.6,8,13.2,3.7.4-.4,1-.4,1.4,0,1.9,2.3-6.5,4.8-8.1,4.3h0Z"/>
      <path class="cls-14" d="m147.82,376.76c-7.1-2.3-12.1-8.5-18.1-12.6-14.5-10.7-26.9-23.9-38.1-37.9-2.8-4.2-5.9-8.1-8.1-12.7-2.9-4.2-4.5-9.2-6-14.1-1.4-4.1-2.9-8.2-3.2-12.6,0-8.5,3-16.7,4.7-24.9,1-5.4,2-10.9,2.4-16.4-.1-.6.2-1.4,1-1.4,1.8.2.6,2.8.7,3.9-.6,6.8-2,13.6-3.7,20.3-1.4,6.9-4.1,14-2.9,21,.6,3.1,1.7,6.3,2.7,9.3,1.5,4.3,2.4,8.6,5,12.3,2.1,3.6,3.9,7.4,6.5,10.6,2.1,3.4,4.8,6.4,7.3,9.5,5.9,6.8,12,13.6,18.6,19.7,5.7,5.2,11.6,10,17.8,14.6,4.4,3.1,8.1,7.6,13.4,9.3.7.1,1.4.6,1.2,1.3-.1.7-.7,1-1.2.8h0Z"/>
      <path class="cls-14" d="m79.42,260.96c-10-7.8-19.3-16.5-28-25.7-.9-.9.5-2.3,1.4-1.4,6,6.4,12.3,12.5,19,18.3,3,2.3,5.7,5.2,8.8,7.3,1,.8-.2,2.3-1.2,1.5h0Z"/>
      <path class="cls-14" d="m64.42,264.16c-1.1-.4-.3-1.7-.1-2.4.6-1.8,1.1-3.7,1.6-5.6.4-1.8.9-3.5,1.2-5.3,0-.5.5-.9,1-.9.9,0,1.1.9.9,1.6-.3,1.6-.7,3.1-1.1,4.7-.6,2.6-1.3,4.9-2.2,7.3-.2.6-.8.8-1.3.6h0Z"/>
      <path class="cls-14" d="m136.62,310.66c-2.9-6-2.7-13.2,0-19.2,5.4-9.5,15.1-15.5,22.5-23.3,1.5-1.7,3.3-3.2,4.4-5.3.8-1.6,1.5-3.2,2.1-4.9.2-1.1,1.9-1,1.9.2-1.1,4-3.2,7.8-6.4,10.7-7.4,7.9-17.1,13.8-22.7,23.3-2.5,5.5-2.8,12.3,0,17.8.5,1.1-1.3,1.9-1.8.7h0Z"/>
      <path class="cls-14" d="m246.42,296.66c-.4-7.6-3.3-14.9-8.2-20.6-3.5-3.6-7-7.3-10.6-10.9-1.6-1.9-3.9-3.3-5.1-5.6-.2-.4-.5-.7-.6-1.1-.3-1.2,1.5-1.7,1.9-.5v-.1c1.1,2.2,3.1,3.7,4.8,5.4,3.3,3.4,6.6,6.8,9.9,10.3,6,6,9.4,14.4,9.9,22.8.1,1.3-1.8,1.5-2,.3h0Z"/>
      <path class="cls-14" d="m111.82,214.26c-.9-.1-1.1-1.4-.4-1.8,3.3-1.5,6.9-2.1,10.3-3,19.5-4.6,40.5-4.4,59.7,1.5,1,.5,3.4.5,3.1,2.1-.2.5-.7.8-1.2.6-1-.4-2.1-.7-3.1-1.1-21.8-6.4-45.7-5.6-67.3,1.3-.2.4-.6.5-1.1.4h0Z"/>
      <path class="cls-14" d="m142.02,258.56c-4.7-.8-9.7-1-14-3.4-11.2-6.1-16.5-16.9-16.8-29.4.2-2-1.3-13.8,1.1-13.5.5,0,.9.5.9,1-.5,10.3-.6,21.5,5.1,30.5,2.8,4.6,7.5,8,12.2,10.5,5.1,1.7,10.4,2.5,15.7,2.4,11.8-.2,22.6-7.2,30-16,6.3-7.7,9.1-16.4,9.7-26.1-.1-.5.2-1,.8-1.1,2.4-.3.3,5.6.4,7-2.3,21-23.6,39.9-45.1,38.1h0Z"/>
      <path class="cls-14" d="m187.32,215.46c-1.6-.9-3-1.5-4.7-2-.8.1-1.4-.9-.9-1.5,1-1.3,5.1,1.2,6.4,1.7,1.2.6.3,2.3-.8,1.8Z"/>
      <path class="cls-14" d="m186.42,219.26c-2.6-2.7,8.5-4,10.1-4.2,5.2-.3,10.3-.1,15.4,1.2,1.2.4.6,2.2-.6,1.8-4.5-1.2-9.2-1.5-13.8-1.2-3.3.2-6.8.6-9.8,2.1-.4.5-.9.5-1.3.3h0Z"/>
      <path class="cls-14" d="m102.42,218.36c-.3-1.6,1.8-1.3,2.8-1.5,2.1-.3,4.3-.5,6.5-.6.5,0,1,.4,1,1-.1,1.5-2.3.8-3.3,1.2-1.9.1-3.9.4-5.8.7-.5,0-1.1-.2-1.2-.8h0Z"/>
      <path class="cls-14" d="m104.02,230.26c-2,.1-1.6-1.8-1.8-3.1-.2-2.9-.2-5.8-.2-8.8,0-.5.4-1,1-1,.5,0,1,.4,1,1,0,3.3,0,6.7.3,10,2.5-.1,5.1.2,7.5-.4.5-.2,1.1,0,1.3.5.2.5,0,1-.5,1.3h.1c-2.8.8-5.8.4-8.7.5h0Z"/>
      <path class="cls-14" d="m240.82,261.96c-9.5,0-18.9-5.5-23.3-14-3.3-7.5-5.6-15.8-5.8-24-.3-2.9-.3-5.7,0-8.6.1-1-.1-3,1.4-2.7.5.1.8.7.7,1.2-.7,4.5-.3,9.1-.1,13.5.5,5,1.9,9.7,3.3,14.4,2.7,9.7,11.2,17.3,21.4,18.1,10.6.8,26.9-1.8,33.4-11,5.9-9,11-19.1,12-29.9-.1-.4.1-.9.6-1.1,3.4-1-.4,9.7-.7,11.2-2.3,7.2-5.8,14.1-10,20.3-6.3,10-22,12.8-32.9,12.6h0Z"/>
      <path class="cls-14" d="m284.42,219.96c-6.4-3.9-13.3-6.9-20.8-8.3-6-1.2-12.2-2.1-18.4-1.7-2.8.1-5.5.1-8.3.7-6.9,1.1-14.1,1.7-20.8,3.5-1.2.2-3.5,2-4.3.5-.2-.5.1-1.2.7-1.3,4.8-1.9,10-2.4,15-3.3,5.4-.6,10.8-1.8,16.3-1.9,10.1-.6,20.5,1.1,30,4.4,4.2,1.6,8.3,3.6,12,6.2.5.8-.6,1.8-1.4,1.2h0Z"/>
      <path class="cls-14" d="m288.82,228.26c0-2.2.4-4.5.8-6.7-1.4-.5-2.8-1.1-4.3-1.3-.5-.1-.9-.6-.7-1.2.4-1.4,2.1-.5,3.1-.3,1.2.5,2.3.7,3.3,1.3.9.5.5,1.6.4,2.4-.3,1.9-.6,3.7-.6,5.6,0,1.4-1.9,1.5-2,.2h0Z"/>
      <path class="cls-14" d="m288.32,229.86c-1.7-.1-3.4-.3-5-.5-.5,0-1-.4-1-.9.1-1.6,2-.8,3-.8,1,.1,2.2.2,3.1.2.5,0,.9-.2,1.4-.1.5.1.8.7.7,1.2-.2,1.1-1.5.9-2.2.9h0Z"/>
      <path class="cls-14" d="m102.42,219.56c-4.5-1.2-9.1-2.1-13.7-2.8-.2-.1-.6-.1-.8-.1-.4-.1-.8-.1-1.3-.2h-.2c-2.6-.3-5.1-.6-7.7-.8-.1,0-.2-.1-.3-.1h-1.1c-.7,0-1.5-.1-2.2-.1h-.4c-2.4,0-4.8,0-7.2.1-.9-.2-1.8,0-2.7.2-2.2.2-4.3.5-6.5.8-1.2.2-1.6-1.7-.3-1.9,9.4-1.6,18.9-1.3,28.3-.2,4.3.4,8.5,1.3,12.7,2.3.9.2,2,.4,2.8.7.6.2,1.4.2,1.9.7.6.6,0,1.6-.8,1.6-.2-.1-.4-.2-.5-.2h0Z"/>
      <path class="cls-14" d="m102.82,229.96c-5.6-3.2-11.9-4.8-18-6.5-7.1-2.2-14.2-4.1-21.5-5.6-1.2-.3-.9-2.1.4-1.9.2,0,.4.1.5.1.2.1.5.2.7.2.6.2,1.2.3,1.8.4.2.1.5.2.8.2h.3c.3.1.6.1.9.1,2.2.5,4.3,1.1,6.5,1.6.1.1.2.1.3.1s.3,0,.4.1h.2c.1,0,.2.1.4.1s.2.1.4.2c.1,0,.2.1.3.1h0c.4.1.8.2,1.1.2h.1c2.2.6,4.5,1.2,6.7,1.9.2.1.3.1.5.2.3.1.5.2.8.2.1,0,.3.1.4.2h.1-.1c.3.1.7.2,1,.3h-.1c.2.1.4.2.6.2h0c.1,0,.3.1.4.1h.2c2.9.9,5.8,1.8,8.6,2.8,2.1,1,4.2,1.7,6.1,3,.7.6.1,1.7-.7,1.7.3.2.1.2-.1,0h0Z"/>
      <path class="cls-14" d="m151.52,225.66c-2.6-.6-3.1-3.7-3.4-5.9-.4-2.5-.5-5.1-.1-7.6,0-.7,1-1.2,1.5-.7,1.8-.2,3.6-.2,5.3.2.9,0,1.7.6,1.8,1.5.2,2.9-1.7,12.3-5.1,12.5h0Z"/>
      <path class="cls-14" d="m241.22,221.96c-.6-.3-.8-1-1-1.6-1-2.4-1.3-5-1.1-7.5-.2-1.2,1.4-2.1,1.9-.8,4.2-1.3,7-1,5.3,4.1-.8,2.4-1.7,6.7-5.1,5.8h0Z"/>
      <path class="cls-14" d="m240.62,245.86c-4.3-.4-7.7-3.3-10.1-6.8-2.4-3-4.5-6.4-6.1-10-.2-.5,0-1.1.4-1.3.5-.2,1.1,0,1.3.5.5,1.1,1.1,2.2,1.6,3.3,1.2,2.4,2.9,4.5,4.5,6.6,1.6,2.2,3.8,4.4,6.5,5.2,10,3.3,16.6-7.5,20.7-14.9.2-.5.8-.7,1.3-.4,2.2.9-5.1,9.7-6.1,11.1-3.1,4.3-8.5,7.8-14,6.7Z"/>
      <path class="cls-14" d="m82.42,276.46c-.5-.1-.8-.7-.7-1.2.5-2.1,1-4.1,1.5-6.2.6-2,.8-4.2,1.5-6.1.4-.6,1.5-.4,1.7.3-.1,1.7-1.1,4.5-1.4,6.4-.5,2-.9,4-1.4,6-.2.6-.8.9-1.2.8h0Z"/>
      <path class="cls-14" d="m81.82,284.06c-.3-1.3-1.4-5.9.5-6.1.5,0,1,.4,1,1-.2,1.2-.1,2.5.2,3.7.2.7.5,1.8-.5,2.1-.5.1-1.1-.2-1.2-.7Z"/>
      <path class="cls-14" d="m198.42,315.86c-4.1-.3-12.8-.4-12.4-6.2,0-.8.4-1.9,1.4-1.6.5.2.8.7.6,1.2-.2.9-.1,2.1.8,2.6,3.9,2.4,18,4.1,17.8-2.9,0-.5.5-.9,1-.9,1.3.2.9,1.8.7,2.7-.9,4.1-6.2,5.2-9.9,5.1h0Z"/>
      <path class="cls-14" d="m194.02,338.56c-1.2-.2-5,0-4.6-1.9.2-.5.7-.8,1.2-.6,2.5.8,5.3.7,7.8.7.7,0,1.8-.1,1.9.9,0,1.1-1,1.1-1.8,1-1.5,0-3,0-4.5-.1h0Z"/>
      <path class="cls-14" d="m191.92,157.26c-.1-.5.3-1,.9-1.1,4.3-.7,8.7-1.3,13-1.6,12.5-1,25.1-1.3,37.4.8,1.2.2,1,2.1-.3,1.9-13-2.2-26.3-1.7-39.3-.6-3.6.2-7.1.8-10.6,1.4-.5.2-1-.3-1.1-.8h0Z"/>
      <path class="cls-14" d="m145.62,375.06c-7.6-7.1-15.1-14.5-22-22.3-3.8-4.6-7.2-9.4-10.7-14.2-7-9.6-13.5-19.8-16.8-31.4-.2-.5.1-1.1.6-1.2,1.6-.5,1.7,2.9,2.3,3.9,3.3,10,9.1,18.9,15.3,27.4,5.6,7.9,11.4,15.8,18.4,22.6,4.5,4.6,9,9.3,13.8,13.6,1.5.8.4,2.8-.9,1.6h0Z"/>
      <path class="cls-14" d="m233.12,368.06c-.4-.3-.4-1-.1-1.4,1.2-1.4,2.5-2.6,3.7-3.9,2.3-2.5,4.6-5,6.8-7.5,4.8-6.1,9.3-12.5,13-19.2,2.1-4.4,3.4-9,5.2-13.6.4-1.2,2.2-.6,1.8.6-2,5.1-3.4,10.4-6,15.2-3.9,6.7-8.3,13.1-13.2,19.1-2.8,3.2-5.7,6.4-8.7,9.4-.7.6-1.4,2.1-2.5,1.3h0Z"/>
      <path class="cls-14" d="m49.02,219.86c-1.8-.2-.6-4.1-.2-5.2,0,.1-.1.2,0,.4-.1-1.3,1.8-1.4,1.9-.2-.1.9-.5,1.7-.6,2.7-.2.8.2,2.3-1.1,2.3Z"/>
      <path class="cls-14" d="m303.92,185.96c-1.3-.3-6.1-4.6-4.5-5.8.4-.3,1-.2,1.3.2.2.3.3.5.5.8s.4.5.6.8.4.5.7.8c.2.3.5.5.8.8.1.1.2.2.3.2h0s.1,0,.1.1c.6.4,1.3.5,2.1.5h-.1c.3,0,.6-.2.7-.5v.1c.6-1.8-.6-3.7-1.2-5.4-1.1-3-2.5-5.7-4.1-8.4-.1-.1-.1-.3-.2-.4-.2-.4-.4-.7-.7-1.1-.1-.2-.2-.3-.3-.5-.4-.6-.2-1.6.6-1.7.5,0,.9.3,1,.7,1.3,2.4,2.9,4.7,3.9,7.3,1.1,3.2,3.6,6.5,2.7,10-.5,1.3-1.6,1.8-2.9,1.8-.2.1-.7-.1-1.3-.3h0Z"/>
      <path class="cls-14" d="m293.52,170.96c-.2-4.4-.7-8.5-1.4-12.8-.1-.5.3-1,.8-1.1s1,.3,1.1.8c.3,2.1.6,4.3.9,6.4.2,2.2.4,4.4.5,6.7,0,.5-.5,1-1,1-.4-.1-.8-.5-.9-1h0Z"/>
      <path class="cls-14" d="m150.92,101.96c-1.7-3.1,9.5-3.6,11.3-3.8,1.3-.1,1.4,1.8.2,1.9-3.5.4-7.1.2-10.2,2-.4.3-1,.2-1.3-.1h0Z"/>
      <path class="cls-14" d="m293.22,215.66c-2.1-1.3-2.6-4.2-2.9-6.5.1-1.1-.7-3.2.9-3.3.5,0,.9.5.9,1,0,2.4.2,5,1.6,6.9.9-4.2-.2-8.4-.2-12.6-.2-7.9,0-15.9-.5-23.8-.2-1.2,1.6-1.5,1.9-.4.5,8,.2,16.1.5,24h0v.1h0v-.1c-.2,2.7,2.6,16.2-2.2,14.7h0Z"/>
      <path class="cls-14" d="m120.42,189.56c-1.4-1.1,1.9-3.3,2.6-4.3.9-.8,1.8-1.6,2.7-2.5.4-.3,1-.4,1.4,0,1.2,1.3-2,2.8-2.7,3.8-.8.8-1.8,1.8-2.5,2.6-.3.5-1,.8-1.5.4Z"/>
      <path class="cls-14" d="m129.82,182.06c-.4-1.4,1.5-1.5,2.4-1.8.9-.2,2.5-.7,2.7.6.1.9-.9,1.1-1.6,1.2-1.2-.1-2.8,1.3-3.5,0h0Z"/>
      <path class="cls-14" d="m141.22,190.96c-.5-1.4,1.4-1.6,2.4-1.7.5-.1,1-.3,1.5-.3,1.3.2,1,2.1-.3,1.9-.6.2-1.2.2-1.8.4-.6.4-1.4.4-1.8-.3h0Z"/>
      <path class="cls-14" d="m169.82,318.36c-.3-.1-.4-.5-.3-.8.3-.6.6-1.2.9-1.9v.1c.2-.7,1.3-.4,1.1.3-.3.7-.6,1.3-.9,1.9-.2.4-.6.5-.8.4Z"/>
      <path class="cls-14" d="m184.72,323.26c-.8-.2-.4-1.2-.2-1.8.1-.3.4-.5.7-.4.4.1.5.6.3,1-.1.5-.1,1.3-.8,1.2h0Z"/>
      <path class="cls-14" d="m181.92,321.16c-.8-.3-.1-1.2,0-1.8.1-.3.4-.5.7-.4.5.2.4.8.2,1.1-.1.5-.2,1.2-.9,1.1h0Z"/>
      <path class="cls-14" d="m178.42,320.66c-.3-.1-.4-.5-.3-.8.5-1,1.1-2,1.6-3,.1-.3.4-.4.7-.3.7.3.3,1,0,1.4-.4.8-.9,1.6-1.3,2.4-.1.3-.4.4-.7.3h0Z"/>
      <path class="cls-14" d="m89.22,305.26c0-.8-.9-3.6.3-3.6.3,0,.6.3.6.6.1,1,.2,2,.3,2.9,0,.7-1.2.8-1.2.1h0Z"/>
      <path class="cls-14" d="m112.52,278.26c-.8-.3-.3-1.2.4-1.3.7-.1,1.4-1,2-.2.3.7-.6.9-1.1,1.2-.5,0-.9.3-1.3.3h0Z"/>
      <path class="cls-14" d="m56.32,227.96c-1-2.8-1.1-5.8-1.4-8.8.1-.8-.9-2.6.3-2.7.3,0,.6.3.6.6.7,3.1.4,6.3,1.3,9.3.1.7.8,1.6,0,2-.4,0-.7-.1-.8-.4h0Z"/>
      <path class="cls-14" d="m53.22,221.56c-.3-1.2-.5-2.3-.8-3.5,0-.3.2-.5.5-.6s.6.1.7.4c.3,1.2.5,2.3.8,3.5.1.7-1.1.9-1.2.2h0Z"/>
      <path class="cls-14" d="m53.62,226.26c0-.7-.8-2.3.4-2.3.8.3.5,1.5.7,2.2.1.7-1,.8-1.1.1h0Z"/>
      <path class="cls-14" d="m51.52,223.06c-.8,0-.7-1.6-.2-1.9.4-.3,1,.2.8.7,0,.5.1,1.2-.6,1.2Z"/>
      <path class="cls-14" d="m279.52,288.56c-1.1-.6.3-1.4.8-1.8,1.5-1.2,2.7-2.8,3.7-4.4.4-.8.8-1.5,1.2-2.3.1-.3.5-.4.8-.3s.4.5.3.8c-1.3,2.6-2.9,5.2-5.2,7-.6.4-1,1.1-1.6,1h0Z"/>
      <path class="cls-14" d="m288.12,278.56c-.8-.2-.2-2,.5-1.7.9.2.3,1.9-.5,1.7Z"/>
      <path class="cls-14" d="m262.22,226.66c-.3-.1-.4-.5-.3-.8.4-.8.8-1.5,1-2.2h0c0-.7,1.2-.7,1.2,0-.2.9-.7,1.8-1.1,2.6-.2.4-.5.6-.8.4h0Z"/>
      <path class="cls-14" d="m124.12,225.76c-.1-.8-.8-2-.1-2.5.2-.2.7,0,.7.2.3.6.2,1.4.5,2.1.2.7-.9.9-1.1.2h0Z"/>
      <path class="cls-14" d="m165.42,237.76c-.2-.2-.1-.6.1-.8.6-.4,1.2-.8,1.8-1.3.6-.3,1.1-1.3,1.8-1.3,1.4.6-.6,1.7-1.1,2.2-.7.4-1.9,2-2.6,1.2h0Z"/>
      <path class="cls-14" d="m155.12,244.66c-.2-.2-.1-.6.1-.8.9-.6,1.8-1.1,2.7-1.7.4-.3,1.1-.6,1.3,0,.2.7-.7.9-1.1,1.2-.9.5-1.6,1.2-2.6,1.5-.1,0-.3-.1-.4-.2h0Z"/>
      <path class="cls-14" d="m257.52,238.36c-.8-.7.7-1.9.9-2.6.5-.5.4-1.9,1.3-1.7.9.4.1,1.4-.2,2-.4.7-.8,1.4-1.3,2.1,0,.3-.4.4-.7.2h0Z"/>
      <path class="cls-14" d="m91.32,180.96c-.3,0-.5-.4-.5-.7.2-2.2.5-4.5.7-6.8-.1-1,3.8-29.7,5.5-23.9-2.2,7.3-3.3,15-4.2,22.5-.2,2.8-.5,5.6-.8,8.3,0,.5-.4.7-.7.6h0Z"/>
      <path class="cls-14" d="m95.52,167.26c-.3,0-.6-.3-.5-.6.1-1.3.3-2.7.5-4,.1-.7,1.3-.5,1.1.2-.2,1.3-.4,2.5-.5,3.8,0,.3-.2.6-.6.6h0Z"/>
      <path class="cls-14" d="m95.22,172.06c-.9-.2-.3-1.3-.3-2,.1-.5.1-1.5.9-1.3.7.2.3,1,.3,1.5-.2.6,0,1.9-.9,1.8h0Z"/>
      <path class="cls-14" d="m97.82,167.36c-.8-.2-.3-1.2-.2-1.7.5-.9,1.5-.2,1,.7v-.1c-.1.5-.2,1.2-.8,1.1h0Z"/>
      <path class="cls-14" d="m190.92,232.66c.1-.8-1-3.6.3-3.6.3,0,.6.3.5.6.1,1,.2,1.9.3,2.9.2.7-1,.8-1.1.1Z"/>
      <path class="cls-14" d="m185.32,251.46c-1.3-1-2.8-1.8-4.1-2.5-.3-.1-.5-.4-.4-.7.5-1.2,2.3.7,3.1.9.7.4,1.4.9,2.1,1.4.2.2.4.5.2.8-.3.2-.7.3-.9.1h0Z"/>
      <path class="cls-14" d="m183.22,248.06c-.4-.4-1.4-.5-1.3-1.3.4-.9,1.4,0,1.9.3.7.4,0,1.4-.6,1h0Z"/>
    </g>
  </g>
</svg>