<?xml version="1.0" encoding="UTF-8"?>
<svg id="Layer_1" data-name="Layer 1" xmlns="http://www.w3.org/2000/svg" viewBox="0 0 338.82 376.83">
  <defs>
    <style>
      .cls-1 {
        fill: #c99075;
      }

      .cls-2 {
        fill: #ae6b6d;
      }

      .cls-3 {
        fill: #c99074;
      }

      .cls-4 {
        fill: #7e7e82;
      }

      .cls-5 {
        fill: #c3c3ca;
      }

      .cls-6 {
        fill: #68302f;
      }

      .cls-7 {
        fill: #f2c6a9;
      }

      .cls-8 {
        fill: #939397;
      }

      .cls-9 {
        fill: #d48e6d;
      }

      .cls-10 {
        fill: #efeae1;
      }

      .cls-11 {
        fill: #3d1a17;
      }

      .cls-12 {
        fill: #ededed;
      }
    </style>
  </defs>
  <g id="Capa_de_vector13" data-name="Capa de vector13">
    <g>
      <path class="cls-7" d="m59.12,212.35c.2-.5.6-.7,1-.7-.3,1.3-.6,2.7-.5,4-.3,2.8-.1,5.7.5,8.5-1.2-3.7-1.6-7.9-1-11.8h0Z"/>
      <path class="cls-7" d="m76.02,268.55c.1.4.2.8.3,1.2-.5-1.2-.9-2.3-1.4-3.5-.7-3.4-1.7-6.7-2.2-10-.3-3.2-.9-6.4-1.5-9.6-.6-3.5-.4-7.2-1.4-10.5-.2-.1-.4-.2-.6-.3-.1,0-.2,0-.3-.1,2.2-1-.1-13.6.4-15.3-.7-4.3,1.8-9.4-1.3-13-2.2-3.7-4.2-7.4-6-11.4-.9-1.9-2.4-3.5-3-5.5-.1-.4-.4-.6-.8-.7.2-.7.8-1.6-.1-2.1-.5-.2-1-.1-1.3.4-.3.6-.5,1.2-.6,1.9-.7,3.5-1.2,7.2-.5,10.8-1.7-3-3.1-6.2-4.1-9.4-1-7,1.8-14.9,7.4-19.2.4-.3.9-.5,1.3-.4.1-.2.3-.4.5-.6,0-.7.2-1.3,1.2-1.1.5.1.7.6.7,1h0c.4,4.6,1.9,9,3.4,13.3,1,3.5,3.3,6.4,5.3,9.4h0v-.1c-.2,1.6-.4,3.1-.4,4.7,0,2.7-.3,5.5-.6,8.1-.1,5.9-.5,11.8-.5,17.7.5,6.2.4,12.5,1.6,18.7.4,3.7.8,7.3,1.1,11,.7,4.8,2,9.7,3.4,14.6h0Z"/>
      <path class="cls-7" d="m84.52,283.95c.8,1.4,1.7,2.8,2.6,4.2-1.7-2-3.3-4-4.7-6.2-1.6-2.5-3-5.2-4.2-7.9,1.8,3.4,4.2,6.6,6.3,9.9Z"/>
      <path class="cls-7" d="m86.62,80.15h.3c-1.2,1.2-1.7,3-2.1,4.7-.9,3.8-1.6,7.6-2.1,11.4v.2c-1.1,3.7-1.9,7.5-2.7,11.3.2-2.7.6-5.5,1-8.2.5-2.3,1-4.5,1.5-6.8.5-3,.6-6.3,2-9,.1-.6-.1-1-.4-1.1v-.1l1.5-1.5s.1,0,.1.1c0-.1.1-.2.1-.3s0-.1,0,0c.3-.2.6-.5.8-.7h0Z"/>
      <path class="cls-7" d="m115.12,144.45c-2.9-.2-5.9.2-8.8,1.1.5-.2,1-.4,1.5-.7,2.4-.8,4.9-1,7.3-.4h0Z"/>
      <path class="cls-7" d="m127.02,149.15c.7.7,1.5,1.4,2,2.3-1.3-1.6-2.8-2.9-4.4-4,.8.5,1.6,1.1,2.4,1.7h0Z"/>
      <path class="cls-7" d="m135.22,150.65c.3-.1.6-.3.7-.7-.1.7-.4,1.4-1,2-.3.2-.6.5-1,.6.1-.4.2-.7.1-1.1.1-.1.1-.2.2-.4.1,0,.3,0,.4-.1.3-.1.4-.2.6-.3h0Z"/>
      <path class="cls-7" d="m129.02,97.35c1.5.6.6,3-.9,2.4-1.5-.5-.6-2.9.9-2.4Z"/>
      <path class="cls-9" d="m129.02,97.35c1.5.6.6,3-.9,2.4-1.5-.5-.6-2.9.9-2.4Z"/>
      <path class="cls-7" d="m280.22,229.45c-1.1,2.8-2.6,5.6-4.3,8.1,1-2.6,1.9-5.4,4.3-8.1Z"/>
      <path class="cls-7" d="m226.42,303.75c-2.2,1.9-4.4,3.7-6.9,5.2-.6.4-1.2.8-1.8,1.2,3-2.1,5.8-4.2,8.7-6.4Z"/>
      <path class="cls-7" d="m260.82,248.15h-.3c0,1.1-.1,2.2-.3,3.2-.4,3.9-1.5,7.8-2.7,11.5-.4.9-.5,2.8-1.5,3-.3,1-.6,2-1,3-.4.8-1.3,3.3-2.4,4.6,1.1-2.1,2.1-4.3,2.9-6.5.8-2.7,1.7-5.5,2.7-8.2,1-3.7,1.5-7.6,1.9-11.4.3.5.4.7.7.8h0Z"/>
      <path class="cls-7" d="m128.12,99.85c1.5.6,2.5-1.8.9-2.4-1.5-.6-2.4,1.8-.9,2.4Zm71.3,152.2c.1-.2.2-.3.4-.5-.4-.6-.8-1.2-1.2-1.7-.7-.8-1.3-1.6-2-2.4-.9-1-1.8-2.1-2.8-3.1-1.6-1.7-3.3-3.4-5.1-4.9-3-2.7-6.6-4.4-10-6.5-4-2-8-4.2-12.5-4.8-4.2-.4-8.4.4-12.5,1-4,1-8.1,1.7-12.2,1.2-5,.1-10,1.6-14.3,4-3,1.5-5.6,3.3-8.4,5.1-2.1,1.5-4.5,2.9-6.4,4.7.1.4,0,.9.1,1.3.2.7.6,1.3.9,1.9-.4.4-.4,1.1.1,1.5.3.8.7,1.6,1.1,2.3.4.9.8,1.8,1.2,2.6.1,1.8,2,4.6,3.3,6.2,1.7,2.8,3.6,5.5,5.7,8,.7,1,1.8,1.7,2.8,2.2,2.8,1.5,5.3,3.2,8.3,4.3,5.2,1.4,10.6,2.5,16,2.2,4.6-.2,9.2-.4,13.8-1.2,3.8-1.4,7.5-3.2,11.3-4.5,2.1-.9,3.9-2.3,5.7-3.5,2-1.2,4.2-2.2,6-3.8,2.5-2.1,4.5-4.7,7.1-6.8.2-.2.4-.4.5-.6.7-.6,1.4-1.2,1.9-1.9.3-.4.2-.8,0-1.1.6-.3.9-.8,1.2-1.2h0Zm28.9-90.7c-.2-1.4.2-3,0-4.5-.3-2-1.6-3.7-3-5.2-.4-.6-1-1.1-1.7-.8-.5-.4-1.1-.8-1.6-1.3-2.5-2-5.6-2.9-8.4-4.3-2.3-1.5-4.9-2.5-7.5-3.1-8.5-1.8-11.5-1.6-17,2.2-.4-.2-.8-.3-1.2.1-3.2,2.9-6.4,6.3-7.1,10.8-.5,1.5-.1,3,1.2,4,.8.7,1.6,1.4,2.7,1.3.7,0,1-.5,1-1.1,2.4.6,5,.4,7.5.5,4.2,0,8.4.2,12.6.2,3.5-.2,6.9.9,10.4,1.3,3.2.1,6.3,1,9.5,1.3.4,0,.9,0,1.3-.2v-.1c.5.2,1.5-.2,1.3-1.1Zm5.6-19.8c0-.2.1-.4.3-.5-2.5-3.3-6.8-5-10.5-6.9-6.4-2.6-12.9-4.8-19.7-6.2-2.2-.6-4.5-1.4-6.8-1.6-6-1.1-13.8-3.2-19.2.1-.6.2-1.1.6-1.5,1,0,.1-.1.1-.1.2-.5.4-.9.9-1.3,1.4.5.4,1.1.6,1.7.7.7.6,1.7,1,2.7,1,.1.1.2.2.4.3-.7.7-1.7.7-2.5,1.3-.5.4-.7.7-.7,1.1-.1,0-.1.1-.2.1,0,.2,0,.5-.1.8.2.5.5,1,.8,1.4,1,.3,2.1.2,3,0,1.4-.2,2.7-.5,4-.7,5.1-.2,10.2-.6,15.4-.2,2.8.2,5.5.7,8.2,1.6,3.2.6,6.3,1.2,9.3,2.6.9.5,3.2.7,3.2,1.8.6.2,1.2.4,1.7.7,1.4.6,2.9,1,4.4,1.5,2.5.6,5.5,2.6,8,1-.1-.9-.5-1.6-.5-2.5h0Zm61.8,47.6c5.6,6.9,4,16.6,0,23.9-3.1,6.2-8,12.4-14.4,15.3,1-.9,2.2-1.8,3.7-2.7.1,0,.2,0,.3-.1h0c.8,0,1.1-.7.9-1.3h0c2.5-4.9,3.7-10.2,3.7-15.7-.2-2.4.2-5.2-1-7.4-1.1-2.1-3-.2-4.2.8-2.6,2.1-5.4,3.9-7.9,6.1,0,0-.1,0-.1.1-4.8,3.9-9,8.5-12.8,13.4-.7,1-1.5,2-2.1,3,0,0,0,.1-.1.1-.2.3-.4.6-.6.9-.3.1-.6.3-.7.8v.4c-.4.6-.7,1.3-1,2-1.6,4.5-2.8,9.2-4.5,13.8-3.5,8.7-6.7,17.6-11.9,25.4-5.2,7.5-11.8,13.9-17.6,20.9-4.1,4.5-7.7,9.4-11.4,14.2-3.3,3.6-6.2,7.6-9.6,11.2-1.2,1.4-2.2,3-3.4,4.5-.4.4-.5,1-.1,1.4l.1.1c-.1.1-.3.1-.4.2-.5.3-1.1.5-1.5,0-2.8,2.6-5.3,5.6-8.4,7.9-2.7,1.7-5.5,3.2-8.6,4.2-1.2.2-4.9,2.3-5.4.6v-.3c-.2,0-.4.1-.5.1-2.7.8-5.3,1.4-8,1.9-.8.8-3.1.5-4,.8-3.8.5-7.6,1.3-11.5,1.1-11.6-.5-23-4.7-33-10.6-5.8-4.7-11.2-10.2-15.4-16.2-1.2-1.7-2.4-3.2-3.5-4.9-.4-.6-1-1.4-.9-2-.6-.8-1.3-1.5-2-2.3,2.5-.2,0-3.5-.5-4.7s-1-2.3-1.5-3.5v-.4c-.1-.3-.2-.6-.3-.9-1.2-3.5-2.4-7.1-4.1-10.4-.9-1.7-1.4-3.6-1.9-5.5.1-.5-.3-.9-.7-1h0c-.2-.6-.3-1.2-.5-1.9-6.6-25-2.1-51.2-.7-76.6.2-3.4.6-6.7,1-10.1.6-.8.8-2.2,1.2-2.9.3-.9.7-1.8,1-2.7,2.4,1.9,5.3,3,8.4,3.6,7,.6,14.1.3,20.8-2,2.4-.8,4.3-2.4,6.3-3.9.2-.1.3-.2.5-.3.3.2.5.4.7.7-1.1,1.4-1.8,3.1-2.4,4.8-.3,1.2-1.4,4-.2,4.8.5.2,1.1,0,1.3-.4.2-.5,0-1.1.2-1.6.1-.7.3-1.4.5-2.1,1,0,1.2-1.4,1.8-2.1.1-.2.3-.4.5-.5h0c.6.1,1-.2,1.2-.7.9-.4,2-.5,2.9-.5h0c.1.4.1.8.2,1.1.2.9,1.5.9,1.8,0,.1-.7.1-1.5-.1-2.2.1-.4.1-.8.2-1.1.1-.1.2-.3.2-.5,2.4-4.8,4-10.1,5.8-15.2.8-2.5,1.8-4.9,2.7-7.4.2.3.5.5.8.5,1,0,1.9.1,2.9.1,3.6.1,7.3.2,10.9.4,2.6.1,5.1.2,7.7.3h0c.3,2.1.7,4.2,1.1,6.3.1,2.4,1.5,4.6,1.9,7,.8,2.8,1.2,5.6,1.5,8.4.5,3,2.7,5.6,2.5,8.6,0,.5,0,1,.4,1.3.6.5,1.4.2,1.8-.4,1.2-1.4,2.5-2.9,4.2-3.5,2-.5,4.7.2,4.9,2.5-.2.7.4,1.2,1,1.2,2.5,1.9,11.3,4.1,12.9,4.2,7.6.6,15.3-1.3,22-4.8,1.4-.6,8-4.2,5.9-6-.6-.4-1.2,0-1.5.6-1.3,1.7-3.3,2.8-5.3,3.7-1.6.9-3.3,1.6-5,2.2-2.1.8-4.4,1.4-6.6,1.8-.9.2-1.7.3-2.6.4-.2,0-.4,0-.6.1-6.4,1-12.7-1.1-18.4-3.8,0-.3-.1-.7-.2-1-.1-.4-.3-.7-.5-1-.5-.8-1.3-1.4-2.1-1.7.4-.2.7-.7.4-1.3-.2-.2-.4-.4-.5-.7-1.3-1.6-2.6-3.3-3.8-5-1.7-2.4-3.2-4.9-4.5-7.5-1-1.8-2.1-3.4-2.5-5.4-1-3.5-1.3-7.4-1.5-11.1.4-.1.7-.5.6-1-.3-2.2-2.1-3.6-3.4-5.3-.9-.7-2.3-2.9-3.3-1.3-.4,1,.8,1.5,1.4,2.1l.1.1c-.1,0-.2.1-.3.2-.9,1.4-.8,3.3-.7,5-.1-.4-.2-.7-.6-.8-.1,0-.3-.1-.5-.1-.6-1-1.8-.2-2.3.5-.5-.7-1.5-.6-2-.1-.4-.5-1.3-.4-1.7.1-.4-.6-1.3-.7-1.9-.3-.2-1.1-1.5-1.1-2.2-.4-.3-.2-.6-.2-1-.1-.2.1-.5.2-.6.3-.5-1.5-2-.5-2.7.2-.2-.2-.4-.3-.6-.3-.3,0-.5,0-.8.2-.3-.2-.6-.3-1-.1-.2.1-.3.2-.4.3-1.2-.3-1.5,1.4-1.8,2.2v.1c-.4.1-.8.3-.9.8h-.3c.9-2.4,1.7-4.9,2.3-7.4.2-.6.5-1.6.5-2.4.3-.2.5-.4.8-.6,1.5-.6.6-2.7-.8-1.8,0,0,.1,0,.1-.1-1.1.7-8,5.8-5.8,7h0c-.8,2.6-1.8,5.1-2.5,7.7-.1.4-.2.9,0,1.2,0,.1-.1.2-.1.3-.5,1.2-1.1,2.4-1.6,3.6-.6,1.6-1.3,3.2-2,4.8-.9.4-1.5,2.1-2.1,2.7-1.4,1.8-2.6,3.7-4.4,5.1-.2,0-.5.1-.7.3l-.6.6c-.5.3-1.1.6-1.7.9-.4-.1-.8,0-1,.5,0,.1-.1.2-.1.2-2.3,1.2-4.7,2.2-7.1,3.2-3.4.8-6.9,1.5-10.4,2-2.1.2-4.3-.4-6.3-.9-.4-.1-.8.1-1,.3-2.1-.5-4.3-1-5.8-2.7-.4-.5-.9-1-1.6-1-.2-.2-.4-.5-.6-.8.3-.8.6-1.5,1-2.3,2.1-5.5,4.7-10.9,7-16.4.1-.4.4-.7.3-1.1,4.8-.5,9.5-1.3,14.2-1.7,4.7-.8,9.6-.7,14.3-2v.3c-.4,0-.8.4-.9.8-.2,1.1,1.1,1.3,2,1.4,4.7.4,8.4-2.2,7.6-7.2-.1-.9-.1-1.9-.5-2.7-.5-1.1-1.5-2-2.3-2.8-6.9-6-16.9-6.7-25.3-4-2.9,1-5.9,2-8.4,3.9-.5.3-1,.6-1.5.9-.3-3.1-.1-6.3,0-9.4h0c3.9-1.7,8.1-2.5,12.3-3,.7-.1,1.4-.3,2-.2.6,0,1.1-.1,1.7-.1,5.3-.1,10.5,0,15.6-1.3,1.8-.5,7.5-.7,6.6-3.4-.2-.9-.7-1.6-1.5-2-1.1-.3-1.8-1.1-1.4-1.8.3-.1.6-.1.8-.2.8-.1,1.4-.5,1.7-1l.3-.3c0-.3-.1-.6-.2-.9,0-.2-.1-.4-.1-.6s-.1-.5-.2-.7c-.1-.3-.2-.6-.4-.8-.6-.5-1.3-.7-2-1-2-1.1-4.2-1.4-6.5-1.2-2.6-.1-5.3.1-7.9.5h0c-6.5.6-12.8,3.1-18.4,6.6-.3.2-.5.4-.8.5h-.1c-.6.4-1.1.7-1.7,1.1v-8.1c.2-8.7.5-17.4,1-26.1.7-6.3.7-13,2.8-19.1.2-.4.2-.7,0-1,1.2-.7,2.5-1.3,3.8-1.9.5-.2,1.2-.5,1.8-.4,3-1.7,6.4-3.3,7.1-3.8,7.2-3.8,14.9-6.5,22.7-9,5.1-1.5,10.3-2.8,15.6-3.4,2.4,0,4.8.1,7.3,0,0,0,0,.1.1.1,4.5-.4,9.1-.3,13.6.2,4.5.6,8.9,1.8,12.9,4,.5.2,1.1,0,1.3-.5,0-.1.1-.2.1-.4.8.3,1.5.7,1.5,1.3,3,.8,6.1,1.7,9.2,2.5,1.7.5,3.5.9,5.2,1.3.6.3,1.2.5,1.8.9h0s.1,0,.2.1c.8.4,1.5.8,2.3,1.2,2.9,1.5,6,2.6,8.9,4.3,5,3,10.4,5.9,15.1,9.5.1.1.3.2.4.3s.3.2.4.3c.2.2.5.5.8.7,1.8,1.7,3.5,3.5,5.1,5.2,2.6,2.9,5,6,7.2,9.1.8,1.2,1.7,2.3,2.4,3.5.1.2.2.4.1.6.2.2.4.5.5.8.3.1.6.4.7.8v.2c.1.1.2.2.2.4.2.4.2.8,0,1.1.9,6,1.5,12.1,2,18.1.5,11,1.4,22,2.5,32.9.5,0,.9.5.9,1.1.2,5.4,1.2,10.8,1.1,16.3,0,7.4.6,14.9.7,22.3.2,3.5.3,7,.8,10.5.2,1.6.5,3.2,1.3,4.5.6-.1,1.2.2,1.2,1,2,3.4,4.4,3.2,6.2,1.3,1.7-1,2.4-3.1,2.7-5.5.2-.4.5-.5.9-.4,0,.1.1.1.1.2.2.1.4.2.6.1.2.1.3.3.4.4.5-.1.9-.3,1.3-.5.7-.8,1.1-1.7,1.5-2.6.8-1.7,1.2-3.4,1.6-5.2.4-1.5,1-2.9,1.9-4.1,2.2-3,6.5-4,9.9-2.9,2.9.1,5,1.3,6.7,3h0Z"/>
      <path class="cls-7" d="m128.32,104.95c-1.1-3.4-1.7-7-2.7-10.4-.1-.3,0-.7.2-.9-.3-.7-.4-1.8.6-2,.5-1.1,1.8-.5,2,.6.5-.3,1.1-.1,1.4.5.6,1.6,1.1,3.2,1.6,4.9.4,1.4.9,2.8,1.2,4.3.1.4-.2.9-.6,1,.1.9-1,1.7-1.7,1l-.1.1c.4,1.1-1.1,2.2-1.9.9h0Z"/>
      <path class="cls-3" d="m69.32,220.35c-.4,1.7,1.8,14.3-.4,15.3-.3.1-.6.1-1-.2-1.9-1.1-3.4-2.6-4.6-4.2h0c-.1-.2-.3-.4-.4-.6h0c-1.3-1.9-2.1-4.1-2.7-6.3-.7-2.8-.8-5.7-.5-8.5-.1-1.3.3-2.7.5-4,.2-.9.3-1.9.1-2.8-1.3-2.1-3-4.1-4.1-6.3-.2-.6-.3-1.2-.5-1.8-.7-3.6-.2-7.3.5-10.8.1-.6.4-1.3.6-1.9.2-.5.9-.6,1.3-.4.9.5.3,1.4.1,2.1.4.1.7.3.8.7.6,2,2,3.6,3,5.5,1.8,3.9,3.8,7.7,6,11.4,3,3.4.6,8.5,1.3,12.8h0Z"/>
      <path class="cls-3" d="m289.12,201.15c1.2,2.3.8,5,1,7.4-.1,5.5-1.3,10.8-3.7,15.7h0c.2.6-.1,1.3-.9,1.3h0c-.1,0-.2.1-.3.1-1.5.9-2.7,1.8-3.7,2.7-.4.4-.8.8-1.1,1.2-2.3,2.6-3.3,5.5-4.3,8.1-1.8,4.6-4.1,8.7-14.6,10.7-.2,0-.3-.1-.4-.1-.3-.1-.5-.3-.6-.6.1-1.3.2-2.5.3-3.8h0v-.6h0l.1-1.2c.2-2.1.3-4.3.2-6.4,0-1.1-.1-2.3,0-3.4.1-.3,0-.7-.2-.9.4-1.3,1-2.5,1.6-3.7.5-.9,2.1-2.4.9-3.3-.4-.2-1-.1-1.2.2.7-1,1.4-2,2.1-3,3.8-4.9,7.9-9.5,12.8-13.4,0,0,.1,0,.1-.1,2.5-2.2,5.3-4,7.9-6.1,1-1.1,2.9-2.9,4-.8h0Z"/>
      <path class="cls-3" d="m228.32,156.85c.3,1.5-.1,3,0,4.5.2.9-.8,1.4-1.4,1.1-.2-.1-.4-.3-.4-.5-.1,0-.2-.1-.4-.2-1-1-1.6-2.4-2.5-3.5-1.3-1.7-3.2-3-4.9-4.4-2-1.4-4.4-2.5-6.7-3.1-2-.4-4.1-.4-6.1-.7-2.6-.1-5.5,0-7.9,1.1-4.5,1.7-9.6,3.5-12.7,7.5v.2c.1.2.2.4.2.6,0,.5-.3,1.1-1,1.1-1.1.1-1.9-.6-2.7-1.3-1.3-1-1.7-2.5-1.2-4,.7-4.5,3.9-7.9,7.1-10.8.4-.4.9-.3,1.2-.1,5.5-3.8,8.6-4,17-2.2,2.7.6,5.2,1.6,7.5,3.1,2.8,1.5,5.9,2.4,8.4,4.3.5.4,1.1.8,1.6,1.3.6-.3,1.3.2,1.7.8,1.6,1.5,2.9,3.1,3.2,5.2h0Z"/>
      <path class="cls-3" d="m74.82,139.65l.2-1.3c-.6,8.6-1.1,17.1-2.6,25.6v.3c0-.1-.1-.1-.1-.2.1-1.8.2-3.6.4-5.4.6-4.4.9-8.8,1.6-13.2.1-.7.2-1.3.2-2,0-.2.1-.4.1-.6-.1-1,0-2.1.2-3.2,0,.1,0,0,0,0h0Z"/>
      <path class="cls-3" d="m94.82,152.65c-.8.8-1.6,1.7-2.4,2.5h0c.1-.9,1.5-1.9,2.4-2.5h0Z"/>
      <path class="cls-3" d="m106.82,145.35c-.1.1-.3.1-.5.2-1.8.8-3.7,1.5-5.4,2.6-.1.1-.2.1-.3.2,0,.1,0,.2.1.3v.4c0,.2-.1.3-.2.5s-.3.3-.5.4h-.5c-.1,0-.2-.1-.2-.1l-.1-.1h0c.1-.1.2-.1.3-.2v-.6c.1-.8,1-1,1.5-.7,1-.7,2.1-1.2,3.2-1.6.8-.6,1.7-1,2.6-1.3h0Z"/>
      <path class="cls-1" d="m115.22,203.65c.7-.2,1.4.5,1.2,1.2-.1.3-.3.6-.6.7-2.4,2.2-4.7,4.3-7.2,6.4-8.3,8.1-15.7,16.1-12,28.5.6,2.5,1.8,4.7,2.7,7,.6,1.8,1.5,3.5,2.3,5.2.9,2.8,2.1,5.4,3,8.2.2.7.7,1.7-.2,2.1-.5.2-1.1,0-1.3-.5-.6-1.8-1.2-3.6-2-5.3-.7-1.7-1-3.5-2-5.1-.8-1.3-1.2-2.6-1.7-3.9-.9-2.2-2.1-4.4-2.6-6.8-4.5-14.4,4.8-24,14.8-32.9,2.1-1.4,3.5-3.6,5.6-4.8h0Z"/>
      <path class="cls-1" d="m102.12,256.65c-.9-3-2-6-3.1-8.9-.5-4.2-2.5-8.1-2.8-12.4-.4-6.9,2.4-16.7,8.1-21,1-.8,2.2.7,1.2,1.5-.5.4-1,.9-1.5,1.3-4.4,5.1-6.4,12.4-5.7,19.1.4,2.9,1.7,5.5,2.2,8.4.1,2.1.9,4.1,1.8,5.9.8,1.7,1,3.5,1.7,5.2.4,1.2-1.3,2-1.9.9h0Z"/>
      <path class="cls-1" d="m101.12,252.95c-2.8-6.5-6.2-13.1-6.5-20.3.2-5.1,3.4-9.5,5.8-13.9.6-1.1,2.3-.2,1.7.9-2.2,4.1-5.2,8.3-5.5,13,.1,4.9,2.2,9.3,3.7,13.8.9,1.9,1.8,3.7,2.6,5.6.2.5,0,1-.5,1.3-.4.3-1.1.1-1.3-.4h0Z"/>
      <path class="cls-1" d="m215.12,242.85c2.2-10-4.1-18.2-10.4-25.4h0c-1.3-1.5-2.7-3-3.9-4.5-.8-1-1.6-1.9-2.5-2.9-2.1-2.5-4.2-4.9-6.1-7.5-.6-1,1-2.1,1.6-1,1.5,2.2,3.4,4.2,5,6.2,7.2,9.1,17.7,17.6,18.6,30,0,5.1-1.1,10.2-2.8,15-1.1,3.3-3.2,6-5.7,8.4-.3.4-.9.5-1.4.2-1-1,.3-2,1.2-2.8.2-.2.4-.4.5-.5.9-.9,1.6-2,2.2-3.1,1.8-3.2,2.7-6.9,3.4-10.5h0c.2-.6.2-1.1.3-1.6h0Z"/>
      <path class="cls-1" d="m214.92,244.25v.3c-.3,3.5-1.5,7.2-2.8,10.4-.3.7-.7,1.6-1,2.2-.4.7-.6,1.8-1.6,1.6-.3-.1-.5-.3-.6-.5-.3-.5.1-1.3.5-1.9.4-.8.7-1.5,1-2.3,2-4.5,3.2-9.3,2.4-14.3-.2-1.8-.3-3.4-.7-5.1-.6-2.3-1.7-4.6-2.3-6.8-1.1-2.2-2.4-4.2-4.1-6-2-2.9-4-6-6.1-8.8-.6-.8-2-2.5-1.1-3.3.1-.1.2-.2.4-.3.6-.2,1.1.2,1.3.8,1,2,2.8,3.6,3.8,5.7.3.4.7.8,1,1.2h0c.8,1.1,1.5,2.2,2.2,3.3.8,1.1,1.9,2.1,2.6,3.3,2,2.9,2.8,6.2,4.1,9.5.5,3.8.8,7.4,1,11h0Z"/>
      <path class="cls-1" d="m214.62,231.65c.8,3.7,1.4,7.4,1.1,11.2-.3,1.4-.7,7.9-2.4,8.8-.1.1-.3.1-.4.1h-.3c-1.3-.6-.1-2,.1-3,1.6-5.2,1.2-10.5.2-15.8-2-5.5-5.3-10.4-8.8-15-.5-.4-.5-1-.2-1.3h0c.3-.5,1-.6,1.5-.1,3.8,4.6,7,9.6,9.2,15.1h0Z"/>
      <path class="cls-6" d="m197.22,248.95c2.8,1.4-.2,3.8-1.8,4.8-.1.1-.2.2-.3.3h-.2c-.5-.1-.8.3-1.1.6-2,1.4-4.1,2.6-6,4.2-1.4.8-2.7,1.8-4.2,2.3-1.2.5-2.2,1.4-3.5,1.9-1.6.5-3.2.8-4.7,1.6-3.3.8-6.5,1.6-9.8,2.2-4.1.6-8.1.7-12.2.7-5.2,0-10.5-.9-15.4-2.8-3.6-1.6-7-3.7-10.3-5.7-1.5-1-2.8-2-4-3.2-1.2-.8-2.3-1.6-3.4-2.6-1.4-1.4-3.4-2.6-4-4.5v-.1c-.4-.1-.6-.5-.6-.9-.4-1,1-1.9,1.7-1.1,2-.5,2.4-1,3.9.6.6.4,1,1.3,1.8,1.3.8-.2,1.7-.5,2.2-1.2s.6-2,1.6-2.1c1.1,0,1.3,1.3,1.8,2,.4.6.8,1.1,1.1,1.6.8,1,2,1.7,3.2,1.9,1.4-.1.8-2.6,2.2-2.8.8-.1,1.1.7,1.2,1.4.4,1.2,1.6,1.9,2.6,2.5.2.2.5.2.7.1.3-.2.7-.3,1-.6.4-.4.6-.9,1.2-1.1,1.6-1.1,1.8,1.4,2.1,2.4,1.1,2.3,1,4.8,2.3,7,1.5,1.5,3.9,2.2,6,1.7,1.3-.8,2.6-1.5,4.2-1.6,0-.5.5-.8.9-1,1.6-.7,3.3-.9,4.5-2.2,1-1,2.1-2.4,2.1-3.9-.4-1.4,1.5-2,1.9-.6.1,1.1.4,2.3.8,3.3,2.3,1.4,4.1-1.3,5.3-2.9,1.1-1.3,1-3,1.6-4.5.2-1.5,2.1-1.5,2.1.1.3,1.6.5,3.3,1.4,4.7.8.7,2,.7,2.9.9-.1-.7.6-1,1-1.4.5-.3.8-.8,1.3-1.2.4-.8.1-2.2,1.3-2.4,1.2-.1,1.1,1.3,1,2.1,1-.3,2-.3,2.7-.9.8-.9.6-3.9,2.5-2.8.4.4.4.9.6,1.4.5,1,1.6.9,2.5.8.8-.1,1.6-.2,2.3-.6.3-.1.6-.1.8,0,.5.2.9.1,1.2.3h0Z"/>
      <path class="cls-2" d="m184.02,243.05h0c-5.4-3.9-12.1-6.3-18.6-7.3-5.4-.3-10.6,1.3-15.8,1.9-4.2.5-8.6.1-12.8.4-3.1.3-6,1.3-8.6,2.8-.4.9-2,.5-1.9-.5,0-.5.4-.9.8-1.1,2-1.4,4.4-1.9,6.6-2.7,5.1-1,10.4-.1,15.6-.8,5.1-.6,10-2.1,15.1-2,6.1.3,12,2.8,17.4,5.4,1.2,1,2.6,1.6,3.7,2.6.7.9-.7,2.1-1.5,1.3h0Z"/>
      <path class="cls-2" d="m183.72,243.45c-3.1-.5-6.2-.8-9.3-.9-2.8-.4-5.7-1.1-8.5-.3-3.9-1.1-8-.3-11.7,1-1.1.2-1.9-.8-2.9-1.1-1.2-.4-2.5-.6-3.7-.5-4,.6-8.1.1-12-.3-2.4.1-5-.3-7.4-.6-.7,0-1.5,0-1.6-.8-.1-.5.3-1,.8-1.1,5,.4,9.8.7,14.8,1.2,3.9.1,8.2-1.2,11.7,1.3,3.8-1.4,8.1-2.1,12.1-1.1,2.4-.8,4.9-.3,7.3.1,3.6.4,7.1.4,10.7,1.1,1.2.3,1,2.2-.3,2h0Z"/>
      <path class="cls-2" d="m180.72,242.25c-.9-.2-1.9-.5-2.8-.6-.2.1-.4.2-.6.1-1.2-.2-2.4-.4-3.6-.6-.4.3-.9.1-1.4.1-2.2-.1-4.4-.3-6.6-.4-2.7.4-5.6-.4-8.4,0,.5,1.5-1.1,1.4-2.1,1.3-3.7-.3-7.4-.6-11.1-.9-2.4-.4-4.8-.4-7.1-.5-1.1-.2-3,.4-3.5-1-.4.1-.8.2-1.2.3h.2c-1.2.6-2-1.2-.8-1.7,1.7-.7,3.6-.8,5.4-1.2,1-.1,2.3-1,3,0,1.2-.1,2.4-.1,3.6,0,.3-.5.9-.7,1.4-.7,3.8-.5,7.7-.5,11.5-.3h.1c.2-.1.5-.2.7-.2.1-1.5,3.5-.9,4.6-1,2,0,4.3.3,6.2.7.5.1,1.2.3,1.3.9h.1c.5-.3,1.1-.1,1.7,0,2.8.6,5.5,1.7,8,3,1,.6,2.4.7,3,1.7.4.9-.7,1.4-1.6,1h0Z"/>
      <path class="cls-1" d="m263.22,224.15c1.3.9-.4,2.3-.9,3.3-.7,1.2-1.2,2.5-1.6,3.7.2.2.3.6.2.9-.1,1.1,0,2.3,0,3.4.1,2.2,0,4.3-.2,6.4l-.1,1.2h0v.6h0c-.1,1.2-.2,2.5-.3,3.8-.3,3.9-.8,7.7-1.9,11.4-1,2.7-1.8,5.5-2.7,8.2-.9,2.2-1.9,4.4-2.9,6.5-6.1,11.9-15.1,22.3-26.1,30-.1.1-.2.1-.3.2-2.9,2.2-5.8,4.3-8.7,6.4-.1,0-.1.1-.2.2-3,2.1-6,4.1-9.1,5.9-1.7,1.1-3.3,2.5-5.3,3.1-.5.8-1.1,1.3-1.9.8l-.1-.1c-.4-.4-.3-1,.1-1.4,1.2-1.5,2.1-3.1,3.4-4.5,3.4-3.6,6.3-7.6,9.6-11.2,3.7-4.9,7.3-9.7,11.4-14.2,5.8-7,12.3-13.4,17.6-20.9,5.2-7.8,8.4-16.7,11.9-25.4,1.6-4.6,2.8-9.3,4.5-13.8.2-.7.6-1.3,1-2s.9-1.4,1.3-2.1c0,0,0-.1.1-.1.2-.5.7-.6,1.2-.3h0Z"/>
      <path class="cls-5" d="m65.12,177.65v.2c-.1-.3-.2-.7-.3-1-.8-3.5-1.3-7.2-1.7-10.8.7,3.9,1.4,7.8,2,11.6Z"/>
      <path class="cls-5" d="m70.22,114.05c-.1,1.1-.3,2.3-.5,3.4-.2,1-.4,2-.6,2.9-.4.8-.8,1.6-1.1,2.4.8-2.8,1.6-5.7,2.2-8.7h0Z"/>
      <path class="cls-5" d="m71.52,186.35c0,.3-.1.6-.4.8.1.2.2.5.3.7.1.7-.5,1.2-1.1,1.2,0-.1,0-.2-.1-.3h0c0-1.2.1-2.5.1-3.7.3-3.8.5-7.6.8-11.5v6.4c0,2.1.4,4.3.4,6.4h0Z"/>
      <path class="cls-5" d="m79.72,106.45c-.6,3.1-1.1,6.2-1.7,9.3h0c-.6,5-1.3,10-2,15-.4,2.5-.7,5-1,7.5.4-5.6.9-11.2,1.7-16.7.5-5.1,1.8-10.1,3-15.1h0Z"/>
      <path class="cls-5" d="m254.52,116.75c0,.3.1.6.1.9-.3-.2-.4-.5-.4-.8,0-.5,0-.9-.1-1.3v-.5c0-.5-.1-1-.1-1.5.2,1,.3,2.1.5,3.2h0Z"/>
      <path class="cls-5" d="m279.12,162.15c1.2,8.4.4,16.8-.4,25.1-.3,1.9-.5,3.9-.9,5.8-.4,1.8-.8,3.6-1.6,5.2-.1.3-.3.6-.5.9-.6.8-1.5,1.2-2.4,1.6-.1,0-.3.1-.4.1-.2,0-.4,0-.6-.1,0,0-.1-.1-.1-.2-.3-.3-.5-.7-.7-1.1,0,.5-.1,1.1-.1,1.6-.3,2.3-1,4.4-2.7,5.5-.8.5-1.7.7-3,.6-.4-.1-.8-.2-1.1-.3,1.5.5,3.3-.9,4.2-2.1,3.8-4.1,2-10.2,1.4-15.2-1.2-7.1-.9-14.4-1.7-21.6h0c-.7-6.5-.4-13.1-.8-19.6,0-1.9-.2-3.8-.3-5.7-.7-5.3-.5-10.7-1.2-16-1.6-8.6-6.3-16-10.7-23.4-.3-.5-.4-1.4-1.1-1.4-.3,0-.5,0-.7.2v-.5c0-.4.1-.7.4-.9,0-.5-.1-1-.1-1.4-.4-.1-.7-.5-.7-.8-.3-.5-.6-1.1-.9-1.5-2-3.3-4-6.6-6.2-9.8-.1,0-.2,0-.4-.1-1.7-1.5-3.3-3.2-4.9-4.9-1.7-1.8-3.3-3.6-5.1-5.2-.2-.2-.5-.5-.8-.7-.1-.1-.2-.2-.4-.3-.1-.1-.3-.2-.4-.3-4.7-3.6-10.1-6.5-15.1-9.5-2.9-1.7-6-2.7-8.9-4.3-.8-.4-1.5-.8-2.3-1.2-.1,0-.1-.1-.2-.1-.6-.3-1.2-.6-1.8-.9-4-1.8-8.2-3.1-12.6-3.8-.5-.1-.7-.5-.7-1-.5-.2-1.1-.4-1.6-.6-.4-.1-.8-.2-1.2-.3.1.2.2.3.2.5,0,.1,0,.2-.1.4-.2.5-.8.7-1.3.5-4-2.2-8.4-3.3-12.9-4-2.7-.4-5.4-.6-8.1-.7-1.8.3-3.7.3-5.5.4-2.4,0-4.8-.1-7.3,0-1,0-1.9,0-2.9.1-.6.2-1.1,0-1.3-.3-8.8,1.3-17.5,3.8-25.6,7.5-6.3,2.1-11.8,5.6-17.6,8.5-.1.1-.2.2-.4.3-.3.1-.5.2-.8.3-.7.3-1.3.7-2,1.1-.2.1-.4.1-.5.1-.2.1-.5.3-.7.4h0c-.3.2-.5.3-.8.5-.7.5-1.5.9-2.2,1.4s-1.4.9-2.1,1.4c-.1,0-.1.1-.2.1-3.8,2.4-7.6,4.9-11,7.9-.2.2-.5.4-.7.6q-.2.1,0,0c-.1.1-.2.1-.2.2l-1.5,1.5v.1c.3.2.5.6.4,1.1-.1.2-.2.5-.3.7-.1-.2-.2-.4-.5-.5-.6-.3-1,0-1.3.4-.5.2-.8.7-1.1,1.1-1.1,1.1-2.3,2.2-3.3,3.4h-.1c-1.5-.8-2.9,3.2-3.5,4.3-1.2,2.8-2,5.6-2.5,8.5.1-1.2.3-2.4.4-3.6-.5,0-1-.2-1-.9.2-7.9,2.3-15.4,5.6-22.4.7-1.8,1.4-3.6,2.3-5.3.1-.4.5-.6.9-.6,3.7-6.2,8.4-11.9,13.5-16.9.8-.7,1.6-1.5,2.5-2.2-2,.7-4,1.3-6.1,1-2-.2-3-2.3-2.8-4.2.3-2.7,2.2-4.9,4-6.8.3-.5,1-.8,1.5-.4l.1.1c.7-.6,1.4-1.2,2.1-1.9.1-.5.7-1,1.1-1.4,1.3-1.5,2.7-2.6,4.1-3.8,6.7-5.6,14.3-10.1,22.6-12.6,3.8-1.5,7.8-2.7,11.7-3.7.5-.1.9.2,1.1.6,3-.5,6-1,9.1-1.3,4-.2,8.3-.3,12.3.1,3.5.5,6.6,1.1,10.1,1,7.9,1,15.4,3.4,22.7,6.6.2-.1.4-.2.6-.1.4.1.7.2,1,.4,4.9,2.2,9.9,4.4,14.3,7.5,6.3,4.4,12,9.6,17.7,14.8,3.5,4.1,7.2,8,10.4,12.2,0-1.7,0-3.4.7-5,.4-2.6,2-2.9,3.8-1.1,1.5,1.3,2.1,3.3,3,5.1,1.3,3,2.2,6.1,2.7,9.4.5,2.9.8,5.9,1.1,8.8,7.7,6.5,14,14.3,19.2,22.9,3.2,5.6,6,11.4,8.3,17.4.1.2.1.5,0,.6,2.2,6.1,3.4,12.6,4.5,19,1.6,8.4,2,17,1.8,25.5.1.3.1.9.1,1.6h0Z"/>
      <path class="cls-1" d="m195.02,247.75c-3.5-3-7.5-5.2-11.3-7.8-2.7-2.3-6.1-3.3-9.2-5-.6,1.1-2,.2-3,0-3.7-.9-7.4-1.2-11.1-1.6-.2,0-.4,0-.6-.1-1.8.4-3.5.9-5.3,1.3-.9.2-2,.5-2.8-.1-2.2.5-4.5.5-6.8.7-1.2,0-2.6.3-3.7-.4h-.4c-.2,0-.3-.1-.4-.2-2.7.6-5.3,1.6-8,2.4-.3.1-.7,0-.9-.2-1.5.4-2.9,1.1-4.5,1.1-2.6,1.5-5.3,2.9-7.8,4.4-.9.6-2.2,2.4-3.1,1-.6-1.9,5.5-4.3,6.9-5.3,0-.4.3-.7.6-.8,3-1.4,6.2-2.7,9.2-4.2,0-.5.3-1,.8-1,2.3-.4,4.5-.7,6.8-1,1.9-.2,3.8-.3,5.8-.3.7,0,1.6,0,1.8.8,2.4-.5,4.9-1,7.2-1.5.6-.1,1.3-.3,1.8.1.5-.1,1.1-.1,1.6-.2h0c.1-.3.5-.6.8-.6h3.2c5,.1,9.9,1.2,14.3,3.5,3.5,1.7,6.8,3.6,9.9,6,.4.3.9.7.9,1.2,2,1.4,4.2,2.6,6.1,4.2,1,.6,4.1,2.2,2.8,3.6-.7.4-1.3.4-1.6,0h0Z"/>
      <path class="cls-1" d="m198.52,253.35c.2.3.3.7,0,1.1-.5.7-1.2,1.3-1.9,1.9-1,.8-2.2,1.5-3.2,2.5-1,.6-1.9,1.2-2.9,1.8-.2.1-.3.3-.5.4-2.3,2.6-5.5,4.4-8.2,6.5-3.5,2.2-7.4,3.5-11.1,5.2-6.8,2-13.9,3.8-21,3.4-6.3-.3-13.5-.2-18.5-4.5-1.6-1.7-3.8-2.7-5.3-4.5-1.8-2.2-4-3.9-5.8-6.1-.2-.2-.5-.5-.8-1-1.3-1.6-3.2-4.4-3.3-6.2,0-.3,0-.6.1-.8-.5-.6-.9-1.2-1.3-1.8-.4-.7-.8-1.5-1.1-2.3-.6-.4-.5-1.1-.1-1.5.2-.3.6-.4,1-.3.7.1,1,.8,1,1.4.3.8.7,1.5,1.2,2.2,2,2.8,4.9,4.7,7.6,6.7,3.3,2.2,6.5,4.7,10.1,6.5,2.9,1.4,6,2.5,9.1,3.2h.6c3.3.3,6.5.4,9.8.5,3.5.3,7.2.1,10.7-.4,3.8-.6,7.7-.9,11.4-2.1,1.6-.7,3.2-1.3,4.9-2,1.8-1,3.7-2,5.5-3.1.5-.5,1-.9,1.5-1.3,1.9-1.5,4-2.8,6-4.2.4-.3.6-.7,1.1-.6h.2c.3.1.5.3.6.6.5-.3.9-.7,1.2-1.2.3-.6,1.1-.4,1.4,0h0Z"/>
      <path class="cls-8" d="m107.92,15.85c.2-.1.4-.2.6-.3-.2.1-.4.2-.6.3h0Z"/>
      <path class="cls-8" d="m84.22,84.45c.2.6-.2,1.5-.3,2.1-1,4.3-1.6,8.5-2.6,12.8-.5,2.4-1.1,4.7-1.6,7-1.2,5-2.5,10-3.1,15.2-.8,5.5-1.2,11.1-1.7,16.7-.6,8.6-1.1,17.1-2.6,25.6v.3c-.1.4-.1.8-.2,1.2-.4,2.7-.6,5.4-.9,8.1-.3,3.8-.5,7.7-.8,11.5,0,1.2-.1,2.5-.1,3.7h0c0,.1.1.2.1.3.1.9-1.4,1.5-1.8.5,0-.1-.1-.3-.1-.4v-.1c-1-3.8-2.3-7.3-3.2-11.1v-.2c-.7-3.8-1.4-7.7-2-11.6-.3-2-.6-4-.9-6-1.2-12.6.5-25.6,5.7-37.2.4-.8.7-1.6,1.1-2.4.2-1,.4-1.9.6-2.9.2-1.1.4-2.3.5-3.4.6-4.2,1-8.4,1.8-12.5.6-2.9,1.4-5.8,2.5-8.5.6-1.1,2-5.1,3.5-4.3h.1c1-1.2,2.2-2.3,3.3-3.4.3-.4.6-.9,1.1-1.1.2-.4.6-.7,1.3-.4.1.2.2.3.3.5h0Z"/>
      <path class="cls-8" d="m270.22,189.55c.6,5,2.3,11.1-1.4,15.2-.9,1.2-2.7,2.6-4.2,2.1h0c-.2-.1-.5-.2-.7-.4h0c-.1-.1-.2-.2-.3-.4q-.1,0-.2-.1c-.1-.1-.3-.2-.3-.4v-.4c-.1-.2-.3-.5-.4-.8-.3-.4-.5-.7-.7-1.2-3.2-6.1-2.5-20-2.7-25.2-.1-4.6-.2-9.3-.4-14-.1-.1-.2-.3-.3-.6-1.1-8.1-1.8-16.2-2.5-24.3-.1-3.4-1.2-6.8-.7-10.1.1-.3.4-.5.7-.5-.3-3.6-.7-7.1-1.2-10.7,0-.3-.1-.6-.1-.9-.2-1.1-.3-2.2-.5-3.2-.3-2.2-.6-4.5-.6-6.6,0-.9-.4-2.3.2-2.9-.2-.4-.4-.9-.4-1.3,0-.3.2-.5.4-.6s.4-.2.7-.2c.7,0,.8,1,1.1,1.4,4.4,7.4,9.1,14.9,10.7,23.4.7,5.3.6,10.7,1.2,16,.2,1.9.3,3.8.3,5.7.4,6.5.1,13.1.8,19.6h0c.5,7,.3,14.2,1.5,21.4h0Z"/>
      <path class="cls-10" d="m101.72,150.75c.2,1.5.3,3,.1,4.5.1.6-.3,1.3-1,1.3h-.5s-.1,0-.1-.1c-.1-.1-.2-.2-.2-.3,0,0,0-.1-.1-.1h0v-.1h0v-.5c0-1,.1-2.1,0-3v-.5c0-.4-.1-.8-.2-1.2h0c0-.2-.1-.4-.1-.6v-1.2c.1-.6.5-.8.9-.8h.5c.2.1.4.4.4.6v.2c.1.4.2.8.3,1.2-.1.2,0,.4,0,.6h0Z"/>
      <path class="cls-10" d="m100.12,149.35c.8,0,1.3.9.8,1.5-.1.1-.2.2-.4.3,0,0,0,.1.1.1,1,1.8.5,3.1-.7,3.9-.1.1-.2.2-.4.2-.1,0-.1.1-.2.1,0,0-.1,0-.2.1h0c-1.8.8-4.3,1-5.9.7-.6-.3-.9-.7-.8-1.1,0-.4.3-.7.6-1l.2-.2.1-.1c.5-.5,1.1-.9,1.5-1.2.1-.1.3-.2.4-.3,1.2-1.1,2.6-1.8,3.9-2.7h0l.1-.1s.1,0,.1-.1c.1,0,.2-.1.3-.1.3,0,.4,0,.5,0h0Z"/>
      <path class="cls-10" d="m126.62,152.75c-3.6-3.5-8.8-4.3-13.6-4.9-5,.1-10,1.9-14.3,4.5-.6.5-1.1,1.4-2,.9-.5-.3-.6-.9-.3-1.3,2.1-2.4,5.4-3.3,8.3-4.5,7.3-2.7,16.1-1.4,22.4,3.1.5.5,1.2.9,1.3,1.7.3,1.3-1.5,1.7-1.8.5h0Z"/>
      <path class="cls-10" d="m128.22,151.65c.4,1.1-1.1,1.9-1.8.8-3-3.9-8.1-5.5-12.8-6-4.3-.4-8.6,1.2-12,3.7l-.1.1c-.1.3-.3.5-.5.6-.5.2-1,0-1.3-.4h0c-.1-.2-.1-.4-.1-.6v-.2c0-.1.1-.1.1-.2s.1-.1.1-.2c.3-.5.7-.9,1.1-1.2.1-.1.3-.2.4-.3.1,0,.2-.1.2-.2.4-.2.8-.4,1.1-.6.5-.2.9-.4,1.4-.6.2-.1.5-.2.7-.3s.5-.2.7-.3h0c.2-.1.5-.2.7-.3.2-.1.4-.1.6-.2h.1c6.4-2,14-.4,19.2,3.9.9.6,1.6,1.4,2.2,2.3,0,.1,0,.2,0,.2h0Z"/>
      <path class="cls-10" d="m224.52,160.85c-5-4.5-11.7-7-18.3-7.4-5.4-.2-10.8,1.7-15.5,4.3-.8.5-1.3,1.1-1.8,1.8-1.1.7-2-.7-1.2-1.6,2.7-3.1,7.1-4.2,10.9-5.4,8.8-2.6,18.3.3,25.6,5.4.7.7,1.6,1.3,2.1,2.1.4,1-1.2,1.8-1.8.8Z"/>
      <path class="cls-10" d="m223.62,160.75c-3.1-3.5-7.2-5.8-11.9-6.6-4.9-1.2-10.3-2-14.9.6-1,.9-2.3-.8-1.2-1.5,4.5-2.8,10.2-2.4,15.2-1.3,4.9.9,9.6,2.8,13,6.4.4.5.9.9,1.3,1.4.8,1-.8,2-1.5,1h0Z"/>
      <path class="cls-10" d="m117.62,245.95c-.8,0-1.7-.5-1.6-1.4.3-1.3,1.8-1.7,2.9-1.8.9-1,2.5.1,1.6,1.2,0,1.3-1.6,2-2.9,2h0Z"/>
      <path class="cls-10" d="m152.52,247.65c-.9-.2-1.9-.4-2.8-.6h.1c-.1,0-.2,0-.3-.1h0c-.2,0-.4-.1-.6-.1h-.2c-3.8-.7-7.5-1.2-11.3-1.7-5.4-.5-11-1.9-16.3-.6-1.5.5-1.9-1.7-.3-1.9,4.7-1.2,9.7-.1,14.5.3,5.5.7,11,1.4,16.4,2.5.7.2,1.3.5,2,.8.7.4.6,1.3,0,1.6-.3,0-.7-.1-1.2-.2h0Z"/>
      <path class="cls-10" d="m153.32,247.05c0-.5.4-1,1-1s1,.4,1,1c0,.5-.4,1-1,1s-1-.4-1-1Z"/>
      <path class="cls-10" d="m153.22,260.35c-.3,0-.5-.2-.6-.3.2-.1.4-.2.6-.3.1,0,.2-.1.3-.1s.1-.1.2-.1c.2,0,.4-.1.6-.2v.2c-.1.5-.5.8-1.1.8.1,0,0,0,0,0h0Z"/>
      <path class="cls-10" d="m152.52,247.65c-.3-.1-.6-.1-.9-.2-.2-.8-.3-1.6-.5-2.4-.3-1.2-1.2-1.9-1.8-2.9-.4-1.4,1.9-1.9,2-.5,1.5,1.8,2.1,3.9,2.4,6.2-.4,0-.8-.1-1.2-.2h0Z"/>
      <path class="cls-10" d="m193.52,248.25c-6.5-2.4-13.7-2.8-20.6-2.8-6,.2-12.1.7-17.8,2.7-.1.1-.2.2-.4.2-.3-.1-.6-.2-.9-.2-2.9-2.8,13.2-4.2,14.8-4.4,8.5-.5,17.4-.1,25.5,2.8,1.1.3.7,1.9-.3,1.9,0-.1-.1-.2-.3-.2h0Z"/>
      <path class="cls-10" d="m193.22,249.45c-1.1-.2-3.7-1.2-2.7-2.6.7-.8,1.5,0,2.1.4.4.3.9.3,1.4.5,1,.4.2,2.1-.8,1.7h0Z"/>
      <path class="cls-10" d="m164.72,244.45c-.8-2.5,9.2-2.6,10.7-1.8,1.1.5.3,2.2-.8,1.8-2.3-.5-4.8-.3-7.1.2-.9.1-2.3,1-2.8-.2h0Z"/>
      <path class="cls-10" d="m153.72,247.25c-2.8-1.6,4.2-4.8,5.6-5,2.3-.4,4.8-.3,6.9.7.6.5.4,1.5-.4,1.7-.2.2-.6.3-.9.3-.8.1-1.7.2-2.4.2-3,.2-5.8,1.9-8.8,2.1h0Z"/>
      <path class="cls-10" d="m151.22,245.85c-2.3-.8-4.8-1.2-7.2-.9-.5.3-1.2.1-1.4-.4-.7-.1-1.1-.9-.8-1.5,1.2-1.6,3.7-1.7,5.5-1.5,2,.2,3.6,1.5,5,2.7.3.2.5.6.4,1-.1.7-1,1-1.5.6h0Z"/>
      <path class="cls-10" d="m141.92,244.25c-1.8-.3-3.8.2-5.5-.3-1.3,0-1.2-2,.1-1.9,1.6,0,3.1-.2,4.7,0,.4,0,1,0,1.2.4,1.7.3,1,2.7-.5,1.8h0Z"/>
      <path class="cls-10" d="m135.52,243.75c-.7-.2-1.3-.5-2-.6-.3.3-.8.4-1.2.2-.7,0-1.5,0-2.2.1-.9,0-2.5.4-2.6-1,0-.9,1.2-1,1.8-1.1,1.5-.3,7.5-.6,7.3,1.6-.1.5-.6.9-1.1.8h0Z"/>
      <path class="cls-10" d="m120.72,243.25c-.6-.4-.5-1.4.1-1.7.5-.2,1-.4,1.5-.6.8-.2,1.7-.9,2.6-.6,1.1-.2,3.4.6,2.4,2-.6.7-1.2,0-1.9-.1-1.1-.2-2,1.1-3.1.8-.6.3-1.1.6-1.6.2h0Z"/>
      <path class="cls-6" d="m165.12,253.45c-1-.1-.9-1.2-.9-1.9h0v.1c-.2-.9,1.1-1.6,1.7-.8.5.8.5,2.6-.8,2.6Z"/>
      <path class="cls-4" d="m234.22,143.15c.1,1-1,1.2-1.8.9-6.8-2.7-13.5-5.5-20.6-7-3.5-1.2-7.1-1.8-10.8-2.2-.2.1-.4.2-.6.1-.3,0-.6,0-.8-.1-5.1-.4-10.3,0-15.4.2-1.8.1-3.6.1-5.4.1-1.2-.1-2.2-.8-2.1-1.8,0-.4.3-.7.7-1.1.8-.6,1.8-.6,2.5-1.3-.2-.1-.3-.2-.4-.3-.9,0-2-.4-2.7-1-.6-.5-.8-1.3-.4-2.1,0,0,.1-.1.1-.2.4-.5.9-.8,1.5-1,.7-.3,1.5-.5,2.3-.7,5.6-1,11.6-.1,17.2.9,3.2.6,6.2,1.9,9.3,2.8,2.5.7,4.9,1.3,7.3,2.1,2,.7,3.9,1.6,5.8,2.4.1,0,.2.1.3.2.6.2,1.1.5,1.7.7,3.6,1.5,6.8,3.8,10,6,.6.8,2.1,1.3,2.3,2.4h0Z"/>
      <path class="cls-4" d="m137.92,119.35c.1.5,0,.9-.2,1.2-.3.6-.9,1-1.7,1-.3.1-.6.1-.8.2-.7.2-1.5.4-2.2.5,1.4.8,3.2.9,4.2,2.1,1.4,2.9-3.4,3.3-5.2,3.6-2.4.3-4.6.7-7,1-5.7.4-11.4.4-17.1,1.1-.1,0-.3.1-.4.1-2.6.8-5.2,1.6-7.7,2.6-.6.3-1.2.5-1.8.8-2,1-3.8,2.2-5.5,3.7-.4.5-1.1,1-1.7.5-1,1.2-2.2,2.8-3.5,3.2v.1c0,.1-.1.3-.1.4-.2.3-.6.5-1,.4-.2-.1-.3-.2-.4-.3-.3-.4-.5-.8-.5-1.4.1-2.7,4-7.4,5.1-8.8.8-1,1.7-1.9,2.7-2.8h0c1.5-1.4,3.2-2.7,5-4,.6-.4,1.2-.8,1.8-1.2.6-.4,1.1-.8,1.7-1.1h.1c.3-.2.5-.4.8-.5,5.6-3.4,11.9-6,18.4-6.6h0c1.9-.2,3.9-.2,5.8,0,2.6.3,9.4.1,10.9,2.7.1.2.2.4.2.7.1.4.1.6.1.8h0Z"/>
      <path class="cls-1" d="m135.92,149.85c-.2.4-.4.7-.7.7-.1.1-.3.2-.5.3-.1,0-.3.1-.4.1-.1.1-.1.2-.2.4.1.4,0,.8-.1,1.1.4-.2.7-.4,1-.6.5-.5.8-1.2.9-2h0Zm91,30.9c2.1,1.8-4.5,5.5-5.9,6-6.7,3.5-14.5,5.4-22,4.8-1.6-.1-10.4-2.3-12.9-4.2-.6,0-1.2-.5-1-1.2-.2-2.4-2.9-3.1-4.9-2.5-1.7.6-3,2.1-4.2,3.5-.4.5-1.2.8-1.8.4-.4-.3-.5-.8-.4-1.3.2-3.1-2-5.7-2.5-8.6-.4-2.8-.8-5.6-1.5-8.4-.4-2.3-1.8-4.6-1.9-7-.4-2.1-.8-4.2-1.1-6.3h0c-2.6-.1-5.1-.2-7.7-.3-3.6-.1-7.3-.2-10.9-.4-1,0-1.9-.1-2.9-.1-.3,0-.6-.2-.8-.5-.9,2.4-1.9,4.9-2.7,7.4-1.9,5-3.5,10.4-5.8,15.2,0,.2-.1.3-.2.5-.1.4-.1.8-.2,1.1.2.7.2,1.5.1,2.2-.3.9-1.6.9-1.8,0-.1-.4-.1-.8-.2-1.1h0c-1,0-2,.2-2.9.5-.2.5-.6.9-1.2.7h0c-.2.1-.4.3-.5.5-.6.6-.8,2.1-1.8,2.1-.2.7-.4,1.4-.5,2.1-.1.5,0,1.1-.2,1.6s-.8.7-1.3.4c-1.2-.8-.1-3.6.2-4.8.5-1.8,1.3-3.5,2.4-4.8l-.7-.7c-.2.1-.3.2-.5.3-2,1.5-4,3-6.3,3.9-6.7,2.3-13.9,2.5-20.8,2-3-.6-6-1.7-8.4-3.6-.4.9-.7,1.8-1,2.7-.4.7-.6,2.1-1.2,2.9-.3,3.4-.7,6.7-1,10.1-1.4,25.4-6,51.6.7,76.6.2.6.3,1.2.5,1.9h0c.5.1.8.6.7,1,.5,1.8,1,3.7,1.9,5.5,1.7,3.3,2.9,6.9,4.1,10.4.1.3.2.6.3.9v.4c.5,1.2,1,2.4,1.5,3.5.5,1.2,3.1,4.6.5,4.7h-.1c-.7-.2-1.2-.9-1.6-1.3-.8-.9-1.7-1.7-2.5-2.6-2.5-2.6-4.7-5.5-6.8-8.5h0c-.9-1.4-1.8-2.8-2.6-4.2-2-3.3-4.5-6.5-6.3-9.9-.7-1.4-1.4-2.8-1.8-4.3-.1-.4-.2-.8-.3-1.2-1.4-4.9-2.6-9.8-3.4-14.7-.3-3.7-.7-7.3-1.1-11-1.2-6.2-1.1-12.5-1.6-18.7,0-5.9.4-11.8.5-17.7.3-2.7.5-5.5.6-8.1,0-1.5.2-3.1.4-4.7.2-1.2.3-2.5.3-3.7,0-1.6,0-3.1.1-4.7,0-.4,0-.8.1-1.1v-1.1c-.1-.2-.1-.5-.2-.8h0c-.6-3.7-.3-7.5.1-11.2.1-1.7.1-3.4.2-5,0-.1,0-.3.1-.4h0v-.2c.3-.4.3-.7.1-1h0v-.3c1.5-8.5,2-17,2.6-25.6.3-2.5.7-5,1-7.5,0-.1,0-.3.1-.4.5-4.4,1.3-8.8,2.1-13.2.6-3.1,1.2-6.3,1.8-9.4.8-3.8,1.6-7.6,2.7-11.3v-.2c.5-3.8,1.1-7.6,2.1-11.4.4-1.7.9-3.5,2.1-4.7h0c.3-.3.6-.5,1-.8,2.8-2.5,5.9-4.3,8.9-6.5.3-.3.7-.5,1-.8.7-.5,1.4-.9,2.1-1.4.6-.3,1.2-.6,1.8-.8h.1c.1-.2.1-.4.2-.6.3-.2.5-.3.8-.5h0c.3,0,.7.2.9.5.2.3.2.6,0,1-2.1,6.1-2.1,12.8-2.8,19.1-.5,8.7-.8,17.4-1,26.1-.1,2.7,0,5.4,0,8.1h0c-.6.4-1.2.8-1.8,1.2v-.1c-1.8,1.2-3.4,2.5-4.9,4h0c-1,.9-1.8,1.8-2.7,2.8-1.1,1.4-5,6.1-5.1,8.8-.1.4-.2.7-.2,1.1.2.1.5.2.7.2.1.1.2.2.4.3.4.1.8-.1,1-.4,1.4-.5,2.5-1.9,3.7-2.8.6-.4,1.3-.8,1.9-1.2,1-1.3,4-2.5,4.9-3.1.1,0,.1-.1.2-.1v-.8c.6-.3,1.2-.6,1.8-.8.1.2.2.4.1.7h0c-.2,3.1-.3,6.3,0,9.4.5-.3,1-.6,1.5-.9,2.5-1.9,5.5-2.9,8.4-3.9,8.4-2.7,18.5-2,25.3,4,.8.9,1.8,1.7,2.3,2.8.4.8.4,1.9.5,2.7.7,5-3,7.5-7.6,7.2-.8,0-2.2-.2-2-1.4.1-.4.5-.7.9-.8v-.3c0-.4-.1-.8-.2-1.1-.4-.9-1.3-1.6-2-2.3-.8-.6-1.6-1.2-2.4-1.6-2.7-1.5-5.8-2.2-8.8-2.9-.2-.1-.4-.1-.6-.2-2.4-.6-5-.4-7.3.4-.3.2-.7.3-1,.5h-.1c-.2.1-.4.1-.6.2s-.5.2-.7.3h0c-.2.1-.5.2-.7.3s-.5.2-.7.3c-.4.2-.9.4-1.4.6-.4.2-.8.4-1.1.6-.1,0-.2.1-.2.2-.1.1-.3.2-.4.3h-.5c-.4,0-.9.3-.9.8v.7s-.1,0-.1.1c0,0-.1,0-.1.1h0c-.1-.1-.2-.3-.3-.5v-.1c-.7.6-1.5,1.2-2.1,1.8-.6.6-1.2,1.2-1.9,1.8-.5.3-1.1.8-1.5,1.2l-.1.1-.2.2c-.3.4-.5.7-.6,1-.2.3-.4.5-.6.8h.1c1.3.6,2.7.7,4,.6.9,0,1.8-.1,2.7-.2.1-.3.2-.6.5-.8h0q.1,0,.2-.1c.1,0,.1-.1.2-.1h.4v.3h0v.1h0s0,.1.1.1c.1.1.1.2.2.3l.1.1h.3c0,.3-.2.6-.3,1-2.2,5.5-4.8,10.9-7,16.4-.3.8-.6,1.5-1,2.3.2.2.5.5.6.8.6-.1,1.2.5,1.6,1,1.5,1.7,3.8,2.2,5.8,2.7.2-.3.6-.4,1-.3,2,.5,4.2,1.1,6.3.9,3.5-.5,6.9-1.2,10.4-2,2.4-1,4.8-2,7.1-3.2,0-.1,0-.2.1-.2.2-.4.6-.5,1-.5.5-.3,1.2-.6,1.7-.9l.6-.6c.2-.2.5-.3.7-.3,1.8-1.4,3.1-3.3,4.4-5.1.6-.6,1.2-2.2,2.1-2.7.7-1.6,1.3-3.2,2-4.8.5-1.2,1-2.4,1.6-3.6,0-.1.1-.2.1-.3-.2-.4-.2-.8,0-1.2.7-2.6,1.6-5.1,2.5-7.7h0c-2.2-1.2,4.8-6.3,5.8-7,0,0-.1,0-.1.1,1.4-.9,2.3,1.2.8,1.8-.3.2-.5.4-.8.6.1.7-.3,1.8-.5,2.4-.6,2.5-1.5,5-2.3,7.4h.3c.1-.5.5-.7.9-.8v-.1c.2-.9.5-2.5,1.8-2.2.1-.1.3-.2.4-.3.4-.1.7-.1,1,.1.2-.2.5-.2.8-.2.2,0,.5.1.6.3.7-.8,2.2-1.8,2.7-.2.2-.1.4-.3.6-.3.4-.1.7-.1,1,.1.7-.7,2-.7,2.2.4.6-.4,1.5-.3,1.9.3.4-.5,1.2-.6,1.7-.1.6-.6,1.6-.6,2,.1.5-.7,1.7-1.5,2.3-.5.1,0,.3,0,.5.1.4.1.6.5.6.8-.1-1.6-.2-3.5.7-5,.1-.1.2-.2.3-.2l-.1-.1c-.6-.6-1.8-1.1-1.4-2.1,1-1.6,2.5.6,3.3,1.3,1.3,1.7,3.1,3.1,3.4,5.3,0,.5-.3.9-.6,1,.2,3.7.5,7.6,1.5,11.1.5,2.1,1.5,3.7,2.5,5.4,1.3,2.6,2.8,5.1,4.5,7.5,1.1,1.8,2.5,3.4,3.8,5,1,.2,2.2,1.8,2.9,2.4,2.1,1.5,4.7,2.3,7.2,3.2,6.5,1.5,13.5,2.8,20.2,1.2.4-.1.8.1,1,.4,1.7-.6,3.4-1.4,5-2.2,2-.9,4-2,5.3-3.7-.3-.8.3-1.2,1-.8h0Z"/>
      <path class="cls-1" d="m104.52,182.05c-.4-.3-.5-1-.2-1.4.9-.9,2.4-.3,3.5-.4h2.9c.6-.1,1.3.1,1.4.8,0,1.7-2.4,1-3.5,1.2-1,.1-2.1-.1-3.1,0-.4.1-.8,0-1-.2h0Z"/>
      <path class="cls-12" d="m119.42,176.95h0c0,.6-.5,1-1,1h-.1c-2.4.8-4.9,1.2-7.3,1.6-1,0-2.4.6-3.3.1h-.3c-.4,0-.8-.3-.9-.7h0v-.1c-.8-3-1.7-6.1-2.6-9.1-1.1-4-2.2-8-3.4-12l-3.4-12c-1.1-4-2.2-8-3.4-12-.1-.3-.2-.6-.3-1-.1-.5.2-1,.7-1.2.3-.1.6,0,.9.2.2-.2.4-.3.7-.3.1,0,.2,0,.3.1,1.5-.8,3.2-1.5,3.9-1.7,2.4-1,4.8-2.1,7.3-3,3-1,6.1-2.5,9.2-2.9.6-.1,1.4-.4,1.9-.1h.1c.5,0,1,.5,1,1v.6h0v48c0,1.1,0,2.3,0,3.5h0Z"/>
      <path class="cls-12" d="m131.92,128.15c.5.1.9.6.8,1.1-.2,1.6-.4,3.2-.5,4.9-.2,2-.4,3.9-.6,5.9-.4,4-.9,8-1.3,12-.5,4-.9,8.1-1.3,12.1-.3,3-.6,5.9-1,8.8l-.1,1.3c0,.5-.5.8-1,.8h-.1c-.2,0-.5-.2-.6-.3-.8.5-1.7,1.3-2.6,1.3-.1.4-.5.7-.9.7h0c-.5,0-1-.5-1-1,.1-2.7.2-5.3.2-8,.1-4,.2-8,.4-12,.1-4.2.3-8.4.4-12.6s.3-8.3.4-12.5c0-1.6.1-3.1.1-4.7h0c-.1-.3-.1-.6,0-.8h0c.1-.5.5-.9,1-.9.4,0,.8.3.9.7,1.9.8,3.8,1.9,5.2,3.3.2.1.4.3.5.5.2-.5.7-.7,1.1-.6h0Z"/>
      <path class="cls-12" d="m218.52,184.55c.5,1-.9,1.8-1.6,1h0c-2.6,1.4-5.6,1.9-8.5,1.9h.1c-2.3,0-4.6-.4-6.9-.8l-.1.1c-.2.1-.5.2-.8.2h-.2c-.6-.1-1.1-.6-1.4-1.1-.2-.3-.3-.5-.5-.8-.4-.9-.8-1.8-1.1-2.8-.3-.9-.5-1.9-.8-2.8-.5-2.1-.9-4.2-1.3-6.3-.7-4.1-1.3-8.3-1.7-12.5-.5-4.2-.8-8.5-1-12.8-.2-4.2-.3-8.5-.1-12.7,0-.8.1-1.5.1-2.3-.2-.5-.1-1.3.8-1.6,3.1-.8,6.3-.6,9.5-.6,3,.1,6.1-.5,9.1.4,1.5.4,3.1,1,4.6,1.3.3.1.5.2.6.4.2,0,.3,0,.5.1.5.2.7.9.4,1.3v.1c-.1.3-.3.5-.3.7-.3.8-.6,1.6-.9,2.4-.5,1.8-.9,3.6-1.2,5.3-.6,4-1,8-1.1,12v.1h0c-.1,4.1,0,8.3.2,12.4.1,1,.2,2,.2,2.9v.1c0,.1,0,0,0,0h0v.3h0c.3,3,.8,6,1.5,8.9v.1c.3,1.3.7,2.6,1.1,3.8l.1.3q0,.1.1.2c.4.4.5.6.6.8h0Z"/>
      <path class="cls-12" d="m227.42,136.45c.6.1.8.8.7,1.3-2.4,12-3.9,24.4-2.1,36.5.3,2.2.6,4.3,1.1,6.4.1.5-.2.8-.5,1-.3.6-1.2.9-1.8,1.1-.4.3-.9.6-1.4.7h0c-.4.5-1.2.7-1.6,0-1.5-3.4-1.6-7.2-2-10.9-.5-4.2-.7-8.4-.7-12.6.2-8.4.3-16.8,1.7-25.1.3-1.1,1.9-.8,1.9.2h0c1.1.6,2.4,1.4,3.5,2h0c.1-.5.7-.8,1.2-.6h0Z"/>
      <path class="cls-11" d="m100.02,304.05c-6.2-5.1-11-11.6-15.6-18.1-1.9-2.4-3.3-5.1-4.6-7.8-2.9-4.9-4.9-10.2-6.1-15.8-2.9-7.6-3.6-15.7-4.1-23.8-.6-10.5-.6-20.9,0-31.4.2-12.8.4-25.5,1.6-38.2,1.1-14.2,3.4-28.3,4.8-42.4.8-11.5,4-22.6,6.1-33.9.6-3.1,1.2-6.1,1.8-9.2.3-1,0-2.7,1.5-2.6.5.1.9.6.8,1.1-.4,2.1-.8,4.1-1.2,6.2-2.2,12.5-5.8,24.8-6.9,37.5-1.2,12.8-3.2,25.4-4.4,38.2-1.4,13.8-1.9,27.6-2,41.5-.5,10.2-.8,20.4-.2,30.6.4,8.8,1.1,17.6,4.1,25.9,1.2,6,3.6,11.5,6.6,16.8,1.3,2.8,3,5.3,5,7.7,2.1,3,4.2,6,6.7,8.8,2.2,2.8,4.8,5.2,7.5,7.5.4.4.4,1,.1,1.4-.5.3-1.1.4-1.5,0h0Z"/>
      <path class="cls-11" d="m76.72,91.45c-2.7-.8,1.1-3.7,2-4.7,3.9-3.9,7.9-7.7,12.2-11.3,3.8-3,8.4-4.7,12.4-7.3,3.4-2.4,7.4-3.6,11-5.7,4.5-2.8,9.6-4.4,14.3-6.6,3.8-1.4,7.7-2.3,11.5-3.5,10.5-2.1,21.3-3.6,32-2.4,5,.2,9.9,1.3,14.7,2.8,8.2,2.2,16.2,4.9,24,8.1,6,2.5,11.5,6,17.1,9.3,2.4,1.5,4.9,2.8,7,4.6.4.3.5,1,.1,1.4-.8.9-1.7-.2-2.3-.6-9.1-5.9-18.6-11.7-28.9-15.3-9.6-3.3-19.4-6.9-29.5-8.1-4.4-.4-8.7-.8-13-.6-3.9.3-7.8.7-11.7,1-3.2.7-6.6,1.1-9.8,1.9-2.7.9-5.4,1.7-8.2,2.4-3.9,1.4-7.6,3.2-11.4,4.7-2.8,1.3-5.3,3-8.1,4.3-6.4,2.7-12.1,6.6-18.2,9.8-5.7,4.1-10.5,9.2-15.5,14.1-.6.5-.7,1.7-1.7,1.7h0Z"/>
      <path class="cls-11" d="m256.12,106.45c-3.1-6.5-6.7-12.7-11.2-18.3-3.7-4.5-7.7-8.6-11.8-12.8-1-.8.2-2.3,1.2-1.5,5.2,5.3,10.6,10.7,14.9,16.8,3.3,4.6,6.1,9.6,8.6,14.8.5,1.2-1.1,2.1-1.7,1h0Z"/>
      <path class="cls-11" d="m252.92,274.05c-.5-.2-.6-.8-.4-1.3,1-2.2,1.9-4.4,2.8-6.6,1.8-4.3,2.9-8.9,3.6-13.6.6-7.1.7-14.2,1-21.4,0-4.9-.4-9.8-.4-14.7.1-12.5-.8-24.8-.9-37.3-.5-7.2-.8-14.5-1.6-21.7-.9-5.4-1.2-10.9-1.8-16.4-1.5-8.6-.9-17.5-2.3-26.1-.4-4.9,0-9.9-1.2-14.7-.2-1-.5-2-.5-3,.2-1.1,2-1,1.9.3v-.4c1.4,5.4,1.6,11,1.7,16.5.2,3.2.8,6.4,1,9.6.3,5.6.2,11.2,1.2,16.7.8,9.8,2.4,19.2,2.9,28.8,1.1,11.3.6,22.6,1.5,33.9.2,6.8,0,13.6.2,20.5.4,5.6.3,11.2-.1,16.8-.2,5.5,0,11.1-1.3,16.5-.8,4.5-2.3,8.8-4.2,13-.6,1.5-1.2,2.9-1.9,4.4-.2.2-.8.4-1.2.2h0Z"/>
      <path class="cls-11" d="m198.22,322.55c-.3-.5-.1-1,.3-1.3,3.6-2.3,7.3-4.5,10.9-6.9,4.9-3.2,9.9-6.6,14.7-10,3.7-2.5,6.7-5.8,9.9-8.8,7.3-6.4,13.5-14.2,18.2-22.7.3-.7,1.1-1.3,1.8-.7.4.3.4,1,.1,1.4-4.9,8.7-11,16.6-18.6,23.2-6,6.5-13.2,11.4-20.6,16.2-5,3.5-10.3,6.7-15.5,9.9-.3.3-.9.1-1.2-.3h0Z"/>
      <path class="cls-11" d="m69.42,237.35c-4.4-2.3-8.3-6.3-10.2-11-2.1-5.5-1.5-12,.2-17.6-4.9-7.5-10.5-16.3-8.2-25.7,1.4-5.6,5.4-11.1,10.6-13.7,1.1-.8,2.4.8,1.1,1.6-1.3.5-2.5,1.3-3.5,2.2-12.2,11.7-6,23.2,1.8,35.1.2.4.1.9-.1,1.2-1.4,5.1-2,11-.2,16.1,1.8,4.2,5.4,8,9.4,10,1.9.3.8,2.8-.9,1.8h0Z"/>
      <path class="cls-11" d="m261.92,248.85c-.5.2-1.1-.1-1.3-.6-.3-1,1-1.5,1.7-1.2,3.4-.1,6.4-2.1,8.9-4.3,3.1-2.7,4.9-6.4,6.3-10.3.7-1.5,1-3.4,2.4-4.4,1.6-1.1,3.6-1.7,5.2-2.9,1.7-1.3,3.4-2.6,4.9-4,4.5-5.2,7.9-11.5,8.4-18.4.2-3.6-.4-7.5-1.9-10.7-2.3-4.2-7.3-6.9-12-5.4-1.5.5-3,1.3-4.2,2.4-.2.4-.7.6-1.1.5-2.5-1.5,2.2-3.5,3.3-4.1,7.4-3.6,15.7,2.1,17.1,9.8,2.5,9.8-1.7,20.2-8.4,27.4-3,2.9-6.5,5.2-10.2,7-.3.1-.5.6-.6.8-1.3,2.9-2.2,6-3.9,8.8-3.2,5-8.5,9.7-14.6,9.6h0Z"/>
      <path class="cls-11" d="m259.92,226.05c.7-2.3,2.9-4.2,4.2-6.2,4.9-6.2,10.8-11.5,17-16.4,2.1-1.8,4.5-3.1,6.9-4.5.5-.3,1-.1,1.3.3.3.5.1,1-.3,1.3-8.9,5.2-16.7,12.3-23.2,20.2-1.3,1.8-2.9,3.5-4.1,5.5-.1,1.1-1.8.9-1.8-.2h0Z"/>
      <path class="cls-11" d="m272.52,223.75c.1-4-.1-8.1,0-12.1.1-.5.6-.8,1-.7.5,0,1,.5.9,1.1,0,1,0,2,.1,3v8.8c0,1.1-1.9,1.2-2-.1h0Z"/>
      <path class="cls-11" d="m150.02,337.75c-5.6-.4-11-2.3-16.3-4.3-5.2-2-10.5-4.3-15.2-7.4-9.6-8.2-19-18.2-22-30.9-1.3-4-3.1-7.7-4.2-11.8-1.1-3.2-2.8-6.2-3.6-9.5-.3-.8-.6-2.1.5-2.4.5-.1,1,.3,1.1.8.6,3.2,2.1,6.1,3.3,9.1,1.1,2.8,1.8,5.8,3.1,8.6,1.8,4,2.4,8.5,4.3,12.4,4.4,8.6,11.1,15.7,18.4,21.9,7.2,4.7,15.4,7.8,23.6,10.2,8,2.4,16.4.9,24.5-.4,6.9-1.2,14-2.4,20.5-5.2,2.2-1.2,4.1-2.9,6.3-4.1,2.7-2,4.6-4.8,6.3-7.6,2.7-3.2,6-6.1,8.5-9.4,3.5-4.7,7-9.4,10.2-14.3.3-.5.6-1,.9-1.6.5-1.1,2.3-.2,1.7,1-1.9,3.8-4.8,6.9-7,10.5-3.6,5.2-7.8,10-12.2,14.5-1.3,1.6-2,3.5-3.4,5-1.1,1.1-2,2.4-3.3,3.3-2,1.2-4,2.6-5.9,4-1.9,1.2-4,1.7-6.1,2.5-3,1.3-6.2,1.5-9.4,2.3-8.1,1.5-16.3,3.1-24.6,2.8h0Z"/>
      <path class="cls-11" d="m135.32,182.55c-.3-5.1,1.9-10.1,3.8-14.7,2.2-5.1,3.9-10.5,5.7-15.8,4-10.9,3.4-22.6,4.3-33.9,0-.4,0-.9.2-1.3.5-1,2.1-.4,1.8.7-.8,9.4-.4,18.8-2.4,28-.6,3.3-1.8,6.2-2.8,9.4-1.6,4.8-3.2,9.7-5.2,14.2h0c-1.4,3.4-2.7,6.9-3.3,10.6-.1.9-.2,1.8-.1,2.7,0,.5-.4,1-.9,1-.6,0-1-.4-1.1-.9h0Z"/>
      <path class="cls-11" d="m134.12,205.45c-3.5-1.8-6.9-4.7-8.1-8.5-1.9-6-2.1-15.4,5.6-17.1,2.4-.5,4.5,1.4,5.7,3.2.5.9,1.3,2.1,1,3.2-.4.9-1.8.5-1.9-.4-.8-2.6-3.3-5.4-6.2-3.6-5.1,3.3-3.6,10.6-1.9,15.5,1.6,2.6,3.9,4.7,6.6,5.9,1.2.6.3,2.4-.8,1.8h0Z"/>
      <path class="cls-11" d="m174.12,191.45c-1.5-.2-.7-2.1-.8-3.1,0-1.7-.4-3.3-.7-4.9-.5-6.7-3.2-12.9-4.7-19.4-1.2-4.2-1.4-8.5-1.6-12.9-.9-8.1-.8-16.5-.5-24.6,0-.8.1-2.2,1.3-2,.8.2.9.9.7,1.6-.4,9-.3,18,.7,27,0,3,.4,6,1.1,8.9,1.3,6.8,4.4,13.2,5,20.2-.1,1.7,1.9,9.2-.5,9.2h0Z"/>
      <path class="cls-11" d="m170.52,209.45c-.9-.1-2.6.2-2.6-1.1,0-.5.5-1,1-.9,5.2.5,10.3-1.6,13.7-5.5,3-3.6,3.6-8.4,3-12.8-.9-5.5-6-4.3-8.7-.8-1.2,1.6-2.2,3.3-3.2,5-.2.5-.8.7-1.3.4-1.3-.8.2-2.2.7-3.1,2-3.4,4.9-7.5,9.3-7.2,5.3.5,5.6,6.8,5.3,10.9-.6,8.7-8.8,15.3-17.3,15.1h.1Z"/>
      <path class="cls-11" d="m153.82,213.45c-2.8-.1-4.8-2.2-6.6-4-4.8-1.2-9.9-2.1-14.1-4.6q.1,0,.2.1c-1.4-.3-.7-2.4.6-1.8,3.8,2.2,8.2,3.1,12.5,4.1,1.3.1,2.4.7,3.2,1.8,1,1.1,2.2,1.9,3.6,2.4,3.4,1,5.1-2.6,7.8-3.8,2.5-1.1,5.5-1.4,8.1-.2,1.1.4.6,2.2-.6,1.9-1.9-.9-4-.7-6-.2-1.4.5-2.3,1.3-3.2,2.3-1.6,1.2-3.6,2.2-5.5,2h0Z"/>
      <path class="cls-11" d="m146.62,209.25c-2.3-2.9-4.3-5.9-6.3-8.9-1.6-2-2.9-4.6-5.3-5.8-1.1,4.1,1.9,7.8,4.5,10.7.8.2,1,1.3.3,1.8-.9.7-1.7-.4-2.2-1-1.8-2-3.4-4-4.2-6.6-.9-2.3-1.1-8.4,2.9-6.4,4.2,2.9,6.3,8,9.4,11.8.7,1.1,1.4,2.1,2.2,3.1.4.4.4,1,0,1.4-.3.3-.9.3-1.3-.1h0Z"/>
      <path class="cls-11" d="m160.72,208.15c.6-1.8,2.6-3,3.8-4.5,3.2-2.9,6.8-6.9,11.4-6.9,1.2.2,2.1,1.4,1.9,2.7-.7,4.2-4.9,6.5-7.9,9-1,.8-2.2-.8-1.2-1.5,2.5-2.3,6.6-4.3,7.1-8v.1c0-.1,0-.2-.1-.3,0,0,.1,0,.1.1-.2-.2-.4-.2-.6-.2-3.8.8-6.6,3.7-9.3,6.3-1.2,1.3-2.3,2.3-3.4,3.6-.3.9-1.8.6-1.8-.4h0Z"/>
      <path class="cls-11" d="m103.92,263.65c-1.2-7.2-2.3-14.6-4.7-21.5v.1h0c-2.4-5.5-3.9-11.6-1.2-17.2,5.3-8.8,12.8-16,19.2-23.9,3.3-4.1,5.6-8.8,7.5-13.6.6-1.2,1-2.6,1.5-3.9.1-.5.5-.8,1-.8s1,.4,1,1c-2.4,7.2-5.7,14.4-10.8,20.2-4.1,5-8.5,9.9-12.6,14.9-2.6,3.5-6,7-6.1,11.6-.6,6.3,3.5,12,4.5,18.2,1,4.9,2,9.8,2.7,14.7.1,1.1-1.8,1.5-2,.2h0Z"/>
      <path class="cls-11" d="m206.72,262.05c-.5-.2-.7-.8-.5-1.3,1.8-3.8,3.8-7.6,4.8-11.7.8-6.5-.1-13.3-2.2-19.4-4.2-8.3-10.5-15.5-15-23.6-1.5-2.9-3.3-5.6-4.6-8.6-1.1-2.9-2.4-5.9-3.7-8.7-.4-.6-.6-1.5.2-1.9,1.6-.5,1.9,2.3,2.6,3.3,1.9,3.8,3,7.9,5.4,11.4,3,5.9,6.8,11.4,10.5,16.9,3.1,4.4,6.4,8.8,7.7,14.1,1.2,5.1,1.8,10.4,1.4,15.7-.5,3.5-2.1,6.8-3.5,10-1,1-1.6,4.4-3.1,3.8h0Z"/>
      <path class="cls-11" d="m143.82,207.35c-.7-.1-1.4-.5-2.1-.8-1,.6-2-.7-2.8-1.2-.6-.4-1-.8-1.5-1.3-.4-.5-1.1-1-.9-1.7-1.3-2-3.1-4.5-2.3-7-.4-1.3,1.3-2.1,1.9-.9,1.2.4,1.9,1.8,2.7,2.7,1.3,1.9,2.6,3.8,3.8,5.7.6,1,3.8,3.4,2.4,4.4-.3.5-.8.4-1.2.1h0Z"/>
      <path class="cls-11" d="m168.32,207.75c-.5-.1-.8-.4-1.1-.8l-.1-.1c-.8-.1-1.6.2-2.5.4-1.4-.1-1.2-1.9.2-2,2.1-1.7,3.8-3.8,6.1-5.4.7-.5,1.5-1.6,2.4-1,1.4-1,3.6-.6,2.5,1.4.2.1.3.4.3.6s0,.5-.1.6c.2,1-.9,1.6-1.4,2.3-.7.6-1.5,2.2-2.5,1.2-1,.8-1.9,1.6-2.9,2.4-.2.3-.5.5-.9.4h0Z"/>
      <path class="cls-11" d="m69.22,210.45c-1.3-2.4-2.7-4.8-4-7.2-2-3.5-3.9-7-5.8-10.5-.8-1.5-1.6-2.9-2.4-4.4-.2-.5-.1-1,.4-1.3s1.1-.1,1.3.4c1.9,3.4,3.8,6.9,5.7,10.3,1.9,3.4,3.8,6.8,5.6,10.1.3.6.6,1.1.9,1.7.2.5.1,1-.4,1.3-.1.1-.3.1-.5.1-.3-.1-.6-.2-.8-.5h0Z"/>
      <path class="cls-11" d="m64.02,212.05c-.5-.1-.9-.6-.8-1.1.4-3,.7-5.9,1-8.9v-.3c.1-.5.6-.9,1.1-.8s.9.6.8,1.1c-.4,3-.7,6-1.1,9v.3c-.1.5-.5.8-1,.8v-.1h0Z"/>
      <path class="cls-11" d="m70.22,193.05c-1.7-2-2.9-4.4-3.7-6.9-2.7-6-3.8-12.5-4.9-18.9-1.8-15.9-.6-32.3,5.8-47.1.2-.8.6-1.9,1.6-1.5.5.2.7.8.5,1.3-.1.4-.3.9-.5,1.3-4.3,10.1-6.3,21-6.2,31.9-.3,9.4,1.1,18.7,3.6,27.6,1.6,3.7,2.5,8,5.3,11.1,1.1,1-.6,2.5-1.5,1.2h0Z"/>
      <path class="cls-11" d="m67.92,119.55c.9-6.6,2.4-13.2,2.7-19.8.5-5.8.4-11.8,1.9-17.5,5.2-17.2,17-32.1,32.6-41,2.8-1.7,5.9-2.9,8.8-4.4.5-.2,1.1,0,1.3.5.2.5,0,1-.5,1.3-2,.9-4,1.9-6,2.8-2.4,1.2-4.6,2.7-6.8,4.1-10.4,6.9-18.7,16.6-23.9,27.9-1.4,3.2-2.7,6.5-3.8,9.8-.9,3.5-1.1,7.3-1.4,10.8-.3,8.6-1.6,16.9-3,25.4.1,1.3-1.9,1.4-1.9.1h0Z"/>
      <path class="cls-11" d="m88.72,51.65c-5.1-.9-3.2-7-.6-9.7,4.8-5.5,10.3-10.3,16.2-14.5,8.9-6.4,19.2-10.2,29.9-12.5,6.6-1.3,13.5-2.6,20.2-1.4,1.2.2,2.4.5,3.5.8.5.1.8.7.7,1.2-.1.5-.7.8-1.2.7-5.7-1.8-11.4-1.3-17.1-.5-15.7,2.2-30.9,8.5-42.6,19.3h0c-3.4,3.2-7.2,6.2-9.7,10.2-1.1,1.9-1.2,4.8,1.8,4.4,1.9-.2,4-.4,5.4-1.8,1-.8,2.2.8,1.2,1.5-2.1,2-5.1,2.4-7.7,2.3h0Z"/>
      <path class="cls-11" d="m233.82,58.15c-15-21.9-43.1-39.2-69.6-41.9-2.1-.1-4,.1-6,.4-.5.1-1-.3-1.1-.9-.2-1.7,3.3-1.1,4.4-1.4,5.5-.3,10.9,1.3,16.2,2.5,2.2.5,4.3,1,6.3,1.9,16.3,5.9,31.4,15.5,43.2,28.3,3.1,3.1,5.8,6.5,8.2,10.2.7,1-.9,2-1.6.9h0Z"/>
      <path class="cls-11" d="m244.22,74.15c-.2-5.8-2-11.3-4.1-16.6-1.1-2.4-1.9-5.1-4-6.8-1.1,2.4-.8,5-.3,7.5-.2,1-1.9.9-1.9-.2-1.3-3.5.1-13.7,4.9-7.3,3.4,5.6,5.5,11.9,6.8,18.3.3,1.4.4,2.8.5,4.2.1.8.1,1.8-.9,1.8-.6,0-1-.4-1-.9h0Z"/>
      <path class="cls-11" d="m273.22,201.75c-4.5-1.9-3.5-9.1-3.3-13.1.3-1-.2-3.1,1.3-3,.5.1.9.6.8,1.1-.2,3.5-1.6,10.8,1.5,13.1h0c.3,0,.7-.3.8-.5,6-8.9,4.3-35.2,3.7-46.4-1.5-24.4-5.3-43.9-19.8-64.1-3.7-5.1-7.9-10.2-13.2-13.7-.5-.1-.8-.5-.8-1,.8-4.1,11,7.7,12.1,9,18.5,23.2,22.5,45.4,23.9,74.2.6,7.1,2.2,44.6-7,44.4h0Z"/>
      <path class="cls-11" d="m266.12,208.55c-5.5-.7-6.1-7.7-6.9-12.1.1-1.2,2-1.2,1.9.1v-.2c.8,3.5.8,8.5,4.6,10.2.3.1.6.1.8,0,2.8-1.3,3.5-4.8,3.7-7.6.1-1.3,2-1.2,1.9.1-.1,3.7-1.6,9.1-6,9.5h0Z"/>
      <path class="cls-11" d="m202.72,48.75c-6.1-3.5-12.9-5.8-19.9-6.5-5.2-1-10.4-.9-15.7-1.2-5.2-.5-6.8-3.8-.8-5.1-2.3-.1-4.6-.5-6.9-1-1.4-.3-3-.5-4.2-1.4-1-.8-.5-2.2.6-2.6,5.7-2.3,12.2-2.3,18.3-1.8,1.5.3,9.6.9,8.7,3.1-.2.5-.8.7-1.3.5-7.7-2.5-16.5-2.6-24.3-.3,4,1.1,8.3,1.6,12.5,1.6,1.3,0,2.6,0,3.9.1.5,0,1.1,0,1.4.5s.2,1.1-.3,1.4c-3.2,1.2-6.8.9-9.8,2.4,3,1.2,6.3.6,9.5.8,6.3.5,13,1.2,19,3.1,3.1,1.2,6.2,2.3,9.1,3.9.8.5,2.3.9,1.6,2-.3.7-.9.8-1.4.5h0Z"/>
      <path class="cls-11" d="m91.42,156.45c-2.5-1.6,4.8-5.8,5.9-6.9,5.1-3.5,11.4-6.1,17.6-6.1,2.8.1,5.2,1.3,7.7,2.4,3,1.3,5.8,3.6,7.2,6.6.5.5.7,1.3,0,1.8-1.3.7-1.8-1.2-2.3-2-2.8-3.8-7.5-5.8-11.9-6.7-6-.4-11.8,2.3-16.8,5.4-2,1.7-4.5,3.1-6.1,5.2-.2.3-.8.5-1.3.3h0Z"/>
      <path class="cls-11" d="m93.02,157.25c-1,.1-2.6-.1-2.1-1.4.2-.4.7-.6,1.2-.5,2,.1,3.9-.2,5.9-.3,10.5-.8,21-3.4,31.5-2.1,1.2.4.6,2.2-.6,1.8-12-1.1-23.9,2.3-35.9,2.5h0Z"/>
      <path class="cls-11" d="m113.02,154.05c-.2,0-.4,0-.6-.1s-.3-.1-.4-.2c-.2-.1-.5-.3-.7-.5-.4-.5-.6-1-.8-1.6-.4-.9-.6-1.9-.7-2.9v-2.7c0-.3,0-.5.1-.8,0-.2.1-.4.3-.6.3-.4.8-.5,1.2-.3.5.2.7.8.5,1.3v2.5h0c0,.3,0,.6.1.9s.1.6.2,1c.1.5.3.9.5,1.3.1.2.1.4.2.5h0c.1.1.2.1.4.2h0c.1,0,.2-.1.2-.1.1,0,.1-.1.2-.1.1-.1.3-.2.4-.4,0,0,0-.1.1-.1.1-.1.2-.3.3-.5.1-.2.2-.4.2-.5.1-.3.2-.7.4-1,.1-.3.1-.5.1-.7.1-.9.1-1.7.1-2.5v-.1h0v-.6c-.1-.2-.1-.4,0-.6.1-.5.6-.8,1.1-.7.4.1.6.3.8.6,0,.1,0,.2.1.3.1.4.1.8.1,1.1,0,.8,0,1.6-.1,2.3,0,.5-.1,1-.3,1.5-.1.5-.3,1.1-.6,1.5-.1.2-.3.5-.4.7-.2.3-.5.6-.8.9-.4.3-.8.6-1.2.8-.5.1-.7.2-1,.2h0Z"/>
      <path class="cls-11" d="m225.52,161.65c-8.9-13.3-25.8-13.2-37.5-3.7h0c-.5.4-1,.8-1.4,1.4-.6,1.1-2.3.2-1.7-1,5.9-6.6,15.7-9.7,24.4-8.9,3.8.3,7.3,1.9,10.6,3.8,2.8,1.9,5,4.6,7,7.2.8,1-.7,2.2-1.4,1.2h0Z"/>
      <path class="cls-11" d="m225.92,163.05c-6.9-.8-13.7-2-20.6-2.7-5.7-.2-11.4-.5-17.1-.4-.8,0-1.5.3-2.2.4-1.2,0-1.3-1.9-.1-1.9h0c3.6-.9,7.5-.3,11.2-.3,7.8,0,15.5,1,23.2,2.3,1.9.3,3.9.4,5.8.7.6,0,1.1.6.9,1.2-.1.5-.6.7-1.1.7h0Z"/>
      <path class="cls-11" d="m239.62,164.85c-4.6-1.7-9.7-1.6-14.4-2.1-.5-.4-.5-1.2.1-1.6.8-.5,2-.1,2.8-.1,4.1.1,8.1.6,12,1.9.5.2.8.7.7,1.2-.2.5-.7.8-1.2.7Z"/>
      <path class="cls-11" d="m234.32,170.65c-2-3.3-5.3-5.8-8.8-7.3-1.1-.5-.4-2.2.7-1.8,3.6,1.5,7.2,4.2,9.4,7.5.5.6.8,1.5,0,2-.4.2-1,0-1.3-.4h0Z"/>
      <path class="cls-11" d="m82.92,157.15c-.8-2.5,8.1-2.8,9.6-2.4,1.1.5.4,2.2-.7,1.8-2,0-4-.1-5.9.4-1,.3-2.4,1.5-3,.2h0Z"/>
      <path class="cls-11" d="m85.32,162.25c-.4-.3-.5-1-.2-1.4,1.7-1.9,3.4-4,5.6-5.4.6-.4,1.4-.7,1.9,0,.3.4.2,1-.2,1.4-1.6.7-3,2.2-4.2,3.5-.9.7-1.6,2.7-2.9,1.9h0Z"/>
      <path class="cls-11" d="m107.42,175.05c-5.3.1-9.6-3-13.5-6.3-1.2-1-2.3-2.2-2.8-3.7-.3-.4-.3-1,.1-1.3.4-.4,1-.4,1.4,0,1,2.2,2.8,3.7,4.8,5.2s4.2,3.2,6.7,3.7c5.9,1.2,12.2.3,17-3.5,3.4-3.1,6.2-7,10.6-9,.5-.3,1.1-.1,1.3.4.6,1.5-1.9,1.9-2.7,2.7-2.5,1.6-4.3,3.9-6.3,6-4.4,4.3-10.8,6.2-16.6,5.8h0Z"/>
      <path class="cls-11" d="m107.72,169.25c.1-1.2,1.5-.9,2.4-1,7.1-.1,12.1-5.8,17.4-9.8,1-.7,2.1.8,1.1,1.5-5.9,4.8-11.7,10.7-19.9,10.3-.5,0-1-.5-1-1h0Z"/>
      <path class="cls-11" d="m206.42,178.85c-2.7-.4-5.5-1.1-7.9-2.5-2.5-1.4-4.7-3.3-7.2-4.8-2-1.1-4-2.2-5.6-3.7-.2-.2-.6-.2-.9-.4-1-.5-.4-2.1.6-1.8h0c1.4.2,2.3,1.5,3.5,2.2,3.5,1.9,6.6,4.1,9.8,6.3,3.5,2.1,7.7,3,11.8,2.8,3.1-.4,5.7-2.2,8.3-4,1.6-1,3.2-2.1,4.7-3.3.4-.3,1-.3,1.4.1.3.4.3,1-.1,1.4-1.7,1.4-3.6,2.6-5.4,3.8-3.8,2.9-8.3,4.7-13,3.9h0Z"/>
      <path class="cls-11" d="m200.12,172.65c-3.9-1.9-7.8-3.8-11.2-6.5-.7-.7-2.6-1-2-2.3,1-1.8,4.5,1.9,5.7,2.5,2.6,1.8,5.6,3.1,8.5,4.5,1,.7.2,2.4-1,1.8h0Z"/>
      <path class="cls-11" d="m93.62,148.35c-2.2-1.4,3.4-4.3,4.4-5.1,2.5-1.5,4.9-3.1,7.5-4.5,3.2-1.3,6.7-2.4,10.2-2.9,3.1-.1,6.4-.4,9.5.3,4.8,1.4,9.8,3.8,12.4,8.2.3.5.2,1-.3,1.3-1.1.7-1.6-.9-2.2-1.5-2.8-3.5-7.3-5.5-11.6-6.4-5.5-.5-11,.3-16.2,2.4-4.2,2.2-8.6,4.8-12.2,7.9-.5.2-1,.6-1.5.3h0Z"/>
      <path class="cls-11" d="m225.42,153.85c-4.6-5-11.3-7.3-17.5-9.7-3-.7-5.9-1.6-9-1.9-4.8.3-9.6,2.2-13.2,5.5-.8.8-1.5,1.6-2.1,2.6-.2.5-.8.7-1.3.4-.5-.2-.7-.8-.4-1.3,3.5-5.5,10.2-8.6,16.6-9.1,6.5.4,12.7,2.8,18.6,5.5,1.7.6,11.7,6.3,9.7,8.1-.5.4-1.1.3-1.4-.1h0Z"/>
      <path class="cls-11" d="m85.82,143.05c-4.2-.6,1.2-7.3,2.4-9,6.2-9.5,16.7-15.1,27.4-18,5.3-1.2,10.8-2.2,16.2-1.5,2.6.6,5.7,1.7,7.4,3.9,1.1,2.2-1.5,3.5-3.3,3.7,4.3,1.8,4.7,4.8.2,6.8-10,2.9-20.7,1.4-30.8,3.5-4.5.8-8.8,2.6-12.2,5.8-1.8,1.5-3.6,3.1-5.6,4.4-.5.2-1.1.5-1.7.4h0Zm.5-2c3-1.9,5.5-4.4,8.3-6.5,7.7-5,17.2-5,26-5.4,3.8-.6,14.9-.3,16.7-3.5-1.4-1.5-3.6-2.3-5.6-2.8-2.2.2-4.4,0-6.6-.3-.9.1-1.9-.5-1.5-1.5.2-.4.7-.6,1.2-.5,1.6.2,3.2.4,4.8.4,1.4-.1,2.8-.1,4.3-.3.6-.2,4.3-.5,3.3-1.5-6.1-4.8-14.3-2.6-21.2-1.2-7.6,2.1-15,5.6-20.9,10.9-3.4,3.5-7,7.5-8.8,12.2h0Z"/>
      <path class="cls-11" d="m231.72,144.85c-1.3-.4-2.6-1-3.9-1.4-8.9-3.1-18-6.8-27.5-7.4-6.2-.7-12.3.3-18.5.8-2,0-4.6-.2-5.9-2-.9-1.5.3-3.2,1.7-3.9-6.1-1.3-1.8-5.7,2-6.5,8.3-1.5,16.8.6,24.8,2.6,7.4,2,14.6,4.7,21.3,8.4,3.2,2,6.7,3.7,9.2,6.5,2.1,2.9-1,3.8-3.4,2.8l.2.1h0Zm1.8-1.6c-9.1-8-21.1-12.1-32.7-15-5.7-1.2-20.1-4.7-24.1.3,4.1,1.8,9,.9,13.3.4.4-.1.9.1,1.1.5.4.7-.3,1.6-1.1,1.5-2.8.6-5.6.6-8.4.6-1.6.9-6.7,2.1-2,3.3,1.8.4,3.5,0,5.4-.2,2-.1,4.1-.1,6.1-.4,4.8-.6,9.6-.1,14.4.5,6.3,1.3,12.4,3,18.4,5.2,1.8.8,3.7,1.4,5.6,2,1.2.5,2.6,1.2,4,1.3h0Z"/>
      <path class="cls-11" d="m207.52,134.45c-4.7-1.2-9.6-2.2-14.5-1.5-1.6.5-1.9-1.9-.2-1.9,5-.8,10.2.2,15,1.5,1.3.3.9,2.1-.3,1.9h0Z"/>
      <path class="cls-11" d="m116.02,128.25c-.5,0-.9-.5-.9-1,.1-1.2,1.6-.8,2.5-.9,4.5-.1,9-.5,13.4-1,.8-.1,2-.3,2.1.8,0,1.4-1.6,1-2.5,1.2-4.8.5-9.7.9-14.6.9Z"/>
      <path class="cls-11" d="m95.12,131.45c-.3-.5-.2-1,.3-1.3,2.5-1.9,5-3.8,7.8-5.4,1.1-.7,2.1.9,1.1,1.6-2.7,1.6-5.3,3.4-7.8,5.4-.5.3-1.1.1-1.4-.3Z"/>
      <path class="cls-11" d="m109.62,126.35c.2,0,.5,0,.8-.1.5-.1,1-.1,1.4,0-.4.1-.9.3-1.3.4-.5.1-1,.2-1.5.4q-.1,0-.2.1c0-.5.4-.8.8-.8h0Z"/>
      <path class="cls-11" d="m67.22,143.55c-.5,0-1-.5-.9-1,.4-4.2.8-8.4,1.9-12.4.3-.9.6-2.7,2-2.2.5.2.7.8.5,1.3-1.3,3.2-1.7,6.8-2.1,10.3-.4,1.1.2,4-1.4,4h0Z"/>
      <path class="cls-11" d="m66.22,149.25c.1-1.2-.5-4.4,1.4-4,.5.2.8.7.6,1.2-.1.9-.2,1.8-.1,2.7.1,1.3-1.8,1.4-1.9.1Z"/>
      <path class="cls-11" d="m71.82,136.25c-1.2-.3-.7-1.6-.6-2.4.2-1.8.5-3.7.8-5.5.2-1.2,2.1-.9,1.9.4-.4,2.3-.6,4.5-.9,6.8-.1.5-.7.8-1.2.7h0Z"/>
      <path class="cls-11" d="m165.82,146.65c-1.1-1.3-2-2.7-3.2-3.9-.8-.6-1.9-1-2.7-1.3-3.2-.9-8.8-.9-10.6,2.4-.5,1.1-2.3.4-1.8-.7,2.3-4.9,10.4-4.8,14.6-2.9,2.2.8,3.2,3,4.7,4.6h0c.2.2.3.4.4.6.9,1-.7,2.2-1.4,1.2h0Z"/>
      <path class="cls-11" d="m147.72,143.15c-1.3-.7,0-2.1.5-2.9,1.5-1.8,3-3.9,5.4-4.6.7-.2,1.5-.3,2.2-.4,1.3,0,1.3,1.9,0,1.9-3.1,0-5.1,3-6.8,5.2-.1.6-.7,1-1.3.8h0Z"/>
      <path class="cls-11" d="m165.52,144.75c-.5-1.1-.7-2.4-1.3-3.5-1.1-1.4-2.5-2.8-4.2-3.4-.5-.2-.7-.8-.5-1.3,1.2-2.2,6,2.7,6.6,4,.4,1.1.8,2.3,1.2,3.4.4,1.3-1.3,2-1.8.8h0Z"/>
      <path class="cls-11" d="m190.82,107.05c-4.9-1.7-9.8-3.5-14.8-5h.1c-14.4-4-29.4-5.6-44.2-4.1-1.3.4-1.9-1.6-.5-1.9,13.9-1.6,28-.1,41.6,3.1h-.1c6.4,1.7,12.4,3.9,18.6,6,1.1.5.5,2.4-.7,1.9h0Z"/>
      <path class="cls-11" d="m195.42,111.55c-7-2.8-14.1-5.4-21.5-6.8-6.2-1.2-12.5-2.9-18.9-3.2-1.8,0-3.5,0-5.3-.1-.5,0-.9-.5-.9-1s.5-.9,1-.9c9.4-.3,18.6,2.1,27.7,4,6.4,1.4,12.4,3.8,18.5,6.1,1.2.5.6,2.3-.6,1.9h0Z"/>
      <path class="cls-11" d="m201.52,110.15c-1.6-.7-3.2-1.5-4.8-2.1-.2-.1-.5-.2-.7-.3-.5-.2-.7-.8-.4-1.3.8-1.3,2.8.4,3.9.7,1,.7,4,1,3.4,2.6-.3.5-.9.6-1.4.4h0Z"/>
      <path class="cls-11" d="m198.02,250.85c-3.5-4.8-8.2-8.3-13-11.8-8.4-7.3-20-11.3-31-8.3-4.5,1.3-9.3,1-14,1.1-4.4.2-8.4,2.4-12.5,3.8-4.6,2.4-8.6,5.6-12.9,8.5-.6.5-1.2,1-1.7,1.6-.3.4-1,.5-1.4.1-1.4-1.4,2.1-3.3,3-4.1,2.6-1.8,5.2-3.6,7.8-5.3,2.6-1.9,5.5-3.1,8.6-4.1,2.9-1.1,5.9-2.4,9-2.4,3.6,0,7.2,0,10.8-.4,9.4-2.6,18.6-2.3,27.3,2.5,2.7,1.5,5.4,3.1,7.7,5.2,3.4,2.7,7,5.1,10.1,8.2,1,1.1,2,2.2,3,3.4.5.6,1.4,1.6.5,2.2-.4.4-1,.2-1.3-.2h0Z"/>
      <path class="cls-11" d="m198.42,251.35c-3.9-2.9-8-5.5-12.2-8-3.7-2.1-7.3-4.7-11.2-6.2-6.6-2.7-14.1-3.2-21-1.7-4.4,1.6-9.2,1.4-13.8.8-3.3.3-6.6,1.2-9.7,2.5-2.8.9-5.5,1.6-8,3-3,1.3-6.2,2.6-8.9,4.4-.4.3-.9.6-1.4.3-.9-.7-.3-1.7.5-2,2.6-1.7,5.6-3,8.5-4.2,2.4-1.2,4.8-2.3,7.4-2.9,3-1.1,5.9-2.2,9-2.7,3.5-.9,7,.6,10.5-.1,3.4,0,6.4-1.7,9.8-1.7,6.9-.7,14,.4,20.3,3.5,7.3,4.1,14.5,8.4,21.2,13.2,1.1.8.1,2.5-1,1.8h0Z"/>
      <path class="cls-11" d="m154.82,277.55c-6.9,0-14.2-.3-20.6-3.1-4.5-2.5-8.9-5.4-12.4-9.3-2.5-3.3-5.1-6.6-6.6-10.5-1-2.8-2.3-5.6-3.2-8.5-.2-1.2,1.6-1.7,1.9-.4,1.6,4.2,3,8.7,5.3,12.6,2.6,3.5,5,7.3,8.7,9.7,2.9,2.1,5.6,4.2,9,5.4,5.6,1.7,11.5,2.2,17.3,2.2,2.5.2,4.9-.3,7.2-.7,3.1-.3,6-1.5,9-2.3,2.2-.6,4.1-1.9,6.2-2.9,3-1.4,5.9-3,8.4-5.2,4.9-3.7,10.2-7.3,13.2-12.8.1-.6.5-1.4,1.2-1.2,2.7.9-2.3,6-3.2,7.1-2.7,3.4-6.5,5.7-9.9,8.3-3,2.6-6.6,4.4-10.1,6.1-2.3,1.4-4.8,2.3-7.4,3-2.2.7-4.4,1.4-6.6,1.6-2.4.5-4.9,1-7.4.9h0Z"/>
      <path class="cls-11" d="m152.92,268.15c-4.3-.5-8.6-.7-12.7-2-5-1.4-9.8-3.8-14.1-6.7-3.7-2.7-7.6-5.5-10.1-9.4-.7-1.5-1.6-2.9-2.3-4.4-.8-.8.3-2.1,1.2-1.5.4.2.5.7.7,1.1,2.5,6,7.8,10,13.1,13.5,5.8,3.7,12.4,6.3,19.3,6.8,3.7.6,7.5.9,11.3.6,10.3,0,20.4-3.7,29.2-8.8,3.2-2.3,6.6-4.3,9.8-6.5.6-1,2.3,0,1.6,1-1.7,1.9-4.4,2.7-6.4,4.3-3.4,2.4-6.8,4.6-10.6,6.2-2.8,1.5-5.8,2.7-8.9,3.4-6.7,2.3-14,2.8-21.1,2.4h0Z"/>
      <path class="cls-11" d="m154.02,245.75c-.2-.1-.4-.2-.6-.3-.1-.2-.2-.3-.3-.5,0,0-.1-.1-.1-.2-.2-.3-.4-.6-.7-.8-1.9-2.1-4.5-2.4-7.1-1.6-.5.1-1,.5-1.5.6-.6.1-1.1-.1-1.7-.3-.5-.2-1-.3-1.5-.3-1.6-.2-3.1.3-4.7.4-.6,0-1-.4-1.4-.6-.8-.2-1.6-.2-2.3-.3-1.4-.1-2.7.2-4,.4-.6.3-1.2.2-1.7-.3-.5-.4-1.2-.7-1.7-1-.4-.4-.3-1,.1-1.4,1-.8,2,.4,2.8.9,2.7-.5,5.9-.9,8.4.5,2.5-.4,5.1-.7,7.5.3,3.7-1.8,8.1-1.2,10.8,2,2.6-3.4,8.4-3.7,11.7-1.1,2.8-2,7.1-1.6,9.8.4,1.2-.7,2.5-.5,3.8-.4,1.4,0,2.8.4,4,1.2,1-.7,6.1-.6,5.5,1.3-.2.5-.7.8-1.2.6-1.1-.2-2.2-.5-3.3-.3-.5.3-1.1.6-1.7.2-.7-.5-1.3-.8-2.1-1-1.4-.1-2.9-.5-4.2,0-.4.2-.7.5-1.2.4-.7-.2-1.1-.8-1.7-1.1-1.2-.7-2.6-.7-3.9-.8-1,.1-1.9.3-2.7.8-.4.3-.8.7-1.3.7-.8-.1-1.3-.9-2.1-1.2-.7-.3-1.4-.5-2-.7-.9-.2-1.7,0-2.6.2-1.3.2-2.7.7-3.5,1.8-.2.3-.3.6-.5.9,0,0,0,.1-.1.1-.2.3-.5.5-.8.5,0,0-.1,0-.2,0h0Z"/>
      <path class="cls-11" d="m153.52,245.55c-.1-.2-.2-.4-.4-.6,0,0-.1-.1-.1-.2,0-.3.1-.6.2-.8.6-.9,2-.2,1.8.7v.9c-.3.4-.6.7-.8,1.1-.3-.4-.5-.8-.7-1.1h0Z"/>
      <path class="cls-11" d="m142.12,244.85c0-1-.1-2.2.2-3.2.6-.9,2-.3,1.8.8-.2,1.6,0,3.1.1,4.7,0,.2-.1.3-.1.5v-.1c0,.2-.1.4-.1.5h0c-.1.4-.2.7-.3,1.1-.1.2-.1.5-.2.7-.1.1-.2.2-.2.3h0c-.1.1-.1.2-.2.2l-.5.5c-.1.1-.2.2-.2.2-.1-2-.1-4.1-.3-6.2h0Z"/>
      <path class="cls-11" d="m167.42,256.15c-.6-.3-1-.9-1.2-1.3-.9-1.4-1.2-3.1-1.4-4.8-.2-1.8-.3-3.5-.3-5.3v-1.5c0-.5.5-1,1-.9.5,0,.9.5.9,1v3.1c0,1.3.1,2.6.3,3.7.1.7.2,1.4.4,2,.1.3.2.7.4,1,.1.2.2.5.3.6,0,0,0,.1.1.1.1.1.1.2.2.3,0,0,.1.1.1.2q.1.1.2.2h.8c.1,0,.1-.1.1-.1h0c.1,0,.2-.1.2-.2.1-.1.2-.2.3-.3.2-.2.4-.4.6-.7.3-.4.6-.8.8-1.3.4-.8.8-1.7,1.2-2.5v-.1c.6-1.6,1.1-3.2,1.5-4.9v-.2.3-.2h0c.1-.3.1-.6.2-.9.1-.5.6-.9,1.1-.8.5.1.9.6.8,1.1-.1.3-.1.7-.2,1h0v-.1.1c-.4,1.8-1,3.5-1.6,5.2-.5,1.3-1,2.5-1.8,3.7-.6,1-1.5,2.2-2.7,2.6-.3.1-.6.2-1,.2-.5,0-.9-.1-1.3-.3h0Z"/>
      <path class="cls-11" d="m177.82,254.15c-.8-.5-1.3-1.3-1.7-2.2-.4-.8-.7-1.7-.9-2.6-.4-1.7-.5-3.5-.5-5.3v-.7c0-.5.5-1,1-.9.5,0,1,.5.9,1h0v2.1c0,.8.1,1.6.2,2.4.1.6.2,1.2.4,1.8.1.4.3.8.4,1.1s.3.6.4.8.2.3.3.4c.1.1.1.2.2.2q.1.1.2.1l.1.1s.1,0,.1.1h.6s.1,0,.1-.1c.1,0,.1-.1.2-.1l.1-.1c.1-.1.2-.2.3-.4.1-.2.2-.4.3-.5h0c.2-.3.3-.7.5-1,.2-.5.4-1,.5-1.5.2-.8.3-1.5.4-2.3.1-.7.1-1.3.1-2,0-.5.5-1,1-.9.5,0,.9.5.9,1,0,1.9-.2,3.8-.8,5.5-.2.6-.4,1.2-.7,1.7-.3.6-.6,1.2-1.1,1.6-.5.5-1,.9-1.7,1-.2,0-.4.1-.6.1-.1.2-.7-.1-1.2-.4h0Z"/>
      <path class="cls-11" d="m185.12,251.75c-.8-.5-1.3-1.4-1.6-2.3-.3-.8-.5-1.7-.6-2.6-.1-.9-.2-1.8-.2-2.7,0-.5.4-1,.9-1s1,.4,1,.9c0,.7,0,1.5.1,2.2.1.5.2,1.1.3,1.6.1.3.2.6.3.9h0c.1.2.2.4.3.7.1.1.2.3.2.4l.1.1.1.1h.3l.1-.1c.1-.1.1-.2.1-.2.1-.1.2-.3.2-.3.1-.2.2-.5.3-.6.2-.4.3-.8.4-1.1.2-.6.3-1.3.4-1.8,0-.2,0-.3.1-.5h0v-.1c.1-.5.5-.8,1-.8s.9.5.9,1h0v.1c-.1.7-.2,1.4-.4,2.1-.3,1.1-.7,2.2-1.3,3-.4.5-.8.9-1.4,1.1-.2.1-.4.1-.6.1-.2.1-.6,0-1-.2h0Z"/>
      <path class="cls-11" d="m192.32,250.25c-.4-.2-.9-.4-1.2-.7-.5-.3-.9-.9-1.2-1.4-.3-.5-.5-1-.7-1.6,0-.2-.1-.5-.1-.7v-.4c.1-.5.6-.9,1.1-.8.5.1.8.5.8,1h0v.4c0,.1,0,.2.1.3,0,.1.1.2.1.4.1.2.2.3.2.4.1.2.3.4.4.5l.1.1h0l.1.1.1.1c.2.2.5.3.7.4h.3c.3-.2.6-.4.9-.6,0,0,.1,0,.1-.1.3-.2.7-.2,1,0,.5.3.6.9.3,1.3-.1.2-.2.3-.3.3-.1.1-.2.1-.4.2-.3.2-.6.5-.9.6-.3.2-.7.2-1.1.2,0,.1-.2.1-.4,0h0Z"/>
      <path class="cls-11" d="m137.62,253.25c-.6-.3-1-.8-1.3-1.3-.2-.3-.3-.6-.5-.9-.6-1.5-.8-3-1-4.6-.1-1.4-.2-2.8-.1-4.3h0v-.3c0-.5.5-.9,1-.9s.9.5.9,1v1.7c0,1.3.1,2.6.3,3.8.1.6.2,1.3.4,1.9h0c.1.3.2.7.4,1,.1.2.2.4.2.5.1.1.1.2.2.4,0,.1.1.1.2.2l.1.1h.7q.1,0,.2-.1c.1,0,.1-.1.2-.1.1-.1.2-.1.3-.2.2-.1.3-.3.5-.4.2-.2.5-.5.7-.8.4-.5.8-1.1,1.1-1.7h0l.3-.6c.2-.5.8-.7,1.3-.5.3.1.5.4.5.7v.2h0c-.1.3-.1.5-.2.8-.1.1-.1.2-.2.3v.1c-.4.7-.8,1.3-1.3,1.9h0c-.2.2-.5.5-.7.8,0,0-.1.1-.1.2-.1.1-.3.3-.4.4-.5.4-1,.7-1.5.9-.2.1-.5.1-.8.1-.7,0-1.1-.1-1.4-.3h0Z"/>
      <path class="cls-11" d="m131.52,251.95c-1.3-.2-2.1-1.2-2.7-2.2-.8-1.3-1.3-2.8-1.7-4.3-.4-1.3-.7-2.7-1-4h0c-.1-.5.2-1,.8-1.1.5-.1,1,.2,1.1.8h0v.1c.2,1.1.5,2.2.8,3.3.3,1,.6,2,1,2.8.2.5.4,1,.7,1.4h0c.1.2.3.4.4.7.1.1.2.2.3.3q.1.1.2.2l.1.1s.1,0,.1.1h.1s.1,0,.1-.1l.1-.1q.1-.1.2-.2c.1-.1.2-.3.3-.4.1-.3.3-.5.3-.7.2-.5.4-1.1.5-1.6.3-1.2.5-2.4.7-3.6,0-.4.1-.8.1-1.2h0v-.2h0c0-.2.2-.5.4-.6.2-.1.4-.2.6-.2.5,0,1,.5.9,1h0c0,.5-.1.9-.1,1.2-.2,1.7-.5,3.3-1.1,4.9-.3.9-.7,1.7-1.3,2.5-.5.6-1.2,1-2,1,.3.1.2.1.1.1h0Z"/>
      <path class="cls-11" d="m123.42,249.75c-.7,0-1.3-.3-1.8-.8-.5-.4-.9-1-1.1-1.6-.3-.6-.5-1.3-.6-1.9h0c-.1-.6-.2-1.2-.3-1.9,0-.4-.1-.8-.1-1.1,0-.5.4-1,1-1,.5,0,1,.4,1,1v1c0,.5.1,1.1.2,1.5v.2h0c.1.3.2.7.3,1,.1.2.2.5.3.7.1.1.1.2.2.3s.1.2.2.3.1.1.2.2l.1.1s.1,0,.1.1h.7l.1-.1c.1,0,.1-.1.2-.2.1-.1.2-.2.2-.2.1-.1.2-.2.3-.3.1-.2.3-.4.4-.6h0c.1-.3.3-.7.4-1s.2-.7.3-1c0-.2.1-.3.1-.5v-.1c0-.2.1-.5.1-.7s0-.4.1-.6c0-.3,0-.5.1-.8h0v-.1h0v-.2c0-.5.5-.8.9-.9.5,0,1,.4,1,.9h0v.2c0,.7-.1,1.5-.2,2.2h0c0,.3-.1.6-.2.8-.2.9-.5,1.8-.9,2.6s-.9,1.5-1.6,2c-.7.3-1.2.4-1.7.5q0-.1,0,0h0Z"/>
      <path class="cls-11" d="m117.12,247.05c-.7-.1-1.4-.4-1.9-1-.8-.8-.5-2.2.8-2,.4.1.6.4.8.8.4.3.8.3,1.3.3,1.1,0,2.4-1.9,3.4-.6.5.9-.4,1.4-1,1.7-1.1.7-2.2,1.1-3.4.8h0Z"/>
      <path class="cls-11" d="m153.62,259.75h0c-.1-3-.3-5.9-.4-8.8-.1-1.3-.1-2.5-.2-3.8,0-.6-.1-1.3-.1-1.9v-1c0-.5.4-1,.9-1s1,.3,1,.9v.6c0,.5,0,.9.1,1.4l.1,2.9c.1,2,.2,4,.3,6,0,1.2.1,2.4.2,3.6v1.1h0v.1h0c0,.5-.4.9-.9.9h-.1c-.4-.1-.8-.5-.9-1h0Z"/>
      <path class="cls-11" d="m149.72,262.05c-5.3,0-6-6.1-6.6-10.2-.4-1.5-.5-2.9-.6-4.5-.1-1.1-.8-3.4,1-3.1.5.1.8.7.7,1.2.1.8.2,1.6.3,2.4.4,3.4.9,7,2.2,10.2,1,2.5,4.5,2.3,6.4,1.1.4-.3.8-.5,1.2-.7,1.2-.3,1.7,1.5.5,1.9-1.5,1.2-3.3,1.7-5.1,1.7h0Z"/>
      <path class="cls-11" d="m153.82,259.45c-.1-1.2,1.4-1.1,2.1-1.3,2.2-.6,4.6-1.4,6.1-3.1,1.2-3.5,1.5-7.2,1.6-10.8,0-.6,0-1.2.1-1.7.3-1.2,2.2-.7,1.9.5-.2,3-.3,6.2-.9,9.2-.5,2.8-1,4.7-3.8,6-1.1.7-6.8,3.3-7.1,1.2h0Z"/>
      <path class="cls-11" d="m206.82,159.45c-1.5-.4-2.3-1.9-2.8-3.3-.6-1.6-.8-3.4-.8-5.1v-.2h0c0-.5.4-1,.9-1s1,.4,1,.9v.1h0c0,.8,0,1.5.1,2.2.1.5.2,1.1.3,1.6.1.4.2.8.4,1.1.1.2.2.5.3.6.1.2.2.3.3.5.1.1.1.2.2.3q.1.1.2.2l.1.1s.1.1.2.1h.6s.1,0,.1-.1c.1,0,.1-.1.2-.1.1-.1.2-.1.2-.2h0c.1-.1.2-.2.2-.3.1-.2.3-.4.4-.5h0c.2-.3.3-.6.5-.9.2-.5.4-1,.5-1.5.2-.7.3-1.4.4-2.1h0c.1-.5.5-.8,1-.8s.9.5.9,1h0v.1h0c-.2,1.1-.4,2.3-.8,3.4-.5,1.5-1.3,3-2.7,3.8-.4.2-.9.3-1.3.3-.1-.1-.4-.2-.6-.2h0Z"/>
      <path class="cls-11" d="m112.02,151.45c-.6-1.1-1.8-8.5,1.1-6.4.8-.9,2.2-.2,2.7.6,1.1,2.1-.9,10.2-3.8,5.8h0Z"/>
      <path class="cls-11" d="m206.22,158.05c-1.3-1.3-1.1-3.2-1.6-4.9-.1-.7-.4-1.5-.2-2.2.2-1,1.8-.9,1.9.1.9-.9,3.2-.8,4,.2,1.4,1.7-1.5,8.8-4.1,6.8h0Z"/>
      <path class="cls-11" d="m257.92,155.45h-.2c-3.1-.1-6.3-.2-9.4-.3-3.8-.1-7.5-.2-11.3-.3h-.5c-.5,0-1-.4-1-.9s.4-1,.9-1h.3c3.8.1,7.7.2,11.5.3,3.2.1,6.5.2,9.7.3h0c.5,0,1,.4,1,.9-.1.5-.5,1-1,1h0Z"/>
      <path class="cls-11" d="m279.62,187.55h0c-.1,0-.1-.1,0,0h0q-.1-.1,0,0h0q-.1-.1,0,0h0q-.1-.1,0,0l-.1-.1c-.1-.1,0,0,.1.1q-.1-.1,0,0l-.1-.1-.1-.1h0l-.1-.1v-.1h0q-.1-.1-.2-.2h0c-.1-.1-.1-.2-.2-.2h0s0,.1.1.1l-.1-.1s-.1-.1-.1-.2h0s0-.1-.1-.1l-.1-.1-.1-.1h0l-.1-.1-.1-.1-.1-.1h0s-.1-.1-.1-.2h0l-.1-.1-.1-.1h0v-.1l-.1-.1h0c0-.1-.1-.1-.2-.2q-.1-.1-.2-.2h0v-.1l-.1-.1h0c0-.1-.1-.1-.2-.2l-.1-.1s-.1-.1-.1-.2-.1-.1-.1-.1h0c0-.1-.1-.1-.2-.2h0s0-.1-.1-.1l-.1-.1h0c-.1-.1-.1-.2-.2-.2-.1-.1-.2-.2-.2-.2,0-.1-.1-.1-.2-.2l-.1-.1h0l-.1-.1c0-.1-.1-.1-.1-.1l-.1-.1c0-.1-.1-.1-.1-.2h0l-.1-.1q-.1-.1-.1-.2l-.1-.1h0l-.1-.1h0c-.1-.1-.2-.2-.2-.2-.1-.1-.3-.3-.3-.4l-.1-.2-.1-.1h0l-.1-.1h0v-.1l-.1-.1q-.1-.1-.2-.2l-.1-.1c0-.1-.1-.1-.1-.1l-.1-.1h0l-.1-.1s-.1-.1-.2-.2q-.1-.1-.2-.2h0l-.1-.1q-.1-.1-.2-.2t-.1-.2l-.1-.1q-.1-.1-.2-.2h0l-.1-.1h0v-.1l-.1-.1h0l-.1-.1h0c-.1-.1-.2-.2-.2-.3s-.1-.1-.2-.2l-.1-.1q-.1-.1-.2-.2c-.1-.1-.2-.2-.2-.2l-.1-.1c-.1-.1-.2-.2-.2-.3h0c-.1-.1-.2-.2-.2-.2-.1-.1-.2-.2-.2-.2h0c-.1,0-.1-.1-.1-.1h0l-.1-.1-.1-.1-.1-.1c-.1-.1-.1-.2-.2-.2l-.1-.1c-.1-.1-.1-.2-.2-.2h0q-.1-.1-.2-.2h0v-.1l-.1-.1h0v-.1h0c-.1-.1-.2-.2-.3-.4v-.1l-.1-.1h0q-.1-.1-.2-.2c0-.1-.1-.1-.2-.2h0c0-.1-.1-.1-.1-.2h0l-.1-.1c-.1-.1-.1-.2-.2-.2-.1-.1-.2-.2-.2-.3h0c-.1-.1-.2-.2-.3-.3q-.1-.1-.2-.2l-.1-.1h0l-.1-.1h0l-.1-.1q-.1-.1-.2-.2h0c0-.1-.1-.1-.1-.2s-.1-.1-.2-.2l-.1-.1-.1-.1v-.1c-.1-.1-.2-.2-.2-.2l-.1-.1c-.1-.1-.2-.2-.2-.2h0l-.1-.1c0-.1-.1-.1-.2-.2h0v-.1l-.1-.1v-.1h0l-.1-.1c-.1-.2-.3-.3-.3-.4-.1-.1-.2-.2-.3-.3h0c-.1-.1-.2-.2-.2-.3-.1-.1-.2-.2-.2-.3l-.1-.1s-.1-.1-.1-.2-.1-.1-.1-.1h0l-.1-.1-.1-.1h0l-.1-.1h0c-.1-.1-.2-.2-.2-.3h0s0-.1-.1-.1l-.1-.1h0l-.1-.1-.1-.1q-.1-.1-.2-.2l-.1-.1c-.1-.1-.2-.2-.2-.2,0-.1-.1-.1-.1-.1-.1-.1-.2-.2-.2-.3h0v-.1c-.2-.2-.3-.4-.4-.5-.1-.1-.2-.2-.2-.3q-.1-.1-.2-.2l-.1-.1c-.1-.1-.1-.2-.2-.2h0l-.1-.1c-.1-.1-.2-.2-.2-.2h0c-.1-.1-.1-.2-.2-.2h0l-.1-.1h0v-.1l-.1-.1s0-.1-.1-.1h0c0-.1-.1-.1-.1-.2s-.1-.1-.1-.2c-.1-.1-.2-.2-.2-.3v-.1h0c-.1-.1-.2-.2-.2-.3h0l-.1-.1s0-.1-.1-.1h0s0-.1-.1-.1,0,0,0-.1h0l-.1-.1-.1-.1h0c-.1-.1-.2-.2-.2-.2,0-.1-.1-.1-.1-.2l-.1-.1h0c0-.1-.1-.1-.1-.2h0l-.1-.1-.1-.1c-.1-.1-.2-.2-.2-.2l-.1-.1c-.1-.1-.1-.2-.2-.3,0-.1-.1-.1-.1-.1h0l-.1-.1h0s0-.1-.1-.1l-.1-.1c0-.1-.1-.1-.2-.2l-.1-.1c-.1-.1-.2-.2-.2-.3h0c-.1-.1-.2-.2-.2-.2-.1-.1-.2-.2-.2-.3l-.1-.1c-.1-.1-.1-.2-.2-.2h0c-.1-.1-.1-.2-.2-.2l-.1-.1-.1-.1h0l-.1-.1h0s0-.1-.1-.1,0,0,0-.1h0v-.1c0-.1-.1-.1-.2-.2h0s0-.1-.1-.1h0c-.1-.1-.2-.2-.2-.3l-.1-.1h0q-.1-.1-.2-.2h0c-.3-.4-.2-1,.1-1.3.4-.4,1-.4,1.4,0h0l.1.1c0,.1.1.1.2.2l.1.2c.1.1.2.2.2.2q.1.1.2.2l.1.1q.1.1.2.2h0v.1h0l.1.1h0l.1.1.1.1h0c0,.1.1.1.1.1h0l.1.1c.1.1.2.2.2.3.1.1.1.2.2.2h0l.1.2c.1.1.2.2.2.3l.1.1h0v.1c.1.1.1.2.2.2h0c.1.1.2.2.2.3s.1.1.1.2h0l-.1-.1.1.1.1.1s0,.1.1.1c.1.1.2.2.2.2l.1.1q.1.1.2.2s0,.1.1.1h0c0,.1.1.1.2.2h0s0,.1.1.1l.1.2.1.1c0,.1.1.1.1.2h0c0,.1.1.1.2.2h0c.1.1.1.2.2.2.1.1.2.2.2.3.1.1.2.2.2.2l.1.1c0,.1.1.1.1.1,0,.1.1.1.2.2l.1.1q.1.1.2.2v.1l.1.1.1.1s0,.1.1.1,0,.1.1.1c0,.1.1.1.1.2,0,0,0,.1.1.1h0c0,.1.1.1.1.2h0c.1.1.2.2.3.3.1.1.2.2.2.3h0c.1.1.2.2.3.4h0c.1.1.2.2.2.2.1.1.2.2.2.3l.1.1h0l.1.1c0,.1.1.1.1.2h0l.1.1h0l.1.1h0c0,.1.1.1.1.2h0l.1.1s.1.1.1.2h0l.1.1.1.1s0-.1-.1-.1h0q.1.1.1.2s0,.1.1.1h0c0,.1.1.1.2.2l.1.1c0,.1.1.1.2.2.1.1.2.2.2.2.1.1.2.2.2.2l.1.1c.1.1.2.2.2.2.1.2.3.3.4.5h0v.2h0c.1.1.1.2.2.2l.1.1.1.1h0v.1h0c.1.1.2.2.2.3.1.1.2.2.2.2h0l.1.1.1.1h0q.1.1.2.2l.1.1s0,.1.1.1h0l.1.1.1.1s.1.1.1.2l.1.1c.1.1.2.3.3.4s.2.2.2.2c.1.1.2.2.2.3h0c.1.1.1.2.2.2h0c.1.1.2.2.3.3h0c.1.1.1.2.2.2h0s0,.1.1.1l.1.1h0l.1.1h0c.1.1.1.2.2.2h0s0,.1.1.1h0c0,.1.1.1.2.2h0c.1.1.2.2.2.2l.1.1h0c.1.1.2.2.2.3q.1.1.2.2s0,.1.1.1l.1.1.1.1h0l.1.1c0,.1.1.1.2.2.1.1.2.2.2.2l.1.1.1.1.1.1c.1.1.2.2.2.3h0c.1.1.2.2.2.2q.1.1.2.2h0s0,.1.1.1h0s.1.1.1.2c0,0,.1.1.1.2.1.1.1.2.2.2h0l.1.1h0q.1.1.2.2l.1.1c.1.1.2.2.2.2q.1.1.1.2c0,.1,0,0,0,0h0c.1.1.1.2.2.3l.1.1h0c.1.1.2.2.2.3l.1.1c0,.1.1.1.1.1l.1.1c.1.1.2.2.2.2l.1.1s0,.1.1.1v.1h0l.1.1.1.1h0l.1.1c0,.1.1.1.1.2l.1.1c.1.1.2.2.3.4h0v.1q.1.1.2.2v.1h0c0,.1.1.1.2.2q.1.1.2.2l.1.1.1.1h0l.1.1h0v.1l.1.1q.1.1.2.2.1.1.2.2l.1.1c.1.1.2.2.2.3h0l.1.1s0,.1.1.1c.1.1.2.2.2.3l.1.1.1.1h0s0,.1.1.1l-.1-.1h0l.1.1h0v.1q.1.1.2.2c.1.1.1.2.2.2.1.1.2.2.3.3h0l.1.1.1.1h0s0,.1.1.1c.1.1.2.2.3.3v.1c0,.1.1.1.1.2l.1.1s.1.1.1.2l.1.1h0s0,.1.1.1v.1l.1.1s0,.1.1.1c0,.1.1.1.1.2l.1.1c.1.1.1.2.2.2v.1h0v.1h0l.1.1v.1l.1.1h0s0,.1.1.1h0v.1c.3.4.2,1-.2,1.4-.2.1-.4.2-.5.2-.3,0-.6-.1-.8-.4l-.6-1Z"/>
      <path class="cls-11" d="m258.12,153.35c-3.1-.1-6.2-.2-9.3-.3-3.9-.1-7.8-.2-11.6-.4h-.9c-.5,0-1-.5-.9-1,0-.5.5-.9,1-.9h1.9c1,0,1.9.1,2.9.1,2,0,3.9.1,5.9.2,3.5.1,7.1.2,10.6.3h.6c.5,0,1,.5.9,1s-.6,1-1.1,1h0Z"/>
      <path class="cls-11" d="m177.42,150.95h0q-.1,0,0,0h-3.8c-2,0-4.1,0-6.1-.1-4.1,0-8.3-.1-12.5-.1s-8.3-.1-12.5-.1h-9.2c-.5,0-1-.5-.9-1,0-.5.5-.9,1-.9h5.2l6,.1c4.1,0,8.3.1,12.4.1s8.3.1,12.5.1h7.7c.1,0,.2,0,.3.1.4.1.6.5.6.9.2.5-.2.9-.7.9h0Z"/>
      <path class="cls-11" d="m172.02,153.85h-9.5c-.5,0-1-.1-1.5-.1h-3.2c-.6,0-1.1,0-1.7-.1-1.1-.1-2.2-.1-3.3-.1s-2.2-.1-3.2-.1-2.1-.1-3.1-.2c-1.1,0-2.3-.1-3.4-.1-.5,0-1-.1-1.4-.1-.6,0-1.2-.1-1.8-.1-.5,0-1,0-1.5-.1-.5,0-1.1-.1-1.6-.1-.7-.1-1.4-.1-2-.1h-.9c-.4,0-.7,0-1-.3-.4-.3-.5-1-.1-1.4.3-.3.7-.4,1.1-.3h1.4c.5,0,1.1.1,1.6.1s1.1.1,1.6.1,1,0,1.5.1c.6,0,1.2.1,1.8.1.5,0,1,.1,1.4.1,1.1,0,2.3,0,3.4.1,1,0,2.1.1,3.1.2,1.1,0,2.2.1,3.2.1h1.5c.6,0,1.2,0,1.8.1.6,0,1.1,0,1.7.1h3.2c.5,0,1,.1,1.5.1h12.2c.1,0,0,0,0,0h1.7c.5,0,1,.3,1,.9,0,.5-.3,1-.8,1h-.5.1-2.6c-.5.1-1.1.1-1.7.1h0Z"/>
      <path class="cls-11" d="m68.62,151.15c0-.5.4-1,.9-1,3.6-.1,7.2-.2,10.8-.4h1c.5,0,1,.4,1,.9s-.4,1-.9,1c-3.2.1-6.4.2-9.5.3-.8,0-1.5,0-2.3.1h0c-.5,0-.9-.4-1-.9Z"/>
      <path class="cls-11" d="m68.42,153.05c0-.5.5-.9,1-.9,1.8,0,3.5,0,5.3-.1,1.7,0,3.5,0,5.2-.1h1.5c.5,0,1,.5.9,1,0,.5-.5.9-1,.9-2.4,0-4.9.1-7.3.1-1.5,0-3.1,0-4.6.1h0c-.6,0-1-.5-1-1h0Z"/>
      <path class="cls-11" d="m207.22,188.95c-8.2-1.1-17.4-2-23.2-8.5-8.5-9.8-17.4-26.6-10-39.1,1.7-3.1,3.8-6,6.7-8,.4-.3.9-.8,1.5-.6,15.1-5,32.5-4.1,46.6,3.6,3.9,2.2,8.2,4.2,10.8,8,1.8,3,2.7,6.5,3.5,9.9.2,2.1-.2,4.1-.6,6.1-.9,5.3-3.9,9.9-7.2,14-6.5,8.7-17.2,14.4-28.1,14.6h0Zm1-1.9c9.6-.8,18.8-5.5,24.9-13,4.7-5.5,8.4-12.3,8.1-19.7-1.6-7-3.1-10.9-9.7-14.4-6.3-3.6-13.1-6.6-20.4-7.7-6.4-.9-12.9-1.2-19.1.2-3.9.6-8.2.9-11.3,3.5-3.8,3.5-6.6,8.4-7.4,13.5-.6,7.6,2.4,15,6,21.5,3.5,5.5,7.5,11.1,13.9,13.5,4.9,1.3,9.9,2.2,15,2.6h0Z"/>
      <path class="cls-11" d="m84.82,167.75c-1.9-2.6-3.1-5.4-4.2-8.4-1-2-1.5-4.4-1.5-6.6-.9-7.1,3.6-12.5,8.6-16.9,3.1-3.1,7.1-4.9,10.9-7,1.9-1.1,4-1.6,6.1-2.3,2-.7,3.9-1.6,6-2,3.6-.9,7.2-1.4,11-1.4,3.1.4,6,1.7,8.6,3.2,4.8,2.8,10.2,5.9,12.3,11.4,1.7,4.5,1.4,9.4-.3,13.8-1.8,5.5-4.1,10.6-7,15.6-1.3,2.1-2.7,4.1-4.5,5.8-2,1.7-4.2,2.7-6.4,4-5.6,3.2-12.3,3.9-18.7,4h-.6c-8.7.1-16.8-5.3-20.3-13.2h0Zm20.7-39.4c-5.4,1.5-10.3,4.3-14.8,7.5-4.1,3.8-9,7.7-9.6,13.6-.2,3.5.1,6.9,1.7,10.1.8,2.5,2,4.9,3.6,7.1,3.6,8,11.4,13,20.1,12.5h0c3.9-.2,7.9-.3,11.7-1.6,4.2-1.3,8.4-3.5,11.8-6.3,4.5-4.9,7.2-11.3,9.6-17.4,3.4-8.1,3.8-16.3-3.9-22-4.4-2.9-9-6.1-14.3-6.8-.5,0-.9,0-1.4.1-.7.1-1.3.3-1.9,0-1.8.2-3.7.5-5.5.9h-.3c-.1,0-.3.1-.4.1h0c-.5.1-1.1.3-1.7.4-.4.1-.8.2-1.1.3-.3.1-.7.2-1,.4-1,.4-1.8.7-2.6,1.1h0Z"/>
      <path class="cls-11" d="m184.92,159.55c-.5-.3-.6-.9-.3-1.3,3.1-7.2,10.4-11.8,18.1-12.4,1.2-.1,1.5,1.7.2,1.9-6.3.5-12.8,3.8-15.7,9.6-.6.9-1,2.8-2.3,2.2Z"/>
      <path class="cls-11" d="m128.92,153.25c0-6.5-6.4-11-12.4-11.9-1.2-.3-.8-2.2.5-1.9,14.1,2.1,16,17.4,11.9,13.8h0Z"/>
      <path class="cls-11" d="m266.22,142.25c-1.4-.2-.8-2.1-1-3-.1-3.6-.1-7.1-.9-10.5-.2-.3-.2-.7,0-1,2.6-2.5,2.4,5.8,2.6,7.1.1,2.2.2,4.4.2,6.5.1.5-.4,1-.9.9Z"/>
      <path class="cls-11" d="m268.52,144.45c-.5-.1-.9-.6-.8-1.1.2-1.6.4-3.2.6-4.7.2-1.7.3-3.4.3-5,0-.5.5-1,1-.9.5,0,.9.5.9,1,0,1.7-.1,3.5-.3,5.1s-.4,3.3-.6,4.9c0,.4-.6.8-1.1.7Z"/>
      <path class="cls-11" d="m212.92,253.95c-1.4-.8.4-2.7.5-3.8.6-2.2.9-4.4,1-6.6.1-1.3,2-1.2,1.9.1,0,1.6-1,11.3-3.4,10.3h0Z"/>
      <path class="cls-11" d="m95.22,242.35c-.7-1.7-3.7-15.1-.3-14.3.5.2.8.7.6,1.2-.2,1.2-.2,2.6-.2,3.8.3,2.9.9,5.9,1.8,8.7.3,1.1-1.5,1.8-1.9.6h0Z"/>
      <path class="cls-11" d="m75.72,107.85c-.5,0-1-.5-.9-1,.1-1.7.2-3.4.3-5,.3-1.3-.5-7.2,1.9-6,.4.2.5.7.4,1.1-.3,1.7-.3,3.4-.4,5.1-.1,1.6-.2,3.3-.3,4.9,0,.5-.5.9-1,.9h0Z"/>
      <path class="cls-11" d="m95.52,60.45c-2.5-1.7,7.1-6.6,8.4-7.6,1.1-.6,2,1.1.9,1.7-2.1,1.2-4.1,2.6-6.2,4-.6.5-1,.8-1.6,1.3-.3.6-.9,1-1.5.6Z"/>
      <path class="cls-11" d="m244.22,236.15c-1-.6-.1-1.7.2-2.4.4-.6.5-1.4.9-2,.5-.6,1.5-.5,1.7.2.2,1.4-1,2.7-1.5,3.9-.2.4-.9.6-1.3.3h0Z"/>
      <path class="cls-11" d="m231.42,211.35c-.5-.5-1.1-1.1-.5-1.8.3-.4,1-.5,1.4-.1.6.5,1.2,1.3.5,2-.4.3-1.1.3-1.4-.1h0Z"/>
      <path class="cls-11" d="m82.32,209.95c-1-.8-1.9-1.6-3-2-.3-.1-.4-.5-.3-.8.7-1.2,3.3,1.3,4.1,1.9.5.5-.2,1.4-.8.9h0Z"/>
      <path class="cls-11" d="m82.42,218.35c.1-.9-.1-2,.2-2.9.3-.5,1.2-.1,1,.5h0v2.4c0,.3-.3.6-.6.6s-.6-.3-.6-.6h0Z"/>
      <path class="cls-11" d="m55.42,183.75c-1.7-.5,2.9-6.1,3.8-6.6.6-.5,1.3.5.7.9-1.7,1.4-3,3.3-3.8,5.2-.1.4-.4.6-.7.5h0Z"/>
      <path class="cls-11" d="m61.02,176.85c-.4-.4-.1-.9.3-1,.6-.3,1.4-1.5,2.1-.7.2.4-.1.8-.4.9-.6.2-1.3,1.3-2,.8h0Z"/>
      <path class="cls-11" d="m61.22,179.25c-.4-.7.7-1.3,1-.5.5.7-.6,1.3-1,.5Z"/>
      <path class="cls-11" d="m260.82,245.55c-.8,0-.8-1.2,0-1.2,1.2,0,2.1-.8,3.1-1.4,2.6-1.7,5.6-3.3,7.2-6.2.2-.3.5-.4.8-.2,1,.6-1.4,2.8-1.8,3.5-1.7,1.5-3.7,2.6-5.5,3.9-1.2.7-2.4,1.7-3.8,1.6h0Z"/>
      <path class="cls-11" d="m272.52,233.65c.2-.7.8-1.2,1.1-1.9.2-.3.5-.4.8-.2.7.5-.2,1.3-.4,1.9-.4.7-1.3,1.2-1.5.2h0Z"/>
      <path class="cls-11" d="m266.42,238.35c-.2-.2-.2-.6,0-.8.7-.9,1.6-1.6,1.9-2.7.2-.6,1.2-.5,1.1.2.1.6-2.2,4.3-3,3.3Z"/>
      <path class="cls-11" d="m283.82,190.95c-.6-.7-1.1-1.4-1.7-2-.2-.4-.8-.4-.8-.9.3-1.4,1.7.1,2.1.6.4.7,2,1.7,1.2,2.4-.2.2-.6.2-.8-.1h0Z"/>
      <path class="cls-11" d="m282.72,193.95c-.4-.5-.8-.9-1.2-1.3-.2-.2-.3-.5-.2-.8.8-.9,1.7.8,2.3,1.3.5.7-.5,1.4-.9.8h0Z"/>
      <path class="cls-11" d="m285.32,194.05c-.1-.4-.4-1,.2-1.2.3-.1.6,0,.8.3.2.4.4,1.2-.3,1.3-.3,0-.6-.1-.7-.4h0Z"/>
      <path class="cls-11" d="m105.62,123.65c.1-.8,1.5-1.1,2.1-1.4.7-.2,1.1.9.4,1.1-.8.1-2.1,1.7-2.5.3Z"/>
      <path class="cls-11" d="m220.72,138.05c-1.7-.7-3.2-1.4-4.9-1.9-.3-.1-.5-.5-.4-.7.5-1.2,4.7,1.4,5.8,1.6.7.3.2,1.4-.5,1h0Z"/>
      <path class="cls-11" d="m224.12,139.25c-.3-.2-.9-.2-1.1-.7-.1-.3.1-.6.4-.7.4-.1.8.2,1.2.4.7.3.2,1.4-.5,1h0Z"/>
      <path class="cls-11" d="m223.62,302.55c-2.4-.6,4.7-5.8,5.4-6.6.9-.8,1.8-1.6,2.5-2.5.5-.5.9-1.9,1.8-1.5,1.5,1.7-7.8,8.2-8.9,10.1-.1.3-.4.5-.8.5h0Z"/>
      <path class="cls-11" d="m229.52,293.05c-1.3-.7,1.2-2.7,1.8-3.3.2-.2.6-.2.8,0s.2.6,0,.8c-.7.7-1.4,1.3-1.8,2.2v-.1c-.1.4-.5.6-.8.4h0Z"/>
      <path class="cls-11" d="m242.42,279.25c-.3-.2-.3-.5-.2-.8.3-.5.7-1.5,1.5-1,.6.5-.2,1.1-.5,1.6-.2.3-.6.4-.8.2h0Z"/>
      <path class="cls-11" d="m90.42,292.95c-1.3-3.2-2.4-6.5-3.6-9.8-2.1-4.1-4.6-8-5.9-12.5-.2-.7,1-1,1.1-.3,1.3,4.8,4.3,8.8,6.3,13.3,1,3,2.1,5.9,3.2,8.8.3.8-.8,1.2-1.1.5h0Z"/>
      <path class="cls-11" d="m91.92,291.15c-.3-2.2-1.3-4.2-1.9-6.3-.1-.3,0-.6.3-.7s.6,0,.7.3c.6,2.2,1.7,4.2,2,6.5.3.7-1,1-1.1.2h0Z"/>
      <path class="cls-11" d="m79.62,258.35c0-.6-.2-1.2-.1-1.7.2-.7,1.3-.4,1.1.3.1.2.1.9.2,1.3,0,.7-1.2.9-1.2.1h0Z"/>
      <path class="cls-11" d="m150.62,175.55c-3.1,0-6.1-.5-9.2-.3-.8-.1-4.1.5-3.3-1,4-.6,8.4.1,12.5.1.8,0,.8,1.2,0,1.2h0Z"/>
      <path class="cls-11" d="m152.02,170.15c-.2-.4.1-.9.6-.9s1.3-.1,1.3.6c0,.6-.7.6-1.1.6-.3,0-.7,0-.8-.3Z"/>
      <path class="cls-11" d="m131.52,102.25c-.1-1,1.2-.7,1.8-.9,2-.3,4-.7,6.1-.8,1.6-.1,3.2-.2,4.8-.3.3,0,.6.2.6.5s-.2.6-.5.6c-3.8.1-7.6.5-11.4,1.2-.5.1-1.2.4-1.4-.3h0Z"/>
      <path class="cls-11" d="m150.22,104.35c-1.9-.1-3.8.1-5.7-.3-.6-.2-.5-1,.1-1.1,1.9.2,3.8.2,5.7.2.7.1.6,1.2-.1,1.2Z"/>
      <path class="cls-11" d="m242.72,122.05c-.4-1.2-.9-2.5-1.6-3.6-.2-.3-.1-.6.2-.8,1.2-.7,2.2,3.2,2.5,4,.2.7-.9,1.2-1.1.4h0Z"/>
      <path class="cls-11" d="m91.02,46.55c-.5-.1-.5-.7-.4-1.1.4-2.2,2-3.8,3.6-5.2,3.7-3.6,8-6.4,12.4-9.1.6-.4,1.3.5.7,1-4.2,2.6-8.4,5.3-12,8.8-1.5,1.3-3.3,2.9-3.6,5,.1.3-.3.8-.7.6h0Z"/>
      <path class="cls-11" d="m108.72,30.35c-.1-.3,0-.6.2-.8l3.5-1.7c.3-.1.6,0,.8.2.1.3,0,.6-.2.8l-3.5,1.7c-.3.2-.7.1-.8-.2Z"/>
      <path class="cls-11" d="m108.62,30.05c0-.3.3-.5.6-.5s.6.3.5.6c0,.3-.3.5-.6.5s-.5-.3-.5-.6Z"/>
      <path class="cls-11" d="m106.92,34.15c-.6-.1-.5-1.1.1-1.1,1.2-.5,2.4-1,3.6-1.6.7-.4,1.2.7.5,1-1.3.6-2.7,1.6-4.2,1.7Z"/>
      <path class="cls-11" d="m116.02,29.35c-.8-.2-.3-1.4.4-1.3.4-.2,1-.8,1.5-.2.2.2.1.6-.1.8-.7.2-1.2.8-1.8.7h0Z"/>
      <path class="cls-11" d="m275.42,169.25c-.5-6.9-.7-13.8-1.5-20.7-.1-.7,1.1-.9,1.2-.1.5,4.3.8,8.7,1,13,.1,2.6.3,5.1.5,7.7,0,.8-1.1.9-1.2.1h0Z"/>
      <path class="cls-11" d="m277.62,171.25c-.3,0-.6-.3-.6-.6.5-4.1-.2-8-.4-12,.3-.9,1.3-.4,1.1.5.3,3.9.8,7.7.4,11.6.1.3-.2.5-.5.5h0Z"/>
      <path class="cls-11" d="m276.32,175.65c-.8-.1-.5-1.2-.5-1.8,0-.8.1-2.4,1.2-1.5.2.7-.1,1.9,0,2.7-.1.4-.4.6-.7.6h0Z"/>
    </g>
  </g>
</svg>