<?xml version="1.0" encoding="UTF-8"?>
<svg id="Layer_1" data-name="Layer 1" xmlns="http://www.w3.org/2000/svg" viewBox="0 0 305.29 398.12">
  <defs>
    <style>
      .cls-1 {
        fill: #c49c8c;
      }

      .cls-2 {
        fill: #c49c8b;
      }

      .cls-3 {
        fill: #796b6d;
      }

      .cls-4 {
        fill: #68302f;
      }

      .cls-5 {
        fill: #5b5052;
      }

      .cls-6 {
        fill: #e4c5b7;
      }

      .cls-7 {
        fill: #5a5051;
      }

      .cls-8 {
        fill: #efeae1;
      }

      .cls-9 {
        fill: #3d1a17;
      }

      .cls-10 {
        fill: #796c6d;
      }
    </style>
  </defs>
  <g id="Capa_de_vector15" data-name="Capa de vector15">
    <g>
      <path class="cls-6" d="m55.96,210.15c-.2-.6-.4-1.2-.7-1.8-1.6-1.9-3.5-3.5-5.1-5.5-3.3-3.8-5.2-8.5-8.8-12.1-.3-.3-.7-.9-1.1-1.3.1-.6.1-1.3-.6-1.5-2.4-.5-1.5,6.8-1.5,8.3.2,6.1,1.8,12,4.5,17.5v.3c.7,7.2.6,15,3.8,21.7-1-2-1.7-4-2.3-6.1-1.3-5.4-1.1-11-1.7-16.4-1-1.9-2.6-3.5-3.5-5.4-1.2-2.3-2.6-4.4-3.6-6.8-3.2-5.6-2.6-12.3-.8-18.3.8-2.6,2.2-5.2,4.5-6.7,2.8-1.3,6.4-.6,8.7,1.5.8.7,1.6,1.5,2.3,2.4h0c.5,1,.8,2.1,1,3.3-.3.3-.7.4-.9.3.8,5.2,1.3,10.7,3.4,15.5.2.5.7.6,1.1.8.2.5.4.9.5,1.4.2,3,.3,6,.8,8.9h0Z"/>
      <path class="cls-6" d="m178.06,227.05c1.5,5.5-2.6,8-7.5,8.6-2.6.2-5.1-.6-7.3-1.9-.8-.5-1.8-.6-2.5.1-1.2,1-1.9,2.6-3.3,3.5-1,.7-2.4,1.3-3.5,1.8-1.9.6-4,.3-6,.3-.2,0-.3,0-.5-.1-.2,0-.3,0-.5-.1h-.1c-.1,0-.2,0-.3-.1-.1,0-.2,0-.3-.1-.1,0-.2-.1-.4-.1-.1,0-.2-.1-.3-.1-.3-.1-.7-.2-1-.4-.1,0-.2-.1-.3-.1s-.1,0-.2-.1c-.1,0-.2-.1-.2-.1,0,0-.1,0-.1-.1-.1-.1-.2-.1-.3-.2-.1-.1-.2-.2-.4-.2-.2-.2-.5-.3-.7-.5l-.3-.3-.3-.3h0c-.2-.1-.4-.1-.5-.2-.1,0-.2-.1-.2-.1-.1,0-.1-.1-.2-.1,0,0-.1,0-.1-.1-.1,0-.1-.1-.2-.1s-.1-.1-.2-.2h0c-.1,0-.1-.1-.2-.2l-.1-.1v-.1h0v.1s0,.1-.1.1l-.1.1c-.1.1-.2.2-.4.3h-.2c-2.6.6-5.1,2-7.9,1.8-6.4.1-9.9-6.6-8-12.3.1-.5.2-1.2.5-1.6v-.1l.1-.1s0-.1.1-.1l.1-.1s.1,0,.1-.1.1,0,.1,0h.1c.1-.3.2-.7.3-1,0-.2.1-.3.2-.5.1-.2.1-.3.2-.5.1-.3.3-.7.4-1,.1-.1.1-.3.2-.4.1-.2.1-.3.2-.5.2-.5.5-1,.8-1.5.1-.1.1-.2.2-.4s.2-.2.2-.4c.1-.2.2-.3.3-.5l.1-.1c.1-.1.1-.2.2-.3.1-.1.2-.3.3-.4.8-.7,1.4-2.7,2.7-2.1,1.5,1.1-1,2.7-1.5,3.8-1.7,2.5-3,5.4-3.2,8.5,0,1.8.5,5.3,3,4.7.8-.1,1.6-1,2.4-1h.1c.1-.1.1-.2.2-.3l.1-.1h0s.1,0,.1-.1c.1,0,.1-.1.2-.1l.1-.1q.1,0,.2-.1h.2c.3-.1.5-.1.8-.2,2.6-.8,4.6,1.4,6.6,2.5,4,2.2,8.4,2.8,12.8,1.6,2.7-.7,5.5-1.2,8-2.4.8-.2,1.9-1,2.7-.9h.1c.2,0,.3.1.5.3.1-.1.2-.2.4-.2h.4c.1,0,.2,0,.2-.1h.2s0-.1.1-.1c0,0,0-.1.1-.1,0,0,0-.1.1-.1s.1-.1.2-.2h0s.1-.1.2-.1h.2c.1,0,.2-.1.3-.1s.2-.1.3-.1c1-.3,2.1-.5,3.1-1,.1,0,.2-.1.3-.1s.2-.1.2-.1c.2-.1.3-.2.5-.3.1,0,.2-.1.2-.1.1,0,.1-.1.2-.1s.1-.1.2-.1h0c.1-.2.1-.3.2-.5.8-2.2.5-4.5.1-6.7-.2-2.2-.9-4.4-2.3-6.2-1.2-.3-.7-2.2.5-1.9,1.1.3,1.6,1.4,2.1,2.3.1.1.1.2.2.4.1.1.1.2.2.4,0,.1.1.2.1.3s.1.2.1.3c.1.1.1.3.2.5,0,.1.1.2.1.3s.1.2.1.3,0,.2.1.3c0,.1.1.3.1.4h.5l.1.1c0,.1.1.1.1.2s.1.2.2.2c2.4,2.6,2.8,6.3,3.8,9.4h0Z"/>
      <path class="cls-2" d="m57.46,215.55c.2,7.3-.1,14.7-.5,22-.5,2.1,1.4,8.6-2.1,8.2h-.1c-3.6-1.6-6-5.1-7.7-8.5-.1-.2-.2-.3-.2-.5-.1-.2-.2-.3-.3-.5-.1-.1-.1-.3-.2-.4-3.2-6.7-3-14.5-3.8-21.7v-.3c-2.7-5.5-4.3-11.4-4.5-17.5-.1-1.5-.9-8.8,1.5-8.3.7.2.8.9.6,1.5.4.4.8,1,1.1,1.3,3.6,3.6,5.5,8.3,8.8,12.1,1.6,1.9,3.5,3.6,5.1,5.5.2.6.5,1.2.7,1.8.7,1.7,1.2,3.5,1.6,5.3h0Z"/>
      <path class="cls-2" d="m132.16,230.35c.2.3.2.6.1.9v.1c-.6,1.2-3.8,2-5,1.5h-.1c-1.1-.4-1.8-1.3-2.3-2.4h0c-.2-.4-.3-.9-.4-1.3,0-.1-.1-.2-.1-.3-.4-1.8-.3-3.5.1-5.2h0c.1-.3.2-.7.3-1,.1-.2.1-.3.2-.5,0-.2.1-.3.2-.5.1-.3.3-.7.4-1,.1-.1.1-.3.2-.4.1-.2.2-.3.2-.5.2-.5.5-1,.8-1.5.1-.1.1-.2.2-.4s.1-.2.2-.4c.1-.2.2-.3.3-.5l.1-.1c.1-.1.1-.2.2-.3.1-.1.2-.3.3-.4.8-.7,1.4-2.7,2.7-2.1,1.4,1.1-1,2.7-1.5,3.8-1.7,2.5-3,5.4-3.2,8.5,0,1.8.5,5.3,3,4.7.8-.1,1.6-1,2.4-1h.1c.2,0,.4.1.6.3h0Z"/>
      <path class="cls-2" d="m164.36,230.25c.1.4,0,.8-.2,1-.2.2-.4.3-.7.5-.8.3-1.8.5-2.3.8-.9.3-1.7.7-2.6.9h-.1c-3.8,1.2-7.8,2.1-11.8,2-1.3-.1-2.7-.5-4-.9-.8-.3-1.6-.6-2.4-1-.3-.1-.6-.3-.9-.4-.5-.2-.9-.4-1.3-.7-1.3-.9-2.4-2.1-4.1-1.8-.7,0-.8.5-1.4.5h-.4s-.1,0-.2-.1h0s-.1,0-.1-.1h0c-.3-.2-.5-.5-.4-.9v-.2c0-.1.1-.2.2-.3l.1-.1h0s.1,0,.1-.1c.1,0,.2-.1.2-.1l.1-.1q.1,0,.2-.1h.2c.3-.1.5-.1.8-.2,2.6-.8,4.6,1.4,6.6,2.5,4,2.2,8.4,2.8,12.8,1.6,2.7-.7,5.5-1.2,8-2.4.8-.2,1.9-1,2.7-.9h.1c.2,0,.3.1.5.3.2.1.3.2.3.3h0Z"/>
      <path class="cls-2" d="m174.16,222.45c0,.8,0,1.6-.1,2.3,0,.2,0,.3-.1.5h0c-.1.6-.2,1.2-.5,1.7-.1.2-.1.4-.2.6q-.1.1,0,0c0,.1-.1.2-.2.3-.2.4-.4.8-.7,1.2-.1.2-.3.5-.5.7-1.4,1.9-3.2,2.8-5.5,2.6-.3,0-.6-.1-.9-.1-.5-.1-.7-.4-.8-.7-.1-.5.1-1,.6-1.2.1-.1.3-.1.5,0,.7.1,1.4.1,2,0h0c.1,0,.2,0,.3-.1.2,0,.4-.1.6-.2h0c.1-.1.2-.2.3-.3.2-.1.3-.3.5-.4.4-.4.7-.8,1-1.2h0c.3-.5.6-1,.9-1.5h0c.1-.2.1-.3.2-.5.8-2.2.5-4.5.1-6.7-.2-2.2-.9-4.4-2.3-6.2-1.2-.3-.7-2.2.5-1.9,1.1.3,1.6,1.4,2.1,2.3.1.1.2.2.2.4.1.1.1.2.2.4,0,.1.1.2.1.3s.1.2.1.3c.1.1.1.3.2.5,0,.1.1.2.1.3s.1.2.1.3.1.2.1.3.1.3.1.4c.2.9.3,1.7.4,2.6,0,.1,0,.2.1.4,0,.2,0,.4.1.5.1.4.1.9.1,1.3.2.4.2.6.3.8h0Z"/>
      <path class="cls-2" d="m175.66,225.45c0,.2,0,.3-.1.5-.8,1.7-2.1,3-3.7,3.9-.2.1-.5.3-.7.4-.5.2-.9.4-1.4.6h0c-1,.3-2,.5-3.1.7-.5,0-.9.1-1.4.1-.2.1-.4.1-.6.1s-.4-.1-.5-.3c0,0-.1-.1-.1-.2-.2-.5-.1-.9.1-1.1.1-.1.2-.2.4-.2h.4c.1,0,.2,0,.2-.1h.2c.4-.1.9-.1,1.2,0,1.2,0,2.3-.4,3.4-.9h0c.2-.1.5-.2.7-.4h0c.3-.2.6-.3.9-.5,1-.7,1.7-1.6,2.3-2.6,0-.1.1-.2.1-.2l.1-.1c.1-.1.2-.2.3-.2.2-.1.5-.1.7,0h0c.2.1.3.2.4.4h0c.1-.2.2,0,.2.1h0Z"/>
      <path class="cls-2" d="m174.76,222.65c.4.3.5.9.4,1.4,0,.2-.1.4-.1.5h0c-.3,1.4-1,2.5-2,3.3l-.1.1c-1.1.9-2.5,1.6-3.9,2-.1,0-.2.1-.3.1-.2.1-.4.1-.6.2-.1,0-.2.1-.4.1h0c-.3.1-.7.2-1,.2-.2.3-.6.4-1,.3-.3-.1-.5-.3-.6-.5-.1-.3-.1-.6,0-.9,0,0,0-.1.1-.1,0,0,0-.1.1-.1,0,0,0-.1.1-.1s.1-.1.2-.2h0s.1-.1.2-.1h.2c.1,0,.2-.1.3-.1s.2-.1.3-.1c1-.3,2.1-.5,3.1-1,.1,0,.2-.1.3-.1s.2-.1.2-.1c.2-.1.3-.2.5-.3.1,0,.2-.1.2-.1.1,0,.1-.1.2-.1s.1-.1.2-.1h0c.8-.6,1.4-1.4,1.7-2.5,0-.5.1-1.2.5-1.5.1-.1.3-.2.5-.2h.3c.1,0,.2,0,.3.1q.1-.2.1-.1h0Z"/>
      <path class="cls-2" d="m174.66,222.55v.4c-.1.5-.2,1.1-.3,1.7-.1.4-.2.8-.3,1.2h0c-.1.4-.3.8-.4,1.2-.1.2-.2.4-.3.7q-.1.1,0,0c-.1.1-.1.3-.2.4-.2.3-.4.6-.7.9s-.7.8-1.1,1.2c-.4.4-.9.8-1.4.6h0c-.2-.1-.3-.2-.5-.3-.1-.1-.1-.3-.2-.4v-.5c.1-.3.4-.6.7-.9h0c.3-.3.7-.6,1-.9s.5-.6.7-.9h0c.5-.8.8-1.8,1-2.7.1-.5.2-1.1.3-1.7.1-.4.4-.6.7-.7.2,0,.4,0,.6.1.1,0,.3.3.4.6h0Z"/>
      <path class="cls-2" d="m139.26,234.25c.8,0,1.1.7.9,1.3h0v.1s0,.1-.1.1v.1c-.1.1-.2.2-.4.3h-.3c-2.6.6-5.1,2-7.9,1.8-6.4.1-9.9-6.6-8-12.3.1-.5.2-1.2.5-1.6l.1-.1v-.1s0-.1.1-.1l.1-.1s.1,0,.1-.1h.2c.2,0,.5.1.8.3.3.3.3.7.2,1-.3,1.3-.6,2.7-.7,4v.1c0,.5,0,1,.1,1.5h0c.5,2.7,2.6,5.2,5.4,5.6,1.6.3,3.2,0,4.7-.5h0c.8-.2,1.6-.5,2.5-.8.2-.1.4-.1.6-.2.3-.2.7-.2,1.1-.3h0Z"/>
      <path class="cls-2" d="m178.06,227.05c1.5,5.5-2.6,8-7.5,8.6-2.6.2-5.1-.6-7.3-1.9-.8-.5-1.8-.6-2.5.1-1.2,1-1.9,2.6-3.3,3.5-1,.7-2.4,1.3-3.5,1.8-1.9.6-4,.3-6,.3-.2,0-.3,0-.5-.1-.2,0-.3,0-.5-.1h-.1c-.1,0-.2,0-.3-.1-.1,0-.2,0-.3-.1-.1,0-.2-.1-.4-.1-.1,0-.2-.1-.3-.1-.3-.1-.7-.2-1-.4-.1,0-.2-.1-.3-.1s-.1,0-.2-.1c-.1,0-.2-.1-.2-.1,0,0-.1,0-.1-.1-.1-.1-.2-.1-.3-.2-.1-.1-.2-.2-.4-.2-.2-.2-.5-.3-.7-.5l-.3-.3-.3-.3h0c-.3-.3-.6-.6-.8-1-.3-.2-.6-.2-1-.1h0c-.7.1-1.4.5-2.1.4-.6-.2-.8-.9-.6-1.4,0-.1.1-.2.1-.2.1-.2.3-.3.6-.3.8-.3,1.5-.5,2.2-.5h.3c.7,0,1.2.2,1.8.7.1.1.2.2.3.2.3.3.6.7.9,1.2,2.4,1.9,5.6,2,8.5,1.8,1.8-.2,3.6-1.1,5-2.3.5-.5.9-1.2,1.4-1.7h0c.9-1.1,2-2,3.4-2.1.5,0,1,.1,1.5.3.9.4,1.7,1,2.7,1.3h.1c2.3,1,4.9.9,7.2,0,3.8-1,3.2-4.6,2.2-7.6,0-.2-.1-.3-.2-.4h0c-.1-.3-.2-.6-.3-.8v-.1c-.1-.5-.2-1-.4-1.4-.2-.7-.5-1.4-.8-2.1-.1-.2-.3-.5-.4-.7-.1-.1-.1-.2-.2-.3-.4-.4-.8-.7-1-1.2-.3-.8.4-1.4,1.1-1.3h.5l.1.1c0,.1.1.1.1.2s.1.2.2.2c2.6,2.8,3,6.5,3.9,9.6h0Z"/>
      <path class="cls-2" d="m167.56,234.55c-1.4.2-1.7-1.6-.9-2.5-.1-.7.5-1.1,1-1.2.7-.6,1.3-1.6,2.3-1.3.2-.2.4-.4.6-.6.2-.1.5-.2.8-.1.3-.7.8-1.4,1.7-1.2.2-.4.6-.8,1-.9-.3-2.1-.4-4.2-1-6.2.1-.6.7-1,1.2-.8.8.3.9,1.3,1,2,.8,1.3.5,3.1.8,4.7.2.2.2.4.2.7v1.1c.5,1.3-.2,2.8-.8,4-.7.5-1.2,1.6-2.2,1.3-.1,0-.3.1-.4.1-.4.3-.9.5-1.4.4-.7.4-1.6,1.2-2.5.8-.3.1-1,.1-1.4-.3h0Z"/>
      <path class="cls-2" d="m158.56,233.55c.5.4.5,1.2-.1,1.6-.2.5-.8.6-1.2.8-2.5,1.2-5,3.6-8,2.7-.4-.1-.7-.2-1-.5,0,0-.1,0-.1-.1-1.1-.2-2.5-.1-3.3-.9-.8-.1-1.9-.2-2.8-.5h0c-.2-.1-.4-.1-.5-.2-.1,0-.2-.1-.2-.1-.1,0-.1-.1-.2-.1,0,0-.1,0-.1-.1-.1,0-.1-.1-.2-.1s-.1-.1-.2-.2h0c-.1,0-.1-.1-.2-.2l-.1-.1v-.1h0c-.8-.6-1.4-.9-2-1h-.5c-.9,0-1.6.4-2.6,1h0c-.4.2-.8.5-1.2.7-.4,1-1.8,1.2-2.1,0-.2.2-.5.3-.8.4-.4,0-.7-.1-.9-.3-.7.4-1.4-.1-1.7-.7-.9.3-1.8-.3-2.3-1-1.8-.2-2.2-3.3-2.5-4.8-.1-.6.4-1,.9-1.1h.4c.3.1.6.3.6.8,0,.7.3,1.3.5,2,1-.2,1.2.5,1.4,1.3v.1-.1c0-.8,1-1.3,1.7-.7.2-.2.4-.3.6-.3s.4,0,.5.2c0-.9,1.1-1.2,1.8-.9h0c.1,0,.1.1.2.1h0l.1.1c.5.5.4,1.4.6,2,.4-.6,1.4-.5,1.7.2,1.1-.7,2.4-1.1,3.6-1,.9.1,1.8.4,2.5,1.1h0c.6.3,1.2.5,1.8.7,1.6.5,3.3.7,5,.9,1.5-.9,3.4-.8,5.1-1.1,1.1-.1,2.3-.5,3.3-.2.1,0,.2-.1.2-.1h.6c.4-.4,1-.6,1.5-.5,0,.2.1.2.2.3h0Z"/>
      <path class="cls-6" d="m57.56,182.15c-.1.1-.1.2-.1.4-.5-4.4-.9-8.7-1-13.1.1,4.2.5,8.5,1.1,12.7Z"/>
      <path class="cls-6" d="m57.56,187.65c0,.5,0,1.1.1,1.7-.2-1.4-.5-2.9-.3-4.3.1,1,.3,2.1.2,2.6Z"/>
      <path class="cls-6" d="m58.16,145.15c-.1.5-.1,1-.2,1.5-.8,6.5-1.3,13-1.7,19.5,0-7,.5-14,1.9-21h0Z"/>
      <path class="cls-6" d="m58.26,218.85c.3,6.2,0,12.5-.4,18.7,0,.1-.1.2-.1.3-.3,3.3-.5,6.7-.6,10-.3-.7-1-1.1-1.5-1.7-.2,0-.3-.1-.5-.2-.1,0-.2-.1-.3-.2,3.5.4,1.6-6.1,2.1-8.2.3-7.3.7-14.7.5-22,.4.9.8,1.7,1.4,2.5-.4.1-.6.4-.6.8h0Z"/>
      <path class="cls-6" d="m59.16,213.75c.2,1.4.2,2.8,0,4.2-.1,0-.2,0-.4.1.2-1.4.3-2.9.4-4.3h0Z"/>
      <path class="cls-6" d="m71.86,99.65c-.1.2-.2.3-.3.5-3.1,5-5.2,10.4-7,16-.9,2.4-1.6,4.9-2.3,7.3.5-2.5,1.1-5,1.9-7.5,2.2-5,4-10.2,6.8-14.9.3-.4.6-.9.9-1.4h0Z"/>
      <path class="cls-6" d="m97.96,87.25c.3.1.7.1,1.1.2-1.4.1-2.7.1-4.1.1-1.4-.2-2.8-.5-4.1-.8,1.8.1,3.7.2,5.5.2h.8c.2.1.5.2.8.3h0Z"/>
      <path class="cls-6" d="m102.26,86.25c1.1-.7,2.3-1.2,3.5-1.7-1.6,1.1-3.3,2-5.1,2.7-.4.1-.8.1-1.2.1,1-.4,2.3-.7,2.8-1.1h0Z"/>
      <path class="cls-6" d="m118.46,365.65c-.5-.2-1-.5-1.5-.7-5.4-3.3-10.6-6.9-15.9-10.3-3.3-2.8-6.7-5.3-9.9-8.1l-1.2-1.2c.6.4,1.2.7,1.8,1,3.9,2.2,7.1,5.3,10.9,7.7,2.1,1.6,4,3.3,6.3,4.7,3.1,2,6,4.7,9.4,6.4h.1c-.1.2-.1.3,0,.5h0Z"/>
      <path class="cls-6" d="m94.56,182.35c.7.1,1.3.1,1.9.1-2.8.1-5.7.2-8.5.3.8-.7,2.2-.6,3.1-.8.9-.1,1.8-.2,2.7-.2.1.3.4.6.8.6Z"/>
      <path class="cls-6" d="m104.46,181.85c1.3,0,2.7.1,4,.1-3.9.1-7.7.3-11.6.4,2.6-.1,5-.6,7.6-.5h0Z"/>
      <path class="cls-6" d="m142.06,264.35h.2c-3.2,1-6.1,2.8-9.5,3.3-2.2.4-4.5.6-6.7,1-.3.2-.7.2-1,0-.2-.1-.3-.2-.4-.4,3.6.1,7.2-.9,10.7-1.6,2.4-.5,4.4-2.2,6.7-2.3h0Z"/>
      <path class="cls-6" d="m144.36,256.85c.2.1.5.3.7.6-2.9-1.5-5.8-1.2-8.9.1,1.2-.6,2.4-1.1,3.7-1.4,1.6-.4,3.2-.1,4.5.7h0Z"/>
      <path class="cls-6" d="m161.76,261.75c1.1.5,2.2.8,3.3,1.2-2-.4-3.9-1.1-5.9-1.4-.3,0-.7.1-.9.3-1.7,1.5-3.5,3.2-5.5,4.3,1.3-.8,2.7-2,4.4-3.3,1.5-1.8,2.3-2.1,4.6-1.1h0Z"/>
      <path class="cls-6" d="m121.46,275.35c-1.4-1-2.8-2-3.8-3.4-.3-.5-.8-1-.8-1.6,0-.2,0-.3.1-.5h0v-.2h0v-.2.1c1.3,2.2,2.8,4.1,4.5,5.8h0Z"/>
      <path class="cls-6" d="m117.06,267.75c.9.1,1.7.2,2.6.2-1.1,0-2.1.1-2.9.1-.1,0-.1-.1-.2-.1-1-.3-1.3.8-1.5,1.5-.1.4-.1.8-.1,1.2-.1-.4-.2-.8-.3-1.3-.1-.7.2-1.1.5-1.3h-.6c-1.2-.2-1-2,.2-1.9h.1c-.4.5-.3,1.4.4,1.6.6.1,1.2.1,1.8,0h0Z"/>
      <path class="cls-6" d="m136.36,295.15c-.1.1-.3.3-.3.5-1.5-.9-2.9-1.8-4.3-2.8-3.4-2.1-6.3-5-8.6-8.4.4.5.9.9,1.4,1.4,2.5,2.7,5.2,5.1,8.1,7.3,1.1.7,2.4,1.4,3.7,2h0Z"/>
      <path class="cls-6" d="m140.86,284.85c-.6-.1-1.2-.2-1.8-.3-.3-.2-.7-.2-1,.1-.8-.4-1.7-.8-2.5-1.2.3.1.7.2,1,.2,1.5.5,2.9,1,4.3,1.2h0Z"/>
      <path class="cls-6" d="m158.46,296.65c.5,0,1.4-.2,2.2-.2-2.1.6-4.1,1.1-6.3,1.3-1.1.2-2.2.1-3.3,0,1.9-.2,3.8-.5,5.6-.9.6,0,1.2-.1,1.8-.2h0Z"/>
      <path class="cls-6" d="m170.66,235.65c4.8-.6,9-3.1,7.5-8.6-1-3.1-1.4-6.8-3.8-9.2-.1-.1-.2-.1-.2-.2s-.1-.2-.1-.2l-.1-.1h-.5c0-.1-.1-.3-.1-.4s0-.2-.1-.3c0-.1-.1-.2-.1-.3s-.1-.2-.1-.3-.1-.3-.2-.5c0-.1-.1-.2-.1-.3s-.1-.2-.2-.3c-.1-.1-.1-.3-.2-.4-.1-.1-.1-.2-.2-.4-.5-.9-1-2-2.1-2.3-1.2-.3-1.7,1.5-.5,1.9,1.4,1.8,2.1,4,2.3,6.2.3,2.2.7,4.5-.1,6.7-.1.2-.1.3-.2.5h0c-.1,0-.1.1-.2.1s-.1.1-.2.1-.2.1-.2.1c-.2.1-.3.2-.5.3-.1,0-.2.1-.2.1,0,0-.2.1-.3.1-1,.4-2.1.7-3.1,1-.1,0-.2.1-.4.1s-.2,0-.3.1h-.2c-.1,0-.1.1-.2.1h-.1c-.1,0-.1.1-.2.2,0,0,0,.1-.1.1,0,0,0,.1-.1.1s0,.1-.1.1h-.2c-.1,0-.2,0-.2.1h-.4c-.1.1-.2.1-.3.2-.1-.2-.3-.2-.5-.3h-.1c-.8-.1-1.9.7-2.7.9-2.5,1.3-5.3,1.7-8,2.4-4.3,1.2-8.8.6-12.8-1.6-2-1.1-4-3.3-6.6-2.5-.2.1-.5.1-.8.2h-.2q-.1,0-.2.1l-.1.1c-.1,0-.2.1-.2.1,0,0-.1,0-.1.1h0l-.1.1c-.1.1-.2.2-.2.3h-.1c-.8,0-1.6,1-2.4,1-2.5.5-3-2.9-3-4.7.1-3.1,1.5-5.9,3.2-8.5.5-1.1,2.9-2.6,1.5-3.8-1.3-.6-1.9,1.4-2.7,2.1-.1.1-.2.3-.3.4s-.1.2-.2.3l-.1.1c-.1.1-.2.3-.3.5-.1.1-.2.2-.2.4-.1.1-.1.2-.2.4-.3.5-.5,1-.8,1.5-.1.1-.2.3-.2.5-.1.1-.1.3-.2.4-.1.3-.3.7-.4,1-.1.2-.1.3-.2.5,0,.2-.1.3-.2.5-.1.3-.2.6-.3,1h-.2s-.1,0-.1.1l-.1.1-.1.1v.2c-.3.5-.4,1.1-.5,1.6-1.9,5.7,1.6,12.4,8,12.3,2.8.2,5.3-1.1,7.9-1.8h.3c.2,0,.3-.2.4-.3v-.1s0-.1.1-.1v-.1h.1v.1l.1.1.2.2h0c.1,0,.1.1.2.2.1,0,.1.1.2.1,0,0,.1,0,.1.1.1,0,.1.1.2.1s.2.1.2.1c.2.1.3.1.5.2h0l.3.3.3.3c.2.2.5.3.7.5.1.1.2.2.4.2.1.1.2.1.3.2,0,0,.1,0,.1.1.1,0,.2.1.2.1,0,0,.1,0,.2.1.1,0,.2.1.3.1.3.1.7.3,1,.4.1,0,.2.1.3.1s.2.1.4.1c.1,0,.2,0,.3.1.1,0,.2,0,.3.1h.1c.1,0,.3.1.4.1.2,0,.3,0,.5.1,2,0,4.1.3,6-.3,1.1-.4,2.4-1.1,3.5-1.8,1.4-.9,2-2.5,3.3-3.5.7-.7,1.7-.6,2.5-.1,2.3,1.1,4.8,2,7.4,1.7h0Zm20,25.7c.5.2,1.1.3,1.7.5-2-.9-4-1.7-6-2.4-.2.2-.5.4-.9.4-1.2-.2-2.5-.5-3.6-.6h-.1c2.9.7,5.9,1.4,8.9,2.1h0Zm6.4,3.5c.5-1.2-.9-1.5-1.8-1.8-2.3-.8-4.6-1.2-7-1.9-9.8-2.4-19.5-5.4-29.1-8.3-1.6-.4-3.6-1.1-5.1.1-1.1.6-1.8,1.5-2.6,2.4-1.4,1.2-2.8,2.4-4.1,3.7-.2-.2-.4-.3-.6-.5h.3c.1,0,.1-.1.2-.1-.5-.3-.9-.8-1.4-1.1-2.1-1.1-4.5-1.8-6.9-1.7-4.1.4-6.8,3.4-10.2,5.5l-3,1.5h0c-3.2,1.3-6.7,1.9-9.9,3h0c-.4,0-.7.1-1,.3-.5.2-1,.4-1.5.6.1,1.3.5,2.6,1,3.8.1.2.2.4.4.5.1.9.3,1.7.7,2.5,1,2.2,2.8,3.8,4,5.8.2.4.4.8.6,1.1-.1,0-.3.1-.4.2-.9,1.1.4,2.6,1,3.6,2.6,4.2,6,7.8,10.2,10.4,5.3,3.7,11.2,7,17.8,7.4,6.5.3,12.8-1.9,18.4-4.9.7-.3,1.4-.5,1.9-1q.1-.1.1-.2c.3-.2.7-.4,1-.6,4.3-2.9,8.6-6,11.6-10.4.3-.4.2-.8,0-1.1.4-.4.7-.8,1-1.2,2.6-2.7,4.8-5.9,6.7-9.2.8-1.8,1.3-3.7,2.1-5.5-1.2,2.3-2.5,4.5-3.9,6.7.9-1.7,1.8-3.3,2.7-5,.4-1.1,2.2-2.7.8-3.6-.9-.3-1.3.4-1.7,1.2-.3,0-.6.1-.8.3-.9,1.1-1.8,2.2-2.8,3.2-1.7,1.7-3.7,3-5.8,4.3-2.4,1.4-4.2,3.2-6.6,4.6-2.1,1.1-4.3,2-6.5,2.8,2.8-1,5.5-2.3,8.1-3.9,2.1-1.4,4.1-2.9,5.9-4.6.7-.5,1.2-1.4,2-1.5,2.3-1.7,4.1-4,6.2-5.9.8-.9,2.8-1.7,2.9.1.2-.5.4-1.2.6-1.7h-4.5c-4.7.4-9.4.2-14-.3,6.5.5,12.9-.1,19.4.2h.3c.7.2,1.3.4,2,.6.5.3,1.1.1,1.3-.4h0Zm16.3-84.9c.4-.8.1-2.3.4-3.3h-3.9c-.8,0-1.6,0-2.4-.1-3,0-6.1.5-9.1.5-.3,0-.7.1-1,.1-7.2.8-14.2.8-21.2,1.4-.5,1.6,0,3.4.4,5,.5,1.1,1.2,2.2,1.9,3.2.7.8,1.6,1.2,2.3,2,.8.9,1.5,2,2.4,2.7,2.9,2.5,6.8,2.7,10.5,2.8,4.2.2,8.9-.3,12-3.5,3-3.2,6-6.7,7.7-10.8h0Zm13.2-15.4c.8-.6,1-1.7.5-2.5h0c-.2-.5-.7-1-1.5-1.4h0c-.7-.4-1.4-.7-2.2-.9v-.2c0-.2,0-.5.1-.6h0c.1-.1.2-.2.2-.2.1-.1.3-.2.5-.2.5-.3,1.1-1,1.1-1.7-2.3-2.6-6.1-2.1-9.2-2.3-8.4-.4-16.9.2-25.1,1.7-.3.1-.6.1-1.1.2-.6.1-1.3.1-1.9.2-4.2.8-8.9,1.3-12.5,3.6-1.8.9-2.9,2-2.7,3.3.5.4,1.2.4,1.8.4.5.2,1,.3,1.6.4l.1.1c-.4.5-.8.9-1.1,1.5h-.5c-.1.2-.2.3-.5.5-.3.1-.6.3-.7.5,0,0-.1.1-.1.2v.1c.1.4.6.7,1.3,1,.1.3.3.5.5.7.1.1.2.2.4.2h0c.2.1.4.2.7.2h.9c1.4.1,2.8.1,4.2.1.3,0,.5.1.8.1h0c1.4.1,2.8.3,4.1.3.9.1,1.6.1,2.2.1h4.7c1.3,0,2.5,0,3.8-.1h2.6c.6,0,1.1,0,1.7-.1h.3c.6,0,1.1,0,1.7-.1.6,0,1.2-.1,1.8-.1.5,0,1-.1,1.5-.1.6,0,1.2-.1,1.8-.1h.5c.2,0,.4,0,.6-.1,3.6-.4,7.2-.9,10.7-1.8.3,0,.7-.1,1.1,0,.1,0,.2.1.2.1,1.1-.4,2.2-.9,3.4-1.4.6-.4,1.3-1,1.7-1.6h0Zm30.7,78.9c2.4.3,4.3.2,5.8-.4-1.3.6-2.7.9-4.1,1-1.7-.1-3.4-.6-5-1-.3-.2-.8-.3-1.2-.5-.6,1.3-.6,2.9-.8,4.3,0,.6.1,1.8-.2,2.7h0v.6c-.3,4.3.2,8.4.3,12.6-.5,6.4-.1,12.6-.4,19-.6,9.4-.6,19.1-4.7,27.8-3.4,6.8-7.1,13.5-10.7,20.2-.1.1-.2.3-.2.4.1,1-1.4,2.7-1.7,3.5-2.4,3.8-5.1,7.4-8,10.9-.8.8-1.6,1.6-2.5,2.4-1.6,2.7-9.4,8-10.7,8.2-1.5.8-3,1.5-4.5,2.2-5.2,3.3-10.5,6.3-16.2,8.8-9.6,4.3-19.6,7-29.8,9.2-2,.3-4.1.6-6,1.2-.9,0-2.2.7-2.8-.1h-1.5c-6.2.2-12.2-1.1-18-3.2-5-2.2-10-4.6-14.9-7.1.6-.1,1.2-.7,1-1.4-1.3-5.8-4.4-11.4-6.7-16.9-6.2-13.2-10.2-27.3-16.2-40.5-4.1-10-9.1-19.5-12.5-29.7-2.8-7.4-6.2-14.7-10.8-21.1,0-1.2.1-2.4.2-3.6.8-9.6,2.5-19.1,4.1-28.6,1.2-5.3,2-11.1,3.6-16.4,1.6-4.2,4.1-8.1,6.4-12,0-.1.1-.1.1-.2.9-.2,1.1-1.4.4-1.8-.1-.1-.2-.2-.3-.2-.9-1.7-1.6-3.8-1.8-5.9.9,2.6,1.9,5.5,4.1,7.4,3.2,3.3,8,3.6,12.3,3.5,5.6.3,9.2-1.4,13-5.4,3.3-3.2,6-6.4,5.7-11.3h.5c.4,0,.7-.1.8-.3.7.1,1.5-.5,1.1-1.3-.3-.6-.9-.9-1.4-1.1-5.7-1-11.7-.5-17.4-1-4-.3-8.1.3-12-.8-.6-.3-1.4-.8-1.7-1.4,4-.3,7.9-.6,11.9-1,4.5-.5,8.9-1.2,13.4-1.5,4.2-.6,12.9-.3,15.5-3.6h0c-.2-.4-.5-.7-.9-1-.4-.6-1.2-1.1-1.7-1.4-1.1-.6-2.2-1.2-3.4-1.6v-.3c-.1-.3-.1-.6.1-.9.1,0,.3-.1.4-.1.3.2.7.1,1-.1.1-.1.1-.2.2-.3.2-.1.3-.3.3-.6.3-.1.5-.2.8-.3.1,0,.1-.1.1-.1-.3-.5-1-.9-1.1-1.4-4-1.3-8.4-1.2-12.6-1.8-7.6-.5-15.3-.8-22.9,0-1.7.1-5.7.3-9.6.9-1.8,0-3.5,0-5.3.2,3.5-1,7.1-1.5,10.7-1.7.1.4.5.6.9.6,1.3-.1.9-1.5.9-2.4-.4-12.2.7-24.5,3.1-36.5,1.9-8.7,5.4-17,9-25.1,1.5-3.6,2.7-7.5,5.3-10.4.8-.6.8-1.4.3-1.8.4-.1.9-.2,1.3-.3,1.2-.4,2.5-.7,3.8-1.1,2.5-.5,5.1-1,7.6-1.4,3.4-.5,6.8-.6,10.2-.5,1.5.1,3.1,0,4.6.3.2.3.5.6.6,1.1-.2.3-.2.6,0,1,0,.1-.1.3-.2.4,0,.4.1.9.3,1.3.6-.5,1.3-1,1.7-1.3.1-.1.2-.1.3-.2.2.1.4.1.7,0,.7-.3.9-1,1.4-1.5,3.6-2.2,7.9-3.5,11.9-4.6,1.7-.5,3.4-.9,5.1-1.2,3.6-.3,7.2-.4,10.7-.4h1c.9,0,1.9.2,2.6.7.4.2.7.5,1,.9,0,.2.1.4.3.5,0,.1.1.2.1.4.1.3.1.6,0,.9,2.4-.3,4.8-.3,7.1-.2,4.2-.4,8.4-.5,12.6.6.5.2,1.9.4,3.3.8h0c.4.1.8.2,1.2.3,1,.3,1.8.7,2.3,1.1,3.5.9,6.9,2.1,10.3,3.4.5-.2,1,.1,1.4.5h0c.6.2,1.2.4,1.2,1v.5c1.5,1.9,3,4,4.1,6.1,3.3,5.1,6.4,10.3,8.8,15.9.7,2,2.4,3.5,2.9,5.4,0,.1,0,.2-.1.3,4.1,7.1,7.3,14.8,9.4,22.7.9,4.1,2.3,8,2.9,12.1,1.3,4.4,2.2,8.9,3.2,13.3,0,.2.1.3.2.5.5,2.5.9,5,1.4,7.5.2,2,.5,4,.9,5.9.2,1.3.5,2.6.7,4,0,.1-.1.2-.1.2.6,4.7,1,9.3,1.2,14,.2,3.6,1.2,7,.9,10.6.2,1.8.2,3.5.3,5.3h0v1.1c0,.1,0,.2.1.4.1,1.7.3,3.4.7,5,.1,1,.3,2,.5,3s.4,2.2,1.2,2.8c.2.1.3.2.4.2q0,.1.1.2l.1-.1h.3c-.2.2-.3.4-.3.6-.1,1.5,0,3,.1,4.4,0,2.5-.5,5-.4,7.5.9,5-1.9,7.4,5,7.6h0Z"/>
      <path class="cls-6" d="m276.76,209.55c-.2.3-.4.6-.6,1-1.7,1.9-3.1,4-4.7,5.9-.1.4-.4.6-.7.7-.4.9-.5,1.9-.7,2.8-.5,3.9.1,7.8-.5,11.7-.4,2-1,4.2-1.8,6.1.9-2.4,1.2-5.4,1.5-8.4.5-3.2-1-6.3-.3-9.5.5-2.4,2.2-4.4,4-5.9,1.3-1.4,2.5-3,3.8-4.4h0Z"/>
      <path class="cls-6" d="m282.76,190.05c0,.3-.1.6-.2.8-.2,5.1-1.4,10.2-3.6,14.9.2-2.5-.1-5-.6-7.5-.3-2.1-.9-4.1-2.1-5.9-.5-.6-.7-1.6-1.5-1.9-.9-.3-1.5.7-1.1,1.4-.6.5-1,1.6-1.5,2-2.8,3.6-6.1,6.8-8.7,10.5-1.8,2.4-3.2,5-5.2,7.4-.4.6-.9,1.2-1.3,1.7.1-.4.3-.8.4-1.2.1-.2.3-.4.6-.5.1-1,.2-2.1.4-3,.5-3.1.9-6,1.4-9q-.1-.1-.2-.2c-.4-.7,0-1.6.6-1.8.2-.2.5-.3.9-.1h0c.3,0,.5.2.7.5h0c.6,0,1.2-.1,1.5-.6.1-.2.2-.3.4-.5.7-.5,1.1-1.4,1.5-2.4.9-1.7,1.5-3.5,1.8-5.3.1-.3.3-.5.5-.7.2-1.2.4-2.2.6-2.9.5-3.5,1.2-7.1,1.3-10.6-1.2-.5-.4-2.3-.5-3.3.3-1.1-.4-3.4,1.3-3.3.6.1.8.6.8,1.1.4,0,.9.2,1.3.3,1.8.4,3.8.8,5,2.4,4.1,5,5.5,11.4,5.5,17.7h0Z"/>
      <path class="cls-1" d="m278.26,198.25c.5,2.5.8,5,.6,7.5-.1.8-.2,1.6-.4,2.4-.1.5-.6.9-1.1.8h-.1c-.1.2-.3.3-.4.5q-.1.1-.2.2c-1.3,1.4-2.5,3-3.8,4.5-1.9,1.5-3.5,3.5-4,5.9-.6,3.2.9,6.3.3,9.5-.3,3-.7,6-1.5,8.4-.9,2.5-2.3,4.4-4.7,5.3-1.5.6-3.4.7-5.8.4-7-.3-4.2-2.7-4.8-7.7-.1-2.5.4-5,.4-7.5-.1-1.5-.2-3-.1-4.4,0-.2.1-.4.3-.6.2,0,.4-.1.6-.3h0c.9-.8,1.7-3,2.4-5.9.1-.5.3-.9.5-1.4l-.1-.1c.1-.6.2-1.2.4-1.8q.1-.1.2-.2c.5-.5.9-1.1,1.3-1.7,1.9-2.4,3.4-5,5.2-7.4,2.6-3.7,5.9-7,8.7-10.5.5-.5.9-1.5,1.5-2-.4-.7.2-1.7,1.1-1.4.8.3,1.1,1.2,1.5,1.9,1.1,1.5,1.7,3.5,2,5.6h0Z"/>
      <path class="cls-1" d="m124.56,180.35c.3.8-.4,1.4-1.1,1.3-.2.2-.5.4-.8.3h-.5c-4.5-.1-9.1,0-13.6,0h0c-1.3,0-2.7,0-4-.1-2.6-.1-5,.4-7.5.5h-2.4c-.3,0-.6-.3-.8-.6-.9,0-1.7.1-2.7.2s-2.4.1-3.1.8c-.1.1-.2.2-.4.4-.6,1.4-.8,3-.6,4.7.2,2.1.9,4.2,1.8,5.9.1,0,.2.1.3.2.8.4.5,1.6-.4,1.8,0,.1-.1.1-.1.2-2.3,3.9-4.8,7.7-6.4,12-1.6,5.3-2.4,11.1-3.6,16.4-1.7,9.5-3.3,19-4.1,28.6-.1,1.2-.2,2.4-.2,3.6,4.6,6.5,8,13.7,10.8,21.1,3.4,10.2,8.5,19.8,12.5,29.7,6,13.3,10,27.3,16.2,40.5,2.3,5.5,5.4,11.1,6.7,16.9.2.7-.4,1.3-1,1.4-.3,0-.7-.1-.9-.5h0c-.1-.2-.1-.3-.1-.5h0c-3.3-1.7-6.3-4.4-9.4-6.4-2.2-1.4-4.2-3.1-6.3-4.7-3.8-2.4-7-5.5-10.9-7.7-.6-.3-1.2-.7-1.8-1-7.5-4.6-13.5-11.3-18.5-18.5-2.4-3.5-4.1-7.3-5.6-11.2v-.1c-.4-1.1-.9-2.2-1.3-3.3-.2-.3-.3-.7-.5-1-3-6-4.6-12.8-5.1-19.5-.8-7.3-2.3-14.6-2-22,.1-.3.2-.5.5-.6,0,0,.1,0,.2-.1-.1-.9-.2-1.8-.2-2.7,0-.6-.1-1.1-.1-1.7-.3-5.6-.2-11.1,0-16.7.1-3.3.4-6.7.6-10,0-.1.1-.2.1-.3.4-6.2.7-12.5.4-18.7,0-.4.2-.7.5-.8h.1c.1,0,.2-.1.4-.1.2-1.4.1-2.8,0-4.2,0-.4-.1-.7-.1-1,.1-2-.4-4-.5-6-.2-3.2-.5-6.4-.7-9.7-.1-2.6-.1-5.1-.2-7.7h0c0-.6,0-1.1-.1-1.7.1-.5-.1-1.6-.2-2.7-.1-.9-.1-1.9,0-2.5,0-.1.1-.3.1-.4-.5-4.2-1-8.5-1.1-12.8v-3.1c.4-6.5.9-13,1.7-19.5.1-.5.1-1,.2-1.5.8-7.3,2.1-14.6,4-21.8.7-2.5,1.5-4.9,2.3-7.3,1.8-5.5,3.9-11,7-16,.1-.2.2-.3.3-.5.7-1.2,1.4-2.4,2.1-3.5,1.1-1.4,2.2-2.8,3.2-4.2.5-.7,1-1.4,1.5-2h0l.5-.5q.1-.1.2-.2h0v-.1c.4-.5.9-1,1.4-1.5h.1c.3-.3.5-.6.9-.8h.7c.2,0,.3.2.4.3.4-.1.8-.1,1.2-.2h0c.4,0,.7-.1,1-.1,1.9,0,3.9.1,5.8.2h0c1.4.3,2.7.7,4.1.8,1.4,0,2.8,0,4.1-.1h.4c.4,0,.8-.1,1.2-.1,1.8-.6,3.6-1.6,5.1-2.7.1-.1.2-.1.3-.2.2-.1.4-.2.6-.1h.1s0-.1.1-.1c.1-.1.2-.2.3-.4v.1l.1-.1c.3-.1.7-.2,1.1-.3.1,0,.2.1.3.2.4.4.5,1.2-.3,1.8-2.6,3-3.9,6.8-5.4,10.4-3.6,8.1-7.2,16.4-9,25.1-2.3,12-3.5,24.3-3.1,36.5.1.9.4,2.3-.9,2.4-.4,0-.8-.2-.9-.6-3.6.2-7.3.7-10.7,1.7-.6.1-1.2.2-1.9.3-.9.1-1.8.6-2.3,1.3,0,0-.1,0-.1.1-.7.4-.9,1.1-.7,1.9-.1.7.1,1.5.7,2.1.4.3.9.4,1.4.5,0,.1.1.2.1.2-1.4,1.3-2.4,3-3,4.7,0,.4.1.8.2,1.1h0v.2l.1.1c.4.9,1.1,1.5,2,1.8.9.5,1.9.8,2.8.8h10.2c.6.1,1.4-.2,2.2-.3v-.1c.7,0,1.3-.1,2-.1v.2c0,.1.1.2.1.2.3.7,1.1,1.1,1.7,1.4,4,1.1,8,.5,12,.8,5.8.5,11.7,0,17.4,1-.1-.1.5.2.8.8h0Z"/>
      <path class="cls-1" d="m103.96,251.05c-5.2-1.6,17.2-13.4,19-14,1-.3,2.5-1.7,3.2-.3.2.5,0,1.1-.5,1.3-2.5,1.1-5.1,2.2-7.5,3.7-3.6,2-7.3,4-10.5,6.6-.9.8-2,1.4-2.7,2.3-.1.3-.6.5-1,.4h0Z"/>
      <path class="cls-1" d="m108.46,244.95c.1-1.1,1.3-1.7,2-2.4,2.5-2.2,5.9-3.4,8-6,.8-1.2,1.4-2.6,2.2-3.8.3-.5.7-1.1,1.4-1,.8.1.9.8.9,1.5.5.3.5.9.8,1.4.9-.2,1.6,1,1.1,1.8,0,.6-.6,1.2-1.2,1-1.2.6-2.4,1.3-3.4,2.3-.3.3-.8.2-1.1,0-.4.4-1.1.9-1.7.4-2.5,1.5-5.1,3.1-7.2,5.2-.3.9-1.8.7-1.8-.4h0Z"/>
      <path class="cls-1" d="m132.96,242.15c-3.8-.1-8.1-1-10.5-4.3-.7-.8-1.3-2.4.2-2.6.5,0,.9.3,1,.8,2.4,4.1,8.8,4.8,12.9,3.5,1.4-.5,2.6-1.4,3.6-2.5.4-.4,1-.4,1.4,0s.4,1,0,1.4c-2.2,2.4-5.4,3.8-8.6,3.7h0Z"/>
      <path class="cls-1" d="m131.36,241.05c-2.2-.2-4.2-1.2-6.1-2.2-.5-.3-1-.6-1.1-1.2-.2-1,1.2-1.5,1.7-.7,2.1,1.2,4.4,2.5,6.9,2.1,2.2-.8,4.8-.7,6.4-2.5.4-.4,1-.4,1.4,0,1.1,1.4-1.6,2.6-2.6,3.1-2.2.6-4.4,1.5-6.6,1.4h0Z"/>
      <path class="cls-1" d="m148.66,243.85c-3-.1-5.8-1-8.2-2.7-1.1-.7-4.3-3.2-2.2-4.2.5-.1,1,.1,1.2.6,2,2.9,6,4.2,9.3,4.4h0c5.2.2,10.2-2.8,13.1-7,.3-.4,1-.5,1.4-.2,1.1,1.1-.6,2.3-1.3,3.1-3.3,3.8-8.3,6.2-13.3,6h0Z"/>
      <path class="cls-1" d="m148.96,242.35c-1.6.3-12.6-3-8.6-5.2.4,0,.8.1,1,.5.9,1.1,2.6,1.4,3.8,2,5.6,2.2,11.8-.6,15.5-5,.3-.5,1-.6,1.4-.3,1.2,1.2-1,2.4-1.7,3.2-3,2.9-7.2,4.9-11.4,4.8h0Z"/>
      <path class="cls-1" d="m195.36,244.55c-6.8-3.2-14.4-5-20-10.2-.8-1,.7-2.2,1.5-1.2,3.2,3,7.1,4.7,11.1,6.3,2.9,1,5.6,2.2,8.3,3.5,1.1.5.2,2.2-.9,1.6h0Z"/>
      <path class="cls-1" d="m167.96,240.65c-1.7.1-11.4-2-8.9-4.7.7-.4,1.2.1,1.6.6,1.5,1,3.3,1.4,5,1.9,5.3,1,11.7-.8,15-5.3.2-.6.8-1.2,1.5-.8,1.1.7.1,1.8-.4,2.5-3.2,4-8.7,6-13.8,5.8h0Z"/>
      <path class="cls-1" d="m189.46,240.95c-1-.1-1.7-.7-2.5-1.3-.8.3-1.5-.4-2.2-.7-2.8-1.5-5.3-3.3-8-4.9-1.1-.5-.4-2.2.7-1.8,0-.2.1-.5.3-.7l.1-.1c-.7-.6-.2-1.9.7-1.8.4,0,.8.3,1.2.6.5.4,1.4.8,1.2,1.6,2.4,2,4.8,4.1,7.2,6,.7.6,1.6.9,2.1,1.6.6.7,0,1.6-.8,1.5h0Z"/>
      <path class="cls-1" d="m168.06,239.15c-2.3-.2-4.8-.6-6.7-2-.9-.5-.8-1.9.3-2,2.7.1,5.5.7,8.2.8,1-.7,2.5.3,3.8,0,0-.1,0-.3.1-.4.2-.4.6-.6,1-.6.2-.7,1.1-.9,1.7-.4.6.4,1.3.6,1.7,1.2.6,1.2-.6,1.9-1.7,1.6-.6.9-1.9.9-2.9.9-1.8.7-3.6,1-5.5.9h0Z"/>
      <path class="cls-1" d="m180.66,169.55c.5.4.6,1.3-.2,1.7-.1.1-.2.2-.3.2,0,0-.1,0-.1.1h0c-.3.3-.7.5-1,.8-1.3,1.1-2.5,2.4-3.5,3.7-.2.2-.4.5-.5.7-5.8,7.8-7.7,18.4-8.5,27.8-.1,1.4-.2,2.8.1,4.1,0,1-1.4,1.4-1.9.5,0-.3-.1-.6-.1-.9s-.1-.7-.1-1v-1.3c0-3.9.7-7.9,1.4-11.7,1.8-8.3,4.8-17.2,11.3-23,.4-.4.8-.7,1.2-1,0,0,.1-.1.2-.1.2-.2.5-.4.8-.5.1,0,.1-.1.2-.2h0c.3-.2.6-.1.9,0,0,.1.1.1.1.1h0Z"/>
      <path class="cls-1" d="m216.46,175.65c.3,1-1.1,1.7-1.7.8,0-.2-.1-.5-.1-.7-1.1-4.4-6.8-5-10.8-5-7.5-.5-15.1-.2-22.5.5h0c-.3,0-.5,0-.8.1h-.3c-.1,0-.2,0-.2.1h0c-.2.1-.5.1-.7.1-.1,0-.2-.1-.3-.1s-.1-.1-.2-.2c-.1-.1-.2-.2-.2-.4v-.4h0v-.1c0-.1.1-.1.1-.2.2-.3.4-.5.8-.5.2-.1.5-.1.7-.2h.4c.5,0,.9-.1,1.4-.1h0c.3,0,.5,0,.8-.1,1.1,0,2.2,0,3.2.2h5.7c.7,0,1.5-.1,2.2-.1.2,0,.5,0,.7-.1,1.5-.1,3-.3,4.5-.4.9,0,1.7.1,2.6.1,1.9,0,4.2.1,6.4.4h.3c.5.1,1,.2,1.5.3,3.2.7,5.9,2.4,6.5,6h0Z"/>
      <path class="cls-1" d="m171.86,177.75c0-.5.5-.9,1-.9,1.5-.1,2.9-.4,4.4-.5,3.6-.1,7.2-1.1,10.9-1.1,4.3-.2,8.7.2,13,0,4.1-.2,8-.5,12.1-.6,1,.2,3-.5,3.2,1,0,.6-.5,1-1.1.9-2.2-.1-4.6.1-6.8.1-6.1.4-12,.6-18.1.4-5.2,0-10.3,1-15.5,1.4-.9.1-2.9.8-3.1-.7h0Z"/>
      <path class="cls-1" d="m181.76,170.55c0,.4-.2.6-.5.8h0c-.3.2-.7.2-1.2.2h-.1c-.3,0-.7,0-1-.1h-.8c-.3,0-.6,0-.9-.1-1-.2-1.9-.7-2.8-.9-7.7,10-9.4,23.2-10.1,35.5q.1,0,.2.1c.3.1.5.3.7.5.2.3.4.6.2,1-.1.4-.5.6-.9.7h-.4c-.2-.1-.4-.2-.5-.4-.3-.2-.7-.3-1-.5-.5-.4-.4-1.1-.3-1.7.3-6.4,1.1-12.7,2.4-18.9,1.4-6.1,4.2-12,7.8-17.2.7-1,1.5-1.1,2.4-.9.1.1.2.2.4.2h0c.2.1.4.2.7.2h.4c.3.1.6.2.9.3.5.2,1.4.1,2.2.1h1.1c.6.2,1.1.5,1.1,1.1h0Z"/>
      <path class="cls-1" d="m179.16,172.35c.1.3,0,.6-.2.8-1,1-1.9,2.2-2.9,3.2l-.1.1c-.1.1-.2.1-.2.2-.2.1-.4.1-.6,0-.1,0-.2-.1-.3-.1-.3-.2-.5-.5-.4-.8.2-.8.7-1.5,1-2.2-.8,1-1.5,2-2.1,3.1-.3.6-.6,1.2-.9,1.8-.8,1.7-1.5,3.5-2.2,5.2-.2.6-.6,1.3-1.3,1.3-2.6,6-2.5,12.6-3.5,19-.1.7-.1,1.3-.1,2,.1.2.1.4.1.6s-.1.4-.3.5c-.1.1-.2.2-.4.2-.3.1-.7,0-.9-.2-.5-.4-.4-1.2-.4-1.8,0-1.6.3-3.2.5-4.8.7-4.4.9-8.9,2.1-13.2,1-3.2,2.9-6,3.7-9.3,1.1-2.5,3-8.5,5.9-9.1h0c.2.1.4.2.7.2.3.2.5.5.5.9.9-.7,1.7-.3,1.9.4v.2h0v.4c0,.2,0,.4-.1.5,0,0,0,.1-.1.2h.1c.2.1.4.4.5.7h0Z"/>
      <path class="cls-1" d="m214.96,174.55c.3.5,0,1-.4,1.3-.3.2-.7.2-1.1.1-1.5-.3-3.6-.1-5-.6-.4.1-.9.2-1.3.3-.4.8-1.6,1.2-2,.2-.5.6-1.5.4-1.7-.4-.1.1-.3.2-.5.2-.4.1-.7,0-1-.3-.6.6-1.7,1.2-2.2.2-.5.6-1.5,1-2,.2-.3.1-.7.1-1-.1-.1-.1-.2-.2-.3-.4h0c-.8.5-2,1.8-2.8.6-.5.5-1.5.6-1.8-.2-.6.7-1.9.9-2-.2-.3.2-.6.2-1,.1-.1-.1-.3-.2-.4-.3-.1-.1-.1-.2-.2-.4-.1.1-.3.2-.4.4-.7.7-1.6,1.7-2.4.6-.1.1-.2.2-.3.2-.5.4-1.1.1-1.4-.3-.4.5-1.2.8-1.7.3-.4.5-1.2.8-1.7.3-.4.5-1.2.9-1.7.3-.6.5-1.5,1.4-2.2.6l-.1-.1c-.5-.1-.8-.2-.9-.5,0-.1-.1-.1-.1-.2v-.4c.2-1.1,1.7-2.6,2.1-3.3.2-.2.5-.6.8-1.1l.1-.2h0s.1-.1.1-.2c.6-.8,1.2-1.6,1.8-1.7h.1c.3,0,.7.1,1,.5.2,0,.4.1.5.2,0,0,.1,0,.1.1.3-.3.8-.3,1.1-.1.2-.1.4-.3.6-.4.5-.3,1.1,0,1.4.5.2-.2.5-.5.8-.7.4-.2.8-.4,1.2,0,.4-.1.8-.1,1,.1l.1.1c.1.1.1.2.2.2.1-.1.2-.2.3-.3.2-.1.4-.3.6-.4h1.3l.1.1c.1-.1.2-.1.4-.2h.5c.3.1.6.3.7.5,0,.1.1.2.1.3.1-.1.2-.2.4-.3.3-.2.7-.5,1-.7.2,0,.5,0,.7-.1.2.1.4.2.5.4.5-.5,1.2-.3,1.5.3.1.1.1.2.1.4.2-.2.4-.3.6-.4.3-.1.7-.2,1,0,.2.1.3.2.5.4.1-.2.3-.3.4-.4.5-.5,1.3-.7,1.7-.1,0,0,.1.1.1.2,0-.1.1-.1.2-.2.5-.5,1.3-.6,1.7-.1l.1.1c.1,0,.2-.1.3-.1.4-.1.7,0,1,.3.1-.2.3-.3.5-.5.5-.4,1.1-.5,1.5-.1.1.1.2.3.3.6.4-.3,1-.5,1.4-.2.1-.2.3-.4.5-.5.1,0,.1-.1.2-.1.2-.1.4-.1.6-.1.3,0,.5.2.7.5.1.2.1.5,0,.9.2.1.4.2.5.3.1.1.2.2.3.4,2.4-.3,3.1,2.3,4.3,3.6h0Z"/>
      <path class="cls-7" d="m41.46,175.25h-.3c-.9,0-1.2-1-.8-1.5.1.7.5,1.3,1.1,1.5Z"/>
      <path class="cls-7" d="m55.76,203.55c0-.1,0-.2-.1-.4-.2-.6-.4-1.2-.6-1.8-.2-.5-.4-.9-.5-1.4-.4-1-.8-1.9-1.2-2.8.4.5,1,.7,1.7.1.2,2.1.4,4.2.7,6.3Z"/>
      <path class="cls-7" d="m55.86,167.05c.2,3.9.4,7.8.6,11.6-.6-3.8-.7-7.7-.6-11.6Z"/>
      <path class="cls-7" d="m58.56,206.75c0,.5.1,1,.1,1.5-.1-.8-.2-1.5-.2-2-.5-4.2-.7-8.4-.9-12.6.1,1.1.2,2.3.3,3.4.2,3.2.5,6.4.7,9.7h0Z"/>
      <path class="cls-7" d="m58.86,209.75c.1,1,.2,2,.1,3v.5c-.3.6-1.3.7-1.7.1,0-.2-.1-.3-.1-.5.1.1.3.2.5.3,1.3,0,1.4-1.7,1.2-3.4h0Z"/>
      <path class="cls-7" d="m267.26,163.25c0-.3.2-.6.4-.7-3.8-6.8-8.5-13.6-14.8-18.3q0,.1-.1.2c0,.2.1.5.2.7,1.2,3.1,1.6,6.7,2.1,10,.1,1.3-1.8,1.5-1.9.2h0c-.3,0-.6-.1-.8-.4-2.2-3-4.2-6.4-6.6-9.2-1.2-1.5-2.4-2.8-3.7-4.2,1,3.5,1.6,7.1,2.9,10.6,1.2,4.4,1.6,8.9,2.5,13.4.8,4.2,2,8.2,2.9,12.4.5,5,.8,10.1,1,15.1-.1,3.3.2,6.5.5,9.8,0,.3-.1.6-.3.8.1,2.1.5,4.2.7,6.4.3,3.2.5,6.4,1.4,9.5.6-7.5,2.3-14.8,3.8-22,.4-1.7.5-3.5.9-5.2.1-.4.4-.8.8-.9,2-.1,2.2,2.9,3.4,4,.8-5.4,2.2-10.8,3.1-16.1.3-5.6,1.6-10.7,1.6-16.1h0Zm1.6-35.2c1.9,1.1.9,8.5.9,10.1-.2,2.9-.4,5.7-.6,8.6h0v.4c1.2,5,1,10.1.5,15.2v.2h0c-.4,3.5-.9,7.1-1.2,10.6-.4,5.6-1,11.3-2.2,16.8-.2,1.1-.5,3-1,4.7-.3.9-.8,1.7-1.3,2.2h0s-.1.1-.2.1c-.2.2-.5.3-.7.4-.4.1-.8.2-1.2.1-.7-.2-1.5-1.3-2-2.7h0c-.3,1.2-.5,2.9-.8,4.8h0c-.6,4.2-1.3,9.5-2.2,14.1-.1.6-.2,1.2-.4,1.8-.1.5-.2,1-.3,1.5-.2.7-.3,1.4-.5,2-.5,1.9-1.2,3.3-1.9,3.9h0c-.2.2-.4.3-.6.3h-.5c-.1,0-.3-.1-.4-.2-.9-.7-1-1.8-1.2-2.8s-.3-2-.5-3c-.2-1.7-.4-3.3-.7-5,0-.1,0-.2-.1-.4v-1.1h0c-.2-6.8-.3-13.5-.6-20.2-.3-3.4-1-6.6-1.7-9.9-.2-1.3-.5-2.6-.7-4-.1-1-.3-1.9-.4-2.9-.2-1-.3-2-.5-3-.4-2.5-.9-5-1.4-7.5-1.2-6.3-2.5-12.6-3.8-18.9-.5-2.2-1.2-4.3-1.9-6.4-.5-1.4-.9-2.8-1.3-4.2-.1-.3-.2-.7-.3-1-1.4-4.2-2.3-8.7-4.6-12.5-.2-.4-.6-1-.8-1.5-1.4-2.2-2.3-4.9-3.8-7.1-3.7-6.3-6.9-12.9-10.8-19.1-1-1.7-1.9-3.4-3-5-.4-.8-1.5-1.8-1.6-2.7-1.5-.6-2.9-1.2-4.3-1.8h-.2c-3.4-.8-6.9-1.7-10.3-2.7-.4-.1-.8-.2-1.2-.3h0c-2-.6-4-1.2-6-1.8-.1-.1-.3-.1-.4-.1h0c-5.3-.7-10.6-.9-16-.3-.3,0-.6,0-.8-.2-.2-.1-.2-.3-.3-.5-.1-.4.1-.9.6-1.1l-.1-.1c-1.4-.8-3-.5-4.6-.5h-.5c-3.6,0-7.2.1-10.7.4-2.5.2-5.1.6-7.5,1.1-.5.1-.9.2-1.4.4-1.1.5-2.2,1-3.3,1.6-1.5.8-3.1,1.6-4.5,2.6-.1,0-.2.1-.3.2-.5.5-.8,1.2-1.4,1.5-.2.1-.5,0-.7,0-.1,0-.2-.1-.3-.2-.1.1-.1.2-.2.2-.4.4-1,.4-1.4,0-.1-.1-.1-.2-.2-.3-.2-.3-.1-.7,0-1,.1-.2.3-.5.5-.7-.4-.2-.7-.3-1.1-.4-1.5-.4-3.1-.2-4.6-.3-3.4-.2-6.8,0-10.2.5-2.6.4-5.1.8-7.6,1.4-1.8.4-3.6.8-5.3,1.2-.4.1-.7.2-1.1.3-1.6.4-3.2.8-4.8,1.2-1.9.4-3.5,1.9-5.3,2h-.8c-1.8,0-3.6-.1-5.5-.2h0c-1.9-.1-3.9-.2-5.8-.2h-3.4c-.3.2-.6.5-.8.8-.5.5-.9,1-1.4,1.5-.2.3-.4.5-.6.8h0c-.5.7-1,1.4-1.5,2-1,1.5-2.1,2.8-3.2,4.2-1.3,1.7-2.6,3.4-3.4,5.4-.2.5-.9.6-1.3.4h-.1c-1.9,4-3.5,8.2-4.9,12.3-.8,1.8-1.4,3.7-2.1,5.5-.7.4-1.2,1.6-1.8,2.3-1.3,1.8-2.8,3.4-4.1,5.1-.9.9-4.8,7.8-6.8,13-.1-.8-.1-1.5-.2-2.3,0-2.3.2-4.6.5-6.9v-.2c.5-.8,1-1.6,1.4-2.4.3-.9-.9-1.6-1.6-1-4.7,7.2-8.5,14.7-10.4,23.1-.3,1-.5,2-.7,2.9-.3-6.1,0-12.2.6-18.3.6-7.8,2-15.5,4.1-23,.6-4.2,2.2-8,3.5-12,2.5-9.2,5.5-18.6,10-27-1.3.5-2.4,1.4-3.6,2l-.6.3c.2.4.1.8-.3,1.1-3.1,1.9-5.9,4.9-9.8,4.8-1.1-.2-1.2-1.5-.8-2.4.8-1.6,1.6-3.3,2.5-4.8.7-1.3,1.5-2.5,2.4-3.6-.8-1.1,1.4-3.1,1.9-4.1,1.9-3.2,4.6-5.9,7.6-8h0c1.9-1.8,4-3.3,6.3-4.4.5-.8.9-1.5,1.3-2.3,2.9-4.9,6.6-9.4,10.4-13.6,4.1-3.9,8.2-8,12.9-11.1,3.2-1.5,11.2-6.8,13.8-2.6.7,1.5-.6,2.9-1.4,4.2h.4c7.6-3.7,15.2-7.5,23.6-9.2.2-.1.5-.1.8-.2,2.1-1.5,8.7-2.4,9.8-2.5,1.9-.1,3.8-.1,5.6.1.1,0,.3-.1.4-.1,2.8-.8,5.6-1.6,8.5-2.1,5.4-1.4,11-1.2,16.5-1,11.4,1.4,22.9,5.6,31.4,13.5.5.6,1.1,1.1,1.6,1.6.3.1.6.2.9.2,3.6.6,6.7,2.4,9.8,4.2,1.8,1,3.5,2,5.1,3.1.2-.4.6-.6,1.1-.5,1.3.3,2.2,1.5,3.3,2.2,1.8,1.4,3.5,3,5,4.7,1.1-1,3.3-1.2,4.5-.4,1,.5,1.8,1.4,2.6,2.1.2.1.5.2.6.5,1.1,1.1,1.9,2.5,2.9,3.6,5.5,5,8.2,12,12.1,18.1,2,3.4,2.9,7.3,4.5,10.9.2.4.4.7.6,1,.4-.1.9,0,1.3.7,13.3,8,12.7,15.6,14.3,29.6.8,5,2.1,9.9,2.3,15,.2,1.5.2,3.1,0,4.6h0Z"/>
      <path class="cls-3" d="m63.66,118.35c.4.6.1,1.1-.3,1.5.4.3.5.9.2,1.3-.9,1.3-1.8,2.6-2.8,3.8.3.6-.3,1.3-.5,1.9-2.6,10.5-3.8,21.5-4.1,32.3-.1,2.6-.2,5.3-.3,8-.1,3.9,0,7.8.6,11.6,0,.2.1.5.1.8.6,4.7.8,9.5.9,14.2.2,4.2.3,8.4.9,12.6,0,.4.1,1.1.2,2,.1.5.1,1,.2,1.5h0c.2,1.8.1,3.5-1.2,3.3-.2,0-.4-.1-.5-.3-.3-.3-.3-.8-.3-1.2-.3-2.7-.7-5.4-1.1-8-.3-2.1-.5-4.2-.6-6.3-.7.6-1.3.5-1.7-.1-.5-.7-.8-2-1-3.1h0c-.2-1-.3-1.9-.3-2.3-.2-1.2-.3-2.3-.5-3.5-.3-2-.7-4-1.2-6-.6-4.8-4.6-6.4-8.9-7h-.1c-.6-.2-.9-.8-1.1-1.5-.2-1.1-.1-2.5-.1-3.6,0-.5,0-.8-.1-1.1,0-.2,0-.5-.1-.7v-.1c-.4-3.6-1.3-7.2-1.4-10.9-.4-.2-.6-.6-.6-1,.2-1,.4-2.1.6-3.1,0-.2.1-.4.1-.6-1-.4-.5-1.6-.2-2.3,1.5-6.2,4.5-11.8,7.1-17.5.9-1.9,2-3.7,3.1-5.4.6-.8,1.4-2.5,2.5-1.5.4.4.4,1,0,1.4l-.1.1c.2.2.2.5.1.8-.5.8-1,1.6-1.4,2.4v.2c-.2,2-.5,4-.5,6,3.2-7,11.7-20.8,14.4-18.6h0Z"/>
      <path class="cls-3" d="m252.26,154.95c-2.2-3-4.2-6.4-6.6-9.2-2.9-3.6-6.5-6.7-9-10.6.1.1.2.2.3.3-.9-.6,0-2.2,1-1.6,1.1,1.2,2,2.7,3.2,3.8,3.9,4.5,8.1,8.9,11.2,14,.5,1.1,2.6,2.4,1.3,3.6-.5.3-1.1.2-1.4-.3h0Z"/>
      <path class="cls-3" d="m267.76,162.85c-4.5-8.1-10-16.1-18.2-20.8-1.1-.5-.3-2.3.8-1.8,4.8,2.6,8.7,6.7,12.1,10.9,2.8,3.3,4.8,7.1,7,10.8.6,1.2-1.1,2.1-1.7.9h0Z"/>
      <path class="cls-3" d="m249.86,202.85c-.9-8.6-.4-17.4-1.8-25.9-2-7.4-3.4-15-4.7-22.5-1.1-4.1-2.3-8.1-3.2-12.2-.2-.7-.5-1.5-.7-2.2-.2-1.2,1.7-1.5,1.9-.3,1.4,4.1,2,8.4,3.5,12.5,1.2,4.4,1.6,8.9,2.5,13.4.8,4.2,2,8.2,2.9,12.4.5,5,.8,10.1,1,15.1-.1,3.3.2,6.5.5,9.8,0,1.1-1.9,1.2-1.9-.1h0Z"/>
      <path class="cls-3" d="m253.16,223.45c-2.9-4.8-2.4-10.9-3.3-16.2-.3-2.1-.4-4.3-.5-6.4-.1-.6.2-1.2.8-1.3.5-.1,1,.2,1.2.7v2c0,2.7.5,5.2.8,7.8.3,3.2.5,6.4,1.4,9.5.6-7.5,2.3-14.8,3.8-22,.4-1.7.5-3.5.9-5.2.1-.4.4-.8.8-.9,2-.1,2.2,2.9,3.4,4,.8-5.4,2.2-10.8,3.1-16.1.3-5.4,1.7-10.5,1.7-15.9,0-.5.5-1,1-1,1,0,1,1.1.9,1.9-.1,1.6-.2,3.2-.3,4.6-.2,3.5-1.2,6.9-1.3,10.3-.6,4.3-1.7,8.5-2.5,12.8-.4,1.5-.3,3.1-.9,4.5-1.4,2.3-3.7-.4-4.3-2-.8,5.7-2.5,11.2-3.4,16.9-.2,2.1-.6,4.2-.8,6.3-.3,1.5,0,6.7-2.5,5.7h0Z"/>
      <path class="cls-3" d="m253.06,155.45c-.1-.7-.2-1.5-.3-2.2-.3-.1-.5-.4-.5-.6-.2-1.3-.4-2.8-.6-4-.3-1.5-.5-2.8-.9-4.2-.1-.5-.3-1.1-.1-1.6.9-1.6,2.8.5,2.1,1.7.1.2.1.5.2.7,1.2,3.1,1.6,6.7,2.1,10,.1,1.2-1.8,1.4-2,.2h0Z"/>
      <path class="cls-5" d="m248.46,144.35c-.7-3.3-1.2-6.6-1.7-9.9-.1-.5.3-1,.9-1.1.5-.1,1,.3,1.1.9.5,3.3.9,6.4,1.6,9.6.3,1.3-1.5,1.7-1.9.5h0Z"/>
      <path class="cls-10" d="m267.66,162.55c-.2.2-.4.4-.4.7,0,5.4-1.3,10.5-1.7,15.9-.8,5.4-2.3,10.7-3.1,16.1-1.2-1.1-1.4-4.2-3.4-4-.4.1-.7.5-.8.9-.4,1.7-.4,3.5-.9,5.2-1.5,7.3-3.2,14.6-3.8,22-.9-3.1-1.1-6.3-1.4-9.5-.2-2.2-.6-4.2-.7-6.4.2-.2.3-.4.3-.8-.3-3.2-.6-6.5-.5-9.8-.2-5-.5-10-1-15.1-.8-4.2-2-8.2-2.9-12.4-.9-4.4-1.4-9-2.5-13.4-1.2-3.4-1.9-7.1-2.9-10.6,1.3,1.4,2.5,2.7,3.7,4.2,2.4,2.8,4.4,6.2,6.6,9.2.2.3.5.4.8.4h0c.2,1.2,2,1,1.9-.2-.5-3.4-.8-6.9-2.1-10,0-.2-.1-.5-.2-.7,0-.1.1-.1.1-.2,6.4,4.9,11,11.7,14.9,18.5h0Z"/>
      <path class="cls-10" d="m253.06,220.65c-.4-.3-.4-.8-.5-1.2-.2-2.3.7-4.4,1-6.7,1.2-8.5,3.4-16.9,4.7-25.4.3-.9.6-2.5,1.8-2,.5.2.7.8.5,1.3-1,2.6-1,5.5-1.7,8.1-1.3,8.2-3.5,16.3-4.3,24.5.5.9-.7,2.1-1.5,1.4h0Z"/>
      <path class="cls-10" d="m252.66,218.55c-2.1-4.7-1.5-10.1-1.9-15.2-.2-3.1-.9-6.2-1-9.3,0-4.5.2-9-.5-13.5-.5-6.4-2.3-12.5-3.9-18.7-1.4-6-2-12.1-4-17.9-.2-1.1-.9-2.2-.7-3.3.9-1.5,2.4.2,3,1.2,1.3,2.1,2.7,4.1,4.6,5.7,1,1.1,1.8,2.5,2.9,3.7,2.4,2.5,3.7,6,5,9.1.3,1.1,2.3,2.6.9,3.6-2,1-3.8-6.1-4.6-7.5-2.2-4-5.6-7.3-8.5-10.8,1.7,5.5,2.1,11.3,3.6,16.8,1.4,5.1,2.7,10.2,3.4,15.4.8,5.4.9,10.9.8,16.4.4,4.2,1.1,8.5,1.1,12.8.1,3.4.1,7,1.4,10.3.9,1.2-.9,2.4-1.6,1.2h0Z"/>
      <path class="cls-10" d="m261.86,196.75c-1.4-.8-1.6-2.8-2.4-4.1-.8-1.9-1.7-3.7-2.3-5.7-.1-.5.2-1,.7-1.2.5-.1,1,.2,1.2.7.7,2.5,1.9,4.7,3,7.1.6-5.3,2.2-10.5,2.8-15.8.5-3.8.5-7.6.8-11.4.1-1.3.6-2.7.3-4-.3-.9-1-1.5-1.6-2.3-1.4-2-2.2-4.4-3.5-6.4-1.8-2.4-4.3-4.2-6.2-6.4.4,2.1,1.7,10.6-.8,11.3-1,.1-1.3-1.1-.8-1.8.6-3.5.1-7-.6-10.4-.2-.8-.5-1.7.2-2.3.8-.8,1.9-.1,2.4.7.9,1,1.8,2,2.8,3,1.8,1.9,4,3.5,5.2,5.8,1.4,2.4,2.4,5.1,4.3,7.1,1.3,2,.4,4.3.2,6.4-.1,2.6-.2,5.2-.4,7.9-.3,5-1.5,9.9-2.5,14.8-.6,1.6-.3,7.2-2.8,7h0Z"/>
      <path class="cls-6" d="m236.46,138.05h0c-.8-1-.7-2.6-1.4-3.7-.4-.8-1.1-2.4.3-2.6.8-.7,1.7.2,1.8,1,.4,1.6.8,3.2,1.2,4.8.3,1.3-1.6,1.7-1.9.5h0Z"/>
      <path class="cls-10" d="m253.66,143.75c-1.5-2.5-3.5-4.5-5.2-6.7-1.6-2.3-3.5-4.2-5.5-6.2-3.6-4.3-8-8-12.3-11.6-.5-.6-.1-1.6.7-1.6.3,0,.5.1.7.3,3,2.4,5.8,5,8.6,7.6,2.9,3.2,6.2,6.2,8.8,9.7.9,1.5,7.5,7.6,5.6,8.8-.5.3-1.2.2-1.4-.3h0Z"/>
      <path class="cls-10" d="m253.66,155.35c-2.8-2.7-5-6-7.3-9.1-1-1.4-2-2.8-3-4.3-.4-.6-.8-1.2-.8-1.9-.2-.3-.5-.6-.6-1-.2-.4-.1-.9.3-1.2-.1-.5.2-1,.7-1.2,0-.3.1-.6.3-.8.1-.1.3-.2.5-.2-.5-.6-1.1-1.2-1.5-2s.5-1.7,1.2-1.3c.4-.2.9-.1,1.1.2,1.1,1.3,2.1,2.6,3.1,4,.5-.4,1.2-.1,1.5.5,1.1,0,1.3,1.6,2,2.3,1.3,1.8,2.6,3.6,3.6,5.6.1.2.1.5,0,.8.3.7-.4,1.5-1.1,1.3-.2.1-.5.1-.7,0h0c.6,1.3,3.6,4.1,2.3,5.4.1.3,0,.7-.3,1,.7.7.9,2.1-.4,2.1-.3.1-.7.1-.9-.2h0Z"/>
      <path class="cls-10" d="m253.76,145.55c-.8-1.1-1.7-2.1-2.5-3.2-.3.1-.8,0-1-.3-.5-.7-1.1-1.4-1.6-2.1,0,.2-.2.5-.4.6s-.4.2-.7.1c1,.9-.1,2.5-1.2,1.6-.7-.8-1.2-1.7-1.8-2.6-.1.2-.2.3-.4.4s-.4.1-.6.1c.3.7,1.1,1.9.1,2.4-.5.2-1.1,0-1.3-.4-.6-1.3-1.2-2.5-1.9-3.8-2.1.9-4.8-10.5-5.9-12.4-.4-1.3-1.3-2.4-1.8-3.6.1-1.4,1.6-1.3,2.1-.1,1-1.4,2.2.6,2.9,1.3,1.4,1.8,3.2,3.2,4.7,4.8,3.8,4.1,7.5,8.3,11.3,12.4.3.4.3.9,0,1.3.5,1,2.6,2.2,1.5,3.4-.6.5-1.2.5-1.5.1h0Z"/>
      <path class="cls-10" d="m131.96,168.95c.4.5.5,1,.2,1.6-1.9,1.6-4.8,1.2-7,1.7-3.5.6-7.1.8-10.6,1-4.7.7-9.6.8-14.3,1.3-2.8.5-5.5.7-8.3.9-.7,0-1.3.1-2,.1-3,.1-5.9.2-8.8.2-1.8-.1-4.5.1-6.4-.6-.9-.3-1.7-.9-2.1-1.8,0-.1-.1-.2-.1-.3h0c-.1-.3-.2-.7-.2-1.1.7-1.6,1.7-3.4,3-4.7q.1-.1.2-.2h-.3c-.5-.1-1-.2-1.3-.5-.6-.6-.8-1.4-.7-2.1s.4-1.4.9-1.9c.6-.7,1.4-1.2,2.3-1.3.6-.1,1.2-.2,1.9-.3,1.8-.2,3.5-.2,5.3-.2h4.6c4,0,7.8-.6,11.8-.6,6.1-.4,12.3.3,18.4.5,1.5.3,8.3.1,10,1.8q1.1,1.1,0,0c.2.1.4.3.5.7v.3c0,.2-.2.4-.3.6-.1.1-.1.2-.2.3-.3.2-.7.2-1,.1-.1,0-.3.1-.4.1-.6.2-1.3.4-1.9.5-.1,0-.3.1-.4.1.4.1.9.2,1.3.3.3.1.6.2.9.3,1.2.4,2.3,1,3.4,1.6.4.5,1.2,1,1.6,1.6h0Z"/>
      <path class="cls-10" d="m227.06,162.05c.5.8.3,1.9-.5,2.5l-.1.1c-2,1.7-4.8,1.6-7.3,1.9-3.4.5-6.7,1-10.1,1.4-3.3.1-6.5.5-9.8.8-1.5.2-3,.3-4.5.4-.2,0-.5,0-.7.1-.7.1-1.5.1-2.2.1h-5.7c-1.1-.1-2.2-.1-3.2-.2h-1.6c-1.4,0-2.8,0-4.2-.1h-.9c-.2,0-.5-.1-.7-.2h0c-.1-.1-.3-.1-.4-.2-.2-.2-.4-.4-.5-.7-.1-.1-.1-.3-.1-.5,0-.6.3-1.2.6-1.7s.7-1,1.1-1.5l.1-.1h-.1c-.6-.1-1.1-.2-1.6-.4-1-.4-1.6-1.2-.4-2.7.4-.3.8-.6,1.2-.9,3.6-2.4,8.3-2.8,12.5-3.6.6-.1,1.3-.1,1.9-.2,5.7-.5,11.4-1,17-1.1h2.9c.1-.3.4-.6.9-.6,1.5-.2,3.1.3,4.5.4,1,0,2,0,3,.2.2.1.4.2.5.3.7.1,1.4.2,2.1.3,3.1.5,3.7,1.5,2.8,2.6-.1.1-.1.2-.2.2h0c-.2.2-.5.5-.8.7.3,0,.5.1.8.2.8.2,1.6.5,2.2.9h0c.4.3.8.6,1.2,1,.2.3.3.4.3.6q0-.1,0,0h0Z"/>
      <path class="cls-1" d="m195.36,263.05c.8.3,2.2.6,1.8,1.8-.2.5-.8.7-1.3.5-.7-.2-1.3-.4-2-.6h-.3c-6.5-.3-12.9.3-19.4-.2h0c-1.2-.1-2.5-.2-3.7-.4-1.8-.2-3.6-.7-5.4-1.2-1.1-.3-2.3-.8-3.3-1.2-2.2-1-3.1-.7-4.6,1.1-1.7,1.3-3,2.5-4.4,3.3-1.2.7-2.3,1.2-3.6,1.1-1.1,0-2.3-.4-3.8-1.2h-.1c-.2-.1-.4-.2-.6-.4h-.1c-.5-.4-1-.8-1.6-1-.2-.1-.5-.2-.7-.2h-.2c-2.3.2-4.3,1.9-6.5,2.3-3.5.7-7.1,1.7-10.7,1.6-.4,0-.8,0-1.1-.1-1.4,0-2.7-.1-4.1-.2-.9-.1-1.7-.2-2.6-.2-.6.1-1.2.2-1.8.2-.7-.2-.8-1.1-.4-1.6l.1-.1h0c0-.1.1-.2.1-.2.2-.3.6-.4,1-.3h.2c.2,0,.5,0,.7.1,2.1-.4,4.2-1,6.2-1.8,1-.4,1.9-.9,2.8-1.4h0l3-1.5c1.8-.9,3.6-1.8,5.4-2.7.6-.3,1.2-.6,1.9-.9,3.1-1.3,6-1.5,8.9-.1.6.3,1.1.7,1.7,1.1.2.2.4.3.6.5,1.3-1.2,2.7-2.4,4.1-3.7.9-.8,1.7-1.5,2.5-2.3l.1-.1c1.5-1.2,3.4-.5,5.1-.1,9.7,2.9,19.3,5.8,29.1,8.3,2.4.6,4.6,1.1,7,1.8h0Z"/>
      <path class="cls-1" d="m136.06,295.55c.1-.2.2-.3.3-.5-1.3-.6-2.6-1.3-3.8-2.1-2.9-2.2-5.6-4.7-8.1-7.3l-1.4-1.4c2.2,3.4,5.2,6.3,8.6,8.4,1.5,1.1,2.9,2.1,4.4,2.9Zm3.7,1h.2c-.2-.1-.5-.2-.7-.2.2,0,.3.1.5.2h0Zm39.2-11.2c-1.3,1.1-2.6,2.2-3.8,3.3-3,3.1-7.2,4.4-10.9,6.2-1.8.9-3.8,1.4-5.8,1.7-.6.1-1.2.2-1.7.3-1.9.4-3.7.7-5.6.9,1.1.1,2.2.2,3.3,0,2.1-.3,4.2-.8,6.3-1.3,2.1-.6,4.2-1.2,6.3-1.7.1,0,.3-.1.4-.1.1-.1.3-.2.4-.2,4.1-2.4,8.1-5.3,11.1-9.1Zm12.1-19.3c1.4.9-.4,2.5-.8,3.6-.9,1.6-1.8,3.3-2.7,5-.5.9-1,1.8-1.5,2.8-1.2,2.4-3,4.4-4.9,6.2.2,0,.4.2.6.4.2.3.3.7,0,1.1-2.9,4.4-7.3,7.5-11.6,10.4-.3.2-.7.4-1,.6,0,.1-.1.1-.1.2-.5.5-1.2.7-1.9,1-5.7,3.1-11.9,5.2-18.4,4.9-6.6-.5-12.5-3.7-17.8-7.4-4.2-2.6-7.6-6.2-10.2-10.4-.6-1-1.8-2.5-1-3.6.1-.1.2-.2.4-.2-.2-.4-.4-.7-.6-1.1-1.2-2-3-3.6-4-5.8-.4-.8-.6-1.6-.7-2.5v-.2c0-.4,0-.8.1-1.2.1-.8.5-1.8,1.5-1.5.1,0,.2.1.2.1.4.2.5.7.4,1.1,0,.1-.1.2-.1.3v.2h0v.2h0c0,.2-.1.3-.1.5.1.6.5,1.1.8,1.6,1,1.4,2.4,2.4,3.8,3.4.9.6,1.9,1.3,2.8,1.9,2.8,2.1,5.8,3.8,9,5.1.8.4,1.5.8,2.3,1.2s1.7.8,2.5,1.2c.3-.3.8-.3,1-.1.6.2,1.2.2,1.8.3,2.3.2,4.8,0,7.1.6h3c1.7-.1,3.4-.4,5.1-.6.4,0,.8-.1,1.2-.1,3.3-.5,6.5-1.3,9.7-2.3,2.2-.7,4.4-1.6,6.5-2.8,2.4-1.4,4.3-3.2,6.6-4.6,2.1-1.3,4.1-2.5,5.8-4.3,1-1,1.9-2.1,2.8-3.2.2-.2.5-.3.8-.3.3-1.3.7-2.1,1.6-1.7h0Z"/>
      <path class="cls-8" d="m86.66,187.85c-1.3-1.6,1.2-1.9,2.3-2,3.2-.4,6.3-.5,9.5-.8,6.4-.2,13.2-1.2,19.5-.1,1.1.3,3.4-.1,3.2,1.6-.3,1.1-1.5.6-2.3.5-2-.3-4.1-.6-6.1-.6-8.4.3-16.8.4-25.1,1.7-.3,0-.7-.1-1-.3h0Z"/>
      <path class="cls-8" d="m87.76,186.05c-.8-3.4,2.7-3.4,5.1-3.3,4.2.3,8.2,0,12.3-.1,3.9.1,7.8-.3,11.7-.1,1.2-.1,4.3-1.4,4.4.5.8.5.5,1.6.1,2.3-.2.5-.8.9-1.4.8-1.1-.4-2.2-.7-3.3-1-3.1.5-6.1.6-9.1,1-.8.1-1.3-1-.8-1.6-3.5-.1-6.9.3-10.4.2-2.3.1-4.6-.5-6.9.1,0,.7.2,1.6-.8,1.8-.3.2-.8-.1-.9-.6h0Z"/>
      <path class="cls-8" d="m92.76,186.65c-.2,0-.4-.1-.5-.3-1-.1-2.4.7-3.1-.3-1.1.1-1.5-1.5-.4-1.9,2.4-.6,4.9-.8,7.4-.8,1,.1,1.9-.2,2.7.4.8.1,2.1-.3,2.4.7.8,2.2-7.2,2.3-8.5,2.2h0Z"/>
      <path class="cls-8" d="m86.46,188.75c-1.1-2.8,10.8-3.5,12.7-3.4,7-.2,14.1-.3,20.9,1.2,1.2.4.7,2.2-.5,1.9-6.3-1.3-12.8-1.5-19.2-1.2-4.1,0-8.3.3-12.2,1.7-.4.6-1.5.5-1.7-.2Z"/>
      <path class="cls-8" d="m176.26,183.05c-.2-.8.6-1.3,1.3-1.3,1.8-.3,3.7-.5,5.6-.6,7-.6,14.1-.6,21.1-.1,1.6.4,8.7-.3,8.1,2-.1.5-.7.8-1.2.7-5.1-.9-10.5-1-15.7-1-4.1-.2-8.2-.1-12.3.3-1.9.2-3.8.4-5.7.7-.6.2-1.1-.2-1.2-.7h0Z"/>
      <path class="cls-8" d="m177.76,182.75c-1.4-.9-2.1-3.6-.3-4.4,1.7-.5,3.6,0,5.4-.1,4.4.5,8.5.9,13,.5,4.1.2,8-.5,12.1-.4,1.2,0,1.2,1.9,0,1.9-3.4-.1-6.9.5-10.3.4-3.1-.2-6.1.4-9.2.1-3.4-.4-6.8-.9-10.1-.7,0,.7.7,1,1,1.5.3,1-.9,1.9-1.6,1.2h0Z"/>
      <path class="cls-8" d="m210.56,183.25c-.3-.1-.5-.3-.7-.5,0,0,0-.1-.1-.1-10.4-3.1-21.5-.1-32.1-.6-.7.1-1.6.3-1.9-.5-.2-.4,0-.9.3-1.1,1.1-1,15.4-4.7,12.8-.7,2.9-.2,5.8-.4,8.7-.4-.4-2,3.6-1.5,4.8-1.7,2.9-.1,5.9-.8,8.9-.5,1.8.8,1.7,6.4-.7,6.1h0Zm-5-3.6c1.7.4,3.3.6,5,1.1.1-.6,0-1.2-.2-1.8-2.1.1-4.2.3-6.3.5.5.1,1,.1,1.5.2h0Zm-20.7.3c.5,0,1.1-.1,1.7-.1h-.1.2-1.4.1c-.2,0-.4,0-.5.1,0-.1,0,0,0,0Z"/>
      <path class="cls-8" d="m208.16,181.25c-1,0-2.6.6-2.9-.8-.1-1,.9-1.1,1.7-1.1-.4-.6.1-1.3.7-1.5,1.1-.6,2.7-.3,3.5.8.6.4.5,1.2.1,1.6-.5,1.1-2.1,1.6-3.1,1h0Z"/>
      <path class="cls-8" d="m131.36,273.15c-2.5,0-5-.3-7.4-.8-2.3-.5-4.6-1.4-6.9-1.6-1-.3-.7-1.9.4-1.9,2.5.1,5,1.2,7.4,1.7,4.2.9,8.5.8,12.7.5,2-.1,3.8-1.8,5.6-1.2,5.3,2.1,12.1,1.4,16.1-2.9,1.1-.7,2.6-.2,3.9-.3,3.5.3,7.3,1,10.8.9,3.7-.3,7.4-.7,11-1.6.9-.1,1.8-.8,2.8-.5.8.3.8,1.5,0,1.8-3.9,1.2-8.1,1.8-12.2,2.2-5.1.5-10-.9-15-.9-4.5,4.8-12.3,5.4-18.2,3.1-3.6,1.5-7.3,1.6-11,1.5h0Z"/>
      <path class="cls-8" d="m125.46,270.65c-1.9-.1-3.8-.3-5.7-.1-1.4-.1-1.2-2.1.2-2,2.7-.2,5.5.3,8.2.1,3.4-.2,6.7-1.6,9.9-2.4.8-.3,1.6-.5,2.2-1,.3-.3.8-.7,1.2-.6.4,0,.6.3.9.5,1.6,1.2,3.7,1.5,5.5,2,2.7-.1,5.8-.8,7.9-2.6,1-.9.9-2.4,2-3.1.5-.2,1-.1,1.3.4.2.4.1,1-.3,1.3-.7,2-2.1,3.8-4.1,4.5s-4,1.5-6.2,1.6c-2.5-.2-5.2-.9-7.2-2.3-1.4,1-3,1.3-4.6,1.7-3.5,1.1-7.3,2.3-11.2,2h0Z"/>
      <path class="cls-8" d="m173.16,268.25c-.5,0-1-.5-1-1,0-.3.1-.5.3-.7-4.7-.8-9.3-1.3-13.8-2.8-1.1.1-1.4-1.5-.4-1.9,1-.2,2.1.4,3.1.6,5.9,1.7,12,2.1,18,3.1,2.6.3,5.1-.3,7.7-.2.5,0,.9.4.9.9.1,1.8-3.3,1-4.5,1.2-3.4.6-6.8.9-10.3.8h0Z"/>
      <path class="cls-8" d="m132.26,271.65c-.2-.1-.5-.2-.6-.5-.9,0-2,.4-2.8-.2-1.9.1-3.8.5-5.7.5-.6-.1-1-.8-.8-1.4.1-.3.4-.6.8-.6,3.8-.3,7.5-.6,11.3-.9,2.5-1,4.9-2.4,7.4-3.4.5-.2,1-.5,1.5-.4.6.1,1,.8.7,1.4.5,0,.9.2,1.1.7,1-.1,2.1-.6,3-.1,1.2,0,3.1-.8,3.7.5.6-.1,1.3-.3,1.8.1.1,0,.1-.1.1-.1h0c-.2-.4,0-1,.4-1.2s.9-.5,1.4-.7c.1-.6.8-.8,1.3-1.1,1.2-.7,3.5-2,4.3-.2.1,0,.3.1.4.2l.2.2c3.9.2,8-.3,11.9.3.5,0,1.2,0,1.4.6,2.3-.2,4.7,0,7-.4.9-.1,2.5-.8,2.7.6.3,2.1-7.4,1.5-8.9,1.7-3.2.3-6.3.7-9.5.8-.4,0-.8-.3-.9-.7-1.4.1-2.9.2-4.3.2-.3,0-.6-.2-.8-.4-.4.2-.8.5-1.2.7,1.7,2.4-3.7,3.2-5.2,3.3-.7.2-1.6.8-2.2.1-1.6,0-3.2-.2-4.8-.3-1.4.2-3.4,1-4.4-.5-.7.2-1.6.5-2.1-.2-.6.2-1.6.7-2.2.4-1-.1-2,1.2-3,.5-1,.2-2,.6-3,.5h0Z"/>
      <path class="cls-8" d="m129.26,272.35c-.4,0-.7-.3-.8-.7-.2-1.3,1.6-1.5,2.4-2,3.6-1.5,7.2-2.8,11-3.6.4,0,.8.2,1,.6.4,1.6-2,1.7-3,2.3-3.4,1.5-6.9,2.9-10.6,3.4h0Z"/>
      <path class="cls-8" d="m168.86,271.25c-3.2.1-6.4-.5-9.7-.5-1.2-.3-4.6.3-4.1-1.7.5-1,1.8-.4,2.7-.4,2.5.3,4.9.1,7.4.6,6,.1,12.1.4,17.8-1.7.9-.3,1.9-.6,2.8-.9.9-.2,2.4-1.2,2.8.2.2.6-.3,1.1-.9,1.2-3.3,1-6.5,2.2-9.9,2.9-3,.1-5.9.4-8.9.3h0Z"/>
      <path class="cls-8" d="m179.96,269.85c-7.2-.5-14.4.2-21.5-.5-1.2,0-1.2-1.9,0-1.9,7.1.7,14.3,0,21.5.5,1.3,0,1.3,1.9,0,1.9Z"/>
      <path class="cls-4" d="m148.16,284.75c-3.3,0-6.7-.3-9.9-.8-.4-.1-.7-.4-.8-.7-1.2-.5-4.8.3-4.6-1.5.1-.5.6-.9,1.2-.8,7.4.9,15.1,1.3,22.5-.1,4.3-.6,8.5-1.4,12.7-2.3,1.3.1,4.2-1.7,4.5.2,0,2.5-9.9,4-12.1,4.5-4.3,1.1-9,1.6-13.5,1.5h0Z"/>
      <path class="cls-9" d="m41.96,82.35c-2.2-.4-2-3.2-1.2-4.8,1.4-3.2,3.3-6.3,5-9.3,2.8-4.6,10.5-14.8,15.9-15.6,1.3.1,1.1,2-.2,1.9-4.3,2-7.5,6.1-10.5,9.6-2.2,2.9-4.1,5.9-5.8,9.1-1.1,2.2-2.7,4.3-3,6.7.5,2.3,12.1-6.1,13.4-7.1,1.1-.7,2.1.9,1,1.6-3.2,2.3-6.4,4.6-9.8,6.4-1.5.8-3.1,1.8-4.8,1.5Z"/>
      <path class="cls-9" d="m39.66,175.35c-.6-3.9-1.1-7.8-1.7-11.8-.5-5.6-.1-11.3-.3-16.9.2-6.7.5-13.4,1.2-20.1.5-4.4,1.9-8.7,3-13,3-12.8,6.2-25.7,12.3-37.4.8-1,1.4-4.3,3-3.6.5.2.7.8.4,1.3-.6,1-1.2,2.1-1.7,3.2-5.8,11.3-9.1,23.6-11.9,35.9-1.1,4.2-2.5,8.3-3.1,12.6-.8,4.8-.7,9.6-1.2,14.5-.3,8.1-.5,16.3.2,24.3.7,3.5,1,7.1,1.6,10.5.3,1.3-1.6,1.8-1.8.5h0Z"/>
      <path class="cls-9" d="m61.46,54.65c-.5-.2-.7-.8-.4-1.3.8-1.7,1.8-3.4,2.9-5,4-6.8,9.7-12.3,15.4-17.7,3.1-3.3,20.7-14.8,22.5-6.6.3,1.2-1.3,6.2-3,5.1-.8-.6-.1-1.5.3-2.1.3-.4.6-1,.7-1.5,1.1-3.4-2.8-2.4-4.7-1.9-3.3.8-6,2.5-8.8,4.2-4.3,2.6-7.8,6.3-11.3,9.9-2.8,2.8-5.5,5.7-7.6,9-1.6,2.5-3.2,4.9-4.5,7.5-.5.5-1.1.7-1.5.4Z"/>
      <path class="cls-9" d="m99.26,28.95c-4.3-3,21-10.5,23.4-11.4,5.2-1.6,10.6-2.9,16.1-2.3,1.2.1,1.1,2-.1,1.9-8.7-.9-16.9,2.8-25,5.5-4.4,1.9-9.3,3-13,6-.4.3-.9.5-1.4.3h0Z"/>
      <path class="cls-9" d="m195.66,28.35c-10.3-12.5-26.7-15.7-42.1-14.3-4.4.6-8.8,1.8-13.2,2.8-.8.8-2-.3-1.5-1.2.2-.4.6-.5,1-.7,2.7-.6,5.4-1.2,8.1-1.9,14.9-3,33.5-1.1,44.9,9.8,1,1.1,5.9,4.3,4.1,5.7-.4.3-1,.2-1.3-.2h0Z"/>
      <path class="cls-9" d="m222.26,43.45c-2.6-3.2-5.9-5.8-9.4-8-4.8-3.5-10.4-6-16.3-6.4-1.1-.1-1.2-1.6-.2-1.9,1.1-.2,2.3.2,3.4.4,3.4.8,6.8,1.7,9.9,3.5,4.2,2.7,8.6,5.3,12.2,8.9.7,1,3,2.3,1.9,3.5-.5.5-1.1.4-1.5,0h0Z"/>
      <path class="cls-9" d="m250.56,78.55c-1.5-5.3-4.3-10-7-14.7-2.3-4.3-4.7-8.6-7.6-12.5-1.5-2-9-11.1-11.4-8.5-.5,1.9-2.8.9-1.8-.8,3.4-5,9.9,2.6,12.4,5.3,3.6,4.2,6.5,9.1,9.2,14,2.9,5.4,6.3,10.6,8,16.6.4,1.2-1.4,1.8-1.8.6h0Z"/>
      <path class="cls-9" d="m266.66,112.85c-.4-8.5-1.7-17.2-6-24.7-2.1-3.5-4.6-7.1-8.6-8.5-.6-.2-1.4-.4-1.3-1.2,0-.5.5-.9,1-.9,9.2,2.9,13.4,14.5,15.5,23.2.8,4,1,8,1.3,12.1.1,1.1-1.8,1.3-1.9,0h0Z"/>
      <path class="cls-9" d="m260.86,198.35c-1.2-1.1-1.3-3-1.7-4.5-1.7-7-2-14.3-2.5-21.5-.1-1.2,1.8-1.4,1.9-.1.4,7.9,1,15.7,2.9,23.4.1.4.3,1,.6,1.3.1,0,.3-.2.4-.3,2-2.4,2.4-5.7,3-8.7,1.6-7.6,2.2-15.3,2.8-23,.7-17,1.7-34.1-1.5-50.8-.5-.5-.3-1.3.2-1.7,1.4-.9,1.8.9,1.8,1.9.8,4.3,1.2,8.7,1.8,13,1,6.7.9,77.2-9.7,71h0Z"/>
      <path class="cls-9" d="m173.46,57.65c-.2-.7.4-1.1,1-1.2,2-.5,4.1-1.3,6-2.2,2.5-1.1,5.4-2.2,6.8-4.7h0c.4-2.9-8.7-1.1-10.4-.9-4,.7-7.9,2-11.6,3.4-1,.1-1.5-1.4-.5-1.8,3-1.5,5.9-3.2,8.5-5.4,1.6-1.4,3.4-2.8,4.1-4.8-4-.3-7.8,1.4-11.5,2.5-7.7,2.7-14.9,6.6-21.7,11.2-1.5,1.1-2.9,2.2-4,3.6-.3.5-.9.6-1.3.3-.9-.6-.2-1.7.5-2.2,2.5-2.6,5.5-4.5,8.6-6.3,5.1-3.2,10.5-5.9,16.2-8,2.8-1,5.6-1.9,8.4-2.6,1.9-.4,4.2-1,6.1-.1,2.9,2.8-3.5,7.4-5.5,9,2.5-.6,5.1-1.1,7.8-1.4,2.4-.2,5.1-.5,7.2.7,5.1,4.6-6.3,9-9.7,10.3-1.4.4-4.6,2.3-5,.6h0Z"/>
      <path class="cls-9" d="m73.16,89.45c-3.8-3.3,12.7-4.2,14.4-4.2,2.9,0,5.7.3,8.5.6,1.2.1,2.5.6,3.6.1,10.5-4.4,21.8-6.8,33.1-6.9,4.1-.2,6.6,1.8,4.7,6-.5,1.1-2.2.4-1.8-.8.4-.8.8-1.8.3-2.7h0v.1c-.2-.3-.5-.4-.9-.5-3-.5-6.1,0-9.1.1-8.8.6-17.5,3-25.7,6.4-1.1.5-2.2.4-3.4.1-2.7-.4-5.4-.6-8.1-.7-4.3,0-8.8.4-13,1.4-.8.3-1.8,1.3-2.6,1h0Z"/>
      <path class="cls-9" d="m218.46,89.45c-13.2-6.3-27.7-11.7-42.6-10.4-1.2.1-4,1.4-3.9-.8.1-.5.5-.8.5-1.3-3.4-1.5-7.5-.9-11.2-.8-8.6.8-17.1,3.8-23.8,9.2-.9.9-2.3-.5-1.4-1.4,7.5-6.2,17.1-9.4,26.8-9.9,2.6-.1,12-.8,11.5,3.1,8.4-1.2,17,.4,25.1,2.6,6.8,1.9,13.3,4.7,19.6,7.8,1.2.6.6,2.4-.6,1.9h0Z"/>
      <path class="cls-9" d="m58.26,218.35c-3.5-1.8-3.9-22.3-4.7-27.1-.1-1.2,1.8-1.5,1.9-.2.7,7.4,1.1,14.8,2.4,22.1-.7-17.7-3.3-35.3-2.4-53.1,1.3-23.6,5.4-48.1,19.5-67.7,1-1.4,5.2-7.7,6.7-5.5.3.5.1,1.1-.5,1.4-2,1.4-3.4,3.5-4.8,5.4-17.3,24.5-19.9,56.9-19,86.1.3,8.4,1.4,16.7,1.9,25.1.2,3.5.5,7.1.4,10.6.2,1.2.3,3.4-1.4,2.9h0Z"/>
      <path class="cls-9" d="m41.46,214.35c-7.1-8.1-11.4-20.1-8.3-30.8,1.5-4.1,4.2-9.5,9.4-9,2.4.1,4.5,1.3,6.2,2.9.9.9,3.9,3.8,1.9,4.6-1.3.2-1.3-1.5-2.1-2.1-2.1-2.6-6.1-4.8-9.2-2.6-7.4,6.7-5.8,18.7-2.2,27,1.7,3.1,3.3,6.1,5.7,8.7.8.8-.5,2.2-1.4,1.3h0Z"/>
      <path class="cls-9" d="m55.06,247.35c-8-4-10.9-12.8-12.5-21.1-.3-2.2-2.7-12.8-.1-13.3.8-.1,1.4.8.9,1.5-.4,7.3,2.2,20.3,6.7,26.1,1.8,2.1,3.7,3.8,6.1,5,1,.8,0,2.4-1.1,1.8h0Z"/>
      <path class="cls-9" d="m54.96,209.75c-1.2-1.5-2.4-3.1-3.7-4.6-2.5-3.2-5-6.3-7.5-9.5-.9-1.1-1.7-2.2-2.6-3.3-.8-1-1.6-2-2.4-3-.3-.4-.2-1,.2-1.4.4-.3,1-.2,1.4.2.5.7,1.1,1.4,1.7,2.1.6.8,1.3,1.6,1.9,2.4,1.3,1.6,2.5,3.2,3.8,4.8,2.3,3,4.7,5.9,7,8.9.6.7,1.2,1.5,1.7,2.2.3.4.2,1-.2,1.4-.2.1-.4.2-.6.2-.2,0-.5-.1-.7-.4h0Z"/>
      <path class="cls-9" d="m253.26,224.35c-4.6-.3-3.8-14.9-4.6-18.6-1.3-10.9-1.3-21.9-2.9-32.7-.8-5.4-2.4-10.3-3.7-15.5-1.8-8.6-3.3-17.2-6.4-25.5-2.5-7.2-5.5-14.2-9.4-20.8-3.3-6.8-7.6-13.2-11.5-19.7-1.3-1.8-2.4-3.7-3.7-5.5-.3-.3-.4-.9-.1-1.2,1.5-1.6,2.8,2.2,3.6,3,2.6,3.6,4.7,7.4,7,11.2,2.6,3.9,4.9,8,6.9,12.3,3.9,6.3,6.6,13.2,9.1,20.2,3,8.3,4.5,17,6.3,25.5,1.5,5.9,3.3,11.6,4,17.6,1.4,11.6,1.7,23.4,3,35,.3,3.1.4,6,.9,8.9.3,1.3.4,2.9,1.4,3.8,3.1-8,4.2-16.8,5.5-25.2.4-1.2-.1-4.4,1.7-4.2.8.2.8,1.1.6,1.8-.6,4-1.1,8.1-1.9,12.1-.8,4.3-1.6,8.6-2.8,12.8-.6,1.7-.7,4.6-3,4.7h0Z"/>
      <path class="cls-9" d="m45.86,215.05c-.8-.6-.1-1.5.2-2.2.9-1.6,1.7-3.2,2.5-4.8.7-1.5,1.4-3,2-4.5.1-.5.6-.8,1.1-.8.5.1.9.5.8,1.1-1,3-2.6,5.8-4,8.6-.6.9-1.1,3.5-2.6,2.6h0Z"/>
      <path class="cls-9" d="m75.76,333.25c-8.6-9.5-13.6-21.8-16.6-34.2-1.8-6.7-1.7-13.7-2.6-20.6-.6-6.2-.6-12.5-.5-18.8-.2-8.8,0-17.8,1-26.5.1-5,.1-10,.2-15-.1-.8,0-1.9,1-1.8,1.5.1.7,3.3.9,4.4-.2,3.7-.1,7.5-.1,11.2-.7,8.6-1.4,17.2-1,25.9,0,6.6-.1,13.1.5,19.7.6,5.4,1,10.8,1.6,16.2,1.2,6.3,2.7,12.7,5.4,18.5,1.9,4.9,4.2,9.6,7.1,14,1.4,2.1,3.1,4,4.8,5.9.6.8-.9,2.1-1.7,1.1h0Z"/>
      <path class="cls-9" d="m256.16,245.15c-.9-.3-1.7-.7-2.6-.9-.7-.2-1.8-.4-1.6-1.4.4-1.2,1.6-.6,2.4-.3,2,.8,4.1,1.6,6.3,1,8-1.9,8.2-11.8,8.1-18.4.1-3.8-1.5-8.1,2.7-10.3,2.4-1.9,3.9-4.6,5.7-7,3.5-5.6,5.2-12.2,4.9-18.9.1-5.5-1.3-11.2-5-15.4-2.2-2.2-5-3.5-8-3.6-1.2-.1-1-2.1.2-1.9,16.1,1.3,17.2,23.9,12.2,35.5-2,4.7-4.8,9.1-8.5,12.6-.8.7-1.9,1.1-2.3,2.1-.4,6,.7,12.1-1,18-1.2,5.9-7.2,11-13.5,8.9h0Z"/>
      <path class="cls-9" d="m220.96,350.45c-.4-.4-.4-1,0-1.4,1.9-2,3.8-4,5.6-6,3-3.3,4.9-7.4,7.3-11.1,5-7.9,9.9-15.9,12.7-24.8,3.1-8.7,2.8-18.2,3.3-27.2.4-11.3,1.3-22.6,1.3-33.9.2-5.7.5-11.2.2-16.9.1-1.7-1.2-7.4,1.1-7,.5.1.8.7.7,1.1-.1,6.7.5,13.7-.1,20.4-.1,12.2-.9,24.4-1.4,36.5-.5,9.7-.3,19.6-3.8,28.8-4,11.7-11.4,21.8-17.6,32.5-1.5,2.2-3.4,4.2-5.3,6.1-.9,1-1.8,2-2.8,2.9-.1.4-.8.4-1.2,0h0Z"/>
      <path class="cls-9" d="m151.66,377.75c-2.4,0-4.8-.2-7.1-.5-1.1-.3-3.3.1-3.3-1.5.1-.5.6-.9,1.1-.8,3,.5,6.1.9,9.2.9,5.1.2,10.1-1,15.1-2,6-1.3,11.9-2.8,17.5-5.1,7.4-2.6,14.1-6.6,21.1-10.2,5.2-2.9,10.8-5.2,15.4-8.9.9-.6,1.9-2.5,3-1.3,1.5,2.8-13.6,9.7-16,11.2-4.5,2.2-8.8,4.8-13.2,7-8.4,4-17.1,7.2-26.1,9-5.6,1.1-11.1,2.4-16.7,2.2h0Z"/>
      <path class="cls-9" d="m142.26,376.95c-7.1-2.3-14.2-5.1-20.7-8.8-9.2-4.8-18-10.3-25.9-16.9-7.7-5.2-14.5-11.7-20.5-18.7-.4-.4-.6-1-.2-1.5.3-.4,1-.5,1.4-.1,1.2,1.2,2.3,2.5,3.3,3.8,1.2,1.4,2.5,2.7,3.8,4h0c4,4.2,8.6,7.7,13.4,11,8.2,6.9,17.5,12.5,26.9,17.5,3.8,2.1,8,3.9,12,5.5,2.2.8,4.5,1.6,6.7,2.3.7.1,1.5.7,1.1,1.5-.3.4-.9.6-1.3.4h0Z"/>
      <path class="cls-9" d="m84.86,168.55c-3.5-.3-15.1.8-12.1-5.5.8-1.2,2.1-1.6,3.4-2,3-1,6.2-1.4,9.4-1.8,8.2-1,16.5-.5,24.7-.2,4.2.2,8.4.1,12.6.8,2.5.4,5.3.8,7.3,2.4,3.2,4-8,3.9-10,3.8-1.1-.4-.6-2.1.6-1.8h-.2c2.6-.1,5.4-.1,7.9-.9-5.2-2.3-11.1-2.1-16.6-2.3-7.2-.2-14.5-.8-21.7-.3-5.1.3-10.2.8-15,2.5-4.1,2.8,4.2,3.1,5.9,3.1,1.3.1,2.5.1,3.7.1.5,0,1,.4,1,.9,0,.7-.4,1.2-.9,1.2h0Z"/>
      <path class="cls-9" d="m80.96,176.95c-2.5-.1-5.2.1-7.5-1.1-2.2-1-3.4-4.4-1.6-6.2.8-1,5.3-4.8,6.2-2.7.3,1.3-1.5,1.4-2.2,1.9-1.1.7-2.4,1.5-3,2.7-.3,1.3.8,2.5,2,2.9,7.7,1.7,15.8-.1,23.6-.5,6.2-.2,12.5-.8,18.7-1.4,4.8-.6,9.9-.8,14.2-2.9-1.9-1.9-4.7-2.6-7.2-3.1-1.2-.3-.8-2.1.4-1.9,3,.3,13,4.1,6.8,7.2-7.6,2.6-15.8,2.6-23.7,3.5-8.9.4-17.8,1.5-26.7,1.6h0Z"/>
      <path class="cls-9" d="m177.06,164.85c-1.9,0-5.1-.2-5.4-2.6.4-2.4,4.6-3.5,6.6-4.3,7.2-2.7,14.9-3.2,22.5-3.9,6.1-.4,19.7-1.7,24.3,2.3,1.4,3.5-5.3,4.3-7.6,4.8-1.1,0-4.4,1.1-4.4-.8.1-1,1.3-.9,2-1,2.8-.3,5.8-.5,8.2-2.1-8.1-3-17.1-1.6-25.6-1-8.2.8-17,1.5-24.1,6,.7.5,1.7.6,2.5.6,2.5,0,5-.1,7.5-.2.5,0,1,.4,1,.9s-.4,1-.9,1c-2.1.3-4.3.4-6.6.3h0Z"/>
      <path class="cls-9" d="m181.26,170.35c-2.8,0-11.4-.9-6.9-5.1,1.3-1,2.7-2.2,4.4-2.4,1.2.1,1.1,1.9-.1,1.9-1.4.5-2.6,1.4-3.6,2.4,4.7,2,10.4.9,15.5,1,8.2-.2,16.5-.6,24.7-1.3,3.7-.6,8.1-.5,11.1-3.1.7-2.5-4.2-3-5.8-3.3-.5-.1-.9-.5-.9-1,.3-1.7,3.3-.3,4.4-.2,6,1.7,5.6,6.6-.4,8.1-5.2,1.6-10.8,1.6-16.2,2-8.7.6-17.4,1-26.2,1h0Z"/>
      <path class="cls-9" d="m254.56,148.75c-1.8-20.6-4.1-41.6-13.3-60.4-.5-1.1,1.2-2,1.8-.8,7.8,16,10.9,33.7,12.5,51.4.3,3.2.7,6.5,1,9.8-.1,1.2-2,1.3-2,0h0Z"/>
      <path class="cls-9" d="m257.96,151.85c0-4-.4-8-.7-12.1,0-.5.3-1,.8-1.1s1,.3,1.1.8c.2,2,.4,4,.5,6,.2,2.1.2,4.2.2,6.2,0,.5-.4,1-1,1-.4.2-.8-.3-.9-.8h0Z"/>
      <path class="cls-9" d="m48.36,150.95c-1.6-.2-.5-3.4-.6-4.5.2-3.3.6-6.5,1.1-9.7,1.2-9.5,3.4-18.6,6-27.8.8-3.2,1.9-6.3,3-9.5,1.2-3.4,2.2-6.9,4.4-9.8.3-.4.9-.5,1.3-.2.8.6.2,1.4-.2,2-3.1,5.5-4.7,11.7-6.6,17.7-1.8,6.8-3.8,13.6-4.9,20.6-1.1,6.8-2.1,13.5-2.4,20.4,0,.5-.6.9-1.1.8h0Z"/>
      <path class="cls-9" d="m47.76,164.05c-.3-2.9-.4-5.9-.5-8.9,0-1.2,1.9-1.3,1.9,0,.1,3,.2,5.9.5,8.9,0,1.2-1.9,1.2-1.9,0Z"/>
      <path class="cls-9" d="m76.36,182.75c0-.5.4-1,.9-1,1.9-.1,3.8-.1,5.8-.1,2.1,0,4.2-.1,6.4-.1,4.3-.1,8.5-.1,12.8-.2,4.2-.1,8.4-.1,12.6-.2,3,0,6-.1,9-.1.5,0,1,.4,1,1,0,.5-.4,1-.9,1-3.5,0-7.1.1-10.6.2-4.3.1-8.6.1-12.8.2-4.3.1-8.6.1-12.8.2-1.8,0-3.5,0-5.3.1-1.7,0-3.3,0-5,.1h0c-.7-.2-1.1-.6-1.1-1.1h0Z"/>
      <path class="cls-9" d="m171.16,178.55c0-.5.4-1,1-1h.9c.5,0,1,0,1.5-.1,1,0,2-.1,3.1-.1,2.1-.1,4.2-.1,6.3-.2,4.2-.1,8.3-.3,12.5-.5l12.7-.5c4-.1,8-.3,12-.4,1.3,0,2.5-.1,3.8-.1.5,0,1,.5,1,1s-.4.9-1,1c-3.3.1-6.5.2-9.8.4-4.1.1-8.3.3-12.4.5-4.2.2-8.4.3-12.6.5-4.2.2-8.4.3-12.7.5-1,0-1.9.1-2.9.1-.8,0-1.5.1-2.3.1-.7-.3-1.1-.7-1.1-1.2h0Z"/>
      <path class="cls-9" d="m101.46,199.45c-3.5-.2-7.1-.7-10.2-2.4-3.6-2.6-5.2-7.4-5-11.7.2-1.1-.1-3.3,1.4-3.3,1,.1.9,1.1.7,1.8-.7,3.9.5,8.2,3.2,11,2.2,1.7,5.1,2.1,7.8,2.5,9.5,1.6,20.5-4.2,21.4-14.5-.2-1.3,1.6-1.8,1.9-.5-.3,10.7-11.1,17.8-21.2,17.1h0Z"/>
      <path class="cls-9" d="m101.06,190.45c-1.9-1-3.3-3-3.6-5.1-.2-1-.1-2,.1-3h0c.1-.5.7-.8,1.2-.6.2.1.4.2.6.5.1.2.1.4.1.7h0v.1h0c-.1.2-.1.4-.1.7v.7c0,.3,0,.5.1.8,0,.2.1.4.2.7.1.2.1.4.2.6.1.2.2.4.3.5.1.2.3.5.5.7.1.1.3.3.4.4.1.1.3.3.5.4s.4.3.5.4c.2.1.4.2.7.3.2.1.5.2.7.2.2.1.5.1.8.1h.6c.2,0,.5,0,.7-.1.3,0,.5-.1.7-.2s.4-.1.6-.2l.6-.3c.2-.1.4-.2.5-.4.2-.2.4-.3.5-.5.1-.1.3-.3.4-.4.1-.2.3-.4.4-.6.1-.2.2-.4.3-.6s.2-.5.2-.7.1-.4.1-.6v-1.4h0v-.1c-.1-.5.2-1,.7-1.1s1,.2,1.2.7c.3,1.5.1,3-.5,4.4-.8,1.8-2.4,3.1-4.2,3.8-.7.2-1.5.4-2.3.4-1.4-.2-2.6-.6-3.7-1.2h0Z"/>
      <path class="cls-9" d="m192.46,195.05c-10.4-.9-16.4-5.3-17.2-16.1-.3-.8.5-1.6,1.3-1.2,1,.6.6,2.1,1,3.1.8,10.1,10.6,13,19.3,12.3,7.3-.9,13.9-6.9,15.1-14.2.3-.9-.1-2.2,1.1-2.3.8,0,1.1.9.9,1.6-1.2,10.1-11.3,18-21.5,16.8h0Z"/>
      <path class="cls-9" d="m194.56,185.65c-1.8-.6-3.3-2-4-3.8-.5-1.2-.6-2.6-.4-3.9h0v-.1c.1-.5.7-.8,1.2-.7.5.1.8.7.7,1.2v.1c0,.2-.1.5-.1.8v.6c0,.2.1.4.1.5,0,.2.1.4.1.6v.1h0c.1.2.1.4.2.5.1.2.2.4.3.6.1.1.2.3.3.4s.3.3.4.4c.2.1.4.3.5.4.2.1.3.2.4.2h.1l.6.3c.2,0,.3.1.5.1.3,0,.5.1.8.1h.5c.2,0,.4,0,.6-.1.2,0,.4-.1.6-.2.2-.1.4-.2.5-.2.2-.1.4-.2.6-.4.2-.1.3-.2.5-.4.1-.1.3-.2.4-.4.1-.1.2-.3.4-.5.1-.2.2-.4.3-.6s.2-.4.2-.5c.1-.2.1-.4.2-.6,0-.2.1-.4.1-.6h0v-.6c0-.2,0-.4-.1-.7v-.1c-.1-.5.1-1,.7-1.2.5-.1,1.1.1,1.2.7.2.8.2,1.7.1,2.6-.3,1.9-1.3,3.6-2.9,4.6-1.1.7-2.4,1.1-3.7,1.1-.5.1-1.2,0-1.9-.3h0Z"/>
      <path class="cls-9" d="m106.86,205.65c-.1-.5.3-1,.8-1.1,1.1-.2,2.2-.5,3.2-.8,5.3-1.5,9.6-4.9,13-9.1.8-1,2.3.1,1.5,1.2-3.6,4.5-8.3,8.2-14,9.7-1,.2-4.1,1.9-4.5.1Z"/>
      <path class="cls-9" d="m188.56,200.75c-6.6-.5-11.5-2-15.2-7.9-.2-.5-.1-1,.3-1.3.4-.3,1.1-.1,1.3.3.7,1,1.5,1.9,2.2,2.8,3.3,3.5,8.5,3.9,13.1,4.2,1.3,0,1.3,1.9,0,1.9-.4.1-1.1.1-1.7,0h0Z"/>
      <path class="cls-9" d="m106.56,267.95c-.1-1.3,1.5-1.2,2.4-1.3,6-.8,11.9-2.4,17.3-5.1,3.8-1.7,7.2-4,10.9-5.8,3.5-2.2,7.9-1.1,10.5,1.9,1.2.5.5,2.3-.8,1.8-1.6-1.3-3.1-2.9-5.3-3-5.1.7-9,4.6-13.8,6.4-5,2.7-10.5,4.2-16,5.3-1.5.2-2.9.4-4.3.6-.4,0-.8-.3-.9-.8h0Z"/>
      <path class="cls-9" d="m200.76,266.05c-10.8-3.8-21.7-7.4-32.7-10.3-12.2-3.1-9.2-5.8-19.1,3.4-.9,1.2-2.5-.3-1.4-1.3,3.5-2.6,6.6-7.9,11.5-6.9,5.7,1.9,11.6,3.5,17.4,5.1,7.2,2,14.4,4.3,21.4,7,1.1.7,4.6.7,4.1,2.4-.2.5-.7.7-1.2.6h0Z"/>
      <path class="cls-9" d="m147.36,268.35c-3.4-.4-6.2-2.9-7.8-5.8-.4-.8-1.3-1.8-.4-2.5.8-.6,1.5.3,1.8,1,4.9,8.9,12.6,5.5,17.2-1.5.7-1,2.3,0,1.6,1-2.8,4.1-7.1,8.5-12.4,7.8h0Z"/>
      <path class="cls-9" d="m202.16,266.65c-2.8-1.4-6-.4-8.9-.5-5.4.1-10.7-.2-16.1-.5-5.4-.3-10.9-.3-16-2.3-1-.3-2-.8-3-1.1-.5-.2-.8-.7-.6-1.2v.5c-.2-2.2,2.4-.7,3.4-.4,7.9,3,16.5,2.3,24.8,2.9,3.5.1,7,.2,10.5-.1,2.4,0,4.9-.4,7,.9,1,.8,0,2.4-1.1,1.8h0Z"/>
      <path class="cls-9" d="m104.46,269.15c-.2-.5-.1-1.1.4-1.3,2.4-1.7,5.2-.3,7.9-.5,8.4-.2,17.5,1.7,25.3-2.1,1.2-.5,2.7-2.3,4.1-1.5.7.5.3,1.7-.6,1.7-1.8.9-3.4,2-5.3,2.6-4.6,1.7-9.6,1.5-14.4,1.3-4.6-.2-9.3.2-13.9-.5-1.3-.3-2.6,1.6-3.5.3h0Z"/>
      <path class="cls-9" d="m146.46,308.95c-.5-.2-.8-.7-.6-1.2.2-.7,1-1,1.7-1.1,1.4-.3,2.9-.5,4.3-.6,3.5-.3,7.1-.1,10.5.5,1.2.3.8,2.1-.4,1.9-4.8-.9-9.8-1-14.4.2-.3.3-.7.5-1.1.3h0Z"/>
      <path class="cls-9" d="m155.76,334.75c-.7-.8.2-1.5.8-2,.9-.9,1.6-2.1,1.8-3.4.2-.5.8-.8,1.2-.6,2.3.6-2.3,7.8-3.8,6Z"/>
      <path class="cls-9" d="m128.56,336.95c-2.9-4.4-2.8-10-.5-14.6.6-1.1,3.1-5.1,4.5-3.5.4.5.1,1.2-.4,1.5-3.3,2.7-4.3,7.8-3.6,11.8.4,1.3,1,2.7,1.7,3.8.3.5.2,1-.3,1.3-.5.3-1.1.2-1.4-.3Z"/>
      <path class="cls-9" d="m180.46,333.45c-1.3-.3-.5-2.1-.5-3,.5-4,.2-8.4-2.7-11.4-.3-.4-.3-1,.1-1.4,1.4-1,2.7,1.9,3.3,2.8,1.9,3.7,1.6,8.1.9,12.1-.1.6-.6,1-1.1.9h0Z"/>
      <path class="cls-9" d="m144.76,286.15c-12.5-.4-22.8-7.7-29.5-17.7,1.2-3.1,4.1,2.7,5.2,3.5,6.3,7.4,15.5,12.3,25.3,12.3,7.8-.4,15.9-.6,23.1-3.8,5.2-2.2,10-5.6,14.4-9.1,1.8-2,4.2-3.6,5.6-6,.7-1,2.3,0,1.6,1.1-1.2,2-2.9,3.5-4.6,5-1.4,1.7-3.2,2.9-4.9,4.1-3.3,2.7-7.1,4.9-11,6.6-8,3.5-16.8,3.8-25.2,4h0Z"/>
      <path class="cls-9" d="m147.16,298.15c-14.4-.5-25.4-11.8-31.7-23.8-.7-1.2-3.6-6.5-1.8-7,.5-.2,1.2.2,1.3.7,2.8,8.9,10.5,18.8,18.3,23.8,4.6,2.9,9.9,4.1,15.2,4.4,3.3.3,6.7.3,9.9-.4,11.6-2.9,21.5-11.1,28-20.9,1.5-2.5,2.6-5.2,3.6-8,.6-.9.3-3,1.8-2.8,1.4.4.5,2,.2,2.9-1.3,3.7-2.8,7.3-5.1,10.5-8.8,12.6-23.7,23.1-39.7,20.6h0Z"/>
      <path class="cls-9" d="m149.76,281.55c-.2-4.7-.3-9.4.1-14.1.2-.7,1.2-.8,1.6-.3.6,1.2,0,2.6.1,3.9-.1,3.5,0,7,.1,10.4.1,1.2-1.8,1.3-1.9.1h0Z"/>
      <path class="cls-9" d="m137.26,281.45c-.4-4.1-.7-8.3-.7-12.4.2-1.1-.5-3.3,1.1-3.4,1.3.2.8,1.7.8,2.6,0,4.4.2,8.8.7,13.1.1,1.3-1.8,1.4-1.9.1h0Z"/>
      <path class="cls-9" d="m144.66,283.05c-2.1,0-4.2-.1-6.3-.5-.5-.1-.8-.5-.8-1,.1-1.1,1.3-.9,2.1-.7,3.6.5,6.9.2,10.4.1.7-.1,1.6.2,1.6,1,0,.5-.5.9-1,.9-2-.1-4,.3-6,.2h0Z"/>
      <path class="cls-9" d="m151.16,282.65c-1.3.1-1.4-1.8-.1-1.9,4.1-.8,8.2-1.5,12.2-2.6.7-.2,1.6-.1,1.7.8,0,.7-.6,1.1-1.2,1-4.2,1.1-8.4,2-12.7,2.7h.1Z"/>
      <path class="cls-9" d="m164.06,279.45c-1.5-.2-.7-2.2-.8-3.2.2-2.5,0-4.8.2-7.3.1-1.7.3-3.4.5-5.1.2-1.2,2-.9,1.9.3-.3,3.3-.7,6.6-.6,9.9,0,1.5-.2,3-.2,4.6,0,.5-.5.9-1,.8h0Z"/>
      <path class="cls-9" d="m163.36,278.95c0-.5.4-1,.9-1,1.7,0,3.2-.4,4.8-.7,1.1-.2,2.2-.4,3.3-.7.5-.1,1,.2,1.1.8.3,1.7-3.8,1.6-5,2-1.2,0-4.9,1.4-5.1-.4h0Z"/>
      <path class="cls-9" d="m172.66,277.85c-.5,0-1-.5-.9-1,.3-2,.3-4,.4-6,.2-2.1,0-4.3.4-6.4.3-.5,1.1-.8,1.5-.3.2.2.3.5.3.8-.2,2.1-.2,4.3-.3,6.4-.1,1.8-.1,3.6-.3,5.4,0,.6-.4,1.2-1.1,1.1h0Z"/>
      <path class="cls-9" d="m172.66,278.15c-1.3-.1-1.1-2,.1-1.9,1.4.2,2.9-.1,4.3-.3.5-.1,1,.2,1.1.8.2,1.2-1.2,1.3-2.1,1.3-1.1.1-2.2.2-3.4.1h0Z"/>
      <path class="cls-9" d="m181.76,273.65c-.5-.1-.8-.6-.8-1.2.1-2.1,0-4.1-.2-6.2-.1-.8-.1-2,1-2,.5,0,.9.5.9,1,.2,2.3.3,4.6.2,6.8.2.9-.2,1.7-1.1,1.6h0Z"/>
      <path class="cls-9" d="m138.46,282.65c-3.2-.9-6.5-.9-9.5-2-1.2-.3-.8-2.1.4-1.9.4.1.8.3,1.2.4,2.7.7,5.4.8,8.1,1.6.5,0,.9.5.9,1-.1.5-.6.9-1.1.9Z"/>
      <path class="cls-9" d="m127.86,279.75c0-3.7-.9-7-.7-10.6-.3-1.1,1.5-1.6,1.9-.5.2,1.6,0,3.2.2,4.8.3,2,.5,4.1.5,6.2,0,.5-.4,1-.9,1s-1-.4-1-.9h0Z"/>
      <path class="cls-9" d="m121.96,275.65c-.1-2.1-.2-4.1-.3-6.2-.2-1,1-1.8,1.7-1,.2.2.3.6.2.9,0,2,.2,4.1.3,6.1.1,1.1-1.7,1.4-1.9.2h0Z"/>
      <path class="cls-9" d="m137.46,208.75c-.5-8.4-1.6-16.8-2.7-25-.6-4.1-2.8-7.8-4.3-11.7-.9-.6-.1-2.1.9-1.7.7.2.9,1,1.2,1.6,2,4.8,4.3,9.4,4.5,14.6.9,7.3,1.9,14.6,2.2,22,.2,1.3-1.7,1.5-1.8.2h0Z"/>
      <path class="cls-9" d="m162.56,207.25c-.5,0-.9-.5-.9-1,0-4.3.3-8.6.9-12.9,1.4-6.5,2.9-13.2,5.9-19.1,1.4-2.2,3-4.4,4.3-6.7l-.1.1c.5-1,2.1-.3,1.7.8-1.5,2.8-3.6,5.1-5,8-3.1,7.8-5.3,15.8-5.7,24.1-.2,2-.2,3.9-.2,5.9.1.5-.4.9-.9.8h0Z"/>
      <path class="cls-9" d="m130.26,239.45c-6.2-.8-9.5-7.5-8.4-13.3.8-4.2,3.3-8.1,6.1-11.3,4.5-4.6,10.6-6.8,16.7-8.4,1.4-.2,6.6-1.9,6.6.3,0,.5-.5.9-1,.9-5.6.1-10.9,2.3-15.9,4.6-5.2,3.1-9.3,8.2-10.6,14.1v.2s0,.1-.1.1c-.1.3-.1.5-.1.8,0,.1,0,.2-.1.4v.7c0,.2.1.4.1.6h0c.3,3.3,2.1,6.5,5.4,7.8,3,1,7.1.6,9.2-2,.7-1,2.3,0,1.6,1.1-1.8,2.3-4.8,3.3-7.6,3.3-.6.2-1.3.2-1.9.1h0Z"/>
      <path class="cls-9" d="m168.56,237.05c-1.7-.1-3.4-.4-5-1.2-.8-.4-2.5-.8-1.9-2,.2-.5.9-.6,1.3-.4,4.6,2.6,11.6,2.6,14.3-2.6.5-2.3-.1-5-.8-7.3-.3-1-.9-2-1.3-2.9,0,0,0-.1-.1-.1-2.3-4.4-5.9-8-10-10.7-4.8-2.8-10.6-2.4-15.9-2.1-1.1.4-1.8-1.4-.7-1.8,2.7-.4,5.7-.5,8.3-.2,2.6,0,5.1.5,7.5,1.5,5.1,2.7,9.4,7.1,12.3,12.1,2,3.6,3.4,8.1,2.4,12.2-1.8,3.7-6.3,6.1-10.4,5.5h0Z"/>
      <path class="cls-9" d="m149.46,240.95c-7.3,0-11.5-6.2-16.3-10.8.6,2.3,2.2,4.1,3.8,5.6.4.2.8.2.9.7.2.5-.1,1.1-.6,1.2-1.5.3-2.5-1.5-3.4-2.4-1.6-1.8-2.8-4-2.9-6.5-.1-.5,0-1,.5-1.3,1.5-.8,3,1.3,4,2.1,1.6,1.7,3.3,3.4,4.8,5.1,3.3,3.3,7.7,4.8,12.4,4.1.5-.1,1,.4,1,.9.1,1.9-3,1.3-4.2,1.3h0Z"/>
      <path class="cls-9" d="m150.96,240.55c-.7-.7.1-1.9,1-1.6,1.8-.3,3.4-1.2,4.8-2.2,2.3-2,4.2-4.3,6.2-6.5,1.2-1.1,2.6-3.4,4.5-2.6,1.8,1.4.2,3.9-.6,5.4-.7,1-1.7,3.7-3.2,2.8-.8-.7,0-1.5.6-2.1.9-1.3,1.6-2.5,2.1-4.1-4.5,3.9-7.7,10.2-14,11.2-.5.1-1.1.1-1.4-.3h0Z"/>
      <path class="cls-9" d="m137.36,236.25h0c-.9-.1-1.2-1.1-1.8-1.6-1.2-1.3-2.4-2.8-2.9-4.5-.3-1.2,1.6-1.6,1.9-.4.2.8.8,1.4,1.2,2.1.6.3,1,1,1.5,1.4.6.6,1.4,1.2,1.5,2.1.2.8-.7,1.4-1.4.9h0Z"/>
      <path class="cls-9" d="m162.76,234.55c-.9-.9-.4-1.7.4-2.4.7-.9,1.5-1.7,2.1-2.7.2-.3.5-.5.9-.6.6-.1,1.1.5,1,1.1-.1.7-.8,1-1.1,1.6.2.5-.2.9-.5,1.3-.4,1-1.5,2.7-2.8,1.7h0Z"/>
      <path class="cls-9" d="m100.56,259.75c-1.6-.3-.1-3.7,0-4.8,1.2-6.5,6.9-10.3,11.3-14.6,3.4-3.9,8.6-6.7,10-12,0-1,1.3-1.2,1.8-.6v.9c0,.2,0,.3.1.5,0,.1-.1.2-.1.3-2.1,5.9-7.8,9.3-11.9,13.7-3.2,3.1-7.2,5.9-8.6,10.4-.6,1.8-1,3.6-1.3,5.4-.1.5-.5.8-1,.8q-.2,0-.3,0h0Z"/>
      <path class="cls-9" d="m203.36,253.35c-3.4-7-10.5-10.7-16.1-15.6-3.6-3.1-7.9-5.9-9.6-10.6-.1-.3-.3-.7-.3-1-.1-1.2,1.7-1.4,1.9-.2,1.2,4.2,5,6.7,8.1,9.5,4.1,3.5,8.6,6.5,12.5,10.2,1.1,1,6.8,7.2,4.8,8.2-.5.2-1.1,0-1.3-.5h0Z"/>
      <path class="cls-9" d="m256.26,215.35c-.4-.3-.6-.9-.3-1.3,2.3-3.1,4.6-6.2,6.9-9.4,2.5-3.3,4.9-6.7,7.4-10,1.4-1.8,2.7-3.7,4.1-5.5.3-.4.9-.6,1.3-.3.4.3.6.9.3,1.3-2.1,2.9-4.2,5.7-6.3,8.6-2.5,3.4-5,6.7-7.4,10-1.6,2.1-3.1,4.2-4.7,6.3-.2.3-.5.4-.8.4-.1,0-.3,0-.5-.1h0Z"/>
      <path class="cls-9" d="m268.46,211.35c-1.2-2.5-2.4-5-3.5-7.5h0c-.2-.5,0-1.1.5-1.3.5-.2,1,0,1.3.5,1.2,2.5,2.4,5,3.5,7.5v.1c.2.5,0,1.1-.5,1.3-.1,0-.2.1-.4.1-.4-.1-.8-.3-.9-.7Z"/>
      <path class="cls-9" d="m54.06,200.65c-.4,0-.8-.2-1.1-.6-.2-.2-.3-.5-.4-.8-.2-.4-.3-.8-.4-1.2-.3-.9-.5-1.9-.7-2.9-.4-1.9-.6-3.8-.8-5.7-.2-1.9-.4-3.8-.5-5.8-.1-1.7-.2-3.4-.1-5.1,0-1.4,0-2.8.2-4.1.1-.5.6-.9,1.1-.8s.9.6.8,1.1c-.1.4-.1.9-.1,1.3-.2,2.7-.1,5.5.1,8.2.2,3.7.6,7.4,1.3,10.9.2.9.4,1.8.7,2.7.2-.1.5-.2.8-.1.5.1.8.7.7,1.2-.1.4-.2.9-.5,1.2-.3.3-.7.5-1.1.5h0Z"/>
      <path class="cls-9" d="m104.06,190.15c-.9-.3-1.9-.5-2.7-1-1.4-1-2.2-2.8-2.4-4.5-.2-1,.2-2.4,1.5-1.8.2-.2.5-.2.7-.3,1.4,0,2.7-.1,4.1-.1,1.3-.1,4.8-1,5.2.8.1,1.6-.7,3.1-1.3,4.5-.9,1.9-3.1,2.7-5.1,2.4Z"/>
      <path class="cls-9" d="m114.86,180.05c-3.9,0-7.7-.1-11.6-.1h-.1c-.5,0-1-.5-.9-1,0-.5.5-1,1-.9,3.8,0,7.6.1,11.4.1,2.9,0,5.8.1,8.8.1h0c.5,0,1,.5.9,1,0,.5-.5.9-1,.9-2.9,0-5.7-.1-8.5-.1Z"/>
      <path class="cls-9" d="m176.26,174.85c0-.5.4-1,.9-1,4-.2,7.9-.4,11.9-.5,4-.2,8-.4,12-.5l3.6-.2c.5,0,1,.4,1,.9s-.4,1-.9,1c-2.7.1-5.5.2-8.2.4-4.1.2-8.2.4-12.2.6-2.3.1-4.7.2-7,.3h0c-.6-.1-1-.5-1.1-1h0Z"/>
      <path class="cls-9" d="m196.16,184.75c-.8-.2-1.5-.7-2.2-1.2-1.1-.8-2.5-1.7-2.5-3.2-.1-.9.4-2.4,1.6-2.1.8-1,2.3-.5,3.4-.5,1.6-.2,3.2.1,4.8.3.4,0,.7.2.9.5.6.6.2,1.6.2,2.3-.2,2.7-3.7,4.1-6.2,3.9h0Z"/>
      <path class="cls-9" d="m129.86,157.45c-.8-.9-1.4-1.6-2.2-2.3-.3-.2-.5-.6-.4-1,1-2.3,3.1,1.3,4.1,2.1.8.9-.7,2.1-1.5,1.2h0Z"/>
      <path class="cls-9" d="m169.26,159.15c-1.8-.8,1.2-4.9,2-5.9,1.2-1,2.3.7,1.1,1.6-.9,1.1-1.5,2.4-1.9,3.7-.2.5-.8.8-1.2.6h0Z"/>
      <path class="cls-9" d="m126.36,190.75c-1.1-.3-.6-1.5-.5-2.2,0-.7.2-1.7,1.2-1.6.5.1.9.5.8,1.1-.2.9-.1,2.9-1.5,2.7h0Z"/>
      <path class="cls-9" d="m171.96,186.45c-.2-1.1.3-2.7,1.7-1.7.5.5.2,1.1.3,1.7-.1,1.2-2,1.2-2,0h0Z"/>
      <path class="cls-9" d="m101.06,39.35c-2-2.7,16.8-9.8,19.3-10.5,1.6-.5,3.2-1,4.8-1.5.5-.1,1,.2,1.2.7.1.5-.2,1-.7,1.2-6.8,2-13.8,4.3-19.9,7.9-1.1.8-2.3,1.5-3.4,2.4-.3.3-.9.2-1.3-.2Z"/>
      <path class="cls-9" d="m128.76,26.65c-.1-.5.3-1,.7-1.1,1.2-.3,2.6-.5,3.7-.8,1-.1,2.6-1.1,3.1.2.3,1.6-2,1.4-3.1,1.7-1.2.2-2.4.5-3.5.7-.4.1-.8-.3-.9-.7h0Z"/>
      <path class="cls-9" d="m255.16,173.75c-1-.7-1.2-2-1.4-3.1-.5-3.2-.9-6.4-1.3-9.6-.8-6.6-1.9-13.1-3.3-19.5-.5-2.2-1-4.4-1.3-6.6-.1-.5.3-1,.8-1.1,1.3-.1,1.2,1.5,1.4,2.4,1.2,6,2.5,11.9,3.4,17.9,1,5.9,1.3,12,2.6,17.9,2.8-2.6,3.2-6.6,3.8-10.2.2-1.2,2-1,1.9.2-.6,3.7-1.1,7.6-3.6,10.5-.6.7-1.8,1.8-3,1.2h0Z"/>
      <path class="cls-9" d="m149.46,302.15c-1.2-.1-1.2-2,.1-1.9,3.5-.1,7-.7,10.4-1.3,1.2,0,3.6-1.4,4.1.1.1.5-.2,1-.7,1.2-4.6.9-9.2,1.8-13.9,1.9h0Z"/>
      <path class="cls-9" d="m137.56,206.55c-.9-1.7,1.8-2,2.8-2.5,3.5-1.2,7.1-1.5,10.7-1.7,1.3,0,1.3,1.9.1,1.9-4.1.1-8.3.7-12.1,2.3-.5.4-1.1.5-1.5,0h0Z"/>
      <path class="cls-9" d="m153.66,203.85c-.4-1,.7-1.5,1.5-1.4.8,0,2.2-.3,2.3.9,0,1.4-1.6.9-2.5,1-.5.2-1.1,0-1.3-.5Z"/>
      <path class="cls-9" d="m83.36,165.15c-1.2,0-1.3-1.9,0-1.9,3.3,0,6.5-.2,9.8-.2,1.2.2,4.1-.7,4.2.9-.1,1.7-3,.8-4.1,1-3.4,0-6.6.2-9.9.2Z"/>
      <path class="cls-9" d="m100.56,164.95c-.4-1.9,3-1.1,4.2-1.5,1.3,0,1.3,1.9.1,1.9-1.1.1-2.2.2-3.3.2-.5.1-.9-.2-1-.6h0Z"/>
      <path class="cls-9" d="m195.16,164.45c0-.5.4-1,.9-1,2.1-.1,4.3,0,6.4-.3,2.4-.3,4.8-.4,7.3-.5.5,0,1,.4,1,.9s-.4,1-.9,1c-4.6,0-9.1.8-13.7.7-.5.2-.9-.2-1-.8Z"/>
      <path class="cls-9" d="m214.16,164.55c-.8-.6-.2-2,.8-1.7,1.1.2,3.1-.6,3.3.9,0,1.4-1.7.9-2.6,1-.6,0-1.1.1-1.5-.2h0Z"/>
      <path class="cls-9" d="m44.26,152.45c-.3-6.2.3-12.4,1.2-18.5.2-2,.4-4,.9-5.9.1-.5.6-.8,1.2-.7.5.1.8.6.7,1.2-1,6-1.8,12.1-2.1,18.2-.1,1.9-.1,3.9,0,5.8,0,.5-.4,1-.9,1-.5-.1-1-.6-1-1.1Z"/>
      <path class="cls-9" d="m257.76,133.45c-.2-1.9-.4-3.8-.8-5.7-.1-.5.2-1,.8-1.1.5-.1,1,.3,1.1.8.4,2,.6,4,.8,5.9.1,1.3-1.8,1.4-1.9.1h0Z"/>
      <path class="cls-9" d="m85.36,280.05c-3.3-7.9-6.7-15.9-12.3-22.5-.8-1,.6-2.2,1.4-1.3,4.6,5.5,7.9,12,10.7,18.5.7,1.6,1.3,3.1,2,4.7.2.5-.1,1.1-.6,1.2-.5.2-1-.1-1.2-.6h0Z"/>
      <path class="cls-9" d="m91.36,286.55c-.6-2.5-1.3-4.9-2.1-7.3-.2-.5.1-1.1.6-1.2.5-.2,1,.1,1.2.6.7,1.8,1.2,3.8,1.7,5.7v-.1c.2.7.4,1.3.5,2,.3,1.2-1.6,1.6-1.9.3Z"/>
      <path class="cls-9" d="m214.66,284.05c-2.4-1.2,10.6-16.6,12.5-17.8.4-.3.9-.8,1.5-.7.9.2,1.1,1.5.2,1.8-4.2,3.7-7.7,8.3-10.8,12.9-.7,1.1-1.4,2.3-2.1,3.5-.2.5-.9.6-1.3.3h0Z"/>
      <path class="cls-9" d="m215.56,291.35c-.5-.2-.7-.8-.5-1.3.6-1.3,1.3-2.6,2-3.9.8-1,2.1-5.2,3.8-3.8.3.4.3,1,0,1.3-.5.7-.9,1.5-1.3,2.2-.9,1.7-1.8,3.3-2.6,5-.4.5-1,.7-1.4.5h0Z"/>
      <path class="cls-9" d="m208.96,193.85c-1-1.4,1.7-2.3,2.4-3.3,1.7-1.6,3.3-3.4,4.2-5.6.6-1,.4-3.5,2.1-3.2.5.2.8.7.6,1.2-.8,3.6-3,6.6-5.7,9-.9.8-2.5,3-3.6,1.9Z"/>
      <path class="cls-9" d="m207.96,197.75c-.5-1.1.9-1.5,1.6-1.9,1-.6,2.1-1.2,3-2,.4-.3,1-.3,1.4.1,1.3,1.6-3.6,3.5-4.7,4.2-.5.2-1.1,0-1.3-.4h0Z"/>
      <path class="cls-9" d="m91.66,202.55c-3.8-1-6.2-4.3-7.6-7.8-.3-1.3-3.2-5.8-1-6.2,1-.1,1.1.9,1.3,1.6,1.3,3.4,2.5,7.3,5.6,9.5.8.5,1.6.8,2.5,1.1,1.1.5.4,2.3-.8,1.8h0Z"/>
      <path class="cls-9" d="m90.06,205.45c-1.4-.4-7.5-3.7-5.1-5.4.5-.2,1.1.1,1.3.6.6.8,1.3,1.2,2,1.7.9.9,3.5.9,3,2.5-.1.6-.7.8-1.2.6h0Z"/>
      <path class="cls-9" d="m48.66,114.55c-1-.4,0-2.2.1-3,.3-.7.2-2.5,1.3-2.2.3.1.4.5.3.9-.4,1.3-.7,2.6-1,3.9-.1.3-.4.5-.7.4Z"/>
      <path class="cls-9" d="m58.06,66.45c-.5-.8.7-1.2,1.2-1.6s1.7-1,1.8.1c0,.4-.4.5-.7.6-.8.3-1.5,1.6-2.3.9h0Z"/>
      <path class="cls-9" d="m253.26,202.45c-.2-2.6-.2-5.4-.5-8-.2-.7.9-1,1.1-.3.4,2.7.2,5.5.5,8.3.1.8-1.1.8-1.1,0h0Z"/>
      <path class="cls-9" d="m261.26,173.85c-.1-.6-.4-1.9.5-1.9.8.1.4,1.1.6,1.7.2.7-1,.9-1.1.2h0Z"/>
      <path class="cls-9" d="m59.96,60.65c-.5-.7,1.2-1.6,1.7-1.1.4.3.1,1.1-.4,1-.4.3-1,.7-1.3.1Z"/>
      <path class="cls-9" d="m133.96,62.35c-1-1,1-1.4,1.7-1.6s1.1.9.4,1.1c-.8.1-1.5.8-2.1.5h0Z"/>
      <path class="cls-9" d="m75.86,238.85c-.5-.5-1.6-.8-1.6-1.6,0-.3.4-.5.7-.5.6.3,1,.8,1.5,1.1.7.4,0,1.4-.6,1h0Z"/>
      <path class="cls-9" d="m278.86,186.05c-.5-2.1-.9-4.2-2.2-5.9-.2-.3-.1-.6.1-.8.2-.2.6-.1.8.1,1.4,1.8,1.9,4.1,2.4,6.3.2.8-1,1-1.1.3h0Z"/>
      <path class="cls-9" d="m279.26,190.75c-.9-.1-.4-1.2-.5-1.7-.1-.4,0-1,.5-1,.6,0,.7.7.6,1.1,0,.6.2,1.6-.6,1.6h0Z"/>
      <path class="cls-9" d="m274.06,176.75c-.4-.4-.9-.8-1.4-1.1h.2c-.7-.1-.5-1.3.2-1.1.6.3,2.6,1.5,1.9,2.2-.3.3-.7.2-.9,0h0Z"/>
      <path class="cls-9" d="m56.06,243.25c-.9-1.2-7.7-9.2-5.4-9.9.3,0,.6.3.6.6.8,2.6,2.6,4.5,4.2,6.7.5.7.9,1.3,1.5,1.9.2.2.1.6-.1.8-.3.2-.6.1-.8-.1h0Z"/>
      <path class="cls-9" d="m48.66,230.55c-.2-.5-.2-1.4.6-1.3.5.1.5.7.6,1,0,.8-1.1,1-1.2.3Z"/>
      <path class="cls-9" d="m52.06,233.45c-.2-.7-1.2-2.2-.3-2.6,1-.2.9,1.5,1.4,2.1.3.6-.8,1.1-1.1.5h0Z"/>
      <path class="cls-9" d="m50.06,185.45c-1.3-1.7-2.8-3.1-4.6-4.2-1.2-.7-2.5-1.5-4-1.2-.6.3-1.2-.7-.5-1,3-1,6.8,2.2,8.8,4.3.4.5.8,1,1.2,1.4.5.6-.5,1.3-.9.7h0Z"/>
      <path class="cls-9" d="m38.46,182.05c-.8-.6.7-2.1,1.3-1.4.3.3.1.7-.2.9-.3.4-.7.8-1.1.5h0Z"/>
      <path class="cls-9" d="m83.36,332.95c-2.6-1.9-4.8-4.3-6.7-6.9-.4-.3-.7-.8-.2-1.2.6-.4,1,.5,1.4.8,1.1,1.4,2.1,3,3.5,4.1.9.8,1.8,1.5,2.8,2.3.2.2.3.6.1.8s-.7.2-.9.1h0Z"/>
      <path class="cls-9" d="m72.96,320.65c-.4-.7-.7-1.5-1-2.3-.1-.3,0-.6.3-.8.3-.1.6,0,.8.3.3.7.6,1.5,1,2.2.1.7-.8,1.2-1.1.6h0Z"/>
      <path class="cls-9" d="m77.26,319.85c-.7-.9-1.4-1.7-1.9-2.7-.1-.3,0-.6.3-.8.7-.2.9.7,1.2,1.2.3.7,1.9,1.7,1.1,2.4-.1.2-.5.2-.7-.1Z"/>
    </g>
  </g>
</svg>