<?xml version="1.0" encoding="UTF-8"?>
<svg id="Layer_1" data-name="Layer 1" xmlns="http://www.w3.org/2000/svg" viewBox="0 0 226.6 251.5">
  <defs>
    <style>
      .cls-1 {
        fill: #505562;
      }

      .cls-2 {
        fill: #382d29;
      }

      .cls-3 {
        fill: #505561;
      }

      .cls-4 {
        fill: #373c48;
      }

      .cls-5 {
        fill: #52443e;
      }

      .cls-6 {
        fill: #382a29;
      }

      .cls-7 {
        fill: #503035;
      }

      .cls-8 {
        fill: #786757;
      }

      .cls-9 {
        fill: #381f23;
      }

      .cls-10 {
        fill: #5c4e4e;
      }

      .cls-11 {
        fill: #443636;
      }

      .cls-12 {
        fill: #3d1a17;
      }

      .cls-13 {
        fill: #736661;
      }

      .cls-14 {
        fill: #f9e9d0;
      }
    </style>
  </defs>
  <path class="cls-11" d="m41.6,152.3c.6.2,1.1.5,1,1.2,0,.2-.2.5-.3.7-.2-.2-.3-.5-.5-.7s-.3-.5-.4-.7c-.1-.2-.2-.4-.4-.6h0c-.1-.2-.2-.3-.3-.5-.2-.3-.4-.7-.6-1h0c-.2-.3-.4-.7-.5-1-.2-.3-.3-.7-.5-1,.6.8,1.2,1.5,1.8,2.3q.1,0,.2.1c.4,0,.7.7.5,1.2h0Z"/>
  <path class="cls-11" d="m107.3,47.3h-1c-.7.1-1.4.2-2.2.3-.5.1-1.1.2-1.6.3-.8.2-1.6.3-2.5.5h0c-1,.1-1.9.3-2.9.4-2.1.3-4.2.7-6.2,1.1,4-1.1,8.1-1.9,12.3-2.6,1.3,0,2.7-.1,4.1,0h0Z"/>
  <path class="cls-11" d="m138.2,116.8v.1c0,.3-.1.6-.4,1,0,0-.1.1-.1.2-.1.2-.3.3-.4.5-.1.1-.2.2-.3.3q-.1.1-.2.2c-.2.2-.3.3-.4.5l-.1.1c-.1.1-.2.2-.4.4l-.5.5-.5.5-.5.5c-.1,0-.1.1-.1.1-.1.1-.2.2-.3.3-.4.4-.8.7-1.2,1.1-.2.2-.4.3-.6.5q-.1.1-.2.2c-.2.2-.4.3-.6.5q-.1.1-.2.2c-.1.1-.2.2-.3.3h0c-.8.7-1.6,1.5-2.3,2.2h0c-.4.7-.9,1.3-1.4,1.9-.4.4-.8.8-1.2,1.2h0c-1.3,1.3-2.6,2.4-4,3.6-1.9,1.9-3.7,3.8-5.6,5.6h0c-.4.4-.8.8-1.2,1.2-1.7,1.9-3.5,3.6-5.4,5.1-.1,0-.1.1-.2.1-.2.1-.3.2-.4.4-.1,0-.1.1-.1.2-.2.2-.3.4-.5.6-.4.4-.8.8-1.4.5-.1,0-.1-.1-.2-.1-.1-.1-.2-.1-.2-.2l-.1-.1h0c-.2.2-.4.5-.7.7-.4.4-.9.6-1.4.4-.6-.2-.8-1-.5-1.6-.1-1-.3-2-.4-3,0-.2-.1-.4-.1-.6v-.3c0-.4-.1-.7-.1-1.1s-.1-.7-.1-1.1-.1-.8-.1-1.1,0-.5-.1-.8v-.7c0-.5-.1-.9-.1-1.4v-1.6c-.2-1.7-.4-3.5-.5-5.2h0c-.2-2.5-.3-5-.4-7.5v-4.2c0-.3-.1-.6-.1-.9-.1-.6-.1-1.1-.1-1.7v-.2c0-.5-.1-1-.1-1.5v-.1c0-.5-.1-1.1-.1-1.6h0c0-.5-.1-1.1-.1-1.6-.1-2.5-.1-5.1,0-7.6h0v-4c0-.8-.1-1.7-.1-2.5v-1.9h0v-1.4h1.3v.3h0v9.5c-.1,2.5-.1,5.1-.2,7.7v2.2c0,1.4.1,2.9.2,4.3,0,.3,0,.7.1,1,0,.4,0,.8.1,1.2v.2c0,.5.1,1,.1,1.5v.1c0,.4.1.8.1,1.1v.2h0c.2,2.5.3,5,.4,7.4v1.8c0,.2,0,.4.1.7v1c0,.6,0,1.3.1,2.1v2.9h0v.5h0v.4c.1.9.1,1.9.2,2.7v.3c.1.8.2,1.5.4,2.1,0,.1.1.2.1.4,0,.1.1.3.1.4s.1.2.1.3c0,0,0,.1.1.1,0,.1.1.2.1.2h0l.1.1s.1,0,.1.1c0,0,.1,0,.1.1.1.1.2.1.2.1.3,0,.6,0,.8-.2.1,0,.1-.1.1-.1l.1-.1s.1-.1.1-.2.1-.1.1-.2h0c.1,0,.2-.1.4-.2,1.4-1,2.6-2.4,4-3.5.1-.1.2-.1.2-.2h0c.4-.3.9-.7,1.3-1,.2-.1.3-.3.5-.4.2-.1.3-.3.5-.4.3-.2.6-.5.9-.7s.6-.5.8-.8c1.1-1,2.2-2.1,3.3-3.1.5-.5,1.1-1.1,1.6-1.6h0c.4-.4.8-.8,1.2-1.2h.1l.5-.5c.4-.4.8-.8,1.2-1.2h0c.2-.2.4-.4.5-.5.3-.3.6-.6.9-.9.2-.1.3-.3.4-.4.2-.2.3-.3.4-.4.1-.1.2-.2.3-.2l.1-.1.3-.3h0c.8-.7,1.5-1.4,2.3-2.1.1-.1.2-.2.3-.3h0c.6-.6,1.2-1.1,1.8-1.7l.5-.5c.2-.2.5-.4.7-.7h0c.1-.1.3-.2.4-.4h.1c1-.9,2.1-1.8,3.2-2.5h.3q.1,0,.2-.1c.1,0,.1-.1.2-.1s.1-.1.2-.2h0s.1-.1.1-.2h0s0-.1.1-.2,0-.1,0-.2h0v-.3c0-.2-.1-.3-.2-.5h0c-.1-.1-.1-.2-.2-.2h0c-.1-.1-.2-.1-.2-.1h0c-.2-.3-.4-.5-.7-.7-.2-.2-.5-.4-.8-.6h0c-.3-.2-.6-.4-.9-.6s-.5-.3-.7-.5c-.4-.3-.9-.7-1.3-1-.5-.4-1-.8-1.5-1.3-.3-.3-.6-.5-.9-.8h0c-.1-.1-.3-.2-.4-.4-.4-.4-.9-.8-1.3-1.2h-.1c-.4-.4-.9-.8-1.3-1.2-.3-.3-.7-.6-1-.9-.5-.5-1-.9-1.6-1.4-.3-.2-.5-.5-.8-.7-.2-.2-.5-.4-.7-.6-.6-.5-1.1-1-1.7-1.5s-1.2-1.1-1.9-1.6h0c-.9-.8-1.8-1.6-2.6-2.4-1.1-1-2.3-2-3.4-3l-.1-.1c-.3-.3-.7-.6-1-.9h0l-.2-.2-.3-.3-.3-.3-.3-.3h0l-.6-.6h0l-.2-.2h0l-.1-.1h0c-.2-.2-.4-.4-.6-.5h3.2c.2.1.3.2.4.4.2.1.3.2.4.4h0c.1.1.2.2.4.3.2.1.3.2.5.4h0c.3.2.6.5.9.8h0c.4.3.7.6,1.1.9h0c.1.1.2.2.3.2l.1.1c.1,0,.1.1.2.2.1,0,.1.1.2.2l.1.1h0c.3.2.5.5.8.7l.5.5.6.6.3.3.2.2c.3.3.6.5.8.8h0l.4.4c.2.2.4.3.6.5.1,0,.1.1.1.1.1,0,.1.1.2.1l.3.3.4.4h0l.7.7c.4.4.8.7,1.1,1.1.2.2.4.4.6.5,1.1,1,2.1,2,3.2,3,.7.6,1.3,1.2,2,1.7.1.1.2.1.2.2.1.1.2.1.2.2.2.2.3.3.5.4s.3.3.5.4c.6.5,1.2,1,1.8,1.5.1.1.2.1.2.2.1.1.3.2.4.3s.3.2.4.3c0,0,.1,0,.1.1.1,0,.1.1.2.1s.1.1.2.1c.4.3.8.7,1.2,1q.1.1.2.2c.2.1.3.3.4.4.2.1.3.3.5.4h0c.3.3.6.6.9.9h0s.1,0,.1.1h.1q.1,0,.2.1h.2c.1.1.2.1.3.2h.1l.1.1h0s0,.1.1.1v.1h0s0,.1.1.1v.1h0c-.3-.1-.3,0-.2,0h0Z"/>
  <path class="cls-14" d="m39,69.7h0c0,.1-.1.3-.1.5-3.9,4.1-7.1,8.9-9.7,14-.3.7-1,1.8-1.3,2.8l-.2-.2c.4-.7.7-1.3.9-1.7.8-1.6,1.6-3.1,2.5-4.5,1.2-3,5.8-8.1,6.5-9.2.3-.4.6-.7,1-1.1.1-.1.2-.3.3-.4q0-.1.1-.2h0Z"/>
  <path class="cls-14" d="m62.5,62.4h0c-.3.2-.6.5-.8.7h0c-1,.7-2,1.5-2.9,2.3-2.3,1.4-4.4,3.4-6.3,5.5h0c-.6.6-1.2,1.2-1.8,1.8-.1,0-.1.1-.1.2l-.1.1c-.8.8-1.6,1.6-2.4,2.4-.1.1-.2.2-.3.3s-.2.2-.2.3c-.4.5-.8,1.1-1.2,1.7,0,.1-.1.2-.1.2,0,.1-.1.1-.1.2h0c-.6.9-1.2,1.8-1.8,2.7-.1.2-.3.5-.4.7-.1.2-.3.5-.4.7-.6.9-1.1,1.9-1.7,2.9-.1.2-.3.5-.4.7-.1.2-.3.5-.4.7-.3.5-.5,1-.8,1.5-.3.6-.6,1.1-.8,1.7-.8,1.7-1.6,3.4-2.4,5h0c-.5.8-.9,1.6-1.4,2.4,0,.1-.1.1-.1.2v-.1c.5-1.3,1.1-2.6,1.5-3.9,1.3-2.7,2.4-5.4,4-7.9,1.2-2.1,2.2-4.5,3.8-6.3,4.5-6.6,10.8-12.1,17.6-16.7q0,.1,0,0h0Z"/>
  <path class="cls-14" d="m84.2,41.8c-.1.1-.1.2-.1.3-7.5,1.9-14.8,4.9-21.7,8.8.1,0,.2-.1.2-.2,2.8-1.9,5.9-3.6,9.1-4.6,4-1.9,8.2-3.2,12.5-4.3h0Z"/>
  <path class="cls-14" d="m108.3,38.2h2.9c-.2.1-.4.2-.6.2-.1,0-.1.1-.2.1-3.9,0-7.8.1-11.6.5,3.1-.4,6.3-.7,9.5-.8h0Z"/>
  <path class="cls-14" d="m167.1,65.3c-2.2-1.6-4.4-3.2-6.7-4.5-1.9-1.3-3.9-2.6-6-3.7-2.8-1.2-5.6-2.5-8.4-3.7.3.1.7.2,1,.3h0c.4.2.8.1,1-.2.2.1.3.2.5.2,1.9.9,4,1.4,5.8,2.6.9.6,1.6,1.7,2.7,1.9.2,0,.3,0,.5-.1,3.3,2.2,6.5,4.6,9.6,7.2h0Z"/>
  <path class="cls-14" d="m178.2,61.6c-2-1.6-4.1-3-6.3-4.3-.5-.3-.9-.7-1.4-1-1-.7-2-1.4-3-2h0c-2.6-1.8-5.3-3.4-8-5-2.8-1.5-5.7-2.8-8.6-3.9-1.4-.7-2.8-1.3-4.2-1.6-1.6-.6-3.1-1.2-4.7-1.3-1.3-.5-2.6-.9-3.8-1.2-4.8-1.2-9.7-2.2-14.6-2.7.8-.2,1.9.2,2.6.2,3.2.5,6.3.5,9.5,1.4,7.9,2.2,15.6,4.9,23.1,8.3,3.6,1.9,7.5,3.2,10.8,5.8,2.9,2.1,5.8,4.7,8.6,7.3h0Z"/>
  <path class="cls-14" d="m203.6,95.7c-.1-.1-.1-.2-.2-.3-.1-.1-.2-.2-.3-.2-1-2-2.1-4-3.2-5.9-1.2-2.5-2.5-5-4.2-7.3.1-.2.1-.6-.1-1,3.2,4.6,6.2,9.3,8,14.7h0Z"/>
  <path class="cls-14" d="m207.7,109.1c1.7,7,2.2,14.3,1.5,21.5-.7,4.5-2.4,8.8-3.8,13.1-.8,2.4-1.8,4.8-3,7-.2.4-.4,1-.8,1.3-.1.2-.2.5-.3.7-1.1,2.9-2.8,5.7-4.2,8.2-2.3,4.2-5,8.1-8.1,11.7-.8.9-1.6,1.7-2.3,2.6-.5.6-1.1,1.1-1.6,1.7-1.8,1.6-3.5,3.3-5.4,4.9-.7.5-1.4,1.1-2.1,1.6l-9,6c-1.5.8-3,1.6-4.5,2.4-.8.4-1.5.8-2.3,1.2-.1,0-.2.1-.2.1-.7.3-1.4.7-2.1,1h-.1c-1.5.7-3.1,1.4-4.7,2-.4.2-.9,0-1.2-.4-4.9,2.1-9.9,3.8-15,5.2-3.3.7-6.5,1.4-9.8,1.9-2.9.1-5.9,0-8.8.2-1.3.1-2.6.2-3.9.2s-2.6-.1-3.9-.2h-.1c-.9-.1-1.8-.2-2.8-.2h-1c-6.4-.5-12.7-1.3-18.8-2.8-.9-.2-1.8-.5-2.7-.8,0-.8-.3-1.4-1.1-1.5-.4.1-.7.2-.9.5-.2-.1-.4-.1-.7,0h0c-1-.5-2.1-.9-3.2-1.2-1.3-.6-2.6-1.2-3.9-1.9-.5-.3-1-.5-1.6-.8-4.6-1.5-9-3.5-13-6.2-2.6-1.5-5.3-3.1-7.6-5.2-2.2-1.7-4.2-3.6-6.5-5.2-4.8-3.6-8.8-8.3-12.6-13h0v-.5c.1-.8-.5-1.3-1.2-1.2,0-.7-.2-1.3-1-1.4h0c-3.9-6-7.1-12.5-9.2-19.5-2.1-5.3-3.2-10.7-4-16.3-.4-2.5-.3-5.2-.1-7.8h0c-.5-.3-.6-.9-.7-1.4-.4-3.5.1-7,1.1-10.2,1.2-5.1,3-10.2,5.2-15,.1-.6.3-1.2.6-1.9.4,1,1.1,2,1.3,2.7,1.6,3.3,3.1,6.9,5.8,9.5h0c0,.2.1.5.2.7,0-.1.1-.1.1-.2l.1.1h0c-.3.9-.5,1.8-.8,2.8-.1.4-.2.8-.3,1.2h0c-.4,1.4-.7,2.9-.9,4.3-.1.6-.2,1.3-.3,1.9h0v.1h0v.1h0c-.1.3-.1.6-.1.9l.1.1c.2.2.3.4.3.6.2,3.8.3,7.7.7,11.5,0,.3.1.6.1.9,0,.2.1.4.1.5.1.5.2,1.1.3,1.6.1.3.1.5.1.8h0v.1h0v.1c0,.2.1.3.1.5v.3c.7,3,1.6,5.9,2.5,8.9.4,1.2,1,2.3,1.5,3.4h0c.1.1.1.2.2.4,0,.1.1.1.1.2h0s0,.1.1.1v.2h0v.2h0c0,.1,0,.2-.1.2h0v.2c0,.1-.1.1-.1.2.4.8.7,1.6,1.1,2.5h0c.2.5.5,1,.7,1.5h0s0,.1.1.1c.3.7.7,1.3,1.1,2,.3.5.6,1,.9,1.5h0c.1.2.2.4.4.6.3.5.6,1,.9,1.4.1.1.2.2.2.3.2.2.3.5.5.7.1.2.2.4.4.5.1.1.2.2.3.4,1.2,1.7,2.4,3.4,3.7,5,.4.5.9,1.1,1.3,1.6h.1c.2,0,.5.2.6.3.2.2.3.4.3.7h0v.3l.1.1c.1,0,.1.1.1.2.2.2.4.4.5.5.7.2.8.9.6,1.5.8.8,1.6,1.6,2.4,2.4,4.3,4,9.2,7.2,14.4,9.9,1.7.9,3.3,1.8,5,2.6.1,0,.2.1.3.1,2.2,1.1,4.4,2.2,6.6,3.2h0c.8.3,1.5.7,2.3,1,.7.2,1.4.4,2.1.6h0c4.9,1.4,9.9,2.8,14.8,4,4,.9,8.1,1.7,12.2,2.1,3,.3,5.9.3,8.9,0,4.1-.1,8.2-.5,12.3-1.2h0c.1-.5.5-.9,1-.9,2.4-.1,4.4-.6,6.6-1.3,5.6-1.7,10.9-4.3,16.2-6.6.5-.2,1.1-.4,1.6-.7.3-.2.5-.3.8-.5,1.5-.9,3-1.9,4.5-2.8,3-1.8,5.9-3.9,8.5-6.3h0l.1-.1c.1-.1.2-.2.4-.3,1.6-1.4,3.1-2.9,4.6-4.5,1-1,2-2,3-3.1,1.5-1.6,2.9-3.3,4.2-5.2,3.5-4.8,6.2-10.1,8.3-15.7v-.5h0c.2-.6.4-1.2.5-1.8h0c.2-.6.3-1.2.5-1.8.3-1.2.6-2.4.8-3.7,1-5.3,1.6-10.8,1.6-16.3v-3.4c.1-.1.2-.1.2-.2.2-.3.4-.8.4-1.2,0-.5-.2-.9-.7-1.2,0,0-.1,0-.1-.1,0-.2,0-.3-.1-.5,0-.3-.1-.6-.1-.9h0v-.2h-.1v-.3c.2-.3.4-.7.3-1.2-.1-.7-.2-1.3-.4-2h.1c.6,0,.9-.6,1.2-1,1.4-1.7,2.6-3.4,3.9-5.1.1-.1.2-.3.3-.4.2-.3.5-.6.7-.9s.4-.6.7-.9l.1-.1s0-.1.1-.1c.1-.2.3-.3.4-.5.1-.2.2-.3.3-.5.3-.4.6-.8.8-1.1h0c.3.8.6,1.7.9,2.5.9,3.1,2.2,6.2,3,9.5h0Z"/>
  <path class="cls-9" d="m35.6,163.4h0c-.8,3.8-1,7.6-1.4,11.4-.4,3.7.1,7.5.3,11.2v.6c-.1-.7-.3-1.4-.4-2v-.3c0-.1-.1-.3-.1-.4v-.1c-.1-.4-.1-.9-.1-1.4-.7-5.7,0-11.5.4-17.2-.1-.7.2-1.6.1-2.4.6-.1,1,.2,1.2.6h0Z"/>
  <path class="cls-9" d="m85.4,200.4c.2,6,.3,12.1.2,18.1,0,.4-.2.7-.4.8-.1,0-.1.1-.2.1v-.1c-.6-5.3-.6-10.6-.7-16,.2-1-.2-4,.5-5.1.6.5.7,1.5.6,2.2h0Z"/>
  <path class="cls-14" d="m136.1,117.5v.6q0,.1-.1.2h0s-.1.1-.1.2h0c0,.1-.1.1-.2.2s-.1.1-.2.1-.1.1-.2.1-.2.1-.3,0c-1.1.8-2.2,1.6-3.3,2.5-.1.1-.3.2-.4.4h0c-.2.2-.5.4-.7.7l-.5.5h0c-.6.6-1.2,1.1-1.8,1.7h0c-.1.1-.2.2-.3.3-.8.7-1.5,1.4-2.3,2.1l-.3.3-.1.1c-.1.1-.2.2-.3.2-.2.1-.3.3-.4.4-.2.1-.3.3-.4.4-.3.3-.6.6-.9.9-.2.2-.4.4-.5.5h0c-.4.4-.8.8-1.2,1.2l-.5.5s-.1,0-.1.1c-.4.4-.8.8-1.2,1.2h0c-.5.5-1.1,1.1-1.6,1.6-1.1,1.1-2.2,2.1-3.3,3.1-.3.2-.6.5-.8.8-.3.2-.6.5-.8.7-.2.1-.3.3-.5.4-.2.1-.3.3-.5.4-.4.4-.9.7-1.4,1.1-.1.1-.2.1-.2.2-1.4,1.1-2.6,2.4-4,3.5-.1.1-.2.2-.4.2,0,.1-.1.1-.1.2,0,0-.1.1-.1.2l-.1.1-.1.1c-.2.2-.5.2-.8.2-.1,0-.2-.1-.3-.2,0,0-.1,0-.1-.1l-.1-.1q-.1-.1-.1-.2l-.1-.1c0-.1-.1-.2-.1-.3-.1-.1-.1-.2-.1-.4,0-.1-.1-.2-.1-.4-.2-.6-.3-1.3-.4-2.1v-.3c-.1-.9-.2-1.8-.2-2.7v-.4h0v-.5h0v-2.9c0-.8,0-1.5-.1-2.1v-1c0-.3,0-.5-.1-.7v-1.8c-.1-2.5-.2-5-.4-7.4h0v-.2h0c0-.4-.1-.8-.1-1.1v-.1c0-.5-.1-1-.1-1.5v-.2c0-.4-.1-.8-.1-1.2,0-.3,0-.7-.1-1-.1-1.4-.1-2.8-.2-4.3v-2.2c.1-2.6.1-5.1.2-7.7v-9.5h0v-.3h5.7l.6.6h0l.1.1.2.2h0l.6.6h0l.3.3.3.3.3.3.2.2h0c.3.3.6.6,1,.9l.1.1c1.2,1,2.3,2,3.4,3,.9.8,1.8,1.6,2.7,2.4.6.5,1.2,1.1,1.9,1.6.6.5,1.1,1,1.7,1.5h0c.2.2.5.4.7.6.3.2.5.5.8.7.5.5,1,.9,1.6,1.4.3.3.7.6,1,.9.4.4.9.8,1.3,1.2h.1c.4.4.9.8,1.3,1.2.1.1.3.2.4.4h0c.3.3.6.5.9.8.5.4,1,.8,1.5,1.3.4.4.9.7,1.3,1,.2.1.4.3.7.4.3.2.6.3.9.6h0c.3.2.6.4.8.6.3.2.5.5.7.7h0c.1,0,.2.1.2.1h0c.1.1.2.1.2.2,0,.2.1.4.1.6h0Z"/>
  <path class="cls-8" d="m41.6,152.3c.6.2,1.1.5,1,1.2,0,.2-.2.5-.3.7-.2.2-.5.3-.8.3-2-.4-3.9-1-5.8-1.6-1-.3-2.8-.8-2.1-2.2.3-.5.9-.7,1.3-.4.1,0,.2.1.2.1.4.2.8.3,1.2.5,1.4.5,2.8.8,4.2,1.2.1,0,.3.1.4.1h0c.3,0,.5,0,.7.1h0Z"/>
  <path class="cls-8" d="m41,151c.5.2.7.8.6,1.3v.1c-.1.1-.1.3-.2.3-.3.3-.8.4-1.2.2-1.3-.5-2.5-1-3.8-1.5-.6-.2-1.2-.5-1.3-1.2v-.4c.2-.5.8-1,1.3-.8.1,0,.2.1.4.1,1.1.4,2.2.8,3.3,1.2.2.1.5.2.8.3q0,.3.1.4h0Z"/>
  <path class="cls-8" d="m40.9,151c.3.4.2.8.1,1.2h0c-.2.4-.7.7-1.2.5-1.1-.5-2.1-1-3.2-1.5-.1-.1-.2-.2-.3-.4-.2-.5-.1-1.2.5-1.5h.1c-.6-.8-.1-2.1.8-2.3h.5c.6.2,1,.9.7,1.5h0l.1.1c.6.8,1.2,1.5,1.9,2.4-.1-.1,0,0,0,0h0Z"/>
  <path class="cls-8" d="m32.5,125.7c.3.3.5.8.3,1.2,0,.1-.1.2-.1.2-.3.4-.8.6-1.2.4-1.7-1-3.2-2.1-4.7-3.4-.6-.7-1.8-1.3-1.8-2.2,0-.2.1-.4.2-.6.2-.4.7-.5,1.1-.4.1,0,.2.1.3.2.1.1.2.2.3.3,1.1,1,2.1,2.1,3.4,2.9.5.3,1,.7,1.4,1,.1.1.3.2.4.3.1-.1.3,0,.4.1h0Z"/>
  <path class="cls-8" d="m28.4,107.2c.2.5,0,1.2-.2,1.8-.1.2-.2.4-.2.6,0,.1-.1.2-.1.2-.5,1.7-.6,3.4-.8,5.1-.2,2-.5,4.3-.3,6.3v.1c0,.2,0,.4-.1.5-.3.7-1.5.8-1.9,0-.1-.1-.1-.2-.1-.3-.2-2,.3-15.7,2.9-14.9.5.1.7.3.8.6h0Z"/>
  <path class="cls-8" d="m31,112.3c-1.5-1-3-2.2-4-3.7-.5-1.1.9-2.1,1.7-1.2,1.1,1.3,2.2,2.2,3.6,3.2,1,.8-.2,2.5-1.3,1.7h0Z"/>
  <path class="cls-8" d="m30.5,125.2c-1.2-.9-2.3-2.1-3.4-3.1-.6-.5-1.3-1.5-.6-2.2-.6-3.3.5-6.6.7-9.8h0v.1c-.1-1.9,2.5-1.5,2.1.3.3,0,.6.2.7.4.9-.5,1.7.6,1.5,1.5-.1,2.3-.1,4.7.1,7-.2,1.5,2,6.9-1.1,5.8h0Z"/>
  <path class="cls-8" d="m203.7,96.2c0,.3-.1.6-.2.9h0c-.2.4-.5.8-.8,1.1-.1.2-.2.3-.3.5s-.3.3-.4.5c0,0-.1,0-.1.1l-.1.1c-.2.3-.4.6-.7.9-.2.3-.5.6-.7.9-.1.1-.2.2-.3.4-1.3,1.7-2.5,3.4-3.9,5.1-.3.4-.6,1-1.2,1h-.1c-.1-.3-.2-.6-.3-.9-3.5-17-14.4-31.5-27.6-41.4-3.1-2.6-6.3-5-9.7-7.2-.1.1-.3.1-.5.1-1.1-.2-1.8-1.2-2.7-1.9-1.8-1.2-3.8-1.7-5.8-2.6-.2-.1-.3-.2-.5-.2-.3.2-.6.3-1,.2h0c-.3-.1-.7-.2-1-.3-1.4-.4-2.9-.9-4.3-1.3-1.2-.4-2.3-.8-3.5-1.1h0c-2.6-.8-5.2-1.6-7.8-2.1-.3-.1-.7-.1-1-.2-.7-.1-1.4-.2-2.1-.2-.2,0-.3,0-.5-.1h-.1c-1.2-.1-2.5-.3-3.7-.4-3.8-.4-7.5-.7-11.3-1-.2.2-.4.2-.7.2-1.2,0-2.5,0-3.7.2h-1c-.7.1-1.4.2-2.2.3-.5.1-1.1.2-1.6.3-.8.2-1.6.3-2.5.5h0c-1,.1-1.9.3-2.9.4-2.1.3-4.2.7-6.2,1.1-4.9,1-9.8,2.4-14.5,4.2-4.3,2.1-8.4,4.6-12.3,7.3h-.2c-.2.1-.4.3-.7.4-.2.1-.4.3-.7.4h0c-6.8,4.5-13.1,10-17.9,16.8-1.6,1.8-2.6,4.2-3.8,6.3-1.7,2.5-2.8,5.2-4,7.9-.5,1.3-1.1,2.6-1.5,3.9v.1c-.2.3-.4.7-.6,1.1-.1.2-.3.3-.5.3.1.1.2.2.3.3v.1c-.7.3-1.1,1.2-.9,2h0c-2.6-2.6-4.2-6.1-5.8-9.5-.2-.7-.9-1.7-1.3-2.7-.4-.9-.6-1.8.1-2.4.3-.3.8-.2,1.1,0,.1,0,.2.1.2.2.4-1,1.1-2.1,1.3-2.8,2.6-5.1,5.8-9.9,9.7-14,0-.2,0-.3.1-.5.3-.8,1.1-1.5,1.5-2,2.8-3.1,5.8-6,9.1-8.5,4.1-3,8.3-5.8,12.8-8.2,6.9-3.8,14.1-6.8,21.7-8.8,0-.1.1-.2.1-.3s.1-.2.2-.3c4.7-1.3,9.5-2.1,14.3-2.5,3.9-.4,7.8-.5,11.6-.5.1,0,.1-.1.2-.1.2-.1.4-.2.6-.2,1.9-.6,4-.1,6-.1,2.1,0,4.3.2,6.4.4,4.9.6,9.8,1.6,14.6,2.7,1.3.3,2.6.8,3.8,1.2,1.6,0,3.2.7,4.7,1.3,1.4.3,2.8.9,4.2,1.6,2.9,1.2,5.8,2.4,8.6,3.9,2.7,1.5,5.5,3.1,8,5h0c1,.7,2,1.3,3,2,.5.3.9.7,1.4,1,2.2,1.3,4.3,2.7,6.3,4.3.8.6,1.6,1.3,2.4,2,.4.4,1.6,1.5,3.1,3,.8.8,1.6,1.7,2.5,2.6.7.7,1.4,1.5,2.1,2.2,1.4,1.5,2.8,3.1,3.9,4.5,1.6,2,2.9,3.8,3.3,5v.1c.1.4.2.8.1,1,1.7,2.2,3,4.8,4.2,7.3.6,1.2,1.3,2.3,1.9,3.4.4.8.9,1.6,1.3,2.5.1,0,.2.1.3.2s.1.2.2.3c.5.3.5.4.5.7h0Z"/>
  <path class="cls-14" d="m203.8,118.3c-.8-12.8-5.9-24.8-11.3-36-2.5-5.1-6.1-9.7-9.2-14.4-.4-1.1,1.1-2,1.8-1,1.4,1.9,2.7,3.9,4,5.8l-.1-.1c6.7,9.3,10.8,20.3,14.4,31.3,1.1,3.6,1.6,7.2,2.2,11-.1,1.3,1,4.1-.7,4.5-.5-.1-1.1-.5-1.1-1.1h0Z"/>
  <path class="cls-14" d="m204.1,106.5c-3.1-13.1-9.8-24.8-17.8-35.2-1.4-.6-.4-2.7.9-2,2.3,2.2,3.9,5.2,5.8,7.8,2.7,4.2,5.4,8.3,7.4,12.9,2.5,5,4.2,10.3,5.6,15.8.5,1.3-1.5,2.1-1.9.7h0Z"/>
  <path class="cls-14" d="m204.3,110.1c-.5-.1-.9-.6-.8-1.2-.1-1.2-.4-2.3-.7-3.4-1.9-6.5-4.2-13.1-7.2-19.2-.4-.5-.3-1.1.1-1.5,1.1-.9,1.9.6,2.3,1.6.9,1.7,1.6,3.7,2.3,5.5,1.6,3.9,3,7.8,4.1,11.8.2,1.4,2.5,6.6-.1,6.4h0Z"/>
  <path class="cls-14" d="m202.1,110.4c-1.8-7.4-3.2-15-5.6-22.3-.3-1.2,1.4-1.8,2-.7,2.4,6.9,3.6,14.1,5.3,21.2.1.4.2.8.3,1.3.4,1.4-1.6,1.9-2,.5h0Z"/>
  <path class="cls-14" d="m105.9,146.2c.2,1.4-1.9,1.7-2.1.3v-.1c-.1-1-.3-2-.4-3,0-.2-.1-.4-.1-.6v-.3c0-.4-.1-.7-.1-1.1s-.1-.7-.1-1.1-.1-.8-.1-1.1,0-.5-.1-.8v-.7c0-.5-.1-.9-.1-1.4v-1.6c-.2-1.7-.4-3.5-.5-5.2h0c-.2-2.5-.3-5-.4-7.5v-4.2c0-.3-.1-.6-.1-.9-.1-.6-.1-1.1-.1-1.7v-.2c0-.5-.1-1-.1-1.5v-.1c-.1-1.1-.1-2.2-.2-3.3-.1-2.5-.1-5.1,0-7.6h0v-4.2c0-.8-.1-1.7-.1-2.5v-1.9h0v-1.4h2.1v.4h0v.8h0v.7c0,1.3.1,2.6.1,3.8,0,.6,0,1.2.1,1.8v2.2h0c0,2.6,0,5.2.1,7.7h0c.1,2,.2,4.1.3,6.1,0,.4.1.8.1,1.3v1.3c0,.6,0,1.2.1,1.8v1.3h0c.1,2.5.2,4.9.4,7.4.1,1.7.3,3.3.5,5,.1,1.4.1,2.7.2,4.1.1,2.1.3,4.1.7,6.2,0,.3.1.5.1.8h0c-.2.4-.2.6-.2,1h0Z"/>
  <path class="cls-14" d="m104.4,147.9c-.9-.3-.8-1.7,0-2,2.3-2.6,4.7-5.3,7.5-7.3,1.8-2.1,3.9-4.1,5.9-5.9,2.2-2.5,4.9-4.7,7.5-6.8,1.8-1.6,3.6-3.2,5.3-4.8.4-.3,1.1-.1,1.4.3.3.4.3,1.1-.1,1.4-1.5,1.6-3.3,3-4.9,4.4-4.5,3.8-8.9,7.7-12.9,12.1-1.5,1.8-3.7,2.8-5.1,4.6-1.1,1.2-2.1,2.4-3.2,3.5-.5.5-1,.7-1.4.5h0Z"/>
  <path class="cls-14" d="m106.8,147.3c-2.3-1.3,2.7-4.8,3.6-6,1.2-1.2,2.3-2.4,3.4-3.7.3-.3.6-.5,1-.4,3.2-2.8,6.1-5.9,9.4-8.5,1.3-1.3,2.2-3,3.6-4.3,2.7-2.3,5.1-4.6,7.5-7-1.2-.3-3.5,1.1-3.9-.7-.1-1.8,2.2-1.3,3.4-1.5,1.6-.2,4.7.9,2.9,2.8-2.8,3.2-6.2,5.8-9.2,8.8-1.8,2.7-4.2,4.6-6.6,6.7-2.3,2.3-4.5,4.6-6.9,6.8-1.7,1.9-3.5,3.6-5.4,5.1-1.1.6-1.6,2.3-2.8,1.9h0Z"/>
  <path class="cls-14" d="m137.3,116.1c.7.8-.1,2.1-1,1.8-.1,0-.1-.1-.2-.1h0c-1.1-.6-2.1-1.2-3.1-2-.2-.1-.3-.2-.5-.4-.8-.7-1.7-1.4-2.5-2.2-.7-.7-1.4-1.4-2.1-2.1-1-1-2-2.1-3.1-3-1.1-.8-2.3-1.6-3.4-2.5-1.8-1.2-3.5-2.5-5.2-3.7-.1-.1-.2-.1-.3-.2h0c-1.3-.9-2.6-1.8-3.8-2.7-1.8-1.2-3.5-2.5-5.2-3.8-.1-.1-.2-.2-.3-.2l-.9-.9h0c-.1-.1-.2-.2-.4-.3-.3-.2-.6-.5-.9-.8h-.1l-.4-.4h3.1c.2.2.5.4.8.7.1,0,.1.1.2.1.3.2.6.5.9.7.4.3.9.6,1.3.9.1.1.2.1.3.2h0c.4.3.8.5,1.2.8.2.1.3.2.5.4-.2-.1-.3-.3-.5-.4-.3-.3-.6-.5-.9-.8-.4-.3-.8-.7-1.1-1-.3-.2-.5-.5-.8-.7l-.2-.2c-.1,0-.1-.1-.1-.1h0c-.2-.2-.5-.4-.7-.6h3.3c.2.1.3.2.4.4.2.1.3.2.4.4h0c.1.1.2.2.4.3.2.1.3.2.5.4h0c.3.2.6.5.9.8h0c.4.3.7.6,1.1.9h0c.1.1.2.2.3.2l.1.1c.1,0,.1.1.2.2s.2.1.2.2q.1.1,0,0c-.1-.1,0,0,0,0,.3.2.5.5.8.7l.5.5.6.6.3.3.2.2c.3.3.6.5.8.8l.4.4c.2.2.4.3.6.5s.4.3.6.5l.4.4h0l.7.7c.4.4.8.7,1.1,1.1.2.2.4.4.6.5,1.7,1.6,3.4,3.3,5.2,4.7.2.1.3.3.5.4.2.2.3.3.5.4s.3.3.5.4c.6.5,1.2,1,1.8,1.5.1.1.2.1.2.2.3.2.6.5.8.7h0c.1.1.2.2.4.3.4.3.8.7,1.2,1q.1.1.2.2c.2.1.3.3.4.4.2.1.3.3.5.4h0c.3.3.6.6.9.9h0c.5.5.7.7.9.9h0Z"/>
  <path class="cls-14" d="m121.4,104.8c.2.3.2.6.2.9,0,.2-.1.4-.3.5-.4.4-1.1.3-1.5-.1-1.1-1.4-2.3-2.8-3.5-4.1l-.2-.2h0c-.8-.9-1.7-1.8-2.5-2.6-1.5-1.4-3-2.8-4.5-4.2-.1-.1-.3-.2-.4-.3-.3-.2-.6-.5-.8-.7-.3-.2-.6-.5-.8-.7l-.1-.1c-.2-.2-.5-.4-.7-.6h3.4c.3.3.7.6,1,.9l.3.3c.3.2.5.5.8.7.5.4,1,.8,1.4,1.3h0c1.3,1.2,2.5,2.4,3.8,3.7.7.7,1.3,1.4,1.9,2.2.1.1.1.2.2.2.4.8,1.8,1.9,2.3,2.9h0Z"/>
  <path class="cls-6" d="m85.6,218.6v.3c0,.3-.1.5-.2.7q-.1.1-.2.2c0-.1-.1-.1-.1-.2v-.1c-.2-1.7-.3-3.3-.4-5,0-.7-.1-1.3-.1-2s-.1-1.3-.1-2v-7.1h0v-3.2c0-.3.1-.6.1-.9v-.5s0-.1.1-.2q0-.1.1-.2h0c0-.1.1-.1.1-.2.1-.2.2-.3.3-.4,0,.2,0,.4-.1.7v.1c-.4,5.9-.3,11.8.1,17.7.1.8.2,1.6.4,2.3h0Z"/>
  <path class="cls-7" d="m85.1,219.4v.1c-.4.2-1.1.2-1.4-.3q0-.1-.1-.2c-.8-4.7-.9-9.6-.7-14.3.2-2.3-.3-4.7.4-6.9.2.1.5.2.7.3h0c.3-.1.5-.1.7,0,.1,0,.1.1.1.1-.7,1.2-.3,4.1-.5,5.1.1,5.4.1,10.8.8,16.1h0Z"/>
  <path class="cls-10" d="m101.9,121.7h0c-.1.1-.2.1-.3.1-1.1-.1-2.3-.1-3.4-.2-.4,0-.8,0-1.2-.1-4.7-.2-9.4-.4-14.1-.6-3.5,0-6.9-.2-10.4.1-4,.5-2.5-4.4-1.7-7,.2-.7.5-1.4.7-2.1.3-1.1,1.4-1.3,2.1-.8.2-.1.3-.1.5-.1,2.9-.5,5.8-.4,8.7-.6,5.1-.3,10.2-.6,15.4-.6.8,0,1.6,0,2.4.1h.8c.1,2.2.2,4.5.4,6.7,0,.3.1.6.1.9v4.2h0Z"/>
  <path class="cls-10" d="m102.9,136.6c0,.5.1,1.1.1,1.6-2.7-.2-5.4-.4-8.2-.6-6.8-.5-13.5-.9-20.3-.9-1.4,0-2.8-.1-4.2,0-1.2.6-2.4-.6-2-2,.4-1.9-.3-4.3.9-5.9.7-.6,1.6-.3,2,.5h1c2.5-.2,4.8-.2,7.3-.3,5.1.1,10.2.1,15.2.1h4.1c1.2,0,2.4,0,3.6.1.1.7.1,1.5.2,2.2,0,.3.1.6.1.9.1.7.2,1.5.3,2.2v.6c-.1.5-.1,1-.1,1.5h0Z"/>
  <path class="cls-10" d="m153.6,132c2.1.5,1.1,3.3.6,4.8-.2,1-.6,2.1-1.6,2.4-8.2,0-16.5.3-24.8.3-1.8,0-3.6,0-5.4-.1-2.1-.1-4.2-.2-6.2-.3.9-.8,1.7-1.7,2.6-2.5.1-.1.2-.2.4-.4.9-.9,1.8-1.8,2.7-2.7.3-.2.6-.5.8-.7.5-.4,1-.8,1.4-1.2.6-.5,1.2-1,1.7-1.6h.2c2.1.1,4.2.3,6.3.6,4.3.5,8.5,1.2,12.8,1.3,2.5.1,5.1,0,7.7.2.2-.1.5-.1.8-.1h0Z"/>
  <path class="cls-10" d="m154.8,114.9c.5,1.1.4,2.2.2,3.3-.2,1.9-.7,4-1.8,5.6-1.6,1.5-4,1-6,1.3-4-.3-7.9-.1-11.9-.2-.8,0-1.7,0-2.5-.1-.7,0-1.4-.1-2.1-.1.7-.6,1.3-1.2,1.9-1.8.4-.4.8-.7,1.2-1.1,1.3-1.2,2.5-2.4,3.7-3.7.8-.8.7-1.5.2-2-.2-.3-.6-.5-1-.6-.7-.7-1.4-1.3-2.1-2-.8-.7-1.6-1.4-2.4-2.1,2.5.2,5,.4,7.5.7.3,0,.7,0,1,.1,1.8.2,3.6.4,5.5.7,1,0,1.9.1,2.9.2,1.9.3,4.4-.3,5.7,1.8h0Z"/>
  <path class="cls-10" d="m44.1,80.9c.6-.9,1.2-1.8,1.8-2.7-.7,1.1-1.4,2.2-2,3.3q-.4.7,0,0c-.5.8-1,1.6-1.3,2.4-1.7,3-3.2,6.2-4.8,9.3-.3.6-.6,1.2-1,1.8h0c.8-1.7,1.6-3.4,2.4-5.1.3-.6.6-1.1.8-1.7.2-.5.5-1,.8-1.5.1-.2.3-.5.4-.7s.3-.5.4-.7c.5-1,1.1-1.9,1.7-2.9.1-.2.3-.5.4-.7.1-.3.3-.5.4-.8h0Z"/>
  <path class="cls-10" d="m101.3,100.8v1.5h-.5c-.8,0-1.6,0-2.3.1-.8,0-1.5,0-2.3.1h-1.5c-1.9.1-3.7.2-5.6.2h-13.6c-.2,0-.5.1-.7.1h-1.5c-.2,0-.3-.1-.5-.1h-.1q-.1,0-.1-.1h-.3c-.1,0-.1-.1-.2-.1-.1-.2-.2-.4-.3-.6-.1-.1-.1-.3-.1-.4v-.9h0v-2.7c0-.1,0-.3-.1-.4,0-.3-.1-.6-.1-1v-2.2c.1-.2.1-.5.2-.7,0,0,0-.1.1-.1.1-.1.1-.2.2-.2h0l.1-.1.1-.1c.1-.1.2-.1.3-.1h.5c.2,0,.3,0,.6.1.9-.2,1.9-.3,2.9-.4.3,0,.6-.1.9-.1.4,0,.7-.1,1.1-.1.5,0,1-.1,1.5-.1.3,0,.6,0,.9-.1h0c.5,0,1-.1,1.5-.1h9.3c1.1,0,2.1,0,3.2.1h1.1c.8,0,1.5,0,2.2.1h.2c.8,0,1.6,0,2.4.1h.2v1.4h0v1.9c0,.8.1,1.7.1,2.5.1.8.1,1.7.2,2.5h0Z"/>
  <path class="cls-10" d="m113.9,47.5c-4.6,0-9.2.3-13.8.9.8-.2,1.6-.3,2.5-.5.5-.1,1.1-.2,1.6-.3.7-.1,1.4-.2,2.2-.3h1c2.1,0,4.3,0,6.5.2h0Z"/>
  <path class="cls-10" d="m129.2,48.6c.8.2,1.6.5,2.2.7-2.8-.6-5.6-1-8.5-1.4,0,0,0-.1.1-.1h0c1.2.1,2.5.2,3.7.4h.1c.2,0,.3,0,.5.1.6.1,1.3.2,1.9.3h0Z"/>
  <path class="cls-10" d="m153.2,93.2c.1.8.1,1.6,0,2.4,0,.2-.1.4-.1.6v.2c-.2.8-.6,1.4-1.2,1.7h0c-.1.1-.2.1-.4.2-.4.2-.9.3-1.4.4h-.3l-.9.1h0c-1.6.2-3.2.4-4.8.6h0c-2.4.3-4.8.5-7.3.8h0c-1,.1-2,.2-3,.3-.7.1-1.3.1-2,.2h-1.8c-.5,0-1.1.1-1.6.1-.8.1-1.7.1-2.5.2h-1.3c-.9.1-1.8.1-2.7.2h-.8c-.2-.2-.5-.4-.7-.7-.1,0-.1-.1-.2-.1l-.1-.1h0c-.2-.2-.4-.4-.6-.5l-.4-.4h0c-.3-.3-.6-.5-.8-.8l-.2-.2h0l-.3-.3-.6-.6-.5-.5c-.3-.2-.5-.5-.8-.7h-.1c-.1,0-.1-.1-.2-.2l-.2-.2-.1-.1c-.1-.1-.2-.2-.3-.2h0c-.3-.3-.7-.6-1.1-.9h0c-.3-.3-.6-.5-.9-.8h0c-.2-.1-.3-.3-.5-.4-.1-.1-.2-.2-.4-.3-.1-.1-.3-.2-.4-.4-.1-.1-.3-.2-.4-.4h1.6c.6,0,1.2,0,1.8-.1h1.3c.3,0,.6,0,.8-.1h0c.5,0,1-.1,1.6-.1h.2c.4-.2.8-.4,1.2-.6h0c.4-.1.8-.2,1.2-.2,1.7-.2,3.5,0,5.2-.3.6-.1,1.2-.2,1.8-.2.5-.1,1-.1,1.6-.2,2.3-.3,4.6-.5,6.8-.5,3.9-.2,7.8-.5,11.7-.5,1.4.2,3.2,0,4.3,1.1.4.8.7,1.6.8,2.5h0Z"/>
  <path class="cls-11" d="m131.6,100.7h-1c-1.6.1-3.1.2-4.7.4h-.1c-.3,0-.6,0-.9.1h-.4c-.9.1-1.8.1-2.7.2h-.8c-3.3.2-6.7.4-10,.5-3.3-.2-6.6-.5-9.9-.7h-.4c-1.4-.1-2.7-.2-4.1-.3-8.3-.6-16.7-1.1-25-1.2,0-.4.1-.9,0-1.3v-.3c-.1-.4-.1-.9-.1-1.4,8.3.2,16.6.5,24.9,1.1h1.4c.5,0,1.1.1,1.6.1.3,0,.7,0,1,.1h.8c1.1.1,2.2.2,3.3.3,4.9.4,9.8.7,14.6,1.1h.7c1.1.1,2.2.2,3.3.3h1.5c.3,0,.5,0,.8.1,1.6.1,3.2.3,4.9.4.2,0,.4,0,.6.1.3.4.5.4.7.4h0Z"/>
  <path class="cls-11" d="m195.6,111.3c1.2.4,1.2,2.1.4,2.8,0-.5-.2-.9-.7-1.2,0,0-.1,0-.1-.1h0l-.1-.1c-.1-.5-.1-.9,0-1.3h0v-.2c.2.1.4.1.5.1h0Z"/>
  <path class="cls-14" d="m196.5,110.3c1.2-1.4,3.2.6,2.1,2.1-.2,1.4.4,3.7-1.4,3.8-.6,0-1.2-.4-1.4-.9.2-.3.4-.8.4-1.2,0-.5-.2-.9-.7-1.2,0,0-.1,0-.1-.1h0l-.1-.1c-.1-.5-.1-.9,0-1.3h0v-.2c0-.5.4-.9,1.2-.9h0Z"/>
  <path class="cls-14" d="m121.5,101.5s-.1,0,0,0h-.3c-3.3.2-6.7.4-10,.5-3.3.2-6.6.3-9.9.4h0c-.1-.4-.1-.7-.2-1.1,0-.2-.1-.4-.1-.5-.1-.8-.3-1.7-.3-2.6v-.1c0-.3,0-.5.1-.8-.1-.4-.2-.7-.1-1.1,0-.3.1-.6.2-.9.1-.1.1-.2.2-.3l.2-.2c.3-.2.8-.2,1.3.1.7-.8,2.1-.5,2.5.5.4-.3.9-.5,1.3-.2.1,0,.2.1.2.1.3-.1.7-.1,1,0,.4-.4,1.1-.5,1.6-.1.6.4,1.1.8,1.7,1.2.2-.2.4-.3.6-.3.3-.3.8-.5,1.2-.4h.1c.1,0,.2.1.2.1.1.1.2.1.3.2.1,0,.1-.1.2-.1.4-.3.9-.3,1.3-.1h0s.1,0,.1.1h0c.1,0,.1.1.2.2.2.2.4.3.6.5q.1.1,0,0l.8.8c.9.7,1.7,1.5,2.6,2.2,1.1.6,1.7,1.2,2.4,1.9h0Z"/>
  <path class="cls-11" d="m100.9,93.9h0v2.2c0,.7-.1,1.4-.2,2v.1c-.1.3-.1.5-.2.8-.3.7-.8,1.1-1.7.9-.4-.2-.7-.5-.8-.9-.1-.3-.1-.7-.1-1,0-.2.1-.4.2-.6v-.1c0-.4.1-.9.1-1.3v-3.5h.2c.8,0,1.6,0,2.4.1v1.2c.1-.1.1,0,.1.1h0Z"/>
  <path class="cls-11" d="m124.6,101.3c-.9.1-1.8.1-2.7.2h-.5c-.7-.6-1.4-1.2-2-1.8l-.3-.3c-1.1-.9-2.1-1.8-3.2-2.7h0s-.1,0-.1-.1h0c-.1,0-.1-.1-.2-.2l-.2-.2-.1-.1-.3-.3-.1-.1c-.4-.3-.7-.6-1.1-.9-.3-.3-.6-.5-.9-.8h0c-.2-.1-.3-.3-.5-.4h0c-.1-.1-.2-.2-.3-.2-.3-.3-.7-.5-1-.8h1.7c.6,0,1.2,0,1.8-.1h1c.2.2.4.3.6.5h0l1,.9c.1.1.3.2.4.3h0l.3.3.1.1.5.5c.6.5,1.1,1,1.7,1.5.1.1.2.2.3.2,1.1,1,2.2,2.1,3.4,3l.2.2h0s.1,0,.1.1c0,0,.1.1.1.2.1.2.2.5.3.7,0,0,0,.2,0,.3h0Z"/>
  <path class="cls-11" d="m99.3,96.2c.5.6.5,1.3.1,1.9-.2.5-.7.8-1.2.9h-.2c-.4.1-.8.1-1.1.1-4,.3-8-.7-12-.8-3.8-.3-7.6-.5-11.4-.4-.5,0-1.1.1-1.6.2-.1-.4-.1-.9-.1-1.4-.1-1.2,0-2.5.6-3.1.1-.2.3-.3.5-.3.3-.1.6-.1,1,0,2.4-.4,4.9-.7,7.3-.8.5,0,1-.1,1.5-.1.7,0,1.5-.1,2.2-.1-.1.2-.2.3-.3.4,1,.1,2.1.1,3.1.2.5,0,1,.1,1.5.1,1,.1,1.9.2,2.9.4h0c.6.1,1.1.2,1.7.4.2.1.4.2.6.4.1.1.2.3.3.5.3.1.7.1,1,.2h0c.2,0,.4.1.6.1.8.1,1.6.3,2.3.5q.1,0,.2.1c.2.1.5.2.7.3-.3.1-.2.2-.2.3h0Z"/>
  <path class="cls-11" d="m98.4,93.4v.8h0v1.7c0,.5-.1.9-.3,1.3-.2.3-.5.6-.9.7h-.3c-.1,0-.2,0-.3-.1-.3-.1-.6-.4-.8-.7l-.1-.1-.1-.1h0c-.7,0-1.4-.6-1.4-1.5-.2-.1-.4-.2-.6-.3h0c-.3,0-.6-.1-.8-.3h-.1c-.2.2-.5.3-.8.3s-.6-.1-.9-.3c-.5,2-2.8,2-2.9-.2-.2.1-.4.1-.6,0-.4-.1-.7-.3-.9-.7,0,0-.1-.1-.1-.2-.2,0-.4-.2-.6-.3-.2.1-.5.1-.7,0,0,.1-.1.2-.1.3-.2.9-.6,1.9-1.6,1.8-.7,0-1.2-.7-1.3-1.4v-1.2c0-.2,0-.5.1-.7h9.3c1.1,0,2.1,0,3.2.1h1.1c.8,0,1.5,0,2.2.1h.2v.4c.1.3.1.4.1.6h0Z"/>
  <path class="cls-11" d="m153.2,93.2c.1.8.1,1.6,0,2.4,0,.2-.1.4-.1.6v.2c-.2.8-.6,1.4-1.2,1.7h0c-.1.1-.2.1-.4.2-.4.2-.9.3-1.4.4h-.3l-.9.1h0c-1.6.2-3.2.4-4.8.6h0c-2.4.3-4.8.5-7.3.8h0c-1,.1-2,.2-3,.3-.7.1-1.3.1-2,.2h-1.8c-.5,0-1.1.1-1.6.1-.8.1-1.7.1-2.5.2h-.1q-.1-.1-.1-.2c-.1-.2-.2-.4-.2-.7h-.6c-.2,0-.4,0-.6-.1-.2,0-.4-.1-.7-.2-.7-.3-1.3-.7-1.9-1.1-.3-.2-.6-.5-.8-.7-.3-.2-.6-.4-.8-.6-.2-.2-.4-.3-.6-.5-.4-.3-.8-.7-1.2-1.1-.3-.3-.6-.6-1-.9l-.3-.3-.4-.4-.3-.3h0c-.2-.2-.5-.5-.8-.7-.3-.3-.6-.5-.9-.8h1.3c.3,0,.6,0,.8-.1h0c.5,0,1-.1,1.6-.1h.2c.4-.2.8-.4,1.2-.6h0c.4-.1.8-.2,1.2-.2,1.7-.2,3.5,0,5.2-.3.6-.1,1.2-.2,1.8-.2.5-.1,1-.1,1.6-.2,2.3-.3,4.6-.5,6.8-.5,3.9-.2,7.8-.5,11.7-.5,1.4.2,3.2,0,4.3,1.1.5.7.8,1.5.9,2.4h0Z"/>
  <path class="cls-10" d="m101.2,94c.1.2.2.5.2.8s-.1.6-.2.9c-.1.1-.2.3-.3.4-.1.1-.2.1-.2.2-.1.1-.2.1-.3.1-.2,0-.4,0-.7-.1-.1,0-.2-.1-.3-.1-.3-.1-.6-.2-1-.2h-.2c-1-.2-1.9-.4-2.9-.6-.8-.2-1.6-.3-2.4-.4h-.1c-2-.3-4-.6-6-.8-.5,0-1-.1-1.5-.2-.9-.1-1.9-.2-2.8-.2s-1.8-.1-2.8-.1c-2.2-.1-4.5-.1-6.7,0h-.7l.1-.1.1-.1c.1-.1.2-.1.3-.1h.5c.2,0,.3,0,.6.1.9-.2,1.9-.3,2.9-.4.3,0,.6-.1.9-.1.4,0,.7-.1,1.1-.1.5,0,1-.1,1.5-.1.3,0,.6,0,.9-.1h0c.5,0,1-.1,1.5-.1h9.3c1.1,0,2.1,0,3.2.1h1.1c.3.1.7.1,1,.2h0c.3.1.6.1.8.2.1,0,.3.1.4.1h.2c.7.2,1.4.3,2.1.5.1,0,.2.1.3.2h0s.1,0,.1.1l.2.2h0c-.4-.4-.3-.3-.2-.2h0Z"/>
  <path class="cls-10" d="m100.9,101.3c.1.3.1.6,0,.9,0,.1-.1.2-.1.3-.8,0-1.6,0-2.3.1,0,0,0-.1-.1-.1-.2-.3-.3-.6-.4-.9-.6.4-1.1.6-1.8.7-1.8.4-3.8,0-5.6-.2-.4.2-.9.4-1.3.6-.1.1-.1.2-.2.3-4.1.2-8.3.3-12.4.2-.7,0-1.4.2-2.2.2h-1.2c-.4-.1-.8-.2-1.1-.5-.6-.8-.5-2-.4-3,0-.4.1-.9,0-1.3v-.3c-.1-.4-.1-.9-.1-1.4-.1-1.2,0-2.5.6-3.1.1-.2.3-.3.5-.3.3-.1.6-.1,1,0,2.4-.4,4.9-.7,7.3-.8.5.1,1,.2,1.4.6h0c1.7-.1,3.3-.1,5-.2h.7c.3,0,.5,0,.7.2.1.1.3.2.4.3.1.2.2.4.3.6,1.5.1,2.9.2,4.4.3h.2c.4,0,.8.3,1,.6l.1.1s0,.1.1.1c.2,0,.3,0,.5-.1.6-.2,1.3-.5,1.9-.2.1-.2.3-.4.4-.5l.1-.1h.1c.5-.2,1.1-.1,1.4.3l.1.1c.2.5.4,1.2.4,1.8.1.6.1,1.2.1,1.8v.8c0,.5,0,.9.1,1.4.1,0,.3.3.4.7h0Z"/>
  <path class="cls-10" d="m101.5,92.9c0,.2,0,.5-.1.7,0,.1-.1.2-.1.2l-.1.1-.1.1-.2.2c-.3.2-.6.3-1.1.2h0c-.5-.1-1-.2-1.4-.3h-.5c-.9-.2-1.8-.3-2.7-.4h-.2c-1.1-.1-2.2-.2-3.2-.3h0c-.8,0-1.7-.1-2.5-.1-2.3-.1-4.6,0-6.9.1-.9,0-1.8.1-2.8.2-2.1.1-4.1.3-6.1.5-.2-.1-.4-.3-.6-.5-.1-.1-.1-.2-.2-.3h.5c.2,0,.3,0,.6.1.9-.2,1.9-.3,2.9-.4.3,0,.6-.1.9-.1.4,0,.7-.1,1.1-.1.5,0,1-.1,1.5-.1.3,0,.6,0,.9-.1h0c.5,0,1-.1,1.5-.1h9.3c1.1,0,2.1,0,3.2.1h1.1c.8,0,1.5,0,2.2.1h.2c.8,0,1.6,0,2.4.1h.6c-.2-.2-.2-.1-.1.1-.1-.1-.1,0,0,0h0Z"/>
  <path class="cls-10" d="m150.4,97.8c.5.1,1.1.2,1.6.3-.1.1-.2.1-.4.2-.4.2-.9.3-1.4.4h-.3l-.9.1h0c-1.6.2-3.2.4-4.8.6h0c-5.1-1.1-10.2-2.1-15.3-3-2.9-.5-5.7-1-8.6-1.5h0c-.6-.1-1.2-.2-1.8-.3-.2,0-.3,0-.5-.1h-.2c-.4-.1-.8-.1-1.2-.2-1.2-.1-2.4-.2-3.6-.3h-.7c-.3,0-.6-.1-.9-.1h-.1c-.2-.1-.3-.2-.4-.3-.2-.2-.3-.6-.4-.9h2.3c.6,0,1.2,0,1.8-.1h1.3c.3,0,.6,0,.8-.1h0c.5,0,1-.1,1.6-.1h.2c.4-.2.8-.4,1.2-.6h0c2.6.3,5.3.8,7.9,1.3,2.1.4,4.1.8,6.2,1.2,2.6.5,5.3,1.1,7.9,1.7,2.9.6,5.8,1.2,8.7,1.8h0Z"/>
  <path class="cls-10" d="m126,101.2h-1.3c-.9.1-1.8.1-2.7.2h0c-.7-.6-1.3-1.2-2-1.8-1.2-1-2.4-2-3.6-3-.3-.2-.5-.4-.8-.6-.1,0-.1-.1-.2-.2h0c-.1,0-.1-.1-.2-.1h0c-.6-.4-1.1-.7-1.7-1-.3-.2-.5-.3-.8-.4-.1-.1-.1-.2-.2-.3h0c0-.1-.1-.2-.1-.3v-.2h0c0-.3.1-.5.2-.8h.6c.6,0,1.2,0,1.8-.1h.8c.2.2.5.3.7.5h0c.4.3.9.7,1.3,1h0c.1.1.2.2.4.3l.2.2c.1.1.3.2.4.2h.1c.2.2.4.3.6.5.6.5,1.2,1,1.9,1.6,1.3,1.1,2.5,2.3,3.8,3.4l.2.2h0c.3.2.5.5.8.7-.4-.2-.3-.1-.2,0h0Z"/>
  <path class="cls-10" d="m148.9,98.9c-1.6.2-3.2.4-4.8.6-2.4.3-4.9.5-7.3.8-1.8.2-3.6.3-5.3.5h-1c-1.6.1-3.1.2-4.7.4h-.1c-.3,0-.6,0-.9.1-.1-.1-.3-.2-.4-.3-.5-.3-.9-.7-1.4-1-.6-.4-1.1-.8-1.7-1.2-.3-.2-.6-.5-.9-.7-.2-.1-.3-.3-.4-.5s-.1-.4-.2-.6c-.2,0-.3.1-.5.1h0c-1,1.1-2.5,0-2.3-1.4,0-.2.1-.4.2-.6v-.1l.1-.1.3-.3s.1,0,.1-.1c.1,0,.1-.1.2-.1s.1-.1.2-.1h.1c.9-.5,2-.6,3.2-.5,1.7.1,3.5.5,4.8.6,2.1.6,4.2,1,6.3,1.5,5.5,1.1,11,1.9,16.4,3h0Z"/>
  <path class="cls-11" d="m153.2,93.2c.1.8.1,1.6,0,2.4,0,.2-.1.4-.1.6v.1c-1-.1-2-.2-3.1-.3-5.4-.6-10.9-1.2-16.3-1.8-4.3-.5-8.6-.9-12.9-1.4-1.1-.1-2.2-.2-3.3-.3-.6,0-1.1-.1-1.7-.1.3,0,.6,0,.8-.1h0c.5,0,1-.1,1.6-.1h.2c.4-.2.8-.4,1.2-.6h0c.4-.1.8-.2,1.2-.2,1.7-.2,3.5,0,5.2-.3.6-.1,1.2-.2,1.8-.2.5-.1,1-.1,1.6-.2,6.3.7,12.5,1.6,18.8,2.1,1.7.1,3.4.2,5,.4h0Z"/>
  <path class="cls-10" d="m126.4,98.7c0,.2,0,.4-.1.7-.1.4-.4.7-.8.8-.2.1-.4.1-.6.1h0c-.1,0-.3,0-.4-.1l-.2-.1c-.1,0-.1-.1-.2-.1h0c-.8-.4-1.6-.8-2.4-1.1-.1,0-.2-.1-.3-.1h0c-1.7-.8-3.5-1.4-5.2-2-.1,0-.2,0-.2-.1h-.2c-.7-.2-1.4-.4-2.1-.6-.2-.1-.4-.1-.6-.2h-.2c-.7-.2-1.3-.3-2-.5-.2,0-.3-.1-.5-.1h-.1c-.6-.1-1.1-.2-1.7-.4-1-.2-2-.4-3-.5h0c-.8-.1-1.7-.2-2.5-.3h-.1c-.2,0-.5-.1-.7-.1h0c-.3,0-.7-.1-1-.1h-.6c-.8-.1-1.6-.1-2.4-.2h-.2c-.9,0-1.8-.1-2.7-.1h-2.2c-.9.2-1.4-.3-1.6-1v-.1c1.1,0,2.1,0,3.2.1h1.1c.8,0,1.5,0,2.2.1h.2c.8,0,1.6,0,2.4.1h12c.9.2,1.8.5,2.7.7.6.2,1.1.3,1.6.5.1,0,.2.1.3.1h0c.3.1.6.2.8.3q.1,0,.2.1c.6.2,1.2.4,1.8.7h0c.8.3,1.5.6,2.3.9h0c1,.4,2,.9,2.9,1.4.8.1,1.1.6,1.1,1.2h0Z"/>
  <path class="cls-10" d="m136.9,100.2c-1,.1-2,.2-3,.3-.7.1-1.3.1-2,.2h-.7c-.1,0-.1-.1-.2-.1-.7-.3-1.5-.7-2.2-1-.8-.3-1.6-.7-2.4-1-1.8-.7-3.6-1.4-5.4-2-.2-.1-.5-.2-.7-.2-.6-.2-1.3-.4-1.9-.6-.4-.1-.8-.2-1.1-.3-1.1-.3-2.1-.5-3.2-.7h0c-.2,0-.4-.1-.6-.1-.5-.1-1.1-.2-1.6-.3-.6-.1-1.2-.2-1.9-.3h-.2c-.2,0-.3,0-.5-.1-.4,0-.8-.1-1.2-.1-.8-.1-1.7-.1-2.5-.2h-4.5c-.8,0-1.7.1-2.5.2h-.5c-.4,0-.8.1-1.2.2-.7.3-1.2.1-1.5-.3-.1-.1-.1-.2-.2-.3-.1-.1-.1-.3-.2-.4-.1-.3-.1-.6,0-.8v-.1h1.1c.8,0,1.5,0,2.2.1h.2c.8,0,1.6,0,2.4.1h12c.6,0,1.2,0,1.8-.1h1.3c.3,0,.6,0,.8-.1h0c.3.1.5.1.8.2,1.3.3,2.6.7,3.9,1.1s2.5.8,3.8,1.3h0c1.2.5,2.4.9,3.6,1.4,2.7,1.4,5.4,2.6,8,4h0Z"/>
  <path class="cls-10" d="m130.4,100.6c.1.1.2.1.2.2-1.6.1-3.1.2-4.7.4h-.1c-.3,0-.6,0-.9.1h-.4c-.9.1-1.8.1-2.7.2h-.8c-3.3.2-6.7.4-10,.5-3.3.2-6.6.3-9.9.4h-.5c-.8,0-1.6,0-2.3.1-.8,0-1.5,0-2.3.1,0-.1,0-.2.1-.4.1-.4.3-.8.7-1,0-.1-.1-.1-.1-.2-.2-.4-.2-.9,0-1.3v-.5c.1-.4.3-.8.6-1.1-.1,0-.2-.1-.3-.1h0c-.3-.1-.5-.3-.7-.5-.2,0-.5-.1-.7-.3l-.1-.1c-.2-.2-.4-.6-.4-.9,0-.2,0-.5.1-.7q0-.1.1-.2v-.2c-.1-.3-.1-.7-.1-.9,0-.1,0-.2.1-.2.1-.2.2-.3.3-.5.5-.5,1.4-.6,2.3-.6h3.6c3.3.2,6.6.5,9.9,1,.3,0,.6.1.9.1h.7c.7.1,1.3.2,2,.3.7.1,1.3.2,2,.3.2,0,.3,0,.5.1.3.1.7.1,1,.2.2,0,.4.1.6.1,1.2.2,2.3.5,3.5.7,1,.2,2,.5,2.9.7,1.2.3,3.5.4,2.9,2.5.1.2.3.3.3.6,0,.1.1.2.1.4v.2c.3.1.7.1,1.1.2.1.1.3.2.5.3h0Z"/>
  <path class="cls-10" d="m142.9,113.3c.7.6.6,1.9,0,2.5-.1.1-.3.2-.5.2h-.1c-1.5.2-2.9.2-4.4.2-2.3-.1-4.6-.4-6.9-.4,0,.8-.7,1.5-1.4,1.5-3-.1-6-.2-9-.3-3-.1-6-.1-8.9,0-1.3,0-2.5.1-3.8.2-2,.1-4,.3-6,.4-.8,0-1.6.1-2.3.2-.7,0-1.4.1-2.2.1-.6-.1-1.1-.6-1.2-1.3v-.3h0c-.9.2-1.8-.8-1.6-1.9-.9.2-2.2.1-2.3-1.2-.1-.8.4-1.6,1.2-1.7,2.1-.2,4.1-.5,6.2-.6-.6,0-1.2-.4-1.5-.8.8,0,1.6,0,2.4.1h.8c10.3.4,20.7.6,31,1.5,2.5.2,5,.4,7.5.7.3,0,.7,0,1,.1v.4c.5.1,1,.2,1.6.3.1-.2.2-.1.4.1h0Z"/>
  <path class="cls-10" d="m132.3,130.7c-.2.3-.4.5-.8.7,0,.2,0,.3-.1.5-.3,1-1.4,1.4-2.2,1.5.7,1.7-1.1,2.6-2.3,2.9h-.1v.2c0,.1-.1.2-.1.3-.5,1.4-2.3,1.5-3.5,1.7-.1.5-.4.8-.7,1-2.1-.1-4.2-.2-6.2-.3-4.4-.2-8.8-.6-13.2-.9-2.7-.2-5.4-.4-8.2-.6,0-.5.2-1,.5-1.3-.9.2-2.1.3-2.5-.7,0-.1-.1-.2-.1-.3-.1-.3-.1-.6,0-.9.2-.7,1-1.1,1.7-1.2-.1-.1-.1-.2-.2-.3-.1-.2-.1-.3-.2-.5-.1-.5.1-1,.4-1.3v-.2c-.1-.6.2-1.1.6-1.4-.1,0-.2-.1-.3-.1h4.1c1.2,0,2.4,0,3.6.1,7.8.1,15.7,0,23.5.7h.2c2-.1,4,.1,6.1.4h0Z"/>
  <path class="cls-10" d="m144.3,117.2c.9.7.5,2.5-.5,2.7-.3,1.9-2.5,1.2-3.7,1.5h0c-.4.3-.8.4-1.3.5h-.4c0,.4-.2.8-.5,1.1-.2.2-.3.3-.6.3-.4.1-.7.2-1.1.2-.1.6-.4,1-.9,1.3-.8,0-1.7,0-2.5-.1-.7,0-1.4-.1-2.1-.1-5.3-.4-10.6-.8-15.9-1.7-1.9-.3-3.9-.5-5.9-.7-1.2-.1-2.4-.2-3.7-.3-1.1-.1-2.3-.2-3.4-.2h-.3c-1.1-.1-2.3-.1-3.4-.2-.4,0-.8,0-1.2-.1,0-.6.3-1.3.8-1.5.1,0,.2,0,.2-.1h.1c1.2-.4,2.4-.7,3.7-.9.4-.1.8-.2,1.2-.2,1.5-.3,3-.5,4.5-.8,0-.3.2-.6.3-.8.2-.3.5-.4.8-.5,1-.2,2-.4,3-.5.5-.1.9-.2,1.4-.2,3.9-.6,7.9-1,11.9-1.3.9-2.2,7.5-1.2,9.8-1.1h.2c1-.1,2.2.5,2.2,1.8,1,.1,3.1-.2,4.7.1.3.1.6.1.9.3.3.1.6.3.7.5.1.2.2.4.3.6.4.1.5.3.7.4h0Z"/>
  <path class="cls-10" d="m111.7,116.3c0,.2,0,.5-.1.7-.1.3-.3.6-.6.8-.1.6-.6,1.1-1.2,1.2h0c.1.2.1.3.2.4.2.7.1,1.2-.2,1.8-.2.4-.5.8-.9,1.2-1.2-.1-2.4-.2-3.7-.3.3-.3.5-.6.8-.9-1.4.2-2.8.4-4.2.6h-.3c-1.1-.1-2.3-.1-3.4-.2-.1-.2-.2-.4-.3-.6-.1-.4,0-.7.1-1h0c.2-.3.4-.6.7-.7,0-.2,0-.5.1-.7.1-.3.3-.5.6-.8.6-.5,1.4-.8,2.3-1,1.5-.4,3.1-.7,3.9-1,1.7-.1,5.4-2.1,6.1.4.1,0,.1.1.1.1h0Z"/>
  <path class="cls-11" d="m127.9,90.9c.2.3.3.7.3,1.2v.2c-.1.3-.2.6-.5.8-.3.2-.6.4-1,.3-1.6-.2-3.2-.4-4.9-.6-1.1-.2-2.3-.3-3.4-.4h.2c.4-.2.8-.4,1.2-.6h0c.4-.1.8-.2,1.2-.2,1.7-.2,3.5,0,5.2-.3.5-.2,1.1-.3,1.7-.4h0Z"/>
  <path class="cls-11" d="m153.2,96.2s0,.1,0,0v.2c-.2.8-.6,1.4-1.2,1.7h0c-.1.1-.2.1-.4.2-.4.2-.9.3-1.4.4-2.7-.6-5.3-1.2-8-1.5-3.2-.5-6.5-1-9.7-1.4h0c-2.4-.3-4.9-.6-7.3-.8h0c-2.2-.2-4.5-.5-6.7-.7h-1c-.4,0-.8-.1-1.3-.1h0c-.4,0-.7-.1-1.1-.1-.9-.1-1.8-.2-2.7-.2h-.4c-.4,0-.8-.1-1.2-.1h-.4c-.6,0-1.2-.1-1.8-.2h0c-.3,0-.5,0-.8-.1-.4,0-.7-.1-1.1-.1-.8-.1-1.6-.1-2.5-.2-.4,0-.8-.1-1.3-.1h-.8c-.3,0-.6,0-.9-.1h-.6c-.8,0-1.6-.1-2.4-.1h-.2c-.4,0-.8,0-1.3-.1h0c-.7,0-1.4-.1-2.1-.1-1.1,0-2.1-.1-3.1-.1-1.7,0-3.4-.1-5.1-.1h5.1c1.1,0,2.1,0,3.2.1h1.1c.8,0,1.5,0,2.2.1h.2c.8,0,1.6,0,2.4.1h12c.6,0,1.2,0,1.8-.1h1.3c.3,0,.6,0,.8-.1h0c.5,0,1-.1,1.6-.1h.2c.4-.2.8-.4,1.2-.6h0c.4-.1.8-.2,1.2-.2,2.4.2,4.8.5,7.2.8,1.2.1,2.3.2,3.5.4,6.3.6,12.5,1.8,18.7,3,1.2-.1,2.2.1,3.1.3h0Z"/>
  <path class="cls-11" d="m151.6,95.2c.5.1,1.1.2,1.6.4,0,.2-.1.4-.1.6v.2c-.2.8-.6,1.4-1.2,1.7h0c-.1.1-.2.1-.4.2-.4-.1-.9-.2-1.2-.5-.1,0-.1-.1-.1-.2-.4-.5-.3-1.1-.1-1.6.1-.1.1-.3.2-.4.4-.3.8-.6,1.3-.4h0Z"/>
  <path class="cls-14" d="m72.1,102.8c-.9-1.2-.2-2.9-.3-4.3-.2-1.8-.7-5.9,1.9-5.2,14.8-2.4,30,.3,44.8-1,2.2-1.4,5.1-.7,7.6-1.2,3.4-.5,6.8-1,10.2-1,3.9-.2,7.8-.5,11.7-.5,1.4.2,3.2,0,4.3,1.1,1.1,1.5,1.2,3.8.9,5.7-.3,1.8-1.9,2.2-3.3,2.4-18.3,2.3-36.8,3.4-55.2,3.8-6,.3-12,.6-18,.5-1.5-.1-3.3.8-4.6-.3h0Z"/>
  <path class="cls-14" d="m147.2,125.1c-4.8-.4-9.6.1-14.4-.3-6-.4-12-.8-18-1.8-10.6-1.4-21.4-1.7-32-2.1-3.5,0-6.9-.2-10.4.1-4,.5-2.5-4.4-1.7-7,.2-.7.5-1.4.7-2.1.4-1.6,2.5-1.4,2.7.3-.2,1.9-1.3,3.7-1.5,5.7,4.8-.3,9.8-.2,14.6.1,6.7.1,13.3.4,19.9,1,11.1,1.2,22.2,3,33.3,2.8,3.7-.3,7.3.6,11-.4.7-1.6,1.1-3.3,1.1-5-3-.3-6.1-.7-9.2-.2-1.8.2-2.1-2.8-.3-3,2.1-.4,4.2-.3,6.2,0,1.9.2,4.4-.4,5.6,1.6.5,1.1.4,2.2.2,3.3-.2,1.9-.7,4-1.8,5.6-1.6,1.5-4,1.1-6,1.4h0Z"/>
  <path class="cls-14" d="m145,123.1c-16.4.2-33.1-1.6-49.5-3.5-3-.1-6,.1-9,.2-1.2.1-2.3.1-3.5.1-.8,0-1.7-.1-1.9-1.1-2.7-.1-5.3-.3-7.9.1-2.2-.2-1.2-3.4-.3-4.7-1.2-1.2-.2-3,1.2-3,2.9-.4,5.8-.4,8.7-.6,5.9-.3,11.8-.8,17.8-.5,13.1.5,26.3.7,39.4,2.2,3.2.2,6.4.8,9.5,1.2.9.1,1.8.3,2.6.4.7,0,1.4.3,1.5,1.1.8.6.7,1.8.1,2.6,2.1,1.2.8,3.3-1.1,3.3-1.8,2.6-5,2.9-7.6,2.2h0Z"/>
  <path class="cls-14" d="m127.8,139.5c-17.8,0-35.5-2.9-53.3-2.8-1.4,0-2.8-.1-4.2,0-1.2.6-2.4-.6-2-2,.4-1.9-.3-4.3.9-5.9.8-.8,2-.1,2.2,1-.1,1.2-.3,2.5-.2,3.7,14.2-.2,28.3,1.3,42.4,2.3,12.7.9,25.3.2,38,.2.2-.7.5-1.4.7-2.1-.4-1,.5-2.3,1.4-2.1,2.1.5,1.1,3.3.6,4.8-.2,1-.6,2.1-1.6,2.4-8.3.2-16.6.5-24.9.5h0Z"/>
  <path class="cls-14" d="m149.4,137.3c-7.1-1.7-14.6-1-21.8-.9-.7,0-1.3-.7-1.3-1.5,0-1.5,1.4-1.6,2.4-1.5-12.7-1.1-25.4-1-38.1-1-5.7,0-11.5-.3-17.3.1-.6,0-1.3.1-1.9.1-.4.3-1,.3-1.4,0-.8-.5-.9-2-.1-2.6.7-.6,1.6-.4,2.4-.5,2.5-.2,4.8-.2,7.3-.3,6.4.1,12.9,0,19.3.2,9.1.2,18.2,0,27.3.8,6.4.3,12.7,1.8,19.1,2,2.7.1,5.4,0,8.1.2,1.4.5,1.2,2.4.1,3.2-1.4.9-2.6,2.1-4.1,1.7h0Z"/>
  <path class="cls-14" d="m140.3,138.4c-5.1-.3-10.1-1.3-15.2-1.8-3.7.1-7.3,0-11,.1-1.5,0-3.1.4-4.5-.1-.6,1.1-1.9.5-2.9.5-1.9-.2-3.8-.5-5.8-.7-3.4-.4-7-.7-10.4-1-2.8-.2-5.5-.4-8.1-.8-.5,0-1-.1-1.3-.5-2.6.2-5.2.6-7.8.7-1.3-.1-2.9.2-3.9-1-.7-1-.1-2.6,1.1-2.7,4.1-.6,8.2.1,12.3-.2,3.8-.2,7.7-.4,11.5-.1.4,0,.7.3.9.7,9.4,0,18.9-.5,28.3.1,2,.1,4,.1,6.1.2,1.3.1,3.1-.2,4,1.2,1-.2,2-.3,3.1-.2.5,0,.8.4,1,.9,3.1.3,6.7,0,9.5,1.7.6.7.5,2-.3,2.4-1.9.6-4.3.5-6.6.6h0Z"/>
  <path class="cls-3" d="m154.1,136.8c.6-1.5,1.5-4.3-.6-4.8-.3-.1-.6,0-.8.2-2.5-.2-5.1-.1-7.7-.2-4.3-.1-8.6-.8-12.8-1.3-2.1-.3-4.2-.5-6.3-.6h-.2c-7.8-.7-15.6-.6-23.5-.7-1.2,0-2.4,0-3.6-.1h-4.1c-5.1,0-10.2,0-15.2-.1-2.5,0-4.8,0-7.3.3h-1c-.4-.8-1.3-1.1-2-.5-1.2,1.6-.4,4-.9,5.9-.4,1.5.8,2.6,2,2,1.4-.1,2.8,0,4.2,0,6.8,0,13.6.3,20.3.9,2.7.2,5.4.4,8.2.6,4.4.3,8.8.7,13.2.9,2.1.1,4.2.2,6.2.3,1.8,0,3.6.1,5.4.1,8.2,0,16.5-.3,24.8-.3,1.2-.5,1.6-1.5,1.7-2.6h0Zm.9-18.6c.2-1.1.3-2.2-.2-3.3-1.2-2.1-3.7-1.5-5.6-1.6-1-.1-1.9-.2-2.9-.2-1.8-.3-3.6-.6-5.5-.7-.3,0-.7,0-1-.1-2.5-.3-5-.5-7.5-.7-10.3-.8-20.7-1.1-31-1.5h-.8c-.8,0-1.6,0-2.4-.1-5.1-.1-10.3.3-15.4.6-2.9.2-5.8.2-8.7.6-.2,0-.3,0-.5.1-.7-.5-1.8-.3-2.1.8-.2.7-.5,1.4-.7,2.1-.8,2.6-2.3,7.5,1.7,7,3.5-.3,6.9-.1,10.4-.1,4.7.2,9.4.3,14.1.6.4,0,.8,0,1.2.1,1.1.1,2.3.1,3.4.2h.3c1.1.1,2.3.2,3.4.2,1.2.1,2.4.2,3.7.3,2,.2,3.9.4,5.9.7,5.3.9,10.6,1.3,15.9,1.7.7,0,1.4.1,2.1.1.8.1,1.7.1,2.5.1,4,.1,7.9-.2,11.9.2,2-.3,4.3.1,6-1.3,1.1-1.8,1.6-3.9,1.8-5.8h0Zm40.4-2.7c.3,6.6-.3,13.3-1.5,19.8-.5,2.4-1,4.9-1.8,7.3v.2c-.3.7-.7,1.4-1.1,2.1-1.1,2-2.2,4.1-3.3,6.1.1.6-.1,1.2-.4,1.7-1.5,2.6-3.2,5-4.9,7.4-.9,1.2-1.8,2.6-2.6,3.9-1,1-2,2.1-3,3.1-1.5,1.6-3,3-4.6,4.5-.2.1-.4.2-.5.4-2.7,2.3-5.5,4.5-8.5,6.3-1.5.9-3,1.9-4.5,2.8-4.5,2.2-9.2,3.8-14,5.2s-9.5,3.3-14.5,4.2c-5.1.9-10.3,1.5-15.4,1.8h-3.5c-4.1-.4-8.2-1.2-12.2-2.1-4.9-1.2-9.9-2.6-14.8-4h0c-1.4-.5-2.9-1-4.4-1.6h0c-2.2-1-4.4-2.1-6.6-3.2-.1,0-.2-.1-.3-.1-3.7-2-7.4-4.1-10.8-6.5-4.3-3.4-8.6-7-12.4-11,0-.5-.4-.9-.9-1-.5-.5-1-1.1-1.5-1.6-1.3-1.6-2.5-3.2-3.7-5-.4-.5-.7-1-1.1-1.6-.1-.1-.2-.3-.3-.4.2-.2.3-.4.3-.7.1-.8-.4-1.1-1-1.2.1-.5-.1-1.1-.6-1.3q-.1,0-.2-.1c-.6-.8-1.2-1.5-1.8-2.3h0v-.1c.2-.6-.2-1.3-.7-1.5-.2-.4-.4-.8-.6-1.2-.2-.4-.4-.8-.6-1.3.1-.1.1-.2.2-.3.1-.3.1-.6,0-.9,0-.2-.1-.3-.2-.5l-.1-.1c-.5-1.1-1.1-2.2-1.5-3.4-.9-3-1.8-5.9-2.5-8.9v-.2c0-.3-.1-.5-.1-.8v-.1c.1,0,.2.1.3.2-.2-1-.3-2-.5-3,.1-.2,0-.5-.1-.7-.2-1.8-.3-3.6-.2-5.4-.1-.2-.2-.4-.2-.6-.3-3-.7-11.2,1.6-13.3,0-.1,0-.3.1-.4h-.4c-.3-.1-.5-.2-.7-.4.1-.3.1-.5.2-.8.1-.2.1-.5.2-.7,0-.1.1-.3.1-.4-.3-.7-.1-1.3.4-2,0-.1.1-.1.1-.2l.1.1c.2.2.4.3.7.4h.1c.7,0,1.4-.5,1.9-.9.9-.5,1.7-1,2.6-1.4.7-.3,1.4-.6,2.1-.8.2-.1.4-.1.6-.2.2-.1.4-.1.6-.2.7-.2,1.4-.5,2.2-.7l1.1-.4c.3-.1.7-.2,1-.4.2-.1.5-.2.8-.3.5-.2,1-.3,1.5-.5.2-.1.4-.1.7-.2.4-.1.8-.3,1.3-.4.2-.1.4-.1.6-.2.2,0,.4-.1.6-.2.2,0,.3-.1.5-.1.4-.1.8-.2,1.3-.3.4-.1.9-.3,1.3-.4q.1,0,.2-.1c.6-.2,1.1-.3,1.7-.5.9-.2,1.8-.5,2.6-.7.7-.1,1.3-.2,1.9-.2.6-.1,1.3-.2,1.9-.2h.1c.6-.1,1.2-.1,1.9-.2h0c.6-.1,1.3-.1,1.9-.2h.2c1.1-.1,2.2-.2,3.3-.2.5,0,1-.1,1.5-.1s.9,0,1.4-.1c.7,0,1.4-.1,2.1-.1s1.4,0,2.1-.1h8.3-1.9c-.7,0-1.5,0-2.2.1-.5,0-1,0-1.5.1-2.4.2-4.9.4-7.3.8-.4-.1-.7-.1-1,0-.2.1-.4.2-.5.3-.6.7-.6,1.9-.6,3.1,0,.5.1,1,.1,1.4v1.6c-.1,1.1-.2,2.2.4,3,.3.3.7.4,1.1.5h0c.4.1.8,0,1.2,0h0c.7-.1,1.5-.3,2.2-.2,4.2.1,8.3-.1,12.4-.2,1.9-.1,3.7-.2,5.6-.2h1.5c.8,0,1.5,0,2.3-.1.8,0,1.6,0,2.3-.1h.5c3.3-.1,6.6-.2,9.9-.4,3.3-.2,6.7-.3,10-.5h.8c.9-.1,1.8-.1,2.7-.2h.4c.3,0,.6,0,.9-.1h.1c1.6-.1,3.1-.2,4.7-.4h1c1.8-.2,3.6-.3,5.3-.5,2.4-.2,4.9-.5,7.3-.8,1.6-.2,3.2-.4,4.8-.6l.9-.1h.3c.7.1,1.3.3,2,.4.4.1.9.2,1.3.3.4.1.8.2,1.1.2s.8.2,1.1.2.8.1,1.1.2c.4.1.8.1,1.1.2.5.1,1.1.2,1.6.2h.2c.2,0,.3.1.5.2.4.1.9.3,1.3.4,1.2.4,2.3.8,3.5,1.2.3.1.5.2.8.3.4.2.8.3,1.2.5.5.2,1,.4,1.5.6s1,.4,1.5.6,1,.4,1.5.6,1,.4,1.5.6c1,.4,2,.8,3,1.3.3.1.5.2.8.3.3.1.6.3.9.4q.1,0,.2.1c.2.1.3.1.5.2.5.2,1,.4,1.5.7.6.2,1.2.5,1.7.8.6.3,1.2.5,1.7.8.3.2.7.3,1,.5l1.2.6,1.2.6,1.2.6c.4.2.8.4,1.2.7.7.4,1.4.8,2.1,1.2.2.1.3.2.4.3.7.4,1.4.8,2.1,1.2.2.2.5.2.7.2h.1c.1,0,.2,0,.3-.1,0,0,.1,0,.1-.1.4.4.5.4.5.2h0Z"/>
  <path class="cls-4" d="m118.2,55.9c1.1.1,2.1.2,3.2.3-1.1-.1-2.2-.3-3.3-.4,0,0,.1,0,.1.1h0Zm77.8,58.2c0,.4-.1.9-.4,1.2-.1.1-.1.2-.2.2s-.1.1-.2.1c0,0-.1,0-.1.1h-.4c-.2,0-.4-.1-.7-.2-.7-.4-1.4-.8-2.1-1.2-.3-.2-.6-.3-.9-.5-.1,0-.2-.1-.2-.1l-.6-.3c-.3-.2-.6-.3-.8-.5h0c-.4-.2-.8-.4-1.2-.7s-.8-.4-1.2-.6l-1.2-.6h-.1l-1.2-.6h0c-.3-.2-.7-.3-1-.5-1.1-.5-2.3-1-3.4-1.5-.5-.2-1-.4-1.5-.7h0c-.2-.1-.3-.2-.5-.2q-.1,0-.1-.1h0c-.3-.1-.6-.3-.9-.4-.3-.1-.5-.2-.8-.3h0c-.5-.2-1.1-.5-1.6-.7-.4-.2-.9-.4-1.4-.6h-.1c-.5-.2-1-.4-1.5-.6s-1-.4-1.5-.6-1-.4-1.5-.6-1-.4-1.5-.6h0c-.4-.2-.8-.3-1.2-.5-.3-.1-.5-.2-.8-.3h0c-.4-.1-.7-.3-1.1-.4-.1,0-.3-.1-.4-.1-.2-.1-.3-.1-.5-.2-.5-.2-1-.3-1.5-.5-.4-.1-.9-.3-1.3-.4-.2,0-.3-.1-.5-.2h-.2c-.2,0-.5-.1-.7-.1-.3,0-.6-.1-.9-.1-.4-.1-.8-.1-1.1-.2s-.8-.1-1.1-.2-.8-.2-1.1-.2-.8-.2-1.1-.2c-.4-.1-.9-.2-1.3-.3-.7-.1-1.3-.3-2-.4.5-.1,1-.2,1.4-.4.1-.1.2-.1.4-.2h0c.6-.3,1-.9,1.2-1.7v-.2c0-.2.1-.4.1-.6.1-.8.1-1.6,0-2.4-.1-.9-.4-1.7-.9-2.4-1.2-1.1-2.9-.9-4.3-1.1-3.9,0-7.8.3-11.7.5-2.3,0-4.6.2-6.8.5-.5.1-1.1.1-1.6.2-.6.1-1.2.2-1.8.2-1.6.3-3.5.1-5.2.3-.4,0-.8.1-1.2.2h0c-.4.1-.8.3-1.2.6h-.2c-.5,0-1,.1-1.6.1h0c-.3,0-.6,0-.8.1h-1.3c-.6,0-1.2,0-1.8.1h-12c-.8,0-1.6,0-2.4-.1h-.2c-.8,0-1.5,0-2.2-.1h-1.1c-1.1,0-2.1,0-3.2-.1h-13.5c-.7,0-1.4,0-2.1.1-.7,0-1.4.1-2.1.1-.5,0-.9,0-1.4.1-.4,0-.8,0-1.2.1h-.3c-1.1.1-2.2.2-3.3.2h-.2c-.3,0-.7.1-1.1.1-.3,0-.6,0-.9.1-.9.1-1.7.2-2.6.3-.4,0-.9.1-1.3.2-.7.1-1.3.2-1.9.2-.9.2-1.8.4-2.6.7-.6.2-1.1.3-1.7.5q-.1,0-.2.1c-.4.1-.9.2-1.3.4-.4.1-.8.2-1.2.2h-.1c-.2,0-.3.1-.5.1s-.4.1-.6.2c-.2,0-.4.1-.6.2-.1,0-.2,0-.3.1-.3.1-.6.2-.9.3-1,.3-2.1.7-3.1,1-.2.1-.3.1-.5.2s-.3.1-.5.2l-1.1.4c-.5.2-.9.3-1.4.5-.2.1-.5.2-.7.2-.2.1-.4.2-.7.2-.2.1-.4.1-.6.2-.1,0-.2.1-.3.1-.3.1-.6.2-.9.3-.1,0-.2.1-.3.1-.2.1-.3.2-.5.2h0c-.2.1-.4.2-.6.3-.4.2-.8.4-1.2.6-.1,0-.2.1-.3.2-.2.1-.4.2-.5.3-.6.3-1.3.9-1.9.9h-.6l-.1-.1h0l-.1-.1h0l-.1-.1q-.1.1-.1.2c-.1-.2-.2-.5-.2-.7h0c-.2-.8.2-1.7.9-2v-.1c.1-.2.1-.4.2-.7.2-.4.4-.8.6-1.1,0-.1.1-.1.1-.2.5-.8.9-1.6,1.4-2.4h0c.3-.6.7-1.2,1-1.8,1.6-3.1,3.2-6.2,4.8-9.3.4-.8.9-1.6,1.3-2.4q.3-.5,0,0c.6-1.1,1.3-2.2,2-3.3h0c0-.1.1-.1.1-.2s.1-.2.1-.2c.4-.6.8-1.1,1.2-1.7.1-.1.2-.2.2-.3s.2-.2.3-.3c.7-.9,1.6-1.7,2.4-2.4l.1-.1c.6-.6,1.2-1.2,1.8-1.8q.1-.1.2-.2h0c1.9-2.1,4-4,6.3-5.5,1-.8,1.9-1.5,2.9-2.3h.1c.7-.5,1.4-1,2.2-1.6h.2c4-2.8,8.1-5.2,12.3-7.3,4.8-1.8,9.6-3.2,14.5-4.2,2.1-.4,4.2-.8,6.2-1.1,1-.2,1.9-.3,2.9-.4h0c4.6-.6,9.2-1,13.8-.9,3,0,6.1.2,9.1.5,2.8.3,5.7.8,8.5,1.4.7.2,1.4.3,2.1.5,1.6.3,3.2.7,4.8,1.1h0c1.2.3,2.3.7,3.5,1.1,2.9,1,5.8,2.3,8.7,3.5.3.1.7.2.9.5,3.1,1.3,6.1,2.9,9.1,4.7,2.3,1.4,4.5,2.9,6.7,4.5,13.2,9.9,24.1,24.5,27.6,41.4.1.3.2.6.3.9.2.7.3,1.3.4,2,.1.5-.1.9-.3,1.2h0c-.1.1-.2.2-.2.2.1,0,.2.1.3.1h.1v.2h0c-.1.4-.1.9,0,1.3l.1.1h0s.1,0,.1.1c.2.1.4.5.3,1h0Z"/>
  <path class="cls-4" d="m33.9,104.7c-.7-.2-1.2-1-1-1.9.5-1.4,2.1-2,3.1-2.7,3.5-2.1,7-4,10.8-5.2,6.2-1.9,12.7-3,19.1-3.8,1.6,0,5.3-1.2,5.6,1.3,0,1.8-1.7,1.6-2.8,1.5-2.1.1-4.1.5-6.1.8-8.1,1.2-16.3,2.8-23.5,7.2-1.2.8-2.4,1.4-3.6,2.2-.6.4-1.1.8-1.6.6h0Z"/>
  <path class="cls-1" d="m193.8,117.8c-12.4-8.2-26-14.2-40.1-16.8-2-.4-1.3-3.6.7-3,7.2,1.5,14.4,3.4,21.2,6.5,6.7,3.1,13.4,6.5,19.7,10.7,1.4,1.1,0,3.7-1.5,2.6Z"/>
  <path class="cls-2" d="m204.9,146.4c1.1-.6,1.9,1.1,1,2-.1.2-.2.4-.2.5.1.1.2.2.3.4.1.4.1.8-.1,1.1-.5.9-.9,1.8-1.4,2.7,1.3.3.9,2,0,3.8h0c.1,1.9-.1,3.9,0,5.8-.1.7.4,1.5-.1,2.1-.1,1.4-.2,2.8.1,4.2-.1.9-.4,1.8-.6,2.7-.4,1.1.1,2.8-1.1,3.3-.1.4-.2.9-.6,1.1-.7,1.6-2.1,2.8-2.9,4.3-1,1.9-2.2,3.5-3.6,5.2-2.2,2.2-4.2,4.6-6.3,6.9-1.3,1.1-2.5,2.1-3.6,3.3-5.2,5.4-11.6,9.5-17.5,13.9-4.3,2.5-9,4.3-13.4,6.6-9.1,3.9-18.2,9-28.3,8.9-1.2-.1-2.3-.1-3.5-.1-.2.2-.3.3-.6.3-3.2,0-6.4.2-9.6,0-.9-.1-1.8-.1-2.7-.1-.6-.1-1-.6-1.1-1.2-2.2-.2-4.4-.9-6.6-.9-1.4-.1-2.8-.1-4.2-.6-3.2-1-6.2-2.4-9.5-3-.5-.1-1.1-.1-1.6-.2-.1.3-.3.5-.6.6-.4.3-1.1.3-1.4-.3.1,0,.1-.1.2-.2.1-.2.2-.4.2-.7v-.3c-.2-.7-.3-1.5-.4-2.2-.4-5.9-.5-11.8-.1-17.7v-.1c.1-.2.1-.5.1-.7v-.2c.1-.1.3-.1.4-.1.8.1,1.1.7,1.1,1.5v.1c.9.2,1.8.5,2.7.7,6.1,1.5,12.5,2.3,18.8,2.8,1.2.1,2.5.2,3.7.2h.1c1.3.1,2.6.1,3.9.2,2.6.1,5.1.2,7.6.2,1.7-.1,3.4-.3,5.2-.6,3.3-.5,6.5-1.2,9.8-1.9.4-.1.9-.2,1.3-.2,5.8-1.2,11.7-2.7,17.1-5.2.8-.4,1.7-.8,2.5-1.2h.1c.7-.3,1.4-.7,2.1-1,.1,0,.2-.1.2-.1,1.5-.7,3-1.5,4.4-2.2.8-.5,1.6-1,2.4-1.5,3-1.9,6-4,9-6,.7-.6,1.4-1.1,2.1-1.6,1.2-.9,2.4-1.7,3.5-2.6.3-1.1,2.2-2.3,2.7-3.1.2-.3.5-.5.7-.8.8-.9,1.6-1.7,2.3-2.6.2-.3.5-.5.7-.8h0c-.1-.6.4-1.3.6-1.8,1.1-1.9,2.2-3.7,3.5-5.3,1-1.1,2.7-5,4.3-4.4.3-.5.6-1,.9-1.5.1-.3.2-.6.4-.8.2-1,.6-2,1.1-2.9.1-.3.2-.5.2-.8.1-.3.3-.4.5-.5.3-.5.6-1.1.8-1.6.3-.6.6-1.5,1.2-1.8.4-1.6.7-3.1,1.8-4h0Z"/>
  <path class="cls-5" d="m85.6,218.6c.1.5-.1.9-.4,1.1-.5.4-1.2.3-1.5-.5-.1-.1-.2-.3-.2-.4h-.1c-8.7-1.9-16.9-5.7-24.5-10.5-5.9-3.8-11.2-8.7-16.7-13.2-.2-.2-.3-.4-.4-.6-2.1-2-3.9-4.2-5.9-6.2-.1,0-.2,0-.3.1-.5,0-.9-.4-1.1-.9.1,0,.1-.1.1-.1,0,0,.1,0,.1-.1,0,0,.1,0,.1-.1,0,0,.1-.1.1-.2v-.6c-.1-3-.1-6.1,0-9.1,0-.5,0-1,.1-1.6,0-.3,0-.7.1-1v-.2c.1-1.3.2-2.7.3-4,.1-1.8.3-3.5.5-5.2.1.1.2.2.2.3,5,6.5,10.5,13,17.1,17.6,4.3,2.7,8.5,5.5,13.1,7.8,1,.5,2,1.1,3,1.6h.1c.6.3,1.1.5,1.7.8.2.1.4.2.5.4.1.1.2.1.4.2,2.7,1.4,5.8,2.1,8.8,3,.9.3,1.7.6,2.5.9,0-.1.1-.2.1-.3.5-.9,1.5-.5,1.7.3h0v.1h0v.4c0,.1-.1.2-.1.4-.4,5.9-.3,11.8.1,17.7.2.6.3,1.4.5,2.1h0Z"/>
  <path class="cls-13" d="m35.7,164c.3.2.5.6.3,1.1h0c-.2,1.8-.3,3.5-.5,5.2-.1,1.3-.2,2.7-.3,4v.2c0,.3,0,.7-.1,1,0,.5-.1,1-.1,1.6-.1,3-.1,6.1,0,9.1v.6c0,.1-.1.1-.1.2,0,0,0,.1-.1.1,0,0-.1,0-.1.1l-.1.1c-.4.3-.9.3-1.3-.2-.3,0-.7-.3-.8-.8,0-.3-.1-.7-.1-1-.2-.1-.4-.3-.5-.7-.1-.4-.1-.8-.2-1.3-.3,0-.6-.1-.8-.4-.6-.7-1.2-1.4-1.5-2.3h0c-1.9-3.7-3.6-7.4-5.5-11-.2-.5-.5-.9-.8-1.3-.1,0-.3-.1-.4-.2-.7-.7-.7-1.9-.9-2.8-.7-2.5-.5-5.1-.6-7.7-.1-4.7-.3-9.5-.1-14.2,0-.3,0-.7.1-1.1-.4-1.5-.6-3.1.5-3.4.7-.2,1.5.5,1.3,1.3.9,4.7,2.3,9.5,5.1,13.4,1.7,2.6,3.5,5.1,5.1,7.7h0c.6.1.9.4,1,.9h.4c.5.1.8.6.8,1.2v.1c0,.1-.1.3-.1.4.3.1.4.1.4.1h0Z"/>
  <path class="cls-13" d="m33.8,187.7c-.4-5.2-.5-10.2-.1-15.3.3-1.9.1-9.2,2.7-8.3.7.3,1.1,1.2.8,2-.3,1.2-.5,2.6-.7,3.8-.5,5.4-.6,11-.2,16.5.1,1,.1,2.4-1,2.6-.6.1-1.4-.5-1.5-1.3h0Z"/>
  <path class="cls-5" d="m84.9,219.1c-1.1-3.9-.7-8.1-1.2-12.1-.2-2.5-.1-5.1.1-7.6-.1-1.2.8-2.3,1.8-1.9.7.3,1.1,1.2.8,2v-.2h0c-.7,5.3.1,10.8.3,16.1.1,1,.3,2,.6,3,.5,1.9-1.9,2.6-2.4.7h0Z"/>
  <path class="cls-5" d="m200.2,179.7c-1.8-.6-.8-3-.7-4.4.6-3.7.8-7.5.9-11.2.1-2.6.3-5.5.3-8,0-1.6-.6-5.1,1.8-4.5.6.2,1,.9.9,1.7.1,3.7-.2,7.3-.3,11.1-.2,4.4-.6,8.9-1.2,13.3,0,.9-.5,2.2-1.7,2h0Z"/>
  <path class="cls-5" d="m202.2,175c-.7,0-1.3-.8-1.3-1.6,0-2.1.1-4,.5-6,.4-4.1.6-8.2,1.2-12.3-2.1-.6-.6-3.1-.1-4.5.8-1.5,1-5.7,3.1-5.1.6.2,1.1,1,.9,1.8-.5,3.3-1,6.6-1.5,10-.4,4.8-.9,9.7-1.3,14.5.1,1.2.1,3.3-1.5,3.2h0Z"/>
  <path class="cls-4" d="m178.1,118c-3.7-1.2-10.9-2.1-11.1-7,.9-4.8,9.2-1.8,12.1-.6,7,2.4,7.8,9.6-1,7.6Z"/>
  <path class="cls-12" d="m96.6,202.3c-7.4-1.4-14.7-3.5-21.7-6.5-.4-.2-.8-.3-1.2-.5-.1,0-.2-.1-.3-.2-.5-.2-1-.4-1.5-.7-.9-.4-1.7-.8-2.6-1.2-3.4-1.7-6.8-3.5-10-5.6-6.4-4.1-12.4-9-17.7-14.6-2.7-2.9-5.3-6-7.6-9.2-2.2-3.1-4.2-6.4-6-9.8-1.5-2.9-2.9-5.9-4-8.9-2.8-7.3-4.5-15.2-4.9-23-.4-7.6.4-15.2,2.3-22.4,0-.1.1-.2.1-.3,1-3.8,2.3-7.4,3.8-11,1.5-3.5,3.4-7,5.4-10.2,4.3-6.8,9.5-12.9,15.5-18.1,5.8-5.1,12.2-9.4,19-12.8,6.9-3.5,14.1-6.1,21.6-8,7.4-1.8,14.9-2.8,22.5-3,6.1-.2,12.3.2,18.2,1.1,1.8.2,3.5.5,5.2.9h.2c6.2,1.2,12.3,3,18.2,5.3,7.2,2.8,14,6.4,20.4,10.7,6.5,4.4,12.4,9.6,17.6,15.6s9.7,12.6,13.1,19.9c1.7,3.6,3.1,7.4,4.2,11.3.6,1.9,1.1,3.9,1.5,5.8.4,2,.8,4,1,6,.2,2.1.4,4.2.5,6.4.1,2,.1,4,0,6.1s-.3,4.1-.5,6.2c-.2,1.9-.6,3.8-1,5.8-.9,4-2,7.9-3.5,11.7s-3.2,7.4-5.2,10.9c-3.9,6.8-8.8,12.8-14.4,18.1-2,1.9-4.1,3.8-6.3,5.5-.1,0-.1.1-.2.1-6.1,4.8-12.8,8.7-19.9,11.8-7,3.1-14.3,5.3-21.8,6.8-1.8.3-3.6.7-5.4.9-.5.1-1,.1-1.5.2h-.3c-.5.1-1,.1-1.6.2-1,.1-1.9.2-2.9.3-1.8.2-3.7.2-5.5.3h-3.2c-6.5-.1-13.1-.7-19.6-1.9h0Zm4.7-1.4c4.6.6,9.2,1,13.8,1.1,3.3,0,6.6-.1,9.9-.3.9-.1,1.7-.2,2.6-.2.4,0,.9-.1,1.4-.2h.1c.2,0,.5-.1.7-.1h0c4.4-.6,8.8-1.4,13.1-2.5,4.4-1.2,8.8-2.6,12.9-4.3,1.9-.8,3.8-1.7,5.7-2.6,1.9-1,3.8-2,5.7-3,3.4-2,6.8-4.2,9.9-6.7h0c.1,0,.1-.1.1-.1,0,0,.1,0,.1-.1l.2-.1c3-2.4,5.8-4.9,8.5-7.7,2.4-2.5,4.7-5.2,6.8-8,2-2.8,3.9-5.7,5.6-8.6v-.1h0c1.5-2.8,2.8-5.6,4-8.4,1.1-2.8,2-5.6,2.8-8.3.8-3,1.4-6,1.8-9,.4-2.8.6-5.7.6-8.4,0-3-.1-6-.4-8.9-.2-1.6-.4-3.1-.7-4.7-.3-1.5-.6-3-.9-4.4-.8-3.1-1.7-6.1-2.8-9.1-1.2-3-2.5-5.9-4-8.8h0c-1.7-3.1-3.6-6.2-5.6-9-2.3-3.1-4.7-6.1-7.2-8.8-2.9-3-6-5.9-9.2-8.5-3.3-2.7-6.8-5.1-10.3-7.2-3.9-2.4-8-4.5-12.2-6.3s-8.5-3.3-12.8-4.5c-2.9-.8-5.8-1.5-8.7-2.1h-.2c-1.7-.3-3.3-.6-4.8-.8h-.2c-4.7-.7-9.4-1-14-1.1-4.8,0-9.5.2-14.2.8-4.8.1-9.4,1-13.8,2.1-4.4,1.2-8.7,2.6-12.9,4.4-4,1.7-7.8,3.6-11.5,5.8-3.4,2-6.6,4.2-9.7,6.6-3,2.4-5.9,4.9-8.6,7.6-1.3,1.3-2.6,2.7-3.8,4.2-1.2,1.4-2.3,2.9-3.5,4.4-1.9,2.7-3.7,5.5-5.3,8.2-1.6,2.9-3,5.9-4.2,8.8-1,2.7-1.9,5.4-2.7,8.1v.1c0,.2-.1.3-.1.5-.7,2.8-1.2,5.6-1.6,8.4-.4,2.9-.6,5.8-.6,8.7s.1,5.8.4,8.6c.3,3,.9,6,1.6,9,.7,3.1,1.7,6.1,2.7,8.9.1.2.1.3.2.5,1.2,3,2.5,6,4,8.9,1.7,3.1,3.5,6.1,5.6,9,2.3,3.2,4.8,6.3,7.5,9.1,2.8,2.9,5.8,5.7,8.9,8.2h.1c1.6,1.3,3.3,2.5,5,3.7,1.8,1.3,3.6,2.5,5.4,3.5,2.7,1.7,5.5,3.2,8.4,4.6.7.3,1.4.7,2.2,1,.4.2.8.4,1.2.5.1,0,.2.1.2.1.1,0,.3.1.3.1,2.1.9,4.2,1.7,6.3,2.5,2.2.8,4.4,1.5,6.6,2.1h0c4.4,1.2,9,2.1,13.6,2.8h0Z"/>
  <path class="cls-12" d="m103.5,191.9c-6.6-.8-13.1-2.4-19.3-4.6-6.1-2.2-12.1-5-17.6-8.5-3.1-1.9-6-4-8.8-6.3-5.2-4.2-9.8-9.1-13.8-14.6-3.9-5.4-7.1-11.3-9.3-17.7-1.8-4.9-3-10.1-3.5-15.2v-.2c-.7-6.8-.3-13.7,1.1-20.4.8-3.7,2-7.4,3.3-10.8,2.7-6.6,6.4-12.7,10.9-18.1,3.5-4.3,7.6-8.1,11.9-11.4,2.9-2.2,5.9-4.3,9.1-6.1,5.9-3.3,12.1-6,18.5-7.9,4.3-1.3,8.6-2.2,13-2.8h.1c.8-.1,1.7-.2,2.5-.3h.1c3.9-.5,7.8-.6,11.7-.6h.8c2.3,0,4.6.2,6.8.4h.2c3.5.3,7.1.9,10.5,1.6,6.4,1.4,12.7,3.4,18.7,6.1,3,1.4,6,2.9,8.9,4.6,2.9,1.7,5.7,3.6,8.4,5.7.8.6,1.5,1.2,2.2,1.8.1,0,.1.1.2.1,5.1,4.2,9.8,9.1,13.7,14.6,2,2.8,3.8,5.8,5.5,8.8,1.6,3.1,3,6.2,4.1,9.5,2.2,6.4,3.4,13.2,3.6,20.1.2,6.9-.9,13.8-2.9,20.4-2,6.6-5.2,12.9-9,18.5-2.5,3.6-5.3,6.9-8.3,9.9-4.7,4.7-10,8.8-15.7,12.1-5.7,3.4-11.8,6.1-18.1,8-3.2,1-6.5,1.8-9.9,2.5-3.3.6-6.6,1.1-10,1.3-2.5.2-5,.3-7.5.3-4,0-8-.2-12.1-.8h0Zm-1.3-142.8c-4.1.5-8.2,1.2-12,2.2-3.9,1-7.7,2.2-11.3,3.7-3.4,1.4-6.8,3-9.8,4.7-.2.1-.4.2-.5.3-3,1.8-5.9,3.7-8.6,5.8-.1,0-.1.1-.1.1,0,0-.1,0-.1.1h0c-2.6,2.1-5.1,4.3-7.4,6.6-2.2,2.2-4.2,4.6-6.1,7-1.7,2.3-3.3,4.7-4.8,7.2-1.4,2.5-2.6,5-3.7,7.5v.1l-.1.2c-1,2.5-1.8,5-2.5,7.5-.6,2.4-1.1,4.7-1.5,7.1-.3,2.6-.6,5.1-.6,7.7s.1,5.1.3,7.5v.4c.3,2.6.7,5.2,1.3,7.6.6,2.6,1.4,5.2,2.3,7.7,1,2.8,2.2,5.4,3.5,7.9,1.5,2.8,3.2,5.5,5,8.1,1.9,2.7,4.1,5.3,6.2,7.7,2.3,2.5,4.8,4.9,7.5,7q.1.1.2.1c2.8,2.3,5.8,4.4,8.9,6.3,3.4,2.1,6.9,3.9,10.4,5.5,3.6,1.6,7.3,3,11,4.1,4,1.2,8,2.1,12,2.7,4.1.6,8.2,1,12.2,1.1s8.1-.1,12.1-.5h-.1c4-.5,8-1.2,11.9-2.1,3.8-1,7.5-2.2,11.1-3.6,3.6-1.4,7-3.1,10.4-5,3.1-1.8,6-3.7,8.8-5.8,0,0,.1,0,.1-.1h0c2.6-2,5.1-4.2,7.3-6.4l.4-.4c2.2-2.2,4.2-4.5,6.1-7,1.8-2.3,3.4-4.8,4.8-7.2,1.4-2.4,2.6-4.9,3.6-7.3,1.1-2.6,1.9-5.2,2.7-7.8.6-2.4,1.2-4.8,1.5-7.3.4-2.6.6-5.2.6-7.7s-.1-5.1-.3-7.5c-.3-2.7-.7-5.3-1.3-7.9-.6-2.7-1.4-5.3-2.3-7.8-1-2.7-2.2-5.3-3.5-7.9-1.4-2.8-3.1-5.4-4.8-7.9,0,0,0-.1-.1-.1h0c-2-2.8-4.2-5.5-6.4-7.9-2.3-2.5-4.7-4.8-7.3-6.9-.1-.1-.2-.1-.2-.2l-.2-.2c-2.9-2.4-6-4.5-9-6.4-3.2-2-6.5-3.7-9.9-5.3-3.8-1.7-7.6-3.1-11.5-4.2-3.9-1.1-7.8-2-11.7-2.6-2.2-.3-4.4-.6-6.7-.8-1.6-.1-3.2-.2-4.8-.3h-2.3c-3.8,0-7.3.2-10.7.6h0Z"/>
  <path class="cls-12" d="m21.6,167.3c-.1-.4-.3-.8-.4-1.2-.1-.2-.1-.4-.2-.6v.1c0-.1-.1-.2-.1-.3-.1-3.3-.2-6.6-.4-9.8-.2-4.7-.4-9.4-.5-14.2-.2-4.8-.4-9.7-.5-14.5-.1-3-.2-6-.3-8.9,0-.6.3-1.1.9-1.2s1.1.3,1.2.9v.8c0,.5,0,1,.1,1.5,0,1.1.1,2.3.1,3.4.1,2.3.2,4.7.3,7,.2,4.8.4,9.6.5,14.5.2,4.7.4,9.5.5,14.2.1,2.9.2,5.8.3,8.6,0,.6-.4,1.1-1,1.1,0-.4-.3-.9-.5-1.4h0Z"/>
  <path class="cls-12" d="m203,175.6c-.6-.1-.9-.7-.9-1.2.4-3.8.8-7.6,1.2-11.3.5-4.8,1-9.5,1.5-14.2s1-9.4,1.5-14.1c.2-2.3.5-4.5.7-6.8.2-2,.4-3.9.6-5.9.1-.6.6-1,1.2-.9.6.1.9.7.9,1.2-.2,2-.4,4-.6,6-.3,2.4-.5,4.7-.8,7.1-.5,4.7-1,9.5-1.5,14.2s-1,9.5-1.5,14.2c-.3,3.3-.7,6.7-1.1,10-.1.2-.2.5-.3.8s-.3.7-.4,1c-.1.1-.3.1-.5.1.1-.2,0-.2,0-.2h0Z"/>
  <path class="cls-12" d="m115.9,226.3c-1.1,0-2.2-.1-3.3-.1-.4,0-.8-.1-1.2-.1s-.9-.1-1.3-.1c-1.1-.1-2.1-.3-3.1-.5-.9-.2-1.9-.3-2.8-.5-1.9-.4-3.9-.8-5.8-1.3-1.8-.4-3.6-.8-5.3-1.2-2-.5-4.1-1-6.1-1.5-1.8-.4-3.5-.9-5.3-1.4-2-.6-3.9-1.2-5.9-1.9-.4-.1-.8-.3-1.2-.4-.4-.2-.8-.3-1.2-.5-1-.4-1.9-.8-2.9-1.2-1.7-.8-3.4-1.5-5.1-2.4-.9-.5-1.9-1-2.8-1.4-.3-.2-.7-.4-1-.5-.4-.2-.9-.5-1.3-.7-.9-.5-1.8-1.1-2.6-1.7-.9-.6-1.7-1.2-2.6-1.8-1.5-1-2.9-2.2-4.3-3.3-1.7-1.3-3.3-2.6-4.9-3.9-.8-.6-1.5-1.2-2.2-1.8-.3-.3-.6-.5-.9-.8-.4-.3-.8-.7-1.1-1-.7-.7-1.4-1.3-2.1-2-.7-.8-1.5-1.5-2.2-2.3s-1.5-1.6-2.2-2.4c-.7-.8-1.3-1.5-2-2.3-.6-.7-1.1-1.3-1.6-2-.7-.9-1.3-1.7-1.9-2.6-.4-.6-.8-1.2-1.2-1.8s-.8-1.2-1.1-1.9c-.7-1.2-1.4-2.5-2.1-3.7-.6-1-1.1-1.9-1.7-2.9,0,0,0-.1-.1-.2-.2-.5-.4-.9-.5-1.4-.2-.6-.3-1.2-.5-1.8-.2-.5-.4-1-.7-1.5,0-.2,0-.4.2-.6.3-.5.9-.7,1.4-.4.3.2.5.5.5.9.1.2.1.4.2.6.2.8.5,1.6.8,2.2.8,1.6,1.7,3.1,2.6,4.6.4.7.8,1.4,1.2,2.1.4.7.8,1.4,1.2,2,.4.6.7,1.1,1.1,1.7.2.3.4.6.6.9.2.3.4.6.6.9.8,1.1,1.7,2.2,2.6,3.3.6.7,1.2,1.5,1.9,2.2.8.8,1.5,1.7,2.3,2.5s1.5,1.6,2.3,2.4c.7.7,1.4,1.3,1.9,1.9.6.5,1.1,1,1.7,1.5.5.5,1.1.9,1.6,1.3,1,.8,1.9,1.6,2.9,2.3,1.1.8,2.2,1.7,3.2,2.5,1.1.9,2.3,1.8,3.4,2.6.6.5,1.3.9,1.9,1.3.6.4,1.2.8,1.8,1.2,1.2.8,2.6,1.6,3.7,2.2,1.1.6,2.2,1.2,3.3,1.7,1,.5,2.1,1,3.1,1.5s2,.9,3,1.3c.6.2,1.2.5,1.7.7.6.2,1.2.5,1.9.7,1.8.6,3.7,1.2,5.5,1.8,1,.3,2,.6,3,.9.8.2,1.7.4,2.5.6,2,.5,3.9,1,5.9,1.4,1.8.4,3.6.8,5.4,1.2,1.3.3,2.5.6,3.8.9,1.7.3,3.3.6,5,.9.9.2,1.8.3,2.7.4.8.1,1.7.2,2.5.2,1.7.1,3.3.1,5,.2.9,0,1.8.1,2.7.1h2.3c1.7-.1,3.3-.2,4.9-.3.9-.1,1.8-.1,2.7-.2.3,0,.7-.1,1-.1.4-.1.8-.1,1-.1.4-.1.8-.2,1.1-.2.1,0,.2,0,.3-.1,1.7-.4,3.3-.8,5-1.2,1.6-.4,3.1-.8,4.6-1.3.6-.2,1.1-.4,1.7-.6.6-.2,1.2-.5,1.7-.8h.1c1.7-.8,3.5-1.7,5.2-2.5s3.4-1.5,5-2.2c.6-.3,1.2-.6,1.8-1s1.2-.7,1.7-1c.8-.5,1.5-1,2.3-1.5,0,0,.1,0,.1-.1h0c1.3-.9,2.7-1.6,4.1-2.4,1.4-.8,2.8-1.7,4.2-2.6,0,0,.1,0,.1-.1h0c.4-.3.8-.5,1.2-.8,1.8-1.2,3.4-2.5,5.1-4,.8-.7,1.6-1.4,2.5-2.1.8-.7,1.7-1.4,2.6-2.1.7-.6,1.3-1.2,1.9-1.8.6-.5,1.2-1.1,1.7-1.6.6-.6,1.2-1.1,1.8-1.7l1-1c.3-.3.6-.7.9-1,1.1-1.3,2.2-2.6,3.4-3.8h.1c1.1-1.3,2.2-2.6,3.2-3.9,1-1.3,2-2.5,2.9-3.9.3-.5.6-1,.9-1.5.2-.4.4-.8.7-1.2.3-.5,1-.5,1.5-.2.4.4.5,1.1.2,1.5l-.1.1c-.4.6-.8,1.3-1.1,2-.7,1.2-1.6,2.3-2.5,3.4-1.1,1.4-2.2,2.8-3.3,4.1-1.2,1.4-2.4,2.7-3.4,3.9-.6.7-1.3,1.5-1.9,2.2-.6.7-1.4,1.4-2.1,2-.7.7-1.5,1.3-2.2,2s-1.5,1.4-2.2,2c-1.4,1.2-2.9,2.4-4.4,3.6-.7.6-1.4,1.3-2.2,1.9-.4.3-.7.6-1.1.9-.4.3-.9.6-1.3,1-.4.3-.9.6-1.3.9-.5.3-.9.6-1.4.9-1.4.9-2.8,1.8-4.3,2.6-1.4.8-2.8,1.5-4.1,2.4-.4.2-.8.5-1.1.7-.5.4-1.1.7-1.6,1-.3.2-.6.4-.9.5-.3.2-.7.4-1,.6-1.1.6-2.3,1.2-3.5,1.7-1.1.5-2.3,1-3.4,1.5-1.2.5-2.4,1.1-3.5,1.6-.6.3-1.2.6-1.8.9-.6.3-1.3.6-1.9.9-.6.2-1.1.4-1.7.6-.8.2-1.5.4-2.2.7-1.3.3-2.5.7-3.8,1-1.2.3-2.4.7-3.5.9-.4.1-.8.2-1.1.2-1.9.4-3.8.5-5.7.6-1.9.1-3.8.3-5.6.3h-.9c-1.6,0-3.1-.1-4.7-.2l-.2.2Z"/>
  <path class="cls-12" d="m37.9,130.6c-1.2-11.5.3-22.9,4.1-33.7.6-1.8,4.9-13.3,7.1-11.5.9.8,0,1.8-.5,2.4-6,10.2-8.9,22.6-8.9,34.5,0,2.8.2,5.4.4,8.1.1.8-.5,1.2-1.1,1.2s-1.1-.3-1.1-1h0Z"/>
  <path class="cls-12" d="m41.2,122c0-3.8.2-7.5,1-11.2.2-1.4,2.3-1.1,2.1.3-.5,2.6-.9,5.3-.9,8-.3,1.3.6,3.8-1.1,4-.6,0-1.1-.5-1.1-1.1h0Z"/>
  <path class="cls-12" d="m44,106.9c-.6-.2-.9-.8-.7-1.3.8-3.3,1.8-6.5,3.5-9.4.8-1.1,2.5.2,1.7,1.3-1.5,2.7-2.4,5.7-3.2,8.7-.1.5-.6.8-1,.8-.1-.1-.2-.1-.3-.1h0Z"/>
  <path class="cls-12" d="m46,113.2c-.6-.2-.9-.8-.7-1.3.5-1.9,1-3.9,1.5-5.8.2-.6.7-.9,1.3-.8.6.2.9.8.7,1.3-.5,1.9-1,3.9-1.5,5.8-.1.5-.6.8-1,.8h-.3Z"/>
  <path class="cls-12" d="m26.6,167.2c-1.2-6.1,3.9-4.6,2-2.3-.2,1.1.8,3-.8,3.3h-.1c-.5-.1-1-.5-1.1-1h0Z"/>
  <path class="cls-12" d="m100.1,209.9c-6.5-1.5-12.8-4-19.3-5.8-2.1-.6-4.3-.9-6.3-2-.8-.6-.3-2,.6-2,.5,0,1.1.1,1.4.5,6.9,1.9,13.8,4.1,20.7,6.3,1,.4,2.1.6,3.1.8.6.1,1,.6.9,1.2-.1.5-.5,1-1,1h-.1Z"/>
  <path class="cls-12" d="m92.5,211.1c-5.9-1.9-12.1-3-17.8-5.6-.4-.4-.4-1.1,0-1.5.8-.8,1.6,0,2.4.2,5.2,2,10.6,3.2,15.9,4.8,1.2.3.9,2.2-.2,2.2-.1-.1-.2-.1-.3-.1h0Z"/>
  <path class="cls-12" d="m85.7,214.8c-1.1-.5-3.5-.3-3.5-2,.3-1.2,1.4-1.1,2.5-1,.4,0,.8.1,1.1,0-1.2-.4-2.3-.8-3.5-1.1-.6-.2-.9-.8-.7-1.3.1-.6.7-1,1.3-.8,3.9,1.3,7.9,2.2,11.6,4.1.8.5.6,1.8-.3,2.1-1.2,0-2.4-.2-3.6-.4s-2.3-.4-3.5-.4c-.1.5-.6.8-1,.8-.2.1-.3.1-.4,0h0Z"/>
  <path class="cls-12" d="m157.5,199.3c-.3-.5-.1-1.2.4-1.5,6.6-4,14.3-6.6,19.5-12.5.3-.5,1-.6,1.5-.2,2,1.8-5.2,6.4-6.5,7.2-3.6,2.1-7.3,4-10.9,6.1-.9.3-2,1.5-3,1.5-.4-.1-.7-.3-1-.6h0Z"/>
  <path class="cls-12" d="m166.7,199.2c-.3-.5-.1-1.2.4-1.5,2.2-1.5,4.2-3,6.4-4.5,1.2-.7,2.2,1.1,1.1,1.9-2.2,1.5-4.2,3-6.4,4.5-.2.1-.3.2-.5.2-.4-.1-.8-.3-1-.6h0Z"/>
  <path class="cls-12" d="m183.4,183c-1.1-.9.2-2.1.8-2.9.5-.8,1.4-2.3,2.4-1.3.4.4.4,1.2,0,1.6-.8.7-1.4,2.8-2.6,2.8-.1,0-.3-.1-.6-.2h0Z"/>
  <path class="cls-12" d="m180.5,189c-.7-1,.3-1.8,1-2.2.8-.8,2.2-.9,2.3.5,0,.7-.5.9-1,1.2-.5.4-1.1,1-1.6,1-.2,0-.5-.1-.7-.5h0Z"/>
  <path class="cls-12" d="m145.2,62.7c-15.9-5.6-33.2-6.9-49.7-4.4-3.9.9-8.1,1.4-11.7,3.1-1.2.6-2.1-1.4-.9-2,17.5-6.4,37.4-5.4,55.3-1.3,2.7.7,5.2,1.6,7.7,2.5.5.2.8.8.6,1.4-.2.5-.6.7-1,.7-.1.1-.2,0-.3,0h0Z"/>
  <path class="cls-12" d="m140.7,65.1c-.4,0-.7-.3-.8-.6-9.7-2.5-19.8-3.9-29.8-4.3-.6,0-1.1-.5-1.1-1,0-1.5,1.7-1.1,2.7-1.1,10.5.6,21.3,1.8,31.3,5.1.7.6.3,1.9-.7,1.9h-.4c-.3.1-.7,0-1.2,0h0Z"/>
  <path class="cls-12" d="m133,66.7c-5.6-1.7-11.2-2.9-16.8-4.1-2-.3-4-.6-6-1.1-.5-.1-.9-.6-.8-1.2.1-.6.6-1,1.1-1,2.1.2,4.3.5,6.4.6.4.1.9.1,1.6,0,1.5,0,3.2-.1,2.9,1.5,4.1,1,8.3,1.9,12.3,3.2,1.2.4.7,2.1-.3,2.1-.2.1-.3,0-.4,0h0Z"/>
  <path class="cls-12" d="m152.6,173.5c-.5-1.4,1.4-1.7,2.2-2.2,1.7-.8,3.3-1.6,4.8-2.6,8.7-5.3,16.7-12.2,21.6-21.5.6-1.3,2.5-.5,1.9.9-5,9.6-13.3,16.8-22.1,22.4-2.3,1.4-4.7,2.6-7.1,3.7-.1.1-.2.1-.4.1-.4-.1-.8-.4-.9-.8h0Z"/>
  <path class="cls-12" d="m146.6,179.3c-.2-.6.1-1.2.6-1.4,5.8-2.6,11.6-5.2,17.1-8.5.5-.3,1.2-.1,1.4.4.3.5.1,1.2-.4,1.5-2.6,1.6-5.1,2.9-7.8,4.2-3.1,1.6-6.3,3-9.5,4.4-.1,0-.2.1-.4.1-.4,0-.8-.3-1-.7h0Z"/>
  <path class="cls-12" d="m141.4,178.1c-.2-.5.1-1.2.6-1.4,2-.8,4.1-1.7,6.1-2.5.5-.2,1.2.1,1.4.6s-.1,1.2-.6,1.4c-2,.8-4.1,1.7-6.1,2.5-.1,0-.2.1-.4.1-.4,0-.8-.3-1-.7Z"/>
  <path class="cls-12" d="m28.8,101.9c-.5-.2-.9-.8-.7-1.3.8-2.5,1.9-4.8,2.8-7.2,5.5-12.5,13.7-23.5,23.5-32.6.9-1,2.5.5,1.5,1.5-8.9,8.2-16.4,18.1-21.9,29.2-1.4,2.9-2.5,5.9-3.7,8.9-.2.7-.5,1.6-1.2,1.6-.1-.1-.2-.1-.3-.1h0Z"/>
  <path class="cls-12" d="m58,58.9c-.6-.9.2-1.9,1.2-1.9.6,0,1.3-.3,1.8.1.7.5.4,1.9-.5,2-.4,0-.9,0-1.3.2h.2c-.2.1-.3.1-.5.1-.4-.1-.7-.2-.9-.5h0Z"/>
  <path class="cls-12" d="m62.6,55.2c0-1.5,2.8-1.5,2.8,0,0,.8-.7,1.2-1.4,1.2s-1.4-.4-1.4-1.2h0Z"/>
  <path class="cls-12" d="m200.9,177.7c-.8-.7-.1-1.7.4-2.3.6-.8,1-2.8,2.2-2,.3.3.5.6.4,1,0,.1-.1.1-.1.2-.1.3-.3.7-.4,1-.2.3-.3.5-.4.8-.4.6-.9,1.6-1.6,1.6-.1-.1-.3-.2-.5-.3h0Z"/>
  <path class="cls-12" d="m62.3,160.4c-1.1-.7-2.9-2.4-1.5-3.8,1.2-1,1.9.5,2.8,1.1,1.3.8.6,2.9-.6,2.9-.3,0-.5,0-.7-.2h0Z"/>
  <path class="cls-12" d="m169.7,85.5c-.1-1.6-.2-2.8-.5-4.3,0,.2.1.3.1.4-.9-2.1,2.1-3.2,2.5-.9.2,1.7.4,3.2.5,4.7,0,1-.7,1.6-1.3,1.6-.6-.1-1.2-.6-1.3-1.5h0Z"/>
  <path class="cls-12" d="m71.3,104.9c-2.3-.9-1.5-7.9-1.7-10.1-.2-1.4.1-3.3,2-2.8.7.2,1.1.9,1,1.6.1,2.8-.1,5.7.4,8.5,26.1-.6,52.3-1.7,78.4-4.1.2,0,.4,0,.7-.1,1.3-.1,2.8-.3,3,1.3,0,1.2-1.1,1.6-2.5,1.7h-1.6c-.9,0-1.7,0-2.2.2-3.3.3-6.7.7-10.1.9-18.2,1.2-36.3,2.4-54.5,2.6-3.6,0-7.1.3-10.7.3-.8.1-1.5.1-2.2,0h0Z"/>
  <path class="cls-12" d="m152.8,98.7c0-.6-.1-1.1-.2-1.7-.2-1.7-.7-3.3-1.1-4.9-5.4-.5-10.9-.3-16.3,0-3.6.2-7.3.4-10.9.3-11.2,0-22.3.5-33.5,1-2.7.1-5.5.3-8.2.5-4,.3-8,.7-11.9.6-1.8-.6-.9-3.2.9-2.8,6.5-.4,12.9-.9,19.4-1.3,18.5-.8,37.1-1.1,55.6-1.6,2.3.2,4.8-.2,6.9.8.7.5.9,1.4,1.1,2.2.5,1.7.9,3.5,1.1,5.2.3,1.1.3,2.9-1.3,3h-.1c-.8,0-1.5-.6-1.5-1.3h0Z"/>
  <path class="cls-12" d="m69.4,122.3c-2.6-.1-.8-5.8-.8-7.3.6-1.7-.4-5.9,2.5-5.3.7.2,1.2,1,.9,1.7-.1,1.6-.4,3.5-.6,4.9-.2,1.5-.4,3.1-.4,4.6,0,.7-.7,1.3-1.4,1.4h-.1s0,0-.1,0h0Z"/>
  <path class="cls-12" d="m154.4,120.8c0-2.1.3-4.1.3-6.2-27.5-3.9-55.6-2.5-83.4-2.4-2,.3-2.7-2.4-.7-2.9,3.5,0,7.3-.1,10.7-.1,5.5,0,11,0,16.6-.1,7.5-.1,15.1-.2,22.6,0,11.4.2,22.8,1.4,34.2,2.7,4.4,0,2.7,4.1,2.8,7-.4,1.6.7,4.6-1.6,4.9h-.1c-1.5-.2-1.6-1.8-1.4-2.9h0Z"/>
  <path class="cls-12" d="m82.5,123.1c-3.3-.1-6.6-.1-9.9-.2-1.6-.1-4.8.2-4.2-2.2.3-.9,1.3-1.2,2.2-.9,10,.5,20,.3,29.9,1,17.9,1.5,36,3,54.1,2.1,1-1,2.9,0,2.5,1.3-.2.9-1.1,1.4-1.9,1.5-.2,0-.4.1-.7.1h-2.7c-3.4.2-6.8.3-10.1.3-19.8,0-39.4-2.9-59.2-3h0Z"/>
  <path class="cls-12" d="m155.2,125c-1.8-.2-1.4-1.8-1.2-3.1-.1-1.2.8-2.7,2.2-2.2,1.3.4.9,1.9.8,2.9-.1,1-.4,2.2-1.6,2.3h-.1q0,.1-.1.1Z"/>
  <path class="cls-12" d="m155.7,125.1c-1.9-.2-1.3-2.4-1.1-3.7.6-1.7,3.2-1,2.9.6h0c-.1,1.1-.1,3-1.6,3.1h-.2Z"/>
  <path class="cls-12" d="m155.1,141.1c-3,0-1.1-5.8-1.3-7.7-28.2-1.5-56.4-3.9-84.7-3.1-1.2.2-2.3-.8-1.8-2,.4-1.1,1.6-1,2.4-1,3.4-.1,6.8-.2,10.2-.2,23.2.3,46.4,1.6,69.6,3.1,3.8.4,8.3-.9,7.3,4.6-.2,1.6-.3,3.2-.2,4.7,0,.9-.7,1.6-1.5,1.6h0Z"/>
  <path class="cls-12" d="m154.3,141.6c-9.7-.2-19.4-1.1-29.1-1.1-13.3,0-26.5-.4-39.8-1.3-5.9-.5-12-.5-17.7-1.6-1.1-.4-1.2-1.7-1.2-2.7-.2-2-.2-3.9.2-5.8,0-.9.9-1.7,1.8-1.5,1.6.3,1.2,2.1.9,3.3-.2,1.3.1,2.7.1,4,13.9,1.4,27.9,2.1,41.8,2.5,13,0,25.9.3,38.9,1.2.9.1,1.8,0,2.6,0h1.6c.8-.3,1.6.2,1.9.9.3,1.1-.6,1.9-1.6,2h-.2c-.1.1-.2.1-.2.1h0Z"/>
  <path class="cls-12" d="m90.7,64.8c-.3-.7.9-1.1,1.4-1.1.8-.1,2-1.1,2.5-.1.1.3-.1.6-.4.7-.9.3-1.8.5-2.7.8-.3.1-.7,0-.8-.3h0Z"/>
  <path class="cls-12" d="m77.4,68.9c-.4-.8.7-1.1,1.2-1.5.5-.3,1.2-.9,1.6-.3.2.3,0,.8-.4.9-.7.3-1.7,1.7-2.4.9h0Z"/>
  <path class="cls-12" d="m68.5,50.9c-.1-.3.1-.6.4-.7,1-.3,2.1-.5,3.2-.8.3-.1.6.1.7.4.1.3-.1.6-.4.7-1.1.2-2.2.5-3.3.8-.3,0-.5-.2-.6-.4h0Z"/>
  <path class="cls-12" d="m193.9,101.5c-.2-.2-.2-.6,0-.8.6-.6,1.1-1.3,1.6-1.9.3-.4.8-1,1.3-.6.3.3.2.7-.1,1-.6.8-1.3,1.5-1.9,2.3-.3.2-.7.2-.9,0h0Z"/>
  <path class="cls-12" d="m195.3,103.4c-.6-.7.6-1.3.9-1.8.4-.4.9-1.2,1.5-.6.2.2.2.6-.1.8-.7.4-1.4,2.2-2.3,1.6h0Z"/>
</svg>