<?xml version="1.0" encoding="UTF-8"?>
<svg id="Layer_1" data-name="Layer 1" xmlns="http://www.w3.org/2000/svg" viewBox="0 0 255.65 280.92">
  <defs>
    <style>
      .cls-1 {
        fill: #503136;
      }

      .cls-2 {
        fill: #613d43;
      }

      .cls-3 {
        fill: #382a29;
      }

      .cls-4 {
        fill: #503035;
      }

      .cls-5 {
        fill: #786757;
      }

      .cls-6 {
        fill: #381f23;
      }

      .cls-7 {
        fill: #5c4e4e;
      }

      .cls-8 {
        fill: #443636;
      }

      .cls-9 {
        fill: #613d42;
      }

      .cls-10 {
        fill: #3d1a17;
      }

      .cls-11 {
        fill: #f9e9d0;
      }
    </style>
  </defs>
  <g id="Capa_de_vector17" data-name="Capa de vector17">
    <g>
      <path class="cls-8" d="m47.96,124.42c.8.6.1,1.8-.8,1.7.3-.6.5-1.2.8-1.7-.1-.1-.1-.2-.1-.2q0,.1.1.2c-.1,0,0,0,0,0h0Z"/>
      <path class="cls-8" d="m54.76,170.92c.6.2,1.1.4,1,1.1,0,.2-.2.4-.3.6-.2-.2-.3-.4-.5-.6-.2-.2-.3-.4-.4-.6-.1-.2-.2-.4-.4-.5h0c-.1-.2-.2-.3-.3-.5-.2-.3-.4-.6-.6-.9h0c-.2-.3-.4-.6-.5-.9-.2-.3-.3-.6-.5-.9.6.7,1.2,1.3,1.8,2q.1,0,.2.1c.4.1.6.6.5,1.1h0Z"/>
      <path class="cls-8" d="m116.26,78.42c1.4-.1,2.8-.1,4.1-.1-4.7.4-9.3,1.5-13.9,2.3-2.8.5-5.6,1-8.4,1.6,6-1.7,12.1-3,18.2-3.8h0Z"/>
      <path class="cls-8" d="m149.26,140.52c0-.3,0-.5-.2-.8-.1-.1-.3-.2-.5-.3-.3-.4-.9-.8-1.5-1.2-.6-.4-1.2-.7-1.6-.9-3.8-2.7-7.3-5.6-10.9-8.4-.6-.4-1.1-.9-1.7-1.3-2.7-2-5.2-4.1-7.9-6.2-.4-.3-.7-.6-1.1-.9-.7-.6-1.4-1.2-2-1.8-1.2-1.1-2.5-2.1-4-2.8-.2-.1-.5-.2-.7-.3-.2-.2-.5-.2-.8-.2-.2,0-.4.2-.6.3-.3.3-.4.7-.2,1.1.3,6.2-.1,12.4-.2,18.6.1,5.5.8,11,.9,16.6.2,2,0,11.4,1.8,12.6.1,0,.2.1.2.1.3,0,.6,0,.8-.2.2-.1.3-.3.4-.5.1,0,.2-.1.4-.2,1.4-.9,2.6-2.1,4-3,.1,0,.2-.1.2-.2,3.7-2.4,6.9-5.4,10.1-8.2,1.3-1.2,2.7-2.4,4-3.5.2-.2.5-.4.7-.5,2.1-1.6,4-3.4,6.1-5,1-.8,2.1-1.5,3.2-2.2.6.1,1-.3,1.1-.7h0Zm.7-2.1c1.2.4,2,1.2.8,2.3-2.8,2.8-6.2,5.1-9.2,7.8-1.8,2.4-4.2,4.1-6.6,5.9-2.3,2-4.5,4-6.9,6-1.7,1.7-3.5,3.2-5.4,4.5-.9.5-1.4,2-2.6,1.6-.2-.1-.4-.2-.5-.4-.2.2-.4.4-.7.6-.4.3-.9.5-1.4.3-.6-.2-.8-.9-.5-1.4-.5-3.5-1-6.9-1-10.4-.7-4.8-.9-9.8-1.1-14.6-.5-5-.7-10-.5-15.1-.1-3.5-.3-6.8-.3-10.3.1-.8-.1-1.6.1-2.3.3-.8,1.4-.9,1.9-.3,1.3.2,3.2,2.2,4,2.7,4.4,3,8.6,6.2,12.6,9.5,3.1,2.5,5.9,5.2,9.2,7.5,2.8,2,5.6,3.9,8.1,6.1h0Z"/>
      <path class="cls-8" d="m188.16,100.32c3.1,2.6,5.9,5.6,8.2,8.8-2.6-3.2-5.4-6.3-8.7-8.9-.7-.6-1.4-1.2-2.1-1.8.9.6,1.8,1.2,2.6,1.9q.6.4,0,0h0Z"/>
      <path class="cls-11" d="m52.16,98.12h0c0,.1-.1.3-.1.4-3.9,3.6-7.1,7.8-9.7,12.3-.3.7-1,1.6-1.3,2.5q-.1-.1-.2-.2c.4-.6.7-1.1.9-1.5.8-1.4,1.6-2.7,2.5-4,1.2-2.7,5.8-7.2,6.5-8.2.3-.3.6-.7,1-1,.1-.1.2-.2.3-.4,0,.2,0,.1.1.1h0Z"/>
      <path class="cls-11" d="m75.66,91.72c-.5.3-.9.7-1.4,1-4.8,3.4-9.8,6.8-13.8,11.1-5.3,6.1-9.1,13.4-12.6,20.5v.1c-.2-.2-.4-.3-.5-.5.7-.1.8-.8,1.1-1.3.5-1.2,1.1-2.3,1.5-3.4,1.3-2.4,2.4-4.8,4-7,1.2-1.9,2.2-3.9,3.8-5.6,4.8-6.1,11.1-11,17.9-14.9h0Z"/>
      <path class="cls-11" d="m97.36,73.52c-.1.1-.1.2-.1.3-7.5,1.7-14.8,4.3-21.7,7.7.1,0,.2-.1.2-.1,2.8-1.6,5.9-3.2,9.1-4,4-1.8,8.2-3,12.5-3.9h0Z"/>
      <path class="cls-11" d="m121.46,70.32h2.9c-.2.1-.4.1-.6.2-.1,0-.1.1-.2.1-3.9,0-7.8.1-11.6.4,3.1-.3,6.3-.6,9.5-.7h0Z"/>
      <path class="cls-11" d="m185.56,98.42c-2.7-1.9-5.4-3.6-8-5.6-.2-.2-.4-.3-.7-.5-3.1-2-6.1-3.9-9.3-5.4-2.8-1.1-5.6-2.2-8.4-3.2.3.1.7.2,1,.2h0c.4.2.8,0,1-.2.2.1.3.1.5.2,1.9.8,4,1.3,5.8,2.3.9.5,1.6,1.5,2.7,1.6h.5c5.3,3.1,10.2,6.7,14.9,10.6h0Z"/>
      <path class="cls-11" d="m191.36,90.92c-2-1.4-4.1-2.7-6.3-3.8-.5-.3-.9-.6-1.4-.9-1-.6-2-1.2-3-1.8h0c-2.6-1.6-5.3-3-8-4.4-2.8-1.3-5.7-2.4-8.6-3.5-1.4-.6-2.8-1.1-4.2-1.4-1.6-.5-3.1-1.1-4.7-1.1-1.3-.4-2.6-.8-3.8-1.1-4.8-1-9.7-1.9-14.6-2.4.8-.1,1.9.2,2.6.2,3.2.4,6.3.5,9.5,1.2,7.9,1.9,15.6,4.3,23.1,7.3,3.6,1.6,7.5,2.8,10.8,5.1,2.9,2,5.8,4.3,8.6,6.6h0Z"/>
      <path class="cls-11" d="m216.66,121.02c-.1-.1-.1-.2-.2-.2-.1-.1-.2-.1-.3-.2-1-1.8-2.1-3.5-3.2-5.2-1.2-2.2-2.5-4.5-4.2-6.4.1-.2.1-.5-.1-.9,3.3,4,6.3,8.2,8,12.9Z"/>
      <path class="cls-11" d="m220.86,132.82c1.7,6.2,2.2,12.6,1.5,19-.7,4-2.4,7.8-3.8,11.5-.8,2.1-1.8,4.2-3,6.1-.2.4-.4.9-.8,1.2-.1.2-.2.4-.3.6-1.1,2.5-2.8,5-4.2,7.3-2.3,3.7-5,7.1-8.1,10.3-.8.8-1.6,1.5-2.3,2.3-.5.5-1.1,1-1.6,1.5-1.8,1.4-3.5,2.9-5.4,4.3-.7.5-1.4.9-2.1,1.4-3,1.7-6,3.6-9,5.3-1.5.7-3,1.4-4.5,2.1-.8.4-1.5.7-2.3,1.1-.1,0-.2.1-.2.1-.7.3-1.4.6-2.1.9h-.1c-1.5.6-3.1,1.2-4.7,1.7-.4.2-.9,0-1.2-.4-4.9,1.8-9.9,3.3-15,4.6-3.3.6-6.5,1.2-9.8,1.7-2.9.1-5.9,0-8.8.2-1.3.1-2.6.2-3.9.2s-2.6-.1-3.9-.2h-.1c-.9-.1-1.8-.1-2.8-.2h-1c-6.4-.4-12.7-1.1-18.8-2.4-.9-.2-1.8-.5-2.7-.7,0-.7-.3-1.2-1.1-1.3-.4,0-.7.2-.9.5-.2-.1-.4-.1-.7,0h0c-1-.4-2.1-.8-3.2-1.1-1.3-.5-2.6-1.1-3.9-1.7-.5-.2-1-.5-1.6-.7-4.6-1.3-9-3-13-5.4-2.6-1.4-5.3-2.7-7.6-4.6-2.2-1.5-4.2-3.2-6.5-4.6-4.8-3.2-8.8-7.3-12.6-11.5h0v-.5c.1-.7-.5-1.2-1.2-1.1,0-.6-.2-1.1-1-1.2h0c-3.9-5.3-7.1-11-9.2-17.2-2.1-4.6-3.2-9.5-4-14.4-.4-2.2-.3-4.5-.1-6.8h0c-.5-.3-.6-.8-.7-1.3-.4-3,.1-6.2,1.1-9,1.2-4.5,3-9,5.3-13.2.1-.5.3-1.1.6-1.7.4.8,1.1,1.7,1.3,2.3,1.6,3,3.1,6.1,5.8,8.3.2.1.3.2.5.2-.4,1.3-.9,2.6-1.2,3.9-.4,1.3-.7,2.5-.9,3.8-.1.5-.2,1.1-.3,1.7v.1h0v.1c-.1.3-.1.5-.1.8l.1.1c.2.2.3.3.3.6.2,3.4.3,6.8.7,10.1,0,.3.1.5.1.8,0,.2.1.3.1.5.1.5.2,1,.3,1.4.1.2.1.5.1.7v.1c0,.2.1.5.1.7v.1c.7,2.6,1.6,5.2,2.5,7.8.4,1.1,1,2,1.5,3,.1.1.1.2.2.3,0,0,.1.1.1.2.1.2.1.5,0,.8,0,.1-.1.2-.2.2.4.7.7,1.5,1.1,2.2.2.5.5.9.7,1.3l.1.1c.3.6.7,1.2,1.1,1.8.3.5.6.9.9,1.3h0c.1.2.2.4.4.5.3.4.6.8.9,1.3.4.6.9,1.2,1.4,1.7,1.2,1.5,2.4,3,3.7,4.4.4.5.9,1,1.3,1.4h.1c.5,0,.9.4.9.9v.3l.1.1c.1,0,.1.1.1.1.2.2.4.3.5.5.7.2.8.8.6,1.3.8.7,1.6,1.4,2.4,2.1,4.3,3.5,9.2,6.4,14.4,8.7,1.7.8,3.3,1.6,5,2.3.1,0,.2.1.3.1,2.2,1,4.4,1.9,6.6,2.8h0c.8.3,1.5.6,2.3.9l2.1.5h0c4.9,1.2,9.9,2.4,14.8,3.5,4,.8,8.1,1.5,12.2,1.8,3,.2,5.9.3,8.9,0,4.1-.1,8.2-.5,12.3-1.1h0c.1-.4.5-.8,1-.8,2.3-.1,4.4-.6,6.6-1.2,5.6-1.5,10.9-3.8,16.2-5.8.5-.2,1.1-.4,1.6-.6.3-.1.5-.3.8-.4,1.5-.8,3-1.7,4.5-2.5,3-1.6,5.9-3.5,8.5-5.5.1-.2.3-.3.5-.4,1.6-1.2,3.1-2.6,4.6-4,1-.9,2-1.8,3-2.7,1.5-1.4,2.9-2.9,4.2-4.6,3.5-4.2,6.2-8.9,8.3-13.8v-.5c.8-2.1,1.3-4.2,1.8-6.4,1.6-7.5,2.2-15.5.9-23.1-.1-.5-.2-.9-.2-1.4.2.1.3.1.5.1.6,0,.9-.5,1.2-.9,2.2-2.3,3.9-4.7,6.1-7,.3-.4.8-.9,1.1-1.4.3.7.6,1.5.9,2.2.9,2.9,2.2,5.6,3,8.6h0Z"/>
      <path class="cls-6" d="m48.76,180.62s0,.1,0,0c-.8,3.4-1,6.7-1.4,10s.1,6.6.3,9.9v.5c-.1-.6-.3-1.2-.4-1.8v-.2c0-.1-.1-.2-.1-.3v-.1c-.1-.4-.1-.8-.1-1.2-.7-5,0-10.1.4-15.2-.1-.6.2-1.4.1-2.1.6,0,1,.2,1.2.5h0Z"/>
      <path class="cls-6" d="m98.56,213.32c.2,5.3.3,10.7.2,16,0,.3-.2.6-.4.7-.1,0-.1.1-.2.1v-.1c-.6-4.7-.6-9.4-.7-14.1.2-.9-.2-3.5.5-4.5.6.4.7,1.2.6,1.9h0Z"/>
      <path class="cls-9" d="m47.66,180.12c0,.7-.2,1.6-.1,2.1-.5,5-1.1,10.1-.4,15.2,0,.4.1.8.1,1.2v.1c0,.1,0,.2.1.3v.2c0,1-1.8,1.3-2.1.2-.1-.4-.1-.8-.2-1.1-.3,0-.6-.1-.8-.3-.6-.6-1.2-1.2-1.5-2h0c-1.9-3.2-3.6-6.5-5.5-9.7-.2-.4-.5-.8-.8-1.2-.1,0-.3-.1-.4-.2-.7-.7-.7-1.6-.9-2.5-.7-2.2-.5-4.5-.6-6.8-.1-4.2-.3-8.3-.1-12.5,0-.3,0-.6.1-.9-.4-1.3-.6-2.8.5-3,.7-.2,1.5.5,1.3,1.1.9,4.1,2.3,8.4,5.1,11.8,1.7,2.3,3.5,4.5,5.1,6.8h0c.9.1,1.1.6,1.1,1.2h0Z"/>
      <path class="cls-11" d="m149.06,139.72c.6.6.1,1.7-.8,1.6-3.7,2.1-6.7,5.2-10.1,7.7-4.8,4-9.1,8.5-14.4,11.9-1.4,1-2.6,2.1-4,3-.1.1-.2.1-.4.2-.2.5-.5.8-1.2.7-2-.5-1.7-10.6-2-12.7-.1-5.5-.8-11-.9-16.6.1-6.2.5-12.4.2-18.6-.5-1,.8-1.8,1.6-1.2,3.1,1.1,5.2,3.9,7.8,5.8,2.8,2.1,5.3,4.2,7.9,6.2,4.3,3.2,8.3,6.6,12.6,9.7.7.5,2.4,1.2,3.1,2,.3.1.4.2.6.3h0Z"/>
      <path class="cls-5" d="m54.76,170.92c.6.2,1.1.4,1,1.1,0,.2-.2.4-.3.6-.2.2-.5.3-.8.2-2-.3-3.9-.9-5.8-1.4-1-.3-2.8-.7-2.1-1.9.3-.5.9-.6,1.3-.4.1,0,.2.1.2.1.4.2.8.3,1.2.4,1.4.4,2.8.7,4.2,1.1.1,0,.3,0,.4.1h0c.2,0,.5,0,.7.1h0Z"/>
      <path class="cls-5" d="m54.16,169.72c.5.2.7.7.6,1.2v.1c-.1.1-.1.2-.2.3-.3.3-.8.3-1.2.2-1.3-.4-2.5-.9-3.8-1.3-.6-.1-1.2-.5-1.3-1v-.3c.2-.5.8-.8,1.3-.7.1,0,.2.1.4.1,1.1.3,2.2.7,3.3,1.1.2.1.5.2.8.3t.1,0h0Z"/>
      <path class="cls-5" d="m54.06,169.72c.3.3.2.7.1,1h0c-.2.4-.7.6-1.2.5-1.1-.4-2.1-.8-3.2-1.3-.1-.1-.2-.2-.3-.3-.2-.5-.1-1.1.5-1.3h.1c-.6-.7-.1-1.8.8-2h.5c.6.1,1,.8.7,1.3h0l.1.1c.6.6,1.2,1.3,1.9,2-.1,0,0,0,0,0h0Z"/>
      <path class="cls-5" d="m45.66,147.42c.3.2.5.7.3,1.1,0,.1-.1.1-.1.2-.3.4-.8.5-1.2.3-1.7-.8-3.2-1.9-4.7-3-.6-.6-1.8-1.2-1.8-2,0-.2.1-.3.2-.5.2-.3.7-.5,1.1-.4.1,0,.2.1.3.2.1.1.2.2.3.3,1.1.9,2.1,1.8,3.4,2.5.5.3,1,.6,1.4.9.1.1.3.2.4.2.1.1.3.1.4.2h0Z"/>
      <path class="cls-5" d="m41.56,131.12c.2.4,0,1-.2,1.5-.1.2-.2.4-.2.5s-.1.1-.1.2c-.5,1.5-.6,3-.8,4.5-.2,1.8-.5,3.8-.3,5.5v.1c0,.2,0,.3-.1.5-.3.7-1.5.8-1.9,0-.1-.1-.1-.2-.1-.3-.2-1.7.3-13.9,2.9-13.2.5.3.7.5.8.7h0Z"/>
      <path class="cls-5" d="m44.16,135.62c-1.5-.9-3-1.9-4-3.2-.5-.9.9-1.8,1.7-1.1,1.1,1.2,2.2,1.9,3.6,2.8,1,.7-.2,2.2-1.3,1.5h0Z"/>
      <path class="cls-5" d="m43.66,147.02c-1.2-.8-2.3-1.8-3.4-2.7-.6-.5-1.3-1.3-.6-2-.6-2.9.5-5.8.7-8.7h0v.1c-.1-1.7,2.5-1.3,2.1.3.3,0,.6.2.7.4.9-.4,1.7.5,1.5,1.3-.1,2.1-.1,4.1.1,6.2-.2,1.3,2,6-1.1,5.1h0Z"/>
      <path class="cls-5" d="m216.86,121.42c0,.3-.1.5-.2.8h0c-.3.5-.8,1-1.1,1.4-2.2,2.3-3.9,4.7-6.1,7-.3.4-.6.9-1.2.9-.2,0-.3,0-.5-.1-.4-.2-.7-.6-.6-1.1.1-.2.2-.3.3-.4s.1-.1.2-.2c-.1-.1-.2-.2-.3-.4-.4-.8-.5-1.9-.9-2.6-1.4-3.3-2.9-6.7-4.5-9.9-1.1-2.6-3-4.7-4.8-6.9-2.8-3.5-5.8-6.9-9.3-9.7-.7-.6-1.4-1.2-2.1-1.8-4.7-3.9-9.6-7.5-15-10.5-.1,0-.3.1-.5,0-1.1-.2-1.8-1.1-2.7-1.6-1.8-1-3.8-1.5-5.8-2.3-.2-.1-.3-.1-.5-.2-.3.2-.7.3-1,.2h0c-.3-.1-.7-.2-1-.2-5.2-1.4-10.3-3.1-15.6-4.1-.3-.1-.7-.1-1-.2-.9-.1-1.8-.2-2.6-.3h-.1c-5-.5-10-.9-15-1.2-.2.1-.4.2-.7.2-6,0-11.8,1.4-17.7,2.4-5.6,1-11.4,2-16.6,4-4.1,1.9-8.4,3.5-12.2,6-.7.4-1.3.8-2,1.1-6.8,4-13.2,8.9-17.9,14.9-1.6,1.6-2.6,3.7-3.8,5.6-1.7,2.2-2.8,4.6-4,7-.5,1.2-1.1,2.3-1.5,3.4-.3.5-.4,1.2-1.1,1.3.2.2.3.4.5.5l.1.1c.8.6.1,1.8-.8,1.7-.2,0-.3-.1-.5-.2-2.6-2.3-4.2-5.4-5.8-8.3-.2-.6-.9-1.5-1.3-2.3-.4-.8-.6-1.6.1-2.1.3-.2.8-.2,1.1,0,.1,0,.2.1.2.2.4-.9,1.1-1.8,1.3-2.5,2.6-4.5,5.8-8.7,9.7-12.3,0-.2,0-.3.1-.5.3-.7,1.1-1.4,1.5-1.8,2.8-2.7,5.8-5.3,9.1-7.5,4.1-2.6,8.3-5.1,12.8-7.3,6.9-3.4,14.1-6,21.7-7.7,0-.1.1-.2.1-.3s.1-.2.2-.2c4.7-1.1,9.5-1.8,14.3-2.2,3.9-.3,7.8-.5,11.6-.4.1,0,.1-.1.2-.1.2-.1.4-.2.6-.2,1.9-.5,4-.1,6-.1,2.1,0,4.3.2,6.4.4,4.9.5,9.8,1.4,14.6,2.4,1.3.3,2.6.7,3.8,1.1,1.6,0,3.2.6,4.7,1.1,1.4.3,2.8.8,4.2,1.4,2.9,1,5.8,2.1,8.6,3.5,2.7,1.4,5.5,2.8,8,4.4h0c1,.6,2,1.2,3,1.8.5.3.9.6,1.4.9,2.2,1.2,4.3,2.4,6.3,3.8.8.6,1.6,1.1,2.4,1.7,1.7,1.3,13.6,11.8,15,15.4.1.4.2.7.1.9,1.7,2,3,4.2,4.2,6.4,1.1,1.7,2.2,3.4,3.2,5.2.1,0,.2.1.3.2.1.1.1.2.2.2.1,0,.1.1.2.2h0Z"/>
      <path class="cls-11" d="m216.96,140.92c-.8-11.2-5.9-21.8-11.3-31.7-2.5-4.5-6.1-8.6-9.2-12.7-.4-1,1.1-1.8,1.8-.9,1.4,1.7,2.7,3.4,4,5.1l-.1-.1c6.7,8.2,10.8,17.9,14.4,27.6,1.1,3.2,1.6,6.4,2.2,9.7-.1,1.2,1,3.6-.7,3.9-.5,0-1.1-.4-1.1-.9h0Z"/>
      <path class="cls-11" d="m217.26,130.52c-3.1-11.6-9.8-21.8-17.8-31.1-1.4-.5-.4-2.4.9-1.7,2.3,1.9,3.9,4.6,5.8,6.9,2.7,3.7,5.4,7.3,7.4,11.4,2.5,4.4,4.2,9.1,5.6,13.9.5,1.1-1.5,1.8-1.9.6h0Z"/>
      <path class="cls-11" d="m217.46,133.72c-.5-.1-.9-.6-.8-1.1-.1-1-.4-2-.7-3-1.9-5.8-4.2-11.6-7.2-16.9-.4-.4-.3-1,.1-1.4,1.1-.8,1.9.6,2.3,1.4.9,1.5,1.6,3.3,2.3,4.8,1.6,3.4,3,6.9,4.1,10.4.2,1.4,2.5,5.9-.1,5.8h0Z"/>
      <path class="cls-11" d="m215.26,133.92c-1.8-6.5-3.2-13.3-5.6-19.6-.3-1.1,1.4-1.6,2-.6,2.4,6.1,3.6,12.5,5.3,18.7.1.4.2.8.3,1.1.4,1.2-1.7,1.6-2,.4h0Z"/>
      <path class="cls-3" d="m219.06,168.22c.1.3.1.7-.1,1-.5.8-.9,1.6-1.4,2.4,1.3.3.8,1.7,0,3.3h0c.1,1.7-.1,3.4,0,5.1-.1.6.4,1.3-.1,1.8-.1,1.2-.2,2.5.1,3.7-.1.8-.4,1.6-.6,2.4-.4.9.1,2.4-1.1,2.9-.1.4-.2.8-.6,1-.7,1.4-2.1,2.5-3,3.8-1,1.7-2.2,3.1-3.6,4.5-2.2,2-4.2,4-6.3,6.1-1.3,1-2.5,1.8-3.6,2.9-5.2,4.8-11.6,8.3-17.5,12.2-4.3,2.2-9,3.8-13.4,5.9-9.1,3.4-18.2,7.9-28.3,7.8-3.6-.1-7.3-.1-10.9-.4-1.9-.3-3.7-.6-5.6-.5-2.6,0-5.1-.8-7.7-.9-1.4-.1-2.8-.1-4.2-.5-3.2-.9-6.2-2.2-9.5-2.6-.5-.1-1.1-.1-1.6-.2-.1.2-.3.4-.7.5-.5.1-1-.1-1.2-.5.2-.2.4-.4.4-.7.1-5.3,0-10.7-.2-16,.1-.7-.1-1.7-.6-2,.2-.2.4-.4.9-.5.8.1,1.1.6,1.1,1.3v.1c.9.2,1.8.4,2.7.6,6.1,1.3,12.5,2,18.8,2.4,1.2.1,2.5.2,3.7.2h.1c1.3.1,2.6.1,3.9.2,2.6.1,5.1.2,7.6.2,1.7-.1,3.4-.3,5.2-.5,3.3-.5,6.5-1.1,9.8-1.7.4-.1.9-.2,1.3-.2,5.8-1.1,11.7-2.4,17.1-4.6.8-.3,1.7-.7,2.5-1.1h.1c.7-.3,1.4-.6,2.1-.9.1,0,.2-.1.2-.1,1.5-.7,3-1.3,4.4-1.9.8-.4,1.6-.8,2.4-1.3,3-1.7,6-3.5,9-5.3.7-.5,1.4-1,2.1-1.4,1.2-.8,2.4-1.5,3.5-2.3.3-1,2.2-2,2.7-2.8l.7-.7c.8-.8,1.6-1.5,2.3-2.3,1.4-1.3,2.7-2.6,4.1-4,.7-.7,1.4-1.5,2.3-2.1.3-.4.5-.7.8-1.1-.2-.7.7-1.7,1.1-2.3.6-.9,1.2-1.8,1.8-2.7.1-.2.2-.5.4-.7.2-.9.6-1.7,1.1-2.6.1-.2.2-.5.2-.7.1-.2.3-.4.5-.5.3-.5.6-1,.8-1.4.4-.6.7-1.6,1.6-1.8.4-.8,1.5-1.8,2.4-.5h0Z"/>
      <path class="cls-11" d="m117.06,165.72c-.5-3.5-1-7-1-10.5-.7-4.8-.9-9.8-1.1-14.6-.5-5-.7-10-.5-15.1-.1-3.5-.3-6.8-.3-10.3.1-.8-.1-1.6.1-2.3.3-.9,1.8-.9,2.1,0-.2,4,.1,8,.2,12-.1,5.1-.1,10.3.5,15.3.2,4.9.3,9.9,1.1,14.7.1,3,.2,6,.8,9,.1.6.1,1,.2,1.5.1,1.3-1.9,1.6-2.1.3h0Z"/>
      <path class="cls-11" d="m117.46,167.02c-.9-.3-.8-1.5,0-1.8,2.3-2.3,4.7-4.6,7.5-6.4,1.8-1.8,3.9-3.7,5.9-5.2,2.2-2.2,4.9-4.1,7.5-6,1.8-1.4,3.6-2.8,5.3-4.2.4-.3,1.1-.1,1.4.2.3.4.3.9-.1,1.3-1.5,1.4-3.3,2.6-4.9,3.9-4.5,3.3-8.9,6.8-12.9,10.7-1.5,1.6-3.7,2.5-5.1,4.1-1.1,1-2.1,2.1-3.2,3.1-.4.3-.9.5-1.4.3h0Z"/>
      <path class="cls-11" d="m119.96,166.42c-2.3-1.2,2.7-4.3,3.6-5.3,1.2-1,2.3-2.1,3.4-3.2.3-.3.6-.4,1-.4,3.2-2.4,6.1-5.2,9.4-7.5,1.3-1.2,2.2-2.7,3.6-3.8,2.7-2,5.1-4,7.5-6.1-1.2-.3-3.5,1-3.9-.6-.1-1.5,2.2-1.1,3.4-1.3,1.6-.2,4.7.8,2.9,2.5-2.8,2.8-6.2,5.1-9.2,7.8-1.8,2.4-4.2,4.1-6.6,5.9-2.3,2-4.5,4-6.9,6-1.7,1.7-3.5,3.2-5.4,4.5-1.1.4-1.6,2-2.8,1.5h0Z"/>
      <path class="cls-11" d="m149.46,140.62c-4.4-2-7.7-5.7-11.4-8.6-6.1-3.9-12.3-7.5-18.3-11.6-.9-.9-2.2-1.5-2.9-2.5-.6-1,1.1-2,1.8-1,1.9,1.9,4.4,3.3,6.8,4.7-3.2-2.6-6.7-4.9-10-7.3-.4-.2-.7-.6-.6-1.1.9-2.3,4,1.4,5.2,2,4.4,3,8.6,6.2,12.6,9.5,3.1,2.5,5.9,5.2,9.2,7.5,2.9,2.2,5.9,4.2,8.5,6.7.8.7.1,1.9-.9,1.7h0Z"/>
      <path class="cls-11" d="m132.96,130.12c-4.3-4.9-9.4-9-14.8-12.7-.7-.5-1.4-1-2.2-1.5-.5-.1-.8-.6-.7-1.1.1-.4.5-.8,1-.8s1,.4,1.4.6c1.3,1,2.7,1.9,4.1,2.9,3.7,2.7,7.3,5.5,10.4,8.8.6,1,3.5,2.7,2.2,3.9-.4.4-1.1.4-1.4-.1h0Z"/>
      <path class="cls-2" d="m45.86,201.02c-.3-3.4-.8-7-.4-10.4.3-2.7.5-5.3,1-8,.3-1.1,0-3.1,1.6-3,.5.1.9.6.8,1.1-.8,3.3-1,6.6-1.4,10-.4,3.3.1,6.6.3,9.9.2,1.2-1.6,1.6-1.9.4h0Z"/>
      <path class="cls-3" d="m98.26,230.02c-.6-4.7-.6-9.4-.6-14.1.3-1.2-.5-5.5,1.6-4.9,1,.5.4,1.6.4,2.4-.3,5.2-.1,10.4.4,15.6,0,.1,0,.3.1.4.3,1.3-1.6,1.8-1.9.6h0Z"/>
      <path class="cls-3" d="m216.66,171.12c-.5-.2-.8-.7-.6-1.2.6-1.4.8-3.2,2-4.2,1.1-.5,1.9.9,1,1.7-.5,1-.8,2-1.2,3.1-.2.5-.7.8-1.2.6Z"/>
      <path class="cls-4" d="m98.26,230.02s0,.1,0,0c-.5.4-1.4.2-1.5-.5h-.1c-8.7-1.7-16.9-5-24.5-9.2-5.9-3.4-11.2-7.6-16.7-11.6-.2-.2-.3-.4-.4-.6-2.1-1.7-3.9-3.7-5.9-5.5h-.3c-.6,0-1-.4-1.1-.9-.1-.2-.1-.5-.2-.7.1-.2.1-.3,0-.5-.3-3.3-.8-6.6-.3-9.9.4-3.3.6-6.7,1.4-10v-.1c.1.2.1.3.1.6v.8c.2.1.4.3.6.5,5,5.7,10.5,11.5,17.1,15.5,4.3,2.3,8.5,4.9,13.1,6.8,1,.5,2,1,3,1.4h.1c.6.2,1.1.5,1.7.7.2.1.4.2.5.4.1,0,.2.1.4.1,2.7,1.2,5.8,1.8,8.8,2.6,1.1.3,2.2.7,3.2,1.1h0c.3-.1.5-.1.7,0,.1,0,.1.1.1.1-.7,1-.3,3.6-.5,4.5,0,5,0,9.8.7,14.4h0Z"/>
      <path class="cls-1" d="m96.86,229.72c-.8-4.1-.9-8.4-.7-12.6.2-2.1-.3-4.4.5-6.4.7-1,2.3-.1,1.7,1-.4,5.2-.3,10.4.1,15.6.1.7.2,1.3.4,1.9.1,1.3-1.7,1.7-2,.5h0Z"/>
      <path class="cls-2" d="m46.46,201.52c-.5-6.6,0-13.5,1-20,.5-.9,2.1-.3,1.8.7-.7,6.2-1.2,12.5-.9,18.7v-.2c.3,1.2-1.4,1.9-1.9.8h0Z"/>
      <path class="cls-7" d="m150.76,140.72c1.2-1.1.4-1.9-.8-2.3-2.5-2.3-5.3-4.1-8-6.2-3.3-2.3-6.1-5-9.2-7.5-4-3.4-8.2-6.6-12.6-9.5-.8-.5-2.7-2.5-4-2.7-.5-.5-1.6-.4-1.9.3-.2.7,0,1.5-.1,2.3,0,3.5.2,6.8.3,10.3-.2,5,0,10,.5,15.1.2,4.9.3,9.8,1.1,14.6,0,3.5.5,7,1,10.4-.3.5-.1,1.2.5,1.4.5.2,1,0,1.4-.3.2-.2.4-.4.7-.6.1.1.2.3.5.4,1.2.4,1.7-1.1,2.6-1.6,1.9-1.4,3.8-2.8,5.4-4.5,2.4-1.9,4.6-4,6.9-6,2.4-1.8,4.8-3.5,6.6-5.9,2.9-2.5,6.3-4.8,9.1-7.7h0Zm57.2-7.9c1.3,7.6.7,15.5-.9,23.1-.5,2.2-1,4.3-1.8,6.4v.2c-.3.6-.7,1.2-1.1,1.9-1.1,1.8-2.2,3.6-3.3,5.4.1.5-.1,1-.4,1.5-1.5,2.3-3.2,4.4-4.9,6.5-.9,1.1-1.8,2.3-2.6,3.4-1,.9-2,1.8-3,2.7-1.5,1.4-3,2.7-4.6,4-.2.1-.4.2-.5.4-2.7,2.1-5.5,3.9-8.5,5.5-1.5.8-3,1.7-4.5,2.5-4.5,1.9-9.2,3.4-14,4.6s-9.5,2.9-14.5,3.7c-5.1.8-10.3,1.3-15.4,1.6h-3.5c-4.1-.3-8.2-1-12.2-1.8-4.9-1.1-9.9-2.3-14.8-3.5h0c-1.4-.5-2.9-.9-4.4-1.4h0c-2.2-.9-4.4-1.8-6.6-2.8-.1,0-.2-.1-.3-.1-3.7-1.8-7.4-3.6-10.8-5.8-4.3-3-8.6-6.1-12.4-9.7,0-.5-.4-.8-.9-.9-.5-.5-1-1-1.5-1.4-1.3-1.4-2.5-2.8-3.7-4.4-.4-.5-.7-.9-1.1-1.4-.1-.1-.2-.2-.3-.3.2-.2.3-.3.3-.6.1-.7-.4-1-1-1.1.1-.5-.1-1-.6-1.2q-.1,0-.2-.1c-.6-.7-1.2-1.3-1.8-2h0v-.1c.2-.5-.2-1.2-.7-1.3-.2-.3-.4-.7-.6-1-.2-.4-.4-.8-.6-1.1.1-.1.1-.2.2-.2.1-.3.1-.5,0-.8,0-.2-.1-.3-.2-.4l-.1-.1c-.5-1-1.1-2-1.5-3-.9-2.6-1.8-5.2-2.5-7.8v-.1c0-.2-.1-.5-.1-.7v-.1c.1,0,.2.1.3.2-.2-.9-.3-1.7-.5-2.6.1-.2,0-.4-.1-.6-.2-2-.3-3.9-.2-5.9.2-1.5.4-3,.6-4.5.1-2.5.3-4.8.8-7h-.4c-.3-.1-.5-.2-.7-.3.1-.2.1-.5.2-.7s.1-.4.2-.6.1-.4.2-.6c.1-.3.2-.6.3-1,.1-.3.2-.6.3-1,.9.1,1.6-1.1.8-1.7l-.1-.1v-.1c3.5-7.1,7.3-14.4,12.6-20.5,3.9-4.3,8.9-7.7,13.8-11.1.3-.2.5-.4.8-.6.2-.2.4-.3.6-.4h0c.7-.4,1.3-.8,2-1.1.1-.1.2-.1.3-.2,5.6-3,11.6-5.4,17.6-7.5.8-.2,1.7-.5,2.5-.7h0c2.8-.6,5.6-1.1,8.4-1.6,4.6-.8,9.2-1.9,13.9-2.3,5.2,0,10.4.4,15.5,1.1,0-.2.1-.4.2-.5,1.2.1,2.5.2,3.7.3h.1c.8.1,1.6.2,2.4.3,1.9.5,3.7,1.1,4.3,1.1,10.6,2.8,21.4,6.7,30.9,12.2,2.2,1.6,4.4,3.1,6.7,4.6.4.3.9.6,1.3.9h0c.7.6,1.4,1.2,2.1,1.8,3.3,2.6,6.1,5.7,8.7,8.9,1.5,2.1,2.9,4.3,4.1,6.6.5,1.5,4.6,7.5,5.2,10.6h0c.5,1.4.9,2.8,1.4,4.1,0,.3.1.6.3.8.4.5.6,1,.8,1.5h0Z"/>
      <path class="cls-7" d="m45.46,142.42c-.3-2.7-.7-10.4,1.8-11.9,1.2-.5,2.5,1,1.6,2.1-1.2,2.8-1,6.4-.7,9.5.2,1.7-2.5,2.1-2.7.3h0Z"/>
      <path class="cls-8" d="m208.06,137.42c-13.1-3-26.3-5.7-39.6-6.8-14.1-1.6-28.1-2.9-42.3-3.9-26.1-1.6-52.8-4.1-78.6.5h.2c-1.5-.3-1.4-2.6.2-2.7,10-2.5,20.5-2.2,30.7-2.8,13,.1,26,.6,39,1.6,13.9,1,27.9,1.8,41.7,3.5,10.5,1.1,21.3,1.9,31.6,4.1,6,1.3,11.9,2.2,17.7,3.7,1.7.6,1.2,3.2-.6,2.8h0Z"/>
      <path class="cls-8" d="m48.36,125.92c-1.5-.7-.5-2.5.2-3.5.8-1.2,1.6-2.4,2.4-3.7,3.1-5.2,6-10.7,9.9-15.4.5-.6,1.3-.7,1.9-.2.6.4.7,1.3.2,1.9-2.1,2.6-4,5.4-5.7,8.3-2.2,3.8-4.4,7.6-6.8,11.2-.3.9-1.1,1.8-2.1,1.4h0Z"/>
      <path class="cls-8" d="m55.66,114.12c-2.8-1.1,2.9-7.3,3.7-9,1.6-2.3,3.9-4,6-5.8,2-1.9,4.1-3.7,6.5-5,5.5-3.9,11.4-7.2,17.6-10,6.8-2.3,13.7-3.8,20.8-4.7,12.1-1.8,24.4-1.7,36.4.8,5.8.9,11.4,3,16.9,5.1.9.2,1.9,1,1.4,2-.9,2-4.2-.5-5.7-.8-5.9-2.3-12-3.6-18.3-4.6-15.2-2.5-30.7-.6-45.5,3-4.2,1.3-8.4,2.9-12.2,5.1-4.2,2.4-8.3,5-12.3,7.7-3.4,2.9-7.2,5.6-9.8,9.3-1.1,1.7-2.3,3.4-3.3,5.2-.4,1.1-1,2.1-2.2,1.7h0Z"/>
      <path class="cls-8" d="m177.46,96.82c-5.4-3.4-11.3-5.9-16.8-9.1-.9.3-1.9-.5-2-1.4,0-2.2,2.4-1.6,3.7-.8,5.3,3.3,11.3,5.6,16.6,9,1.4,1,0,3.3-1.5,2.3h0Z"/>
      <path class="cls-8" d="m205.86,133.62c-.6-2.6-1.6-5.1-2.2-7.7-2-5.5-5.2-10.4-8.8-14.9h0c-7.2-9-16.9-16.3-27.6-20.8-1.8-.7-3.4-1.8-5.3-2.3-1.7-.3-1.3-2.9.4-2.7,20.1,7,40.5,24,45.4,45.4.3.8.6,1.7.7,2.6.2,1.8-2.4,2.2-2.6.4h0Z"/>
      <path class="cls-11" d="m210.26,139.02c-1.1,0-1.9-1-1.6-2-.6-1.2-.8-3.2,1-3.2,1.2-1.2,3.2.6,2,1.9-.2,1.2.4,3.2-1.4,3.3h0Z"/>
      <path class="cls-11" d="m124.96,130.62c-.4-.3-.8-.7-1.1-1-1,1-2.3,0-2.9-.9-1.1,1.2-2.7,0-3.2-1.2,0,0-.1,0-.1.1-.1,0-.1.1-.2.1-.2.7-.9,1.2-1.6,1-1.4-.3-1.4-2.1-1.7-3.2-.1-1-.5-2.1-.2-3-.5-1.3.4-2.9,1.9-2.1.7-.7,2.1-.4,2.5.5.4-.3.9-.4,1.3-.2.1,0,.2.1.2.1.3-.1.7-.1,1,0,.4-.4,1.1-.4,1.6-.1.6.3,1.1.7,1.7,1.1.2-.2.4-.2.6-.3.4-.4,1.1-.5,1.6-.2.1.1.2.1.3.2,1.2-1,2.3.5,3.3,1.2,2.6,1.9,5.2,3.8,7.4,6.2.8,1.2-.7,2.7-1.9,1.9-.5-.3-1-.7-1.5-1h0c-.6,1.8-2.2.9-3.2,0-.1.1-.2.2-.2.3-.3.2-.7.4-1,.3-.7.9-1.9.5-2.6-.2-.2.5-1.3.9-2,.4h0Z"/>
      <path class="cls-8" d="m136.36,127.22c-.5,0-.8-.3-1.1-.7-1.1-.7-2.1-1.5-3-2.3-3.1-2.3-6-4.7-9.2-6.8-1.5-1.1-2.8-2.3-4.3-3.2-1.4-1-2.6-2.4-4.3-2.8q-.1,0-.1.1c-.2,2.6-.4,5.3-.2,8-.1,1.6.3,5.8-2.2,5.2-.9-.3-1.1-1.4-.7-2.2.4-3.8-.2-7.8.4-11.6.8-3.1,4.3-2.3,6.2-.8,2.6,1.9,4.9,3.7,7.5,5.6,2.9,2,5.6,4.2,8.4,6.2,1.1.9,2.2,1.8,3.4,2.6.4.3.7.9.7,1.4-.1.8-.8,1.4-1.5,1.3h0Z"/>
      <path class="cls-8" d="m49.36,124.82c-.7-1,.3-2.1,1.3-2.3,3.6-6.7,7.9-13.1,12.8-18.8,4-4.6,9-8.2,14.2-11.5,5.8-3.8,12.1-7.6,19.2-7.7,2.8-1,5.8-2,8.8-2.2,4.4-1.3,9-1.6,13.5-1.9,1.5.2,3.9-.9,4.8.7.7,0,1.4.4,1.6,1.1,1,0,2.2.4,2.1,1.6.8-.1,1.6.6,1.6,1.4,1.1,0,2.7.2,2.6,1.6,1.4.1,4.2-.3,4.2,1.7-.3,2-3,1.1-4.4,1.4.6.7.2,1.9-.6,2.1-1.1.3-2.2.1-3.3.1.3,1.5-1.2,1.8-2.4,1.8.7.8,0,2.1-1,2.2-2.5.2-5.1.1-7.6.2,1.1,1.8-1.3,2.6-2.8,2.5h0c.7.8,0,2.1-.9,2.3-1.4.2-2.9-.1-4.3.1.5,1.1-.6,2.1-1.7,1.9.1.8-.5,1.5-1.3,1.5,1.2,2.4-2.2,2.4-3.7,2.4.9,1.2-.3,2.5-1.6,2.2,0,.2.1.3.1.5s-.1.5-.2.7c.8.5,1,1.8.1,2.3.2.2.3.5.3.8s-.1.6-.2.8c1.5.2,1.5,2.4,0,2.7-.7.2-1.4.1-2.1.1v.2c0,.4-.2.8-.6,1,3,.2,6.1.3,9.1,1,.4.1.7.4.8.8,1.6.3,3.4.4,4.9,1,1.2.9.5,2.5-.9,2.7-4.4.7-9-.4-13.4-.5-3.8-.2-7.6-.5-11.4-.4-1.6,0-4.3,1.1-4.9-.8-8.4.7-16.9.9-25.2,2.1-1.7.2-3.5.5-5.2,1-1,.4-1.9.2-2.3-.4h0Z"/>
      <path class="cls-8" d="m110.06,123.02c-.5,0-.9-.3-1.1-.7q-.1-.1-.2-.2c-.7.1-1.4-.5-1.4-1.3-.2-.1-.4-.2-.6-.3h0c-.3,0-.6-.1-.9-.3-.2.2-.5.3-.8.3s-.6-.1-.9-.3c-.5,1.8-2.8,1.8-2.9-.2-.2,0-.4.1-.6,0-.4-.1-.8-.4-1-.8-.2,0-.5-.1-.6-.3-.2.1-.5.1-.7,0-.2.8-.6,1.9-1.7,1.9-.7,0-1.2-.6-1.3-1.2.4-7.9,3.4-15.4,6.2-22.7.6-1.7,3.1-.8,2.6.8-.4.9-.7,1.8-1.1,2.8.2-.1.3-.1.5-.1h.2c.3-.5,1-.8,1.6-.6,1.3.4.9,2,.8,3,.2-.1.5-.1.7-.1s.5.2.6.3c.2-.1.3-.2.5-.3.7-.2,1.5.2,1.7.8.4.2.7.5.8,1v.2c1.5.5.7,2.2.9,3.4.8,3.5-.2,7.2-.1,10.8.1,1.5.7,4-1.2,4.1h0Z"/>
      <path class="cls-8" d="m203.96,134.12c-2-.5-3.9-1.3-6-1.7-1.8-.4-3.7-.4-5.5-.8-5.5-1.2-11.2-2.1-16.8-2.3-5-.7-9.7-.8-14.6-1.8-3.2-.6-6.5-.4-9.7-.9-2.9-.3-5.9-.2-8.8-.2-1.3-.1-3.6.3-3.8-1.5-1.8.2-3.3-.8-4.6-1.9-3-1.9-5.4-4.5-8.3-6.5-1,.1-1.8-.7-2.6-1.2-3-2.1-6.1-4-9.2-5.9-1.4.5-2.8,1.1-4.2,1.9-.8.4-1.7,1.1-2.6.6-.9.3-2,1-2.8.2-.5-.5-.5-1.3-.1-1.8-1.7.6-3.2-1.3-1.6-2.4,1.7-.9,3.1-1.5,4.8-2.3-1.8,0-3.8.5-5.6-.2-1.2-.5-.9-2.5.4-2.6.9,0,1.9-.1,2.8-.1-1-.1-2.3-.3-2.2-1.5.1-1.5,1.7-1.4,2.8-1.2,0-1.9,2-1.4,3.2-1.2-.1-.2-.2-.5-.1-.8.1-.7.7-1.1,1.4-1.1h0v-.5c-1.1-.2-3-.3-2.7-1.9.1-.7.8-1.2,1.6-1.1,1.5.2,3,.5,4.5.8.2-.4.5-.8.9-.9.3-1.4,2.1-1.3,3.3-1.1.1-.5.5-.9,1.1-1,.2-.5.7-.8,1.3-.8,1.5,0,3,.1,4.6.1-1.3-.2-3.4-1-2.2-2.6-.6-.1-1-.8-1-1.4,0-.3.1-.6.3-.8-.2-.1-.4-.3-.5-.5-.3-.4-.3-.9-.2-1.3-1.3-.1-3.6.4-3.6-1.5,0-1.2,1.3-1.4,2.3-1.3.2-.2.4-.3.7-.4.9-.2,1.7-.3,2.6-.4.5-1,1.9-.9,2.9-.9h3.2c6.5.1,13,.8,19.2,2.5,2.9.1,6.1,1.8,8.9,2.7,3.5,1.4,7.2,2.7,10.4,4.6,3.2,1.3,6.3,2.9,9.2,4.8,9,5.4,16.1,13.6,22.5,21.9,2.4,3.9,4.7,7.9,5.3,12.5.4,1.4,1.3,2.6,1.4,4,.1,1.5-1.2,2-2.3,1.7h0Zm-5.9-4.5c.9.2,1.9.5,2.8.7.7.2,1.3.4,2,.6-.8-1.7-1-3.5-1.4-5.3-.6-1.6-1.4-3.1-2.2-4.6-3-5.8-7.9-10.4-12.2-15.2-.3.5-.9.7-1.5.5-.2,0-.3-.1-.5-.2-.2.1-.4.2-.6.2.3.2.6.5.9.7.4.3.6.9.5,1.4,1.1,1.2,3.9,2.4,3,4.4-.3.5-.9.7-1.5.6.1.3.1.6-.1.9-.2.5-.8.8-1.3.8.9.4,1.8,1.1,1.4,2.2-.9,1.7-2.7.2-3.9-.2-.3.5-.8.8-1.4.7-.3,0-.5-.1-.8-.1,1,.8.4,2.5-.9,2.5s-2.6-.5-3.8-1c0,.1-.1.3-.2.4-.2.3-.4.5-.7.6.9.6,2.4,1.3,2.1,2.6-.3,1.1-1.6,1-2.6.8-.2.1-.3.1-.5.1h-1.1c-.1.3-.2.5-.5.7.1.5-.1,1-.5,1.2-.1,0-.1.1-.2.1v.5c4.3.7,8.5.5,12.7,1.3,4.3.5,8.5,1.7,13,2.1h0Zm-63.5-43.5c-3.2-.3-6.6-1-9.8-.7,3.3.2,6.6.4,9.8.7Z"/>
      <path class="cls-8" d="m205.76,135.42c-7.8-3.4-16.4-3.9-24.6-5.9-1.7-.2-1.4-2.9.4-2.7,8.4,2,17.2,2.5,25.2,6,1.7.6.8,3.3-1,2.6h0Z"/>
      <path class="cls-8" d="m201.76,132.22c-7.5-2.8-15.6-4.1-23.5-5.2-4-.4-8-1-12-.9-.7-.1-1.2-.7-1.2-1.3,0-1.5,1.6-1.4,2.7-1.4-.2-.3-.3-.6-.3-1,.1-.6.5-1,1.1-1.1-.9-.1-2.1-.5-1.9-1.7.1-.6.7-1.2,1.3-1.2,2.7.4,5.4.6,8.1.9-.6-.5-.6-1.5-.1-2,1.3-1.2,3.1,0,4.6,0,.7-2.1,2.7-1.2,4.3-.9-1-.4-1.1-2-.1-2.5-1.6-.6-1.6-3.2.3-3.2-1.1-1-2.7-1.6-3-3.1-.2-.7.3-1.6,1.1-1.7-1.8-1.3-.5-3.9,1.6-2.8,3.5,2.6,6.6,5.6,9.5,8.7,1.4,1.8,3.2,3.3,4.6,5.1.2.3.2.6.1,1,.5.6,1,1.2,1.5,1.9.8.6,1.9,1.7,1.1,2.7v.5c.1.1.2.1.3.2.5.3.8,1,.6,1.5.2.1.3.2.4.3.4.3.6.7.7,1.1.3.3.4.7.4,1.1.2.1.5.2.7.4.4.2.6.7.7,1.1,2.1,1.1.8,3.6-1.3,2.6-.2,1-1.5,1.3-2.3.9h0Z"/>
      <path class="cls-7" d="m46.66,128.62c-2.2-3.1,8.8-6,10.9-7.1,17.9-6.1,37.7-6.6,56.1-2.6,1.6.6.9,3.1-.8,2.6-.4-.2-.9-.2-1.4-.3-17.3-3.4-35.7-2.8-52.4,2.7-3,1.3-6.2,2.2-9,3.8-1.2.5-2.2,2.2-3.4.9h0Z"/>
      <path class="cls-7" d="m53.56,129.62c-.3-.4-.3-.9-.1-1.3-1.1.8-2.8.2-2.6-1.3.6-1.7,2.6-2.2,4-3,9.2-3.7,19.3-4.8,29.2-5.8,2.6-.2,5.3-.3,7.9-.2,1.2.2,2.6-.2,3.6.7,1.9-.1,3.9-.1,5.8-.2.6,0,1.2.4,1.4,1,1.6.1,3.1.2,4.7.3.5,0,.9.3,1.1.7.8,0,1.7-.6,2.4-.3.4-.7,1.6-.9,2.2-.2.8,1.5.4,3.4.6,5.1.2.5.6,1,.3,1.6-.3,1.1-2.1,1.2-2.5.2-.2-.3-.3-.5-.5-.8-2.2,1.3-4.9.7-7.3.5-.4.2-.9.3-1.3.5-.4.6-1.1.7-1.8.7-1.1.1-2.2.1-3.3.1-5.5-.1-10.9-.2-16.3,0-.4.3-1,.3-1.5.3-1.2,0-3.2.2-3.3-1.5-1.2,0-2.8.9-3.5-.5-1.4.1-4.3.9-4.1-1.4-.2,0-.3.1-.4.1-3.1.7-6,2.1-8.8,3.5-1.4.6-2.9,1.3-4.4,1.7-.6.2-1.2,0-1.5-.5h0Z"/>
      <path class="cls-7" d="m112.96,119.92c-8.7-1.6-17.7-1.1-26.4-.4-1.6-.7-.8-2.7.8-2.8,8.7-.8,17.6-1,26.2.5,1.7.5,1.2,3.1-.6,2.7Z"/>
      <path class="cls-7" d="m206.46,139.02c-4.1-2.3-8.7-3.5-13.1-5.3-4.8-1.6-9.7-3.4-14.5-4.8-15.7-3.8-31.8-6.7-47.8-9-2.1-.4-4.3-.3-6.4-.6-1.1-.4-1.1-2.2.1-2.5,10.1.3,20.2,2.5,30.2,4.3,8.5,1.7,17.3,3.1,25.6,5.5,5.1,1.5,10.1,3.3,15.2,5.1,4.1,1.6,8.5,2.8,12.3,5.1,1.3,1-.1,3.2-1.6,2.2h0Z"/>
      <path class="cls-7" d="m140.86,130.32c-5.3-3.2-9.6-7.9-15.2-10.5-.5-.6-.4-1.4.2-1.9,1.6-1.2,4.3,1.4,5.8,2.2,3.7,2.6,7,5.7,10.8,8,1.4,1-.1,3.1-1.6,2.2h0Z"/>
      <path class="cls-7" d="m197.76,137.22c-5.3-1.4-10.6-2.9-16-3.7-1.3.4-2.8-.4-4.1-.5-3.7-.5-7.5-.5-11.3-.5-5.8-1.8-11.9-2.5-17.9-3.1-.2,2-2.5,1.2-3.6.4-1.4-.6-2.8-1.4-4.1-2.2-2.3-1.6-4.8-3-7.1-4.6-.3-.2-.5-.6-.6-1-.2,0-.3,0-.5.1-1.2,1.2-3-.4-2.1-1.8,2-2,6.3-.8,8.9-.6,7.8,1.8,15.7,2.8,23.6,4.2,3,.5,6,1.1,9,1.7.7.1,1.2.9,1,1.6,3,.5,25.8,3.7,24.6,7.1.9.2,2.1.7,1.8,1.9-.1.7-.9,1.2-1.6,1h0Z"/>
      <path class="cls-3" d="m182.76,205.62c-3.3-1.7,2.2-4.3,3.6-5.3,4.4-3.3,8.9-6.4,13-10.1,1.8-1.7,3.6-3.5,5.1-5.4,2.2-2.4,4.7-4.5,6.2-7.5.4-.9,1.1-1.9,2.2-1.5,2.2,1.2-.6,3.7-1.3,5.2-2.2,3.4-5.6,5.7-7.9,9,.2.5.1,1.2-.4,1.6-1.4,1.2-2.9,2.3-4.4,3.4-1.4,1.1-2.9,2.2-4.5,3.2-.3.2-.6.2-.9.2-2.7,2.3-5.6,4.4-8.6,6.3-.5.5-1.3,1.1-2.1.9h0Z"/>
      <path class="cls-8" d="m73.96,129.22c-.8-.1-1.6-.2-2.3-.5-1.3-.5-2.3-2.3-1.2-3.5.6-.6,1.4-.9,2.2-1.1,3.2-1.3,6.4-2.8,10-2.5,1.9,0,3.6.8,5.4,1.4,1,.2,2.3,1.1,1.7,2.3-.3.6-.8.9-1.4,1-.8.1-1.5.6-2.2,1-3.8,1.8-8.1,2-12.2,1.9h0Z"/>
      <path class="cls-8" d="m76.86,186.12c-3.5-1.2-6.2-3.9-8.9-6.3-3.1-3.1-6-6.5-8.2-10.3-.8-1.2-3.9-7.2-1-7,1.8-.7,3.2,1,4.5,2,2.9,2.2,4.8,5.3,7.3,7.9,3,3.5,6.1,7.2,8.1,11.4.7,1.4.2,3.2-1.8,2.3h0Zm-.2-2.2c-2.7-4.6-6.1-8.7-9.6-12.6-1.4-1.7-2.9-3.7-4.6-5.1-1-.7-1.7-1.8-2.8-2.1,1.9,7,10.7,16.6,17,19.8h0Z"/>
      <path class="cls-8" d="m75.76,184.52c-2.4-1.1-4.1-3.2-6-4.9-.2,0-.5,0-.7-.1-.9-.8-1.7-1.7-2.6-2.6-2.5-2.1-4.5-4.8-6.4-7.5-.3-.4-.2-1,.2-1.2-.1-.2-.1-.4-.1-.7-.5-1.2-3.5-3.6-1.2-4.4.4-.1.8.1.9.4,5.6,3.2,9.4,8.5,13.2,13.6,1.3,1.8,2.6,3.5,3.9,5.3.3.4.6.9.6,1.4.1,1.1-1.1,1.3-1.8.7h0Z"/>
      <path class="cls-8" d="m60.16,158.82c-1.8-.5-2.6-2.9-1.8-4.5.1-.8.8-1.5,1.7-1.3,2.6.5,3.5,6,.1,5.8h0Zm.3-2v-.4q-.1.1-.2.2t.2.2q-.1,0,0,0h0Z"/>
      <path class="cls-10" d="m109.76,215.02c-7.4-1.2-14.7-3.1-21.7-5.7-.4-.2-.8-.3-1.2-.5-.1,0-.2-.1-.3-.1-.5-.2-1-.4-1.5-.6-.9-.3-1.7-.7-2.6-1.1-3.4-1.5-6.8-3.1-10-5-6.4-3.7-12.4-7.9-17.7-12.9-2.7-2.5-5.3-5.2-7.6-8.1-2.2-2.7-4.2-5.6-6-8.6-1.5-2.5-2.9-5.2-4-7.8-2.8-6.5-4.5-13.4-4.9-20.3-.4-6.7.4-13.4,2.3-19.8,0-.1.1-.2.1-.2,1-3.3,2.3-6.5,3.8-9.7,1.5-3.1,3.4-6.1,5.4-9,4.3-6,9.5-11.4,15.5-16,5.8-4.5,12.2-8.2,19-11.3,6.9-3.1,14.1-5.4,21.6-7,7.4-1.6,14.9-2.5,22.5-2.6,6.1-.2,12.3.2,18.2.9,1.8.2,3.5.5,5.2.8h.2c6.2,1.1,12.3,2.6,18.2,4.7,7.2,2.4,14,5.6,20.4,9.5,6.5,3.9,12.4,8.5,17.7,13.7,5.2,5.2,9.7,11.1,13.1,17.5,1.7,3.2,3.1,6.5,4.3,9.9.6,1.7,1.1,3.4,1.5,5.2s.8,3.5,1,5.3c.2,1.9.4,3.7.5,5.6.1,1.8.1,3.6,0,5.3-.1,1.8-.3,3.6-.5,5.5-.2,1.7-.6,3.4-1,5.1-.9,3.5-2,7-3.5,10.3s-3.2,6.5-5.3,9.6c-3.9,6-8.8,11.3-14.4,16-2,1.7-4.1,3.3-6.3,4.8-.1,0-.1.1-.2.1-6.1,4.2-12.8,7.7-19.9,10.4-7,2.7-14.3,4.7-21.8,6-1.8.3-3.6.6-5.4.8-.5.1-1,.1-1.5.2h-.3c-.5,0-1,.1-1.6.2-1,.1-1.9.2-2.9.2-1.8.1-3.7.2-5.5.3h-3.2c-6.6,0-13.2-.5-19.7-1.6h0Zm4.7-1.3c4.6.6,9.2.9,13.8,1,3.3,0,6.6-.1,9.9-.3.9-.1,1.7-.1,2.6-.2.4,0,.9-.1,1.4-.1h.1c.2,0,.5,0,.7-.1h0c4.4-.5,8.8-1.2,13.1-2.2,4.4-1,8.8-2.3,12.9-3.8,1.9-.7,3.8-1.5,5.7-2.3s3.8-1.7,5.7-2.7c3.4-1.8,6.8-3.7,9.9-5.9h0c.1,0,.1-.1.1-.1h.1l.2-.1c3-2.1,5.8-4.3,8.5-6.8,2.4-2.2,4.7-4.6,6.8-7.1,2-2.4,3.9-5,5.6-7.6v-.1h0c1.5-2.4,2.8-4.9,4-7.4,1.1-2.5,2-4.9,2.8-7.3.8-2.6,1.4-5.3,1.8-7.9.4-2.5.6-5,.6-7.4,0-2.7-.1-5.3-.4-7.8-.2-1.4-.4-2.8-.7-4.1-.3-1.3-.6-2.7-.9-3.9-.8-2.7-1.7-5.4-2.8-8-1.2-2.7-2.5-5.2-4-7.7h0c-1.7-2.8-3.6-5.4-5.6-8-2.3-2.8-4.7-5.4-7.2-7.8-2.9-2.7-6-5.2-9.2-7.5-3.3-2.3-6.8-4.5-10.3-6.4-3.9-2.1-8-3.9-12.2-5.5-4.2-1.6-8.5-2.9-12.8-4-2.9-.7-5.8-1.3-8.7-1.8h-.2c-1.7-.3-3.3-.5-4.8-.7h-.2c-4.7-.6-9.4-.9-14-1-4.7,0-9.5.2-14.2.7-4.6.5-9.2,1.3-13.5,2.3-4.4,1-8.7,2.3-12.9,3.8-4,1.5-7.8,3.2-11.5,5.1-3.4,1.8-6.6,3.7-9.7,5.8-3,2.1-5.9,4.3-8.6,6.7-1.3,1.2-2.6,2.4-3.8,3.7-1.2,1.2-2.3,2.5-3.5,3.8-1.9,2.4-3.7,4.8-5.3,7.2-1.6,2.5-3,5.2-4.2,7.8-1,2.3-1.9,4.8-2.7,7.2v.1c0,.1-.1.3-.1.4-.7,2.4-1.2,4.9-1.6,7.4-.4,2.6-.6,5.1-.6,7.7s.1,5.1.4,7.6c.3,2.7.9,5.3,1.6,7.9.7,2.7,1.7,5.4,2.7,7.9.1.1.1.3.2.4,1.2,2.7,2.5,5.3,4,7.8,1.7,2.7,3.5,5.4,5.6,7.9,2.3,2.8,4.8,5.5,7.5,8,2.8,2.6,5.8,5,8.9,7.2h.1c1.6,1.2,3.3,2.2,5,3.3,1.8,1.1,3.6,2.2,5.4,3.1,2.7,1.5,5.5,2.8,8.4,4,.7.3,1.4.6,2.2.9.4.2.8.3,1.2.5.1,0,.2.1.2.1.1,0,.3.1.3.1,2.1.8,4.2,1.5,6.3,2.2,2.2.7,4.4,1.3,6.6,1.8h0c4.1.8,8.7,1.6,13.3,2.2h0Z"/>
      <path class="cls-10" d="m116.66,205.82c-6.6-.8-13.1-2.1-19.3-4.1-6.1-1.9-12.1-4.4-17.6-7.5-3.1-1.7-6-3.6-8.8-5.6-5.2-3.7-9.8-8.1-13.8-12.9-3.9-4.8-7.1-10-9.3-15.6-1.8-4.3-3-8.9-3.5-13.4v-.2c-.7-6-.3-12.1,1.1-18,.8-3.3,2-6.5,3.3-9.5,2.7-5.8,6.4-11.2,10.9-16,3.5-3.8,7.6-7.1,11.9-10.1,2.9-2,5.9-3.8,9.1-5.4,5.8-3,12.1-5.3,18.5-7,4.3-1.1,8.6-2,13-2.5h.1c.8-.1,1.7-.2,2.5-.3h.1c3.9-.4,7.8-.6,11.7-.5h.8c2.3,0,4.6.2,6.8.3h.2c3.5.3,7.1.8,10.5,1.4,6.4,1.2,12.7,3,18.7,5.4,3,1.2,6,2.5,8.9,4s5.7,3.2,8.4,5c.8.5,1.5,1,2.2,1.6.1,0,.1.1.2.1,5.1,3.7,9.8,8,13.7,12.9,2,2.5,3.8,5.1,5.5,7.8,1.6,2.7,3,5.5,4.1,8.4,2.2,5.7,3.4,11.7,3.6,17.7.2,6.1-.9,12.2-2.9,18s-5.2,11.3-9,16.3c-2.5,3.1-5.3,6-8.3,8.7-4.7,4.2-10,7.7-15.7,10.7s-11.8,5.3-18.1,7.1c-3.2.9-6.5,1.6-9.9,2.2-3.3.6-6.6.9-10,1.2-2.5.2-5,.3-7.5.3-4,.2-8.1,0-12.1-.5h0Zm-1.3-125.9c-4.1.4-8.2,1-12,1.9-3.9.9-7.7,2-11.3,3.2-3.4,1.2-6.8,2.6-9.8,4.2-.2.1-.4.2-.5.3-3,1.5-5.9,3.2-8.6,5.1-.1,0-.1.1-.1.1h-.1c-2.6,1.8-5.2,3.8-7.4,5.8-2.2,2-4.2,4-6.1,6.2-1.7,2-3.3,4.2-4.8,6.4-1.4,2.2-2.6,4.4-3.7,6.6v.1l-.1.2c-1,2.2-1.8,4.4-2.5,6.6-.6,2.1-1.1,4.2-1.5,6.3-.3,2.3-.6,4.5-.6,6.8s.1,4.5.3,6.6v.3c.3,2.3.7,4.6,1.3,6.7.6,2.3,1.4,4.6,2.3,6.8,1,2.4,2.2,4.8,3.5,7,1.5,2.5,3.2,4.9,5,7.2,1.9,2.4,4.1,4.7,6.2,6.8,2.3,2.2,4.8,4.3,7.5,6.2.1,0,.1.1.2.1,2.8,2,5.8,3.9,8.9,5.6,3.4,1.8,6.8,3.4,10.3,4.8,3.6,1.4,7.3,2.6,11,3.6,4,1,8,1.8,12,2.4,4.1.5,8.2.9,12.2.9,4,.1,8.1-.1,12.1-.5h-.1c4-.4,8-1,11.9-1.9,3.8-.8,7.5-1.9,11.1-3.1,3.6-1.3,7-2.7,10.4-4.4,3.1-1.5,6-3.3,8.8-5.1,0,0,.1,0,.1-.1h0c2.6-1.8,5.1-3.7,7.3-5.7.1-.1.3-.2.4-.4,2.2-2,4.2-4,6.1-6.2,1.8-2.1,3.4-4.2,4.8-6.4,1.4-2.1,2.6-4.3,3.6-6.5,1.1-2.3,1.9-4.6,2.7-6.8.6-2.1,1.2-4.3,1.5-6.4.4-2.3.6-4.6.6-6.8s-.1-4.5-.3-6.6c-.3-2.3-.7-4.7-1.3-7-.6-2.4-1.4-4.7-2.3-6.9-1-2.4-2.2-4.7-3.5-7-1.4-2.4-3.1-4.8-4.8-7l-.1-.1h0c-2-2.5-4.2-4.8-6.4-6.9-2.3-2.2-4.7-4.2-7.3-6.1-.1-.1-.2-.1-.2-.1l-.2-.1c-2.9-2.1-6-4-9-5.7-3.2-1.7-6.5-3.3-9.9-4.6-3.8-1.5-7.6-2.7-11.5-3.7s-7.8-1.8-11.7-2.3c-2.2-.3-4.4-.5-6.7-.7-1.6-.1-3.2-.2-4.8-.2h-2.3c-3.7,0-7.2.1-10.6.5h0Z"/>
      <path class="cls-10" d="m35.36,185.42c-.6,0-1-.4-1.1-1-.2-3.6-.3-7.2-.4-10.8-.2-4.2-.4-8.3-.5-12.5-.2-4.2-.4-8.5-.5-12.8-.1-2.6-.2-5.3-.3-7.8,0-.5.3-1,.9-1s1.1.3,1.2.8v.7c0,.4,0,.9.1,1.3,0,1,.1,2,.1,3,.1,2.1.2,4.1.3,6.2.2,4.2.4,8.5.5,12.8.2,4.2.3,8.4.5,12.5.1,2.5.2,5.1.3,7.6-.1.6-.6,1-1.1,1h0Z"/>
      <path class="cls-10" d="m216.06,191.42c-.6-.1-.9-.6-.9-1.1.4-3.3.8-6.7,1.2-10,.5-4.2,1-8.4,1.5-12.5s1-8.3,1.5-12.4c.2-2,.5-4,.7-6,.2-1.7.4-3.5.6-5.2.1-.5.6-.9,1.2-.8.6.1.9.6.9,1.1-.2,1.8-.4,3.5-.6,5.2-.2,2.1-.5,4.2-.8,6.2-.5,4.2-1,8.3-1.5,12.5s-1,8.4-1.5,12.5c-.3,2.9-.7,5.8-1.1,8.7-.2.4-.3.7-.5,1.1-.1.2-.2.4-.3.6-.1,0-.2.1-.3.1t-.1,0h0Z"/>
      <path class="cls-10" d="m128.96,236.12c-1.1,0-2.2-.1-3.3-.1-.4,0-.8-.1-1.2-.1s-.9-.1-1.3-.1c-1.1-.1-2.1-.3-3.1-.4-.9-.1-1.9-.3-2.8-.4-1.9-.3-3.9-.7-5.8-1.1-1.8-.4-3.6-.7-5.3-1.1-2-.4-4.1-.9-6.1-1.3-1.8-.4-3.5-.8-5.3-1.2-2-.5-3.9-1.1-5.9-1.7-.4-.1-.8-.2-1.2-.4-.4-.1-.8-.3-1.2-.4-1-.3-1.9-.7-2.9-1.1-1.7-.7-3.4-1.4-5.1-2.1-.9-.4-1.9-.8-2.8-1.3-.3-.2-.7-.3-1-.5-.4-.2-.9-.4-1.3-.6-.9-.5-1.8-1-2.6-1.5-.9-.5-1.7-1-2.6-1.6-1.5-.9-2.9-1.9-4.3-2.9-1.7-1.2-3.3-2.3-4.9-3.5-.8-.5-1.5-1.1-2.2-1.6-.3-.2-.6-.5-.9-.7-.4-.3-.8-.6-1.1-.9-.7-.6-1.4-1.1-2.1-1.8-.7-.7-1.5-1.4-2.2-2-.7-.7-1.5-1.4-2.2-2.1s-1.3-1.3-2-2c-.6-.6-1.1-1.2-1.6-1.8-.7-.8-1.3-1.5-1.9-2.3-.4-.5-.8-1-1.2-1.6-.4-.5-.8-1.1-1.1-1.6-.7-1.1-1.4-2.2-2.1-3.2-.8-1.3-1.7-2.5-2.4-3.9-.4-.7-.6-1.5-.9-2.3-.1-.4-.3-.8,0-1.2.3-.4.9-.6,1.4-.3.3.2.5.5.5.8.1.2.1.4.2.5.2.7.5,1.4.8,1.9.7,1.4,1.7,2.7,2.6,4,.4.6.8,1.2,1.2,1.8.4.6.8,1.2,1.2,1.8.4.5.7,1,1.1,1.5.2.3.4.5.6.8.2.2.4.5.6.8.8,1,1.7,2,2.6,2.9.6.7,1.2,1.3,1.9,1.9.8.7,1.5,1.5,2.3,2.2s1.5,1.4,2.3,2.2c.7.6,1.4,1.2,1.9,1.7.6.5,1.1.9,1.7,1.3.5.4,1.1.8,1.6,1.2,1,.7,1.9,1.4,2.9,2.1,1.1.8,2.2,1.5,3.2,2.2,1.1.8,2.3,1.5,3.4,2.3.6.4,1.3.8,1.9,1.2.6.4,1.2.7,1.8,1.1,1.2.7,2.6,1.4,3.7,2,1.1.5,2.2,1,3.3,1.5,1,.5,2.1.9,3.1,1.3s2,.8,3,1.2c.6.2,1.2.4,1.7.6.6.2,1.2.4,1.9.6,1.8.5,3.7,1,5.5,1.6,1,.3,2,.5,3,.8.8.2,1.7.4,2.5.5,2,.4,3.9.9,5.9,1.3,1.8.4,3.6.7,5.4,1.1,1.3.3,2.5.5,3.8.8,1.7.3,3.3.6,5,.8.9.1,1.8.3,2.7.4.8.1,1.7.2,2.5.2,1.7.1,3.3.1,5,.2.9,0,1.8.1,2.7.1h2.3c1.7-.1,3.3-.2,4.9-.3.9-.1,1.8-.1,2.7-.2.3,0,.7-.1,1-.1.4,0,.7-.1,1-.1.4-.1.8-.1,1.1-.2l.3-.1c1.7-.4,3.3-.7,5-1.1,1.6-.3,3.1-.7,4.6-1.1.6-.2,1.1-.4,1.7-.6.6-.2,1.2-.4,1.7-.7h.1c1.7-.8,3.5-1.5,5.2-2.2s3.4-1.3,5-1.9c.6-.3,1.2-.5,1.8-.8s1.2-.6,1.7-.9c.8-.5,1.5-.9,2.3-1.3h.1c1.3-.8,2.7-1.5,4.1-2.2,1.4-.7,2.8-1.5,4.2-2.3h.1c.4-.2.8-.5,1.2-.7,1.8-1,3.4-2.2,5.1-3.5.8-.6,1.6-1.2,2.5-1.9.8-.6,1.7-1.2,2.6-1.8.7-.5,1.3-1,1.9-1.5.6-.5,1.2-.9,1.7-1.4.6-.5,1.2-1,1.8-1.5.3-.3.7-.6,1-.9s.6-.6.9-.9c1.1-1.1,2.2-2.3,3.4-3.4h.1c1.1-1.1,2.2-2.3,3.2-3.5,1-1.1,2-2.2,2.9-3.4.3-.4.6-.9.9-1.4.2-.4.4-.7.7-1.1s1-.5,1.5-.2c.3.2.4.6.4,1-.1.1-.2.3-.2.4,0,0,0,.1-.1.1-.4.6-.7,1.1-1.1,1.7-.7,1.1-1.6,2-2.5,3-1.1,1.2-2.2,2.5-3.3,3.6-1.2,1.2-2.4,2.4-3.4,3.5-.6.6-1.3,1.3-1.9,1.9-.6.6-1.4,1.2-2.1,1.8-.7.6-1.5,1.2-2.2,1.8-.7.6-1.5,1.2-2.2,1.8-1.4,1.1-2.9,2.1-4.4,3.2-.7.6-1.4,1.1-2.2,1.7-.4.3-.7.5-1.1.8-.4.3-.9.6-1.3.8s-.9.5-1.3.8c-.5.3-.9.5-1.4.8-1.4.8-2.8,1.6-4.3,2.3-1.4.7-2.8,1.4-4.1,2.1-.4.2-.8.5-1.1.6-.5.3-1.1.6-1.6.9l-.9.5c-.3.2-.7.3-1,.5-1.1.6-2.3,1-3.5,1.5-1.1.4-2.3.9-3.4,1.3-1.2.5-2.4,1-3.5,1.4-.6.2-1.2.5-1.8.8s-1.3.5-1.9.8c-.6.2-1.1.4-1.7.5-.8.2-1.5.4-2.2.6-1.3.3-2.5.6-3.8.9-1.2.3-2.4.6-3.5.8-.4.1-.8.1-1.1.2-1.9.3-3.8.4-5.7.5s-3.8.2-5.6.3h-.9c-1.8-.3-3.4-.4-4.9-.5h0Z"/>
      <path class="cls-10" d="m51.06,151.82c-1.2-10.1.3-20.2,4.1-29.7.7-1.6,4.9-11.8,7.1-10.2.9.7,0,1.5-.5,2.1-6,9-8.9,19.9-8.9,30.4,0,2.5.2,4.7.4,7.1.1.7-.5,1.1-1.1,1.1-.6,0-1.1-.3-1.1-.8h0Z"/>
      <path class="cls-10" d="m54.36,144.22c0-3.3.2-6.6,1-9.9.2-1.2,2.3-1,2.1.3-.5,2.3-.9,4.7-.9,7.1-.3,1.1.6,3.3-1.1,3.5-.6,0-1.1-.5-1.1-1h0Z"/>
      <path class="cls-10" d="m57.16,130.82c-.6-.1-.9-.7-.7-1.2.8-2.9,1.8-5.8,3.5-8.3.8-1,2.5.2,1.7,1.2-1.5,2.4-2.4,5-3.2,7.6-.1.4-.6.7-1,.7q-.2.1-.3,0h0Z"/>
      <path class="cls-10" d="m59.16,136.42c-.6-.1-.9-.7-.7-1.2.5-1.7,1-3.4,1.5-5.1.2-.5.7-.8,1.3-.7s.9.7.7,1.2c-.5,1.7-1,3.4-1.5,5.1-.1.4-.6.7-1,.7h-.3Z"/>
      <path class="cls-10" d="m39.76,184.02c-1.2-5.4,3.9-4,2-2-.2,1,.8,2.6-.8,2.9h-.1c-.5-.1-1-.4-1.1-.9h0Z"/>
      <path class="cls-10" d="m113.26,221.72c-6.5-1.3-12.8-3.5-19.3-5.2-2.1-.6-4.3-.8-6.3-1.7-.8-.5-.3-1.8.6-1.7.5,0,1.1.1,1.4.4,6.9,1.7,13.8,3.7,20.7,5.6,1,.3,2.1.5,3.1.7.6.1,1,.5.9,1.1-.1.5-.5.8-1,.8,0,0-.1,0-.1,0h0Z"/>
      <path class="cls-10" d="m105.66,222.72c-5.9-1.7-12.1-2.6-17.8-4.9-.4-.3-.4-1,0-1.4.8-.7,1.6,0,2.4.2,5.2,1.8,10.6,2.8,15.9,4.2,1.2.3.9,1.9-.2,1.9-.1,0-.2,0-.3,0h0Z"/>
      <path class="cls-10" d="m98.86,226.02c-1.1-.4-3.5-.3-3.5-1.8.2-1,1.4-.9,2.5-.9h1.1c-1.2-.4-2.3-.7-3.5-1-.6-.2-.9-.7-.7-1.2.1-.5.7-.8,1.3-.7,3.9,1.2,7.9,2,11.6,3.6.8.4.6,1.6-.3,1.8-1.2,0-2.4-.2-3.6-.3-1.2-.2-2.3-.3-3.5-.3-.1.4-.6.7-1,.7-.2.1-.3.1-.4.1h0Z"/>
      <path class="cls-10" d="m170.66,212.32c-.3-.4-.1-1.1.4-1.3,6.6-3.5,14.3-5.8,19.5-11.1.3-.4,1-.5,1.5-.2,2,1.6-5.2,5.6-6.5,6.4-3.6,1.9-7.3,3.6-10.9,5.3-.9.2-2,1.3-3,1.3-.4,0-.7-.1-1-.4h0Z"/>
      <path class="cls-10" d="m179.86,212.22c-.3-.5-.1-1,.4-1.3,2.2-1.4,4.2-2.6,6.4-4,1.2-.6,2.2,1,1.1,1.7-2.2,1.3-4.2,2.6-6.4,4-.2.1-.3.1-.5.1-.4,0-.8-.2-1-.5h0Z"/>
      <path class="cls-10" d="m196.56,197.92c-1.1-.8.2-1.8.8-2.6.5-.7,1.4-2,2.4-1.1.4.4.4,1,0,1.4-.8.7-1.4,2.5-2.6,2.5-.1,0-.3,0-.6-.2h0Z"/>
      <path class="cls-10" d="m193.66,203.32c-.7-.8.3-1.5,1-2,.8-.7,2.2-.8,2.3.4,0,.6-.5.8-1,1.1-.5.3-1.1.9-1.6.9-.3-.1-.5-.2-.7-.4h0Z"/>
      <path class="cls-10" d="m158.36,91.92c-15.9-5-33.2-6.1-49.7-3.8-3.9.8-8.1,1.2-11.7,2.7-1.2.5-2.1-1.2-.9-1.8,17.5-5.7,37.4-4.8,55.3-1.1,2.7.6,5.2,1.4,7.7,2.2.5.2.8.8.6,1.2-.2.4-.6.6-1,.6-.1,0-.2,0-.3,0h0Z"/>
      <path class="cls-10" d="m153.86,94.02c-.4,0-.7-.2-.8-.5-9.7-2.2-19.8-3.4-29.8-3.8-.6,0-1.1-.4-1.1-.9,0-1.3,1.7-1,2.7-.9,10.5.5,21.3,1.6,31.3,4.5.7.5.3,1.7-.7,1.7h-.4c-.3-.1-.7-.1-1.2-.1h0Z"/>
      <path class="cls-10" d="m146.16,95.42c-5.6-1.5-11.2-2.6-16.8-3.6-2-.3-4-.5-6-.9-.5-.1-.9-.5-.8-1s.6-.9,1.1-.9c2.1.1,4.3.4,6.4.5.4.1.9.1,1.6,0,1.5,0,3.2-.1,2.9,1.3,4.1.9,8.3,1.6,12.3,2.8,1.2.4.7,1.9-.3,1.9-.2,0-.3-.1-.4-.1h0Z"/>
      <path class="cls-10" d="m165.76,189.62c-.5-1.2,1.4-1.5,2.2-2,1.7-.7,3.3-1.4,4.8-2.3,8.7-4.7,16.7-10.8,21.6-19,.6-1.1,2.5-.4,1.9.8-5,8.5-13.3,14.8-22.1,19.7-2.3,1.2-4.7,2.3-7.1,3.3-.1,0-.2.1-.4.1-.4,0-.8-.3-.9-.6h0Z"/>
      <path class="cls-10" d="m159.76,194.72c-.2-.5.1-1,.6-1.2,5.8-2.3,11.6-4.5,17.1-7.5.5-.3,1.2-.1,1.4.4.3.5.1,1-.4,1.3-2.6,1.4-5.1,2.6-7.8,3.7-3.1,1.4-6.3,2.7-9.5,3.9-.1,0-.2.1-.4.1-.4-.1-.8-.4-1-.7h0Z"/>
      <path class="cls-10" d="m154.56,193.62c-.2-.5.1-1.1.6-1.2,2-.7,4.1-1.5,6.1-2.2.5-.2,1.2,0,1.4.5s-.1,1.1-.6,1.2c-2,.7-4.1,1.5-6.1,2.2-.1,0-.2.1-.4.1-.5,0-.9-.2-1-.6Z"/>
      <path class="cls-10" d="m187.26,149.92c-.5-.2-.9-.7-.7-1.2.5-1.5,1.3-3,1.5-4.5-.4-1,1.2-1.8,1.8-.9.7,1.2-.2,2.6-.5,3.8-.5.9-.5,2.9-1.8,2.9-.1-.1-.2-.1-.3-.1h0Z"/>
      <path class="cls-10" d="m41.96,126.42c-.5-.1-.9-.7-.7-1.2.8-2.2,1.9-4.2,2.8-6.3,5.5-11,13.7-20.7,23.5-28.7.9-.9,2.5.5,1.5,1.4-8.9,7.3-16.4,16-21.8,25.7-1.4,2.5-2.5,5.2-3.7,7.8-.2.6-.5,1.4-1.2,1.4-.2-.1-.3-.1-.4-.1h0Z"/>
      <path class="cls-10" d="m71.16,88.52c-.7-.8.2-1.7,1.2-1.6.6,0,1.3-.2,1.8.1.7.5.4,1.7-.5,1.7-.4,0-.9,0-1.3.1h.2c-.2.1-.3.1-.5.1-.4,0-.7-.1-.9-.4h0Z"/>
      <path class="cls-10" d="m75.76,85.32c0-1.3,2.8-1.4,2.8,0,0,.7-.7,1-1.4,1s-1.4-.3-1.4-1h0Z"/>
      <path class="cls-10" d="m115.06,167.92c-1.3-7-1.9-14.1-2-21.2-.3-4.1-.4-8.2-.1-12.3-.2-6.5-.2-12.9-.1-19.3.2-1.4-1-4.3,1.2-4.4.7.1,1.1.6,1.1,1.2.1,7.2-.3,14.3.1,21.4-.4,7.9.1,15.7.5,23.6.7,3.7.7,7.2,1.5,10.8.1.8-.5,1.2-1.2,1.2-.4-.1-.9-.4-1-1h0Z"/>
      <path class="cls-10" d="m151.46,140.72c-5.3-4.9-11.5-8.9-17.1-13.4-6.6-5.6-13.6-10.9-21-15.5-.7-1,.9-2.2,1.8-1.3,8.6,4.8,15.7,11.5,23.4,17.4,5,3.8,10,7.2,14.5,11.4.8.8,0,1.9-.9,1.9-.2-.1-.5-.2-.7-.5h0Z"/>
      <path class="cls-10" d="m115.76,168.62c-.7-1.2,1-1.7,1.8-2.2,1.8-1.2,3.6-2.2,5.3-3.4,9.6-7.3,19-14.9,28-22.8.2-1.4,2.6-1.1,2.3.3,0,.5-.2.8-.6,1.1-1.4,1.3-2.8,2.5-4.2,3.8-6.5,5.1-12.5,10.7-19.2,15.5-3.1,2.7-6.5,5-10.1,7.1-.7.4-1.6,1.1-2.4,1.1-.3,0-.6-.1-.9-.5h0Z"/>
      <path class="cls-10" d="m214.06,193.22c-.8-.6-.1-1.5.4-2,.6-.8,1-2.5,2.2-1.8.3.2.5.5.4.8-.1.2-.2.4-.2.5-.2.3-.3.6-.5.9h0s0,.1-.1.1h0c-.1.2-.2.4-.3.5-.3.5-.8,1.1-1.3,1.1-.1.2-.3.1-.6-.1h0Z"/>
      <path class="cls-10" d="m124.56,167.82c-.2-.2-.2-.6.1-.8,2.8-2,5.6-4.1,8.3-6.3,2-1.6,4-3.3,6.1-4.9.4-.3,1-.8,1.3-.2.2.3.1.6-.1.8-1.7,1.3-3.3,2.7-5,4-3.2,2.6-6.5,5.2-9.8,7.6-.3.1-.7.1-.9-.2h0Z"/>
      <path class="cls-10" d="m206.76,130.82c-.3-.2-.3-.5-.1-.8.7-1,1.4-1.9,2.1-2.9.6-.6,2-3.3,2.9-2.4.2.2.2.6-.1.8-.4.4-.7.8-1.1,1.3-1,1.3-1.9,2.5-2.8,3.8-.3.3-.7.4-.9.2h0Z"/>
      <path class="cls-10" d="m205.56,123.42c-.8-.8.8-1.8,1.2-2.5.6-.5,1.3-2.5,2.2-1.5.2.3.1.6-.2.8-.8,1-1.6,2.1-2.4,3.2-.2.2-.6.2-.8,0h0Z"/>
      <path class="cls-10" d="m189.06,119.82c-.1-.4-.3-.8-.4-1.2-.1-.4-.3-.8-.4-1.1-.7-.2-.5-1.1.2-1.2.5-.1.8.5,1,.8.3.8.6,1.6.8,2.4.2.7-1,1-1.2.3h0Z"/>
      <path class="cls-10" d="m213.46,158.22c-.3-.2-.3-.5-.1-.8.5-.7.9-1.4,1.3-2.1.2-.4.6-1,1.1-.9.3.1.5.4.4.7-.7,1-1.2,2-1.9,2.9-.1.3-.5.4-.8.2h0Z"/>
      <path class="cls-10" d="m45.36,150.02c-1.6-.7-3.2-1.5-4.8-2.3-.5-.2-.8-.8-.3-1.1.2-.2.6-.2.8,0,1.6.8,3.2,1.6,4.8,2.3.7.2.2,1.3-.5,1.1h0Z"/>
      <path class="cls-10" d="m42.36,156.92c-.5-.5-1.9-.8-1.3-1.6.6-.5,1.4.4,1.9.7.7.4,0,1.3-.6.9h0Z"/>
      <path class="cls-10" d="m113.76,89.92h0c-.1,0-.2,0-.3-.1h-1.5c-.8.5-1.3-.9-.4-1.1,1,0,2-.1,2.9.1.9.4,0,1.9-.7,1.1h0Z"/>
    </g>
  </g>
</svg>