<?xml version="1.0" encoding="UTF-8"?>
<svg id="Layer_1" data-name="Layer 1" xmlns="http://www.w3.org/2000/svg" viewBox="0 0 364.24 268.17">
  <defs>
    <style>
      .cls-1 {
        fill: #4b2c31;
      }

      .cls-2 {
        fill: #75555a;
      }

      .cls-3 {
        fill: #60494c;
      }

      .cls-4 {
        fill: #74555a;
      }

      .cls-5 {
        fill: #3d1a17;
      }

      .cls-6 {
        fill: #5d3d42;
      }
    </style>
  </defs>
  <g id="Capa_de_vector20" data-name="Capa de vector20">
    <g>
      <path class="cls-3" d="m84.96,151.77c.5.1.9.3,1.2.8-1.1-.1-2.2-.2-3.3-.3h0c-.3,0-.6-.1-.9-.1-1.9-.3-3.9-.6-5.8-1.1-1.3-.3-2.5-.7-3.7-1.1-.3-.1-.6-.2-.9-.3-.3-.2-.7-.4-1-.7.1-.1.2-.1.3-.2.5-.3,1.3-.3,1.7.2,3.4-.3,6.7,1.9,10,2.5h.4c.3,0,.6.1.9.1h.5c.2,0,.3,0,.4.1s.1.1.2.1h0Z"/>
      <path class="cls-1" d="m83.36,159.07c.2-1.6.2-3.2.3-4.8-3.3-.2-6.1-2-9.3-2.6,2.5,3.1,5.5,5.4,8.9,7.3l.1.1h0Zm2.8-6.5c.1.2.2.3.2.6-.1,2.6-.1,5.1-.5,7.6,0,.9-.5,2.2-1.6,2-3.6-2-7.1-4.1-10-7.1-.6-.6-2.2-2.2-3.2-3.8-.5-.8-.9-1.6-.8-2.2,0-.3.1-.6.3-.8.1-.1.2-.1.3-.2.5-.3,1.3-.3,1.7.2,3.4-.3,6.7,1.9,10,2.5h.4c.3,0,.6.1.9.1h.5c.2,0,.3,0,.4.1h.1c.6.4,1,.6,1.3,1h0Z"/>
      <path class="cls-1" d="m82.66,160.07c-3.2-2.9-6.6-5.6-10.2-8-1.3-.9-.1-2.9,1.3-2.4,1.2.5,2.4,1.3,3.5,2,1.3-.5,2.7.4,3.7,1.3h.1c1.6-2.5,3.6,1.1,4.2,2.6.4,1.1,1.4,2.9-.2,3.5-.1,1.1-1.6,1.8-2.4,1h0Z"/>
      <path class="cls-3" d="m77.86,160.07c.8,1.1,3,1.8,2.5,3.3-.3.7-1.1,1-1.8.8-.3-.2-.6-.4-.9-.7h-.1c-10.1-1.3-20.2-2.8-30.2-4.3-7.6-1.4-15.4-1.6-23-1.6-1.6-.8-.8-2.8.9-2.6h.3c.3-.7,1.3-1.3,2-1.7,1.7-1.2,3.6-2.2,5.5-3,.7-.4,1.7-.8,2-1.7-2.5-1.4-5.5-1.6-8.3-2-1.1-.4-2.7-.2-3.5-1.2-.8-1.5,1.1-2.5,2.1-3.4,3.2-2.6,6.3-5.3,9.2-8.2-2.1-.4-3.8-1.5-5.7-2.1-1.3-.4-2.5-1.1-3.7-1.8-1.9-.7-2.3-2.7-.2-3.4,3.1-1.3,6.5-1.8,9.6-3.1-1.5-.6-2.8-1.6-4.3-2.1-.8-.3-1-1.1-.7-1.8-.4-.1-.8-.1-1.3-.2-2.4-.1-1.6-3.4.7-2.6,9.7,1.2,19.7-.1,29.4.7.5,0,.9.1,1.4.1.4,0,.8.1,1.2.1.3,0,.6.1.9.1.7-.4,1.8-.2,2,.8.2.3.2.7.1,1,0,.3.1.6.1.9h0c0,1.8.1,3.6.2,5.4.1.7.1,1.4.2,2.2.1.9.2,1.8.3,2.6.3,3.2.4,6.3,1.1,9.5,0,.5.2,1.1.4,1.8.1.2.1.4.2.6.2.9.4,1.8.3,2.5v.2q0,.1-.1.2t-.1.2l-.1.1h0c-.1.1-.1.2-.2.3h0l.2.3c.1.1.1.2.2.2.1.1.1.2.2.3.2.3.5.6.7.9.1.1.2.2.2.2.1.1.2.2.4.3.1.1.2.2.3.3-.5.2-1,.2-1.5-.2.1.4.2.9.2,1.3.8,1.1,1.7,2.2,2.7,3.2,2.5,2.4,5.5,4.7,8,7.3h0Z"/>
      <path class="cls-3" d="m338.26,115.87h.1c-.1.8-.2,1.7-.4,2.6-.1.5-.2,1-.2,1.5h0c-.4,2.8-.8,5.6-1.1,8.4-.4,2.5-.5,4.8-.8,7.2h0c-.1,1.3-.2,2.6-.4,3.9-.2,1.3-.4,2.5-.6,3.7-.3,2.1-.7,4.2-.8,6.3.1.6.2,1.2-.1,1.6-.1.2-.3.3-.5.4-.5.2-1,.2-1.4-.1h0l-.2-.2c-.1,0-.2,0-.3.1-.3.1-.6.1-1,.2h0c-4.4.9-8.9,1-13.4,1.2h0c-.7,0-1.4,0-2,.1-.5,0-.9,0-1.4.1h-.8c0-.1-.1-.1-.1-.2s-.1-.1-.1-.2v-.1h0c-.2-.8.4-1.5,1.1-2.2l.1-.1.1-.1c.3-.3.7-.6,1-.9l.2-.2c.1-.1.2-.2.2-.3,3.7-4.9,7.2-10.2,10.6-15.4,2.6-4.4,5.3-8.7,8.4-12.8.6-.7,1.3-2.2,2.2-3.2.1-.1.2-.2.3-.3.3-.7.7-1,1.3-1h0Z"/>
      <path class="cls-1" d="m70.96,150.17c.6.6.5,1.2.2,1.7-.3.4-.7.6-1.2.6-.3,0-.6-.1-.8-.4-6.7-4.1-8.3-11.6-9.3-18.9-.8-5.3-1.3-10.8-1.6-16.1v-.7c.4-1.2,2.2-1,2.6.1,0,.1.1.2.1.3h0v.1h0c0,.2,0,.3.1.5.6,5.5.8,11,1.8,16.4.8,4.1,1.2,8.1,3.5,11.6.1.1.1.2.2.2h0l.2.3c.1.1.1.2.2.2.1.1.1.2.2.3.2.3.5.6.7.9.1.1.2.2.2.2.1.1.2.2.4.3.1.1.2.2.3.3.6.5,1.2,1,1.8,1.5-.1.3.1.5.4.6h0Z"/>
      <path class="cls-1" d="m66.36,142.27c.2.9.4,1.8.3,2.5v.2q0,.1-.1.2t-.1.2l-.1.1h0c-.1.1-.1.2-.2.3-.2.2-.6.4-1.1.4-3.5-1.4-3.5-10-4.2-13.4-.7-4.2-1.5-8.5-1.5-12.8v-2c0-.2.1-.4.2-.6.2-.4.7-.7,1.1-.7.3,0,.6,0,.8.2.8-1.4,3-.5,2.5,1.1,0,.8-.1,1.6-.1,2.4h0c0,1.8.1,3.6.2,5.4.1.7.1,1.4.2,2.2.1.9.2,1.8.3,2.6.3,3.2.4,6.3,1.1,9.5,0,.5.2,1.1.4,1.8.2.1.2.3.3.4h0Z"/>
      <path class="cls-1" d="m339.16,116.27c.7.8.6,2.3-.6,2.5-.1.1-.2.2-.2.3-.2.3-.4.6-.6.8h0c-.8,1.2-1.7,2.4-2.6,3.6-.6.8-1.2,1.6-1.7,2.5-.7,1-1.4,2-2,3-1.5,2.7-3.2,5.4-4.9,7.9-2.2,3.8-4.8,7.3-7.4,10.8-1,1.7-2.3,3.1-3.7,4.5-.1.2-.2.3-.4.5-.2.2-.5.4-.8.6-.4.2-.9.1-1.3-.3q-.1-.1-.1-.2c0-.1-.1-.1-.1-.2s-.1-.1-.1-.2v-.1h0c-.2-.8.4-1.5,1.1-2.2l.1-.1.1-.1c.3-.3.7-.6,1-.9l.2-.2c.1-.1.2-.2.2-.3,3.7-4.9,7.2-10.2,10.6-15.4,2.6-4.4,5.3-8.7,8.4-12.8.6-.7,1.3-2.2,2.2-3.2.1-.1.2-.2.3-.3.5-.5.9-.8,1.4-.8h.1c.3-.1.5,0,.8.3h0Z"/>
      <path class="cls-1" d="m314.76,153.37c-1.1-.1-1.6-1.5-.9-2.2.7-.8,1.8-.8,2.8-1.1-.2-.8.3-1.3.8-1.8,3.1-3.8,5.8-7.9,8.7-11.9,2.4-4.3,5-8.5,7.3-12.9.7-1.4,1.3-2.6,1.9-3.9.3-.6.6-1.3,1.3-1.5,3.9-.5.7,8.6.4,10.7-.2,1.6-.4,3.2-.7,4.8-.3,2.5-1.2,4.9-1.3,7.5-.1,2.7,0,5.4.1,8.2.1,1.6-1.1,2.3-2.6,2.2-2,.1-3.9.1-5.9.1-4-.2-8.1.6-11.9,1.8h0Zm19.8-26.1h0c.1-.2.1-.3.1-.5-.1.1-.2.3-.2.4.1,0,.1.1.1.1Z"/>
      <path class="cls-1" d="m333.86,134.67c-.7-.1-1.3-.8-1.2-1.5.1-.8.3-1.6.4-2.4-.4-.3-.6-.9-.4-1.4.2-1.1.6-2.2.9-3.3-.7-2.3,2.1-3.7,3-1.1.5,1.9-.6,4.2-.8,6.1-.4,1.2,0,3.7-1.9,3.6h0Z"/>
      <path class="cls-3" d="m339.16,100.87c.4,5-.1,10-.8,15h-.1c-.5,0-1,.3-1.4.8-.1.1-.2.2-.3.3-.9,1.1-1.6,2.6-2.2,3.2-3.1,4.1-5.8,8.5-8.4,12.8-3.3,5.2-6.8,10.4-10.6,15.4-.1.1-.1.2-.2.3l-.2.2c-.3.3-.6.6-1,.9l-.1.1-.1.1c-.7.7-1.2,1.4-1.1,2.2h0v.1c0,.1.1.1.1.2s.1.1.1.2c-2.6.1-5.1.2-7.6.6-6,.3-11.5,2.2-17.3,3-3.8.2-7.4-.8-11.1-1.3-3.5-.2-6.7,1.6-10.1,1.9-5.8.9-11.6,1.3-17.4,1-6.2.2-12.4,0-18.6-.2-.1.1-.2.2-.3.2-5,1.6-10.5,2.1-15.8,2.1-7.3-.5-14.6-1-21.9-1.7-7.3-.6-14.8-.3-22.1-1.5-1.6-.4-3.2-.9-4.7-1.6-1.2-.6-2.5-1.3-3.8-.6-2,.5-3.4,1.9-5,3.1-1.1.7-2.5.5-3.7.4-16.2-2.2-32.5-3.1-48.7-4.8-6.1-.6-12.4-.5-18.7-1-.3-.4-.7-.6-1.2-.8h-.1c-.1,0-.3-.1-.4-.1h-.5c-.3,0-.6-.1-.9-.1h-.4c-3.3-.7-6.6-2.8-10-2.5-.4-.5-1.2-.5-1.7-.2-.1.1-.2.1-.3.2-.5-.4-.9-.7-1.4-1.1-.2.2-.5.3-.7.4-.1-.1-.2-.2-.3-.3-.1-.1-.2-.2-.4-.3-.1-.1-.2-.2-.2-.2-.3-.3-.5-.6-.7-.9-.1-.1-.1-.2-.2-.3-.1-.1-.1-.2-.2-.2l-.2-.3h0c.1-.1.2-.2.2-.3h0c0-.1.1-.1.1-.1q0-.1.1-.2t.1-.2v-.2c.1-.7-.1-1.6-.3-2.5-.1-.2-.1-.4-.2-.6-.2-.7-.4-1.3-.4-1.8-.6-3.1-.8-6.3-1.1-9.5-.1-.9-.2-1.8-.3-2.6-.1-.7-.2-1.4-.2-2.2-.2-1.8-.2-3.6-.2-5.4.6,5.3,1,10.5,1.5,15.7v-1.6c-.6-7.3-.5-14.5-.3-21.7-.2-3.6-.5-7.5.1-11,.4-1.4-.4-3.7,1.3-4.3,0-2.7.2-5.4.5-7.9.1-.9.1-2.2,1.2-2.4h.5c.1,0,.1-.1.2-.1,3.8-.6,7.7-.2,11.4-.1,5.8-.1,11.7.3,17.5.4,16.5.9,33.1,2,49.6,1.7,3.3-.1,6.6-.2,9.9-.3,10.8.1,21.5.5,32.3.8,4.8.1,9.7.3,14.5.8.4,0,.7.2.9.4,1.6,0,3.2-.2,4.9-.2,4.4-.1,8.8.7,13.1.7,11.3.4,22.6-.2,33.8-.7,6,0,11.9.6,17.9.7,16.4-.1,32.7-2.3,49.1-1.8,3.7.4,7.5.5,11,1.5.2-.2.6-.2,1-.2,2.7,1.6,2.9,7.9,3.2,10.5h0Z"/>
      <path class="cls-6" d="m72.86,149.87c-1.2-.1-2.2-1-3.1-1.6-3.6-1.3-3.7-4.7-4.2-8-.8-4.2-.8-8.4-.9-12.7.3-2.3-.8-5.1.6-7.1-.3-.1-.5-.2-.8-.3.1.1.2.1.3.1-.7-.2-1.2-.9-1-1.6,1-3.2,7.9,2.3,9.3,3.5,1.5,1.6,1.6,3.9,1.9,5.9.7,5.5.1,11-.1,16.5-.1,2,1,5.5-2,5.3h0Z"/>
      <path class="cls-6" d="m127.56,113.57c0-.2,0-.3.1-.5-2-.1-4-.2-6-.2-1.2,0-3.1.2-3.1-1.4-4.5,0-9.1-.1-13.6,0-1.1.1-2.8.2-2.8-1.3-1.3-.2-3.8.3-3.8-1.6,0-.6.5-1.3,1.2-1.3,7.6-.2,15.2-.4,22.7-.1v-.2c-9-.8-18.2-.5-27.2-.5-1.7-.3-6.6,1.1-6.6-1.5-1.2.1-2.9,0-2.6-1.7.4-1.8,2.6-1.6,4-1.7-.3-.2-.5-.6-.5-1-.8.1-1.6-.4-1.7-1.2-.1-1.2,1.2-1.6,2.1-1.8-1.3,0-3.5.1-3-1.9-.5,0-.9-.1-1.4-.1-1.3-.2-1.6-2.1-.3-2.6,1.1-.4,2.3-.1,3.5-.2,3.7-.1,7.4-.5,11.2-.6,1.2-1.1,3.1-.6,4.6-.7,3.6.1,7.2.2,10.7.5.2-.3.5-.4.9-.5,1.7-.1,3.3-.1,5-.1,5.5-.1,11,.1,16.5,0,2.3,0,4.7.1,7,.1,1.1-.2,2.7-.1,2.8,1.3.2.1.4.3.5.5,3.3.2,6.7.3,10,.7.8.1,1.4,1,1.1,1.8,1.2.1,3.1,0,3.1,1.6,0,.7-.6,1.4-1.4,1.3-1.5-.1-3-.2-4.6-.2v.4c1.4.5,1.8,2.9.1,3.1-3,.5-6.1.6-9.1.9,0,.1-.1.1-.1.2.7,0,1.5.2,2,.7.9,0,1.7.9,1.4,1.8,1.3.1,2.5.2,3.8.3.4,0,.8.2,1,.5,1.1.1,2.8.3,2.6,1.8-.1.7-.7,1.2-1.4,1.2-4.2,0-8.4-.2-12.6-.3,0,.9-.8,1.4-1.6,1.4.5.1,1,.1,1.5.2,1.1.1,1.5,1.6.8,2.3.2,2.2-2.8,1.6-4.2,1.8h.2c-3.9.2-7.7.3-11.6.3-.6-.1-1.2-.7-1.2-1.5h0Z"/>
      <path class="cls-3" d="m312.36,153.07c-2.3-1,.1-3.1,1.1-4.1,1.1-1.2,2.1-2.4,3.1-3.7,3.3-4.5,6.3-9.1,8.9-14.1,3.7-6,8.3-11.3,11.5-17.5.3-.6,1-.9,1.6-.7,1.1.4,1.2,1.7.4,2.5-2.7,5.2-6.4,9.7-9.7,14.6-4.2,6.9-7.9,14.1-13.4,20.1-.7.8-1.4,1.4-2.1,2.3-.2.5-.8.8-1.4.6h0Z"/>
      <path class="cls-1" d="m313.76,153.87c-2-1.2.5-3.2,1.2-4.6,1.6-2.2,3.1-4.2,4.6-6.5,4.6-6.7,9.1-13.4,13.6-20,1.8-2.6,3-5.8,5.1-8.2.6-.4,1.4-.3,1.9.3.8,1.3-.8,2.3-1.2,3.4-1.3,2.1-2.3,4.2-3.7,6.2-5.5,7.9-10.8,16.1-16.4,24l.1-.1c-1.1,1.4-1.9,2.8-2.9,4.2-.6,1-1.3,1.8-2.3,1.3h0Z"/>
      <path class="cls-3" d="m329.36,151.57c-1.8-1.3.9-3.8,1.6-5.2-.1-.1-.2-.3-.3-.5-.8.9-2.3.6-2.5-.6-.3.4-.6.8-.9,1.1-.7.7-2,.3-2.2-.7-.1-1.5,1.2-2.7,1.8-3.9,2.9-4.9,5.7-9.8,8.7-14.6,0,.1-.1.1-.1.1.4-1.1,2.1-1,2.5.1.2.5,0,1.1-.3,1.5-.6,1-1.2,2-1.8,2.9,3.3.2.4,4.1-.3,5.6,1.4.1,1.5,1.8.8,2.7,1.5,1.2-.1,3.2-.8,4.5.6.9-.2,2.1-.4,2.9.3,1-.3,2.1-.6,3-.3.8-1.1,1.2-1.9.8-.3.1-.5,0-.8-.1-.2-.1-.3-.2-.4-.3-.6.9-1.5,1.2-2.1.7h0Z"/>
      <path class="cls-3" d="m154.06,100.47c-1.6-.1-3.3-.3-4.9-.3-13.2-.5-26.6-1.5-39.8-1.7-5.1-.2-10.2,0-15.2-.1-.7,0-1.2-.7-1.2-1.3.2-2.2,3.4-1.2,4.9-1.6.1-.6.7-1.1,1.3-1.1,4.5,0,9-.2,13.5-.1,1.3-.4,2.7-.3,4.1-.4-5.2-.9-10.5-1.9-15.7-3-1.9-.5-5.9-.6-5.5-3.4.8-1.5,2.9-.8,4.3-.9,2.7.2,5.3.3,8,.6,7.4.7,14.9,1.4,22.1,3,1.8.2,1.5,2.8-.3,2.7-5.7-1.2-11.6-1.9-17.4-2.5,9.2,1.6,18.3,3.9,27.8,3.8,5.3.3,10.6.7,15.9,1.1,1.4.4,4.9-.1,4.9,1.9,1,.1,2.3.2,2.3,1.4,0,.7-.6,1.4-1.3,1.4-1.6,0-3.2-.1-4.7-.2-1.1.6-2.2.7-3.1.7h0Z"/>
      <path class="cls-3" d="m151.56,119.47c-12.1-1.2-24.3-2.2-36.5-2.8-1.9-.1-3.8-.3-5.6-.3-1.2,0-2.9,0-3.4-1.4-1.2,0-2.9-.6-2.3-2.1-3.9.1-7.8.5-11.7.5-.5,0-.9-.2-1.2-.6-.3-.5-.3-1.1,0-1.5.9-1.2,2.7-.6,4-.9-.7-.9,0-2.1,1-2.4-.4,0-.8-.1-1.3-.1-.3,0-.6-.2-.8-.4-3.5.1-7.1.3-10.6.5-.9.1-1.6-.9-1.3-1.7-.1-.2-.2-.3-.2-.6v-.1c-.1-.1-.2-.1-.3-.2-.4,0-.8-.1-1.2-.1-1.1-.1-1.6-1.5-.8-2.3-.9.1-2.1-.2-2.1-1.3.1-2.2,3.4-1.2,4.9-1.5.2-.2.5-.3.8-.3.5,0,1.1-.1,1.6-.1-.2-.2-.3-.4-.4-.6-.1-.3-.1-.7.1-1-.2-.1-.5-.2-.7-.3-.4-.2-.6-.5-.7-.8-1.4-.6-.9-2.3.3-2.7-.3-.3-.4-.9-.2-1.3,0-1.3,1.3-1.4,2.4-1.4,3.9-.1,7.8-.5,11.8-.7,5-.2,10,0,14.9-.5,12.6-.8,25.1.4,37.7.9,1.9.3,3.8.2,5.6.3,1.3,0,3.8-.1,3.4,1.9,3.6.2,7.1.5,10.6,1.1.6.1,1.2.6,1.2,1.2,1.5.3,1.3,2.7-.2,2.7-4.1-.1-8.2-.7-12.4-1,.1.3.1.7-.1,1-.2.4-.6.7-1,.9,1.8.4,3.7.5,5.5.8.4.1.8.3,1,.6,1.9.4,3.7,1,5.5,1.5.9.2,2.1.5,2.6,1.4,1.2,3.1-2.3,2.4-4.2,2.4-.7,0-1.4-.1-2.1-.1h.1c.5,1.8-1.5,2.3-2.8,1.9v.3c0,.3-.2.6-.4.8.4.9-.4,2-1.4,1.9-1.9-.2-3.7-.4-5.6-.5,2.4.3,4.7.7,7.1,1.1,1.2.4,3.5.3,3.4,2-.1,1.3-1.6,1.3-2.6,1.2.9.2,2.3.3,2.3,1.6,0,.7-.5,1.3-1.1,1.4-3.2.3-6.4-.7-9.5-.9,1.3.4,1.1,2.5-.2,2.6-1,.1-1.9.1-2.9,0h0Z"/>
      <path class="cls-4" d="m140.66,109.77c-4.6-.3-9.2-.7-13.7-1-.2.3-.5.4-.8.5-2.4.1-4.9-.2-7.3-.3-2.9-.2-5.6-.3-8.3-.4-.8-.1-1.8.2-2.3-.6-5.7-.3-11.1-.3-16.7-.3-1.4.1-1.9-2-.6-2.6-.6-1.6,1-2,2.3-1.9-.7-.8,0-2.2,1-2.2h2.5c-.2-.3-.3-.6-.3-.9.1-.5.4-1,.9-1.1-1,.1-2.2-.1-2.3-1.3,0-.7.6-1.4,1.3-1.4,2.8,0,5.6-.1,8.3-.1q.1-.1.2-.1c-2-.3-4-.5-5.9-.8-1.1-.2-2.7-.2-2.8-1.6,0-.6.4-1.2,1-1.3,7.4-.3,14.8.3,22.2.3,10.4.3,20.8.3,31.2,1.5,1.8.4,7.6,0,5.9,3.1,1.6.4,5.9.2,6.1,2.3,0,.6-.4,1.2-1,1.3-4.2.9-8.7,0-13,.1v.4c.4.1.8.4,1,.8,2.3.2,4.6.4,6.9.7.7.1,1.3.7,1.2,1.5-.1.7-.8,1.3-1.5,1.2-2.2-.3-4.4-.6-6.6-.7,0,.6-.5,1.2-1.1,1.3-.9.1-1.8,0-2.7,0,.4,1-.6,1.9-1.6,1.8.7,2.1-2.1,2.1-3.5,1.8h0Z"/>
      <path class="cls-4" d="m110.16,98.17c-2.4-.4-4.9-.8-7.4-.6-.6,0-1.3,0-1.7-.5-1.9-.6-1.1-3,.8-2.7,1.1-.9,2.8-.5,4.1-.9,1.7-.4,6-.7,5,2.2,1.3.6.7,2.8-.8,2.5h0Z"/>
      <path class="cls-4" d="m107.56,95.77c-1.3-.4-2.9-.3-3.9-1.3-.8-.1-1.6,0-2.3-.3-.9-.5-1-1.8-.1-2.3,3.5-.8,7.3-.4,10.9-.3,4.2-.1,8.3.1,12.5.6.4-.3.9-.4,1.3-.4,2.3,0,4.6.2,6.8.1,1.5,0,3,.1,4.4.2,1,.1,2.3,0,3,1,.8,1.2-.8,2.7-1.9,1.9-1.9.3-3.9-.2-5.8-.2-1.2,1.2-3.2.4-4.7.4-5-.4-9.9-1.2-14.9-.9-.6,1.4-2.5.7-3.7.9-.4.5-1,.8-1.6.6h0Z"/>
      <path class="cls-4" d="m99.46,104.97c-3.6-.5-7.2-1-10.8-1.2-.8.1-1.7-.3-1.8-1.2-1.5-.2-1.7-2.3-.2-2.7.2-.5.7-.9,1.2-.9,1.4.1,2.7.1,4.1.2h0c-.3-.3-.4-.8-.3-1.2.1-.4.3-.7.7-.8h0c-.6-.2-.9-.8-.9-1.4.2-1.6,2-1.2,3.1-1.1.2-.2.5-.3.8-.3.7,0,1.5,0,2.2-.1,1.3-1.1,3.3-1.2,4.9-1.6,1.4-.4,3.6.4,3.3,2.2-.2,1.1-1.8,1.4-2.4.4-.2,0-.3.1-.5.1-.1.4-.4.8-.8,1,0,.2-.1.3-.2.4.9.2,1.9,1.1,1.5,2.1.3.2.6.4.7.8.2.5,0,1-.4,1.4.7.8,0,2.1-1.1,2.2-.6,0-1.2,0-1.8-.1.5.8-.3,2-1.3,1.8Z"/>
      <path class="cls-4" d="m98.16,113.77c-.7,0-1.4-.6-1.4-1.3v-.2c-1.9-3.3,4.6-2.3,6.2-2.2.9.2,1.5,1.3,1.4,2.2-.6,1.9-4.5,1.4-6.2,1.5h0Z"/>
      <path class="cls-4" d="m91.76,113.87c-1.5.1-2.4-1.7-1.1-2.6.7-.4,1.6-.3,2.4-.3.3-.1.7-.1,1,.1.8.2,1.3,1.1,1,1.8-.6,1.3-2.2,1-3.3,1h0Z"/>
      <path class="cls-2" d="m171.16,117.77c-11.2-1.2-22.5-1.8-33.7-1.9h-7.3c-1.5-.2-4,.6-4.7-1.2-2.8-.1-5.6-.2-8.4-.2-1.1,0-2.7.3-2.9-1.2-1.7-.3-8.2-.1-5.7-3.1-1.4-.3-1.2-2.7.3-2.7,3.3,0,6.5-.1,9.8,0,6.3.2,12.7.5,19,0,.2-.3.6-.5,1.1-.6,1.1-.1,2.3-.1,3.4-.2-1,.1-2.2-.2-2.2-1.3.1-1.9,2.3-1.3,3.6-1.3.2-.5.7-1,1.2-.9h2.3c-.1-.3,0-.6.2-.9h-.3c-.7,0-1.2-.6-1.2-1.3-1,0-2.5,0-2.6-1.3,0-.7.6-1.4,1.3-1.4,8.7,0,17.3.1,26,0,.5-.3,1.1-.2,1.7-.2.9,0,2.1,0,2.4,1.1,2.2.2,4.4.5,6.7.7.5.1.9.4,1.1.8,1.2.1,3.4.1,3.1,1.9.3.3.5.7.5,1.2,0,.4-.2.7-.5.9.9,0,1.7.6,1.6,1.6-.3,1.9-2.6.9-3.9.9v.2c-.1.3-.3.6-.5.8v.1c.1.6-.2,1.2-.8,1.4.9.8.2,2.4-1.1,2.3-1.6-.1-3.1-.2-4.7-.3.4.2.7.7.7,1.2,1.4.7.7,2.8-.9,2.6-.3,1.4-1.9,1.5-3,1.2-.1.6-.8,1.2-1.6,1.1h0Z"/>
      <path class="cls-2" d="m177.36,102.27c-6.9-.7-13.7-1.7-20.7-2-1,0-1.9-.2-2.9-.2-.7,0-1.3-.1-1.8-.6-.7-.9,0-2.3,1.1-2.2-.3-1.2.9-1.9,2-1.7,1.7,0,3.5.1,5.1.2-.2-1.6,1.6-1.7,2.7-1.7,1.5-.1,3,0,4.3.1,3,0,5.9.3,8.9.6,1.4.4,4.3-.1,4,2.1.7,1.6-.8,2.3-2.2,2,.1.2.1.4.1.6s0,.3-.1.4c1.5.5.9,2.6-.5,2.4h0Z"/>
      <path class="cls-2" d="m154.76,96.67c-2.8-.1-5.6-.1-8.3-.2-.2,0-.5-.1-.7-.2h-.2c-.2,0-.4-.1-.6-.2-.5.1-.7.1-1.1.2-.7.2-1.5-.2-1.7-.9-.3-1.3.9-1.8,2-1.9.2-.3.6-.6,1-.7,1.1-.9,2.7-.2,3.9-.3,1.4.3,3.7-.3,4.6,1,.3.1.6.1.8.3.1.1.2.2.3.3,1,0,2.3.1,2.4,1.4.1,1.2-1.4,1.3-2.4,1.2h0Z"/>
      <path class="cls-3" d="m172.46,121.17c-8.4-1.7-16.8-2.7-25.3-3.8-2.1-.2-4.2-.5-6.2-.7-.7-.1-1.4-.1-1.8-.6-1-.1-2-.1-3-.5-1.6-.6-.8-3.1.9-2.6,5.9.8,11.9,1.1,17.8,2.2.4,0,.7.2.9.6,5.8.8,11.6,1.6,17.3,2.8,1.7.3,1.1,2.9-.6,2.6h0Z"/>
      <path class="cls-2" d="m148.56,118.17c-5.9-1.1-12.2-1.2-18-2.7-.6-.4-.7-1.3-.3-1.9.5-.8,1.5-.5,2.3-.6.6-1.4,2.6-.9,3.8-1.1,1.2.2,3.1-.4,3.9.8,1.3.1,3.6.1,3.1,1.9,1.8.2,3.6.5,5.4.8.7.1,1.3.7,1.2,1.5,0,.8-.7,1.4-1.4,1.3h0Z"/>
      <path class="cls-2" d="m154.46,120.07c-.9,0-2.2.1-2.4-1.1-.1-.7.4-1.5,1.1-1.6,1.4-.3,3.9.2,3.1,2.1-.3.7-1.2,1-1.8.6Z"/>
      <path class="cls-5" d="m210.76,91.87c-14.6,0-29.2-1-43.8-1.6-29.3-.8-58.8-2.5-88.1-2-3.9.1-7.9.3-11.8.1-.7,0-1.3-.7-1.3-1.4s.7-1.3,1.4-1.3c14.2-.2,28.4-.4,42.6.1,32.2.5,64.3,2.4,96.4,3.3,8,0,16-.1,24.1-.2,12.4-.2,24.7-.3,37.1,0,10.3.2,20.7,0,31-.2,12.3-.2,24.7-.5,37-.1.7,0,1.3.7,1.3,1.4s-.7,1.3-1.4,1.3c-6.5-.3-13-.3-19.5-.2-23.1.5-46.3.6-69.4.2-6,0-12,.1-18,.2-5.6.1-11.1.2-16.7.2-.3.2-.6.2-.9.2h0Z"/>
      <path class="cls-5" d="m220.96,160.47h-17.1c-5.8,0-11.7-.1-17.5,0-5.6-.1-11.3,0-16.7-1.2-2.2-.6-3.7-3.2-6-3-1.4,1-2.7,2.2-4.3,3s-3.4.6-5.2.6c-2.8-.1-5.7-.2-8.5-.4-21.1-.8-42.1-3.4-63-6.1-4.2-.7-8.4-1.7-12.5-2.9-3.6-1.2-5.5-2.1-5.5-6.2-1-15.4-1.5-30.9-.3-46.3.2-3.4.6-6.9.8-10.3.1-1.7,2.7-1.7,2.7.1-1.9,19.5-2.1,39.2-.2,58.6.1.1.3.2.3.2,9.7,4.5,20.7,4.8,31.1,6.1,12.7,1.7,25.2,3.1,38,3.7,5.9.4,11.9.7,17.8.9,1.1,0,2.3.1,3.4-.3,3.7-1.9,4.7-5.1,9.2-2.1,3.8,3.5,9.2,2.6,14,3,3.1.1,6.3.1,9.4.1,2.6,0,5.3-.1,7.9,0,4.2.1,8.4.1,12.6.1,3.5,0,6.9-.1,10.4,0,5.4.5,10.7-.6,16.1-.8,2.2-.1,4.3.1,6.5.2,1.9.1,3.9.3,5.8.3,2.7-.2,5.2-.9,7.9-1,3.1-.2,6.1.1,9.2-.5,3.8-.5,7.5-2.8,11.4-1.7,1.7.6,3.4,1.3,5.3,1.5,4.8.5,9.4-1.1,14.1-1.8,11.8-1.9,23.7-4.1,35.6-3.9,1.8-9.3,1.5-18.6,3.3-27.9.9-4.7,1.7-9.5,1.8-14.3-.1-5.4-1.2-10.6-2.5-15.7-.5-.7-1-1.5-.3-2.2.5-.5,1.4-.7,1.8-.2,1.1.8,1.3,2.2,1.4,3.2,1.5,5.5,2.4,11,2.3,16.7-.3,5.7-1.5,11.2-2.4,16.7-1.1,6.6-.9,13.3-2,19.9-.9,6.8-.7,6.6-5.3,6.5h-2.7c-7.2.3-14.3,1.4-21.4,2.3-5,.9-10,1.7-15,2.7-2.6.6-5.3.9-8,.8-1.1-.1-2.2-.3-3.3-.5-1.8-.4-3.5-1.7-5.5-1.3-5.2,1.4-10.4,2.7-15.9,2.4-3.2,0-6,.7-9.1,1-2.3.2-4.4-.1-6.7-.3-4-.4-7.9-.1-11.8.3-2.6.2-5.2.5-7.9.5-1.4-.4-2.5-.4-3.5-.5h0Z"/>
      <path class="cls-5" d="m85.06,166.17c-2.4-1.7-23-17.5-19.2-19.7,1.2-.8,2,.4,2.6,1.3,3.8,4.8,8.5,8.7,13.3,12.4,1.5,1.3,3.1,2.6,4.7,3.7,1.2.8.4,2.5-.7,2.5-.2.1-.4,0-.7-.2h0Z"/>
      <path class="cls-5" d="m86.06,166.07c-.8-.1-1.3-.7-1.3-1.4s.1-1.3.1-2c.1-1.2.1-2.4.2-3.6.1-2.1.2-4.2.4-6.3,0-.7.7-1.3,1.4-1.3s1.3.7,1.3,1.4c-.1,2.1-.2,4.2-.4,6.3-.1,1.2-.1,2.4-.2,3.6,0,.6-.1,1.2-.1,1.8v.2c0,.8-.6,1.3-1.4,1.3h0Z"/>
      <path class="cls-5" d="m81.46,165.67c-8.2-1.4-16.6-2.3-24.9-2.9-4.2-.8-8.5-1.1-12.7-1.6-2.7-.5-5.4-.9-8.2-1s-5.6-.7-8.3-1c-1.5-.1-3.1-.1-4.5-.7-1.8-.8-1.5-2.8.1-3.6,2.9-2.1,5.9-3.9,9.1-5.4-3.2-1.3-6.8-1-9.8-2.6-3.4-2.1,1.3-5.1,2.9-6.7,2.2-2.1,4.5-4,6.8-6-2.7-1.2-5.6-2.5-8.4-3.5-1.1-.5-2.6-.8-3.2-1.9-.7-2.5,3.1-2.4,4.7-3.1,2.4-.7,4.8-1.4,7.2-2.2-3.2-1.6-6.3-3.2-9.3-4.9-2.2-.9-2.2-3.5.5-3.2,5.6-.3,11,0,16.6,0,7.4-.2,14.8,0,22.2.2,1.1.2,2.7-.2,3.4.9.6,1-.5,2.3-1.6,1.9-8.7-.5-17.5-.4-26.2-.3-3.3,0-6.8-.5-10.1-.1,3,1.7,5.9,2.9,8.8,4.6.9.6.7,2-.2,2.4-.6.3-1.3.4-1.9.6-3,1-6,2-9,2.8,3.2,1.4,6.8,2.4,9.6,4.5.9,1.3-.5,2.7-1.4,3.5-3.2,2.7-6.3,5.4-9.3,8.4,2,1,14.9,1.7,11.5,5.7-3.2,2.1-6.9,3.6-10.1,5.9,5,.4,9.9,1.2,14.9,1.5,5.9,1,11.8,1.4,17.7,2.4,8.6.4,17.1,1.8,25.5,3,1,0,2.2.1,2.2,1.4,0,.7-.6,1.3-1.3,1.3h-.3c-1,0-2-.2-3-.3h0Z"/>
      <path class="cls-5" d="m48.76,153.17c-.8-.1-1.2-.8-1.1-1.6.5-4.4,1.7-8.8,2.9-13,1.7-6,3.5-12,5.2-18.1.5-1.3.1-3.8,1.9-3.9.7,0,1.2.6,1.3,1.2-.3,2.9-1.2,5.7-2.1,8.5-2.1,7.5-4.6,14.9-6.1,22.5-.5,1.4.1,4.3-1.9,4.3.1.1,0,.1-.1.1h0Z"/>
      <path class="cls-5" d="m54.46,145.87c-.7-.1-1.3-.9-1.1-1.6.9-3.2,1.6-6.5,2.9-9.6,1-1.8,3.4-.2,2.3,1.5-1,2.8-1.8,5.7-2.5,8.6-.1.6-.7,1.1-1.3,1.1h-.3Z"/>
      <path class="cls-5" d="m41.96,131.77c-.3-.5-.6-1.1-.7-1.7-.2-1.4,1.9-2,2.5-.8.2.4.3.8.6,1.2.6,1.1-.3,2-1.2,2-.5,0-.9-.2-1.2-.7h0Z"/>
      <path class="cls-5" d="m81.66,104.87c-.7-.3-1-1.1-.8-1.8,1-2.8,2-5.6,3.1-8.4,1-2.7,2.1-5.5,3.2-8.2.2-.7,1.1-1.1,1.8-.8,1.5.7.6,2.3.1,3.4-.8,2.1-1.7,4.3-2.5,6.4-1.1,2.8-2.1,5.5-3.1,8.3-.1.7-.7,1.1-1.4,1.1-.1.1-.3.1-.4,0h0Z"/>
      <path class="cls-5" d="m75.86,114.47c-.6-.3-.9-1.2-.6-1.8.9-1.5,1.8-3.1,2.6-4.6.4-.6,1.2-.9,1.8-.6.6.3.9,1.2.6,1.8-.9,1.5-1.8,3.1-2.6,4.6-.3.4-.7.7-1.2.7-.1,0-.4,0-.6-.1Z"/>
      <path class="cls-5" d="m75.96,102.77c-1.7-1.1.2-3,.8-4.1.7-1,1.3-2.8,2.8-2,1.5.9.1,2.5-.5,3.5-.7.9-1.2,2.8-2.4,2.8-.2-.1-.4-.1-.7-.2h0Z"/>
      <path class="cls-5" d="m309.16,146.77c-.7-.3-1-1.1-.8-1.8,1.9-5.7,4.8-10.9,7.9-16,.5-.9,1.4-2.3,2.6-1.4.6.4.7,1.3.3,1.9-2.3,3.4-4.2,7-6,10.6-.8,1.9-1.6,3.9-2.3,5.9-.2.5-.7.9-1.3.9-.1,0-.3-.1-.4-.1h0Z"/>
      <path class="cls-5" d="m315.16,142.87c-2.1-1.3,1.3-4.1,1.8-5.8h0c.4-1.6,2.8-1.2,2.7.4-.4,1.8-1.8,3.2-2.7,4.9-.3.4-.7.7-1.2.7-.1,0-.4-.1-.6-.2h0Z"/>
      <path class="cls-5" d="m321.56,144.97c-.7-.4-.9-1.2-.6-1.8.8-1.6,1.7-3.1,2.5-4.7.3-.7,1.1-1,1.8-.8,1.9.9.1,2.9-.5,4.2-.7,1-1.2,3.3-2.6,3.3-.1-.1-.3-.1-.6-.2Z"/>
      <path class="cls-5" d="m327.46,115.87c-.2-4.6-.1-9.2-.2-13.7v.1h0c0-4-.5-8-.3-12,.3-1.6,2.7-1.4,2.7.2.2,8.4.3,16.8.6,25.2.1.9-.7,1.4-1.4,1.4-.7,0-1.3-.4-1.4-1.2h0Z"/>
      <path class="cls-5" d="m331.56,102.27c-.2-3.8-.5-7.6-.9-11.4-.1-.7.5-1.4,1.2-1.5.8-.1,1.4.5,1.5,1.2.4,3.8.7,7.6.9,11.4.1.9-.7,1.4-1.4,1.4-.7.1-1.3-.3-1.3-1.1h0Z"/>
      <path class="cls-5" d="m323.06,108.17c-.4-4.2-.7-8.3-1.1-12.5-.1-1.8,2.5-2,2.7-.2.3,4.2.7,8.3,1.1,12.5.1.9-.7,1.4-1.4,1.4-.6,0-1.2-.4-1.3-1.2h0Z"/>
      <path class="cls-5" d="m292.36,98.37c-1.4-1.7.8-3.7,2.1-1.9,1,1.2.2,2.6-.8,2.6-.5,0-.9-.2-1.3-.7h0Z"/>
      <path class="cls-5" d="m89.56,143.47c-.3-1.6-3.4-6.5-.6-6.9.7-.1,1.4.5,1.5,1.2.5,1.6,1.1,3.2,1.7,4.8.4,1.1-.5,1.8-1.3,1.8-.6-.1-1-.3-1.3-.9h0Z"/>
      <path class="cls-5" d="m74.26,149.17c0-1.5,0-3,.1-4.5.1-1.7,0-3.4,0-5v.2c-.1-4.4.3-8.8.2-13.1,0-1.2-.4-2.9,1.2-3.1,1.4-.1,1.6,1.3,1.5,2.4.1,4.7-.3,9.5-.2,14.2.1,2.1,0,4.1,0,6.2-.2,1.4.6,4-1.5,4.1-.7,0-1.3-.7-1.3-1.4h0Z"/>
      <path class="cls-5" d="m79.16,147.07h0c-.1-3.3,0-6.7.1-10.1-.1-.7.5-1.4,1.2-1.4,1.8-.1,1.5,2.1,1.4,3.3-.1,2-.1,4.3-.1,6.2v2.4c-.1,1.4.6,4.1-1.5,4.2-2-.5-.8-3.2-1.1-4.6h0Z"/>
      <path class="cls-5" d="m80.56,132.17c-2.1-.3-1-3-1.2-4.4,0-.7.7-1.3,1.4-1.3,2.1.3,1,3,1.2,4.4,0,.7-.6,1.3-1.4,1.3.1,0,0,0,0,0h0Z"/>
      <path class="cls-5" d="m69.66,137.77c.2-1.7-1.2-6.7,1.6-6.5.7.1,1.2.9,1.1,1.6-.1,1.6,0,3.1.1,4.7.1.9-.7,1.4-1.4,1.4s-1.3-.4-1.4-1.2h0Z"/>
      <path class="cls-5" d="m129.26,148.17c-.7-.7-1.8-1.4-1.9-2.5-.1-.7.5-1.4,1.2-1.5,1.1-.1,1.6,1.4,2.4,1.9,1.1.9.2,2.4-.9,2.4-.2.1-.5,0-.8-.3h0Z"/>
      <path class="cls-5" d="m104.56,111.47c-1.7-.2-4.2-1.2-3.3-3.3,1-2.1,3.2-.6,4.8-.4,2.3.1,6-.5,6.6-3.1-2.9-1.3-6.7-.2-9.3-2.5-3.2-3.5,1-7.3,4.6-7.7,1.9-.4,3.8-.9,5.7-.8,2.4.1,2.5,3.7.1,4-2.5.1-5.3.3-7.4,1.8,3,1,6.7.2,9.2,2.5,3.9,5.5-3.3,9.9-8.8,9.9-.8-.1-1.6-.2-2.2-.4h0Z"/>
      <path class="cls-5" d="m125.36,111.97c-14.8-1.3-3.6-22.1,6.1-16,.8.7,1,1.9.3,2.8-.7.8-2,1-2.8.3-.7-.5-1.8-.4-2.6,0-2.4,1.3-4.4,4.3-4.3,7,1,1.8,3.8,2.2,5.6,1.5,2.4-.9,3.9,2.7,1.5,3.7-1.1.4-2.2.7-3.3.7h-.5Z"/>
      <path class="cls-5" d="m136.86,111.07c-8.8-.8-6.1-13.6,1.1-14.9,5.1-.1,7,3.7,6.6,7.5-.4,3.7-3.2,7.5-7.5,7.5-.1-.1-.2-.1-.2-.1h0Zm.5-4c.3,0,1.1-.3,1.2-.5,2-1.3,3.2-4.9.8-6.4h0c-.3-.1-.6-.1-.9-.1-2.4,1-4.2,4.1-2.6,6.5q-.1-.1-.2-.2c.1.2.3.4.3.3.4.4.9.4,1.4.4h0Z"/>
      <path class="cls-5" d="m148.56,113.37c-1.1,0-2-.9-1.9-2,.1-2.4.1-4.8.2-7.1.6-2.4-1.3-8.6,2.2-8.7,1,0,2,.9,2,2-.1,2.3,0,4.6-.2,6.9-.1,2.3-.1,4.7-.2,7-.1,1-1,1.9-2.1,1.9h0Z"/>
      <path class="cls-5" d="m147.76,105.07c-.2-2,1.8-2.3,3.3-2.5s5.2-1.6,2.6-3.1c-.9-.5-1.9-1.2-3-1.2-.9.5-2.2.5-2.9-.4-1.3-1.7.6-3.5,2.4-3.5,4.7-.4,11.2,5.1,7,9.6-.9,1.2-4.5,2.9-7,2.9-1.2,0-2.2-.5-2.4-1.8h0Z"/>
      <path class="cls-5" d="m155.66,110.77c-1.1-2.2-6.3-7.4-1.9-8.8,1-.1,2,.6,2.2,1.6.8,1.9,2.1,3.5,3.2,5.2.9,1.5-.4,2.9-1.8,2.9-.7.1-1.3-.2-1.7-.9h0Z"/>
      <path class="cls-5" d="m168.46,112.57c-1.4-.2-2.8-.3-4.2-.3-.8.1-1.7.1-2.2-.6-1.6-2.6-.2-6.1-.1-8.9.2-1.5.1-3.6,2-3.9,1.1-.2,2.1.7,2.2,1.7-.2,2.6-.8,5.3-.9,7.7,1.9.2,5.7-.3,5.5,2.6-.2,1-1,1.7-2,1.7q-.2,0-.3,0h0Z"/>
      <path class="cls-5" d="m168.86,106.87c-2-.7-6,.4-6.5-2.3-.1-1.1.7-2.1,1.7-2.2,1.8,0,3.6.3,5.3.5,2.4.4,2,3.9-.3,3.9,0,.1-.1.1-.2.1Z"/>
      <path class="cls-5" d="m162.76,100.17c-.2-2.1,2.1-2.5,3.7-2.4,1.7.1,4.7-.3,4.8,2.1-.2,2.1-2.1,2-3.8,1.9-.5,0-1.1-.1-1.5,0-.3.1-.6.1-.9.1-1.1.1-2.1-.4-2.3-1.7h0Z"/>
      <path class="cls-5" d="m284.86,152.57c-.6-1.2,1.3-1.1,2-1.2,2-.1,3.9-.2,5.8-.5,2.7-.3,5.3-.8,8-1.3.3-.1.6.2.7.5,0,.3-.2.6-.5.6-1.6.3-3.2.6-4.9.9-3.4.7-7,.6-10.4,1.1-.2.2-.5.2-.7-.1h0Z"/>
      <path class="cls-5" d="m298.56,149.07c-.2-.2-.1-.6.1-.8.5-.2,1-.1,1.5-.1.7.1,1.9-.4,2,.6-.2,1.1-1.7.4-2.4.6-.4,0-.9.1-1.2-.3h0Z"/>
      <path class="cls-5" d="m303.16,151.47c-.4-.1-.5-.7-.2-.9.4-.4,1.1-.3,1.7-.4.7-.1.9,1.1.2,1.1-.4,0-.7.1-1,.1-.3.2-.5.2-.7.1h0Z"/>
      <path class="cls-5" d="m75.76,155.47c-.3,0-.5-.3-.5-.6.1-.8.1-1.6.2-2.4,0-.7.1-1.4.1-2,0-.2.1-.5.3-.6,1.4-.3.6,1.9.7,2.6-.2.8.3,3.1-.8,3h0Z"/>
      <path class="cls-5" d="m77.56,159.87c-.3,0-.5-.3-.5-.6.1-1.3.2-2.6.4-3.9s.4-2.6.5-3.8c0-.1.1-.3.2-.4,1.8-.9.4,3.5.4,4.3-.2,1.3-.4,2.6-.5,4,.1.2-.2.4-.5.4Z"/>
      <path class="cls-5" d="m79.96,160.57c-.3,0-.5-.3-.5-.6.2-1.8.3-3.6.4-5.4.1-.8.2-1.7.2-2.5-.2-.6.6-1.1,1-.6.4,1.3-.2,2.8-.2,4.2-.1,1.4-.2,2.9-.3,4.4,0,.3-.3.6-.6.5Z"/>
      <path class="cls-5" d="m81.76,161.47c-.2-3,.6-5.9.8-8.8-.1-.9.3-1.5,1-.9.4,2.6-.8,5.4-.7,8-.1.7.4,2.1-.6,2.2-.2.1-.5-.2-.5-.5h0Z"/>
    </g>
  </g>
</svg>